%TF.GenerationSoftware,KiCad,Pcbnew,9.0.2*%
%TF.CreationDate,2025-06-12T11:19:43+05:30*%
%TF.ProjectId,Project 1 LED torch,50726f6a-6563-4742-9031-204c45442074,1*%
%TF.SameCoordinates,Original*%
%TF.FileFunction,Legend,Top*%
%TF.FilePolarity,Positive*%
%FSLAX46Y46*%
G04 Gerber Fmt 4.6, Leading zero omitted, Abs format (unit mm)*
G04 Created by KiCad (PCBNEW 9.0.2) date 2025-06-12 11:19:43*
%MOMM*%
%LPD*%
G01*
G04 APERTURE LIST*
%ADD10C,0.100000*%
%ADD11C,0.150000*%
%ADD12C,0.120000*%
%ADD13R,1.800000X1.800000*%
%ADD14C,1.800000*%
%ADD15R,2.540000X3.510000*%
%ADD16R,1.700000X1.700000*%
%ADD17C,1.700000*%
%ADD18C,1.400000*%
G04 APERTURE END LIST*
D10*
X87703884Y-121691466D02*
X88465789Y-121691466D01*
X88084836Y-122072419D02*
X88084836Y-121310514D01*
X87703884Y-113691466D02*
X88465789Y-113691466D01*
D11*
X89961905Y-114054819D02*
X89961905Y-113054819D01*
X89961905Y-113054819D02*
X90200000Y-113054819D01*
X90200000Y-113054819D02*
X90342857Y-113102438D01*
X90342857Y-113102438D02*
X90438095Y-113197676D01*
X90438095Y-113197676D02*
X90485714Y-113292914D01*
X90485714Y-113292914D02*
X90533333Y-113483390D01*
X90533333Y-113483390D02*
X90533333Y-113626247D01*
X90533333Y-113626247D02*
X90485714Y-113816723D01*
X90485714Y-113816723D02*
X90438095Y-113911961D01*
X90438095Y-113911961D02*
X90342857Y-114007200D01*
X90342857Y-114007200D02*
X90200000Y-114054819D01*
X90200000Y-114054819D02*
X89961905Y-114054819D01*
X91485714Y-114054819D02*
X90914286Y-114054819D01*
X91200000Y-114054819D02*
X91200000Y-113054819D01*
X91200000Y-113054819D02*
X91104762Y-113197676D01*
X91104762Y-113197676D02*
X91009524Y-113292914D01*
X91009524Y-113292914D02*
X90914286Y-113340533D01*
X84854819Y-117942857D02*
X84854819Y-118419047D01*
X84854819Y-118419047D02*
X83854819Y-118419047D01*
X84331009Y-117609523D02*
X84331009Y-117276190D01*
X84854819Y-117133333D02*
X84854819Y-117609523D01*
X84854819Y-117609523D02*
X83854819Y-117609523D01*
X83854819Y-117609523D02*
X83854819Y-117133333D01*
X84854819Y-116704761D02*
X83854819Y-116704761D01*
X83854819Y-116704761D02*
X83854819Y-116466666D01*
X83854819Y-116466666D02*
X83902438Y-116323809D01*
X83902438Y-116323809D02*
X83997676Y-116228571D01*
X83997676Y-116228571D02*
X84092914Y-116180952D01*
X84092914Y-116180952D02*
X84283390Y-116133333D01*
X84283390Y-116133333D02*
X84426247Y-116133333D01*
X84426247Y-116133333D02*
X84616723Y-116180952D01*
X84616723Y-116180952D02*
X84711961Y-116228571D01*
X84711961Y-116228571D02*
X84807200Y-116323809D01*
X84807200Y-116323809D02*
X84854819Y-116466666D01*
X84854819Y-116466666D02*
X84854819Y-116704761D01*
X125871428Y-126631009D02*
X126014285Y-126678628D01*
X126014285Y-126678628D02*
X126061904Y-126726247D01*
X126061904Y-126726247D02*
X126109523Y-126821485D01*
X126109523Y-126821485D02*
X126109523Y-126964342D01*
X126109523Y-126964342D02*
X126061904Y-127059580D01*
X126061904Y-127059580D02*
X126014285Y-127107200D01*
X126014285Y-127107200D02*
X125919047Y-127154819D01*
X125919047Y-127154819D02*
X125538095Y-127154819D01*
X125538095Y-127154819D02*
X125538095Y-126154819D01*
X125538095Y-126154819D02*
X125871428Y-126154819D01*
X125871428Y-126154819D02*
X125966666Y-126202438D01*
X125966666Y-126202438D02*
X126014285Y-126250057D01*
X126014285Y-126250057D02*
X126061904Y-126345295D01*
X126061904Y-126345295D02*
X126061904Y-126440533D01*
X126061904Y-126440533D02*
X126014285Y-126535771D01*
X126014285Y-126535771D02*
X125966666Y-126583390D01*
X125966666Y-126583390D02*
X125871428Y-126631009D01*
X125871428Y-126631009D02*
X125538095Y-126631009D01*
X126919047Y-127107200D02*
X126823809Y-127154819D01*
X126823809Y-127154819D02*
X126633333Y-127154819D01*
X126633333Y-127154819D02*
X126538095Y-127107200D01*
X126538095Y-127107200D02*
X126490476Y-127011961D01*
X126490476Y-127011961D02*
X126490476Y-126631009D01*
X126490476Y-126631009D02*
X126538095Y-126535771D01*
X126538095Y-126535771D02*
X126633333Y-126488152D01*
X126633333Y-126488152D02*
X126823809Y-126488152D01*
X126823809Y-126488152D02*
X126919047Y-126535771D01*
X126919047Y-126535771D02*
X126966666Y-126631009D01*
X126966666Y-126631009D02*
X126966666Y-126726247D01*
X126966666Y-126726247D02*
X126490476Y-126821485D01*
X127252381Y-126488152D02*
X127633333Y-126488152D01*
X127395238Y-126154819D02*
X127395238Y-127011961D01*
X127395238Y-127011961D02*
X127442857Y-127107200D01*
X127442857Y-127107200D02*
X127538095Y-127154819D01*
X127538095Y-127154819D02*
X127633333Y-127154819D01*
X128680953Y-126250057D02*
X128728572Y-126202438D01*
X128728572Y-126202438D02*
X128823810Y-126154819D01*
X128823810Y-126154819D02*
X129061905Y-126154819D01*
X129061905Y-126154819D02*
X129157143Y-126202438D01*
X129157143Y-126202438D02*
X129204762Y-126250057D01*
X129204762Y-126250057D02*
X129252381Y-126345295D01*
X129252381Y-126345295D02*
X129252381Y-126440533D01*
X129252381Y-126440533D02*
X129204762Y-126583390D01*
X129204762Y-126583390D02*
X128633334Y-127154819D01*
X128633334Y-127154819D02*
X129252381Y-127154819D01*
X129871429Y-126154819D02*
X129966667Y-126154819D01*
X129966667Y-126154819D02*
X130061905Y-126202438D01*
X130061905Y-126202438D02*
X130109524Y-126250057D01*
X130109524Y-126250057D02*
X130157143Y-126345295D01*
X130157143Y-126345295D02*
X130204762Y-126535771D01*
X130204762Y-126535771D02*
X130204762Y-126773866D01*
X130204762Y-126773866D02*
X130157143Y-126964342D01*
X130157143Y-126964342D02*
X130109524Y-127059580D01*
X130109524Y-127059580D02*
X130061905Y-127107200D01*
X130061905Y-127107200D02*
X129966667Y-127154819D01*
X129966667Y-127154819D02*
X129871429Y-127154819D01*
X129871429Y-127154819D02*
X129776191Y-127107200D01*
X129776191Y-127107200D02*
X129728572Y-127059580D01*
X129728572Y-127059580D02*
X129680953Y-126964342D01*
X129680953Y-126964342D02*
X129633334Y-126773866D01*
X129633334Y-126773866D02*
X129633334Y-126535771D01*
X129633334Y-126535771D02*
X129680953Y-126345295D01*
X129680953Y-126345295D02*
X129728572Y-126250057D01*
X129728572Y-126250057D02*
X129776191Y-126202438D01*
X129776191Y-126202438D02*
X129871429Y-126154819D01*
X130538096Y-126154819D02*
X131157143Y-126154819D01*
X131157143Y-126154819D02*
X130823810Y-126535771D01*
X130823810Y-126535771D02*
X130966667Y-126535771D01*
X130966667Y-126535771D02*
X131061905Y-126583390D01*
X131061905Y-126583390D02*
X131109524Y-126631009D01*
X131109524Y-126631009D02*
X131157143Y-126726247D01*
X131157143Y-126726247D02*
X131157143Y-126964342D01*
X131157143Y-126964342D02*
X131109524Y-127059580D01*
X131109524Y-127059580D02*
X131061905Y-127107200D01*
X131061905Y-127107200D02*
X130966667Y-127154819D01*
X130966667Y-127154819D02*
X130680953Y-127154819D01*
X130680953Y-127154819D02*
X130585715Y-127107200D01*
X130585715Y-127107200D02*
X130538096Y-127059580D01*
X131538096Y-126250057D02*
X131585715Y-126202438D01*
X131585715Y-126202438D02*
X131680953Y-126154819D01*
X131680953Y-126154819D02*
X131919048Y-126154819D01*
X131919048Y-126154819D02*
X132014286Y-126202438D01*
X132014286Y-126202438D02*
X132061905Y-126250057D01*
X132061905Y-126250057D02*
X132109524Y-126345295D01*
X132109524Y-126345295D02*
X132109524Y-126440533D01*
X132109524Y-126440533D02*
X132061905Y-126583390D01*
X132061905Y-126583390D02*
X131490477Y-127154819D01*
X131490477Y-127154819D02*
X132109524Y-127154819D01*
X125295236Y-108531009D02*
X125438093Y-108578628D01*
X125438093Y-108578628D02*
X125485712Y-108626247D01*
X125485712Y-108626247D02*
X125533331Y-108721485D01*
X125533331Y-108721485D02*
X125533331Y-108864342D01*
X125533331Y-108864342D02*
X125485712Y-108959580D01*
X125485712Y-108959580D02*
X125438093Y-109007200D01*
X125438093Y-109007200D02*
X125342855Y-109054819D01*
X125342855Y-109054819D02*
X124961903Y-109054819D01*
X124961903Y-109054819D02*
X124961903Y-108054819D01*
X124961903Y-108054819D02*
X125295236Y-108054819D01*
X125295236Y-108054819D02*
X125390474Y-108102438D01*
X125390474Y-108102438D02*
X125438093Y-108150057D01*
X125438093Y-108150057D02*
X125485712Y-108245295D01*
X125485712Y-108245295D02*
X125485712Y-108340533D01*
X125485712Y-108340533D02*
X125438093Y-108435771D01*
X125438093Y-108435771D02*
X125390474Y-108483390D01*
X125390474Y-108483390D02*
X125295236Y-108531009D01*
X125295236Y-108531009D02*
X124961903Y-108531009D01*
X126390474Y-109054819D02*
X126390474Y-108531009D01*
X126390474Y-108531009D02*
X126342855Y-108435771D01*
X126342855Y-108435771D02*
X126247617Y-108388152D01*
X126247617Y-108388152D02*
X126057141Y-108388152D01*
X126057141Y-108388152D02*
X125961903Y-108435771D01*
X126390474Y-109007200D02*
X126295236Y-109054819D01*
X126295236Y-109054819D02*
X126057141Y-109054819D01*
X126057141Y-109054819D02*
X125961903Y-109007200D01*
X125961903Y-109007200D02*
X125914284Y-108911961D01*
X125914284Y-108911961D02*
X125914284Y-108816723D01*
X125914284Y-108816723D02*
X125961903Y-108721485D01*
X125961903Y-108721485D02*
X126057141Y-108673866D01*
X126057141Y-108673866D02*
X126295236Y-108673866D01*
X126295236Y-108673866D02*
X126390474Y-108626247D01*
X126723808Y-108388152D02*
X127104760Y-108388152D01*
X126866665Y-108054819D02*
X126866665Y-108911961D01*
X126866665Y-108911961D02*
X126914284Y-109007200D01*
X126914284Y-109007200D02*
X127009522Y-109054819D01*
X127009522Y-109054819D02*
X127104760Y-109054819D01*
X127295237Y-108388152D02*
X127676189Y-108388152D01*
X127438094Y-108054819D02*
X127438094Y-108911961D01*
X127438094Y-108911961D02*
X127485713Y-109007200D01*
X127485713Y-109007200D02*
X127580951Y-109054819D01*
X127580951Y-109054819D02*
X127676189Y-109054819D01*
X128390475Y-109007200D02*
X128295237Y-109054819D01*
X128295237Y-109054819D02*
X128104761Y-109054819D01*
X128104761Y-109054819D02*
X128009523Y-109007200D01*
X128009523Y-109007200D02*
X127961904Y-108911961D01*
X127961904Y-108911961D02*
X127961904Y-108531009D01*
X127961904Y-108531009D02*
X128009523Y-108435771D01*
X128009523Y-108435771D02*
X128104761Y-108388152D01*
X128104761Y-108388152D02*
X128295237Y-108388152D01*
X128295237Y-108388152D02*
X128390475Y-108435771D01*
X128390475Y-108435771D02*
X128438094Y-108531009D01*
X128438094Y-108531009D02*
X128438094Y-108626247D01*
X128438094Y-108626247D02*
X127961904Y-108721485D01*
X128866666Y-109054819D02*
X128866666Y-108388152D01*
X128866666Y-108578628D02*
X128914285Y-108483390D01*
X128914285Y-108483390D02*
X128961904Y-108435771D01*
X128961904Y-108435771D02*
X129057142Y-108388152D01*
X129057142Y-108388152D02*
X129152380Y-108388152D01*
X129390476Y-108388152D02*
X129628571Y-109054819D01*
X129866666Y-108388152D02*
X129628571Y-109054819D01*
X129628571Y-109054819D02*
X129533333Y-109292914D01*
X129533333Y-109292914D02*
X129485714Y-109340533D01*
X129485714Y-109340533D02*
X129390476Y-109388152D01*
X130009524Y-109150057D02*
X130771428Y-109150057D01*
X131580952Y-108959580D02*
X131533333Y-109007200D01*
X131533333Y-109007200D02*
X131390476Y-109054819D01*
X131390476Y-109054819D02*
X131295238Y-109054819D01*
X131295238Y-109054819D02*
X131152381Y-109007200D01*
X131152381Y-109007200D02*
X131057143Y-108911961D01*
X131057143Y-108911961D02*
X131009524Y-108816723D01*
X131009524Y-108816723D02*
X130961905Y-108626247D01*
X130961905Y-108626247D02*
X130961905Y-108483390D01*
X130961905Y-108483390D02*
X131009524Y-108292914D01*
X131009524Y-108292914D02*
X131057143Y-108197676D01*
X131057143Y-108197676D02*
X131152381Y-108102438D01*
X131152381Y-108102438D02*
X131295238Y-108054819D01*
X131295238Y-108054819D02*
X131390476Y-108054819D01*
X131390476Y-108054819D02*
X131533333Y-108102438D01*
X131533333Y-108102438D02*
X131580952Y-108150057D01*
X132390476Y-109007200D02*
X132295238Y-109054819D01*
X132295238Y-109054819D02*
X132104762Y-109054819D01*
X132104762Y-109054819D02*
X132009524Y-109007200D01*
X132009524Y-109007200D02*
X131961905Y-108911961D01*
X131961905Y-108911961D02*
X131961905Y-108531009D01*
X131961905Y-108531009D02*
X132009524Y-108435771D01*
X132009524Y-108435771D02*
X132104762Y-108388152D01*
X132104762Y-108388152D02*
X132295238Y-108388152D01*
X132295238Y-108388152D02*
X132390476Y-108435771D01*
X132390476Y-108435771D02*
X132438095Y-108531009D01*
X132438095Y-108531009D02*
X132438095Y-108626247D01*
X132438095Y-108626247D02*
X131961905Y-108721485D01*
X133009524Y-109054819D02*
X132914286Y-109007200D01*
X132914286Y-109007200D02*
X132866667Y-108911961D01*
X132866667Y-108911961D02*
X132866667Y-108054819D01*
X133533334Y-109054819D02*
X133438096Y-109007200D01*
X133438096Y-109007200D02*
X133390477Y-108911961D01*
X133390477Y-108911961D02*
X133390477Y-108054819D01*
X106166667Y-122107200D02*
X106309524Y-122154819D01*
X106309524Y-122154819D02*
X106547619Y-122154819D01*
X106547619Y-122154819D02*
X106642857Y-122107200D01*
X106642857Y-122107200D02*
X106690476Y-122059580D01*
X106690476Y-122059580D02*
X106738095Y-121964342D01*
X106738095Y-121964342D02*
X106738095Y-121869104D01*
X106738095Y-121869104D02*
X106690476Y-121773866D01*
X106690476Y-121773866D02*
X106642857Y-121726247D01*
X106642857Y-121726247D02*
X106547619Y-121678628D01*
X106547619Y-121678628D02*
X106357143Y-121631009D01*
X106357143Y-121631009D02*
X106261905Y-121583390D01*
X106261905Y-121583390D02*
X106214286Y-121535771D01*
X106214286Y-121535771D02*
X106166667Y-121440533D01*
X106166667Y-121440533D02*
X106166667Y-121345295D01*
X106166667Y-121345295D02*
X106214286Y-121250057D01*
X106214286Y-121250057D02*
X106261905Y-121202438D01*
X106261905Y-121202438D02*
X106357143Y-121154819D01*
X106357143Y-121154819D02*
X106595238Y-121154819D01*
X106595238Y-121154819D02*
X106738095Y-121202438D01*
X107071429Y-121154819D02*
X107309524Y-122154819D01*
X107309524Y-122154819D02*
X107500000Y-121440533D01*
X107500000Y-121440533D02*
X107690476Y-122154819D01*
X107690476Y-122154819D02*
X107928572Y-121154819D01*
X108833333Y-122154819D02*
X108261905Y-122154819D01*
X108547619Y-122154819D02*
X108547619Y-121154819D01*
X108547619Y-121154819D02*
X108452381Y-121297676D01*
X108452381Y-121297676D02*
X108357143Y-121392914D01*
X108357143Y-121392914D02*
X108261905Y-121440533D01*
X102919047Y-113807200D02*
X103061904Y-113854819D01*
X103061904Y-113854819D02*
X103299999Y-113854819D01*
X103299999Y-113854819D02*
X103395237Y-113807200D01*
X103395237Y-113807200D02*
X103442856Y-113759580D01*
X103442856Y-113759580D02*
X103490475Y-113664342D01*
X103490475Y-113664342D02*
X103490475Y-113569104D01*
X103490475Y-113569104D02*
X103442856Y-113473866D01*
X103442856Y-113473866D02*
X103395237Y-113426247D01*
X103395237Y-113426247D02*
X103299999Y-113378628D01*
X103299999Y-113378628D02*
X103109523Y-113331009D01*
X103109523Y-113331009D02*
X103014285Y-113283390D01*
X103014285Y-113283390D02*
X102966666Y-113235771D01*
X102966666Y-113235771D02*
X102919047Y-113140533D01*
X102919047Y-113140533D02*
X102919047Y-113045295D01*
X102919047Y-113045295D02*
X102966666Y-112950057D01*
X102966666Y-112950057D02*
X103014285Y-112902438D01*
X103014285Y-112902438D02*
X103109523Y-112854819D01*
X103109523Y-112854819D02*
X103347618Y-112854819D01*
X103347618Y-112854819D02*
X103490475Y-112902438D01*
X103823809Y-112854819D02*
X104061904Y-113854819D01*
X104061904Y-113854819D02*
X104252380Y-113140533D01*
X104252380Y-113140533D02*
X104442856Y-113854819D01*
X104442856Y-113854819D02*
X104680952Y-112854819D01*
X104823809Y-113950057D02*
X105585713Y-113950057D01*
X105823809Y-113854819D02*
X105823809Y-112854819D01*
X105823809Y-112854819D02*
X106061904Y-112854819D01*
X106061904Y-112854819D02*
X106204761Y-112902438D01*
X106204761Y-112902438D02*
X106299999Y-112997676D01*
X106299999Y-112997676D02*
X106347618Y-113092914D01*
X106347618Y-113092914D02*
X106395237Y-113283390D01*
X106395237Y-113283390D02*
X106395237Y-113426247D01*
X106395237Y-113426247D02*
X106347618Y-113616723D01*
X106347618Y-113616723D02*
X106299999Y-113711961D01*
X106299999Y-113711961D02*
X106204761Y-113807200D01*
X106204761Y-113807200D02*
X106061904Y-113854819D01*
X106061904Y-113854819D02*
X105823809Y-113854819D01*
X106823809Y-113854819D02*
X106823809Y-112854819D01*
X106823809Y-112854819D02*
X107204761Y-112854819D01*
X107204761Y-112854819D02*
X107299999Y-112902438D01*
X107299999Y-112902438D02*
X107347618Y-112950057D01*
X107347618Y-112950057D02*
X107395237Y-113045295D01*
X107395237Y-113045295D02*
X107395237Y-113188152D01*
X107395237Y-113188152D02*
X107347618Y-113283390D01*
X107347618Y-113283390D02*
X107299999Y-113331009D01*
X107299999Y-113331009D02*
X107204761Y-113378628D01*
X107204761Y-113378628D02*
X106823809Y-113378628D01*
X107823809Y-113854819D02*
X107823809Y-112854819D01*
X107823809Y-112854819D02*
X108061904Y-112854819D01*
X108061904Y-112854819D02*
X108204761Y-112902438D01*
X108204761Y-112902438D02*
X108299999Y-112997676D01*
X108299999Y-112997676D02*
X108347618Y-113092914D01*
X108347618Y-113092914D02*
X108395237Y-113283390D01*
X108395237Y-113283390D02*
X108395237Y-113426247D01*
X108395237Y-113426247D02*
X108347618Y-113616723D01*
X108347618Y-113616723D02*
X108299999Y-113711961D01*
X108299999Y-113711961D02*
X108204761Y-113807200D01*
X108204761Y-113807200D02*
X108061904Y-113854819D01*
X108061904Y-113854819D02*
X107823809Y-113854819D01*
X108680952Y-112854819D02*
X109252380Y-112854819D01*
X108966666Y-113854819D02*
X108966666Y-112854819D01*
X109347619Y-113950057D02*
X110109523Y-113950057D01*
X110252381Y-113854819D02*
X110776190Y-113188152D01*
X110252381Y-113188152D02*
X110776190Y-113854819D01*
X111109524Y-112950057D02*
X111157143Y-112902438D01*
X111157143Y-112902438D02*
X111252381Y-112854819D01*
X111252381Y-112854819D02*
X111490476Y-112854819D01*
X111490476Y-112854819D02*
X111585714Y-112902438D01*
X111585714Y-112902438D02*
X111633333Y-112950057D01*
X111633333Y-112950057D02*
X111680952Y-113045295D01*
X111680952Y-113045295D02*
X111680952Y-113140533D01*
X111680952Y-113140533D02*
X111633333Y-113283390D01*
X111633333Y-113283390D02*
X111061905Y-113854819D01*
X111061905Y-113854819D02*
X111680952Y-113854819D01*
X97233361Y-120654819D02*
X96900028Y-120178628D01*
X96661933Y-120654819D02*
X96661933Y-119654819D01*
X96661933Y-119654819D02*
X97042885Y-119654819D01*
X97042885Y-119654819D02*
X97138123Y-119702438D01*
X97138123Y-119702438D02*
X97185742Y-119750057D01*
X97185742Y-119750057D02*
X97233361Y-119845295D01*
X97233361Y-119845295D02*
X97233361Y-119988152D01*
X97233361Y-119988152D02*
X97185742Y-120083390D01*
X97185742Y-120083390D02*
X97138123Y-120131009D01*
X97138123Y-120131009D02*
X97042885Y-120178628D01*
X97042885Y-120178628D02*
X96661933Y-120178628D01*
X98185742Y-120654819D02*
X97614314Y-120654819D01*
X97900028Y-120654819D02*
X97900028Y-119654819D01*
X97900028Y-119654819D02*
X97804790Y-119797676D01*
X97804790Y-119797676D02*
X97709552Y-119892914D01*
X97709552Y-119892914D02*
X97614314Y-119940533D01*
D12*
%TO.C,D1*%
X89810000Y-115037000D02*
X86720000Y-115037000D01*
X88265000Y-120587000D02*
G75*
G02*
X86720170Y-115037000I0J2990000D01*
G01*
X89809830Y-115037000D02*
G75*
G02*
X88265000Y-120587000I-1544830J-2560000D01*
G01*
X90765000Y-117597000D02*
G75*
G02*
X85765000Y-117597000I-2500000J0D01*
G01*
X85765000Y-117597000D02*
G75*
G02*
X90765000Y-117597000I2500000J0D01*
G01*
%TO.C,Bet 2032*%
X114595000Y-113992000D02*
X118213000Y-113992000D01*
X114595000Y-115702000D02*
X114595000Y-113992000D01*
X114595000Y-119502000D02*
X114595000Y-121212000D01*
X118213000Y-121212000D02*
X114595000Y-121212000D01*
X121057700Y-109492000D02*
X125045000Y-109492000D01*
X127245000Y-111692000D02*
X125045000Y-109492000D01*
X127245000Y-111692000D02*
X130565000Y-111692000D01*
X130565000Y-111692000D02*
X132765000Y-109492000D01*
X132765000Y-109492000D02*
X136752300Y-109492000D01*
X136752300Y-125712000D02*
X121057700Y-125712000D01*
X139597000Y-113992000D02*
X143215000Y-113992000D01*
X143215000Y-115702000D02*
X143215000Y-113992000D01*
X143215000Y-119502000D02*
X143215000Y-121212000D01*
X143215000Y-121212000D02*
X139597000Y-121212000D01*
X118213000Y-113992000D02*
G75*
G02*
X121059629Y-109490211I10692020J-3610012D01*
G01*
X121059629Y-125713789D02*
G75*
G02*
X118213000Y-121212000I7845371J8111789D01*
G01*
X136750371Y-109490211D02*
G75*
G02*
X139597000Y-113992000I-7845366J-8111785D01*
G01*
X139597000Y-121212000D02*
G75*
G02*
X136750372Y-125713790I-10692020J3610010D01*
G01*
%TO.C,SW1*%
X104195000Y-118752000D02*
X104195000Y-116552000D01*
X104665000Y-120722000D02*
X109865000Y-120722000D01*
X105265000Y-114482000D02*
X109665000Y-114482000D01*
X110435000Y-116552000D02*
X110435000Y-118752000D01*
X108729214Y-117602000D02*
G75*
G02*
X105900786Y-117602000I-1414214J0D01*
G01*
X105900786Y-117602000D02*
G75*
G02*
X108729214Y-117602000I1414214J0D01*
G01*
%TO.C,R1*%
X99685700Y-114732000D02*
X99685700Y-115682000D01*
X99685700Y-120472000D02*
X99685700Y-119522000D01*
X100605700Y-115682000D02*
X98765700Y-115682000D01*
X98765700Y-119522000D01*
X100605700Y-119522000D01*
X100605700Y-115682000D01*
%TD*%
%LPC*%
D13*
%TO.C,D1*%
X88265000Y-116327000D03*
D14*
X88265000Y-118867000D03*
%TD*%
D15*
%TO.C,Bet 2032*%
X143585000Y-117602000D03*
X114225000Y-117602000D03*
%TD*%
D16*
%TO.C,SW1*%
X104065000Y-115352000D03*
D17*
X110565000Y-115352000D03*
X104065000Y-119852000D03*
X110565000Y-119852000D03*
%TD*%
D18*
%TO.C,R1*%
X99685700Y-113792000D03*
X99685700Y-121412000D03*
%TD*%
%LPD*%
M02*
