%TF.GenerationSoftware,KiCad,Pcbnew,9.0.2*%
%TF.CreationDate,2025-06-10T18:02:44+05:30*%
%TF.ProjectId,Project 1 LED torch,50726f6a-6563-4742-9031-204c45442074,1*%
%TF.SameCoordinates,Original*%
%TF.FileFunction,Legend,Bot*%
%TF.FilePolarity,Positive*%
%FSLAX46Y46*%
G04 Gerber Fmt 4.6, Leading zero omitted, Abs format (unit mm)*
G04 Created by KiCad (PCBNEW 9.0.2) date 2025-06-10 18:02:44*
%MOMM*%
%LPD*%
G01*
G04 APERTURE LIST*
%ADD10C,0.100000*%
%ADD11C,0.010000*%
G04 APERTURE END LIST*
D10*
X133091353Y-120505752D02*
X132853258Y-121172419D01*
X132853258Y-121172419D02*
X132615163Y-120505752D01*
X131853258Y-121124800D02*
X131948496Y-121172419D01*
X131948496Y-121172419D02*
X132138972Y-121172419D01*
X132138972Y-121172419D02*
X132234210Y-121124800D01*
X132234210Y-121124800D02*
X132281829Y-121029561D01*
X132281829Y-121029561D02*
X132281829Y-120648609D01*
X132281829Y-120648609D02*
X132234210Y-120553371D01*
X132234210Y-120553371D02*
X132138972Y-120505752D01*
X132138972Y-120505752D02*
X131948496Y-120505752D01*
X131948496Y-120505752D02*
X131853258Y-120553371D01*
X131853258Y-120553371D02*
X131805639Y-120648609D01*
X131805639Y-120648609D02*
X131805639Y-120743847D01*
X131805639Y-120743847D02*
X132281829Y-120839085D01*
X131377067Y-121172419D02*
X131377067Y-120505752D01*
X131377067Y-120696228D02*
X131329448Y-120600990D01*
X131329448Y-120600990D02*
X131281829Y-120553371D01*
X131281829Y-120553371D02*
X131186591Y-120505752D01*
X131186591Y-120505752D02*
X131091353Y-120505752D01*
X130805638Y-121124800D02*
X130710400Y-121172419D01*
X130710400Y-121172419D02*
X130519924Y-121172419D01*
X130519924Y-121172419D02*
X130424686Y-121124800D01*
X130424686Y-121124800D02*
X130377067Y-121029561D01*
X130377067Y-121029561D02*
X130377067Y-120981942D01*
X130377067Y-120981942D02*
X130424686Y-120886704D01*
X130424686Y-120886704D02*
X130519924Y-120839085D01*
X130519924Y-120839085D02*
X130662781Y-120839085D01*
X130662781Y-120839085D02*
X130758019Y-120791466D01*
X130758019Y-120791466D02*
X130805638Y-120696228D01*
X130805638Y-120696228D02*
X130805638Y-120648609D01*
X130805638Y-120648609D02*
X130758019Y-120553371D01*
X130758019Y-120553371D02*
X130662781Y-120505752D01*
X130662781Y-120505752D02*
X130519924Y-120505752D01*
X130519924Y-120505752D02*
X130424686Y-120553371D01*
X129948495Y-121172419D02*
X129948495Y-120505752D01*
X129948495Y-120172419D02*
X129996114Y-120220038D01*
X129996114Y-120220038D02*
X129948495Y-120267657D01*
X129948495Y-120267657D02*
X129900876Y-120220038D01*
X129900876Y-120220038D02*
X129948495Y-120172419D01*
X129948495Y-120172419D02*
X129948495Y-120267657D01*
X129329448Y-121172419D02*
X129424686Y-121124800D01*
X129424686Y-121124800D02*
X129472305Y-121077180D01*
X129472305Y-121077180D02*
X129519924Y-120981942D01*
X129519924Y-120981942D02*
X129519924Y-120696228D01*
X129519924Y-120696228D02*
X129472305Y-120600990D01*
X129472305Y-120600990D02*
X129424686Y-120553371D01*
X129424686Y-120553371D02*
X129329448Y-120505752D01*
X129329448Y-120505752D02*
X129186591Y-120505752D01*
X129186591Y-120505752D02*
X129091353Y-120553371D01*
X129091353Y-120553371D02*
X129043734Y-120600990D01*
X129043734Y-120600990D02*
X128996115Y-120696228D01*
X128996115Y-120696228D02*
X128996115Y-120981942D01*
X128996115Y-120981942D02*
X129043734Y-121077180D01*
X129043734Y-121077180D02*
X129091353Y-121124800D01*
X129091353Y-121124800D02*
X129186591Y-121172419D01*
X129186591Y-121172419D02*
X129329448Y-121172419D01*
X128567543Y-120505752D02*
X128567543Y-121172419D01*
X128567543Y-120600990D02*
X128519924Y-120553371D01*
X128519924Y-120553371D02*
X128424686Y-120505752D01*
X128424686Y-120505752D02*
X128281829Y-120505752D01*
X128281829Y-120505752D02*
X128186591Y-120553371D01*
X128186591Y-120553371D02*
X128138972Y-120648609D01*
X128138972Y-120648609D02*
X128138972Y-121172419D01*
X126377067Y-121172419D02*
X126948495Y-121172419D01*
X126662781Y-121172419D02*
X126662781Y-120172419D01*
X126662781Y-120172419D02*
X126758019Y-120315276D01*
X126758019Y-120315276D02*
X126853257Y-120410514D01*
X126853257Y-120410514D02*
X126948495Y-120458133D01*
X125948495Y-121077180D02*
X125900876Y-121124800D01*
X125900876Y-121124800D02*
X125948495Y-121172419D01*
X125948495Y-121172419D02*
X125996114Y-121124800D01*
X125996114Y-121124800D02*
X125948495Y-121077180D01*
X125948495Y-121077180D02*
X125948495Y-121172419D01*
X125281829Y-120172419D02*
X125186591Y-120172419D01*
X125186591Y-120172419D02*
X125091353Y-120220038D01*
X125091353Y-120220038D02*
X125043734Y-120267657D01*
X125043734Y-120267657D02*
X124996115Y-120362895D01*
X124996115Y-120362895D02*
X124948496Y-120553371D01*
X124948496Y-120553371D02*
X124948496Y-120791466D01*
X124948496Y-120791466D02*
X124996115Y-120981942D01*
X124996115Y-120981942D02*
X125043734Y-121077180D01*
X125043734Y-121077180D02*
X125091353Y-121124800D01*
X125091353Y-121124800D02*
X125186591Y-121172419D01*
X125186591Y-121172419D02*
X125281829Y-121172419D01*
X125281829Y-121172419D02*
X125377067Y-121124800D01*
X125377067Y-121124800D02*
X125424686Y-121077180D01*
X125424686Y-121077180D02*
X125472305Y-120981942D01*
X125472305Y-120981942D02*
X125519924Y-120791466D01*
X125519924Y-120791466D02*
X125519924Y-120553371D01*
X125519924Y-120553371D02*
X125472305Y-120362895D01*
X125472305Y-120362895D02*
X125424686Y-120267657D01*
X125424686Y-120267657D02*
X125377067Y-120220038D01*
X125377067Y-120220038D02*
X125281829Y-120172419D01*
D11*
%TO.C,REF\u002A\u002A*%
X125395406Y-116774949D02*
X125421127Y-116790647D01*
X125447778Y-116812227D01*
X125447778Y-117459684D01*
X125421127Y-117481264D01*
X125389767Y-117498739D01*
X125353966Y-117499575D01*
X125322528Y-117479082D01*
X125318652Y-117474416D01*
X125313186Y-117464949D01*
X125308979Y-117451267D01*
X125305867Y-117430748D01*
X125303687Y-117400768D01*
X125302276Y-117358704D01*
X125301471Y-117301932D01*
X125301107Y-117227830D01*
X125301022Y-117133773D01*
X125301022Y-116812227D01*
X125327673Y-116790647D01*
X125351386Y-116775877D01*
X125374400Y-116769067D01*
X125395406Y-116774949D01*
G36*
X125395406Y-116774949D02*
G01*
X125421127Y-116790647D01*
X125447778Y-116812227D01*
X125447778Y-117459684D01*
X125421127Y-117481264D01*
X125389767Y-117498739D01*
X125353966Y-117499575D01*
X125322528Y-117479082D01*
X125318652Y-117474416D01*
X125313186Y-117464949D01*
X125308979Y-117451267D01*
X125305867Y-117430748D01*
X125303687Y-117400768D01*
X125302276Y-117358704D01*
X125301471Y-117301932D01*
X125301107Y-117227830D01*
X125301022Y-117133773D01*
X125301022Y-116812227D01*
X125327673Y-116790647D01*
X125351386Y-116775877D01*
X125374400Y-116769067D01*
X125395406Y-116774949D01*
G37*
X132526137Y-116773463D02*
X132560291Y-116796776D01*
X132588000Y-116824485D01*
X132588000Y-117137537D01*
X132587959Y-117221567D01*
X132587701Y-117295789D01*
X132587030Y-117352541D01*
X132585752Y-117394512D01*
X132583673Y-117424389D01*
X132580599Y-117444861D01*
X132576334Y-117458614D01*
X132570684Y-117468337D01*
X132563455Y-117476717D01*
X132531991Y-117498181D01*
X132496826Y-117499947D01*
X132463822Y-117480267D01*
X132458516Y-117474398D01*
X132453066Y-117465314D01*
X132448900Y-117451973D01*
X132445846Y-117431757D01*
X132443732Y-117402049D01*
X132442386Y-117360232D01*
X132441638Y-117303689D01*
X132441314Y-117229802D01*
X132441245Y-117135956D01*
X132441284Y-117060294D01*
X132441539Y-116982385D01*
X132442183Y-116922375D01*
X132443387Y-116877648D01*
X132445324Y-116845585D01*
X132448164Y-116823571D01*
X132452079Y-116808987D01*
X132457242Y-116799218D01*
X132463822Y-116791645D01*
X132493006Y-116772623D01*
X132526137Y-116773463D01*
G36*
X132526137Y-116773463D02*
G01*
X132560291Y-116796776D01*
X132588000Y-116824485D01*
X132588000Y-117137537D01*
X132587959Y-117221567D01*
X132587701Y-117295789D01*
X132587030Y-117352541D01*
X132585752Y-117394512D01*
X132583673Y-117424389D01*
X132580599Y-117444861D01*
X132576334Y-117458614D01*
X132570684Y-117468337D01*
X132563455Y-117476717D01*
X132531991Y-117498181D01*
X132496826Y-117499947D01*
X132463822Y-117480267D01*
X132458516Y-117474398D01*
X132453066Y-117465314D01*
X132448900Y-117451973D01*
X132445846Y-117431757D01*
X132443732Y-117402049D01*
X132442386Y-117360232D01*
X132441638Y-117303689D01*
X132441314Y-117229802D01*
X132441245Y-117135956D01*
X132441284Y-117060294D01*
X132441539Y-116982385D01*
X132442183Y-116922375D01*
X132443387Y-116877648D01*
X132445324Y-116845585D01*
X132448164Y-116823571D01*
X132452079Y-116808987D01*
X132457242Y-116799218D01*
X132463822Y-116791645D01*
X132493006Y-116772623D01*
X132526137Y-116773463D01*
G37*
X131994562Y-111532850D02*
X132077313Y-111560053D01*
X132152406Y-111605484D01*
X132224298Y-111671302D01*
X132262846Y-111715567D01*
X132302256Y-111773961D01*
X132327446Y-111834586D01*
X132340861Y-111903865D01*
X132344948Y-111988222D01*
X132344669Y-112034307D01*
X132342460Y-112075450D01*
X132336894Y-112107582D01*
X132326586Y-112138122D01*
X132310148Y-112174489D01*
X132296200Y-112201728D01*
X132237665Y-112287429D01*
X132165619Y-112356617D01*
X132081947Y-112407741D01*
X131988531Y-112439250D01*
X131955434Y-112446225D01*
X131914960Y-112453094D01*
X131881999Y-112454919D01*
X131847698Y-112451947D01*
X131803200Y-112444426D01*
X131751934Y-112432002D01*
X131661434Y-112394112D01*
X131582345Y-112339836D01*
X131516528Y-112271770D01*
X131465840Y-112192511D01*
X131432140Y-112104654D01*
X131417286Y-112010795D01*
X131423136Y-111913530D01*
X131449399Y-111817220D01*
X131494418Y-111728494D01*
X131555373Y-111653419D01*
X131630184Y-111593641D01*
X131716768Y-111550809D01*
X131813043Y-111526571D01*
X131916928Y-111522576D01*
X131994562Y-111532850D01*
G36*
X131994562Y-111532850D02*
G01*
X132077313Y-111560053D01*
X132152406Y-111605484D01*
X132224298Y-111671302D01*
X132262846Y-111715567D01*
X132302256Y-111773961D01*
X132327446Y-111834586D01*
X132340861Y-111903865D01*
X132344948Y-111988222D01*
X132344669Y-112034307D01*
X132342460Y-112075450D01*
X132336894Y-112107582D01*
X132326586Y-112138122D01*
X132310148Y-112174489D01*
X132296200Y-112201728D01*
X132237665Y-112287429D01*
X132165619Y-112356617D01*
X132081947Y-112407741D01*
X131988531Y-112439250D01*
X131955434Y-112446225D01*
X131914960Y-112453094D01*
X131881999Y-112454919D01*
X131847698Y-112451947D01*
X131803200Y-112444426D01*
X131751934Y-112432002D01*
X131661434Y-112394112D01*
X131582345Y-112339836D01*
X131516528Y-112271770D01*
X131465840Y-112192511D01*
X131432140Y-112104654D01*
X131417286Y-112010795D01*
X131423136Y-111913530D01*
X131449399Y-111817220D01*
X131494418Y-111728494D01*
X131555373Y-111653419D01*
X131630184Y-111593641D01*
X131716768Y-111550809D01*
X131813043Y-111526571D01*
X131916928Y-111522576D01*
X131994562Y-111532850D01*
G37*
X124695767Y-116769068D02*
X124789890Y-116769158D01*
X124864405Y-116769498D01*
X124921811Y-116770239D01*
X124964611Y-116771535D01*
X124995304Y-116773537D01*
X125016391Y-116776396D01*
X125030373Y-116780266D01*
X125039750Y-116785298D01*
X125047022Y-116791645D01*
X125065828Y-116824362D01*
X125067275Y-116861939D01*
X125050917Y-116895178D01*
X125049557Y-116896631D01*
X125038354Y-116904992D01*
X125021252Y-116910547D01*
X124994082Y-116913840D01*
X124952678Y-116915418D01*
X124892873Y-116915822D01*
X124753511Y-116915822D01*
X124753511Y-117179589D01*
X124753436Y-117255417D01*
X124753028Y-117322083D01*
X124752046Y-117371867D01*
X124750250Y-117407784D01*
X124747399Y-117432850D01*
X124743253Y-117450081D01*
X124737571Y-117462492D01*
X124730114Y-117473100D01*
X124727824Y-117475906D01*
X124696646Y-117498548D01*
X124662266Y-117500112D01*
X124629334Y-117480267D01*
X124622355Y-117472191D01*
X124616883Y-117461593D01*
X124612863Y-117445749D01*
X124610072Y-117421773D01*
X124608288Y-117386774D01*
X124607289Y-117337864D01*
X124606852Y-117272154D01*
X124606756Y-117186756D01*
X124606756Y-116915822D01*
X124460820Y-116915822D01*
X124449720Y-116915821D01*
X124393202Y-116915596D01*
X124354358Y-116914457D01*
X124328965Y-116911657D01*
X124312804Y-116906450D01*
X124301652Y-116898089D01*
X124291289Y-116885826D01*
X124275441Y-116855138D01*
X124278543Y-116821358D01*
X124304187Y-116788822D01*
X124309129Y-116785105D01*
X124319338Y-116780269D01*
X124334764Y-116776506D01*
X124357886Y-116773683D01*
X124391183Y-116771670D01*
X124437137Y-116770333D01*
X124498228Y-116769542D01*
X124576935Y-116769163D01*
X124675740Y-116769067D01*
X124695767Y-116769068D01*
G36*
X124695767Y-116769068D02*
G01*
X124789890Y-116769158D01*
X124864405Y-116769498D01*
X124921811Y-116770239D01*
X124964611Y-116771535D01*
X124995304Y-116773537D01*
X125016391Y-116776396D01*
X125030373Y-116780266D01*
X125039750Y-116785298D01*
X125047022Y-116791645D01*
X125065828Y-116824362D01*
X125067275Y-116861939D01*
X125050917Y-116895178D01*
X125049557Y-116896631D01*
X125038354Y-116904992D01*
X125021252Y-116910547D01*
X124994082Y-116913840D01*
X124952678Y-116915418D01*
X124892873Y-116915822D01*
X124753511Y-116915822D01*
X124753511Y-117179589D01*
X124753436Y-117255417D01*
X124753028Y-117322083D01*
X124752046Y-117371867D01*
X124750250Y-117407784D01*
X124747399Y-117432850D01*
X124743253Y-117450081D01*
X124737571Y-117462492D01*
X124730114Y-117473100D01*
X124727824Y-117475906D01*
X124696646Y-117498548D01*
X124662266Y-117500112D01*
X124629334Y-117480267D01*
X124622355Y-117472191D01*
X124616883Y-117461593D01*
X124612863Y-117445749D01*
X124610072Y-117421773D01*
X124608288Y-117386774D01*
X124607289Y-117337864D01*
X124606852Y-117272154D01*
X124606756Y-117186756D01*
X124606756Y-116915822D01*
X124460820Y-116915822D01*
X124449720Y-116915821D01*
X124393202Y-116915596D01*
X124354358Y-116914457D01*
X124328965Y-116911657D01*
X124312804Y-116906450D01*
X124301652Y-116898089D01*
X124291289Y-116885826D01*
X124275441Y-116855138D01*
X124278543Y-116821358D01*
X124304187Y-116788822D01*
X124309129Y-116785105D01*
X124319338Y-116780269D01*
X124334764Y-116776506D01*
X124357886Y-116773683D01*
X124391183Y-116771670D01*
X124437137Y-116770333D01*
X124498228Y-116769542D01*
X124576935Y-116769163D01*
X124675740Y-116769067D01*
X124695767Y-116769068D01*
G37*
X124019734Y-116791645D02*
X124025366Y-116797835D01*
X124030456Y-116806041D01*
X124034543Y-116817817D01*
X124037721Y-116835276D01*
X124040087Y-116860530D01*
X124041738Y-116895690D01*
X124042769Y-116942869D01*
X124043277Y-117004177D01*
X124043359Y-117081727D01*
X124043109Y-117177631D01*
X124042625Y-117294000D01*
X124042557Y-117308175D01*
X124041971Y-117369937D01*
X124040648Y-117413620D01*
X124038103Y-117443001D01*
X124033848Y-117461855D01*
X124027396Y-117473959D01*
X124018262Y-117483089D01*
X123984804Y-117500506D01*
X123949856Y-117497604D01*
X123918953Y-117473100D01*
X123909944Y-117459897D01*
X123902492Y-117441361D01*
X123898124Y-117415333D01*
X123896069Y-117376787D01*
X123895556Y-117320700D01*
X123895556Y-117198045D01*
X123398845Y-117198045D01*
X123398845Y-117332871D01*
X123398772Y-117368662D01*
X123398009Y-117414992D01*
X123395833Y-117445526D01*
X123391536Y-117464557D01*
X123384412Y-117476374D01*
X123373755Y-117485271D01*
X123341504Y-117500341D01*
X123306217Y-117497673D01*
X123275486Y-117473100D01*
X123270831Y-117466845D01*
X123264895Y-117456321D01*
X123260364Y-117442391D01*
X123257048Y-117422317D01*
X123254759Y-117393360D01*
X123253308Y-117352780D01*
X123252505Y-117297840D01*
X123252162Y-117225799D01*
X123252089Y-117133920D01*
X123252089Y-116824485D01*
X123279798Y-116796776D01*
X123311177Y-116774533D01*
X123344406Y-116771844D01*
X123376267Y-116791645D01*
X123384553Y-116801415D01*
X123391965Y-116817307D01*
X123396302Y-116841275D01*
X123398338Y-116878148D01*
X123398845Y-116932756D01*
X123398845Y-117051289D01*
X123895556Y-117051289D01*
X123895556Y-116935776D01*
X123895994Y-116884078D01*
X123897958Y-116849554D01*
X123902474Y-116826978D01*
X123910567Y-116811126D01*
X123923265Y-116796776D01*
X123954643Y-116774533D01*
X123987872Y-116771844D01*
X124019734Y-116791645D01*
G36*
X124019734Y-116791645D02*
G01*
X124025366Y-116797835D01*
X124030456Y-116806041D01*
X124034543Y-116817817D01*
X124037721Y-116835276D01*
X124040087Y-116860530D01*
X124041738Y-116895690D01*
X124042769Y-116942869D01*
X124043277Y-117004177D01*
X124043359Y-117081727D01*
X124043109Y-117177631D01*
X124042625Y-117294000D01*
X124042557Y-117308175D01*
X124041971Y-117369937D01*
X124040648Y-117413620D01*
X124038103Y-117443001D01*
X124033848Y-117461855D01*
X124027396Y-117473959D01*
X124018262Y-117483089D01*
X123984804Y-117500506D01*
X123949856Y-117497604D01*
X123918953Y-117473100D01*
X123909944Y-117459897D01*
X123902492Y-117441361D01*
X123898124Y-117415333D01*
X123896069Y-117376787D01*
X123895556Y-117320700D01*
X123895556Y-117198045D01*
X123398845Y-117198045D01*
X123398845Y-117332871D01*
X123398772Y-117368662D01*
X123398009Y-117414992D01*
X123395833Y-117445526D01*
X123391536Y-117464557D01*
X123384412Y-117476374D01*
X123373755Y-117485271D01*
X123341504Y-117500341D01*
X123306217Y-117497673D01*
X123275486Y-117473100D01*
X123270831Y-117466845D01*
X123264895Y-117456321D01*
X123260364Y-117442391D01*
X123257048Y-117422317D01*
X123254759Y-117393360D01*
X123253308Y-117352780D01*
X123252505Y-117297840D01*
X123252162Y-117225799D01*
X123252089Y-117133920D01*
X123252089Y-116824485D01*
X123279798Y-116796776D01*
X123311177Y-116774533D01*
X123344406Y-116771844D01*
X123376267Y-116791645D01*
X123384553Y-116801415D01*
X123391965Y-116817307D01*
X123396302Y-116841275D01*
X123398338Y-116878148D01*
X123398845Y-116932756D01*
X123398845Y-117051289D01*
X123895556Y-117051289D01*
X123895556Y-116935776D01*
X123895994Y-116884078D01*
X123897958Y-116849554D01*
X123902474Y-116826978D01*
X123910567Y-116811126D01*
X123923265Y-116796776D01*
X123954643Y-116774533D01*
X123987872Y-116771844D01*
X124019734Y-116791645D01*
G37*
X128725133Y-117380396D02*
X128723163Y-117413175D01*
X128720235Y-117436095D01*
X128716158Y-117451897D01*
X128710743Y-117463319D01*
X128703803Y-117473100D01*
X128680406Y-117502845D01*
X128514714Y-117502251D01*
X128479918Y-117501953D01*
X128381435Y-117498522D01*
X128300473Y-117490839D01*
X128233379Y-117478282D01*
X128176496Y-117460227D01*
X128126169Y-117436052D01*
X128122810Y-117434135D01*
X128064998Y-117397417D01*
X128022644Y-117360451D01*
X127989828Y-117316966D01*
X127960628Y-117260689D01*
X127956346Y-117251073D01*
X127933769Y-117187887D01*
X127928034Y-117142333D01*
X128077279Y-117142333D01*
X128082892Y-117167061D01*
X128088618Y-117182939D01*
X128121548Y-117242847D01*
X128168886Y-117288600D01*
X128232652Y-117321736D01*
X128314861Y-117343790D01*
X128317655Y-117344292D01*
X128363940Y-117350255D01*
X128420336Y-117354483D01*
X128475274Y-117356089D01*
X128569156Y-117356089D01*
X128569156Y-116915822D01*
X128481667Y-116916270D01*
X128414747Y-116918746D01*
X128322349Y-116929998D01*
X128243034Y-116949537D01*
X128181060Y-116976511D01*
X128150120Y-116997240D01*
X128122000Y-117027006D01*
X128098660Y-117069434D01*
X128091533Y-117085400D01*
X128079709Y-117117902D01*
X128077279Y-117142333D01*
X127928034Y-117142333D01*
X127926797Y-117132509D01*
X127935399Y-117077483D01*
X127959541Y-117015351D01*
X127960337Y-117013658D01*
X128000788Y-116944236D01*
X128051473Y-116887638D01*
X128114198Y-116843070D01*
X128190774Y-116809741D01*
X128283009Y-116786861D01*
X128392712Y-116773636D01*
X128521691Y-116769275D01*
X128525263Y-116769270D01*
X128585283Y-116769410D01*
X128627214Y-116770446D01*
X128655328Y-116773040D01*
X128673897Y-116777853D01*
X128687194Y-116785544D01*
X128699491Y-116796776D01*
X128727200Y-116824485D01*
X128727200Y-117133920D01*
X128727175Y-117195526D01*
X128726950Y-117274311D01*
X128726332Y-117335021D01*
X128725775Y-117356089D01*
X128725133Y-117380396D01*
G36*
X128725133Y-117380396D02*
G01*
X128723163Y-117413175D01*
X128720235Y-117436095D01*
X128716158Y-117451897D01*
X128710743Y-117463319D01*
X128703803Y-117473100D01*
X128680406Y-117502845D01*
X128514714Y-117502251D01*
X128479918Y-117501953D01*
X128381435Y-117498522D01*
X128300473Y-117490839D01*
X128233379Y-117478282D01*
X128176496Y-117460227D01*
X128126169Y-117436052D01*
X128122810Y-117434135D01*
X128064998Y-117397417D01*
X128022644Y-117360451D01*
X127989828Y-117316966D01*
X127960628Y-117260689D01*
X127956346Y-117251073D01*
X127933769Y-117187887D01*
X127928034Y-117142333D01*
X128077279Y-117142333D01*
X128082892Y-117167061D01*
X128088618Y-117182939D01*
X128121548Y-117242847D01*
X128168886Y-117288600D01*
X128232652Y-117321736D01*
X128314861Y-117343790D01*
X128317655Y-117344292D01*
X128363940Y-117350255D01*
X128420336Y-117354483D01*
X128475274Y-117356089D01*
X128569156Y-117356089D01*
X128569156Y-116915822D01*
X128481667Y-116916270D01*
X128414747Y-116918746D01*
X128322349Y-116929998D01*
X128243034Y-116949537D01*
X128181060Y-116976511D01*
X128150120Y-116997240D01*
X128122000Y-117027006D01*
X128098660Y-117069434D01*
X128091533Y-117085400D01*
X128079709Y-117117902D01*
X128077279Y-117142333D01*
X127928034Y-117142333D01*
X127926797Y-117132509D01*
X127935399Y-117077483D01*
X127959541Y-117015351D01*
X127960337Y-117013658D01*
X128000788Y-116944236D01*
X128051473Y-116887638D01*
X128114198Y-116843070D01*
X128190774Y-116809741D01*
X128283009Y-116786861D01*
X128392712Y-116773636D01*
X128521691Y-116769275D01*
X128525263Y-116769270D01*
X128585283Y-116769410D01*
X128627214Y-116770446D01*
X128655328Y-116773040D01*
X128673897Y-116777853D01*
X128687194Y-116785544D01*
X128699491Y-116796776D01*
X128727200Y-116824485D01*
X128727200Y-117133920D01*
X128727175Y-117195526D01*
X128726950Y-117274311D01*
X128726332Y-117335021D01*
X128725775Y-117356089D01*
X128725133Y-117380396D01*
G37*
X135816817Y-116954427D02*
X135816870Y-117035041D01*
X135816622Y-117135956D01*
X135816583Y-117211617D01*
X135816328Y-117289526D01*
X135815684Y-117349536D01*
X135814480Y-117394264D01*
X135812543Y-117426326D01*
X135809703Y-117448340D01*
X135805788Y-117462924D01*
X135800626Y-117472694D01*
X135794045Y-117480267D01*
X135787077Y-117486501D01*
X135774079Y-117493801D01*
X135754931Y-117498554D01*
X135725528Y-117501292D01*
X135681762Y-117502545D01*
X135619528Y-117502845D01*
X135570582Y-117502469D01*
X135463722Y-117498041D01*
X135374494Y-117487953D01*
X135299696Y-117471365D01*
X135236125Y-117447435D01*
X135180579Y-117415321D01*
X135129854Y-117374182D01*
X135123866Y-117368330D01*
X135086999Y-117319821D01*
X135055899Y-117259013D01*
X135034417Y-117194769D01*
X135029136Y-117156026D01*
X135176353Y-117156026D01*
X135194635Y-117206961D01*
X135224305Y-117252878D01*
X135271002Y-117295287D01*
X135332392Y-117325090D01*
X135411538Y-117344226D01*
X135413028Y-117344464D01*
X135461999Y-117350256D01*
X135520693Y-117354396D01*
X135576734Y-117356004D01*
X135669867Y-117356089D01*
X135669867Y-116915822D01*
X135593667Y-116915808D01*
X135590639Y-116915817D01*
X135539519Y-116917782D01*
X135479416Y-116922507D01*
X135422708Y-116929035D01*
X135372750Y-116938331D01*
X135297998Y-116964600D01*
X135240489Y-117003899D01*
X135198988Y-117056933D01*
X135177771Y-117108200D01*
X135176353Y-117156026D01*
X135029136Y-117156026D01*
X135026400Y-117135956D01*
X135027679Y-117114739D01*
X135039991Y-117057323D01*
X135062520Y-116997413D01*
X135091750Y-116943363D01*
X135124167Y-116903532D01*
X135143708Y-116886510D01*
X135198420Y-116847322D01*
X135258723Y-116817193D01*
X135327919Y-116795232D01*
X135409311Y-116780550D01*
X135506200Y-116772259D01*
X135621889Y-116769467D01*
X135661371Y-116769066D01*
X135707082Y-116768653D01*
X135742883Y-116770457D01*
X135769974Y-116776739D01*
X135789556Y-116789759D01*
X135802830Y-116811778D01*
X135810998Y-116845055D01*
X135815260Y-116891851D01*
X135815857Y-116915822D01*
X135816817Y-116954427D01*
G36*
X135816817Y-116954427D02*
G01*
X135816870Y-117035041D01*
X135816622Y-117135956D01*
X135816583Y-117211617D01*
X135816328Y-117289526D01*
X135815684Y-117349536D01*
X135814480Y-117394264D01*
X135812543Y-117426326D01*
X135809703Y-117448340D01*
X135805788Y-117462924D01*
X135800626Y-117472694D01*
X135794045Y-117480267D01*
X135787077Y-117486501D01*
X135774079Y-117493801D01*
X135754931Y-117498554D01*
X135725528Y-117501292D01*
X135681762Y-117502545D01*
X135619528Y-117502845D01*
X135570582Y-117502469D01*
X135463722Y-117498041D01*
X135374494Y-117487953D01*
X135299696Y-117471365D01*
X135236125Y-117447435D01*
X135180579Y-117415321D01*
X135129854Y-117374182D01*
X135123866Y-117368330D01*
X135086999Y-117319821D01*
X135055899Y-117259013D01*
X135034417Y-117194769D01*
X135029136Y-117156026D01*
X135176353Y-117156026D01*
X135194635Y-117206961D01*
X135224305Y-117252878D01*
X135271002Y-117295287D01*
X135332392Y-117325090D01*
X135411538Y-117344226D01*
X135413028Y-117344464D01*
X135461999Y-117350256D01*
X135520693Y-117354396D01*
X135576734Y-117356004D01*
X135669867Y-117356089D01*
X135669867Y-116915822D01*
X135593667Y-116915808D01*
X135590639Y-116915817D01*
X135539519Y-116917782D01*
X135479416Y-116922507D01*
X135422708Y-116929035D01*
X135372750Y-116938331D01*
X135297998Y-116964600D01*
X135240489Y-117003899D01*
X135198988Y-117056933D01*
X135177771Y-117108200D01*
X135176353Y-117156026D01*
X135029136Y-117156026D01*
X135026400Y-117135956D01*
X135027679Y-117114739D01*
X135039991Y-117057323D01*
X135062520Y-116997413D01*
X135091750Y-116943363D01*
X135124167Y-116903532D01*
X135143708Y-116886510D01*
X135198420Y-116847322D01*
X135258723Y-116817193D01*
X135327919Y-116795232D01*
X135409311Y-116780550D01*
X135506200Y-116772259D01*
X135621889Y-116769467D01*
X135661371Y-116769066D01*
X135707082Y-116768653D01*
X135742883Y-116770457D01*
X135769974Y-116776739D01*
X135789556Y-116789759D01*
X135802830Y-116811778D01*
X135810998Y-116845055D01*
X135815260Y-116891851D01*
X135815857Y-116915822D01*
X135816817Y-116954427D01*
G37*
X130871893Y-116767892D02*
X130883301Y-116774029D01*
X130893850Y-116784691D01*
X130905136Y-116798811D01*
X130909589Y-116804772D01*
X130915588Y-116815268D01*
X130920167Y-116829093D01*
X130923519Y-116848998D01*
X130925833Y-116877732D01*
X130927301Y-116918045D01*
X130928113Y-116972687D01*
X130928460Y-117044407D01*
X130928534Y-117135956D01*
X130928511Y-117194486D01*
X130928292Y-117273573D01*
X130927683Y-117334516D01*
X130926492Y-117380062D01*
X130924529Y-117412963D01*
X130921603Y-117435968D01*
X130917523Y-117451826D01*
X130912097Y-117463286D01*
X130905136Y-117473100D01*
X130874708Y-117497493D01*
X130839765Y-117500372D01*
X130802784Y-117481282D01*
X130798600Y-117477807D01*
X130790424Y-117469279D01*
X130784364Y-117457728D01*
X130779981Y-117439896D01*
X130776839Y-117412524D01*
X130774502Y-117372354D01*
X130772531Y-117316128D01*
X130770489Y-117240589D01*
X130764845Y-117021458D01*
X130499556Y-117262099D01*
X130425722Y-117328875D01*
X130360542Y-117386991D01*
X130308348Y-117431949D01*
X130267273Y-117464871D01*
X130235455Y-117486879D01*
X130211026Y-117499094D01*
X130192124Y-117502639D01*
X130176883Y-117498636D01*
X130163439Y-117488207D01*
X130149927Y-117472474D01*
X130143682Y-117463991D01*
X130138050Y-117453413D01*
X130133839Y-117439255D01*
X130130887Y-117418803D01*
X130129032Y-117389342D01*
X130128113Y-117348161D01*
X130127968Y-117292544D01*
X130128435Y-117219779D01*
X130129352Y-117127151D01*
X130132667Y-116812199D01*
X130159318Y-116790633D01*
X130185383Y-116774441D01*
X130218241Y-116771670D01*
X130252772Y-116790623D01*
X130257084Y-116794208D01*
X130265216Y-116802737D01*
X130271245Y-116814329D01*
X130275606Y-116832235D01*
X130278734Y-116859706D01*
X130281063Y-116899994D01*
X130283029Y-116956351D01*
X130285067Y-117032029D01*
X130290711Y-117251878D01*
X130471334Y-117088084D01*
X130558072Y-117009451D01*
X130633843Y-116941058D01*
X130695980Y-116885708D01*
X130746078Y-116842338D01*
X130785735Y-116809881D01*
X130816548Y-116787273D01*
X130840114Y-116773448D01*
X130858030Y-116767343D01*
X130871893Y-116767892D01*
G36*
X130871893Y-116767892D02*
G01*
X130883301Y-116774029D01*
X130893850Y-116784691D01*
X130905136Y-116798811D01*
X130909589Y-116804772D01*
X130915588Y-116815268D01*
X130920167Y-116829093D01*
X130923519Y-116848998D01*
X130925833Y-116877732D01*
X130927301Y-116918045D01*
X130928113Y-116972687D01*
X130928460Y-117044407D01*
X130928534Y-117135956D01*
X130928511Y-117194486D01*
X130928292Y-117273573D01*
X130927683Y-117334516D01*
X130926492Y-117380062D01*
X130924529Y-117412963D01*
X130921603Y-117435968D01*
X130917523Y-117451826D01*
X130912097Y-117463286D01*
X130905136Y-117473100D01*
X130874708Y-117497493D01*
X130839765Y-117500372D01*
X130802784Y-117481282D01*
X130798600Y-117477807D01*
X130790424Y-117469279D01*
X130784364Y-117457728D01*
X130779981Y-117439896D01*
X130776839Y-117412524D01*
X130774502Y-117372354D01*
X130772531Y-117316128D01*
X130770489Y-117240589D01*
X130764845Y-117021458D01*
X130499556Y-117262099D01*
X130425722Y-117328875D01*
X130360542Y-117386991D01*
X130308348Y-117431949D01*
X130267273Y-117464871D01*
X130235455Y-117486879D01*
X130211026Y-117499094D01*
X130192124Y-117502639D01*
X130176883Y-117498636D01*
X130163439Y-117488207D01*
X130149927Y-117472474D01*
X130143682Y-117463991D01*
X130138050Y-117453413D01*
X130133839Y-117439255D01*
X130130887Y-117418803D01*
X130129032Y-117389342D01*
X130128113Y-117348161D01*
X130127968Y-117292544D01*
X130128435Y-117219779D01*
X130129352Y-117127151D01*
X130132667Y-116812199D01*
X130159318Y-116790633D01*
X130185383Y-116774441D01*
X130218241Y-116771670D01*
X130252772Y-116790623D01*
X130257084Y-116794208D01*
X130265216Y-116802737D01*
X130271245Y-116814329D01*
X130275606Y-116832235D01*
X130278734Y-116859706D01*
X130281063Y-116899994D01*
X130283029Y-116956351D01*
X130285067Y-117032029D01*
X130290711Y-117251878D01*
X130471334Y-117088084D01*
X130558072Y-117009451D01*
X130633843Y-116941058D01*
X130695980Y-116885708D01*
X130746078Y-116842338D01*
X130785735Y-116809881D01*
X130816548Y-116787273D01*
X130840114Y-116773448D01*
X130858030Y-116767343D01*
X130871893Y-116767892D01*
G37*
X131669150Y-116774179D02*
X131775157Y-116790494D01*
X131868969Y-116818545D01*
X131947765Y-116857452D01*
X132008719Y-116906334D01*
X132034789Y-116939195D01*
X132064297Y-116988394D01*
X132089568Y-117042252D01*
X132107218Y-117093419D01*
X132113858Y-117134544D01*
X132112298Y-117154259D01*
X132099357Y-117205592D01*
X132076194Y-117262118D01*
X132046302Y-117316035D01*
X132013173Y-117359539D01*
X132002977Y-117369887D01*
X131935892Y-117421662D01*
X131855766Y-117461554D01*
X131769556Y-117485956D01*
X131714592Y-117494068D01*
X131621139Y-117500673D01*
X131531358Y-117498586D01*
X131448869Y-117488340D01*
X131377286Y-117470470D01*
X131320228Y-117445508D01*
X131281311Y-117413988D01*
X131279936Y-117412012D01*
X131272848Y-117386786D01*
X131268609Y-117339535D01*
X131267200Y-117270071D01*
X131268060Y-117207838D01*
X131272780Y-117160456D01*
X131284470Y-117128353D01*
X131306239Y-117108800D01*
X131341198Y-117099070D01*
X131392456Y-117096433D01*
X131463123Y-117098161D01*
X131511743Y-117101173D01*
X131561939Y-117109366D01*
X131594433Y-117123419D01*
X131611892Y-117144654D01*
X131616983Y-117174394D01*
X131616877Y-117178936D01*
X131608175Y-117213730D01*
X131584165Y-117237147D01*
X131542900Y-117250347D01*
X131482431Y-117254489D01*
X131413956Y-117254489D01*
X131413956Y-117292841D01*
X131414006Y-117301976D01*
X131416227Y-117319227D01*
X131425494Y-117329521D01*
X131446875Y-117336459D01*
X131485436Y-117343641D01*
X131490910Y-117344575D01*
X131587860Y-117354478D01*
X131677852Y-117351559D01*
X131758760Y-117336829D01*
X131828459Y-117311299D01*
X131884824Y-117275978D01*
X131925729Y-117231879D01*
X131949051Y-117180012D01*
X131952663Y-117121388D01*
X131947145Y-117092494D01*
X131920461Y-117036604D01*
X131874273Y-116990945D01*
X131809291Y-116956108D01*
X131726229Y-116932690D01*
X131701555Y-116928241D01*
X131612226Y-116917742D01*
X131532419Y-116918971D01*
X131454326Y-116931906D01*
X131419183Y-116938696D01*
X131373745Y-116939713D01*
X131342430Y-116927182D01*
X131322277Y-116900395D01*
X131315893Y-116872148D01*
X131325379Y-116840924D01*
X131334708Y-116827499D01*
X131368943Y-116803967D01*
X131421565Y-116786095D01*
X131490081Y-116774599D01*
X131572000Y-116770192D01*
X131669150Y-116774179D01*
G36*
X131669150Y-116774179D02*
G01*
X131775157Y-116790494D01*
X131868969Y-116818545D01*
X131947765Y-116857452D01*
X132008719Y-116906334D01*
X132034789Y-116939195D01*
X132064297Y-116988394D01*
X132089568Y-117042252D01*
X132107218Y-117093419D01*
X132113858Y-117134544D01*
X132112298Y-117154259D01*
X132099357Y-117205592D01*
X132076194Y-117262118D01*
X132046302Y-117316035D01*
X132013173Y-117359539D01*
X132002977Y-117369887D01*
X131935892Y-117421662D01*
X131855766Y-117461554D01*
X131769556Y-117485956D01*
X131714592Y-117494068D01*
X131621139Y-117500673D01*
X131531358Y-117498586D01*
X131448869Y-117488340D01*
X131377286Y-117470470D01*
X131320228Y-117445508D01*
X131281311Y-117413988D01*
X131279936Y-117412012D01*
X131272848Y-117386786D01*
X131268609Y-117339535D01*
X131267200Y-117270071D01*
X131268060Y-117207838D01*
X131272780Y-117160456D01*
X131284470Y-117128353D01*
X131306239Y-117108800D01*
X131341198Y-117099070D01*
X131392456Y-117096433D01*
X131463123Y-117098161D01*
X131511743Y-117101173D01*
X131561939Y-117109366D01*
X131594433Y-117123419D01*
X131611892Y-117144654D01*
X131616983Y-117174394D01*
X131616877Y-117178936D01*
X131608175Y-117213730D01*
X131584165Y-117237147D01*
X131542900Y-117250347D01*
X131482431Y-117254489D01*
X131413956Y-117254489D01*
X131413956Y-117292841D01*
X131414006Y-117301976D01*
X131416227Y-117319227D01*
X131425494Y-117329521D01*
X131446875Y-117336459D01*
X131485436Y-117343641D01*
X131490910Y-117344575D01*
X131587860Y-117354478D01*
X131677852Y-117351559D01*
X131758760Y-117336829D01*
X131828459Y-117311299D01*
X131884824Y-117275978D01*
X131925729Y-117231879D01*
X131949051Y-117180012D01*
X131952663Y-117121388D01*
X131947145Y-117092494D01*
X131920461Y-117036604D01*
X131874273Y-116990945D01*
X131809291Y-116956108D01*
X131726229Y-116932690D01*
X131701555Y-116928241D01*
X131612226Y-116917742D01*
X131532419Y-116918971D01*
X131454326Y-116931906D01*
X131419183Y-116938696D01*
X131373745Y-116939713D01*
X131342430Y-116927182D01*
X131322277Y-116900395D01*
X131315893Y-116872148D01*
X131325379Y-116840924D01*
X131334708Y-116827499D01*
X131368943Y-116803967D01*
X131421565Y-116786095D01*
X131490081Y-116774599D01*
X131572000Y-116770192D01*
X131669150Y-116774179D01*
G37*
X129719803Y-116798811D02*
X129724752Y-116805495D01*
X129730596Y-116816066D01*
X129735057Y-116830153D01*
X129738321Y-116850478D01*
X129740574Y-116879765D01*
X129742002Y-116920737D01*
X129742792Y-116976117D01*
X129743129Y-117048628D01*
X129743200Y-117140994D01*
X129743171Y-117206911D01*
X129742939Y-117285228D01*
X129742319Y-117345496D01*
X129741126Y-117390393D01*
X129739179Y-117422602D01*
X129736294Y-117444800D01*
X129732288Y-117459669D01*
X129726979Y-117469889D01*
X129720183Y-117478138D01*
X129715668Y-117482795D01*
X129707438Y-117489282D01*
X129696078Y-117494194D01*
X129678810Y-117497749D01*
X129652855Y-117500167D01*
X129615436Y-117501667D01*
X129563773Y-117502467D01*
X129495089Y-117502787D01*
X129406606Y-117502845D01*
X129386931Y-117502838D01*
X129299906Y-117502572D01*
X129232254Y-117501806D01*
X129181299Y-117500392D01*
X129144367Y-117498180D01*
X129118783Y-117495022D01*
X129101871Y-117490769D01*
X129090957Y-117485271D01*
X129080464Y-117475285D01*
X129067203Y-117444168D01*
X129068386Y-117408280D01*
X129084550Y-117376733D01*
X129086739Y-117374457D01*
X129095427Y-117368189D01*
X129108769Y-117363523D01*
X129129752Y-117360227D01*
X129161363Y-117358068D01*
X129206590Y-117356814D01*
X129268420Y-117356231D01*
X129349839Y-117356089D01*
X129596445Y-117356089D01*
X129596445Y-117198045D01*
X129434006Y-117198045D01*
X129398338Y-117197964D01*
X129342568Y-117197167D01*
X129303430Y-117195162D01*
X129276976Y-117191521D01*
X129259259Y-117185812D01*
X129246329Y-117177607D01*
X129242686Y-117174423D01*
X129224278Y-117143448D01*
X129223644Y-117107112D01*
X129241183Y-117073493D01*
X129241245Y-117073424D01*
X129250916Y-117064798D01*
X129264209Y-117058742D01*
X129284917Y-117054811D01*
X129316828Y-117052556D01*
X129363734Y-117051531D01*
X129429424Y-117051289D01*
X129597571Y-117051289D01*
X129594186Y-116986378D01*
X129590800Y-116921467D01*
X129348723Y-116918414D01*
X129323707Y-116918086D01*
X129242087Y-116916606D01*
X129179768Y-116914222D01*
X129134154Y-116910227D01*
X129102652Y-116903913D01*
X129082667Y-116894574D01*
X129071604Y-116881503D01*
X129066869Y-116863992D01*
X129065867Y-116841335D01*
X129065873Y-116838970D01*
X129067027Y-116818939D01*
X129071824Y-116803146D01*
X129082632Y-116791090D01*
X129101817Y-116782267D01*
X129131745Y-116776175D01*
X129174783Y-116772311D01*
X129233299Y-116770174D01*
X129309657Y-116769260D01*
X129406226Y-116769067D01*
X129696406Y-116769067D01*
X129719803Y-116798811D01*
G36*
X129719803Y-116798811D02*
G01*
X129724752Y-116805495D01*
X129730596Y-116816066D01*
X129735057Y-116830153D01*
X129738321Y-116850478D01*
X129740574Y-116879765D01*
X129742002Y-116920737D01*
X129742792Y-116976117D01*
X129743129Y-117048628D01*
X129743200Y-117140994D01*
X129743171Y-117206911D01*
X129742939Y-117285228D01*
X129742319Y-117345496D01*
X129741126Y-117390393D01*
X129739179Y-117422602D01*
X129736294Y-117444800D01*
X129732288Y-117459669D01*
X129726979Y-117469889D01*
X129720183Y-117478138D01*
X129715668Y-117482795D01*
X129707438Y-117489282D01*
X129696078Y-117494194D01*
X129678810Y-117497749D01*
X129652855Y-117500167D01*
X129615436Y-117501667D01*
X129563773Y-117502467D01*
X129495089Y-117502787D01*
X129406606Y-117502845D01*
X129386931Y-117502838D01*
X129299906Y-117502572D01*
X129232254Y-117501806D01*
X129181299Y-117500392D01*
X129144367Y-117498180D01*
X129118783Y-117495022D01*
X129101871Y-117490769D01*
X129090957Y-117485271D01*
X129080464Y-117475285D01*
X129067203Y-117444168D01*
X129068386Y-117408280D01*
X129084550Y-117376733D01*
X129086739Y-117374457D01*
X129095427Y-117368189D01*
X129108769Y-117363523D01*
X129129752Y-117360227D01*
X129161363Y-117358068D01*
X129206590Y-117356814D01*
X129268420Y-117356231D01*
X129349839Y-117356089D01*
X129596445Y-117356089D01*
X129596445Y-117198045D01*
X129434006Y-117198045D01*
X129398338Y-117197964D01*
X129342568Y-117197167D01*
X129303430Y-117195162D01*
X129276976Y-117191521D01*
X129259259Y-117185812D01*
X129246329Y-117177607D01*
X129242686Y-117174423D01*
X129224278Y-117143448D01*
X129223644Y-117107112D01*
X129241183Y-117073493D01*
X129241245Y-117073424D01*
X129250916Y-117064798D01*
X129264209Y-117058742D01*
X129284917Y-117054811D01*
X129316828Y-117052556D01*
X129363734Y-117051531D01*
X129429424Y-117051289D01*
X129597571Y-117051289D01*
X129594186Y-116986378D01*
X129590800Y-116921467D01*
X129348723Y-116918414D01*
X129323707Y-116918086D01*
X129242087Y-116916606D01*
X129179768Y-116914222D01*
X129134154Y-116910227D01*
X129102652Y-116903913D01*
X129082667Y-116894574D01*
X129071604Y-116881503D01*
X129066869Y-116863992D01*
X129065867Y-116841335D01*
X129065873Y-116838970D01*
X129067027Y-116818939D01*
X129071824Y-116803146D01*
X129082632Y-116791090D01*
X129101817Y-116782267D01*
X129131745Y-116776175D01*
X129174783Y-116772311D01*
X129233299Y-116770174D01*
X129309657Y-116769260D01*
X129406226Y-116769067D01*
X129696406Y-116769067D01*
X129719803Y-116798811D01*
G37*
X134396734Y-116769083D02*
X134473831Y-116769275D01*
X134532777Y-116769860D01*
X134576364Y-116771051D01*
X134607383Y-116773064D01*
X134628625Y-116776112D01*
X134642882Y-116780409D01*
X134652945Y-116786172D01*
X134661606Y-116793612D01*
X134663391Y-116795293D01*
X134670635Y-116802832D01*
X134676277Y-116811850D01*
X134680517Y-116824984D01*
X134683556Y-116844872D01*
X134685594Y-116874151D01*
X134686830Y-116915458D01*
X134687465Y-116971431D01*
X134687700Y-117044707D01*
X134687734Y-117137923D01*
X134687697Y-117210713D01*
X134687448Y-117288889D01*
X134686812Y-117349103D01*
X134685615Y-117393982D01*
X134683684Y-117426152D01*
X134680846Y-117448239D01*
X134676927Y-117462870D01*
X134671755Y-117472670D01*
X134665156Y-117480267D01*
X134661822Y-117483444D01*
X134653300Y-117489554D01*
X134641298Y-117494229D01*
X134623087Y-117497659D01*
X134595940Y-117500036D01*
X134557129Y-117501552D01*
X134503924Y-117502398D01*
X134433598Y-117502765D01*
X134343422Y-117502845D01*
X134301314Y-117502833D01*
X134220167Y-117502651D01*
X134157675Y-117502098D01*
X134111109Y-117500982D01*
X134077741Y-117499113D01*
X134054844Y-117496298D01*
X134039688Y-117492346D01*
X134029546Y-117487066D01*
X134021689Y-117480267D01*
X134006963Y-117458667D01*
X133999111Y-117429467D01*
X134004610Y-117405560D01*
X134021689Y-117378667D01*
X134026668Y-117374059D01*
X134036443Y-117367772D01*
X134050559Y-117363146D01*
X134072054Y-117359930D01*
X134103968Y-117357870D01*
X134149342Y-117356712D01*
X134211213Y-117356202D01*
X134292622Y-117356089D01*
X134540978Y-117356089D01*
X134540978Y-117198045D01*
X134379801Y-117198045D01*
X134343983Y-117197899D01*
X134278359Y-117196176D01*
X134231118Y-117191741D01*
X134199383Y-117183637D01*
X134180277Y-117170906D01*
X134170923Y-117152592D01*
X134168445Y-117127738D01*
X134169242Y-117107482D01*
X134174494Y-117085656D01*
X134187288Y-117070304D01*
X134210628Y-117060309D01*
X134247517Y-117054553D01*
X134300959Y-117051919D01*
X134373958Y-117051289D01*
X134542105Y-117051289D01*
X134538719Y-116986378D01*
X134535334Y-116921467D01*
X134287617Y-116918418D01*
X134225026Y-116917539D01*
X134156565Y-116916095D01*
X134105661Y-116914164D01*
X134069408Y-116911514D01*
X134044901Y-116907910D01*
X134029235Y-116903121D01*
X134019506Y-116896913D01*
X134013491Y-116890510D01*
X134000482Y-116858828D01*
X134004043Y-116823142D01*
X134023818Y-116792084D01*
X134027069Y-116789161D01*
X134036049Y-116782810D01*
X134048153Y-116777957D01*
X134066159Y-116774403D01*
X134092847Y-116771946D01*
X134130997Y-116770385D01*
X134183386Y-116769518D01*
X134252794Y-116769146D01*
X134342001Y-116769067D01*
X134396734Y-116769083D01*
G36*
X134396734Y-116769083D02*
G01*
X134473831Y-116769275D01*
X134532777Y-116769860D01*
X134576364Y-116771051D01*
X134607383Y-116773064D01*
X134628625Y-116776112D01*
X134642882Y-116780409D01*
X134652945Y-116786172D01*
X134661606Y-116793612D01*
X134663391Y-116795293D01*
X134670635Y-116802832D01*
X134676277Y-116811850D01*
X134680517Y-116824984D01*
X134683556Y-116844872D01*
X134685594Y-116874151D01*
X134686830Y-116915458D01*
X134687465Y-116971431D01*
X134687700Y-117044707D01*
X134687734Y-117137923D01*
X134687697Y-117210713D01*
X134687448Y-117288889D01*
X134686812Y-117349103D01*
X134685615Y-117393982D01*
X134683684Y-117426152D01*
X134680846Y-117448239D01*
X134676927Y-117462870D01*
X134671755Y-117472670D01*
X134665156Y-117480267D01*
X134661822Y-117483444D01*
X134653300Y-117489554D01*
X134641298Y-117494229D01*
X134623087Y-117497659D01*
X134595940Y-117500036D01*
X134557129Y-117501552D01*
X134503924Y-117502398D01*
X134433598Y-117502765D01*
X134343422Y-117502845D01*
X134301314Y-117502833D01*
X134220167Y-117502651D01*
X134157675Y-117502098D01*
X134111109Y-117500982D01*
X134077741Y-117499113D01*
X134054844Y-117496298D01*
X134039688Y-117492346D01*
X134029546Y-117487066D01*
X134021689Y-117480267D01*
X134006963Y-117458667D01*
X133999111Y-117429467D01*
X134004610Y-117405560D01*
X134021689Y-117378667D01*
X134026668Y-117374059D01*
X134036443Y-117367772D01*
X134050559Y-117363146D01*
X134072054Y-117359930D01*
X134103968Y-117357870D01*
X134149342Y-117356712D01*
X134211213Y-117356202D01*
X134292622Y-117356089D01*
X134540978Y-117356089D01*
X134540978Y-117198045D01*
X134379801Y-117198045D01*
X134343983Y-117197899D01*
X134278359Y-117196176D01*
X134231118Y-117191741D01*
X134199383Y-117183637D01*
X134180277Y-117170906D01*
X134170923Y-117152592D01*
X134168445Y-117127738D01*
X134169242Y-117107482D01*
X134174494Y-117085656D01*
X134187288Y-117070304D01*
X134210628Y-117060309D01*
X134247517Y-117054553D01*
X134300959Y-117051919D01*
X134373958Y-117051289D01*
X134542105Y-117051289D01*
X134538719Y-116986378D01*
X134535334Y-116921467D01*
X134287617Y-116918418D01*
X134225026Y-116917539D01*
X134156565Y-116916095D01*
X134105661Y-116914164D01*
X134069408Y-116911514D01*
X134044901Y-116907910D01*
X134029235Y-116903121D01*
X134019506Y-116896913D01*
X134013491Y-116890510D01*
X134000482Y-116858828D01*
X134004043Y-116823142D01*
X134023818Y-116792084D01*
X134027069Y-116789161D01*
X134036049Y-116782810D01*
X134048153Y-116777957D01*
X134066159Y-116774403D01*
X134092847Y-116771946D01*
X134130997Y-116770385D01*
X134183386Y-116769518D01*
X134252794Y-116769146D01*
X134342001Y-116769067D01*
X134396734Y-116769083D01*
G37*
X125829702Y-116778478D02*
X125847663Y-116796989D01*
X125868263Y-116828071D01*
X125893095Y-116873756D01*
X125923750Y-116936078D01*
X125961820Y-117017071D01*
X125976454Y-117048454D01*
X126006203Y-117111638D01*
X126032297Y-117166244D01*
X126053292Y-117209290D01*
X126067739Y-117237793D01*
X126074191Y-117248770D01*
X126075550Y-117248189D01*
X126085542Y-117234242D01*
X126102833Y-117204704D01*
X126125430Y-117163087D01*
X126151338Y-117112903D01*
X126167311Y-117081414D01*
X126196261Y-117026061D01*
X126218749Y-116987044D01*
X126236965Y-116961566D01*
X126253096Y-116946831D01*
X126269330Y-116940042D01*
X126287857Y-116938400D01*
X126298360Y-116938875D01*
X126314476Y-116943082D01*
X126329790Y-116953946D01*
X126346388Y-116974219D01*
X126366357Y-117006654D01*
X126391783Y-117054004D01*
X126424752Y-117119022D01*
X126434485Y-117138277D01*
X126458943Y-117184946D01*
X126479178Y-117221109D01*
X126493311Y-117243497D01*
X126499460Y-117248845D01*
X126500827Y-117245573D01*
X126510202Y-117224664D01*
X126527062Y-117187725D01*
X126549979Y-117137874D01*
X126577520Y-117078226D01*
X126608255Y-117011898D01*
X126634970Y-116954677D01*
X126664593Y-116892688D01*
X126687664Y-116846949D01*
X126705643Y-116814908D01*
X126719990Y-116794014D01*
X126732166Y-116781718D01*
X126743632Y-116775466D01*
X126753042Y-116772574D01*
X126778147Y-116772425D01*
X126805290Y-116787768D01*
X126806590Y-116788753D01*
X126828674Y-116811388D01*
X126839723Y-116833613D01*
X126839769Y-116834253D01*
X126835228Y-116851915D01*
X126822364Y-116886481D01*
X126802605Y-116934826D01*
X126777381Y-116993825D01*
X126748119Y-117060355D01*
X126716250Y-117131291D01*
X126683201Y-117203507D01*
X126650401Y-117273880D01*
X126619280Y-117339285D01*
X126591265Y-117396597D01*
X126567786Y-117442692D01*
X126550272Y-117474446D01*
X126540151Y-117488733D01*
X126505743Y-117502102D01*
X126464046Y-117495741D01*
X126458681Y-117491044D01*
X126442852Y-117468893D01*
X126420650Y-117432132D01*
X126394233Y-117384415D01*
X126365760Y-117329393D01*
X126285986Y-117170150D01*
X126212799Y-117316742D01*
X126203103Y-117336032D01*
X126176125Y-117388380D01*
X126152096Y-117433170D01*
X126133332Y-117466154D01*
X126122146Y-117483089D01*
X126121000Y-117484332D01*
X126092879Y-117499619D01*
X126057817Y-117501302D01*
X126026776Y-117488733D01*
X126024350Y-117485884D01*
X126012090Y-117465259D01*
X125992352Y-117427708D01*
X125966448Y-117375880D01*
X125935685Y-117312423D01*
X125901375Y-117239985D01*
X125864825Y-117161216D01*
X125844585Y-117117093D01*
X125807812Y-117036365D01*
X125779355Y-116972687D01*
X125758331Y-116923752D01*
X125743854Y-116887257D01*
X125735039Y-116860895D01*
X125731004Y-116842361D01*
X125730862Y-116829352D01*
X125733730Y-116819561D01*
X125748387Y-116798678D01*
X125774990Y-116778377D01*
X125775745Y-116778035D01*
X125795335Y-116771034D01*
X125812790Y-116770504D01*
X125829702Y-116778478D01*
G36*
X125829702Y-116778478D02*
G01*
X125847663Y-116796989D01*
X125868263Y-116828071D01*
X125893095Y-116873756D01*
X125923750Y-116936078D01*
X125961820Y-117017071D01*
X125976454Y-117048454D01*
X126006203Y-117111638D01*
X126032297Y-117166244D01*
X126053292Y-117209290D01*
X126067739Y-117237793D01*
X126074191Y-117248770D01*
X126075550Y-117248189D01*
X126085542Y-117234242D01*
X126102833Y-117204704D01*
X126125430Y-117163087D01*
X126151338Y-117112903D01*
X126167311Y-117081414D01*
X126196261Y-117026061D01*
X126218749Y-116987044D01*
X126236965Y-116961566D01*
X126253096Y-116946831D01*
X126269330Y-116940042D01*
X126287857Y-116938400D01*
X126298360Y-116938875D01*
X126314476Y-116943082D01*
X126329790Y-116953946D01*
X126346388Y-116974219D01*
X126366357Y-117006654D01*
X126391783Y-117054004D01*
X126424752Y-117119022D01*
X126434485Y-117138277D01*
X126458943Y-117184946D01*
X126479178Y-117221109D01*
X126493311Y-117243497D01*
X126499460Y-117248845D01*
X126500827Y-117245573D01*
X126510202Y-117224664D01*
X126527062Y-117187725D01*
X126549979Y-117137874D01*
X126577520Y-117078226D01*
X126608255Y-117011898D01*
X126634970Y-116954677D01*
X126664593Y-116892688D01*
X126687664Y-116846949D01*
X126705643Y-116814908D01*
X126719990Y-116794014D01*
X126732166Y-116781718D01*
X126743632Y-116775466D01*
X126753042Y-116772574D01*
X126778147Y-116772425D01*
X126805290Y-116787768D01*
X126806590Y-116788753D01*
X126828674Y-116811388D01*
X126839723Y-116833613D01*
X126839769Y-116834253D01*
X126835228Y-116851915D01*
X126822364Y-116886481D01*
X126802605Y-116934826D01*
X126777381Y-116993825D01*
X126748119Y-117060355D01*
X126716250Y-117131291D01*
X126683201Y-117203507D01*
X126650401Y-117273880D01*
X126619280Y-117339285D01*
X126591265Y-117396597D01*
X126567786Y-117442692D01*
X126550272Y-117474446D01*
X126540151Y-117488733D01*
X126505743Y-117502102D01*
X126464046Y-117495741D01*
X126458681Y-117491044D01*
X126442852Y-117468893D01*
X126420650Y-117432132D01*
X126394233Y-117384415D01*
X126365760Y-117329393D01*
X126285986Y-117170150D01*
X126212799Y-117316742D01*
X126203103Y-117336032D01*
X126176125Y-117388380D01*
X126152096Y-117433170D01*
X126133332Y-117466154D01*
X126122146Y-117483089D01*
X126121000Y-117484332D01*
X126092879Y-117499619D01*
X126057817Y-117501302D01*
X126026776Y-117488733D01*
X126024350Y-117485884D01*
X126012090Y-117465259D01*
X125992352Y-117427708D01*
X125966448Y-117375880D01*
X125935685Y-117312423D01*
X125901375Y-117239985D01*
X125864825Y-117161216D01*
X125844585Y-117117093D01*
X125807812Y-117036365D01*
X125779355Y-116972687D01*
X125758331Y-116923752D01*
X125743854Y-116887257D01*
X125735039Y-116860895D01*
X125731004Y-116842361D01*
X125730862Y-116829352D01*
X125733730Y-116819561D01*
X125748387Y-116798678D01*
X125774990Y-116778377D01*
X125775745Y-116778035D01*
X125795335Y-116771034D01*
X125812790Y-116770504D01*
X125829702Y-116778478D01*
G37*
X133380853Y-116769936D02*
X133447100Y-116775366D01*
X133502400Y-116784964D01*
X133553283Y-116799825D01*
X133624595Y-116832958D01*
X133675752Y-116875640D01*
X133706575Y-116927705D01*
X133716889Y-116988983D01*
X133715952Y-117020232D01*
X133710160Y-117045029D01*
X133695353Y-117066699D01*
X133667380Y-117094049D01*
X133659402Y-117101378D01*
X133635692Y-117122281D01*
X133613298Y-117139251D01*
X133589265Y-117153205D01*
X133560637Y-117165056D01*
X133524460Y-117175720D01*
X133477780Y-117186111D01*
X133417641Y-117197146D01*
X133341090Y-117209738D01*
X133245171Y-117224804D01*
X133226808Y-117227838D01*
X133164478Y-117241458D01*
X133119260Y-117257192D01*
X133092976Y-117274263D01*
X133087447Y-117291897D01*
X133090068Y-117296168D01*
X133108000Y-117311233D01*
X133136126Y-117327867D01*
X133148926Y-117333857D01*
X133170224Y-117341050D01*
X133196610Y-117345827D01*
X133232454Y-117348646D01*
X133282128Y-117349964D01*
X133350000Y-117350237D01*
X133367785Y-117350164D01*
X133435406Y-117349053D01*
X133500345Y-117346828D01*
X133555970Y-117343762D01*
X133595651Y-117340127D01*
X133631162Y-117336059D01*
X133660415Y-117335276D01*
X133679315Y-117339876D01*
X133694429Y-117350551D01*
X133698085Y-117354144D01*
X133714427Y-117385918D01*
X133713107Y-117421572D01*
X133694150Y-117452190D01*
X133673780Y-117463796D01*
X133637796Y-117476491D01*
X133595372Y-117486541D01*
X133591922Y-117487140D01*
X133549252Y-117492356D01*
X133491866Y-117496730D01*
X133426849Y-117499818D01*
X133361289Y-117501177D01*
X133345057Y-117501218D01*
X133246744Y-117498741D01*
X133166692Y-117490735D01*
X133101513Y-117476203D01*
X133047817Y-117454149D01*
X133002216Y-117423576D01*
X132961323Y-117383486D01*
X132941202Y-117357259D01*
X132929576Y-117327712D01*
X132926667Y-117287995D01*
X132926808Y-117276026D01*
X132930681Y-117243345D01*
X132943065Y-117216819D01*
X132968230Y-117185971D01*
X132989442Y-117163831D01*
X133015838Y-117141285D01*
X133045555Y-117122917D01*
X133081785Y-117107661D01*
X133127717Y-117094449D01*
X133186544Y-117082214D01*
X133261456Y-117069889D01*
X133355645Y-117056406D01*
X133400957Y-117049396D01*
X133468911Y-117034837D01*
X133518047Y-117018337D01*
X133547614Y-117000439D01*
X133556864Y-116981685D01*
X133545048Y-116962615D01*
X133511416Y-116943771D01*
X133508370Y-116942557D01*
X133462011Y-116930479D01*
X133399361Y-116922279D01*
X133325927Y-116918119D01*
X133247217Y-116918161D01*
X133168739Y-116922569D01*
X133096000Y-116931505D01*
X133092073Y-116932154D01*
X133043257Y-116939861D01*
X133011005Y-116943473D01*
X132990008Y-116942876D01*
X132974954Y-116937954D01*
X132960534Y-116928596D01*
X132959364Y-116927725D01*
X132934847Y-116897351D01*
X132930054Y-116861850D01*
X132945860Y-116827269D01*
X132950406Y-116822813D01*
X132980020Y-116807673D01*
X133027002Y-116794550D01*
X133087306Y-116783750D01*
X133156888Y-116775581D01*
X133231703Y-116770351D01*
X133307706Y-116768367D01*
X133380853Y-116769936D01*
G36*
X133380853Y-116769936D02*
G01*
X133447100Y-116775366D01*
X133502400Y-116784964D01*
X133553283Y-116799825D01*
X133624595Y-116832958D01*
X133675752Y-116875640D01*
X133706575Y-116927705D01*
X133716889Y-116988983D01*
X133715952Y-117020232D01*
X133710160Y-117045029D01*
X133695353Y-117066699D01*
X133667380Y-117094049D01*
X133659402Y-117101378D01*
X133635692Y-117122281D01*
X133613298Y-117139251D01*
X133589265Y-117153205D01*
X133560637Y-117165056D01*
X133524460Y-117175720D01*
X133477780Y-117186111D01*
X133417641Y-117197146D01*
X133341090Y-117209738D01*
X133245171Y-117224804D01*
X133226808Y-117227838D01*
X133164478Y-117241458D01*
X133119260Y-117257192D01*
X133092976Y-117274263D01*
X133087447Y-117291897D01*
X133090068Y-117296168D01*
X133108000Y-117311233D01*
X133136126Y-117327867D01*
X133148926Y-117333857D01*
X133170224Y-117341050D01*
X133196610Y-117345827D01*
X133232454Y-117348646D01*
X133282128Y-117349964D01*
X133350000Y-117350237D01*
X133367785Y-117350164D01*
X133435406Y-117349053D01*
X133500345Y-117346828D01*
X133555970Y-117343762D01*
X133595651Y-117340127D01*
X133631162Y-117336059D01*
X133660415Y-117335276D01*
X133679315Y-117339876D01*
X133694429Y-117350551D01*
X133698085Y-117354144D01*
X133714427Y-117385918D01*
X133713107Y-117421572D01*
X133694150Y-117452190D01*
X133673780Y-117463796D01*
X133637796Y-117476491D01*
X133595372Y-117486541D01*
X133591922Y-117487140D01*
X133549252Y-117492356D01*
X133491866Y-117496730D01*
X133426849Y-117499818D01*
X133361289Y-117501177D01*
X133345057Y-117501218D01*
X133246744Y-117498741D01*
X133166692Y-117490735D01*
X133101513Y-117476203D01*
X133047817Y-117454149D01*
X133002216Y-117423576D01*
X132961323Y-117383486D01*
X132941202Y-117357259D01*
X132929576Y-117327712D01*
X132926667Y-117287995D01*
X132926808Y-117276026D01*
X132930681Y-117243345D01*
X132943065Y-117216819D01*
X132968230Y-117185971D01*
X132989442Y-117163831D01*
X133015838Y-117141285D01*
X133045555Y-117122917D01*
X133081785Y-117107661D01*
X133127717Y-117094449D01*
X133186544Y-117082214D01*
X133261456Y-117069889D01*
X133355645Y-117056406D01*
X133400957Y-117049396D01*
X133468911Y-117034837D01*
X133518047Y-117018337D01*
X133547614Y-117000439D01*
X133556864Y-116981685D01*
X133545048Y-116962615D01*
X133511416Y-116943771D01*
X133508370Y-116942557D01*
X133462011Y-116930479D01*
X133399361Y-116922279D01*
X133325927Y-116918119D01*
X133247217Y-116918161D01*
X133168739Y-116922569D01*
X133096000Y-116931505D01*
X133092073Y-116932154D01*
X133043257Y-116939861D01*
X133011005Y-116943473D01*
X132990008Y-116942876D01*
X132974954Y-116937954D01*
X132960534Y-116928596D01*
X132959364Y-116927725D01*
X132934847Y-116897351D01*
X132930054Y-116861850D01*
X132945860Y-116827269D01*
X132950406Y-116822813D01*
X132980020Y-116807673D01*
X133027002Y-116794550D01*
X133087306Y-116783750D01*
X133156888Y-116775581D01*
X133231703Y-116770351D01*
X133307706Y-116768367D01*
X133380853Y-116769936D01*
G37*
X129528711Y-112462033D02*
X129624268Y-112479523D01*
X129788558Y-112524564D01*
X129942589Y-112587656D01*
X130088509Y-112669915D01*
X130228466Y-112772457D01*
X130364608Y-112896399D01*
X130408473Y-112941661D01*
X130520758Y-113073865D01*
X130613972Y-113211832D01*
X130690719Y-113359750D01*
X130753603Y-113521803D01*
X130757420Y-113533391D01*
X130807507Y-113719392D01*
X130840899Y-113915521D01*
X130857584Y-114117568D01*
X130857551Y-114321325D01*
X130840791Y-114522581D01*
X130807292Y-114717128D01*
X130757044Y-114900756D01*
X130713190Y-115018053D01*
X130635348Y-115180951D01*
X130541828Y-115334866D01*
X130434822Y-115476671D01*
X130316519Y-115603239D01*
X130189111Y-115711441D01*
X130111606Y-115764120D01*
X129984725Y-115833750D01*
X129847243Y-115892468D01*
X129705716Y-115937587D01*
X129566702Y-115966422D01*
X129552597Y-115968106D01*
X129509153Y-115971434D01*
X129451723Y-115974275D01*
X129386122Y-115976373D01*
X129318167Y-115977468D01*
X129191378Y-115975140D01*
X129043673Y-115962136D01*
X128905779Y-115937133D01*
X128772014Y-115899318D01*
X128748562Y-115890889D01*
X128700612Y-115871408D01*
X128644140Y-115846473D01*
X128582379Y-115817722D01*
X128518563Y-115786790D01*
X128455926Y-115755315D01*
X128397703Y-115724934D01*
X128347127Y-115697283D01*
X128307433Y-115673999D01*
X128281854Y-115656718D01*
X128273625Y-115647079D01*
X128275076Y-115643984D01*
X128286250Y-115624079D01*
X128307134Y-115588420D01*
X128336265Y-115539459D01*
X128372181Y-115479646D01*
X128413420Y-115411433D01*
X128458517Y-115337271D01*
X128639785Y-115040008D01*
X128686315Y-115084539D01*
X128777723Y-115162865D01*
X128891334Y-115237439D01*
X129009122Y-115291474D01*
X129129559Y-115324290D01*
X129251117Y-115335211D01*
X129292585Y-115333868D01*
X129410080Y-115315612D01*
X129520089Y-115276617D01*
X129621430Y-115217670D01*
X129712921Y-115139557D01*
X129793380Y-115043064D01*
X129861627Y-114928978D01*
X129877908Y-114894724D01*
X129923982Y-114771240D01*
X129959106Y-114632918D01*
X129983197Y-114483561D01*
X129996173Y-114326973D01*
X129997949Y-114166956D01*
X129988443Y-114007314D01*
X129967572Y-113851850D01*
X129935252Y-113704366D01*
X129891399Y-113568667D01*
X129853982Y-113482076D01*
X129789185Y-113368688D01*
X129713772Y-113275070D01*
X129627418Y-113200959D01*
X129529795Y-113146094D01*
X129420577Y-113110212D01*
X129299439Y-113093051D01*
X129230038Y-113091880D01*
X129107168Y-113106141D01*
X128991664Y-113141241D01*
X128884953Y-113196682D01*
X128788464Y-113271964D01*
X128772720Y-113286440D01*
X128742150Y-113312962D01*
X128719809Y-113330138D01*
X128709691Y-113334787D01*
X128707706Y-113332597D01*
X128693241Y-113313721D01*
X128669400Y-113280397D01*
X128638029Y-113235380D01*
X128600974Y-113181425D01*
X128560083Y-113121285D01*
X128517202Y-113057718D01*
X128474178Y-112993476D01*
X128432857Y-112931315D01*
X128395086Y-112873991D01*
X128362712Y-112824257D01*
X128337582Y-112784868D01*
X128321542Y-112758580D01*
X128316439Y-112748147D01*
X128321050Y-112743941D01*
X128340267Y-112738933D01*
X128349838Y-112736386D01*
X128377809Y-112725249D01*
X128419448Y-112706802D01*
X128470995Y-112682725D01*
X128528690Y-112654699D01*
X128539957Y-112649154D01*
X128717687Y-112569889D01*
X128887490Y-112510385D01*
X129051430Y-112470245D01*
X129211571Y-112449071D01*
X129369977Y-112446466D01*
X129528711Y-112462033D01*
G36*
X129528711Y-112462033D02*
G01*
X129624268Y-112479523D01*
X129788558Y-112524564D01*
X129942589Y-112587656D01*
X130088509Y-112669915D01*
X130228466Y-112772457D01*
X130364608Y-112896399D01*
X130408473Y-112941661D01*
X130520758Y-113073865D01*
X130613972Y-113211832D01*
X130690719Y-113359750D01*
X130753603Y-113521803D01*
X130757420Y-113533391D01*
X130807507Y-113719392D01*
X130840899Y-113915521D01*
X130857584Y-114117568D01*
X130857551Y-114321325D01*
X130840791Y-114522581D01*
X130807292Y-114717128D01*
X130757044Y-114900756D01*
X130713190Y-115018053D01*
X130635348Y-115180951D01*
X130541828Y-115334866D01*
X130434822Y-115476671D01*
X130316519Y-115603239D01*
X130189111Y-115711441D01*
X130111606Y-115764120D01*
X129984725Y-115833750D01*
X129847243Y-115892468D01*
X129705716Y-115937587D01*
X129566702Y-115966422D01*
X129552597Y-115968106D01*
X129509153Y-115971434D01*
X129451723Y-115974275D01*
X129386122Y-115976373D01*
X129318167Y-115977468D01*
X129191378Y-115975140D01*
X129043673Y-115962136D01*
X128905779Y-115937133D01*
X128772014Y-115899318D01*
X128748562Y-115890889D01*
X128700612Y-115871408D01*
X128644140Y-115846473D01*
X128582379Y-115817722D01*
X128518563Y-115786790D01*
X128455926Y-115755315D01*
X128397703Y-115724934D01*
X128347127Y-115697283D01*
X128307433Y-115673999D01*
X128281854Y-115656718D01*
X128273625Y-115647079D01*
X128275076Y-115643984D01*
X128286250Y-115624079D01*
X128307134Y-115588420D01*
X128336265Y-115539459D01*
X128372181Y-115479646D01*
X128413420Y-115411433D01*
X128458517Y-115337271D01*
X128639785Y-115040008D01*
X128686315Y-115084539D01*
X128777723Y-115162865D01*
X128891334Y-115237439D01*
X129009122Y-115291474D01*
X129129559Y-115324290D01*
X129251117Y-115335211D01*
X129292585Y-115333868D01*
X129410080Y-115315612D01*
X129520089Y-115276617D01*
X129621430Y-115217670D01*
X129712921Y-115139557D01*
X129793380Y-115043064D01*
X129861627Y-114928978D01*
X129877908Y-114894724D01*
X129923982Y-114771240D01*
X129959106Y-114632918D01*
X129983197Y-114483561D01*
X129996173Y-114326973D01*
X129997949Y-114166956D01*
X129988443Y-114007314D01*
X129967572Y-113851850D01*
X129935252Y-113704366D01*
X129891399Y-113568667D01*
X129853982Y-113482076D01*
X129789185Y-113368688D01*
X129713772Y-113275070D01*
X129627418Y-113200959D01*
X129529795Y-113146094D01*
X129420577Y-113110212D01*
X129299439Y-113093051D01*
X129230038Y-113091880D01*
X129107168Y-113106141D01*
X128991664Y-113141241D01*
X128884953Y-113196682D01*
X128788464Y-113271964D01*
X128772720Y-113286440D01*
X128742150Y-113312962D01*
X128719809Y-113330138D01*
X128709691Y-113334787D01*
X128707706Y-113332597D01*
X128693241Y-113313721D01*
X128669400Y-113280397D01*
X128638029Y-113235380D01*
X128600974Y-113181425D01*
X128560083Y-113121285D01*
X128517202Y-113057718D01*
X128474178Y-112993476D01*
X128432857Y-112931315D01*
X128395086Y-112873991D01*
X128362712Y-112824257D01*
X128337582Y-112784868D01*
X128321542Y-112758580D01*
X128316439Y-112748147D01*
X128321050Y-112743941D01*
X128340267Y-112738933D01*
X128349838Y-112736386D01*
X128377809Y-112725249D01*
X128419448Y-112706802D01*
X128470995Y-112682725D01*
X128528690Y-112654699D01*
X128539957Y-112649154D01*
X128717687Y-112569889D01*
X128887490Y-112510385D01*
X129051430Y-112470245D01*
X129211571Y-112449071D01*
X129369977Y-112446466D01*
X129528711Y-112462033D01*
G37*
X125725994Y-114742711D02*
X125725268Y-114820158D01*
X125716689Y-114971594D01*
X125697833Y-115108283D01*
X125667837Y-115234276D01*
X125625836Y-115353625D01*
X125570969Y-115470381D01*
X125504167Y-115581179D01*
X125413363Y-115694739D01*
X125309708Y-115790211D01*
X125193887Y-115867073D01*
X125066586Y-115924797D01*
X124928489Y-115962858D01*
X124890793Y-115968666D01*
X124811752Y-115974396D01*
X124723629Y-115974583D01*
X124634236Y-115969539D01*
X124551384Y-115959578D01*
X124482887Y-115945012D01*
X124452035Y-115935364D01*
X124374730Y-115905123D01*
X124297679Y-115867617D01*
X124228200Y-115826614D01*
X124173615Y-115785879D01*
X124150916Y-115766505D01*
X124128201Y-115748662D01*
X124116779Y-115741778D01*
X124115537Y-115743424D01*
X124112728Y-115761205D01*
X124110776Y-115794370D01*
X124110045Y-115837733D01*
X124110045Y-115933689D01*
X123251896Y-115933689D01*
X123286161Y-115872974D01*
X123291355Y-115863868D01*
X123299715Y-115849249D01*
X123307288Y-115835173D01*
X123314112Y-115820540D01*
X123320227Y-115804249D01*
X123325673Y-115785198D01*
X123330487Y-115762286D01*
X123334708Y-115734413D01*
X123338377Y-115700478D01*
X123341531Y-115659379D01*
X123344211Y-115610015D01*
X123346454Y-115551286D01*
X123348299Y-115482090D01*
X123349787Y-115401326D01*
X123350955Y-115307894D01*
X123351844Y-115200692D01*
X123352491Y-115078620D01*
X123352936Y-114940576D01*
X123353218Y-114785459D01*
X123353375Y-114612168D01*
X123353448Y-114419603D01*
X123353474Y-114206662D01*
X123353485Y-114070530D01*
X124155200Y-114070530D01*
X124155200Y-115220721D01*
X124225756Y-115267089D01*
X124266417Y-115290791D01*
X124320546Y-115316639D01*
X124369689Y-115334829D01*
X124433165Y-115350551D01*
X124529331Y-115361541D01*
X124613900Y-115353365D01*
X124687219Y-115325805D01*
X124749637Y-115278642D01*
X124801502Y-115211658D01*
X124843160Y-115124633D01*
X124874962Y-115017350D01*
X124877545Y-115005009D01*
X124886000Y-114943772D01*
X124891663Y-114866692D01*
X124894576Y-114779002D01*
X124894783Y-114685934D01*
X124892330Y-114592720D01*
X124887261Y-114504594D01*
X124879619Y-114426788D01*
X124869448Y-114364533D01*
X124868167Y-114358666D01*
X124839126Y-114248121D01*
X124804610Y-114157575D01*
X124763456Y-114084953D01*
X124714499Y-114028181D01*
X124656574Y-113985184D01*
X124624620Y-113969615D01*
X124551784Y-113950722D01*
X124470443Y-113947465D01*
X124385319Y-113959389D01*
X124301133Y-113986040D01*
X124222608Y-114026962D01*
X124155200Y-114070530D01*
X123353485Y-114070530D01*
X123353493Y-113972245D01*
X123353689Y-112287378D01*
X124259017Y-112287378D01*
X124234585Y-112324067D01*
X124228318Y-112333647D01*
X124202208Y-112379981D01*
X124184469Y-112427102D01*
X124172908Y-112482251D01*
X124165331Y-112552667D01*
X124164839Y-112559650D01*
X124163062Y-112597641D01*
X124161444Y-112651576D01*
X124159999Y-112718703D01*
X124158740Y-112796271D01*
X124157680Y-112881528D01*
X124156829Y-112971724D01*
X124156203Y-113064107D01*
X124155812Y-113155925D01*
X124155670Y-113244427D01*
X124155790Y-113326862D01*
X124156183Y-113400479D01*
X124156862Y-113462526D01*
X124157841Y-113510251D01*
X124159132Y-113540904D01*
X124160747Y-113551733D01*
X124168957Y-113547333D01*
X124190647Y-113532362D01*
X124220014Y-113510448D01*
X124268879Y-113476236D01*
X124357125Y-113429714D01*
X124455916Y-113396046D01*
X124568510Y-113374231D01*
X124698164Y-113363265D01*
X124790670Y-113362219D01*
X124912011Y-113372014D01*
X125022099Y-113396174D01*
X125125389Y-113435785D01*
X125226338Y-113491932D01*
X125271503Y-113522883D01*
X125376911Y-113614115D01*
X125468538Y-113723106D01*
X125546332Y-113849726D01*
X125610241Y-113993845D01*
X125660214Y-114155332D01*
X125696198Y-114334059D01*
X125718143Y-114529895D01*
X125723900Y-114685934D01*
X125725994Y-114742711D01*
G36*
X125725994Y-114742711D02*
G01*
X125725268Y-114820158D01*
X125716689Y-114971594D01*
X125697833Y-115108283D01*
X125667837Y-115234276D01*
X125625836Y-115353625D01*
X125570969Y-115470381D01*
X125504167Y-115581179D01*
X125413363Y-115694739D01*
X125309708Y-115790211D01*
X125193887Y-115867073D01*
X125066586Y-115924797D01*
X124928489Y-115962858D01*
X124890793Y-115968666D01*
X124811752Y-115974396D01*
X124723629Y-115974583D01*
X124634236Y-115969539D01*
X124551384Y-115959578D01*
X124482887Y-115945012D01*
X124452035Y-115935364D01*
X124374730Y-115905123D01*
X124297679Y-115867617D01*
X124228200Y-115826614D01*
X124173615Y-115785879D01*
X124150916Y-115766505D01*
X124128201Y-115748662D01*
X124116779Y-115741778D01*
X124115537Y-115743424D01*
X124112728Y-115761205D01*
X124110776Y-115794370D01*
X124110045Y-115837733D01*
X124110045Y-115933689D01*
X123251896Y-115933689D01*
X123286161Y-115872974D01*
X123291355Y-115863868D01*
X123299715Y-115849249D01*
X123307288Y-115835173D01*
X123314112Y-115820540D01*
X123320227Y-115804249D01*
X123325673Y-115785198D01*
X123330487Y-115762286D01*
X123334708Y-115734413D01*
X123338377Y-115700478D01*
X123341531Y-115659379D01*
X123344211Y-115610015D01*
X123346454Y-115551286D01*
X123348299Y-115482090D01*
X123349787Y-115401326D01*
X123350955Y-115307894D01*
X123351844Y-115200692D01*
X123352491Y-115078620D01*
X123352936Y-114940576D01*
X123353218Y-114785459D01*
X123353375Y-114612168D01*
X123353448Y-114419603D01*
X123353474Y-114206662D01*
X123353485Y-114070530D01*
X124155200Y-114070530D01*
X124155200Y-115220721D01*
X124225756Y-115267089D01*
X124266417Y-115290791D01*
X124320546Y-115316639D01*
X124369689Y-115334829D01*
X124433165Y-115350551D01*
X124529331Y-115361541D01*
X124613900Y-115353365D01*
X124687219Y-115325805D01*
X124749637Y-115278642D01*
X124801502Y-115211658D01*
X124843160Y-115124633D01*
X124874962Y-115017350D01*
X124877545Y-115005009D01*
X124886000Y-114943772D01*
X124891663Y-114866692D01*
X124894576Y-114779002D01*
X124894783Y-114685934D01*
X124892330Y-114592720D01*
X124887261Y-114504594D01*
X124879619Y-114426788D01*
X124869448Y-114364533D01*
X124868167Y-114358666D01*
X124839126Y-114248121D01*
X124804610Y-114157575D01*
X124763456Y-114084953D01*
X124714499Y-114028181D01*
X124656574Y-113985184D01*
X124624620Y-113969615D01*
X124551784Y-113950722D01*
X124470443Y-113947465D01*
X124385319Y-113959389D01*
X124301133Y-113986040D01*
X124222608Y-114026962D01*
X124155200Y-114070530D01*
X123353485Y-114070530D01*
X123353493Y-113972245D01*
X123353689Y-112287378D01*
X124259017Y-112287378D01*
X124234585Y-112324067D01*
X124228318Y-112333647D01*
X124202208Y-112379981D01*
X124184469Y-112427102D01*
X124172908Y-112482251D01*
X124165331Y-112552667D01*
X124164839Y-112559650D01*
X124163062Y-112597641D01*
X124161444Y-112651576D01*
X124159999Y-112718703D01*
X124158740Y-112796271D01*
X124157680Y-112881528D01*
X124156829Y-112971724D01*
X124156203Y-113064107D01*
X124155812Y-113155925D01*
X124155670Y-113244427D01*
X124155790Y-113326862D01*
X124156183Y-113400479D01*
X124156862Y-113462526D01*
X124157841Y-113510251D01*
X124159132Y-113540904D01*
X124160747Y-113551733D01*
X124168957Y-113547333D01*
X124190647Y-113532362D01*
X124220014Y-113510448D01*
X124268879Y-113476236D01*
X124357125Y-113429714D01*
X124455916Y-113396046D01*
X124568510Y-113374231D01*
X124698164Y-113363265D01*
X124790670Y-113362219D01*
X124912011Y-113372014D01*
X125022099Y-113396174D01*
X125125389Y-113435785D01*
X125226338Y-113491932D01*
X125271503Y-113522883D01*
X125376911Y-113614115D01*
X125468538Y-113723106D01*
X125546332Y-113849726D01*
X125610241Y-113993845D01*
X125660214Y-114155332D01*
X125696198Y-114334059D01*
X125718143Y-114529895D01*
X125723900Y-114685934D01*
X125725994Y-114742711D01*
G37*
X128267755Y-115143467D02*
X128267261Y-115177363D01*
X128263632Y-115252202D01*
X128256022Y-115314401D01*
X128243688Y-115370984D01*
X128199313Y-115497076D01*
X128136400Y-115611679D01*
X128056238Y-115712568D01*
X127959740Y-115798924D01*
X127847822Y-115869932D01*
X127721397Y-115924776D01*
X127581378Y-115962638D01*
X127545149Y-115968351D01*
X127466155Y-115974313D01*
X127377841Y-115974646D01*
X127288075Y-115969659D01*
X127204722Y-115959666D01*
X127135651Y-115944978D01*
X127049187Y-115914749D01*
X126939286Y-115860057D01*
X126841956Y-115792543D01*
X126779867Y-115741556D01*
X126776605Y-115837622D01*
X126773343Y-115933689D01*
X126350450Y-115933689D01*
X126339543Y-115933686D01*
X126245056Y-115933380D01*
X126158331Y-115932616D01*
X126081837Y-115931451D01*
X126018043Y-115929942D01*
X125969418Y-115928147D01*
X125938433Y-115926121D01*
X125927556Y-115923922D01*
X125927578Y-115923463D01*
X125934614Y-115907910D01*
X125950434Y-115885071D01*
X125954734Y-115879638D01*
X125965777Y-115865606D01*
X125975311Y-115852186D01*
X125983461Y-115837722D01*
X125990352Y-115820556D01*
X125996111Y-115799034D01*
X126000862Y-115771498D01*
X126004731Y-115736292D01*
X126007844Y-115691760D01*
X126010325Y-115636246D01*
X126012300Y-115568093D01*
X126013894Y-115485645D01*
X126015234Y-115387246D01*
X126016444Y-115271239D01*
X126017649Y-115135968D01*
X126018595Y-115024586D01*
X126819378Y-115024586D01*
X126819378Y-115220462D01*
X126864048Y-115276973D01*
X126876785Y-115292212D01*
X126923604Y-115334844D01*
X126984255Y-115370672D01*
X126994897Y-115375850D01*
X127033676Y-115392745D01*
X127068692Y-115402909D01*
X127108722Y-115408325D01*
X127162541Y-115410978D01*
X127180648Y-115411383D01*
X127256011Y-115408540D01*
X127316743Y-115396620D01*
X127368452Y-115374037D01*
X127416746Y-115339211D01*
X127421803Y-115334798D01*
X127470272Y-115279160D01*
X127498459Y-115215333D01*
X127507752Y-115140282D01*
X127500520Y-115068693D01*
X127475796Y-115005645D01*
X127431249Y-114947758D01*
X127376319Y-114900808D01*
X127303894Y-114860961D01*
X127217340Y-114833263D01*
X127114670Y-114817096D01*
X126993894Y-114811842D01*
X126985007Y-114811857D01*
X126929660Y-114812655D01*
X126882736Y-114814488D01*
X126848953Y-114817111D01*
X126833028Y-114820274D01*
X126828943Y-114826741D01*
X126824572Y-114848875D01*
X126821604Y-114887988D01*
X126819914Y-114945939D01*
X126819378Y-115024586D01*
X126018595Y-115024586D01*
X126018975Y-114979778D01*
X126020228Y-114837012D01*
X126021651Y-114691942D01*
X126023176Y-114566027D01*
X126024933Y-114457436D01*
X126027051Y-114364334D01*
X126029660Y-114284891D01*
X126032890Y-114217273D01*
X126036869Y-114159649D01*
X126041728Y-114110185D01*
X126047597Y-114067050D01*
X126054604Y-114028410D01*
X126062880Y-113992434D01*
X126072554Y-113957289D01*
X126083756Y-113921142D01*
X126096616Y-113882161D01*
X126112090Y-113839091D01*
X126154994Y-113746871D01*
X126208735Y-113667099D01*
X126277576Y-113592965D01*
X126355185Y-113529405D01*
X126459761Y-113467725D01*
X126579244Y-113420202D01*
X126714508Y-113386567D01*
X126866426Y-113366552D01*
X127035872Y-113359889D01*
X127093890Y-113360287D01*
X127159398Y-113362335D01*
X127220693Y-113366704D01*
X127282097Y-113374035D01*
X127347932Y-113384969D01*
X127422520Y-113400147D01*
X127510184Y-113420209D01*
X127615245Y-113445797D01*
X127643806Y-113452820D01*
X127719054Y-113470776D01*
X127789388Y-113486820D01*
X127850567Y-113500028D01*
X127898354Y-113509474D01*
X127928511Y-113514231D01*
X127956783Y-113517910D01*
X127983060Y-113523187D01*
X127993059Y-113527942D01*
X127989952Y-113536781D01*
X127979194Y-113564072D01*
X127961864Y-113606906D01*
X127939126Y-113662425D01*
X127912147Y-113727772D01*
X127882090Y-113800089D01*
X127875493Y-113815879D01*
X127836907Y-113906484D01*
X127805768Y-113976217D01*
X127781917Y-114025405D01*
X127765198Y-114054374D01*
X127755454Y-114063452D01*
X127747766Y-114061405D01*
X127721415Y-114051760D01*
X127682982Y-114036190D01*
X127637822Y-114016815D01*
X127543293Y-113978814D01*
X127406480Y-113937780D01*
X127265289Y-113912612D01*
X127227314Y-113908611D01*
X127124059Y-113906447D01*
X127036952Y-113919622D01*
X126965129Y-113948756D01*
X126907731Y-113994466D01*
X126863896Y-114057372D01*
X126832762Y-114138092D01*
X126813470Y-114237245D01*
X126806050Y-114296224D01*
X126967936Y-114289445D01*
X127094495Y-114287813D01*
X127245951Y-114294194D01*
X127394396Y-114308777D01*
X127530578Y-114330882D01*
X127595245Y-114345821D01*
X127727490Y-114388741D01*
X127849762Y-114445340D01*
X127959685Y-114514017D01*
X128054883Y-114593170D01*
X128132980Y-114681196D01*
X128191599Y-114776493D01*
X128215595Y-114828864D01*
X128241232Y-114899590D01*
X128257478Y-114970812D01*
X128265822Y-115049712D01*
X128267690Y-115140282D01*
X128267755Y-115143467D01*
G36*
X128267755Y-115143467D02*
G01*
X128267261Y-115177363D01*
X128263632Y-115252202D01*
X128256022Y-115314401D01*
X128243688Y-115370984D01*
X128199313Y-115497076D01*
X128136400Y-115611679D01*
X128056238Y-115712568D01*
X127959740Y-115798924D01*
X127847822Y-115869932D01*
X127721397Y-115924776D01*
X127581378Y-115962638D01*
X127545149Y-115968351D01*
X127466155Y-115974313D01*
X127377841Y-115974646D01*
X127288075Y-115969659D01*
X127204722Y-115959666D01*
X127135651Y-115944978D01*
X127049187Y-115914749D01*
X126939286Y-115860057D01*
X126841956Y-115792543D01*
X126779867Y-115741556D01*
X126776605Y-115837622D01*
X126773343Y-115933689D01*
X126350450Y-115933689D01*
X126339543Y-115933686D01*
X126245056Y-115933380D01*
X126158331Y-115932616D01*
X126081837Y-115931451D01*
X126018043Y-115929942D01*
X125969418Y-115928147D01*
X125938433Y-115926121D01*
X125927556Y-115923922D01*
X125927578Y-115923463D01*
X125934614Y-115907910D01*
X125950434Y-115885071D01*
X125954734Y-115879638D01*
X125965777Y-115865606D01*
X125975311Y-115852186D01*
X125983461Y-115837722D01*
X125990352Y-115820556D01*
X125996111Y-115799034D01*
X126000862Y-115771498D01*
X126004731Y-115736292D01*
X126007844Y-115691760D01*
X126010325Y-115636246D01*
X126012300Y-115568093D01*
X126013894Y-115485645D01*
X126015234Y-115387246D01*
X126016444Y-115271239D01*
X126017649Y-115135968D01*
X126018595Y-115024586D01*
X126819378Y-115024586D01*
X126819378Y-115220462D01*
X126864048Y-115276973D01*
X126876785Y-115292212D01*
X126923604Y-115334844D01*
X126984255Y-115370672D01*
X126994897Y-115375850D01*
X127033676Y-115392745D01*
X127068692Y-115402909D01*
X127108722Y-115408325D01*
X127162541Y-115410978D01*
X127180648Y-115411383D01*
X127256011Y-115408540D01*
X127316743Y-115396620D01*
X127368452Y-115374037D01*
X127416746Y-115339211D01*
X127421803Y-115334798D01*
X127470272Y-115279160D01*
X127498459Y-115215333D01*
X127507752Y-115140282D01*
X127500520Y-115068693D01*
X127475796Y-115005645D01*
X127431249Y-114947758D01*
X127376319Y-114900808D01*
X127303894Y-114860961D01*
X127217340Y-114833263D01*
X127114670Y-114817096D01*
X126993894Y-114811842D01*
X126985007Y-114811857D01*
X126929660Y-114812655D01*
X126882736Y-114814488D01*
X126848953Y-114817111D01*
X126833028Y-114820274D01*
X126828943Y-114826741D01*
X126824572Y-114848875D01*
X126821604Y-114887988D01*
X126819914Y-114945939D01*
X126819378Y-115024586D01*
X126018595Y-115024586D01*
X126018975Y-114979778D01*
X126020228Y-114837012D01*
X126021651Y-114691942D01*
X126023176Y-114566027D01*
X126024933Y-114457436D01*
X126027051Y-114364334D01*
X126029660Y-114284891D01*
X126032890Y-114217273D01*
X126036869Y-114159649D01*
X126041728Y-114110185D01*
X126047597Y-114067050D01*
X126054604Y-114028410D01*
X126062880Y-113992434D01*
X126072554Y-113957289D01*
X126083756Y-113921142D01*
X126096616Y-113882161D01*
X126112090Y-113839091D01*
X126154994Y-113746871D01*
X126208735Y-113667099D01*
X126277576Y-113592965D01*
X126355185Y-113529405D01*
X126459761Y-113467725D01*
X126579244Y-113420202D01*
X126714508Y-113386567D01*
X126866426Y-113366552D01*
X127035872Y-113359889D01*
X127093890Y-113360287D01*
X127159398Y-113362335D01*
X127220693Y-113366704D01*
X127282097Y-113374035D01*
X127347932Y-113384969D01*
X127422520Y-113400147D01*
X127510184Y-113420209D01*
X127615245Y-113445797D01*
X127643806Y-113452820D01*
X127719054Y-113470776D01*
X127789388Y-113486820D01*
X127850567Y-113500028D01*
X127898354Y-113509474D01*
X127928511Y-113514231D01*
X127956783Y-113517910D01*
X127983060Y-113523187D01*
X127993059Y-113527942D01*
X127989952Y-113536781D01*
X127979194Y-113564072D01*
X127961864Y-113606906D01*
X127939126Y-113662425D01*
X127912147Y-113727772D01*
X127882090Y-113800089D01*
X127875493Y-113815879D01*
X127836907Y-113906484D01*
X127805768Y-113976217D01*
X127781917Y-114025405D01*
X127765198Y-114054374D01*
X127755454Y-114063452D01*
X127747766Y-114061405D01*
X127721415Y-114051760D01*
X127682982Y-114036190D01*
X127637822Y-114016815D01*
X127543293Y-113978814D01*
X127406480Y-113937780D01*
X127265289Y-113912612D01*
X127227314Y-113908611D01*
X127124059Y-113906447D01*
X127036952Y-113919622D01*
X126965129Y-113948756D01*
X126907731Y-113994466D01*
X126863896Y-114057372D01*
X126832762Y-114138092D01*
X126813470Y-114237245D01*
X126806050Y-114296224D01*
X126967936Y-114289445D01*
X127094495Y-114287813D01*
X127245951Y-114294194D01*
X127394396Y-114308777D01*
X127530578Y-114330882D01*
X127595245Y-114345821D01*
X127727490Y-114388741D01*
X127849762Y-114445340D01*
X127959685Y-114514017D01*
X128054883Y-114593170D01*
X128132980Y-114681196D01*
X128191599Y-114776493D01*
X128215595Y-114828864D01*
X128241232Y-114899590D01*
X128257478Y-114970812D01*
X128265822Y-115049712D01*
X128267690Y-115140282D01*
X128267755Y-115143467D01*
G37*
X135815614Y-112611792D02*
X135816059Y-112743011D01*
X135816362Y-112890216D01*
X135816548Y-113054349D01*
X135816642Y-113236352D01*
X135816671Y-113437165D01*
X135816661Y-113657732D01*
X135816636Y-113898992D01*
X135816622Y-114161889D01*
X135816622Y-114204040D01*
X135816646Y-114464668D01*
X135816685Y-114703796D01*
X135816708Y-114922360D01*
X135816687Y-115121295D01*
X135816593Y-115301535D01*
X135816395Y-115464015D01*
X135816063Y-115609670D01*
X135815569Y-115739434D01*
X135814883Y-115854243D01*
X135813976Y-115955030D01*
X135812817Y-116042730D01*
X135811378Y-116118279D01*
X135809629Y-116182611D01*
X135807540Y-116236661D01*
X135805083Y-116281363D01*
X135802227Y-116317652D01*
X135798943Y-116346463D01*
X135795202Y-116368731D01*
X135790974Y-116385390D01*
X135786229Y-116397375D01*
X135780939Y-116405621D01*
X135775073Y-116411062D01*
X135768602Y-116414634D01*
X135761497Y-116417270D01*
X135753728Y-116419906D01*
X135745266Y-116423477D01*
X135740908Y-116425145D01*
X135732395Y-116427111D01*
X135719694Y-116428911D01*
X135701885Y-116430555D01*
X135678049Y-116432047D01*
X135647266Y-116433397D01*
X135608617Y-116434611D01*
X135561182Y-116435697D01*
X135504043Y-116436661D01*
X135436279Y-116437511D01*
X135356971Y-116438253D01*
X135265199Y-116438897D01*
X135160044Y-116439447D01*
X135040587Y-116439913D01*
X134905908Y-116440300D01*
X134755088Y-116440616D01*
X134587206Y-116440869D01*
X134401345Y-116441066D01*
X134196583Y-116441213D01*
X133972002Y-116441318D01*
X133726682Y-116441389D01*
X133459704Y-116441432D01*
X133421321Y-116441437D01*
X133155922Y-116441480D01*
X132912050Y-116441525D01*
X132688783Y-116441548D01*
X132485196Y-116441524D01*
X132300367Y-116441430D01*
X132133373Y-116441243D01*
X131983290Y-116440939D01*
X131849196Y-116440494D01*
X131730166Y-116439885D01*
X131625279Y-116439089D01*
X131533610Y-116438080D01*
X131454237Y-116436837D01*
X131386237Y-116435335D01*
X131328686Y-116433551D01*
X131280662Y-116431461D01*
X131241240Y-116429042D01*
X131209499Y-116426270D01*
X131184514Y-116423121D01*
X131165364Y-116419572D01*
X131151123Y-116415598D01*
X131140871Y-116411178D01*
X131133682Y-116406286D01*
X131128635Y-116400900D01*
X131124805Y-116394996D01*
X131121271Y-116388549D01*
X131117108Y-116381537D01*
X131116025Y-116379687D01*
X131113813Y-116374180D01*
X131111786Y-116365868D01*
X131109938Y-116353809D01*
X131108261Y-116337063D01*
X131106745Y-116314687D01*
X131105383Y-116285740D01*
X131104167Y-116249280D01*
X131103089Y-116204367D01*
X131102140Y-116150057D01*
X131101312Y-116085410D01*
X131100597Y-116009484D01*
X131099987Y-115921338D01*
X131099942Y-115912493D01*
X131391378Y-115912493D01*
X131395260Y-115913765D01*
X131418520Y-115915791D01*
X131460874Y-115917626D01*
X131520132Y-115919227D01*
X131594107Y-115920549D01*
X131680610Y-115921548D01*
X131777452Y-115922180D01*
X131882445Y-115922400D01*
X132580651Y-115922400D01*
X133735090Y-115922400D01*
X133734456Y-115846200D01*
X133735574Y-115804160D01*
X133741304Y-115768334D01*
X133753890Y-115730772D01*
X133775568Y-115682577D01*
X133778789Y-115675897D01*
X133804188Y-115626359D01*
X133830996Y-115578369D01*
X133853917Y-115541466D01*
X133858485Y-115534834D01*
X133880516Y-115503593D01*
X133912693Y-115458654D01*
X133953457Y-115402147D01*
X134001245Y-115336204D01*
X134054498Y-115262957D01*
X134111655Y-115184536D01*
X134171155Y-115103072D01*
X134231437Y-115020698D01*
X134290940Y-114939544D01*
X134348105Y-114861742D01*
X134401370Y-114789423D01*
X134449174Y-114724718D01*
X134489957Y-114669759D01*
X134522158Y-114626676D01*
X134544216Y-114597602D01*
X134554571Y-114584667D01*
X134559044Y-114580351D01*
X134563236Y-114578312D01*
X134566643Y-114580926D01*
X134569325Y-114589986D01*
X134571341Y-114607285D01*
X134572748Y-114634614D01*
X134573605Y-114673765D01*
X134573970Y-114726533D01*
X134573903Y-114794707D01*
X134573460Y-114880082D01*
X134572702Y-114984449D01*
X134571685Y-115109600D01*
X134571308Y-115154300D01*
X134570169Y-115275395D01*
X134568972Y-115376688D01*
X134567636Y-115460262D01*
X134566077Y-115528204D01*
X134564215Y-115582599D01*
X134561966Y-115625532D01*
X134559248Y-115659089D01*
X134555979Y-115685355D01*
X134552078Y-115706416D01*
X134547461Y-115724357D01*
X134539192Y-115750770D01*
X134515583Y-115812772D01*
X134489685Y-115865573D01*
X134464535Y-115902645D01*
X134463339Y-115904075D01*
X134461168Y-115908424D01*
X134463328Y-115912026D01*
X134471644Y-115914951D01*
X134487940Y-115917269D01*
X134514041Y-115919051D01*
X134551771Y-115920367D01*
X134602956Y-115921286D01*
X134669420Y-115921878D01*
X134752987Y-115922215D01*
X134855483Y-115922365D01*
X134978732Y-115922400D01*
X135510296Y-115922400D01*
X135471523Y-115864783D01*
X135465432Y-115855893D01*
X135454976Y-115841069D01*
X135445579Y-115827422D01*
X135437183Y-115813765D01*
X135429733Y-115798911D01*
X135423173Y-115781670D01*
X135417446Y-115760855D01*
X135412495Y-115735280D01*
X135408266Y-115703755D01*
X135404701Y-115665093D01*
X135401744Y-115618107D01*
X135399340Y-115561608D01*
X135397431Y-115494409D01*
X135395962Y-115415322D01*
X135394876Y-115323160D01*
X135394118Y-115216734D01*
X135393630Y-115094857D01*
X135393358Y-114956341D01*
X135393243Y-114799999D01*
X135393231Y-114624642D01*
X135393265Y-114429082D01*
X135393289Y-114212133D01*
X135393280Y-114089513D01*
X135393243Y-113884447D01*
X135393227Y-113700116D01*
X135393288Y-113535334D01*
X135393484Y-113388916D01*
X135393870Y-113259674D01*
X135394505Y-113146422D01*
X135395444Y-113047975D01*
X135396745Y-112963144D01*
X135398464Y-112890744D01*
X135400659Y-112829589D01*
X135403385Y-112778492D01*
X135406701Y-112736267D01*
X135410662Y-112701727D01*
X135415325Y-112673686D01*
X135420747Y-112650958D01*
X135426986Y-112632356D01*
X135434097Y-112616693D01*
X135442138Y-112602784D01*
X135451166Y-112589441D01*
X135461236Y-112575479D01*
X135472407Y-112559711D01*
X135512197Y-112501867D01*
X134452314Y-112501867D01*
X134490311Y-112564966D01*
X134504993Y-112590005D01*
X134519531Y-112617586D01*
X134531627Y-112645700D01*
X134541532Y-112676551D01*
X134549494Y-112712344D01*
X134555761Y-112755283D01*
X134560582Y-112807574D01*
X134564206Y-112871419D01*
X134566881Y-112949025D01*
X134568857Y-113042594D01*
X134570382Y-113154333D01*
X134571704Y-113286445D01*
X134572613Y-113406434D01*
X134573020Y-113523063D01*
X134572767Y-113618531D01*
X134571857Y-113692556D01*
X134570293Y-113744855D01*
X134568079Y-113775149D01*
X134565220Y-113783156D01*
X134562161Y-113779858D01*
X134544006Y-113758408D01*
X134514275Y-113721889D01*
X134474639Y-113672442D01*
X134426771Y-113612207D01*
X134372343Y-113543327D01*
X134313027Y-113467943D01*
X134250495Y-113388196D01*
X134186421Y-113306228D01*
X134122475Y-113224180D01*
X134060331Y-113144194D01*
X134001661Y-113068411D01*
X133948137Y-112998973D01*
X133901430Y-112938021D01*
X133863214Y-112887696D01*
X133835161Y-112850140D01*
X133818943Y-112827495D01*
X133773635Y-112755212D01*
X133733661Y-112675463D01*
X133712130Y-112607188D01*
X133708827Y-112549844D01*
X133714116Y-112501867D01*
X132582356Y-112502117D01*
X132621867Y-112532722D01*
X132631248Y-112540089D01*
X132694183Y-112594438D01*
X132762997Y-112662259D01*
X132839596Y-112745516D01*
X132925888Y-112846178D01*
X132943052Y-112866847D01*
X132983833Y-112916409D01*
X133033588Y-112977326D01*
X133090955Y-113047898D01*
X133154569Y-113126424D01*
X133223069Y-113211204D01*
X133295090Y-113300537D01*
X133369270Y-113392722D01*
X133384517Y-113411702D01*
X133444246Y-113486060D01*
X133518653Y-113578848D01*
X133591131Y-113669388D01*
X133660314Y-113755978D01*
X133724841Y-113836918D01*
X133783347Y-113910506D01*
X133834470Y-113975044D01*
X133876847Y-114028829D01*
X133909115Y-114070162D01*
X133929910Y-114097342D01*
X133937869Y-114108668D01*
X133936111Y-114112771D01*
X133923230Y-114133334D01*
X133898885Y-114169561D01*
X133864247Y-114219824D01*
X133820486Y-114282492D01*
X133768775Y-114355936D01*
X133710284Y-114438527D01*
X133646184Y-114528636D01*
X133577646Y-114624631D01*
X133505843Y-114724885D01*
X133431944Y-114827768D01*
X133357121Y-114931650D01*
X133282545Y-115034901D01*
X133209387Y-115135892D01*
X133138819Y-115232994D01*
X133072011Y-115324577D01*
X133010135Y-115409011D01*
X132954361Y-115484667D01*
X132905862Y-115549916D01*
X132865807Y-115603128D01*
X132835369Y-115642673D01*
X132814944Y-115668026D01*
X132768899Y-115722295D01*
X132718612Y-115778775D01*
X132671815Y-115828669D01*
X132580651Y-115922400D01*
X131882445Y-115922400D01*
X131951356Y-115922349D01*
X132049607Y-115922091D01*
X132139030Y-115921637D01*
X132217333Y-115921010D01*
X132282223Y-115920235D01*
X132331411Y-115919335D01*
X132362604Y-115918334D01*
X132373511Y-115917257D01*
X132372322Y-115914037D01*
X132362176Y-115896452D01*
X132345040Y-115870158D01*
X132336540Y-115857691D01*
X132327329Y-115843622D01*
X132319233Y-115829351D01*
X132312185Y-115813479D01*
X132306117Y-115794609D01*
X132300961Y-115771341D01*
X132296651Y-115742278D01*
X132293119Y-115706021D01*
X132290297Y-115661170D01*
X132288118Y-115606328D01*
X132286514Y-115540097D01*
X132285419Y-115461077D01*
X132284765Y-115367871D01*
X132284484Y-115259079D01*
X132284509Y-115133303D01*
X132284772Y-114989145D01*
X132285206Y-114825207D01*
X132285745Y-114640089D01*
X132286279Y-114461232D01*
X132286805Y-114302374D01*
X132287350Y-114163316D01*
X132287945Y-114042665D01*
X132288619Y-113939028D01*
X132289403Y-113851011D01*
X132290326Y-113777223D01*
X132291419Y-113716269D01*
X132292712Y-113666757D01*
X132294235Y-113627293D01*
X132296019Y-113596484D01*
X132298092Y-113572938D01*
X132300486Y-113555260D01*
X132303230Y-113542059D01*
X132306356Y-113531940D01*
X132309892Y-113523511D01*
X132313791Y-113515375D01*
X132333438Y-113478544D01*
X132352225Y-113448391D01*
X132353272Y-113446908D01*
X132367602Y-113424659D01*
X132373511Y-113411702D01*
X132372504Y-113411249D01*
X132355305Y-113409803D01*
X132318656Y-113408480D01*
X132264962Y-113407316D01*
X132196630Y-113406347D01*
X132116064Y-113405611D01*
X132025670Y-113405142D01*
X131927853Y-113404978D01*
X131482195Y-113404978D01*
X131479120Y-114581845D01*
X131476045Y-115758711D01*
X131449407Y-115817622D01*
X131437485Y-115842183D01*
X131420246Y-115872434D01*
X131407074Y-115889560D01*
X131399076Y-115897591D01*
X131391378Y-115912493D01*
X131099942Y-115912493D01*
X131099474Y-115820029D01*
X131099050Y-115704617D01*
X131098706Y-115574160D01*
X131098434Y-115427716D01*
X131098227Y-115264344D01*
X131098076Y-115083101D01*
X131097972Y-114883048D01*
X131097908Y-114663241D01*
X131097876Y-114422739D01*
X131097867Y-114160602D01*
X131097867Y-111969031D01*
X131136249Y-111930649D01*
X131163355Y-111906911D01*
X131190253Y-111895111D01*
X131226560Y-111892267D01*
X131278489Y-111892267D01*
X131278489Y-111980206D01*
X131280427Y-112030102D01*
X131299199Y-112140523D01*
X131336217Y-112241987D01*
X131389369Y-112333152D01*
X131456546Y-112412673D01*
X131535638Y-112479205D01*
X131624534Y-112531406D01*
X131721125Y-112567930D01*
X131823300Y-112587434D01*
X131928950Y-112588573D01*
X132035964Y-112570005D01*
X132142232Y-112530384D01*
X132239219Y-112472516D01*
X132324293Y-112397684D01*
X132393015Y-112309615D01*
X132443918Y-112210616D01*
X132475535Y-112102993D01*
X132486400Y-111989054D01*
X132486400Y-111892267D01*
X134106753Y-111892267D01*
X134317897Y-111892280D01*
X134522020Y-111892330D01*
X134705686Y-111892430D01*
X134869991Y-111892592D01*
X135016029Y-111892829D01*
X135144894Y-111893153D01*
X135257683Y-111893575D01*
X135355488Y-111894109D01*
X135439404Y-111894767D01*
X135510527Y-111895561D01*
X135569950Y-111896504D01*
X135618768Y-111897608D01*
X135658077Y-111898884D01*
X135688969Y-111900347D01*
X135712541Y-111902007D01*
X135729886Y-111903878D01*
X135742099Y-111905972D01*
X135750275Y-111908300D01*
X135755508Y-111910876D01*
X135761504Y-111914445D01*
X135768279Y-111917978D01*
X135774478Y-111921488D01*
X135780126Y-111925918D01*
X135785247Y-111932208D01*
X135789869Y-111941301D01*
X135794015Y-111954139D01*
X135797713Y-111971662D01*
X135800987Y-111994813D01*
X135803863Y-112024534D01*
X135806367Y-112061765D01*
X135808524Y-112107449D01*
X135810360Y-112162527D01*
X135811900Y-112227941D01*
X135813170Y-112304633D01*
X135814195Y-112393544D01*
X135815001Y-112495617D01*
X135815034Y-112501867D01*
X135815614Y-112611792D01*
G36*
X135815614Y-112611792D02*
G01*
X135816059Y-112743011D01*
X135816362Y-112890216D01*
X135816548Y-113054349D01*
X135816642Y-113236352D01*
X135816671Y-113437165D01*
X135816661Y-113657732D01*
X135816636Y-113898992D01*
X135816622Y-114161889D01*
X135816622Y-114204040D01*
X135816646Y-114464668D01*
X135816685Y-114703796D01*
X135816708Y-114922360D01*
X135816687Y-115121295D01*
X135816593Y-115301535D01*
X135816395Y-115464015D01*
X135816063Y-115609670D01*
X135815569Y-115739434D01*
X135814883Y-115854243D01*
X135813976Y-115955030D01*
X135812817Y-116042730D01*
X135811378Y-116118279D01*
X135809629Y-116182611D01*
X135807540Y-116236661D01*
X135805083Y-116281363D01*
X135802227Y-116317652D01*
X135798943Y-116346463D01*
X135795202Y-116368731D01*
X135790974Y-116385390D01*
X135786229Y-116397375D01*
X135780939Y-116405621D01*
X135775073Y-116411062D01*
X135768602Y-116414634D01*
X135761497Y-116417270D01*
X135753728Y-116419906D01*
X135745266Y-116423477D01*
X135740908Y-116425145D01*
X135732395Y-116427111D01*
X135719694Y-116428911D01*
X135701885Y-116430555D01*
X135678049Y-116432047D01*
X135647266Y-116433397D01*
X135608617Y-116434611D01*
X135561182Y-116435697D01*
X135504043Y-116436661D01*
X135436279Y-116437511D01*
X135356971Y-116438253D01*
X135265199Y-116438897D01*
X135160044Y-116439447D01*
X135040587Y-116439913D01*
X134905908Y-116440300D01*
X134755088Y-116440616D01*
X134587206Y-116440869D01*
X134401345Y-116441066D01*
X134196583Y-116441213D01*
X133972002Y-116441318D01*
X133726682Y-116441389D01*
X133459704Y-116441432D01*
X133421321Y-116441437D01*
X133155922Y-116441480D01*
X132912050Y-116441525D01*
X132688783Y-116441548D01*
X132485196Y-116441524D01*
X132300367Y-116441430D01*
X132133373Y-116441243D01*
X131983290Y-116440939D01*
X131849196Y-116440494D01*
X131730166Y-116439885D01*
X131625279Y-116439089D01*
X131533610Y-116438080D01*
X131454237Y-116436837D01*
X131386237Y-116435335D01*
X131328686Y-116433551D01*
X131280662Y-116431461D01*
X131241240Y-116429042D01*
X131209499Y-116426270D01*
X131184514Y-116423121D01*
X131165364Y-116419572D01*
X131151123Y-116415598D01*
X131140871Y-116411178D01*
X131133682Y-116406286D01*
X131128635Y-116400900D01*
X131124805Y-116394996D01*
X131121271Y-116388549D01*
X131117108Y-116381537D01*
X131116025Y-116379687D01*
X131113813Y-116374180D01*
X131111786Y-116365868D01*
X131109938Y-116353809D01*
X131108261Y-116337063D01*
X131106745Y-116314687D01*
X131105383Y-116285740D01*
X131104167Y-116249280D01*
X131103089Y-116204367D01*
X131102140Y-116150057D01*
X131101312Y-116085410D01*
X131100597Y-116009484D01*
X131099987Y-115921338D01*
X131099942Y-115912493D01*
X131391378Y-115912493D01*
X131395260Y-115913765D01*
X131418520Y-115915791D01*
X131460874Y-115917626D01*
X131520132Y-115919227D01*
X131594107Y-115920549D01*
X131680610Y-115921548D01*
X131777452Y-115922180D01*
X131882445Y-115922400D01*
X132580651Y-115922400D01*
X133735090Y-115922400D01*
X133734456Y-115846200D01*
X133735574Y-115804160D01*
X133741304Y-115768334D01*
X133753890Y-115730772D01*
X133775568Y-115682577D01*
X133778789Y-115675897D01*
X133804188Y-115626359D01*
X133830996Y-115578369D01*
X133853917Y-115541466D01*
X133858485Y-115534834D01*
X133880516Y-115503593D01*
X133912693Y-115458654D01*
X133953457Y-115402147D01*
X134001245Y-115336204D01*
X134054498Y-115262957D01*
X134111655Y-115184536D01*
X134171155Y-115103072D01*
X134231437Y-115020698D01*
X134290940Y-114939544D01*
X134348105Y-114861742D01*
X134401370Y-114789423D01*
X134449174Y-114724718D01*
X134489957Y-114669759D01*
X134522158Y-114626676D01*
X134544216Y-114597602D01*
X134554571Y-114584667D01*
X134559044Y-114580351D01*
X134563236Y-114578312D01*
X134566643Y-114580926D01*
X134569325Y-114589986D01*
X134571341Y-114607285D01*
X134572748Y-114634614D01*
X134573605Y-114673765D01*
X134573970Y-114726533D01*
X134573903Y-114794707D01*
X134573460Y-114880082D01*
X134572702Y-114984449D01*
X134571685Y-115109600D01*
X134571308Y-115154300D01*
X134570169Y-115275395D01*
X134568972Y-115376688D01*
X134567636Y-115460262D01*
X134566077Y-115528204D01*
X134564215Y-115582599D01*
X134561966Y-115625532D01*
X134559248Y-115659089D01*
X134555979Y-115685355D01*
X134552078Y-115706416D01*
X134547461Y-115724357D01*
X134539192Y-115750770D01*
X134515583Y-115812772D01*
X134489685Y-115865573D01*
X134464535Y-115902645D01*
X134463339Y-115904075D01*
X134461168Y-115908424D01*
X134463328Y-115912026D01*
X134471644Y-115914951D01*
X134487940Y-115917269D01*
X134514041Y-115919051D01*
X134551771Y-115920367D01*
X134602956Y-115921286D01*
X134669420Y-115921878D01*
X134752987Y-115922215D01*
X134855483Y-115922365D01*
X134978732Y-115922400D01*
X135510296Y-115922400D01*
X135471523Y-115864783D01*
X135465432Y-115855893D01*
X135454976Y-115841069D01*
X135445579Y-115827422D01*
X135437183Y-115813765D01*
X135429733Y-115798911D01*
X135423173Y-115781670D01*
X135417446Y-115760855D01*
X135412495Y-115735280D01*
X135408266Y-115703755D01*
X135404701Y-115665093D01*
X135401744Y-115618107D01*
X135399340Y-115561608D01*
X135397431Y-115494409D01*
X135395962Y-115415322D01*
X135394876Y-115323160D01*
X135394118Y-115216734D01*
X135393630Y-115094857D01*
X135393358Y-114956341D01*
X135393243Y-114799999D01*
X135393231Y-114624642D01*
X135393265Y-114429082D01*
X135393289Y-114212133D01*
X135393280Y-114089513D01*
X135393243Y-113884447D01*
X135393227Y-113700116D01*
X135393288Y-113535334D01*
X135393484Y-113388916D01*
X135393870Y-113259674D01*
X135394505Y-113146422D01*
X135395444Y-113047975D01*
X135396745Y-112963144D01*
X135398464Y-112890744D01*
X135400659Y-112829589D01*
X135403385Y-112778492D01*
X135406701Y-112736267D01*
X135410662Y-112701727D01*
X135415325Y-112673686D01*
X135420747Y-112650958D01*
X135426986Y-112632356D01*
X135434097Y-112616693D01*
X135442138Y-112602784D01*
X135451166Y-112589441D01*
X135461236Y-112575479D01*
X135472407Y-112559711D01*
X135512197Y-112501867D01*
X134452314Y-112501867D01*
X134490311Y-112564966D01*
X134504993Y-112590005D01*
X134519531Y-112617586D01*
X134531627Y-112645700D01*
X134541532Y-112676551D01*
X134549494Y-112712344D01*
X134555761Y-112755283D01*
X134560582Y-112807574D01*
X134564206Y-112871419D01*
X134566881Y-112949025D01*
X134568857Y-113042594D01*
X134570382Y-113154333D01*
X134571704Y-113286445D01*
X134572613Y-113406434D01*
X134573020Y-113523063D01*
X134572767Y-113618531D01*
X134571857Y-113692556D01*
X134570293Y-113744855D01*
X134568079Y-113775149D01*
X134565220Y-113783156D01*
X134562161Y-113779858D01*
X134544006Y-113758408D01*
X134514275Y-113721889D01*
X134474639Y-113672442D01*
X134426771Y-113612207D01*
X134372343Y-113543327D01*
X134313027Y-113467943D01*
X134250495Y-113388196D01*
X134186421Y-113306228D01*
X134122475Y-113224180D01*
X134060331Y-113144194D01*
X134001661Y-113068411D01*
X133948137Y-112998973D01*
X133901430Y-112938021D01*
X133863214Y-112887696D01*
X133835161Y-112850140D01*
X133818943Y-112827495D01*
X133773635Y-112755212D01*
X133733661Y-112675463D01*
X133712130Y-112607188D01*
X133708827Y-112549844D01*
X133714116Y-112501867D01*
X132582356Y-112502117D01*
X132621867Y-112532722D01*
X132631248Y-112540089D01*
X132694183Y-112594438D01*
X132762997Y-112662259D01*
X132839596Y-112745516D01*
X132925888Y-112846178D01*
X132943052Y-112866847D01*
X132983833Y-112916409D01*
X133033588Y-112977326D01*
X133090955Y-113047898D01*
X133154569Y-113126424D01*
X133223069Y-113211204D01*
X133295090Y-113300537D01*
X133369270Y-113392722D01*
X133384517Y-113411702D01*
X133444246Y-113486060D01*
X133518653Y-113578848D01*
X133591131Y-113669388D01*
X133660314Y-113755978D01*
X133724841Y-113836918D01*
X133783347Y-113910506D01*
X133834470Y-113975044D01*
X133876847Y-114028829D01*
X133909115Y-114070162D01*
X133929910Y-114097342D01*
X133937869Y-114108668D01*
X133936111Y-114112771D01*
X133923230Y-114133334D01*
X133898885Y-114169561D01*
X133864247Y-114219824D01*
X133820486Y-114282492D01*
X133768775Y-114355936D01*
X133710284Y-114438527D01*
X133646184Y-114528636D01*
X133577646Y-114624631D01*
X133505843Y-114724885D01*
X133431944Y-114827768D01*
X133357121Y-114931650D01*
X133282545Y-115034901D01*
X133209387Y-115135892D01*
X133138819Y-115232994D01*
X133072011Y-115324577D01*
X133010135Y-115409011D01*
X132954361Y-115484667D01*
X132905862Y-115549916D01*
X132865807Y-115603128D01*
X132835369Y-115642673D01*
X132814944Y-115668026D01*
X132768899Y-115722295D01*
X132718612Y-115778775D01*
X132671815Y-115828669D01*
X132580651Y-115922400D01*
X131882445Y-115922400D01*
X131951356Y-115922349D01*
X132049607Y-115922091D01*
X132139030Y-115921637D01*
X132217333Y-115921010D01*
X132282223Y-115920235D01*
X132331411Y-115919335D01*
X132362604Y-115918334D01*
X132373511Y-115917257D01*
X132372322Y-115914037D01*
X132362176Y-115896452D01*
X132345040Y-115870158D01*
X132336540Y-115857691D01*
X132327329Y-115843622D01*
X132319233Y-115829351D01*
X132312185Y-115813479D01*
X132306117Y-115794609D01*
X132300961Y-115771341D01*
X132296651Y-115742278D01*
X132293119Y-115706021D01*
X132290297Y-115661170D01*
X132288118Y-115606328D01*
X132286514Y-115540097D01*
X132285419Y-115461077D01*
X132284765Y-115367871D01*
X132284484Y-115259079D01*
X132284509Y-115133303D01*
X132284772Y-114989145D01*
X132285206Y-114825207D01*
X132285745Y-114640089D01*
X132286279Y-114461232D01*
X132286805Y-114302374D01*
X132287350Y-114163316D01*
X132287945Y-114042665D01*
X132288619Y-113939028D01*
X132289403Y-113851011D01*
X132290326Y-113777223D01*
X132291419Y-113716269D01*
X132292712Y-113666757D01*
X132294235Y-113627293D01*
X132296019Y-113596484D01*
X132298092Y-113572938D01*
X132300486Y-113555260D01*
X132303230Y-113542059D01*
X132306356Y-113531940D01*
X132309892Y-113523511D01*
X132313791Y-113515375D01*
X132333438Y-113478544D01*
X132352225Y-113448391D01*
X132353272Y-113446908D01*
X132367602Y-113424659D01*
X132373511Y-113411702D01*
X132372504Y-113411249D01*
X132355305Y-113409803D01*
X132318656Y-113408480D01*
X132264962Y-113407316D01*
X132196630Y-113406347D01*
X132116064Y-113405611D01*
X132025670Y-113405142D01*
X131927853Y-113404978D01*
X131482195Y-113404978D01*
X131479120Y-114581845D01*
X131476045Y-115758711D01*
X131449407Y-115817622D01*
X131437485Y-115842183D01*
X131420246Y-115872434D01*
X131407074Y-115889560D01*
X131399076Y-115897591D01*
X131391378Y-115912493D01*
X131099942Y-115912493D01*
X131099474Y-115820029D01*
X131099050Y-115704617D01*
X131098706Y-115574160D01*
X131098434Y-115427716D01*
X131098227Y-115264344D01*
X131098076Y-115083101D01*
X131097972Y-114883048D01*
X131097908Y-114663241D01*
X131097876Y-114422739D01*
X131097867Y-114160602D01*
X131097867Y-111969031D01*
X131136249Y-111930649D01*
X131163355Y-111906911D01*
X131190253Y-111895111D01*
X131226560Y-111892267D01*
X131278489Y-111892267D01*
X131278489Y-111980206D01*
X131280427Y-112030102D01*
X131299199Y-112140523D01*
X131336217Y-112241987D01*
X131389369Y-112333152D01*
X131456546Y-112412673D01*
X131535638Y-112479205D01*
X131624534Y-112531406D01*
X131721125Y-112567930D01*
X131823300Y-112587434D01*
X131928950Y-112588573D01*
X132035964Y-112570005D01*
X132142232Y-112530384D01*
X132239219Y-112472516D01*
X132324293Y-112397684D01*
X132393015Y-112309615D01*
X132443918Y-112210616D01*
X132475535Y-112102993D01*
X132486400Y-111989054D01*
X132486400Y-111892267D01*
X134106753Y-111892267D01*
X134317897Y-111892280D01*
X134522020Y-111892330D01*
X134705686Y-111892430D01*
X134869991Y-111892592D01*
X135016029Y-111892829D01*
X135144894Y-111893153D01*
X135257683Y-111893575D01*
X135355488Y-111894109D01*
X135439404Y-111894767D01*
X135510527Y-111895561D01*
X135569950Y-111896504D01*
X135618768Y-111897608D01*
X135658077Y-111898884D01*
X135688969Y-111900347D01*
X135712541Y-111902007D01*
X135729886Y-111903878D01*
X135742099Y-111905972D01*
X135750275Y-111908300D01*
X135755508Y-111910876D01*
X135761504Y-111914445D01*
X135768279Y-111917978D01*
X135774478Y-111921488D01*
X135780126Y-111925918D01*
X135785247Y-111932208D01*
X135789869Y-111941301D01*
X135794015Y-111954139D01*
X135797713Y-111971662D01*
X135800987Y-111994813D01*
X135803863Y-112024534D01*
X135806367Y-112061765D01*
X135808524Y-112107449D01*
X135810360Y-112162527D01*
X135811900Y-112227941D01*
X135813170Y-112304633D01*
X135814195Y-112393544D01*
X135815001Y-112495617D01*
X135815034Y-112501867D01*
X135815614Y-112611792D01*
G37*
%TD*%
M02*
