%TF.GenerationSoftware,KiCad,Pcbnew,9.0.2*%
%TF.CreationDate,2025-06-12T21:47:04+05:30*%
%TF.ProjectId,Breadboard power supply,42726561-6462-46f6-9172-6420706f7765,rev?*%
%TF.SameCoordinates,Original*%
%TF.FileFunction,Legend,Bot*%
%TF.FilePolarity,Positive*%
%FSLAX46Y46*%
G04 Gerber Fmt 4.6, Leading zero omitted, Abs format (unit mm)*
G04 Created by KiCad (PCBNEW 9.0.2) date 2025-06-12 21:47:04*
%MOMM*%
%LPD*%
G01*
G04 APERTURE LIST*
%ADD10C,0.300000*%
%ADD11C,0.080000*%
G04 APERTURE END LIST*
D10*
X139099171Y-90488346D02*
X138099171Y-90131203D01*
X138099171Y-90131203D02*
X139099171Y-89774060D01*
X139599171Y-88916917D02*
X139599171Y-88774060D01*
X139599171Y-88774060D02*
X139527742Y-88631203D01*
X139527742Y-88631203D02*
X139456314Y-88559775D01*
X139456314Y-88559775D02*
X139313457Y-88488346D01*
X139313457Y-88488346D02*
X139027742Y-88416917D01*
X139027742Y-88416917D02*
X138670600Y-88416917D01*
X138670600Y-88416917D02*
X138384885Y-88488346D01*
X138384885Y-88488346D02*
X138242028Y-88559775D01*
X138242028Y-88559775D02*
X138170600Y-88631203D01*
X138170600Y-88631203D02*
X138099171Y-88774060D01*
X138099171Y-88774060D02*
X138099171Y-88916917D01*
X138099171Y-88916917D02*
X138170600Y-89059775D01*
X138170600Y-89059775D02*
X138242028Y-89131203D01*
X138242028Y-89131203D02*
X138384885Y-89202632D01*
X138384885Y-89202632D02*
X138670600Y-89274060D01*
X138670600Y-89274060D02*
X139027742Y-89274060D01*
X139027742Y-89274060D02*
X139313457Y-89202632D01*
X139313457Y-89202632D02*
X139456314Y-89131203D01*
X139456314Y-89131203D02*
X139527742Y-89059775D01*
X139527742Y-89059775D02*
X139599171Y-88916917D01*
X138242028Y-87774061D02*
X138170600Y-87702632D01*
X138170600Y-87702632D02*
X138099171Y-87774061D01*
X138099171Y-87774061D02*
X138170600Y-87845489D01*
X138170600Y-87845489D02*
X138242028Y-87774061D01*
X138242028Y-87774061D02*
X138099171Y-87774061D01*
X139456314Y-87131203D02*
X139527742Y-87059775D01*
X139527742Y-87059775D02*
X139599171Y-86916918D01*
X139599171Y-86916918D02*
X139599171Y-86559775D01*
X139599171Y-86559775D02*
X139527742Y-86416918D01*
X139527742Y-86416918D02*
X139456314Y-86345489D01*
X139456314Y-86345489D02*
X139313457Y-86274060D01*
X139313457Y-86274060D02*
X139170600Y-86274060D01*
X139170600Y-86274060D02*
X138956314Y-86345489D01*
X138956314Y-86345489D02*
X138099171Y-87202632D01*
X138099171Y-87202632D02*
X138099171Y-86274060D01*
D11*
X157675940Y-72049649D02*
X157533083Y-72097268D01*
X157533083Y-72097268D02*
X157485464Y-72144887D01*
X157485464Y-72144887D02*
X157437845Y-72240125D01*
X157437845Y-72240125D02*
X157437845Y-72382982D01*
X157437845Y-72382982D02*
X157485464Y-72478220D01*
X157485464Y-72478220D02*
X157533083Y-72525840D01*
X157533083Y-72525840D02*
X157628321Y-72573459D01*
X157628321Y-72573459D02*
X158009273Y-72573459D01*
X158009273Y-72573459D02*
X158009273Y-71573459D01*
X158009273Y-71573459D02*
X157675940Y-71573459D01*
X157675940Y-71573459D02*
X157580702Y-71621078D01*
X157580702Y-71621078D02*
X157533083Y-71668697D01*
X157533083Y-71668697D02*
X157485464Y-71763935D01*
X157485464Y-71763935D02*
X157485464Y-71859173D01*
X157485464Y-71859173D02*
X157533083Y-71954411D01*
X157533083Y-71954411D02*
X157580702Y-72002030D01*
X157580702Y-72002030D02*
X157675940Y-72049649D01*
X157675940Y-72049649D02*
X158009273Y-72049649D01*
X157009273Y-72573459D02*
X157009273Y-71906792D01*
X157009273Y-72097268D02*
X156961654Y-72002030D01*
X156961654Y-72002030D02*
X156914035Y-71954411D01*
X156914035Y-71954411D02*
X156818797Y-71906792D01*
X156818797Y-71906792D02*
X156723559Y-71906792D01*
X156009273Y-72525840D02*
X156104511Y-72573459D01*
X156104511Y-72573459D02*
X156294987Y-72573459D01*
X156294987Y-72573459D02*
X156390225Y-72525840D01*
X156390225Y-72525840D02*
X156437844Y-72430601D01*
X156437844Y-72430601D02*
X156437844Y-72049649D01*
X156437844Y-72049649D02*
X156390225Y-71954411D01*
X156390225Y-71954411D02*
X156294987Y-71906792D01*
X156294987Y-71906792D02*
X156104511Y-71906792D01*
X156104511Y-71906792D02*
X156009273Y-71954411D01*
X156009273Y-71954411D02*
X155961654Y-72049649D01*
X155961654Y-72049649D02*
X155961654Y-72144887D01*
X155961654Y-72144887D02*
X156437844Y-72240125D01*
X155104511Y-72573459D02*
X155104511Y-72049649D01*
X155104511Y-72049649D02*
X155152130Y-71954411D01*
X155152130Y-71954411D02*
X155247368Y-71906792D01*
X155247368Y-71906792D02*
X155437844Y-71906792D01*
X155437844Y-71906792D02*
X155533082Y-71954411D01*
X155104511Y-72525840D02*
X155199749Y-72573459D01*
X155199749Y-72573459D02*
X155437844Y-72573459D01*
X155437844Y-72573459D02*
X155533082Y-72525840D01*
X155533082Y-72525840D02*
X155580701Y-72430601D01*
X155580701Y-72430601D02*
X155580701Y-72335363D01*
X155580701Y-72335363D02*
X155533082Y-72240125D01*
X155533082Y-72240125D02*
X155437844Y-72192506D01*
X155437844Y-72192506D02*
X155199749Y-72192506D01*
X155199749Y-72192506D02*
X155104511Y-72144887D01*
X154199749Y-72573459D02*
X154199749Y-71573459D01*
X154199749Y-72525840D02*
X154294987Y-72573459D01*
X154294987Y-72573459D02*
X154485463Y-72573459D01*
X154485463Y-72573459D02*
X154580701Y-72525840D01*
X154580701Y-72525840D02*
X154628320Y-72478220D01*
X154628320Y-72478220D02*
X154675939Y-72382982D01*
X154675939Y-72382982D02*
X154675939Y-72097268D01*
X154675939Y-72097268D02*
X154628320Y-72002030D01*
X154628320Y-72002030D02*
X154580701Y-71954411D01*
X154580701Y-71954411D02*
X154485463Y-71906792D01*
X154485463Y-71906792D02*
X154294987Y-71906792D01*
X154294987Y-71906792D02*
X154199749Y-71954411D01*
X153723558Y-72573459D02*
X153723558Y-71573459D01*
X153723558Y-71954411D02*
X153628320Y-71906792D01*
X153628320Y-71906792D02*
X153437844Y-71906792D01*
X153437844Y-71906792D02*
X153342606Y-71954411D01*
X153342606Y-71954411D02*
X153294987Y-72002030D01*
X153294987Y-72002030D02*
X153247368Y-72097268D01*
X153247368Y-72097268D02*
X153247368Y-72382982D01*
X153247368Y-72382982D02*
X153294987Y-72478220D01*
X153294987Y-72478220D02*
X153342606Y-72525840D01*
X153342606Y-72525840D02*
X153437844Y-72573459D01*
X153437844Y-72573459D02*
X153628320Y-72573459D01*
X153628320Y-72573459D02*
X153723558Y-72525840D01*
X152675939Y-72573459D02*
X152771177Y-72525840D01*
X152771177Y-72525840D02*
X152818796Y-72478220D01*
X152818796Y-72478220D02*
X152866415Y-72382982D01*
X152866415Y-72382982D02*
X152866415Y-72097268D01*
X152866415Y-72097268D02*
X152818796Y-72002030D01*
X152818796Y-72002030D02*
X152771177Y-71954411D01*
X152771177Y-71954411D02*
X152675939Y-71906792D01*
X152675939Y-71906792D02*
X152533082Y-71906792D01*
X152533082Y-71906792D02*
X152437844Y-71954411D01*
X152437844Y-71954411D02*
X152390225Y-72002030D01*
X152390225Y-72002030D02*
X152342606Y-72097268D01*
X152342606Y-72097268D02*
X152342606Y-72382982D01*
X152342606Y-72382982D02*
X152390225Y-72478220D01*
X152390225Y-72478220D02*
X152437844Y-72525840D01*
X152437844Y-72525840D02*
X152533082Y-72573459D01*
X152533082Y-72573459D02*
X152675939Y-72573459D01*
X151485463Y-72573459D02*
X151485463Y-72049649D01*
X151485463Y-72049649D02*
X151533082Y-71954411D01*
X151533082Y-71954411D02*
X151628320Y-71906792D01*
X151628320Y-71906792D02*
X151818796Y-71906792D01*
X151818796Y-71906792D02*
X151914034Y-71954411D01*
X151485463Y-72525840D02*
X151580701Y-72573459D01*
X151580701Y-72573459D02*
X151818796Y-72573459D01*
X151818796Y-72573459D02*
X151914034Y-72525840D01*
X151914034Y-72525840D02*
X151961653Y-72430601D01*
X151961653Y-72430601D02*
X151961653Y-72335363D01*
X151961653Y-72335363D02*
X151914034Y-72240125D01*
X151914034Y-72240125D02*
X151818796Y-72192506D01*
X151818796Y-72192506D02*
X151580701Y-72192506D01*
X151580701Y-72192506D02*
X151485463Y-72144887D01*
X151009272Y-72573459D02*
X151009272Y-71906792D01*
X151009272Y-72097268D02*
X150961653Y-72002030D01*
X150961653Y-72002030D02*
X150914034Y-71954411D01*
X150914034Y-71954411D02*
X150818796Y-71906792D01*
X150818796Y-71906792D02*
X150723558Y-71906792D01*
X149961653Y-72573459D02*
X149961653Y-71573459D01*
X149961653Y-72525840D02*
X150056891Y-72573459D01*
X150056891Y-72573459D02*
X150247367Y-72573459D01*
X150247367Y-72573459D02*
X150342605Y-72525840D01*
X150342605Y-72525840D02*
X150390224Y-72478220D01*
X150390224Y-72478220D02*
X150437843Y-72382982D01*
X150437843Y-72382982D02*
X150437843Y-72097268D01*
X150437843Y-72097268D02*
X150390224Y-72002030D01*
X150390224Y-72002030D02*
X150342605Y-71954411D01*
X150342605Y-71954411D02*
X150247367Y-71906792D01*
X150247367Y-71906792D02*
X150056891Y-71906792D01*
X150056891Y-71906792D02*
X149961653Y-71954411D01*
X148723557Y-72573459D02*
X148723557Y-71573459D01*
X148723557Y-71573459D02*
X148342605Y-71573459D01*
X148342605Y-71573459D02*
X148247367Y-71621078D01*
X148247367Y-71621078D02*
X148199748Y-71668697D01*
X148199748Y-71668697D02*
X148152129Y-71763935D01*
X148152129Y-71763935D02*
X148152129Y-71906792D01*
X148152129Y-71906792D02*
X148199748Y-72002030D01*
X148199748Y-72002030D02*
X148247367Y-72049649D01*
X148247367Y-72049649D02*
X148342605Y-72097268D01*
X148342605Y-72097268D02*
X148723557Y-72097268D01*
X147580700Y-72573459D02*
X147675938Y-72525840D01*
X147675938Y-72525840D02*
X147723557Y-72478220D01*
X147723557Y-72478220D02*
X147771176Y-72382982D01*
X147771176Y-72382982D02*
X147771176Y-72097268D01*
X147771176Y-72097268D02*
X147723557Y-72002030D01*
X147723557Y-72002030D02*
X147675938Y-71954411D01*
X147675938Y-71954411D02*
X147580700Y-71906792D01*
X147580700Y-71906792D02*
X147437843Y-71906792D01*
X147437843Y-71906792D02*
X147342605Y-71954411D01*
X147342605Y-71954411D02*
X147294986Y-72002030D01*
X147294986Y-72002030D02*
X147247367Y-72097268D01*
X147247367Y-72097268D02*
X147247367Y-72382982D01*
X147247367Y-72382982D02*
X147294986Y-72478220D01*
X147294986Y-72478220D02*
X147342605Y-72525840D01*
X147342605Y-72525840D02*
X147437843Y-72573459D01*
X147437843Y-72573459D02*
X147580700Y-72573459D01*
X146914033Y-71906792D02*
X146723557Y-72573459D01*
X146723557Y-72573459D02*
X146533081Y-72097268D01*
X146533081Y-72097268D02*
X146342605Y-72573459D01*
X146342605Y-72573459D02*
X146152129Y-71906792D01*
X145390224Y-72525840D02*
X145485462Y-72573459D01*
X145485462Y-72573459D02*
X145675938Y-72573459D01*
X145675938Y-72573459D02*
X145771176Y-72525840D01*
X145771176Y-72525840D02*
X145818795Y-72430601D01*
X145818795Y-72430601D02*
X145818795Y-72049649D01*
X145818795Y-72049649D02*
X145771176Y-71954411D01*
X145771176Y-71954411D02*
X145675938Y-71906792D01*
X145675938Y-71906792D02*
X145485462Y-71906792D01*
X145485462Y-71906792D02*
X145390224Y-71954411D01*
X145390224Y-71954411D02*
X145342605Y-72049649D01*
X145342605Y-72049649D02*
X145342605Y-72144887D01*
X145342605Y-72144887D02*
X145818795Y-72240125D01*
X144914033Y-72573459D02*
X144914033Y-71906792D01*
X144914033Y-72097268D02*
X144866414Y-72002030D01*
X144866414Y-72002030D02*
X144818795Y-71954411D01*
X144818795Y-71954411D02*
X144723557Y-71906792D01*
X144723557Y-71906792D02*
X144628319Y-71906792D01*
X143580699Y-72525840D02*
X143437842Y-72573459D01*
X143437842Y-72573459D02*
X143199747Y-72573459D01*
X143199747Y-72573459D02*
X143104509Y-72525840D01*
X143104509Y-72525840D02*
X143056890Y-72478220D01*
X143056890Y-72478220D02*
X143009271Y-72382982D01*
X143009271Y-72382982D02*
X143009271Y-72287744D01*
X143009271Y-72287744D02*
X143056890Y-72192506D01*
X143056890Y-72192506D02*
X143104509Y-72144887D01*
X143104509Y-72144887D02*
X143199747Y-72097268D01*
X143199747Y-72097268D02*
X143390223Y-72049649D01*
X143390223Y-72049649D02*
X143485461Y-72002030D01*
X143485461Y-72002030D02*
X143533080Y-71954411D01*
X143533080Y-71954411D02*
X143580699Y-71859173D01*
X143580699Y-71859173D02*
X143580699Y-71763935D01*
X143580699Y-71763935D02*
X143533080Y-71668697D01*
X143533080Y-71668697D02*
X143485461Y-71621078D01*
X143485461Y-71621078D02*
X143390223Y-71573459D01*
X143390223Y-71573459D02*
X143152128Y-71573459D01*
X143152128Y-71573459D02*
X143009271Y-71621078D01*
X142152128Y-71906792D02*
X142152128Y-72573459D01*
X142580699Y-71906792D02*
X142580699Y-72430601D01*
X142580699Y-72430601D02*
X142533080Y-72525840D01*
X142533080Y-72525840D02*
X142437842Y-72573459D01*
X142437842Y-72573459D02*
X142294985Y-72573459D01*
X142294985Y-72573459D02*
X142199747Y-72525840D01*
X142199747Y-72525840D02*
X142152128Y-72478220D01*
X141675937Y-71906792D02*
X141675937Y-72906792D01*
X141675937Y-71954411D02*
X141580699Y-71906792D01*
X141580699Y-71906792D02*
X141390223Y-71906792D01*
X141390223Y-71906792D02*
X141294985Y-71954411D01*
X141294985Y-71954411D02*
X141247366Y-72002030D01*
X141247366Y-72002030D02*
X141199747Y-72097268D01*
X141199747Y-72097268D02*
X141199747Y-72382982D01*
X141199747Y-72382982D02*
X141247366Y-72478220D01*
X141247366Y-72478220D02*
X141294985Y-72525840D01*
X141294985Y-72525840D02*
X141390223Y-72573459D01*
X141390223Y-72573459D02*
X141580699Y-72573459D01*
X141580699Y-72573459D02*
X141675937Y-72525840D01*
X140771175Y-71906792D02*
X140771175Y-72906792D01*
X140771175Y-71954411D02*
X140675937Y-71906792D01*
X140675937Y-71906792D02*
X140485461Y-71906792D01*
X140485461Y-71906792D02*
X140390223Y-71954411D01*
X140390223Y-71954411D02*
X140342604Y-72002030D01*
X140342604Y-72002030D02*
X140294985Y-72097268D01*
X140294985Y-72097268D02*
X140294985Y-72382982D01*
X140294985Y-72382982D02*
X140342604Y-72478220D01*
X140342604Y-72478220D02*
X140390223Y-72525840D01*
X140390223Y-72525840D02*
X140485461Y-72573459D01*
X140485461Y-72573459D02*
X140675937Y-72573459D01*
X140675937Y-72573459D02*
X140771175Y-72525840D01*
X139723556Y-72573459D02*
X139818794Y-72525840D01*
X139818794Y-72525840D02*
X139866413Y-72430601D01*
X139866413Y-72430601D02*
X139866413Y-71573459D01*
X139437841Y-71906792D02*
X139199746Y-72573459D01*
X138961651Y-71906792D02*
X139199746Y-72573459D01*
X139199746Y-72573459D02*
X139294984Y-72811554D01*
X139294984Y-72811554D02*
X139342603Y-72859173D01*
X139342603Y-72859173D02*
X139437841Y-72906792D01*
M02*
