M48
; DRILL file {KiCad 9.0.2} date 2025-06-12T21:47:25+0530
; FORMAT={-:-/ absolute / metric / decimal}
; #@! TF.CreationDate,2025-06-12T21:47:25+05:30
; #@! TF.GenerationSoftware,Kicad,Pcbnew,9.0.2
; #@! TF.FileFunction,Plated,1,2,PTH
FMAT,2
METRIC
; #@! TA.AperFunction,Plated,PTH,ViaDrill
T1C0.500
; #@! TA.AperFunction,Plated,PTH,ComponentDrill
T2C0.700
; #@! TA.AperFunction,Plated,PTH,ComponentDrill
T3C0.800
; #@! TA.AperFunction,Plated,PTH,ComponentDrill
T4C0.900
; #@! TA.AperFunction,Plated,PTH,ComponentDrill
T5C1.000
; #@! TA.AperFunction,Plated,PTH,ComponentDrill
T6C1.100
; #@! TA.AperFunction,Plated,PTH,ComponentDrill
T7C1.520
%
G90
G05
T1
X150.266Y-103.632
T2
X149.86Y-81.128
X151.58Y-101.169
X151.62Y-97.79
X157.48Y-81.128
X159.2Y-101.169
X159.24Y-97.79
T3
X138.43Y-70.485
X139.74Y-106.68
X140.93Y-70.485
X142.24Y-106.68
X143.55Y-70.485
X146.05Y-70.485
T4
X151.52Y-75.565
X154.02Y-75.565
X156.52Y-75.565
X156.98Y-87.635
X156.98Y-90.175
T5
X140.335Y-64.135
X141.605Y-112.395
X142.875Y-64.135
X144.145Y-112.395
X145.415Y-64.135
X146.685Y-112.395
X163.705Y-109.928
X163.705Y-112.468
X163.83Y-64.13
X163.83Y-66.67
T6
X139.7Y-76.2
X139.7Y-100.965
X142.24Y-76.2
X142.24Y-100.965
X144.78Y-76.2
X144.78Y-100.965
T7
X152.4Y-66.36
X152.4Y-110.375
X157.48Y-66.36
X157.48Y-110.375
T5
G00X145.13Y-87.9
M15
G01X145.13Y-89.9
M16
G05
G00X147.13Y-93.6
M15
G01X149.13Y-93.6
M16
G05
G00X151.13Y-87.9
M15
G01X151.13Y-89.9
M16
G05
M30
