%TF.GenerationSoftware,KiCad,Pcbnew,9.0.2*%
%TF.CreationDate,2025-06-12T21:47:04+05:30*%
%TF.ProjectId,Breadboard power supply,42726561-6462-46f6-9172-6420706f7765,rev?*%
%TF.SameCoordinates,Original*%
%TF.FileFunction,Copper,L2,Bot*%
%TF.FilePolarity,Positive*%
%FSLAX46Y46*%
G04 Gerber Fmt 4.6, Leading zero omitted, Abs format (unit mm)*
G04 Created by KiCad (PCBNEW 9.0.2) date 2025-06-12 21:47:04*
%MOMM*%
%LPD*%
G01*
G04 APERTURE LIST*
G04 Aperture macros list*
%AMRoundRect*
0 Rectangle with rounded corners*
0 $1 Rounding radius*
0 $2 $3 $4 $5 $6 $7 $8 $9 X,Y pos of 4 corners*
0 Add a 4 corners polygon primitive as box body*
4,1,4,$2,$3,$4,$5,$6,$7,$8,$9,$2,$3,0*
0 Add four circle primitives for the rounded corners*
1,1,$1+$1,$2,$3*
1,1,$1+$1,$4,$5*
1,1,$1+$1,$6,$7*
1,1,$1+$1,$8,$9*
0 Add four rect primitives between the rounded corners*
20,1,$1+$1,$2,$3,$4,$5,0*
20,1,$1+$1,$4,$5,$6,$7,0*
20,1,$1+$1,$6,$7,$8,$9,0*
20,1,$1+$1,$8,$9,$2,$3,0*%
G04 Aperture macros list end*
%TA.AperFunction,ComponentPad*%
%ADD10R,1.700000X1.700000*%
%TD*%
%TA.AperFunction,ComponentPad*%
%ADD11C,1.700000*%
%TD*%
%TA.AperFunction,ComponentPad*%
%ADD12R,1.900000X1.900000*%
%TD*%
%TA.AperFunction,ComponentPad*%
%ADD13C,1.900000*%
%TD*%
%TA.AperFunction,ComponentPad*%
%ADD14R,3.000000X3.000000*%
%TD*%
%TA.AperFunction,ComponentPad*%
%ADD15C,3.000000*%
%TD*%
%TA.AperFunction,ComponentPad*%
%ADD16R,1.905000X2.000000*%
%TD*%
%TA.AperFunction,ComponentPad*%
%ADD17O,1.905000X2.000000*%
%TD*%
%TA.AperFunction,ComponentPad*%
%ADD18C,1.600000*%
%TD*%
%TA.AperFunction,ComponentPad*%
%ADD19C,1.400000*%
%TD*%
%TA.AperFunction,ComponentPad*%
%ADD20R,3.500000X3.500000*%
%TD*%
%TA.AperFunction,ComponentPad*%
%ADD21RoundRect,0.750000X-0.750000X-1.000000X0.750000X-1.000000X0.750000X1.000000X-0.750000X1.000000X0*%
%TD*%
%TA.AperFunction,ComponentPad*%
%ADD22RoundRect,0.875000X-0.875000X-0.875000X0.875000X-0.875000X0.875000X0.875000X-0.875000X0.875000X0*%
%TD*%
%TA.AperFunction,ComponentPad*%
%ADD23R,1.800000X1.800000*%
%TD*%
%TA.AperFunction,ComponentPad*%
%ADD24C,1.800000*%
%TD*%
%TA.AperFunction,ViaPad*%
%ADD25C,0.900000*%
%TD*%
%TA.AperFunction,Conductor*%
%ADD26C,0.350000*%
%TD*%
%TA.AperFunction,Conductor*%
%ADD27C,0.250000*%
%TD*%
G04 APERTURE END LIST*
D10*
%TO.P,J4,1,Pin_1*%
%TO.N,GND*%
X163830000Y-64130000D03*
D11*
%TO.P,J4,2,Pin_2*%
%TO.N,/PWR_OUT_TOP*%
X163830000Y-66670000D03*
%TD*%
D12*
%TO.P,S1,1*%
%TO.N,/12V*%
X156520000Y-75565000D03*
D13*
%TO.P,S1,2*%
%TO.N,/PWR_input*%
X154020000Y-75565000D03*
%TO.P,S1,3*%
%TO.N,unconnected-(S1-Pad3)*%
X151520000Y-75565000D03*
%TD*%
D14*
%TO.P,J5,1,Pin_1*%
%TO.N,GND*%
X152400000Y-110374549D03*
D15*
%TO.P,J5,2,Pin_2*%
%TO.N,/PWR_OUT_BOT*%
X157480000Y-110374549D03*
%TD*%
D16*
%TO.P,U2,1,VI*%
%TO.N,/12V*%
X144780000Y-76200000D03*
D17*
%TO.P,U2,2,GND*%
%TO.N,GND*%
X142240000Y-76200000D03*
%TO.P,U2,3,VO*%
%TO.N,/5V*%
X139700000Y-76200000D03*
%TD*%
D18*
%TO.P,C2,1*%
%TO.N,/3.3V*%
X142240000Y-106680000D03*
%TO.P,C2,2*%
%TO.N,GND*%
X139740000Y-106680000D03*
%TD*%
%TO.P,C1,1*%
%TO.N,/12V*%
X146050000Y-70485000D03*
%TO.P,C1,2*%
%TO.N,GND*%
X143550000Y-70485000D03*
%TD*%
D19*
%TO.P,R2,1*%
%TO.N,Net-(U1-ADJ)*%
X159199554Y-101169151D03*
%TO.P,R2,2*%
%TO.N,/3.3V*%
X151579554Y-101169151D03*
%TD*%
D20*
%TO.P,J1,1*%
%TO.N,/PWR_input*%
X151130000Y-88900000D03*
D21*
%TO.P,J1,2*%
%TO.N,GND*%
X145130000Y-88900000D03*
D22*
%TO.P,J1,3*%
X148130000Y-93600000D03*
%TD*%
D10*
%TO.P,J3,1,Pin_1*%
%TO.N,/3.3V*%
X140335000Y-64135000D03*
D11*
%TO.P,J3,2,Pin_2*%
%TO.N,/PWR_OUT_TOP*%
X142875000Y-64135000D03*
%TO.P,J3,3,Pin_3*%
%TO.N,/5V*%
X145415000Y-64135000D03*
%TD*%
D10*
%TO.P,J7,1,Pin_1*%
%TO.N,/3.3V*%
X141605000Y-112395000D03*
D11*
%TO.P,J7,2,Pin_2*%
%TO.N,/PWR_OUT_BOT*%
X144145000Y-112395000D03*
%TO.P,J7,3,Pin_3*%
%TO.N,/5V*%
X146685000Y-112395000D03*
%TD*%
D19*
%TO.P,R1,1*%
%TO.N,Net-(D1-A)*%
X149860000Y-81127600D03*
%TO.P,R1,2*%
%TO.N,/12V*%
X157480000Y-81127600D03*
%TD*%
D10*
%TO.P,J6,1,Pin_1*%
%TO.N,GND*%
X163705223Y-109928182D03*
D11*
%TO.P,J6,2,Pin_2*%
%TO.N,/PWR_OUT_BOT*%
X163705223Y-112468182D03*
%TD*%
D19*
%TO.P,R3,1*%
%TO.N,GND*%
X151620000Y-97790000D03*
%TO.P,R3,2*%
%TO.N,Net-(U1-ADJ)*%
X159240000Y-97790000D03*
%TD*%
D23*
%TO.P,D1,1,K*%
%TO.N,GND*%
X156980000Y-90175000D03*
D24*
%TO.P,D1,2,A*%
%TO.N,Net-(D1-A)*%
X156980000Y-87635000D03*
%TD*%
D14*
%TO.P,J2,1,Pin_1*%
%TO.N,GND*%
X152400000Y-66360000D03*
D15*
%TO.P,J2,2,Pin_2*%
%TO.N,/PWR_OUT_TOP*%
X157480000Y-66360000D03*
%TD*%
D18*
%TO.P,C3,1*%
%TO.N,/5V*%
X140930000Y-70485000D03*
%TO.P,C3,2*%
%TO.N,GND*%
X138430000Y-70485000D03*
%TD*%
D16*
%TO.P,U1,1,ADJ*%
%TO.N,Net-(U1-ADJ)*%
X139700000Y-100965000D03*
D17*
%TO.P,U1,2,VO*%
%TO.N,/3.3V*%
X142240000Y-100965000D03*
%TO.P,U1,3,VI*%
%TO.N,/12V*%
X144780000Y-100965000D03*
%TD*%
D25*
%TO.N,/3.3V*%
X150266400Y-103632000D03*
%TD*%
D26*
%TO.N,/12V*%
X153619200Y-81127600D02*
X150418800Y-84328000D01*
X150418800Y-84328000D02*
X143205200Y-84328000D01*
X157480000Y-81127600D02*
X153619200Y-81127600D01*
X141274800Y-97459800D02*
X144780000Y-100965000D01*
X141274800Y-86258400D02*
X141274800Y-97459800D01*
X143205200Y-84328000D02*
X141274800Y-86258400D01*
%TO.N,/3.3V*%
X144907000Y-103632000D02*
X142240000Y-100965000D01*
X150266400Y-103632000D02*
X144907000Y-103632000D01*
D27*
%TO.N,Net-(U1-ADJ)*%
X159199554Y-101169151D02*
X155771505Y-104597200D01*
X140157200Y-104597200D02*
X140157200Y-104546400D01*
X140157200Y-104546400D02*
X139700000Y-104089200D01*
X139700000Y-104089200D02*
X139700000Y-100965000D01*
X155771505Y-104597200D02*
X140157200Y-104597200D01*
%TD*%
%TA.AperFunction,Conductor*%
%TO.N,GND*%
G36*
X165176992Y-62475597D02*
G01*
X165181972Y-62476144D01*
X165181979Y-62476146D01*
X165237963Y-62474948D01*
X165257646Y-62476095D01*
X165294880Y-62481260D01*
X165332473Y-62492767D01*
X165357223Y-62504915D01*
X165389321Y-62527613D01*
X165409019Y-62546894D01*
X165432404Y-62578508D01*
X165445074Y-62602986D01*
X165457383Y-62640327D01*
X165463225Y-62676710D01*
X165464792Y-62696764D01*
X165446908Y-68308763D01*
X165427010Y-68375740D01*
X165374061Y-68421326D01*
X165322933Y-68432368D01*
X161291171Y-68433149D01*
X161188261Y-68433149D01*
X160987882Y-68468481D01*
X160796683Y-68538072D01*
X160796676Y-68538075D01*
X160620469Y-68639809D01*
X160620466Y-68639811D01*
X160464598Y-68770598D01*
X160333811Y-68926466D01*
X160333809Y-68926469D01*
X160232075Y-69102676D01*
X160232072Y-69102683D01*
X160162481Y-69293882D01*
X160127149Y-69494261D01*
X160127149Y-96707288D01*
X160107464Y-96774327D01*
X160054660Y-96820082D01*
X159985502Y-96830026D01*
X159930263Y-96807606D01*
X159869199Y-96763240D01*
X159700836Y-96677454D01*
X159521118Y-96619059D01*
X159334486Y-96589500D01*
X159334481Y-96589500D01*
X159145519Y-96589500D01*
X159145514Y-96589500D01*
X158958881Y-96619059D01*
X158779163Y-96677454D01*
X158610800Y-96763240D01*
X158532565Y-96820082D01*
X158457927Y-96874310D01*
X158457925Y-96874312D01*
X158457924Y-96874312D01*
X158324312Y-97007924D01*
X158324312Y-97007925D01*
X158324310Y-97007927D01*
X158276610Y-97073579D01*
X158213240Y-97160800D01*
X158127454Y-97329163D01*
X158069059Y-97508881D01*
X158039500Y-97695513D01*
X158039500Y-97884486D01*
X158069059Y-98071118D01*
X158127454Y-98250836D01*
X158183519Y-98360868D01*
X158213240Y-98419199D01*
X158324310Y-98572073D01*
X158457927Y-98705690D01*
X158610801Y-98816760D01*
X158647461Y-98835439D01*
X158779163Y-98902545D01*
X158779165Y-98902545D01*
X158779168Y-98902547D01*
X158831344Y-98919500D01*
X158958881Y-98960940D01*
X159145514Y-98990500D01*
X159145519Y-98990500D01*
X159334486Y-98990500D01*
X159521118Y-98960940D01*
X159532865Y-98957123D01*
X159700832Y-98902547D01*
X159869199Y-98816760D01*
X159930264Y-98772393D01*
X159996068Y-98748913D01*
X160064122Y-98764738D01*
X160112818Y-98814843D01*
X160127149Y-98872711D01*
X160127149Y-100115825D01*
X160107464Y-100182864D01*
X160054660Y-100228619D01*
X159985502Y-100238563D01*
X159930263Y-100216143D01*
X159828753Y-100142391D01*
X159660390Y-100056605D01*
X159480672Y-99998210D01*
X159294040Y-99968651D01*
X159294035Y-99968651D01*
X159105073Y-99968651D01*
X159105068Y-99968651D01*
X158918435Y-99998210D01*
X158738717Y-100056605D01*
X158570354Y-100142391D01*
X158514649Y-100182864D01*
X158417481Y-100253461D01*
X158417479Y-100253463D01*
X158417478Y-100253463D01*
X158283866Y-100387075D01*
X158283866Y-100387076D01*
X158283864Y-100387078D01*
X158273177Y-100401788D01*
X158172794Y-100539951D01*
X158087008Y-100708314D01*
X158028613Y-100888032D01*
X157999054Y-101074664D01*
X157999054Y-101263637D01*
X158019445Y-101392380D01*
X158010490Y-101461673D01*
X157984653Y-101499459D01*
X155548734Y-103935381D01*
X155487411Y-103968866D01*
X155461053Y-103971700D01*
X151319046Y-103971700D01*
X151252007Y-103952015D01*
X151206252Y-103899211D01*
X151196308Y-103830053D01*
X151197428Y-103823510D01*
X151216900Y-103725614D01*
X151216900Y-103538383D01*
X151216899Y-103538379D01*
X151180374Y-103354756D01*
X151180373Y-103354749D01*
X151108722Y-103181769D01*
X151108721Y-103181768D01*
X151108718Y-103181762D01*
X151004702Y-103026092D01*
X151004699Y-103026088D01*
X150872311Y-102893700D01*
X150872307Y-102893697D01*
X150716637Y-102789681D01*
X150716628Y-102789676D01*
X150543651Y-102718027D01*
X150543643Y-102718025D01*
X150360020Y-102681500D01*
X150360016Y-102681500D01*
X150172784Y-102681500D01*
X150172779Y-102681500D01*
X149989156Y-102718025D01*
X149989148Y-102718027D01*
X149816171Y-102789676D01*
X149816162Y-102789681D01*
X149660492Y-102893697D01*
X149660488Y-102893700D01*
X149634008Y-102920181D01*
X149572685Y-102953666D01*
X149546327Y-102956500D01*
X145238163Y-102956500D01*
X145171124Y-102936815D01*
X145150482Y-102920181D01*
X144895032Y-102664731D01*
X144861547Y-102603408D01*
X144866531Y-102533716D01*
X144908403Y-102477783D01*
X144963312Y-102454577D01*
X145120245Y-102429722D01*
X145120248Y-102429721D01*
X145120249Y-102429721D01*
X145337755Y-102359049D01*
X145337755Y-102359048D01*
X145337758Y-102359048D01*
X145541538Y-102255217D01*
X145726566Y-102120786D01*
X145888286Y-101959066D01*
X146022717Y-101774038D01*
X146047777Y-101724854D01*
X147125676Y-101724854D01*
X147879757Y-101724854D01*
X148877757Y-101724854D01*
X149449023Y-101724854D01*
X149443981Y-101706975D01*
X149442751Y-101702257D01*
X149433603Y-101664138D01*
X149432561Y-101659388D01*
X149426821Y-101630526D01*
X149425966Y-101625737D01*
X149390273Y-101400386D01*
X149389605Y-101395556D01*
X149386142Y-101366284D01*
X149385665Y-101361440D01*
X149382591Y-101322360D01*
X149382304Y-101317501D01*
X149381149Y-101288087D01*
X149381054Y-101283222D01*
X149381054Y-101074664D01*
X150379054Y-101074664D01*
X150379054Y-101263637D01*
X150408613Y-101450269D01*
X150467008Y-101629987D01*
X150503832Y-101702257D01*
X150552794Y-101798350D01*
X150663864Y-101951224D01*
X150797481Y-102084841D01*
X150950355Y-102195911D01*
X151002492Y-102222476D01*
X151118717Y-102281696D01*
X151118719Y-102281696D01*
X151118722Y-102281698D01*
X151215051Y-102312997D01*
X151298435Y-102340091D01*
X151485068Y-102369651D01*
X151485073Y-102369651D01*
X151674040Y-102369651D01*
X151860672Y-102340091D01*
X151864621Y-102338808D01*
X152040386Y-102281698D01*
X152208753Y-102195911D01*
X152361627Y-102084841D01*
X152495244Y-101951224D01*
X152606314Y-101798350D01*
X152643762Y-101724854D01*
X153877757Y-101724854D01*
X155379757Y-101724854D01*
X155379757Y-101694971D01*
X156377757Y-101694971D01*
X157001054Y-101071674D01*
X157001054Y-101055080D01*
X157001149Y-101050215D01*
X157002304Y-101020801D01*
X157002591Y-101015942D01*
X157005665Y-100976862D01*
X157006142Y-100972018D01*
X157009605Y-100942746D01*
X157010273Y-100937916D01*
X157045966Y-100712565D01*
X157046821Y-100707776D01*
X157052561Y-100678914D01*
X157053603Y-100674164D01*
X157062751Y-100636045D01*
X157063981Y-100631327D01*
X157071984Y-100602947D01*
X157073399Y-100598283D01*
X157143907Y-100381287D01*
X157145501Y-100376692D01*
X157155685Y-100349084D01*
X157157457Y-100344554D01*
X157172455Y-100308338D01*
X157174410Y-100303870D01*
X157186753Y-100277095D01*
X157188878Y-100272713D01*
X157214282Y-100222854D01*
X156377757Y-100222854D01*
X156377757Y-101694971D01*
X155379757Y-101694971D01*
X155379757Y-100222854D01*
X153877757Y-100222854D01*
X153877757Y-101724854D01*
X152643762Y-101724854D01*
X152692101Y-101629983D01*
X152750494Y-101450269D01*
X152764563Y-101361440D01*
X152780054Y-101263637D01*
X152780054Y-101074664D01*
X152750494Y-100888032D01*
X152703807Y-100744347D01*
X152692101Y-100708319D01*
X152692099Y-100708316D01*
X152692099Y-100708314D01*
X152625321Y-100577255D01*
X152606314Y-100539952D01*
X152495244Y-100387078D01*
X152361627Y-100253461D01*
X152208753Y-100142391D01*
X152040390Y-100056605D01*
X151860672Y-99998210D01*
X151674040Y-99968651D01*
X151674035Y-99968651D01*
X151485073Y-99968651D01*
X151485068Y-99968651D01*
X151298435Y-99998210D01*
X151118717Y-100056605D01*
X150950354Y-100142391D01*
X150894649Y-100182864D01*
X150797481Y-100253461D01*
X150797479Y-100253463D01*
X150797478Y-100253463D01*
X150663866Y-100387075D01*
X150663866Y-100387076D01*
X150663864Y-100387078D01*
X150653177Y-100401788D01*
X150552794Y-100539951D01*
X150467008Y-100708314D01*
X150408613Y-100888032D01*
X150379054Y-101074664D01*
X149381054Y-101074664D01*
X149381054Y-101055080D01*
X149381149Y-101050215D01*
X149382304Y-101020801D01*
X149382591Y-101015942D01*
X149385665Y-100976862D01*
X149386142Y-100972018D01*
X149389605Y-100942746D01*
X149390273Y-100937916D01*
X149425966Y-100712565D01*
X149426821Y-100707776D01*
X149432561Y-100678914D01*
X149433603Y-100674164D01*
X149442751Y-100636045D01*
X149443981Y-100631327D01*
X149451984Y-100602947D01*
X149453399Y-100598283D01*
X149523907Y-100381287D01*
X149525501Y-100376692D01*
X149535685Y-100349084D01*
X149537457Y-100344554D01*
X149552455Y-100308338D01*
X149554410Y-100303870D01*
X149566753Y-100277095D01*
X149568878Y-100272713D01*
X149594282Y-100222854D01*
X148877757Y-100222854D01*
X148877757Y-101724854D01*
X147879757Y-101724854D01*
X147879757Y-100222854D01*
X147131430Y-100222854D01*
X147152438Y-100287510D01*
X147153853Y-100292174D01*
X147161855Y-100320551D01*
X147163085Y-100325268D01*
X147172233Y-100363386D01*
X147173275Y-100368137D01*
X147179015Y-100397000D01*
X147179870Y-100401788D01*
X147221777Y-100666373D01*
X147222445Y-100671197D01*
X147225905Y-100700431D01*
X147226381Y-100705268D01*
X147229459Y-100744347D01*
X147229746Y-100749212D01*
X147230904Y-100778664D01*
X147231000Y-100783536D01*
X147231000Y-101146464D01*
X147230904Y-101151336D01*
X147229746Y-101180788D01*
X147229459Y-101185653D01*
X147226381Y-101224732D01*
X147225905Y-101229569D01*
X147222445Y-101258803D01*
X147221777Y-101263627D01*
X147179870Y-101528212D01*
X147179015Y-101533000D01*
X147173275Y-101561863D01*
X147172233Y-101566614D01*
X147163085Y-101604732D01*
X147161855Y-101609449D01*
X147153853Y-101637826D01*
X147152438Y-101642490D01*
X147125676Y-101724854D01*
X146047777Y-101724854D01*
X146126548Y-101570258D01*
X146197222Y-101352745D01*
X146233000Y-101126854D01*
X146233000Y-100803146D01*
X146197222Y-100577255D01*
X146197221Y-100577251D01*
X146197221Y-100577250D01*
X146126549Y-100359744D01*
X146084437Y-100277095D01*
X146022717Y-100155962D01*
X145888286Y-99970934D01*
X145726566Y-99809214D01*
X145541538Y-99674783D01*
X145337755Y-99570950D01*
X145120248Y-99500278D01*
X144934812Y-99470908D01*
X144894354Y-99464500D01*
X144665646Y-99464500D01*
X144634760Y-99469391D01*
X144439755Y-99500277D01*
X144384332Y-99518285D01*
X144314491Y-99520279D01*
X144258335Y-99488034D01*
X143823228Y-99052927D01*
X146377757Y-99052927D01*
X146389623Y-99063062D01*
X146393263Y-99066297D01*
X146414891Y-99086290D01*
X146418400Y-99089664D01*
X146553590Y-99224854D01*
X147879757Y-99224854D01*
X148877757Y-99224854D01*
X149951403Y-99224854D01*
X153877757Y-99224854D01*
X155379757Y-99224854D01*
X156377757Y-99224854D01*
X157569381Y-99224854D01*
X157552700Y-99205323D01*
X157549612Y-99201560D01*
X157531375Y-99178427D01*
X157528435Y-99174544D01*
X157394320Y-98989953D01*
X157391534Y-98985955D01*
X157375166Y-98961457D01*
X157372542Y-98957358D01*
X157352060Y-98923934D01*
X157349599Y-98919736D01*
X157335208Y-98894040D01*
X157332912Y-98889743D01*
X157229324Y-98686438D01*
X157227199Y-98682056D01*
X157214856Y-98655281D01*
X157212901Y-98650813D01*
X157197903Y-98614597D01*
X157196131Y-98610067D01*
X157185947Y-98582459D01*
X157184353Y-98577864D01*
X157113845Y-98360868D01*
X157112430Y-98356204D01*
X157104427Y-98327824D01*
X157103197Y-98323106D01*
X157094049Y-98284987D01*
X157093007Y-98280237D01*
X157087267Y-98251375D01*
X157086412Y-98246586D01*
X157050719Y-98021235D01*
X157050051Y-98016405D01*
X157046588Y-97987133D01*
X157046111Y-97982289D01*
X157043037Y-97943209D01*
X157042750Y-97938350D01*
X157041595Y-97908936D01*
X157041500Y-97904071D01*
X157041500Y-97722854D01*
X156377757Y-97722854D01*
X156377757Y-99224854D01*
X155379757Y-99224854D01*
X155379757Y-97722854D01*
X153877757Y-97722854D01*
X153877757Y-99224854D01*
X149951403Y-99224854D01*
X149935035Y-99210309D01*
X149774750Y-98989692D01*
X149771969Y-98985701D01*
X149755613Y-98961224D01*
X149752988Y-98957123D01*
X149732506Y-98923702D01*
X149730043Y-98919500D01*
X149715643Y-98893788D01*
X149713347Y-98889493D01*
X149666668Y-98797882D01*
X150965669Y-98797882D01*
X150965670Y-98797883D01*
X150991059Y-98816329D01*
X151159362Y-98902085D01*
X151338997Y-98960451D01*
X151525553Y-98990000D01*
X151714447Y-98990000D01*
X151901002Y-98960451D01*
X152080637Y-98902085D01*
X152248937Y-98816331D01*
X152274328Y-98797883D01*
X152274328Y-98797882D01*
X151620001Y-98143554D01*
X151620000Y-98143554D01*
X150965669Y-98797882D01*
X149666668Y-98797882D01*
X149609796Y-98686266D01*
X149607670Y-98681883D01*
X149595341Y-98655139D01*
X149593391Y-98650681D01*
X149578389Y-98614465D01*
X149576614Y-98609929D01*
X149566415Y-98582284D01*
X149564819Y-98577683D01*
X149494333Y-98360748D01*
X149492919Y-98356086D01*
X149484919Y-98327718D01*
X149483688Y-98323001D01*
X149474540Y-98284886D01*
X149473498Y-98280135D01*
X149467756Y-98251264D01*
X149466901Y-98246475D01*
X149431219Y-98021198D01*
X149430551Y-98016367D01*
X149427088Y-97987095D01*
X149426611Y-97982250D01*
X149423537Y-97943169D01*
X149423250Y-97938311D01*
X149422095Y-97908897D01*
X149422000Y-97904032D01*
X149422000Y-97722854D01*
X148877757Y-97722854D01*
X148877757Y-99224854D01*
X147879757Y-99224854D01*
X147879757Y-97722854D01*
X146377757Y-97722854D01*
X146377757Y-99052927D01*
X143823228Y-99052927D01*
X142493155Y-97722854D01*
X143904539Y-97722854D01*
X144648185Y-98466500D01*
X144913964Y-98466500D01*
X144918836Y-98466596D01*
X144948288Y-98467754D01*
X144953153Y-98468041D01*
X144992232Y-98471119D01*
X144997069Y-98471595D01*
X145026303Y-98475055D01*
X145031127Y-98475723D01*
X145295712Y-98517630D01*
X145300500Y-98518485D01*
X145329363Y-98524225D01*
X145334114Y-98525267D01*
X145372232Y-98534415D01*
X145376949Y-98535645D01*
X145379757Y-98536436D01*
X145379757Y-97722854D01*
X143904539Y-97722854D01*
X142493155Y-97722854D01*
X142465853Y-97695552D01*
X150420000Y-97695552D01*
X150420000Y-97884447D01*
X150449548Y-98071002D01*
X150507914Y-98250637D01*
X150593666Y-98418933D01*
X150612116Y-98444328D01*
X151266446Y-97790000D01*
X151266446Y-97789999D01*
X151220369Y-97743922D01*
X151270000Y-97743922D01*
X151270000Y-97836078D01*
X151293852Y-97925095D01*
X151339930Y-98004905D01*
X151405095Y-98070070D01*
X151484905Y-98116148D01*
X151573922Y-98140000D01*
X151666078Y-98140000D01*
X151755095Y-98116148D01*
X151834905Y-98070070D01*
X151900070Y-98004905D01*
X151946148Y-97925095D01*
X151970000Y-97836078D01*
X151970000Y-97789999D01*
X151973554Y-97789999D01*
X151973554Y-97790000D01*
X152627882Y-98444328D01*
X152627883Y-98444328D01*
X152646331Y-98418937D01*
X152732085Y-98250637D01*
X152790451Y-98071002D01*
X152820000Y-97884447D01*
X152820000Y-97695552D01*
X152790451Y-97508997D01*
X152732085Y-97329362D01*
X152646329Y-97161059D01*
X152627883Y-97135670D01*
X152627882Y-97135669D01*
X151973554Y-97789999D01*
X151970000Y-97789999D01*
X151970000Y-97743922D01*
X151946148Y-97654905D01*
X151900070Y-97575095D01*
X151834905Y-97509930D01*
X151755095Y-97463852D01*
X151666078Y-97440000D01*
X151573922Y-97440000D01*
X151484905Y-97463852D01*
X151405095Y-97509930D01*
X151339930Y-97575095D01*
X151293852Y-97654905D01*
X151270000Y-97743922D01*
X151220369Y-97743922D01*
X150612116Y-97135669D01*
X150612116Y-97135670D01*
X150593669Y-97161060D01*
X150507914Y-97329362D01*
X150449548Y-97508997D01*
X150420000Y-97695552D01*
X142465853Y-97695552D01*
X141986619Y-97216318D01*
X141953134Y-97154995D01*
X141950300Y-97128637D01*
X141950300Y-96782116D01*
X150965669Y-96782116D01*
X151620000Y-97436446D01*
X151620001Y-97436446D01*
X152274328Y-96782116D01*
X152248933Y-96763666D01*
X152172761Y-96724854D01*
X153877757Y-96724854D01*
X155379757Y-96724854D01*
X156377757Y-96724854D01*
X157315284Y-96724854D01*
X157332912Y-96690257D01*
X157335208Y-96685960D01*
X157349599Y-96660264D01*
X157352060Y-96656066D01*
X157372542Y-96622642D01*
X157375166Y-96618543D01*
X157391534Y-96594045D01*
X157394320Y-96590047D01*
X157528435Y-96405456D01*
X157531375Y-96401573D01*
X157549612Y-96378440D01*
X157552700Y-96374677D01*
X157578158Y-96344870D01*
X157581393Y-96341230D01*
X157601386Y-96319602D01*
X157604760Y-96316093D01*
X157766093Y-96154760D01*
X157769602Y-96151386D01*
X157791230Y-96131393D01*
X157794870Y-96128158D01*
X157824677Y-96102700D01*
X157828440Y-96099612D01*
X157851573Y-96081375D01*
X157855456Y-96078435D01*
X157879757Y-96060779D01*
X157879757Y-95222854D01*
X156377757Y-95222854D01*
X156377757Y-96724854D01*
X155379757Y-96724854D01*
X155379757Y-95222854D01*
X153877757Y-95222854D01*
X153877757Y-96724854D01*
X152172761Y-96724854D01*
X152080637Y-96677914D01*
X151901002Y-96619548D01*
X151714447Y-96590000D01*
X151525553Y-96590000D01*
X151338997Y-96619548D01*
X151159362Y-96677914D01*
X150991060Y-96763669D01*
X150965670Y-96782116D01*
X150965669Y-96782116D01*
X141950300Y-96782116D01*
X141950300Y-96724854D01*
X143877757Y-96724854D01*
X145379757Y-96724854D01*
X145379757Y-95932241D01*
X145351682Y-95898943D01*
X145348375Y-95894847D01*
X145328897Y-95869648D01*
X145325765Y-95865414D01*
X145301294Y-95830813D01*
X145298349Y-95826455D01*
X145281083Y-95799703D01*
X145278322Y-95795219D01*
X145138414Y-95556802D01*
X145135848Y-95552208D01*
X145120912Y-95524086D01*
X145118542Y-95519386D01*
X145100269Y-95481147D01*
X145098099Y-95476348D01*
X145085600Y-95447055D01*
X145083638Y-95442172D01*
X145000871Y-95222854D01*
X143877757Y-95222854D01*
X143877757Y-96724854D01*
X141950300Y-96724854D01*
X141950300Y-94224854D01*
X143877757Y-94224854D01*
X144882001Y-94224854D01*
X144882001Y-93649454D01*
X144891440Y-93602001D01*
X144892268Y-93600001D01*
X144891439Y-93597999D01*
X144882000Y-93550546D01*
X144882000Y-92722854D01*
X143877757Y-92722854D01*
X143877757Y-94224854D01*
X141950300Y-94224854D01*
X141950300Y-92631421D01*
X145880000Y-92631421D01*
X145880000Y-93350000D01*
X146696988Y-93350000D01*
X146664075Y-93407007D01*
X146630000Y-93534174D01*
X146630000Y-93665826D01*
X146664075Y-93792993D01*
X146696988Y-93850000D01*
X145880001Y-93850000D01*
X145880001Y-94568588D01*
X145882794Y-94621191D01*
X145927237Y-94850987D01*
X146009879Y-95069975D01*
X146128339Y-95271841D01*
X146128344Y-95271848D01*
X146279211Y-95450786D01*
X146279213Y-95450788D01*
X146458151Y-95601655D01*
X146458158Y-95601660D01*
X146660024Y-95720120D01*
X146879012Y-95802762D01*
X147108809Y-95847205D01*
X147161382Y-95849998D01*
X147161421Y-95849999D01*
X147879999Y-95849999D01*
X147880000Y-95849998D01*
X147880000Y-94100000D01*
X148380000Y-94100000D01*
X148380000Y-95849999D01*
X149098576Y-95849999D01*
X149098588Y-95849998D01*
X149151191Y-95847205D01*
X149380987Y-95802762D01*
X149599975Y-95720120D01*
X149799612Y-95602968D01*
X151377757Y-95602968D01*
X151388803Y-95601219D01*
X151393633Y-95600551D01*
X151422905Y-95597088D01*
X151427750Y-95596611D01*
X151466831Y-95593537D01*
X151471689Y-95593250D01*
X151501103Y-95592095D01*
X151505968Y-95592000D01*
X151734032Y-95592000D01*
X151738897Y-95592095D01*
X151768311Y-95593250D01*
X151773169Y-95593537D01*
X151812250Y-95596611D01*
X151817095Y-95597088D01*
X151846367Y-95600551D01*
X151851198Y-95601219D01*
X152076475Y-95636901D01*
X152081264Y-95637756D01*
X152110135Y-95643498D01*
X152114886Y-95644540D01*
X152153001Y-95653688D01*
X152157718Y-95654919D01*
X152186086Y-95662919D01*
X152190748Y-95664333D01*
X152407683Y-95734819D01*
X152412284Y-95736415D01*
X152439929Y-95746614D01*
X152444465Y-95748389D01*
X152480681Y-95763391D01*
X152485139Y-95765341D01*
X152511883Y-95777670D01*
X152516266Y-95779796D01*
X152719493Y-95883347D01*
X152723788Y-95885643D01*
X152749500Y-95900043D01*
X152753702Y-95902506D01*
X152787123Y-95922988D01*
X152791224Y-95925613D01*
X152815701Y-95941969D01*
X152819692Y-95944750D01*
X152879757Y-95988389D01*
X152879757Y-95222854D01*
X151377757Y-95222854D01*
X151377757Y-95602968D01*
X149799612Y-95602968D01*
X149801841Y-95601660D01*
X149801848Y-95601655D01*
X149980786Y-95450788D01*
X149980788Y-95450786D01*
X150131655Y-95271848D01*
X150131660Y-95271841D01*
X150250120Y-95069975D01*
X150332762Y-94850987D01*
X150377205Y-94621191D01*
X150377205Y-94621190D01*
X150379998Y-94568617D01*
X150380000Y-94568578D01*
X150380000Y-93850000D01*
X149563012Y-93850000D01*
X149595925Y-93792993D01*
X149630000Y-93665826D01*
X149630000Y-93551762D01*
X151377757Y-93551762D01*
X151377757Y-93648231D01*
X151378000Y-93649454D01*
X151378000Y-94224854D01*
X152879757Y-94224854D01*
X153877757Y-94224854D01*
X155379757Y-94224854D01*
X156377757Y-94224854D01*
X157879757Y-94224854D01*
X157879757Y-92722854D01*
X156377757Y-92722854D01*
X156377757Y-94224854D01*
X155379757Y-94224854D01*
X155379757Y-92722854D01*
X153877757Y-92722854D01*
X153877757Y-94224854D01*
X152879757Y-94224854D01*
X152879757Y-92722854D01*
X151377999Y-92722854D01*
X151377999Y-93550546D01*
X151377757Y-93551762D01*
X149630000Y-93551762D01*
X149630000Y-93534174D01*
X149595925Y-93407007D01*
X149563012Y-93350000D01*
X150379999Y-93350000D01*
X150379999Y-92631423D01*
X150379998Y-92631411D01*
X150377205Y-92578808D01*
X150332762Y-92349012D01*
X150250120Y-92130024D01*
X150131660Y-91928158D01*
X150131655Y-91928151D01*
X149980788Y-91749213D01*
X149980786Y-91749211D01*
X149951897Y-91724854D01*
X153931623Y-91724854D01*
X154725372Y-91724854D01*
X154717419Y-91707441D01*
X154714030Y-91699261D01*
X154640421Y-91501904D01*
X154637942Y-91494564D01*
X154624332Y-91449695D01*
X154622315Y-91442212D01*
X154607972Y-91381501D01*
X154606428Y-91373916D01*
X154598522Y-91327738D01*
X154597455Y-91320069D01*
X154586289Y-91216217D01*
X154585977Y-91212905D01*
X154584364Y-91192856D01*
X154584142Y-91189542D01*
X154582713Y-91162855D01*
X154582580Y-91159539D01*
X154582044Y-91139491D01*
X154582000Y-91136177D01*
X154582000Y-90224454D01*
X154582318Y-90222854D01*
X154378500Y-90222854D01*
X154378500Y-90711248D01*
X154378455Y-90714572D01*
X154377916Y-90734674D01*
X154377783Y-90737994D01*
X154376351Y-90764680D01*
X154376129Y-90767989D01*
X154374519Y-90787982D01*
X154374208Y-90791285D01*
X154363038Y-90895175D01*
X154361971Y-90902843D01*
X154354064Y-90949029D01*
X154352519Y-90956619D01*
X154338174Y-91017330D01*
X154336158Y-91024809D01*
X154322550Y-91069672D01*
X154320071Y-91077012D01*
X154246413Y-91274502D01*
X154243025Y-91282682D01*
X154220767Y-91331419D01*
X154216805Y-91339333D01*
X154182628Y-91401923D01*
X154178110Y-91409537D01*
X154149146Y-91454604D01*
X154144098Y-91461874D01*
X154015114Y-91634173D01*
X154009561Y-91641064D01*
X153974481Y-91681549D01*
X153968449Y-91688028D01*
X153931623Y-91724854D01*
X149951897Y-91724854D01*
X149801848Y-91598344D01*
X149801841Y-91598339D01*
X149599975Y-91479879D01*
X149380984Y-91397236D01*
X149375840Y-91396241D01*
X149313760Y-91364180D01*
X149278869Y-91303646D01*
X149282244Y-91233858D01*
X149322814Y-91176973D01*
X149387697Y-91151052D01*
X149399374Y-91150499D01*
X152927872Y-91150499D01*
X152987483Y-91144091D01*
X153122331Y-91093796D01*
X153237546Y-91007546D01*
X153323796Y-90892331D01*
X153374091Y-90757483D01*
X153380500Y-90697873D01*
X153380499Y-87524778D01*
X155579500Y-87524778D01*
X155579500Y-87745221D01*
X155613985Y-87962952D01*
X155682103Y-88172603D01*
X155682104Y-88172606D01*
X155782187Y-88369025D01*
X155911752Y-88547358D01*
X155911756Y-88547363D01*
X155962316Y-88597923D01*
X155995801Y-88659246D01*
X155990817Y-88728938D01*
X155948945Y-88784871D01*
X155917969Y-88801785D01*
X155837918Y-88831643D01*
X155837906Y-88831649D01*
X155722812Y-88917809D01*
X155722809Y-88917812D01*
X155636649Y-89032906D01*
X155636645Y-89032913D01*
X155586403Y-89167620D01*
X155586401Y-89167627D01*
X155580000Y-89227155D01*
X155580000Y-89925000D01*
X156604722Y-89925000D01*
X156560667Y-90001306D01*
X156530000Y-90115756D01*
X156530000Y-90234244D01*
X156560667Y-90348694D01*
X156604722Y-90425000D01*
X155580000Y-90425000D01*
X155580000Y-91122844D01*
X155586401Y-91182372D01*
X155586403Y-91182379D01*
X155636645Y-91317086D01*
X155636649Y-91317093D01*
X155722809Y-91432187D01*
X155722812Y-91432190D01*
X155837906Y-91518350D01*
X155837913Y-91518354D01*
X155972620Y-91568596D01*
X155972627Y-91568598D01*
X156032155Y-91574999D01*
X156032172Y-91575000D01*
X156730000Y-91575000D01*
X156730000Y-90550277D01*
X156806306Y-90594333D01*
X156920756Y-90625000D01*
X157039244Y-90625000D01*
X157153694Y-90594333D01*
X157230000Y-90550277D01*
X157230000Y-91575000D01*
X157927828Y-91575000D01*
X157927844Y-91574999D01*
X157987372Y-91568598D01*
X157987379Y-91568596D01*
X158122086Y-91518354D01*
X158122093Y-91518350D01*
X158237187Y-91432190D01*
X158237190Y-91432187D01*
X158323350Y-91317093D01*
X158323354Y-91317086D01*
X158373596Y-91182379D01*
X158373598Y-91182372D01*
X158379999Y-91122844D01*
X158380000Y-91122827D01*
X158380000Y-90425000D01*
X157355278Y-90425000D01*
X157399333Y-90348694D01*
X157430000Y-90234244D01*
X157430000Y-90115756D01*
X157399333Y-90001306D01*
X157355278Y-89925000D01*
X158380000Y-89925000D01*
X158380000Y-89227172D01*
X158379999Y-89227155D01*
X158373598Y-89167627D01*
X158373596Y-89167620D01*
X158323354Y-89032913D01*
X158323350Y-89032906D01*
X158237190Y-88917812D01*
X158237187Y-88917809D01*
X158122093Y-88831649D01*
X158122087Y-88831646D01*
X158042030Y-88801786D01*
X157986097Y-88759914D01*
X157961680Y-88694450D01*
X157976532Y-88626177D01*
X157997681Y-88597925D01*
X158048242Y-88547365D01*
X158177815Y-88369022D01*
X158277895Y-88172606D01*
X158346015Y-87962951D01*
X158380500Y-87745222D01*
X158380500Y-87524778D01*
X158346015Y-87307049D01*
X158311955Y-87202221D01*
X158277896Y-87097396D01*
X158277895Y-87097393D01*
X158243237Y-87029375D01*
X158177815Y-86900978D01*
X158098969Y-86792455D01*
X158048247Y-86722641D01*
X158048243Y-86722636D01*
X157892363Y-86566756D01*
X157892358Y-86566752D01*
X157714025Y-86437187D01*
X157714024Y-86437186D01*
X157714022Y-86437185D01*
X157651096Y-86405122D01*
X157517606Y-86337104D01*
X157517603Y-86337103D01*
X157307952Y-86268985D01*
X157199086Y-86251742D01*
X157090222Y-86234500D01*
X156869778Y-86234500D01*
X156797201Y-86245995D01*
X156652047Y-86268985D01*
X156442396Y-86337103D01*
X156442393Y-86337104D01*
X156245974Y-86437187D01*
X156067641Y-86566752D01*
X156067636Y-86566756D01*
X155911756Y-86722636D01*
X155911752Y-86722641D01*
X155782187Y-86900974D01*
X155682104Y-87097393D01*
X155682103Y-87097396D01*
X155613985Y-87307047D01*
X155579500Y-87524778D01*
X153380499Y-87524778D01*
X153380499Y-87102128D01*
X153374091Y-87042517D01*
X153334571Y-86936559D01*
X153323797Y-86907671D01*
X153323793Y-86907664D01*
X153237547Y-86792455D01*
X153237544Y-86792452D01*
X153122335Y-86706206D01*
X153122328Y-86706202D01*
X152987482Y-86655908D01*
X152987483Y-86655908D01*
X152927883Y-86649501D01*
X152927881Y-86649500D01*
X152927873Y-86649500D01*
X152927864Y-86649500D01*
X149332129Y-86649500D01*
X149332123Y-86649501D01*
X149272516Y-86655908D01*
X149137671Y-86706202D01*
X149137664Y-86706206D01*
X149022455Y-86792452D01*
X149022452Y-86792455D01*
X148936206Y-86907664D01*
X148936202Y-86907671D01*
X148885908Y-87042517D01*
X148879501Y-87102116D01*
X148879501Y-87102123D01*
X148879500Y-87102135D01*
X148879500Y-90697870D01*
X148879501Y-90697876D01*
X148885908Y-90757483D01*
X148936202Y-90892328D01*
X148936206Y-90892335D01*
X149022452Y-91007544D01*
X149022455Y-91007547D01*
X149137664Y-91093793D01*
X149137673Y-91093798D01*
X149186506Y-91112011D01*
X149242440Y-91153881D01*
X149266858Y-91219345D01*
X149252007Y-91287618D01*
X149202603Y-91337024D01*
X149136598Y-91352018D01*
X149098625Y-91350001D01*
X149098579Y-91350000D01*
X148380000Y-91350000D01*
X148380000Y-93100000D01*
X147880000Y-93100000D01*
X147880000Y-91350000D01*
X147161423Y-91350000D01*
X147161411Y-91350001D01*
X147108808Y-91352794D01*
X146879012Y-91397237D01*
X146660024Y-91479879D01*
X146458158Y-91598339D01*
X146458151Y-91598344D01*
X146279213Y-91749211D01*
X146279211Y-91749213D01*
X146128344Y-91928151D01*
X146128339Y-91928158D01*
X146009879Y-92130024D01*
X145927237Y-92349012D01*
X145882794Y-92578808D01*
X145882794Y-92578809D01*
X145880001Y-92631382D01*
X145880000Y-92631421D01*
X141950300Y-92631421D01*
X141950300Y-87835803D01*
X143130000Y-87835803D01*
X143130000Y-88650000D01*
X144630000Y-88650000D01*
X144630000Y-89150000D01*
X143130001Y-89150000D01*
X143130001Y-89964197D01*
X143140400Y-90096332D01*
X143195377Y-90314519D01*
X143288428Y-90519374D01*
X143288431Y-90519380D01*
X143416559Y-90704323D01*
X143416569Y-90704335D01*
X143575664Y-90863430D01*
X143575676Y-90863440D01*
X143760619Y-90991568D01*
X143760625Y-90991571D01*
X143965480Y-91084622D01*
X144183667Y-91139599D01*
X144315810Y-91149999D01*
X144879999Y-91149999D01*
X144880000Y-91149998D01*
X144880000Y-90333012D01*
X144937007Y-90365925D01*
X145064174Y-90400000D01*
X145195826Y-90400000D01*
X145322993Y-90365925D01*
X145380000Y-90333012D01*
X145380000Y-91149999D01*
X145944182Y-91149999D01*
X145944197Y-91149998D01*
X146076332Y-91139599D01*
X146294519Y-91084622D01*
X146499374Y-90991571D01*
X146499380Y-90991568D01*
X146684323Y-90863440D01*
X146684335Y-90863430D01*
X146843430Y-90704335D01*
X146843440Y-90704323D01*
X146971568Y-90519380D01*
X146971571Y-90519374D01*
X147064622Y-90314519D01*
X147119599Y-90096332D01*
X147129999Y-89964196D01*
X147130000Y-89964184D01*
X147130000Y-89150000D01*
X145630000Y-89150000D01*
X145630000Y-88650000D01*
X147129999Y-88650000D01*
X147129999Y-87835817D01*
X147129998Y-87835802D01*
X147119599Y-87703667D01*
X147064622Y-87485480D01*
X146971571Y-87280625D01*
X146971568Y-87280619D01*
X146843440Y-87095676D01*
X146843430Y-87095664D01*
X146684335Y-86936569D01*
X146684323Y-86936559D01*
X146499380Y-86808431D01*
X146499374Y-86808428D01*
X146294519Y-86715377D01*
X146076332Y-86660400D01*
X145944196Y-86650000D01*
X145380000Y-86650000D01*
X145380000Y-87466988D01*
X145322993Y-87434075D01*
X145195826Y-87400000D01*
X145064174Y-87400000D01*
X144937007Y-87434075D01*
X144880000Y-87466988D01*
X144880000Y-86650000D01*
X144315817Y-86650000D01*
X144315802Y-86650001D01*
X144183667Y-86660400D01*
X143965480Y-86715377D01*
X143760625Y-86808428D01*
X143760619Y-86808431D01*
X143575676Y-86936559D01*
X143575664Y-86936569D01*
X143416569Y-87095664D01*
X143416559Y-87095676D01*
X143288431Y-87280619D01*
X143288428Y-87280625D01*
X143195377Y-87485480D01*
X143140400Y-87703667D01*
X143130000Y-87835803D01*
X141950300Y-87835803D01*
X141950300Y-86589563D01*
X141969985Y-86522524D01*
X141986619Y-86501882D01*
X142462263Y-86026238D01*
X153877757Y-86026238D01*
X153911549Y-86055519D01*
X153918028Y-86061551D01*
X153968449Y-86111972D01*
X153974481Y-86118451D01*
X154009561Y-86158936D01*
X154015114Y-86165827D01*
X154144098Y-86338126D01*
X154149146Y-86345396D01*
X154178110Y-86390463D01*
X154182628Y-86398077D01*
X154216805Y-86460667D01*
X154220767Y-86468581D01*
X154243025Y-86517318D01*
X154246413Y-86525498D01*
X154320069Y-86722982D01*
X154320701Y-86724854D01*
X154756189Y-86724854D01*
X154767569Y-86697378D01*
X154769522Y-86692913D01*
X154781858Y-86666155D01*
X154783982Y-86661775D01*
X154901859Y-86430431D01*
X154904153Y-86426140D01*
X154918542Y-86400445D01*
X154921006Y-86396241D01*
X154941487Y-86362819D01*
X154944112Y-86358718D01*
X154960479Y-86334223D01*
X154963262Y-86330229D01*
X155115886Y-86120157D01*
X155118831Y-86116267D01*
X155137090Y-86093109D01*
X155140179Y-86089346D01*
X155165640Y-86059539D01*
X155168874Y-86055900D01*
X155188848Y-86034295D01*
X155192218Y-86030791D01*
X155375791Y-85847218D01*
X155379295Y-85843848D01*
X155379757Y-85843420D01*
X155379757Y-85222854D01*
X153877757Y-85222854D01*
X153877757Y-86026238D01*
X142462263Y-86026238D01*
X142837001Y-85651500D01*
X151447934Y-85651500D01*
X152879757Y-85651500D01*
X152879757Y-85222854D01*
X151890632Y-85222854D01*
X151537771Y-85575715D01*
X151533362Y-85579913D01*
X151506075Y-85604644D01*
X151501467Y-85608619D01*
X151463584Y-85639708D01*
X151458787Y-85643451D01*
X151447934Y-85651500D01*
X142837001Y-85651500D01*
X143448682Y-85039819D01*
X143510005Y-85006334D01*
X143536363Y-85003500D01*
X150485332Y-85003500D01*
X150485333Y-85003499D01*
X150615836Y-84977541D01*
X150738769Y-84926620D01*
X150849406Y-84852695D01*
X152466373Y-83235728D01*
X153877757Y-83235728D01*
X153877757Y-84224854D01*
X155379757Y-84224854D01*
X156377757Y-84224854D01*
X157879757Y-84224854D01*
X157879757Y-83290189D01*
X157711235Y-83316881D01*
X157706405Y-83317549D01*
X157677133Y-83321012D01*
X157672289Y-83321489D01*
X157633209Y-83324563D01*
X157628350Y-83324850D01*
X157598936Y-83326005D01*
X157594071Y-83326100D01*
X157365929Y-83326100D01*
X157361064Y-83326005D01*
X157331650Y-83324850D01*
X157326791Y-83324563D01*
X157287711Y-83321489D01*
X157282867Y-83321012D01*
X157253595Y-83317549D01*
X157248765Y-83316881D01*
X157023414Y-83281188D01*
X157018625Y-83280333D01*
X156989763Y-83274593D01*
X156985013Y-83273551D01*
X156946894Y-83264403D01*
X156942176Y-83263173D01*
X156913796Y-83255170D01*
X156909132Y-83253755D01*
X156692136Y-83183247D01*
X156687541Y-83181653D01*
X156659933Y-83171469D01*
X156655403Y-83169697D01*
X156619187Y-83154699D01*
X156614719Y-83152744D01*
X156587944Y-83140401D01*
X156583562Y-83138276D01*
X156380257Y-83034688D01*
X156377757Y-83033352D01*
X156377757Y-84224854D01*
X155379757Y-84224854D01*
X155379757Y-82801100D01*
X154312385Y-82801100D01*
X153877757Y-83235728D01*
X152466373Y-83235728D01*
X153862682Y-81839419D01*
X153924005Y-81805934D01*
X153950363Y-81803100D01*
X156423699Y-81803100D01*
X156490738Y-81822785D01*
X156524015Y-81854212D01*
X156564310Y-81909673D01*
X156697927Y-82043290D01*
X156850801Y-82154360D01*
X156930347Y-82194890D01*
X157019163Y-82240145D01*
X157019165Y-82240145D01*
X157019168Y-82240147D01*
X157115497Y-82271446D01*
X157198881Y-82298540D01*
X157385514Y-82328100D01*
X157385519Y-82328100D01*
X157574486Y-82328100D01*
X157761118Y-82298540D01*
X157940832Y-82240147D01*
X158109199Y-82154360D01*
X158262073Y-82043290D01*
X158395690Y-81909673D01*
X158506760Y-81756799D01*
X158592547Y-81588432D01*
X158650940Y-81408718D01*
X158671199Y-81280809D01*
X158680500Y-81222086D01*
X158680500Y-81033113D01*
X158650940Y-80846481D01*
X158623846Y-80763097D01*
X158592547Y-80666768D01*
X158592545Y-80666765D01*
X158592545Y-80666763D01*
X158536481Y-80556732D01*
X158506760Y-80498401D01*
X158395690Y-80345527D01*
X158262073Y-80211910D01*
X158109199Y-80100840D01*
X157940836Y-80015054D01*
X157761118Y-79956659D01*
X157574486Y-79927100D01*
X157574481Y-79927100D01*
X157385519Y-79927100D01*
X157385514Y-79927100D01*
X157198881Y-79956659D01*
X157019163Y-80015054D01*
X156850800Y-80100840D01*
X156763579Y-80164210D01*
X156697927Y-80211910D01*
X156697925Y-80211912D01*
X156697924Y-80211912D01*
X156564312Y-80345524D01*
X156564312Y-80345525D01*
X156564310Y-80345527D01*
X156524017Y-80400986D01*
X156468687Y-80443651D01*
X156423699Y-80452100D01*
X153552667Y-80452100D01*
X153422169Y-80478058D01*
X153422159Y-80478061D01*
X153299238Y-80528976D01*
X153299220Y-80528986D01*
X153188598Y-80602901D01*
X153188590Y-80602907D01*
X150175318Y-83616181D01*
X150113995Y-83649666D01*
X150087637Y-83652500D01*
X143138664Y-83652500D01*
X143008171Y-83678457D01*
X143008163Y-83678459D01*
X142885234Y-83729378D01*
X142885224Y-83729383D01*
X142774594Y-83803304D01*
X142774590Y-83803307D01*
X140750107Y-85827790D01*
X140750104Y-85827794D01*
X140676183Y-85938424D01*
X140676178Y-85938434D01*
X140625259Y-86061363D01*
X140625257Y-86061371D01*
X140599300Y-86191864D01*
X140599300Y-97526335D01*
X140625257Y-97656828D01*
X140625259Y-97656836D01*
X140676178Y-97779765D01*
X140676183Y-97779775D01*
X140750104Y-97890405D01*
X140750107Y-97890409D01*
X142124967Y-99265268D01*
X142158452Y-99326591D01*
X142153468Y-99396283D01*
X142111596Y-99452216D01*
X142056684Y-99475422D01*
X141899753Y-99500278D01*
X141899750Y-99500278D01*
X141682244Y-99570950D01*
X141478461Y-99674783D01*
X141295759Y-99807525D01*
X141229952Y-99831005D01*
X141161898Y-99815180D01*
X141113203Y-99765074D01*
X141106690Y-99750538D01*
X141096296Y-99722669D01*
X141096293Y-99722664D01*
X141010047Y-99607455D01*
X141010044Y-99607452D01*
X140894835Y-99521206D01*
X140894828Y-99521202D01*
X140759982Y-99470908D01*
X140759983Y-99470908D01*
X140700383Y-99464501D01*
X140700381Y-99464500D01*
X140700373Y-99464500D01*
X140700364Y-99464500D01*
X138699629Y-99464500D01*
X138699623Y-99464501D01*
X138640016Y-99470908D01*
X138505171Y-99521202D01*
X138505164Y-99521206D01*
X138389955Y-99607452D01*
X138389952Y-99607455D01*
X138303706Y-99722664D01*
X138303702Y-99722671D01*
X138253408Y-99857517D01*
X138247001Y-99917116D01*
X138247000Y-99917135D01*
X138247000Y-102012870D01*
X138247001Y-102012876D01*
X138253408Y-102072483D01*
X138303702Y-102207328D01*
X138303706Y-102207335D01*
X138389952Y-102322544D01*
X138389955Y-102322547D01*
X138505164Y-102408793D01*
X138505171Y-102408797D01*
X138512995Y-102411715D01*
X138640017Y-102459091D01*
X138699627Y-102465500D01*
X138950501Y-102465499D01*
X139017539Y-102485183D01*
X139063294Y-102537987D01*
X139074500Y-102589499D01*
X139074500Y-104150806D01*
X139090375Y-104230620D01*
X139095469Y-104256228D01*
X139098536Y-104271649D01*
X139145688Y-104385486D01*
X139145690Y-104385490D01*
X139165241Y-104414749D01*
X139165242Y-104414750D01*
X139214140Y-104487931D01*
X139214141Y-104487932D01*
X139214142Y-104487933D01*
X139301267Y-104575058D01*
X139301268Y-104575058D01*
X139308335Y-104582125D01*
X139308334Y-104582125D01*
X139308338Y-104582128D01*
X139573563Y-104847354D01*
X139600441Y-104887578D01*
X139602886Y-104893481D01*
X139602890Y-104893488D01*
X139671338Y-104995928D01*
X139671344Y-104995936D01*
X139758463Y-105083055D01*
X139758467Y-105083058D01*
X139862989Y-105152898D01*
X139907794Y-105206510D01*
X139916501Y-105275835D01*
X139886346Y-105338863D01*
X139826903Y-105375582D01*
X139794098Y-105380000D01*
X139637683Y-105380000D01*
X139435582Y-105412009D01*
X139240968Y-105475244D01*
X139058644Y-105568143D01*
X139014077Y-105600523D01*
X139014077Y-105600524D01*
X139693554Y-106280000D01*
X139687339Y-106280000D01*
X139585606Y-106307259D01*
X139494394Y-106359920D01*
X139419920Y-106434394D01*
X139367259Y-106525606D01*
X139340000Y-106627339D01*
X139340000Y-106633553D01*
X138660524Y-105954077D01*
X138660523Y-105954077D01*
X138628143Y-105998644D01*
X138535244Y-106180968D01*
X138472009Y-106375582D01*
X138440000Y-106577682D01*
X138440000Y-106782317D01*
X138472009Y-106984417D01*
X138535244Y-107179031D01*
X138628141Y-107361350D01*
X138628147Y-107361359D01*
X138660523Y-107405921D01*
X138660524Y-107405922D01*
X139340000Y-106726446D01*
X139340000Y-106732661D01*
X139367259Y-106834394D01*
X139419920Y-106925606D01*
X139494394Y-107000080D01*
X139585606Y-107052741D01*
X139687339Y-107080000D01*
X139693553Y-107080000D01*
X139014076Y-107759474D01*
X139058650Y-107791859D01*
X139240968Y-107884755D01*
X139435582Y-107947990D01*
X139637683Y-107980000D01*
X139842317Y-107980000D01*
X140044417Y-107947990D01*
X140239031Y-107884755D01*
X140421349Y-107791859D01*
X140465921Y-107759474D01*
X139786447Y-107080000D01*
X139792661Y-107080000D01*
X139894394Y-107052741D01*
X139985606Y-107000080D01*
X140060080Y-106925606D01*
X140112741Y-106834394D01*
X140140000Y-106732661D01*
X140140000Y-106726448D01*
X140819474Y-107405922D01*
X140819474Y-107405921D01*
X140851859Y-107361349D01*
X140879233Y-107307624D01*
X140927207Y-107256827D01*
X140995028Y-107240031D01*
X141061163Y-107262567D01*
X141100203Y-107307621D01*
X141127713Y-107361611D01*
X141248028Y-107527213D01*
X141392786Y-107671971D01*
X141493779Y-107745345D01*
X141558390Y-107792287D01*
X141674607Y-107851503D01*
X141740776Y-107885218D01*
X141740778Y-107885218D01*
X141740781Y-107885220D01*
X141798177Y-107903869D01*
X141935465Y-107948477D01*
X142036557Y-107964488D01*
X142137648Y-107980500D01*
X142137649Y-107980500D01*
X142342351Y-107980500D01*
X142342352Y-107980500D01*
X142544534Y-107948477D01*
X142739219Y-107885220D01*
X142741924Y-107883842D01*
X142776844Y-107866049D01*
X142921610Y-107792287D01*
X143017177Y-107722854D01*
X143087213Y-107671971D01*
X143087215Y-107671968D01*
X143087219Y-107671966D01*
X143231966Y-107527219D01*
X143231968Y-107527215D01*
X143231971Y-107527213D01*
X143286963Y-107451522D01*
X143352287Y-107361610D01*
X143445220Y-107179219D01*
X143508477Y-106984534D01*
X143540500Y-106782352D01*
X143540500Y-106724854D01*
X146377757Y-106724854D01*
X147879757Y-106724854D01*
X148877757Y-106724854D01*
X150379757Y-106724854D01*
X151377757Y-106724854D01*
X152879757Y-106724854D01*
X153877757Y-106724854D01*
X155379757Y-106724854D01*
X155379757Y-106220700D01*
X153877757Y-106220700D01*
X153877757Y-106724854D01*
X152879757Y-106724854D01*
X152879757Y-106220700D01*
X151377757Y-106220700D01*
X151377757Y-106724854D01*
X150379757Y-106724854D01*
X150379757Y-106220700D01*
X148877757Y-106220700D01*
X148877757Y-106724854D01*
X147879757Y-106724854D01*
X147879757Y-106220700D01*
X146377757Y-106220700D01*
X146377757Y-106724854D01*
X143540500Y-106724854D01*
X143540500Y-106577648D01*
X143518846Y-106440933D01*
X143508477Y-106375465D01*
X143449946Y-106195326D01*
X143445220Y-106180781D01*
X143445218Y-106180778D01*
X143445218Y-106180776D01*
X143405764Y-106103344D01*
X156377757Y-106103344D01*
X156377757Y-106724854D01*
X157879757Y-106724854D01*
X157879757Y-105222854D01*
X157441822Y-105222854D01*
X157016038Y-105648637D01*
X157016018Y-105648663D01*
X156858599Y-105806083D01*
X156854188Y-105810282D01*
X156826885Y-105835027D01*
X156822272Y-105839006D01*
X156817823Y-105842655D01*
X156813762Y-105863080D01*
X156781379Y-105924992D01*
X156739600Y-105953452D01*
X156540552Y-106035906D01*
X156475154Y-106079606D01*
X156408477Y-106100485D01*
X156394108Y-106099908D01*
X156387600Y-106099267D01*
X156377757Y-106103344D01*
X143405764Y-106103344D01*
X143396842Y-106085834D01*
X143352287Y-105998390D01*
X143320092Y-105954077D01*
X143231971Y-105832786D01*
X143087213Y-105688028D01*
X142921613Y-105567715D01*
X142921612Y-105567714D01*
X142921610Y-105567713D01*
X142739219Y-105474780D01*
X142707982Y-105464630D01*
X142650307Y-105425193D01*
X142623109Y-105360835D01*
X142635024Y-105291988D01*
X142682268Y-105240513D01*
X142746301Y-105222700D01*
X155833112Y-105222700D01*
X155893534Y-105210681D01*
X155953957Y-105198663D01*
X155953960Y-105198661D01*
X155953963Y-105198661D01*
X155987292Y-105184854D01*
X155987291Y-105184854D01*
X155987297Y-105184852D01*
X156067791Y-105151512D01*
X156143818Y-105100711D01*
X156170238Y-105083058D01*
X156257363Y-104995933D01*
X156257363Y-104995931D01*
X156267571Y-104985724D01*
X156267572Y-104985721D01*
X158869245Y-102384049D01*
X158930566Y-102350566D01*
X158976321Y-102349259D01*
X158993097Y-102351916D01*
X159105068Y-102369651D01*
X159105073Y-102369651D01*
X159294040Y-102369651D01*
X159480672Y-102340091D01*
X159484621Y-102338808D01*
X159660386Y-102281698D01*
X159828753Y-102195911D01*
X159930263Y-102122158D01*
X159996069Y-102098678D01*
X160064123Y-102114503D01*
X160112818Y-102164608D01*
X160127149Y-102222476D01*
X160127149Y-107289738D01*
X160162481Y-107490117D01*
X160232072Y-107681316D01*
X160232075Y-107681323D01*
X160277196Y-107759474D01*
X160321479Y-107836175D01*
X160333809Y-107857530D01*
X160333811Y-107857533D01*
X160464598Y-108013401D01*
X160523610Y-108062917D01*
X160620468Y-108144190D01*
X160796681Y-108245927D01*
X160987882Y-108315518D01*
X161188264Y-108350851D01*
X161188266Y-108350851D01*
X161290127Y-108350851D01*
X162684827Y-108351775D01*
X162751852Y-108371504D01*
X162797571Y-108424338D01*
X162807469Y-108493503D01*
X162778402Y-108557040D01*
X162728077Y-108591957D01*
X162613134Y-108634828D01*
X162613129Y-108634831D01*
X162498035Y-108720991D01*
X162498032Y-108720994D01*
X162411872Y-108836088D01*
X162411868Y-108836095D01*
X162361626Y-108970802D01*
X162361624Y-108970809D01*
X162355223Y-109030337D01*
X162355223Y-109678182D01*
X163272211Y-109678182D01*
X163239298Y-109735189D01*
X163205223Y-109862356D01*
X163205223Y-109994008D01*
X163239298Y-110121175D01*
X163272211Y-110178182D01*
X162355223Y-110178182D01*
X162355223Y-110826026D01*
X162361624Y-110885554D01*
X162361626Y-110885561D01*
X162411868Y-111020268D01*
X162411872Y-111020275D01*
X162498032Y-111135369D01*
X162498035Y-111135372D01*
X162613129Y-111221532D01*
X162613136Y-111221536D01*
X162744693Y-111270604D01*
X162800627Y-111312475D01*
X162825044Y-111377940D01*
X162810192Y-111446213D01*
X162789042Y-111474467D01*
X162675112Y-111588397D01*
X162550174Y-111760361D01*
X162453667Y-111949767D01*
X162387976Y-112151942D01*
X162368811Y-112272946D01*
X162354723Y-112361895D01*
X162354723Y-112574469D01*
X162387977Y-112784425D01*
X162446097Y-112963300D01*
X162453667Y-112986596D01*
X162550174Y-113176002D01*
X162675113Y-113347968D01*
X162825436Y-113498291D01*
X162997402Y-113623230D01*
X162997404Y-113623231D01*
X162997407Y-113623233D01*
X163186811Y-113719739D01*
X163388980Y-113785428D01*
X163598936Y-113818682D01*
X163598937Y-113818682D01*
X163811509Y-113818682D01*
X163811510Y-113818682D01*
X164021466Y-113785428D01*
X164223635Y-113719739D01*
X164413039Y-113623233D01*
X164441515Y-113602544D01*
X164585009Y-113498291D01*
X164585011Y-113498288D01*
X164585015Y-113498286D01*
X164735327Y-113347974D01*
X164735329Y-113347970D01*
X164735332Y-113347968D01*
X164860271Y-113176002D01*
X164860270Y-113176002D01*
X164860274Y-113175998D01*
X164956780Y-112986594D01*
X165022469Y-112784425D01*
X165055723Y-112574469D01*
X165055723Y-112361895D01*
X165022469Y-112151939D01*
X164956780Y-111949770D01*
X164860274Y-111760366D01*
X164860272Y-111760363D01*
X164860271Y-111760361D01*
X164735332Y-111588395D01*
X164621404Y-111474467D01*
X164587919Y-111413144D01*
X164592903Y-111343452D01*
X164634775Y-111287519D01*
X164665752Y-111270604D01*
X164797309Y-111221536D01*
X164797316Y-111221532D01*
X164912410Y-111135372D01*
X164912413Y-111135369D01*
X164998573Y-111020275D01*
X164998577Y-111020268D01*
X165048819Y-110885561D01*
X165048821Y-110885554D01*
X165055222Y-110826026D01*
X165055223Y-110826009D01*
X165055223Y-110178182D01*
X164138235Y-110178182D01*
X164171148Y-110121175D01*
X164205223Y-109994008D01*
X164205223Y-109862356D01*
X164171148Y-109735189D01*
X164138235Y-109678182D01*
X165055223Y-109678182D01*
X165055223Y-109030354D01*
X165055222Y-109030337D01*
X165048821Y-108970809D01*
X165048819Y-108970802D01*
X164998577Y-108836095D01*
X164998573Y-108836088D01*
X164912413Y-108720994D01*
X164912410Y-108720991D01*
X164797316Y-108634831D01*
X164797309Y-108634827D01*
X164686003Y-108593313D01*
X164630069Y-108551442D01*
X164605652Y-108485978D01*
X164620504Y-108417705D01*
X164669909Y-108368299D01*
X164729417Y-108353131D01*
X165185451Y-108353433D01*
X165186263Y-108353487D01*
X165193987Y-108353486D01*
X165193989Y-108353487D01*
X165251759Y-108353483D01*
X165267935Y-108354542D01*
X165334555Y-108363310D01*
X165365818Y-108371685D01*
X165420321Y-108394260D01*
X165448355Y-108410445D01*
X165495154Y-108446355D01*
X165518044Y-108469245D01*
X165553954Y-108516044D01*
X165570140Y-108544080D01*
X165592712Y-108598577D01*
X165601090Y-108629848D01*
X165609856Y-108696460D01*
X165610916Y-108712646D01*
X165610912Y-108779011D01*
X165610917Y-108779082D01*
X165610917Y-114065177D01*
X165609390Y-114084576D01*
X165605773Y-114107411D01*
X165593785Y-114144307D01*
X165574474Y-114182207D01*
X165551670Y-114213593D01*
X165521593Y-114243670D01*
X165490207Y-114266474D01*
X165452307Y-114285785D01*
X165415410Y-114297773D01*
X165364003Y-114305915D01*
X165344634Y-114307442D01*
X136407767Y-114314239D01*
X136388341Y-114312712D01*
X136334508Y-114304186D01*
X136297610Y-114292198D01*
X136257828Y-114271928D01*
X136226442Y-114249124D01*
X136194875Y-114217557D01*
X136172071Y-114186171D01*
X136170051Y-114182207D01*
X136151800Y-114146387D01*
X136139813Y-114109493D01*
X136131283Y-114055634D01*
X136129757Y-114036244D01*
X136130061Y-111724854D01*
X137128060Y-111724854D01*
X137879757Y-111724854D01*
X138877757Y-111724854D01*
X139256500Y-111724854D01*
X139256500Y-111497135D01*
X140254500Y-111497135D01*
X140254500Y-113292870D01*
X140254501Y-113292876D01*
X140260908Y-113352483D01*
X140311202Y-113487328D01*
X140311206Y-113487335D01*
X140397452Y-113602544D01*
X140397455Y-113602547D01*
X140512664Y-113688793D01*
X140512671Y-113688797D01*
X140647517Y-113739091D01*
X140647516Y-113739091D01*
X140654444Y-113739835D01*
X140707127Y-113745500D01*
X142502872Y-113745499D01*
X142562483Y-113739091D01*
X142697331Y-113688796D01*
X142812546Y-113602546D01*
X142898796Y-113487331D01*
X142947810Y-113355916D01*
X142989681Y-113299984D01*
X143055145Y-113275566D01*
X143123418Y-113290417D01*
X143151673Y-113311569D01*
X143265213Y-113425109D01*
X143437179Y-113550048D01*
X143437181Y-113550049D01*
X143437184Y-113550051D01*
X143626588Y-113646557D01*
X143828757Y-113712246D01*
X144038713Y-113745500D01*
X144038714Y-113745500D01*
X144251286Y-113745500D01*
X144251287Y-113745500D01*
X144461243Y-113712246D01*
X144663412Y-113646557D01*
X144852816Y-113550051D01*
X144939138Y-113487335D01*
X145024786Y-113425109D01*
X145024788Y-113425106D01*
X145024792Y-113425104D01*
X145175104Y-113274792D01*
X145175106Y-113274788D01*
X145175109Y-113274786D01*
X145300048Y-113102820D01*
X145300047Y-113102820D01*
X145300051Y-113102816D01*
X145304514Y-113094054D01*
X145352488Y-113043259D01*
X145420308Y-113026463D01*
X145486444Y-113048999D01*
X145525486Y-113094056D01*
X145529951Y-113102820D01*
X145654890Y-113274786D01*
X145805213Y-113425109D01*
X145977179Y-113550048D01*
X145977181Y-113550049D01*
X145977184Y-113550051D01*
X146166588Y-113646557D01*
X146368757Y-113712246D01*
X146578713Y-113745500D01*
X146578714Y-113745500D01*
X146791286Y-113745500D01*
X146791287Y-113745500D01*
X147001243Y-113712246D01*
X147203412Y-113646557D01*
X147392816Y-113550051D01*
X147479138Y-113487335D01*
X147564786Y-113425109D01*
X147564788Y-113425106D01*
X147564792Y-113425104D01*
X147715104Y-113274792D01*
X147715106Y-113274788D01*
X147715109Y-113274786D01*
X147736117Y-113245870D01*
X148877757Y-113245870D01*
X148877757Y-113313308D01*
X150379757Y-113312956D01*
X150379757Y-113279314D01*
X150275740Y-113240519D01*
X150267559Y-113237130D01*
X150218823Y-113214872D01*
X150210909Y-113210911D01*
X150148319Y-113176734D01*
X150140705Y-113172216D01*
X150095638Y-113143252D01*
X150088368Y-113138204D01*
X149943723Y-113029922D01*
X158877757Y-113029922D01*
X158877757Y-113310959D01*
X160379757Y-113310607D01*
X160379757Y-112722854D01*
X159345202Y-112722854D01*
X159188395Y-112843178D01*
X159185135Y-112845596D01*
X159165185Y-112859892D01*
X159161850Y-112862200D01*
X159134689Y-112880349D01*
X159131276Y-112882550D01*
X159110426Y-112895515D01*
X159106947Y-112897600D01*
X158877757Y-113029922D01*
X149943723Y-113029922D01*
X149916184Y-113009306D01*
X149909293Y-113003753D01*
X149868808Y-112968673D01*
X149862329Y-112962641D01*
X149811908Y-112912220D01*
X149805876Y-112905741D01*
X149770796Y-112865256D01*
X149765243Y-112858365D01*
X149663799Y-112722854D01*
X149010847Y-112722854D01*
X148984892Y-112886728D01*
X148984036Y-112891523D01*
X148978287Y-112920423D01*
X148977242Y-112925183D01*
X148968089Y-112963300D01*
X148966862Y-112968005D01*
X148958869Y-112996347D01*
X148957455Y-113001007D01*
X148879658Y-113240440D01*
X148878064Y-113245038D01*
X148877757Y-113245870D01*
X147736117Y-113245870D01*
X147840048Y-113102820D01*
X147840047Y-113102820D01*
X147840051Y-113102816D01*
X147936557Y-112913412D01*
X148002246Y-112711243D01*
X148035500Y-112501287D01*
X148035500Y-112288713D01*
X148002246Y-112078757D01*
X147936557Y-111876588D01*
X147840051Y-111687184D01*
X147840049Y-111687181D01*
X147840048Y-111687179D01*
X147736119Y-111544131D01*
X148877757Y-111544131D01*
X148878064Y-111544964D01*
X148879658Y-111549560D01*
X148936615Y-111724854D01*
X149402000Y-111724854D01*
X149402000Y-110424003D01*
X149411439Y-110376551D01*
X149412268Y-110374549D01*
X149411439Y-110372547D01*
X149402000Y-110325095D01*
X149402000Y-110222854D01*
X148877757Y-110222854D01*
X148877757Y-111544131D01*
X147736119Y-111544131D01*
X147715109Y-111515213D01*
X147564786Y-111364890D01*
X147392820Y-111239951D01*
X147203414Y-111143444D01*
X147203413Y-111143443D01*
X147203412Y-111143443D01*
X147001243Y-111077754D01*
X147001241Y-111077753D01*
X147001240Y-111077753D01*
X146839957Y-111052208D01*
X146791287Y-111044500D01*
X146578713Y-111044500D01*
X146530042Y-111052208D01*
X146368760Y-111077753D01*
X146166585Y-111143444D01*
X145977179Y-111239951D01*
X145805213Y-111364890D01*
X145654890Y-111515213D01*
X145529949Y-111687182D01*
X145525484Y-111695946D01*
X145477509Y-111746742D01*
X145409688Y-111763536D01*
X145343553Y-111740998D01*
X145304516Y-111695946D01*
X145300050Y-111687182D01*
X145175109Y-111515213D01*
X145024786Y-111364890D01*
X144852820Y-111239951D01*
X144663414Y-111143444D01*
X144663413Y-111143443D01*
X144663412Y-111143443D01*
X144461243Y-111077754D01*
X144461241Y-111077753D01*
X144461240Y-111077753D01*
X144299957Y-111052208D01*
X144251287Y-111044500D01*
X144038713Y-111044500D01*
X143990042Y-111052208D01*
X143828760Y-111077753D01*
X143626585Y-111143444D01*
X143437179Y-111239951D01*
X143265215Y-111364889D01*
X143151673Y-111478431D01*
X143090350Y-111511915D01*
X143020658Y-111506931D01*
X142964725Y-111465059D01*
X142947810Y-111434082D01*
X142898797Y-111302671D01*
X142898793Y-111302664D01*
X142812547Y-111187455D01*
X142812544Y-111187452D01*
X142697335Y-111101206D01*
X142697328Y-111101202D01*
X142562482Y-111050908D01*
X142562483Y-111050908D01*
X142502883Y-111044501D01*
X142502881Y-111044500D01*
X142502873Y-111044500D01*
X142502864Y-111044500D01*
X140707129Y-111044500D01*
X140707123Y-111044501D01*
X140647516Y-111050908D01*
X140512671Y-111101202D01*
X140512664Y-111101206D01*
X140397455Y-111187452D01*
X140397452Y-111187455D01*
X140311206Y-111302664D01*
X140311202Y-111302671D01*
X140260908Y-111437517D01*
X140254501Y-111497116D01*
X140254500Y-111497135D01*
X139256500Y-111497135D01*
X139256500Y-111483752D01*
X139256545Y-111480428D01*
X139257084Y-111460327D01*
X139257217Y-111457007D01*
X139258649Y-111430320D01*
X139258871Y-111427011D01*
X139260481Y-111407018D01*
X139260792Y-111403715D01*
X139271962Y-111299825D01*
X139273029Y-111292157D01*
X139280936Y-111245971D01*
X139282481Y-111238381D01*
X139296826Y-111177670D01*
X139298842Y-111170191D01*
X139312450Y-111125328D01*
X139314929Y-111117988D01*
X139388587Y-110920498D01*
X139391975Y-110912318D01*
X139414233Y-110863581D01*
X139418195Y-110855667D01*
X139452372Y-110793077D01*
X139456890Y-110785463D01*
X139485854Y-110740396D01*
X139490902Y-110733126D01*
X139619886Y-110560827D01*
X139625439Y-110553936D01*
X139660519Y-110513451D01*
X139666551Y-110506972D01*
X139716972Y-110456551D01*
X139723451Y-110450519D01*
X139763936Y-110415439D01*
X139770827Y-110409886D01*
X139943126Y-110280902D01*
X139950396Y-110275854D01*
X139995463Y-110246890D01*
X140003077Y-110242372D01*
X140038821Y-110222854D01*
X138877757Y-110222854D01*
X138877757Y-111724854D01*
X137879757Y-111724854D01*
X137879757Y-110222854D01*
X137128258Y-110222854D01*
X137128060Y-111724854D01*
X136130061Y-111724854D01*
X136130390Y-109224854D01*
X137128389Y-109224854D01*
X137879757Y-109224854D01*
X138877757Y-109224854D01*
X140379757Y-109224854D01*
X141377757Y-109224854D01*
X142879757Y-109224854D01*
X142879757Y-108888916D01*
X142834283Y-108903692D01*
X142829620Y-108905106D01*
X142801241Y-108913109D01*
X142796522Y-108914340D01*
X142758403Y-108923488D01*
X142753652Y-108924530D01*
X142724789Y-108930270D01*
X142720001Y-108931125D01*
X142479125Y-108969277D01*
X142474301Y-108969945D01*
X142445067Y-108973405D01*
X142440230Y-108973881D01*
X142401151Y-108976959D01*
X142396286Y-108977246D01*
X142366834Y-108978404D01*
X142361962Y-108978500D01*
X142118038Y-108978500D01*
X142113166Y-108978404D01*
X142083714Y-108977246D01*
X142078849Y-108976959D01*
X142039770Y-108973881D01*
X142034933Y-108973405D01*
X142005699Y-108969945D01*
X142000875Y-108969277D01*
X141759999Y-108931125D01*
X141755211Y-108930270D01*
X141726348Y-108924530D01*
X141721597Y-108923488D01*
X141683478Y-108914340D01*
X141678759Y-108913109D01*
X141650380Y-108905106D01*
X141645717Y-108903692D01*
X141413750Y-108828320D01*
X141409156Y-108826727D01*
X141381547Y-108816543D01*
X141377757Y-108815059D01*
X141377757Y-109224854D01*
X140379757Y-109224854D01*
X140379757Y-108888391D01*
X140334166Y-108903205D01*
X140329503Y-108904619D01*
X140301124Y-108912622D01*
X140296405Y-108913853D01*
X140258286Y-108923001D01*
X140253536Y-108924043D01*
X140224674Y-108929783D01*
X140219885Y-108930638D01*
X139979067Y-108968781D01*
X139974237Y-108969449D01*
X139944964Y-108972912D01*
X139940120Y-108973389D01*
X139901040Y-108976463D01*
X139896181Y-108976750D01*
X139866767Y-108977905D01*
X139861902Y-108978000D01*
X139618098Y-108978000D01*
X139613233Y-108977905D01*
X139583819Y-108976750D01*
X139578960Y-108976463D01*
X139539880Y-108973389D01*
X139535036Y-108972912D01*
X139505763Y-108969449D01*
X139500933Y-108968781D01*
X139260115Y-108930638D01*
X139255326Y-108929783D01*
X139226464Y-108924043D01*
X139221714Y-108923001D01*
X139183595Y-108913853D01*
X139178876Y-108912622D01*
X139150497Y-108904619D01*
X139145834Y-108903205D01*
X138913942Y-108827857D01*
X138909348Y-108826264D01*
X138881739Y-108816080D01*
X138877757Y-108814521D01*
X138877757Y-109224854D01*
X137879757Y-109224854D01*
X137879757Y-108292812D01*
X143877757Y-108292812D01*
X143877757Y-109224854D01*
X145379757Y-109224854D01*
X146377757Y-109224854D01*
X147879757Y-109224854D01*
X148877757Y-109224854D01*
X149402000Y-109224854D01*
X149402000Y-108826704D01*
X150400000Y-108826704D01*
X150400000Y-110124549D01*
X151680936Y-110124549D01*
X151669207Y-110152865D01*
X151640000Y-110299696D01*
X151640000Y-110449402D01*
X151669207Y-110596233D01*
X151680936Y-110624549D01*
X150400000Y-110624549D01*
X150400000Y-111922393D01*
X150406401Y-111981921D01*
X150406403Y-111981928D01*
X150456645Y-112116635D01*
X150456649Y-112116642D01*
X150542809Y-112231736D01*
X150542812Y-112231739D01*
X150657906Y-112317899D01*
X150657913Y-112317903D01*
X150792620Y-112368145D01*
X150792627Y-112368147D01*
X150852155Y-112374548D01*
X150852172Y-112374549D01*
X152150000Y-112374549D01*
X152150000Y-111093613D01*
X152178316Y-111105342D01*
X152325147Y-111134549D01*
X152474853Y-111134549D01*
X152621684Y-111105342D01*
X152650000Y-111093613D01*
X152650000Y-112374549D01*
X153947828Y-112374549D01*
X153947844Y-112374548D01*
X154007372Y-112368147D01*
X154007379Y-112368145D01*
X154142086Y-112317903D01*
X154142093Y-112317899D01*
X154257187Y-112231739D01*
X154257190Y-112231736D01*
X154343350Y-112116642D01*
X154343354Y-112116635D01*
X154393596Y-111981928D01*
X154393598Y-111981921D01*
X154399999Y-111922393D01*
X154400000Y-111922376D01*
X154400000Y-110624549D01*
X153119064Y-110624549D01*
X153130793Y-110596233D01*
X153160000Y-110449402D01*
X153160000Y-110299696D01*
X153148806Y-110243421D01*
X155479500Y-110243421D01*
X155479500Y-110505676D01*
X155491423Y-110596233D01*
X155513730Y-110765665D01*
X155567109Y-110964879D01*
X155581602Y-111018967D01*
X155581605Y-111018977D01*
X155681953Y-111261239D01*
X155681958Y-111261249D01*
X155813075Y-111488352D01*
X155972718Y-111696400D01*
X155972726Y-111696409D01*
X156158140Y-111881823D01*
X156158148Y-111881830D01*
X156366196Y-112041473D01*
X156593299Y-112172590D01*
X156593309Y-112172595D01*
X156736096Y-112231739D01*
X156835581Y-112272947D01*
X157088884Y-112340819D01*
X157337188Y-112373509D01*
X157345074Y-112374548D01*
X157348880Y-112375049D01*
X157348887Y-112375049D01*
X157611113Y-112375049D01*
X157611120Y-112375049D01*
X157871116Y-112340819D01*
X158124419Y-112272947D01*
X158366697Y-112172592D01*
X158593803Y-112041473D01*
X158801851Y-111881831D01*
X158801855Y-111881826D01*
X158801860Y-111881823D01*
X158987274Y-111696409D01*
X158987277Y-111696404D01*
X158987282Y-111696400D01*
X159146924Y-111488352D01*
X159278043Y-111261246D01*
X159378398Y-111018968D01*
X159446270Y-110765665D01*
X159480500Y-110505669D01*
X159480500Y-110243429D01*
X159446270Y-109983433D01*
X159378398Y-109730130D01*
X159366351Y-109701046D01*
X159278046Y-109487858D01*
X159278041Y-109487848D01*
X159146924Y-109260745D01*
X158987281Y-109052697D01*
X158987274Y-109052689D01*
X158801860Y-108867275D01*
X158801851Y-108867267D01*
X158593803Y-108707624D01*
X158366700Y-108576507D01*
X158366690Y-108576502D01*
X158124428Y-108476154D01*
X158124421Y-108476152D01*
X158124419Y-108476151D01*
X157871116Y-108408279D01*
X157812083Y-108400507D01*
X157611127Y-108374049D01*
X157611120Y-108374049D01*
X157348880Y-108374049D01*
X157348872Y-108374049D01*
X157117772Y-108404475D01*
X157088884Y-108408279D01*
X156861355Y-108469245D01*
X156835581Y-108476151D01*
X156835571Y-108476154D01*
X156593309Y-108576502D01*
X156593299Y-108576507D01*
X156366196Y-108707624D01*
X156158148Y-108867267D01*
X155972718Y-109052697D01*
X155813075Y-109260745D01*
X155681958Y-109487848D01*
X155681953Y-109487858D01*
X155581605Y-109730120D01*
X155581602Y-109730130D01*
X155513730Y-109983434D01*
X155479500Y-110243421D01*
X153148806Y-110243421D01*
X153130793Y-110152865D01*
X153119064Y-110124549D01*
X154400000Y-110124549D01*
X154400000Y-108826721D01*
X154399999Y-108826704D01*
X154393598Y-108767176D01*
X154393596Y-108767169D01*
X154343354Y-108632462D01*
X154343350Y-108632455D01*
X154257190Y-108517361D01*
X154257187Y-108517358D01*
X154142093Y-108431198D01*
X154142086Y-108431194D01*
X154007379Y-108380952D01*
X154007372Y-108380950D01*
X153947844Y-108374549D01*
X152650000Y-108374549D01*
X152650000Y-109655484D01*
X152621684Y-109643756D01*
X152474853Y-109614549D01*
X152325147Y-109614549D01*
X152178316Y-109643756D01*
X152150000Y-109655484D01*
X152150000Y-108374549D01*
X150852155Y-108374549D01*
X150792627Y-108380950D01*
X150792620Y-108380952D01*
X150657913Y-108431194D01*
X150657906Y-108431198D01*
X150542812Y-108517358D01*
X150542809Y-108517361D01*
X150456649Y-108632455D01*
X150456645Y-108632462D01*
X150406403Y-108767169D01*
X150406401Y-108767176D01*
X150400000Y-108826704D01*
X149402000Y-108826704D01*
X149402000Y-108813372D01*
X149402044Y-108810058D01*
X149402580Y-108790010D01*
X149402713Y-108786694D01*
X149404142Y-108760007D01*
X149404364Y-108756693D01*
X149405977Y-108736644D01*
X149406289Y-108733332D01*
X149417455Y-108629480D01*
X149418522Y-108621811D01*
X149426428Y-108575633D01*
X149427972Y-108568048D01*
X149442315Y-108507337D01*
X149444332Y-108499854D01*
X149457942Y-108454985D01*
X149460421Y-108447645D01*
X149534030Y-108250288D01*
X149537419Y-108242108D01*
X149559677Y-108193372D01*
X149563638Y-108185458D01*
X149597815Y-108122868D01*
X149602333Y-108115254D01*
X149631297Y-108070187D01*
X149636345Y-108062917D01*
X149765243Y-107890733D01*
X149770796Y-107883842D01*
X149805876Y-107843357D01*
X149811908Y-107836878D01*
X149862329Y-107786457D01*
X149868808Y-107780425D01*
X149909293Y-107745345D01*
X149916184Y-107739792D01*
X149938810Y-107722854D01*
X148877757Y-107722854D01*
X148877757Y-109224854D01*
X147879757Y-109224854D01*
X147879757Y-107722854D01*
X146377757Y-107722854D01*
X146377757Y-109224854D01*
X145379757Y-109224854D01*
X145379757Y-107722854D01*
X144288306Y-107722854D01*
X144232614Y-107832155D01*
X144230319Y-107836448D01*
X144215929Y-107862144D01*
X144213467Y-107866344D01*
X144192986Y-107899767D01*
X144190361Y-107903869D01*
X144173995Y-107928363D01*
X144171210Y-107932358D01*
X144027837Y-108129696D01*
X144024894Y-108133584D01*
X144006635Y-108156743D01*
X144003545Y-108160508D01*
X143978084Y-108190315D01*
X143974850Y-108193954D01*
X143954876Y-108215559D01*
X143951506Y-108219063D01*
X143877757Y-108292812D01*
X137879757Y-108292812D01*
X137879757Y-108029187D01*
X137809212Y-107932090D01*
X137806427Y-107928095D01*
X137790049Y-107903583D01*
X137787419Y-107899474D01*
X137766940Y-107866049D01*
X137764482Y-107861854D01*
X137750102Y-107836175D01*
X137747808Y-107831884D01*
X137692254Y-107722854D01*
X137128587Y-107722854D01*
X137128389Y-109224854D01*
X136130390Y-109224854D01*
X136130719Y-106724854D01*
X137128717Y-106724854D01*
X137442000Y-106724854D01*
X137442000Y-106558098D01*
X137442095Y-106553233D01*
X137443250Y-106523819D01*
X137443537Y-106518960D01*
X137446611Y-106479880D01*
X137447088Y-106475036D01*
X137450551Y-106445763D01*
X137451219Y-106440933D01*
X137489362Y-106200115D01*
X137490217Y-106195326D01*
X137495957Y-106166464D01*
X137496999Y-106161714D01*
X137506147Y-106123595D01*
X137507378Y-106118876D01*
X137515381Y-106090497D01*
X137516795Y-106085834D01*
X137592143Y-105853942D01*
X137593736Y-105849348D01*
X137603920Y-105821739D01*
X137605693Y-105817208D01*
X137620691Y-105780992D01*
X137622646Y-105776524D01*
X137634989Y-105749749D01*
X137637114Y-105745366D01*
X137747805Y-105528122D01*
X137750097Y-105523834D01*
X137764470Y-105498166D01*
X137766930Y-105493969D01*
X137787408Y-105460545D01*
X137790034Y-105456441D01*
X137806416Y-105431920D01*
X137809204Y-105427920D01*
X137879757Y-105330809D01*
X137879757Y-105222854D01*
X137128915Y-105222854D01*
X137128717Y-106724854D01*
X136130719Y-106724854D01*
X136131047Y-104224854D01*
X137129046Y-104224854D01*
X137879757Y-104224854D01*
X137879757Y-103187274D01*
X137763327Y-103100115D01*
X137756436Y-103094561D01*
X137715951Y-103059481D01*
X137709472Y-103053449D01*
X137659051Y-103003028D01*
X137653019Y-102996549D01*
X137617939Y-102956064D01*
X137612386Y-102949173D01*
X137483402Y-102776874D01*
X137478354Y-102769604D01*
X137449390Y-102724537D01*
X137448391Y-102722854D01*
X137129244Y-102722854D01*
X137129046Y-104224854D01*
X136131047Y-104224854D01*
X136131704Y-99224854D01*
X137129703Y-99224854D01*
X137438441Y-99224854D01*
X137444872Y-99213077D01*
X137449390Y-99205463D01*
X137478354Y-99160396D01*
X137483402Y-99153126D01*
X137612386Y-98980827D01*
X137617939Y-98973936D01*
X137653019Y-98933451D01*
X137659051Y-98926972D01*
X137709472Y-98876551D01*
X137715951Y-98870519D01*
X137756436Y-98835439D01*
X137763326Y-98829886D01*
X137879757Y-98742724D01*
X137879757Y-98466500D01*
X138877757Y-98466500D01*
X139934800Y-98466500D01*
X139933911Y-98465238D01*
X139832758Y-98313852D01*
X139829501Y-98308708D01*
X139810566Y-98277116D01*
X139807566Y-98271820D01*
X139784465Y-98228599D01*
X139781728Y-98223163D01*
X139765989Y-98189884D01*
X139763524Y-98184322D01*
X139693852Y-98016121D01*
X139691662Y-98010443D01*
X139679259Y-97975780D01*
X139677350Y-97970003D01*
X139663123Y-97923107D01*
X139661499Y-97917237D01*
X139652550Y-97881509D01*
X139651217Y-97875572D01*
X139620839Y-97722854D01*
X138877757Y-97722854D01*
X138877757Y-98466500D01*
X137879757Y-98466500D01*
X137879757Y-97722854D01*
X137129901Y-97722854D01*
X137129703Y-99224854D01*
X136131704Y-99224854D01*
X136132033Y-96724854D01*
X137130031Y-96724854D01*
X137879757Y-96724854D01*
X138877757Y-96724854D01*
X139601300Y-96724854D01*
X139601300Y-95222854D01*
X138877757Y-95222854D01*
X138877757Y-96724854D01*
X137879757Y-96724854D01*
X137879757Y-95222854D01*
X137130229Y-95222854D01*
X137130031Y-96724854D01*
X136132033Y-96724854D01*
X136132361Y-94224854D01*
X137130360Y-94224854D01*
X137879757Y-94224854D01*
X138877757Y-94224854D01*
X139601300Y-94224854D01*
X139601300Y-92722854D01*
X138877757Y-92722854D01*
X138877757Y-94224854D01*
X137879757Y-94224854D01*
X137879757Y-92722854D01*
X137130558Y-92722854D01*
X137130360Y-94224854D01*
X136132361Y-94224854D01*
X136132690Y-91724854D01*
X137130689Y-91724854D01*
X137879757Y-91724854D01*
X138877757Y-91724854D01*
X139601300Y-91724854D01*
X139601300Y-90222854D01*
X138877757Y-90222854D01*
X138877757Y-91724854D01*
X137879757Y-91724854D01*
X137879757Y-90222854D01*
X137130887Y-90222854D01*
X137130689Y-91724854D01*
X136132690Y-91724854D01*
X136133018Y-89224854D01*
X137131017Y-89224854D01*
X137879757Y-89224854D01*
X138877757Y-89224854D01*
X139601300Y-89224854D01*
X139601300Y-87722854D01*
X138877757Y-87722854D01*
X138877757Y-89224854D01*
X137879757Y-89224854D01*
X137879757Y-87722854D01*
X137131215Y-87722854D01*
X137131017Y-89224854D01*
X136133018Y-89224854D01*
X136133347Y-86724854D01*
X137131346Y-86724854D01*
X137879757Y-86724854D01*
X138877757Y-86724854D01*
X139601300Y-86724854D01*
X139601300Y-86167367D01*
X139601449Y-86161285D01*
X139603255Y-86124510D01*
X139603703Y-86118439D01*
X139608506Y-86069669D01*
X139609251Y-86063626D01*
X139614655Y-86027199D01*
X139615696Y-86021204D01*
X139651217Y-85842628D01*
X139652550Y-85836691D01*
X139661499Y-85800963D01*
X139663123Y-85795093D01*
X139677350Y-85748197D01*
X139679259Y-85742420D01*
X139691662Y-85707757D01*
X139693852Y-85702079D01*
X139763524Y-85533878D01*
X139765989Y-85528316D01*
X139781728Y-85495037D01*
X139784465Y-85489601D01*
X139807566Y-85446380D01*
X139810566Y-85441084D01*
X139829501Y-85409492D01*
X139832758Y-85404348D01*
X139933911Y-85252962D01*
X139937416Y-85247986D01*
X139956055Y-85222854D01*
X138877757Y-85222854D01*
X138877757Y-86724854D01*
X137879757Y-86724854D01*
X137879757Y-85222854D01*
X137131544Y-85222854D01*
X137131346Y-86724854D01*
X136133347Y-86724854D01*
X136133675Y-84224854D01*
X137131674Y-84224854D01*
X137879757Y-84224854D01*
X138877757Y-84224854D01*
X140379757Y-84224854D01*
X140379757Y-83788757D01*
X141377757Y-83788757D01*
X142086229Y-83080285D01*
X142090638Y-83076087D01*
X142117925Y-83051356D01*
X142122533Y-83047381D01*
X142160416Y-83016292D01*
X142165213Y-83012549D01*
X142194786Y-82990616D01*
X142199762Y-82987111D01*
X142351148Y-82885958D01*
X142356292Y-82882701D01*
X142387884Y-82863766D01*
X142393180Y-82860766D01*
X142436401Y-82837665D01*
X142441837Y-82834928D01*
X142475116Y-82819189D01*
X142480678Y-82816724D01*
X142648879Y-82747052D01*
X142654557Y-82744862D01*
X142689220Y-82732459D01*
X142694997Y-82730550D01*
X142720365Y-82722854D01*
X141377757Y-82722854D01*
X141377757Y-83788757D01*
X140379757Y-83788757D01*
X140379757Y-82722854D01*
X138877757Y-82722854D01*
X138877757Y-84224854D01*
X137879757Y-84224854D01*
X137879757Y-82722854D01*
X137131872Y-82722854D01*
X137131674Y-84224854D01*
X136133675Y-84224854D01*
X136134004Y-81724854D01*
X137132003Y-81724854D01*
X137879757Y-81724854D01*
X138877757Y-81724854D01*
X140379757Y-81724854D01*
X141377757Y-81724854D01*
X142879757Y-81724854D01*
X143877757Y-81724854D01*
X145379757Y-81724854D01*
X146377757Y-81724854D01*
X147742418Y-81724854D01*
X147733845Y-81698468D01*
X147732430Y-81693804D01*
X147724427Y-81665424D01*
X147723197Y-81660706D01*
X147714049Y-81622587D01*
X147713007Y-81617837D01*
X147707267Y-81588975D01*
X147706412Y-81584186D01*
X147670719Y-81358835D01*
X147670051Y-81354005D01*
X147666588Y-81324733D01*
X147666111Y-81319889D01*
X147663037Y-81280809D01*
X147662750Y-81275950D01*
X147661595Y-81246536D01*
X147661500Y-81241671D01*
X147661500Y-81033113D01*
X148659500Y-81033113D01*
X148659500Y-81222086D01*
X148689059Y-81408718D01*
X148747454Y-81588436D01*
X148803519Y-81698468D01*
X148833240Y-81756799D01*
X148944310Y-81909673D01*
X149077927Y-82043290D01*
X149230801Y-82154360D01*
X149310347Y-82194890D01*
X149399163Y-82240145D01*
X149399165Y-82240145D01*
X149399168Y-82240147D01*
X149495497Y-82271446D01*
X149578881Y-82298540D01*
X149765514Y-82328100D01*
X149765519Y-82328100D01*
X149954486Y-82328100D01*
X150141118Y-82298540D01*
X150320832Y-82240147D01*
X150489199Y-82154360D01*
X150642073Y-82043290D01*
X150775690Y-81909673D01*
X150886760Y-81756799D01*
X150972547Y-81588432D01*
X151030940Y-81408718D01*
X151051199Y-81280809D01*
X151060500Y-81222086D01*
X151060500Y-81033113D01*
X151030940Y-80846481D01*
X151003846Y-80763097D01*
X150972547Y-80666768D01*
X150972545Y-80666765D01*
X150972545Y-80666763D01*
X150916481Y-80556732D01*
X150886760Y-80498401D01*
X150775690Y-80345527D01*
X150642073Y-80211910D01*
X150489199Y-80100840D01*
X150320836Y-80015054D01*
X150141118Y-79956659D01*
X149954486Y-79927100D01*
X149954481Y-79927100D01*
X149765519Y-79927100D01*
X149765514Y-79927100D01*
X149578881Y-79956659D01*
X149399163Y-80015054D01*
X149230800Y-80100840D01*
X149143579Y-80164210D01*
X149077927Y-80211910D01*
X149077925Y-80211912D01*
X149077924Y-80211912D01*
X148944312Y-80345524D01*
X148944312Y-80345525D01*
X148944310Y-80345527D01*
X148896610Y-80411179D01*
X148833240Y-80498400D01*
X148747454Y-80666763D01*
X148689059Y-80846481D01*
X148659500Y-81033113D01*
X147661500Y-81033113D01*
X147661500Y-81013529D01*
X147661595Y-81008664D01*
X147662750Y-80979250D01*
X147663037Y-80974391D01*
X147666111Y-80935311D01*
X147666588Y-80930467D01*
X147670051Y-80901195D01*
X147670719Y-80896365D01*
X147706412Y-80671014D01*
X147707267Y-80666225D01*
X147713007Y-80637363D01*
X147714049Y-80632613D01*
X147723197Y-80594494D01*
X147724427Y-80589776D01*
X147732430Y-80561396D01*
X147733845Y-80556732D01*
X147804353Y-80339736D01*
X147805947Y-80335141D01*
X147816131Y-80307533D01*
X147817903Y-80303003D01*
X147832901Y-80266787D01*
X147834856Y-80262319D01*
X147847199Y-80235544D01*
X147849324Y-80231162D01*
X147853557Y-80222854D01*
X146377757Y-80222854D01*
X146377757Y-81724854D01*
X145379757Y-81724854D01*
X145379757Y-80222854D01*
X143877757Y-80222854D01*
X143877757Y-81724854D01*
X142879757Y-81724854D01*
X142879757Y-80222854D01*
X141377757Y-80222854D01*
X141377757Y-81724854D01*
X140379757Y-81724854D01*
X140379757Y-80222854D01*
X138877757Y-80222854D01*
X138877757Y-81724854D01*
X137879757Y-81724854D01*
X137879757Y-80222854D01*
X137132201Y-80222854D01*
X137132003Y-81724854D01*
X136134004Y-81724854D01*
X136134332Y-79224854D01*
X137132331Y-79224854D01*
X137879757Y-79224854D01*
X138877757Y-79224854D01*
X140379757Y-79224854D01*
X141377757Y-79224854D01*
X142879757Y-79224854D01*
X143877757Y-79224854D01*
X145379757Y-79224854D01*
X145379757Y-78698499D01*
X143877757Y-78698499D01*
X143877757Y-79224854D01*
X142879757Y-79224854D01*
X142879757Y-78616238D01*
X142869877Y-78619449D01*
X142865214Y-78620863D01*
X142836835Y-78628866D01*
X142832116Y-78630097D01*
X142793997Y-78639245D01*
X142789247Y-78640287D01*
X142760385Y-78646027D01*
X142755597Y-78646882D01*
X142427135Y-78698907D01*
X142374077Y-78695778D01*
X142240000Y-78657963D01*
X142105923Y-78695778D01*
X142052865Y-78698907D01*
X141724403Y-78646882D01*
X141719615Y-78646027D01*
X141690753Y-78640287D01*
X141686003Y-78639245D01*
X141647884Y-78630097D01*
X141643165Y-78628866D01*
X141614786Y-78620863D01*
X141610123Y-78619449D01*
X141418797Y-78557282D01*
X146377757Y-78557282D01*
X146377757Y-79224854D01*
X147879757Y-79224854D01*
X147879757Y-79160643D01*
X148877757Y-79160643D01*
X148963562Y-79116924D01*
X148967944Y-79114799D01*
X148994719Y-79102456D01*
X148999187Y-79100501D01*
X149035403Y-79085503D01*
X149039933Y-79083731D01*
X149067541Y-79073547D01*
X149072136Y-79071953D01*
X149289132Y-79001445D01*
X149293796Y-79000030D01*
X149322176Y-78992027D01*
X149326894Y-78990797D01*
X149365013Y-78981649D01*
X149369763Y-78980607D01*
X149398625Y-78974867D01*
X149403414Y-78974012D01*
X149628765Y-78938319D01*
X149633595Y-78937651D01*
X149662867Y-78934188D01*
X149667711Y-78933711D01*
X149706791Y-78930637D01*
X149711650Y-78930350D01*
X149741064Y-78929195D01*
X149745929Y-78929100D01*
X149974071Y-78929100D01*
X149978936Y-78929195D01*
X150008350Y-78930350D01*
X150013209Y-78930637D01*
X150052289Y-78933711D01*
X150057133Y-78934188D01*
X150086405Y-78937651D01*
X150091235Y-78938319D01*
X150316586Y-78974012D01*
X150321375Y-78974867D01*
X150350237Y-78980607D01*
X150354987Y-78981649D01*
X150379757Y-78987593D01*
X150379757Y-78013262D01*
X151377757Y-78013262D01*
X151377757Y-79224854D01*
X152879757Y-79224854D01*
X152879757Y-78013262D01*
X153877757Y-78013262D01*
X153877757Y-79224854D01*
X155379757Y-79224854D01*
X155379757Y-78013499D01*
X156377757Y-78013499D01*
X156377757Y-79221847D01*
X156380257Y-79220512D01*
X156583562Y-79116924D01*
X156587944Y-79114799D01*
X156614719Y-79102456D01*
X156619187Y-79100501D01*
X156655403Y-79085503D01*
X156659933Y-79083731D01*
X156687541Y-79073547D01*
X156692136Y-79071953D01*
X156909132Y-79001445D01*
X156913796Y-79000030D01*
X156942176Y-78992027D01*
X156946894Y-78990797D01*
X156985013Y-78981649D01*
X156989763Y-78980607D01*
X157018625Y-78974867D01*
X157023414Y-78974012D01*
X157248765Y-78938319D01*
X157253595Y-78937651D01*
X157282867Y-78934188D01*
X157287711Y-78933711D01*
X157326791Y-78930637D01*
X157331650Y-78930350D01*
X157361064Y-78929195D01*
X157365929Y-78929100D01*
X157594071Y-78929100D01*
X157598936Y-78929195D01*
X157628350Y-78930350D01*
X157633209Y-78930637D01*
X157672289Y-78933711D01*
X157677133Y-78934188D01*
X157706405Y-78937651D01*
X157711235Y-78938319D01*
X157879757Y-78965010D01*
X157879757Y-77960557D01*
X157844828Y-77971153D01*
X157837352Y-77973168D01*
X157776637Y-77987516D01*
X157769045Y-77989061D01*
X157722840Y-77996972D01*
X157715167Y-77998041D01*
X157611244Y-78009212D01*
X157607939Y-78009522D01*
X157587899Y-78011135D01*
X157584578Y-78011358D01*
X157557895Y-78012786D01*
X157554582Y-78012919D01*
X157534534Y-78013455D01*
X157531220Y-78013499D01*
X156377757Y-78013499D01*
X155379757Y-78013499D01*
X155379757Y-78003944D01*
X155324825Y-77998038D01*
X155317157Y-77996971D01*
X155270971Y-77989064D01*
X155263381Y-77987519D01*
X155202670Y-77973174D01*
X155195191Y-77971158D01*
X155150328Y-77957550D01*
X155142988Y-77955071D01*
X154945498Y-77881413D01*
X154937318Y-77878025D01*
X154890524Y-77856654D01*
X154649409Y-77934999D01*
X154644746Y-77936413D01*
X154616367Y-77944416D01*
X154611648Y-77945647D01*
X154573529Y-77954795D01*
X154568779Y-77955837D01*
X154539917Y-77961577D01*
X154535128Y-77962432D01*
X154270912Y-78004281D01*
X154266082Y-78004949D01*
X154236809Y-78008412D01*
X154231965Y-78008889D01*
X154192885Y-78011963D01*
X154188026Y-78012250D01*
X154158612Y-78013405D01*
X154153747Y-78013500D01*
X153886253Y-78013500D01*
X153881388Y-78013405D01*
X153877757Y-78013262D01*
X152879757Y-78013262D01*
X152879757Y-77732033D01*
X152861741Y-77722854D01*
X152678259Y-77722854D01*
X152512405Y-77807360D01*
X152508023Y-77809485D01*
X152481248Y-77821828D01*
X152476780Y-77823783D01*
X152440564Y-77838781D01*
X152436033Y-77840554D01*
X152408424Y-77850738D01*
X152403830Y-77852331D01*
X152149409Y-77934999D01*
X152144746Y-77936413D01*
X152116367Y-77944416D01*
X152111648Y-77945647D01*
X152073529Y-77954795D01*
X152068779Y-77955837D01*
X152039917Y-77961577D01*
X152035128Y-77962432D01*
X151770912Y-78004281D01*
X151766082Y-78004949D01*
X151736809Y-78008412D01*
X151731965Y-78008889D01*
X151692885Y-78011963D01*
X151688026Y-78012250D01*
X151658612Y-78013405D01*
X151653747Y-78013500D01*
X151386253Y-78013500D01*
X151381388Y-78013405D01*
X151377757Y-78013262D01*
X150379757Y-78013262D01*
X150379757Y-77732033D01*
X150361741Y-77722854D01*
X148877757Y-77722854D01*
X148877757Y-79160643D01*
X147879757Y-79160643D01*
X147879757Y-77722854D01*
X147136824Y-77722854D01*
X147098913Y-77824501D01*
X147095525Y-77832682D01*
X147073267Y-77881419D01*
X147069305Y-77889333D01*
X147035128Y-77951923D01*
X147030610Y-77959537D01*
X147001646Y-78004604D01*
X146996598Y-78011874D01*
X146867614Y-78184173D01*
X146862061Y-78191064D01*
X146826981Y-78231549D01*
X146820949Y-78238028D01*
X146770528Y-78288449D01*
X146764049Y-78294481D01*
X146723564Y-78329561D01*
X146716673Y-78335114D01*
X146544374Y-78464098D01*
X146537104Y-78469146D01*
X146492037Y-78498110D01*
X146484423Y-78502628D01*
X146421833Y-78536805D01*
X146413919Y-78540767D01*
X146377757Y-78557282D01*
X141418797Y-78557282D01*
X141377757Y-78543947D01*
X141377757Y-79224854D01*
X140379757Y-79224854D01*
X140379757Y-78603767D01*
X140329990Y-78619938D01*
X140325326Y-78621353D01*
X140296949Y-78629355D01*
X140292232Y-78630585D01*
X140254114Y-78639733D01*
X140249363Y-78640775D01*
X140220500Y-78646515D01*
X140215712Y-78647370D01*
X139951127Y-78689277D01*
X139946303Y-78689945D01*
X139917069Y-78693405D01*
X139912232Y-78693881D01*
X139873153Y-78696959D01*
X139868288Y-78697246D01*
X139838836Y-78698404D01*
X139833964Y-78698500D01*
X139566036Y-78698500D01*
X139561164Y-78698404D01*
X139531712Y-78697246D01*
X139526847Y-78696959D01*
X139487768Y-78693881D01*
X139482931Y-78693405D01*
X139453697Y-78689945D01*
X139448873Y-78689277D01*
X139184288Y-78647370D01*
X139179500Y-78646515D01*
X139150637Y-78640775D01*
X139145886Y-78639733D01*
X139107768Y-78630585D01*
X139103051Y-78629355D01*
X139074674Y-78621353D01*
X139070010Y-78619938D01*
X138877757Y-78557471D01*
X138877757Y-79224854D01*
X137879757Y-79224854D01*
X137879757Y-77893493D01*
X137872164Y-77885900D01*
X137868790Y-77882391D01*
X137848797Y-77860763D01*
X137845562Y-77857123D01*
X137820104Y-77827316D01*
X137817016Y-77823553D01*
X137798778Y-77800419D01*
X137795838Y-77796536D01*
X137742305Y-77722854D01*
X137132529Y-77722854D01*
X137132331Y-79224854D01*
X136134332Y-79224854D01*
X136134751Y-76038146D01*
X138247000Y-76038146D01*
X138247000Y-76361853D01*
X138282778Y-76587746D01*
X138282778Y-76587749D01*
X138353450Y-76805255D01*
X138387736Y-76872544D01*
X138457283Y-77009038D01*
X138591714Y-77194066D01*
X138753434Y-77355786D01*
X138938462Y-77490217D01*
X139070599Y-77557544D01*
X139142244Y-77594049D01*
X139359751Y-77664721D01*
X139359752Y-77664721D01*
X139359755Y-77664722D01*
X139585646Y-77700500D01*
X139585647Y-77700500D01*
X139814353Y-77700500D01*
X139814354Y-77700500D01*
X140040245Y-77664722D01*
X140040248Y-77664721D01*
X140040249Y-77664721D01*
X140257755Y-77594049D01*
X140257755Y-77594048D01*
X140257758Y-77594048D01*
X140461538Y-77490217D01*
X140646566Y-77355786D01*
X140808286Y-77194066D01*
X140869992Y-77109134D01*
X140925319Y-77066470D01*
X140994932Y-77060491D01*
X141056727Y-77093096D01*
X141070626Y-77109135D01*
X141132097Y-77193741D01*
X141132097Y-77193742D01*
X141293757Y-77355402D01*
X141478723Y-77489788D01*
X141682429Y-77593582D01*
X141899871Y-77664234D01*
X141990000Y-77678509D01*
X141990000Y-76690747D01*
X142027708Y-76712518D01*
X142167591Y-76750000D01*
X142312409Y-76750000D01*
X142452292Y-76712518D01*
X142490000Y-76690747D01*
X142490000Y-77678508D01*
X142580128Y-77664234D01*
X142797570Y-77593582D01*
X143001276Y-77489788D01*
X143184059Y-77356988D01*
X143249865Y-77333508D01*
X143317919Y-77349333D01*
X143366614Y-77399439D01*
X143373127Y-77413974D01*
X143383701Y-77442326D01*
X143383706Y-77442335D01*
X143469952Y-77557544D01*
X143469955Y-77557547D01*
X143585164Y-77643793D01*
X143585171Y-77643797D01*
X143720017Y-77694091D01*
X143720016Y-77694091D01*
X143726944Y-77694835D01*
X143779627Y-77700500D01*
X145780372Y-77700499D01*
X145839983Y-77694091D01*
X145974831Y-77643796D01*
X146090046Y-77557546D01*
X146176296Y-77442331D01*
X146226591Y-77307483D01*
X146233000Y-77247873D01*
X146232999Y-75222854D01*
X147230999Y-75222854D01*
X147231000Y-76724854D01*
X147879757Y-76724854D01*
X148877757Y-76724854D01*
X149362959Y-76724854D01*
X149277640Y-76557405D01*
X149275515Y-76553023D01*
X149263172Y-76526248D01*
X149261217Y-76521780D01*
X149246219Y-76485564D01*
X149244446Y-76481033D01*
X149234262Y-76453424D01*
X149232669Y-76448830D01*
X149150001Y-76194409D01*
X149148587Y-76189746D01*
X149140584Y-76161367D01*
X149139353Y-76156648D01*
X149130205Y-76118529D01*
X149129163Y-76113779D01*
X149123423Y-76084917D01*
X149122568Y-76080128D01*
X149080719Y-75815912D01*
X149080051Y-75811082D01*
X149076588Y-75781809D01*
X149076111Y-75776965D01*
X149073037Y-75737885D01*
X149072750Y-75733026D01*
X149071595Y-75703612D01*
X149071500Y-75698747D01*
X149071500Y-75450837D01*
X150069500Y-75450837D01*
X150069500Y-75679162D01*
X150105215Y-75904660D01*
X150175770Y-76121803D01*
X150252508Y-76272409D01*
X150279421Y-76325228D01*
X150413621Y-76509937D01*
X150575063Y-76671379D01*
X150759772Y-76805579D01*
X150855884Y-76854550D01*
X150963196Y-76909229D01*
X150963198Y-76909229D01*
X150963201Y-76909231D01*
X151079592Y-76947049D01*
X151180339Y-76979784D01*
X151405838Y-77015500D01*
X151405843Y-77015500D01*
X151634162Y-77015500D01*
X151859660Y-76979784D01*
X152076799Y-76909231D01*
X152280228Y-76805579D01*
X152464937Y-76671379D01*
X152626379Y-76509937D01*
X152669683Y-76450333D01*
X152725012Y-76407670D01*
X152794626Y-76401691D01*
X152856421Y-76434297D01*
X152870313Y-76450329D01*
X152913621Y-76509937D01*
X153075063Y-76671379D01*
X153259772Y-76805579D01*
X153355884Y-76854550D01*
X153463196Y-76909229D01*
X153463198Y-76909229D01*
X153463201Y-76909231D01*
X153579592Y-76947049D01*
X153680339Y-76979784D01*
X153905838Y-77015500D01*
X153905843Y-77015500D01*
X154134162Y-77015500D01*
X154359660Y-76979784D01*
X154576799Y-76909231D01*
X154780228Y-76805579D01*
X154934564Y-76693446D01*
X155000368Y-76669967D01*
X155068422Y-76685792D01*
X155117117Y-76735897D01*
X155123629Y-76750429D01*
X155126202Y-76757327D01*
X155126206Y-76757335D01*
X155212452Y-76872544D01*
X155212455Y-76872547D01*
X155327664Y-76958793D01*
X155327671Y-76958797D01*
X155462517Y-77009091D01*
X155462516Y-77009091D01*
X155469444Y-77009835D01*
X155522127Y-77015500D01*
X157517872Y-77015499D01*
X157577483Y-77009091D01*
X157712331Y-76958796D01*
X157827546Y-76872546D01*
X157913796Y-76757331D01*
X157964091Y-76622483D01*
X157970500Y-76562873D01*
X157970499Y-74567128D01*
X157964091Y-74507517D01*
X157945854Y-74458622D01*
X157913797Y-74372671D01*
X157913793Y-74372664D01*
X157827547Y-74257455D01*
X157827544Y-74257452D01*
X157712335Y-74171206D01*
X157712328Y-74171202D01*
X157577482Y-74120908D01*
X157577483Y-74120908D01*
X157517883Y-74114501D01*
X157517881Y-74114500D01*
X157517873Y-74114500D01*
X157517864Y-74114500D01*
X155522129Y-74114500D01*
X155522123Y-74114501D01*
X155462516Y-74120908D01*
X155327671Y-74171202D01*
X155327664Y-74171206D01*
X155212455Y-74257452D01*
X155212452Y-74257455D01*
X155126206Y-74372664D01*
X155126202Y-74372672D01*
X155123629Y-74379571D01*
X155081757Y-74435504D01*
X155016292Y-74459919D01*
X154948019Y-74445066D01*
X154934571Y-74436559D01*
X154780228Y-74324421D01*
X154576803Y-74220770D01*
X154359660Y-74150215D01*
X154134162Y-74114500D01*
X154134157Y-74114500D01*
X153905843Y-74114500D01*
X153905838Y-74114500D01*
X153680339Y-74150215D01*
X153463196Y-74220770D01*
X153259771Y-74324421D01*
X153075061Y-74458622D01*
X152913623Y-74620060D01*
X152913616Y-74620069D01*
X152870317Y-74679664D01*
X152814987Y-74722330D01*
X152745373Y-74728308D01*
X152683579Y-74695701D01*
X152669683Y-74679664D01*
X152626383Y-74620069D01*
X152626379Y-74620063D01*
X152464937Y-74458621D01*
X152280228Y-74324421D01*
X152076803Y-74220770D01*
X151859660Y-74150215D01*
X151634162Y-74114500D01*
X151634157Y-74114500D01*
X151405843Y-74114500D01*
X151405838Y-74114500D01*
X151180339Y-74150215D01*
X150963196Y-74220770D01*
X150759771Y-74324421D01*
X150575061Y-74458622D01*
X150413622Y-74620061D01*
X150279421Y-74804771D01*
X150175770Y-75008196D01*
X150105215Y-75225339D01*
X150069500Y-75450837D01*
X149071500Y-75450837D01*
X149071500Y-75431253D01*
X149071595Y-75426388D01*
X149072750Y-75396974D01*
X149073037Y-75392115D01*
X149076111Y-75353035D01*
X149076588Y-75348191D01*
X149080051Y-75318918D01*
X149080719Y-75314088D01*
X149095169Y-75222854D01*
X148877757Y-75222854D01*
X148877757Y-76724854D01*
X147879757Y-76724854D01*
X147879757Y-75222854D01*
X147230999Y-75222854D01*
X146232999Y-75222854D01*
X146232999Y-75152128D01*
X146226591Y-75092517D01*
X146216841Y-75066377D01*
X146176297Y-74957671D01*
X146176293Y-74957664D01*
X146090047Y-74842455D01*
X146090044Y-74842452D01*
X145974835Y-74756206D01*
X145974828Y-74756202D01*
X145839982Y-74705908D01*
X145839983Y-74705908D01*
X145780383Y-74699501D01*
X145780381Y-74699500D01*
X145780373Y-74699500D01*
X145780364Y-74699500D01*
X143779629Y-74699500D01*
X143779623Y-74699501D01*
X143720016Y-74705908D01*
X143585171Y-74756202D01*
X143585164Y-74756206D01*
X143469955Y-74842452D01*
X143469952Y-74842455D01*
X143383706Y-74957664D01*
X143383702Y-74957671D01*
X143373127Y-74986026D01*
X143331256Y-75041960D01*
X143265791Y-75066377D01*
X143197518Y-75051525D01*
X143184060Y-75043011D01*
X143001279Y-74910213D01*
X142797568Y-74806417D01*
X142580124Y-74735765D01*
X142490000Y-74721490D01*
X142490000Y-75709252D01*
X142452292Y-75687482D01*
X142312409Y-75650000D01*
X142167591Y-75650000D01*
X142027708Y-75687482D01*
X141990000Y-75709252D01*
X141990000Y-74721490D01*
X141989999Y-74721490D01*
X141899875Y-74735765D01*
X141682431Y-74806417D01*
X141478723Y-74910211D01*
X141293757Y-75044597D01*
X141132097Y-75206257D01*
X141070627Y-75290864D01*
X141015297Y-75333529D01*
X140945684Y-75339508D01*
X140883889Y-75306902D01*
X140869991Y-75290864D01*
X140808286Y-75205934D01*
X140646566Y-75044214D01*
X140461538Y-74909783D01*
X140257755Y-74805950D01*
X140040248Y-74735278D01*
X139854812Y-74705908D01*
X139814354Y-74699500D01*
X139585646Y-74699500D01*
X139545188Y-74705908D01*
X139359753Y-74735278D01*
X139359750Y-74735278D01*
X139142244Y-74805950D01*
X138938461Y-74909783D01*
X138872550Y-74957671D01*
X138753434Y-75044214D01*
X138753432Y-75044216D01*
X138753431Y-75044216D01*
X138591716Y-75205931D01*
X138591716Y-75205932D01*
X138591714Y-75205934D01*
X138577615Y-75225340D01*
X138457283Y-75390961D01*
X138353450Y-75594744D01*
X138282778Y-75812250D01*
X138282778Y-75812253D01*
X138247000Y-76038146D01*
X136134751Y-76038146D01*
X136134989Y-74224854D01*
X137132988Y-74224854D01*
X137879757Y-74224854D01*
X137879757Y-72740726D01*
X138877757Y-72740726D01*
X138877757Y-73842528D01*
X139070010Y-73780062D01*
X139074674Y-73778647D01*
X139103051Y-73770645D01*
X139107768Y-73769415D01*
X139145886Y-73760267D01*
X139150637Y-73759225D01*
X139179500Y-73753485D01*
X139184288Y-73752630D01*
X139448873Y-73710723D01*
X139453697Y-73710055D01*
X139482931Y-73706595D01*
X139487768Y-73706119D01*
X139526847Y-73703041D01*
X139531712Y-73702754D01*
X139561164Y-73701596D01*
X139566036Y-73701500D01*
X139833964Y-73701500D01*
X139838836Y-73701596D01*
X139868288Y-73702754D01*
X139873153Y-73703041D01*
X139912232Y-73706119D01*
X139917069Y-73706595D01*
X139946303Y-73710055D01*
X139951127Y-73710723D01*
X140215712Y-73752630D01*
X140220500Y-73753485D01*
X140249363Y-73759225D01*
X140254114Y-73760267D01*
X140292232Y-73769415D01*
X140296949Y-73770645D01*
X140325326Y-73778647D01*
X140329990Y-73780062D01*
X140379757Y-73796232D01*
X140379757Y-72741231D01*
X141377757Y-72741231D01*
X141377757Y-73856052D01*
X141610105Y-73780558D01*
X141614762Y-73779145D01*
X141643094Y-73771154D01*
X141647803Y-73769925D01*
X141685917Y-73760773D01*
X141690672Y-73759730D01*
X141719577Y-73753979D01*
X141724375Y-73753122D01*
X142052860Y-73701092D01*
X142105916Y-73704220D01*
X142240000Y-73742034D01*
X142374084Y-73704220D01*
X142427140Y-73701092D01*
X142755625Y-73753122D01*
X142760423Y-73753979D01*
X142789328Y-73759730D01*
X142794083Y-73760773D01*
X142832197Y-73769925D01*
X142836906Y-73771154D01*
X142865238Y-73779145D01*
X142869895Y-73780558D01*
X142879757Y-73783762D01*
X142879757Y-72759733D01*
X143877757Y-72759733D01*
X143877757Y-73701500D01*
X145379757Y-73701500D01*
X145379757Y-72760238D01*
X146377757Y-72760238D01*
X146377757Y-73842717D01*
X146413919Y-73859233D01*
X146421833Y-73863195D01*
X146484423Y-73897372D01*
X146492037Y-73901890D01*
X146537104Y-73930854D01*
X146544374Y-73935902D01*
X146716673Y-74064886D01*
X146723564Y-74070439D01*
X146764049Y-74105519D01*
X146770528Y-74111551D01*
X146820949Y-74161972D01*
X146826981Y-74168451D01*
X146862061Y-74208936D01*
X146867615Y-74215827D01*
X146874373Y-74224854D01*
X147879757Y-74224854D01*
X148877757Y-74224854D01*
X149467160Y-74224854D01*
X149617746Y-74017592D01*
X149620686Y-74013709D01*
X149638923Y-73990576D01*
X149642011Y-73986813D01*
X149667469Y-73957006D01*
X149670704Y-73953366D01*
X149690697Y-73931738D01*
X149694071Y-73928229D01*
X149883229Y-73739071D01*
X149886738Y-73735697D01*
X149908366Y-73715704D01*
X149912006Y-73712469D01*
X149941813Y-73687011D01*
X149945576Y-73683923D01*
X149968709Y-73665686D01*
X149972592Y-73662746D01*
X150189018Y-73505502D01*
X150193013Y-73502718D01*
X150217511Y-73486349D01*
X150221613Y-73483723D01*
X150255037Y-73463241D01*
X150259235Y-73460780D01*
X150284931Y-73446389D01*
X150289227Y-73444093D01*
X150379757Y-73397965D01*
X150379757Y-73116737D01*
X151377757Y-73116737D01*
X151381388Y-73116595D01*
X151386253Y-73116500D01*
X151653747Y-73116500D01*
X151658612Y-73116595D01*
X151688026Y-73117750D01*
X151692885Y-73118037D01*
X151731965Y-73121111D01*
X151736809Y-73121588D01*
X151766082Y-73125051D01*
X151770912Y-73125719D01*
X152035128Y-73167568D01*
X152039917Y-73168423D01*
X152068779Y-73174163D01*
X152073529Y-73175205D01*
X152111648Y-73184353D01*
X152116367Y-73185584D01*
X152144746Y-73193587D01*
X152149409Y-73195001D01*
X152403830Y-73277669D01*
X152408424Y-73279262D01*
X152436033Y-73289446D01*
X152440564Y-73291219D01*
X152476780Y-73306217D01*
X152481248Y-73308172D01*
X152508023Y-73320515D01*
X152512405Y-73322640D01*
X152750772Y-73444093D01*
X152755069Y-73446389D01*
X152770000Y-73454751D01*
X152784931Y-73446389D01*
X152789227Y-73444093D01*
X152879757Y-73397965D01*
X152879757Y-73116737D01*
X153877757Y-73116737D01*
X153881388Y-73116595D01*
X153886253Y-73116500D01*
X154153747Y-73116500D01*
X154158612Y-73116595D01*
X154188026Y-73117750D01*
X154192885Y-73118037D01*
X154231965Y-73121111D01*
X154236809Y-73121588D01*
X154266082Y-73125051D01*
X154270912Y-73125719D01*
X154535128Y-73167568D01*
X154539917Y-73168423D01*
X154568779Y-73174163D01*
X154573529Y-73175205D01*
X154611648Y-73184353D01*
X154616367Y-73185584D01*
X154644746Y-73193587D01*
X154649409Y-73195001D01*
X154890524Y-73273345D01*
X154937318Y-73251975D01*
X154945498Y-73248587D01*
X155142982Y-73174931D01*
X155150321Y-73172452D01*
X155195172Y-73158847D01*
X155202648Y-73156832D01*
X155263363Y-73142484D01*
X155270955Y-73140939D01*
X155317160Y-73133028D01*
X155324833Y-73131959D01*
X155379757Y-73126055D01*
X155379757Y-73116500D01*
X156377757Y-73116500D01*
X157531248Y-73116500D01*
X157534572Y-73116545D01*
X157554674Y-73117084D01*
X157557994Y-73117217D01*
X157584680Y-73118649D01*
X157587989Y-73118871D01*
X157607982Y-73120481D01*
X157611285Y-73120792D01*
X157715175Y-73131962D01*
X157722843Y-73133029D01*
X157769029Y-73140936D01*
X157776619Y-73142481D01*
X157837330Y-73156826D01*
X157844809Y-73158842D01*
X157879757Y-73169442D01*
X157879757Y-72722854D01*
X156377757Y-72722854D01*
X156377757Y-73116500D01*
X155379757Y-73116500D01*
X155379757Y-72722854D01*
X153877757Y-72722854D01*
X153877757Y-73116737D01*
X152879757Y-73116737D01*
X152879757Y-72722854D01*
X151377757Y-72722854D01*
X151377757Y-73116737D01*
X150379757Y-73116737D01*
X150379757Y-72722854D01*
X148877757Y-72722854D01*
X148877757Y-74224854D01*
X147879757Y-74224854D01*
X147879757Y-72722854D01*
X146591879Y-72722854D01*
X146568403Y-72728488D01*
X146563652Y-72729530D01*
X146534789Y-72735270D01*
X146530001Y-72736125D01*
X146377757Y-72760238D01*
X145379757Y-72760238D01*
X145379757Y-72722854D01*
X144089732Y-72722854D01*
X144068285Y-72728001D01*
X144063536Y-72729043D01*
X144034674Y-72734783D01*
X144029885Y-72735638D01*
X143877757Y-72759733D01*
X142879757Y-72759733D01*
X142879757Y-72722854D01*
X141471879Y-72722854D01*
X141448403Y-72728488D01*
X141443652Y-72729530D01*
X141414789Y-72735270D01*
X141410001Y-72736125D01*
X141377757Y-72741231D01*
X140379757Y-72741231D01*
X140379757Y-72722854D01*
X138969732Y-72722854D01*
X138948285Y-72728001D01*
X138943536Y-72729043D01*
X138914674Y-72734783D01*
X138909885Y-72735638D01*
X138877757Y-72740726D01*
X137879757Y-72740726D01*
X137879757Y-72722854D01*
X137133186Y-72722854D01*
X137132988Y-74224854D01*
X136134989Y-74224854D01*
X136135494Y-70382682D01*
X137130000Y-70382682D01*
X137130000Y-70587317D01*
X137162009Y-70789417D01*
X137225244Y-70984031D01*
X137318141Y-71166350D01*
X137318147Y-71166359D01*
X137350523Y-71210921D01*
X137350524Y-71210922D01*
X138030000Y-70531446D01*
X138030000Y-70537661D01*
X138057259Y-70639394D01*
X138109920Y-70730606D01*
X138184394Y-70805080D01*
X138275606Y-70857741D01*
X138377339Y-70885000D01*
X138383553Y-70885000D01*
X137704076Y-71564474D01*
X137748650Y-71596859D01*
X137930968Y-71689755D01*
X138125582Y-71752990D01*
X138327683Y-71785000D01*
X138532317Y-71785000D01*
X138734417Y-71752990D01*
X138929031Y-71689755D01*
X139111349Y-71596859D01*
X139155921Y-71564474D01*
X138476447Y-70885000D01*
X138482661Y-70885000D01*
X138584394Y-70857741D01*
X138675606Y-70805080D01*
X138750080Y-70730606D01*
X138802741Y-70639394D01*
X138830000Y-70537661D01*
X138830000Y-70531448D01*
X139509474Y-71210922D01*
X139509474Y-71210921D01*
X139541859Y-71166349D01*
X139569233Y-71112624D01*
X139617207Y-71061827D01*
X139685028Y-71045031D01*
X139751163Y-71067567D01*
X139790203Y-71112621D01*
X139817713Y-71166611D01*
X139938028Y-71332213D01*
X140082786Y-71476971D01*
X140203226Y-71564474D01*
X140248390Y-71597287D01*
X140364607Y-71656503D01*
X140430776Y-71690218D01*
X140430778Y-71690218D01*
X140430781Y-71690220D01*
X140535137Y-71724127D01*
X140625465Y-71753477D01*
X140726557Y-71769488D01*
X140827648Y-71785500D01*
X140827649Y-71785500D01*
X141032351Y-71785500D01*
X141032352Y-71785500D01*
X141234534Y-71753477D01*
X141429219Y-71690220D01*
X141611610Y-71597287D01*
X141704590Y-71529732D01*
X141777213Y-71476971D01*
X141777215Y-71476968D01*
X141777219Y-71476966D01*
X141921966Y-71332219D01*
X141921968Y-71332215D01*
X141921971Y-71332213D01*
X142042284Y-71166614D01*
X142042286Y-71166611D01*
X142042287Y-71166610D01*
X142129796Y-70994863D01*
X142177769Y-70944069D01*
X142245590Y-70927274D01*
X142311725Y-70949811D01*
X142350765Y-70994865D01*
X142438141Y-71166350D01*
X142438147Y-71166359D01*
X142470523Y-71210921D01*
X142470524Y-71210922D01*
X143150000Y-70531446D01*
X143150000Y-70537661D01*
X143177259Y-70639394D01*
X143229920Y-70730606D01*
X143304394Y-70805080D01*
X143395606Y-70857741D01*
X143497339Y-70885000D01*
X143503553Y-70885000D01*
X142824076Y-71564474D01*
X142868650Y-71596859D01*
X143050968Y-71689755D01*
X143245582Y-71752990D01*
X143447683Y-71785000D01*
X143652317Y-71785000D01*
X143854417Y-71752990D01*
X144049031Y-71689755D01*
X144231349Y-71596859D01*
X144275921Y-71564474D01*
X143596447Y-70885000D01*
X143602661Y-70885000D01*
X143704394Y-70857741D01*
X143795606Y-70805080D01*
X143870080Y-70730606D01*
X143922741Y-70639394D01*
X143950000Y-70537661D01*
X143950000Y-70531447D01*
X144629474Y-71210921D01*
X144661859Y-71166349D01*
X144689233Y-71112624D01*
X144737207Y-71061827D01*
X144805028Y-71045031D01*
X144871163Y-71067567D01*
X144910203Y-71112621D01*
X144937713Y-71166611D01*
X145058028Y-71332213D01*
X145202786Y-71476971D01*
X145323226Y-71564474D01*
X145368390Y-71597287D01*
X145484607Y-71656503D01*
X145550776Y-71690218D01*
X145550778Y-71690218D01*
X145550781Y-71690220D01*
X145655137Y-71724127D01*
X145745465Y-71753477D01*
X145846557Y-71769488D01*
X145947648Y-71785500D01*
X145947649Y-71785500D01*
X146152351Y-71785500D01*
X146152352Y-71785500D01*
X146354534Y-71753477D01*
X146442627Y-71724854D01*
X148877757Y-71724854D01*
X150379757Y-71724854D01*
X151377757Y-71724854D01*
X152879757Y-71724854D01*
X153877757Y-71724854D01*
X155379757Y-71724854D01*
X156377757Y-71724854D01*
X157879757Y-71724854D01*
X157879757Y-70222854D01*
X156377757Y-70222854D01*
X156377757Y-71724854D01*
X155379757Y-71724854D01*
X155379757Y-70222854D01*
X153877757Y-70222854D01*
X153877757Y-71724854D01*
X152879757Y-71724854D01*
X152879757Y-70222854D01*
X151377757Y-70222854D01*
X151377757Y-71724854D01*
X150379757Y-71724854D01*
X150379757Y-70222854D01*
X148877757Y-70222854D01*
X148877757Y-71724854D01*
X146442627Y-71724854D01*
X146549219Y-71690220D01*
X146731610Y-71597287D01*
X146824590Y-71529732D01*
X146897213Y-71476971D01*
X146897215Y-71476968D01*
X146897219Y-71476966D01*
X147041966Y-71332219D01*
X147041968Y-71332215D01*
X147041971Y-71332213D01*
X147094732Y-71259590D01*
X147162287Y-71166610D01*
X147255220Y-70984219D01*
X147318477Y-70789534D01*
X147350500Y-70587352D01*
X147350500Y-70382648D01*
X147342257Y-70330606D01*
X147318477Y-70180465D01*
X147266399Y-70020187D01*
X147255220Y-69985781D01*
X147255218Y-69985778D01*
X147255218Y-69985776D01*
X147212750Y-69902429D01*
X147162287Y-69803390D01*
X147130092Y-69759077D01*
X147041971Y-69637786D01*
X146897213Y-69493028D01*
X146731613Y-69372715D01*
X146731612Y-69372714D01*
X146731610Y-69372713D01*
X146666004Y-69339285D01*
X146549223Y-69279781D01*
X146380177Y-69224854D01*
X148877757Y-69224854D01*
X150273046Y-69224854D01*
X150267559Y-69222581D01*
X150218823Y-69200323D01*
X150210909Y-69196362D01*
X150148319Y-69162185D01*
X150140705Y-69157667D01*
X150095638Y-69128703D01*
X150088368Y-69123655D01*
X149916184Y-68994757D01*
X149909293Y-68989204D01*
X149868808Y-68954124D01*
X149862329Y-68948092D01*
X149811908Y-68897671D01*
X149805876Y-68891192D01*
X149770796Y-68850707D01*
X149765243Y-68843816D01*
X149636345Y-68671632D01*
X149631297Y-68664362D01*
X149602333Y-68619295D01*
X149597815Y-68611681D01*
X149563638Y-68549091D01*
X149559677Y-68541177D01*
X149537419Y-68492441D01*
X149534030Y-68484261D01*
X149460421Y-68286904D01*
X149457942Y-68279564D01*
X149444332Y-68234695D01*
X149442315Y-68227212D01*
X149427972Y-68166501D01*
X149426428Y-68158916D01*
X149418522Y-68112738D01*
X149417455Y-68105069D01*
X149406289Y-68001217D01*
X149405977Y-67997905D01*
X149404364Y-67977856D01*
X149404142Y-67974542D01*
X149402713Y-67947855D01*
X149402580Y-67944539D01*
X149402044Y-67924491D01*
X149402000Y-67921177D01*
X149402000Y-67722854D01*
X148877757Y-67722854D01*
X148877757Y-69224854D01*
X146380177Y-69224854D01*
X146354534Y-69216522D01*
X146179995Y-69188878D01*
X146152352Y-69184500D01*
X145947648Y-69184500D01*
X145923329Y-69188351D01*
X145745465Y-69216522D01*
X145550776Y-69279781D01*
X145368386Y-69372715D01*
X145202786Y-69493028D01*
X145058028Y-69637786D01*
X144937714Y-69803386D01*
X144910203Y-69857379D01*
X144862227Y-69908174D01*
X144794406Y-69924968D01*
X144728272Y-69902429D01*
X144689234Y-69857376D01*
X144661861Y-69803652D01*
X144629474Y-69759077D01*
X144629474Y-69759076D01*
X143950000Y-70438551D01*
X143950000Y-70432339D01*
X143922741Y-70330606D01*
X143870080Y-70239394D01*
X143795606Y-70164920D01*
X143704394Y-70112259D01*
X143602661Y-70085000D01*
X143596446Y-70085000D01*
X144275922Y-69405524D01*
X144275921Y-69405523D01*
X144231359Y-69373147D01*
X144231350Y-69373141D01*
X144049031Y-69280244D01*
X143854417Y-69217009D01*
X143652317Y-69185000D01*
X143447683Y-69185000D01*
X143245582Y-69217009D01*
X143050968Y-69280244D01*
X142868644Y-69373143D01*
X142824077Y-69405523D01*
X142824077Y-69405524D01*
X143503554Y-70085000D01*
X143497339Y-70085000D01*
X143395606Y-70112259D01*
X143304394Y-70164920D01*
X143229920Y-70239394D01*
X143177259Y-70330606D01*
X143150000Y-70432339D01*
X143150000Y-70438553D01*
X142470524Y-69759077D01*
X142470523Y-69759077D01*
X142438143Y-69803644D01*
X142350765Y-69975134D01*
X142302790Y-70025930D01*
X142234969Y-70042725D01*
X142168834Y-70020187D01*
X142129795Y-69975134D01*
X142092750Y-69902429D01*
X142042287Y-69803390D01*
X142042285Y-69803387D01*
X142042284Y-69803385D01*
X141921971Y-69637786D01*
X141777213Y-69493028D01*
X141611613Y-69372715D01*
X141611612Y-69372714D01*
X141611610Y-69372713D01*
X141546004Y-69339285D01*
X141429223Y-69279781D01*
X141234534Y-69216522D01*
X141059995Y-69188878D01*
X141032352Y-69184500D01*
X140827648Y-69184500D01*
X140803329Y-69188351D01*
X140625465Y-69216522D01*
X140430776Y-69279781D01*
X140248386Y-69372715D01*
X140082786Y-69493028D01*
X139938028Y-69637786D01*
X139817714Y-69803386D01*
X139790203Y-69857379D01*
X139742227Y-69908174D01*
X139674406Y-69924968D01*
X139608272Y-69902429D01*
X139569234Y-69857376D01*
X139541861Y-69803652D01*
X139509474Y-69759077D01*
X139509474Y-69759076D01*
X138830000Y-70438551D01*
X138830000Y-70432339D01*
X138802741Y-70330606D01*
X138750080Y-70239394D01*
X138675606Y-70164920D01*
X138584394Y-70112259D01*
X138482661Y-70085000D01*
X138476446Y-70085000D01*
X139155922Y-69405524D01*
X139155921Y-69405523D01*
X139111359Y-69373147D01*
X139111350Y-69373141D01*
X138929031Y-69280244D01*
X138734417Y-69217009D01*
X138532317Y-69185000D01*
X138327683Y-69185000D01*
X138125582Y-69217009D01*
X137930968Y-69280244D01*
X137748644Y-69373143D01*
X137704077Y-69405523D01*
X137704077Y-69405524D01*
X138383554Y-70085000D01*
X138377339Y-70085000D01*
X138275606Y-70112259D01*
X138184394Y-70164920D01*
X138109920Y-70239394D01*
X138057259Y-70330606D01*
X138030000Y-70432339D01*
X138030000Y-70438553D01*
X137350524Y-69759077D01*
X137350523Y-69759077D01*
X137318143Y-69803644D01*
X137225244Y-69985968D01*
X137162009Y-70180582D01*
X137130000Y-70382682D01*
X136135494Y-70382682D01*
X136135730Y-68586309D01*
X137133730Y-68586309D01*
X137177920Y-68554204D01*
X137181920Y-68551416D01*
X137206441Y-68535034D01*
X137210545Y-68532408D01*
X137243969Y-68511930D01*
X137248166Y-68509470D01*
X137273834Y-68495097D01*
X137278122Y-68492805D01*
X137495366Y-68382114D01*
X137499749Y-68379989D01*
X137526524Y-68367646D01*
X137530992Y-68365691D01*
X137567208Y-68350693D01*
X137571739Y-68348920D01*
X137599348Y-68338736D01*
X137603942Y-68337143D01*
X137835834Y-68261795D01*
X137840497Y-68260381D01*
X137868876Y-68252378D01*
X137873595Y-68251147D01*
X137879757Y-68249668D01*
X137879757Y-68229273D01*
X138877757Y-68229273D01*
X138909886Y-68234362D01*
X138914674Y-68235217D01*
X138943536Y-68240957D01*
X138948286Y-68241999D01*
X138986405Y-68251147D01*
X138991124Y-68252378D01*
X139019503Y-68260381D01*
X139024166Y-68261795D01*
X139256058Y-68337143D01*
X139260652Y-68338736D01*
X139288261Y-68348920D01*
X139292792Y-68350693D01*
X139329008Y-68365691D01*
X139333476Y-68367646D01*
X139360251Y-68379989D01*
X139364634Y-68382114D01*
X139581884Y-68492808D01*
X139586175Y-68495102D01*
X139611854Y-68509482D01*
X139616049Y-68511940D01*
X139649474Y-68532419D01*
X139653583Y-68535049D01*
X139678095Y-68551427D01*
X139679563Y-68552450D01*
X139681637Y-68551005D01*
X139706131Y-68534639D01*
X139710233Y-68532014D01*
X139743656Y-68511533D01*
X139747856Y-68509071D01*
X139773552Y-68494681D01*
X139777845Y-68492386D01*
X139995173Y-68381651D01*
X139999557Y-68379525D01*
X140026333Y-68367182D01*
X140030800Y-68365228D01*
X140067016Y-68350230D01*
X140071547Y-68348457D01*
X140099156Y-68338273D01*
X140103750Y-68336680D01*
X140335717Y-68261308D01*
X140340380Y-68259894D01*
X140368759Y-68251891D01*
X140373478Y-68250660D01*
X140379757Y-68249153D01*
X140379757Y-68228767D01*
X141377757Y-68228767D01*
X141410002Y-68233875D01*
X141414789Y-68234730D01*
X141443652Y-68240470D01*
X141448403Y-68241512D01*
X141486522Y-68250660D01*
X141491241Y-68251891D01*
X141519620Y-68259894D01*
X141524283Y-68261308D01*
X141756250Y-68336680D01*
X141760844Y-68338273D01*
X141788453Y-68348457D01*
X141792984Y-68350230D01*
X141829200Y-68365228D01*
X141833667Y-68367182D01*
X141860443Y-68379525D01*
X141864827Y-68381651D01*
X142082155Y-68492386D01*
X142086448Y-68494681D01*
X142112144Y-68509071D01*
X142116344Y-68511533D01*
X142149767Y-68532014D01*
X142153869Y-68534639D01*
X142178363Y-68551005D01*
X142182358Y-68553790D01*
X142240423Y-68595976D01*
X142297920Y-68554204D01*
X142301920Y-68551416D01*
X142326441Y-68535034D01*
X142330545Y-68532408D01*
X142363969Y-68511930D01*
X142368166Y-68509470D01*
X142393834Y-68495097D01*
X142398122Y-68492805D01*
X142615366Y-68382114D01*
X142619749Y-68379989D01*
X142646524Y-68367646D01*
X142650992Y-68365691D01*
X142687208Y-68350693D01*
X142691739Y-68348920D01*
X142719348Y-68338736D01*
X142723942Y-68337143D01*
X142879757Y-68286514D01*
X142879757Y-68210266D01*
X143877757Y-68210266D01*
X144029885Y-68234362D01*
X144034674Y-68235217D01*
X144063536Y-68240957D01*
X144068286Y-68241999D01*
X144106405Y-68251147D01*
X144111124Y-68252378D01*
X144139503Y-68260381D01*
X144144166Y-68261795D01*
X144376058Y-68337143D01*
X144380652Y-68338736D01*
X144408261Y-68348920D01*
X144412792Y-68350693D01*
X144449008Y-68365691D01*
X144453476Y-68367646D01*
X144480251Y-68379989D01*
X144484634Y-68382114D01*
X144701884Y-68492808D01*
X144706175Y-68495102D01*
X144731854Y-68509482D01*
X144736049Y-68511940D01*
X144769474Y-68532419D01*
X144773583Y-68535049D01*
X144798095Y-68551427D01*
X144799563Y-68552450D01*
X144801637Y-68551005D01*
X144826131Y-68534639D01*
X144830233Y-68532014D01*
X144863656Y-68511533D01*
X144867856Y-68509071D01*
X144893552Y-68494681D01*
X144897845Y-68492386D01*
X145115173Y-68381651D01*
X145119557Y-68379525D01*
X145146333Y-68367182D01*
X145150800Y-68365228D01*
X145187016Y-68350230D01*
X145191547Y-68348457D01*
X145219156Y-68338273D01*
X145223750Y-68336680D01*
X145379757Y-68285989D01*
X145379757Y-68209761D01*
X146377757Y-68209761D01*
X146530001Y-68233875D01*
X146534789Y-68234730D01*
X146563652Y-68240470D01*
X146568403Y-68241512D01*
X146606522Y-68250660D01*
X146611241Y-68251891D01*
X146639620Y-68259894D01*
X146644283Y-68261308D01*
X146876250Y-68336680D01*
X146880844Y-68338273D01*
X146908453Y-68348457D01*
X146912984Y-68350230D01*
X146949200Y-68365228D01*
X146953667Y-68367182D01*
X146980443Y-68379525D01*
X146984827Y-68381651D01*
X147202155Y-68492386D01*
X147206448Y-68494681D01*
X147232144Y-68509071D01*
X147236344Y-68511533D01*
X147269767Y-68532014D01*
X147273869Y-68534639D01*
X147298363Y-68551005D01*
X147302358Y-68553790D01*
X147499696Y-68697163D01*
X147503584Y-68700106D01*
X147526743Y-68718365D01*
X147530508Y-68721455D01*
X147560315Y-68746916D01*
X147563954Y-68750150D01*
X147585559Y-68770124D01*
X147589063Y-68773494D01*
X147761506Y-68945937D01*
X147764876Y-68949441D01*
X147784850Y-68971046D01*
X147788084Y-68974685D01*
X147813545Y-69004492D01*
X147816635Y-69008257D01*
X147834894Y-69031416D01*
X147837837Y-69035304D01*
X147879757Y-69093002D01*
X147879757Y-67722854D01*
X146377757Y-67722854D01*
X146377757Y-68209761D01*
X145379757Y-68209761D01*
X145379757Y-67722854D01*
X143877757Y-67722854D01*
X143877757Y-68210266D01*
X142879757Y-68210266D01*
X142879757Y-67722854D01*
X141377757Y-67722854D01*
X141377757Y-68228767D01*
X140379757Y-68228767D01*
X140379757Y-67722854D01*
X138877757Y-67722854D01*
X138877757Y-68229273D01*
X137879757Y-68229273D01*
X137879757Y-67722854D01*
X137133844Y-67722854D01*
X137133730Y-68586309D01*
X136135730Y-68586309D01*
X136135975Y-66724854D01*
X137133974Y-66724854D01*
X137879757Y-66724854D01*
X137879757Y-66473674D01*
X141377757Y-66473674D01*
X141377757Y-66724854D01*
X142879757Y-66724854D01*
X142879757Y-66483500D01*
X142749103Y-66483500D01*
X142744231Y-66483404D01*
X142714779Y-66482246D01*
X142709914Y-66481959D01*
X142670835Y-66478881D01*
X142665997Y-66478404D01*
X142636764Y-66474944D01*
X142631941Y-66474277D01*
X142383272Y-66434892D01*
X142378477Y-66434036D01*
X142349577Y-66428287D01*
X142344817Y-66427242D01*
X142306700Y-66418089D01*
X142301995Y-66416862D01*
X142273653Y-66408869D01*
X142268993Y-66407455D01*
X142029560Y-66329658D01*
X142024963Y-66328064D01*
X141997353Y-66317879D01*
X141992825Y-66316107D01*
X141956608Y-66301109D01*
X141952139Y-66299154D01*
X141932442Y-66290074D01*
X141874333Y-66321805D01*
X141866419Y-66325767D01*
X141817682Y-66348025D01*
X141809502Y-66351413D01*
X141612018Y-66425069D01*
X141604679Y-66427548D01*
X141559828Y-66441153D01*
X141552352Y-66443168D01*
X141491637Y-66457516D01*
X141484045Y-66459061D01*
X141437840Y-66466972D01*
X141430167Y-66468041D01*
X141377757Y-66473674D01*
X137879757Y-66473674D01*
X137879757Y-66259852D01*
X143877757Y-66259852D01*
X143877757Y-66724854D01*
X145379757Y-66724854D01*
X145379757Y-66483500D01*
X145289103Y-66483500D01*
X145284231Y-66483404D01*
X145254779Y-66482246D01*
X145249914Y-66481959D01*
X145210835Y-66478881D01*
X145205997Y-66478404D01*
X145176764Y-66474944D01*
X145171941Y-66474277D01*
X144923272Y-66434892D01*
X144918477Y-66434036D01*
X144889577Y-66428287D01*
X144884817Y-66427242D01*
X144846700Y-66418089D01*
X144841995Y-66416862D01*
X144813653Y-66408869D01*
X144808993Y-66407455D01*
X144569560Y-66329658D01*
X144564963Y-66328064D01*
X144537353Y-66317879D01*
X144532825Y-66316107D01*
X144496608Y-66301109D01*
X144492139Y-66299154D01*
X144465364Y-66286811D01*
X144460981Y-66284686D01*
X144452241Y-66280233D01*
X146377757Y-66280233D01*
X146377757Y-66724854D01*
X147879757Y-66724854D01*
X148877757Y-66724854D01*
X149402000Y-66724854D01*
X149402000Y-66409454D01*
X149411439Y-66362002D01*
X149412268Y-66360000D01*
X149411439Y-66357998D01*
X149402000Y-66310546D01*
X149402000Y-65222854D01*
X148877757Y-65222854D01*
X148877757Y-66724854D01*
X147879757Y-66724854D01*
X147879757Y-65222854D01*
X147496494Y-65222854D01*
X147450378Y-65313361D01*
X147448083Y-65317654D01*
X147433693Y-65343350D01*
X147431231Y-65347550D01*
X147410750Y-65380973D01*
X147408126Y-65385073D01*
X147391760Y-65409568D01*
X147388974Y-65413565D01*
X147240975Y-65617269D01*
X147238032Y-65621157D01*
X147219773Y-65644316D01*
X147216683Y-65648081D01*
X147191222Y-65677888D01*
X147187988Y-65681527D01*
X147168014Y-65703132D01*
X147164644Y-65706636D01*
X146986636Y-65884644D01*
X146983132Y-65888014D01*
X146961527Y-65907988D01*
X146957888Y-65911222D01*
X146928081Y-65936683D01*
X146924316Y-65939773D01*
X146901157Y-65958032D01*
X146897269Y-65960975D01*
X146693565Y-66108974D01*
X146689568Y-66111760D01*
X146665073Y-66128126D01*
X146660973Y-66130750D01*
X146627550Y-66151231D01*
X146623350Y-66153693D01*
X146597654Y-66168083D01*
X146593361Y-66170378D01*
X146377757Y-66280233D01*
X144452241Y-66280233D01*
X144236639Y-66170378D01*
X144232346Y-66168083D01*
X144206650Y-66153693D01*
X144202450Y-66151231D01*
X144169027Y-66130750D01*
X144164927Y-66128126D01*
X144145000Y-66114812D01*
X144125073Y-66128126D01*
X144120973Y-66130750D01*
X144087550Y-66151231D01*
X144083350Y-66153693D01*
X144057654Y-66168083D01*
X144053361Y-66170378D01*
X143877757Y-66259852D01*
X137879757Y-66259852D01*
X137879757Y-65222854D01*
X137134172Y-65222854D01*
X137133974Y-66724854D01*
X136135975Y-66724854D01*
X136136303Y-64224854D01*
X137134303Y-64224854D01*
X137879757Y-64224854D01*
X137879757Y-63474414D01*
X137134401Y-63474456D01*
X137134303Y-64224854D01*
X136136303Y-64224854D01*
X136136433Y-63237135D01*
X138984500Y-63237135D01*
X138984500Y-65032870D01*
X138984501Y-65032876D01*
X138990908Y-65092483D01*
X139041202Y-65227328D01*
X139041206Y-65227335D01*
X139127452Y-65342544D01*
X139127455Y-65342547D01*
X139242664Y-65428793D01*
X139242671Y-65428797D01*
X139377517Y-65479091D01*
X139377516Y-65479091D01*
X139384444Y-65479835D01*
X139437127Y-65485500D01*
X141232872Y-65485499D01*
X141292483Y-65479091D01*
X141427331Y-65428796D01*
X141542546Y-65342546D01*
X141628796Y-65227331D01*
X141677810Y-65095916D01*
X141719681Y-65039984D01*
X141785145Y-65015566D01*
X141853418Y-65030417D01*
X141881673Y-65051569D01*
X141995213Y-65165109D01*
X142167179Y-65290048D01*
X142167181Y-65290049D01*
X142167184Y-65290051D01*
X142356588Y-65386557D01*
X142558757Y-65452246D01*
X142768713Y-65485500D01*
X142768714Y-65485500D01*
X142981286Y-65485500D01*
X142981287Y-65485500D01*
X143191243Y-65452246D01*
X143393412Y-65386557D01*
X143582816Y-65290051D01*
X143604789Y-65274086D01*
X143754786Y-65165109D01*
X143754788Y-65165106D01*
X143754792Y-65165104D01*
X143905104Y-65014792D01*
X143905106Y-65014788D01*
X143905109Y-65014786D01*
X144030048Y-64842820D01*
X144030047Y-64842820D01*
X144030051Y-64842816D01*
X144034514Y-64834054D01*
X144082488Y-64783259D01*
X144150308Y-64766463D01*
X144216444Y-64788999D01*
X144255486Y-64834056D01*
X144259951Y-64842820D01*
X144384890Y-65014786D01*
X144535213Y-65165109D01*
X144707179Y-65290048D01*
X144707181Y-65290049D01*
X144707184Y-65290051D01*
X144896588Y-65386557D01*
X145098757Y-65452246D01*
X145308713Y-65485500D01*
X145308714Y-65485500D01*
X145521286Y-65485500D01*
X145521287Y-65485500D01*
X145731243Y-65452246D01*
X145933412Y-65386557D01*
X146122816Y-65290051D01*
X146144789Y-65274086D01*
X146294786Y-65165109D01*
X146294788Y-65165106D01*
X146294792Y-65165104D01*
X146445104Y-65014792D01*
X146445106Y-65014788D01*
X146445109Y-65014786D01*
X146570048Y-64842820D01*
X146570047Y-64842820D01*
X146570051Y-64842816D01*
X146585674Y-64812155D01*
X150400000Y-64812155D01*
X150400000Y-66110000D01*
X151680936Y-66110000D01*
X151669207Y-66138316D01*
X151640000Y-66285147D01*
X151640000Y-66434853D01*
X151669207Y-66581684D01*
X151680936Y-66610000D01*
X150400000Y-66610000D01*
X150400000Y-67907844D01*
X150406401Y-67967372D01*
X150406403Y-67967379D01*
X150456645Y-68102086D01*
X150456649Y-68102093D01*
X150542809Y-68217187D01*
X150542812Y-68217190D01*
X150657906Y-68303350D01*
X150657913Y-68303354D01*
X150792620Y-68353596D01*
X150792627Y-68353598D01*
X150852155Y-68359999D01*
X150852172Y-68360000D01*
X152150000Y-68360000D01*
X152150000Y-67079064D01*
X152178316Y-67090793D01*
X152325147Y-67120000D01*
X152474853Y-67120000D01*
X152621684Y-67090793D01*
X152650000Y-67079064D01*
X152650000Y-68360000D01*
X153947828Y-68360000D01*
X153947844Y-68359999D01*
X154007372Y-68353598D01*
X154007379Y-68353596D01*
X154142086Y-68303354D01*
X154142093Y-68303350D01*
X154257187Y-68217190D01*
X154257190Y-68217187D01*
X154343350Y-68102093D01*
X154343354Y-68102086D01*
X154393596Y-67967379D01*
X154393598Y-67967372D01*
X154399999Y-67907844D01*
X154400000Y-67907827D01*
X154400000Y-66610000D01*
X153119064Y-66610000D01*
X153130793Y-66581684D01*
X153160000Y-66434853D01*
X153160000Y-66285147D01*
X153148806Y-66228872D01*
X155479500Y-66228872D01*
X155479500Y-66491127D01*
X155489057Y-66563713D01*
X155513730Y-66751116D01*
X155520475Y-66776287D01*
X155581602Y-67004418D01*
X155581605Y-67004428D01*
X155681953Y-67246690D01*
X155681958Y-67246700D01*
X155813075Y-67473803D01*
X155972718Y-67681851D01*
X155972726Y-67681860D01*
X156158140Y-67867274D01*
X156158148Y-67867281D01*
X156366196Y-68026924D01*
X156593299Y-68158041D01*
X156593309Y-68158046D01*
X156821047Y-68252378D01*
X156835581Y-68258398D01*
X157088884Y-68326270D01*
X157337188Y-68358960D01*
X157345074Y-68359999D01*
X157348880Y-68360500D01*
X157348887Y-68360500D01*
X157611113Y-68360500D01*
X157611120Y-68360500D01*
X157871116Y-68326270D01*
X158124419Y-68258398D01*
X158346278Y-68166501D01*
X158366690Y-68158046D01*
X158366691Y-68158045D01*
X158366697Y-68158043D01*
X158593803Y-68026924D01*
X158801851Y-67867282D01*
X158801855Y-67867277D01*
X158801860Y-67867274D01*
X158987274Y-67681860D01*
X158987277Y-67681855D01*
X158987282Y-67681851D01*
X159146924Y-67473803D01*
X159278043Y-67246697D01*
X159378398Y-67004419D01*
X159446270Y-66751116D01*
X159470943Y-66563713D01*
X162479500Y-66563713D01*
X162479500Y-66776287D01*
X162512754Y-66986243D01*
X162556214Y-67120000D01*
X162578444Y-67188414D01*
X162674951Y-67377820D01*
X162799890Y-67549786D01*
X162950213Y-67700109D01*
X163122179Y-67825048D01*
X163122181Y-67825049D01*
X163122184Y-67825051D01*
X163311588Y-67921557D01*
X163513757Y-67987246D01*
X163723713Y-68020500D01*
X163723714Y-68020500D01*
X163936286Y-68020500D01*
X163936287Y-68020500D01*
X164146243Y-67987246D01*
X164348412Y-67921557D01*
X164537816Y-67825051D01*
X164559789Y-67809086D01*
X164709786Y-67700109D01*
X164709788Y-67700106D01*
X164709792Y-67700104D01*
X164860104Y-67549792D01*
X164860106Y-67549788D01*
X164860109Y-67549786D01*
X164985048Y-67377820D01*
X164985047Y-67377820D01*
X164985051Y-67377816D01*
X165081557Y-67188412D01*
X165147246Y-66986243D01*
X165180500Y-66776287D01*
X165180500Y-66563713D01*
X165147246Y-66353757D01*
X165081557Y-66151588D01*
X164985051Y-65962184D01*
X164985049Y-65962181D01*
X164985048Y-65962179D01*
X164860109Y-65790213D01*
X164746181Y-65676285D01*
X164712696Y-65614962D01*
X164717680Y-65545270D01*
X164759552Y-65489337D01*
X164790529Y-65472422D01*
X164922086Y-65423354D01*
X164922093Y-65423350D01*
X165037187Y-65337190D01*
X165037190Y-65337187D01*
X165123350Y-65222093D01*
X165123354Y-65222086D01*
X165173596Y-65087379D01*
X165173598Y-65087372D01*
X165179999Y-65027844D01*
X165180000Y-65027827D01*
X165180000Y-64380000D01*
X164263012Y-64380000D01*
X164295925Y-64322993D01*
X164330000Y-64195826D01*
X164330000Y-64064174D01*
X164295925Y-63937007D01*
X164263012Y-63880000D01*
X165180000Y-63880000D01*
X165180000Y-63232172D01*
X165179999Y-63232155D01*
X165173598Y-63172627D01*
X165173596Y-63172620D01*
X165123354Y-63037913D01*
X165123350Y-63037906D01*
X165037190Y-62922812D01*
X165037187Y-62922809D01*
X164922093Y-62836649D01*
X164922086Y-62836645D01*
X164787379Y-62786403D01*
X164787372Y-62786401D01*
X164727844Y-62780000D01*
X164080000Y-62780000D01*
X164080000Y-63696988D01*
X164022993Y-63664075D01*
X163895826Y-63630000D01*
X163764174Y-63630000D01*
X163637007Y-63664075D01*
X163580000Y-63696988D01*
X163580000Y-62780000D01*
X162932155Y-62780000D01*
X162872627Y-62786401D01*
X162872620Y-62786403D01*
X162737913Y-62836645D01*
X162737906Y-62836649D01*
X162622812Y-62922809D01*
X162622809Y-62922812D01*
X162536649Y-63037906D01*
X162536645Y-63037913D01*
X162486403Y-63172620D01*
X162486401Y-63172627D01*
X162480000Y-63232155D01*
X162480000Y-63880000D01*
X163396988Y-63880000D01*
X163364075Y-63937007D01*
X163330000Y-64064174D01*
X163330000Y-64195826D01*
X163364075Y-64322993D01*
X163396988Y-64380000D01*
X162480000Y-64380000D01*
X162480000Y-65027844D01*
X162486401Y-65087372D01*
X162486403Y-65087379D01*
X162536645Y-65222086D01*
X162536649Y-65222093D01*
X162622809Y-65337187D01*
X162622812Y-65337190D01*
X162737906Y-65423350D01*
X162737913Y-65423354D01*
X162869470Y-65472422D01*
X162925404Y-65514293D01*
X162949821Y-65579758D01*
X162934969Y-65648031D01*
X162913819Y-65676285D01*
X162799889Y-65790215D01*
X162674951Y-65962179D01*
X162578444Y-66151585D01*
X162512753Y-66353760D01*
X162479500Y-66563713D01*
X159470943Y-66563713D01*
X159480500Y-66491120D01*
X159480500Y-66228880D01*
X159446270Y-65968884D01*
X159378398Y-65715581D01*
X159374693Y-65706636D01*
X159278046Y-65473309D01*
X159278041Y-65473299D01*
X159146924Y-65246196D01*
X159024424Y-65086554D01*
X158987282Y-65038149D01*
X158987281Y-65038148D01*
X158987274Y-65038140D01*
X158801860Y-64852726D01*
X158801851Y-64852718D01*
X158593803Y-64693075D01*
X158366700Y-64561958D01*
X158366690Y-64561953D01*
X158124428Y-64461605D01*
X158124421Y-64461603D01*
X158124419Y-64461602D01*
X157871116Y-64393730D01*
X157813339Y-64386123D01*
X157611127Y-64359500D01*
X157611120Y-64359500D01*
X157348880Y-64359500D01*
X157348872Y-64359500D01*
X157117772Y-64389926D01*
X157088884Y-64393730D01*
X156874242Y-64451243D01*
X156835581Y-64461602D01*
X156835571Y-64461605D01*
X156593309Y-64561953D01*
X156593299Y-64561958D01*
X156366196Y-64693075D01*
X156158148Y-64852718D01*
X155972718Y-65038148D01*
X155813075Y-65246196D01*
X155681958Y-65473299D01*
X155681953Y-65473309D01*
X155581605Y-65715571D01*
X155581602Y-65715581D01*
X155515526Y-65962184D01*
X155513730Y-65968885D01*
X155479500Y-66228872D01*
X153148806Y-66228872D01*
X153130793Y-66138316D01*
X153119064Y-66110000D01*
X154400000Y-66110000D01*
X154400000Y-64812172D01*
X154399999Y-64812155D01*
X154393598Y-64752627D01*
X154393596Y-64752620D01*
X154343354Y-64617913D01*
X154343350Y-64617906D01*
X154257190Y-64502812D01*
X154257187Y-64502809D01*
X154142093Y-64416649D01*
X154142086Y-64416645D01*
X154007379Y-64366403D01*
X154007372Y-64366401D01*
X153947844Y-64360000D01*
X152650000Y-64360000D01*
X152650000Y-65640935D01*
X152621684Y-65629207D01*
X152474853Y-65600000D01*
X152325147Y-65600000D01*
X152178316Y-65629207D01*
X152150000Y-65640935D01*
X152150000Y-64360000D01*
X150852155Y-64360000D01*
X150792627Y-64366401D01*
X150792620Y-64366403D01*
X150657913Y-64416645D01*
X150657906Y-64416649D01*
X150542812Y-64502809D01*
X150542809Y-64502812D01*
X150456649Y-64617906D01*
X150456645Y-64617913D01*
X150406403Y-64752620D01*
X150406401Y-64752627D01*
X150400000Y-64812155D01*
X146585674Y-64812155D01*
X146666557Y-64653412D01*
X146732246Y-64451243D01*
X146765500Y-64241287D01*
X146765500Y-64028713D01*
X146732246Y-63818757D01*
X146666557Y-63616588D01*
X146593795Y-63473784D01*
X148877757Y-63473784D01*
X148877757Y-64224854D01*
X149538654Y-64224854D01*
X149559677Y-64178823D01*
X149563638Y-64170909D01*
X149597815Y-64108319D01*
X149602333Y-64100705D01*
X149631297Y-64055638D01*
X149636345Y-64048368D01*
X149765243Y-63876184D01*
X149770796Y-63869293D01*
X149805876Y-63828808D01*
X149811908Y-63822329D01*
X149862329Y-63771908D01*
X149868808Y-63765876D01*
X149909293Y-63730796D01*
X149916184Y-63725243D01*
X150088368Y-63596345D01*
X150095638Y-63591297D01*
X150140705Y-63562333D01*
X150148319Y-63557815D01*
X150210909Y-63523638D01*
X150218823Y-63519677D01*
X150267559Y-63497419D01*
X150275739Y-63494030D01*
X150330241Y-63473701D01*
X148877757Y-63473784D01*
X146593795Y-63473784D01*
X146593504Y-63473212D01*
X158877757Y-63473212D01*
X158877757Y-63704626D01*
X159106947Y-63836949D01*
X159110426Y-63839034D01*
X159131276Y-63851999D01*
X159134689Y-63854200D01*
X159161850Y-63872349D01*
X159165185Y-63874657D01*
X159185135Y-63888953D01*
X159188395Y-63891371D01*
X159422341Y-64070886D01*
X159425516Y-64073405D01*
X159444460Y-64088951D01*
X159447547Y-64091570D01*
X159472107Y-64113104D01*
X159475120Y-64115834D01*
X159493063Y-64132638D01*
X159495982Y-64135464D01*
X159585372Y-64224854D01*
X160379757Y-64224854D01*
X160379757Y-63473127D01*
X158877757Y-63473212D01*
X146593504Y-63473212D01*
X146570051Y-63427184D01*
X146570049Y-63427181D01*
X146570048Y-63427179D01*
X146445109Y-63255213D01*
X146294786Y-63104890D01*
X146122820Y-62979951D01*
X145933414Y-62883444D01*
X145933413Y-62883443D01*
X145933412Y-62883443D01*
X145731243Y-62817754D01*
X145731241Y-62817753D01*
X145731240Y-62817753D01*
X145569957Y-62792208D01*
X145521287Y-62784500D01*
X145308713Y-62784500D01*
X145260042Y-62792208D01*
X145098760Y-62817753D01*
X144896585Y-62883444D01*
X144707179Y-62979951D01*
X144535213Y-63104890D01*
X144384890Y-63255213D01*
X144259949Y-63427182D01*
X144255484Y-63435946D01*
X144207509Y-63486742D01*
X144139688Y-63503536D01*
X144073553Y-63480998D01*
X144034516Y-63435946D01*
X144030050Y-63427182D01*
X143905109Y-63255213D01*
X143754786Y-63104890D01*
X143582820Y-62979951D01*
X143393414Y-62883444D01*
X143393413Y-62883443D01*
X143393412Y-62883443D01*
X143191243Y-62817754D01*
X143191241Y-62817753D01*
X143191240Y-62817753D01*
X143029957Y-62792208D01*
X142981287Y-62784500D01*
X142768713Y-62784500D01*
X142720042Y-62792208D01*
X142558760Y-62817753D01*
X142356585Y-62883444D01*
X142167179Y-62979951D01*
X141995215Y-63104889D01*
X141881673Y-63218431D01*
X141820350Y-63251915D01*
X141750658Y-63246931D01*
X141694725Y-63205059D01*
X141677810Y-63174082D01*
X141628797Y-63042671D01*
X141628793Y-63042664D01*
X141542547Y-62927455D01*
X141542544Y-62927452D01*
X141427335Y-62841206D01*
X141427328Y-62841202D01*
X141292482Y-62790908D01*
X141292483Y-62790908D01*
X141232883Y-62784501D01*
X141232881Y-62784500D01*
X141232873Y-62784500D01*
X141232864Y-62784500D01*
X139437129Y-62784500D01*
X139437123Y-62784501D01*
X139377516Y-62790908D01*
X139242671Y-62841202D01*
X139242664Y-62841206D01*
X139127455Y-62927452D01*
X139127452Y-62927455D01*
X139041206Y-63042664D01*
X139041202Y-63042671D01*
X138990908Y-63177517D01*
X138984501Y-63237116D01*
X138984500Y-63237135D01*
X136136433Y-63237135D01*
X136136489Y-62812710D01*
X136136500Y-62812578D01*
X136136500Y-62747757D01*
X136138025Y-62728370D01*
X136146228Y-62676580D01*
X136158211Y-62639700D01*
X136177529Y-62601785D01*
X136200326Y-62570409D01*
X136230409Y-62540326D01*
X136261785Y-62517529D01*
X136299700Y-62498211D01*
X136336580Y-62486227D01*
X136388368Y-62478025D01*
X136407756Y-62476500D01*
X136473126Y-62476500D01*
X136473180Y-62476495D01*
X165163444Y-62474854D01*
X165176992Y-62475597D01*
G37*
%TD.AperFunction*%
%TA.AperFunction,Conductor*%
G36*
X141800738Y-105242385D02*
G01*
X141846493Y-105295189D01*
X141856437Y-105364347D01*
X141827412Y-105427903D01*
X141772017Y-105464630D01*
X141740781Y-105474780D01*
X141740778Y-105474781D01*
X141558386Y-105567715D01*
X141392786Y-105688028D01*
X141248028Y-105832786D01*
X141127714Y-105998386D01*
X141100203Y-106052379D01*
X141052227Y-106103174D01*
X140984406Y-106119968D01*
X140918272Y-106097429D01*
X140879234Y-106052376D01*
X140851861Y-105998652D01*
X140819474Y-105954077D01*
X140819474Y-105954076D01*
X140140000Y-106633551D01*
X140140000Y-106627339D01*
X140112741Y-106525606D01*
X140060080Y-106434394D01*
X139985606Y-106359920D01*
X139894394Y-106307259D01*
X139792661Y-106280000D01*
X139786446Y-106280000D01*
X140465922Y-105600524D01*
X140465921Y-105600523D01*
X140421359Y-105568147D01*
X140421350Y-105568141D01*
X140239029Y-105475244D01*
X140206366Y-105464631D01*
X140148690Y-105425193D01*
X140121492Y-105360835D01*
X140133407Y-105291988D01*
X140180651Y-105240513D01*
X140244684Y-105222700D01*
X141733699Y-105222700D01*
X141800738Y-105242385D01*
G37*
%TD.AperFunction*%
%TD*%
M02*
