%TF.GenerationSoftware,KiCad,Pcbnew,9.0.2*%
%TF.CreationDate,2025-06-12T21:47:04+05:30*%
%TF.ProjectId,Breadboard power supply,42726561-6462-46f6-9172-6420706f7765,rev?*%
%TF.SameCoordinates,Original*%
%TF.FileFunction,Copper,L1,Top*%
%TF.FilePolarity,Positive*%
%FSLAX46Y46*%
G04 Gerber Fmt 4.6, Leading zero omitted, Abs format (unit mm)*
G04 Created by KiCad (PCBNEW 9.0.2) date 2025-06-12 21:47:04*
%MOMM*%
%LPD*%
G01*
G04 APERTURE LIST*
G04 Aperture macros list*
%AMRoundRect*
0 Rectangle with rounded corners*
0 $1 Rounding radius*
0 $2 $3 $4 $5 $6 $7 $8 $9 X,Y pos of 4 corners*
0 Add a 4 corners polygon primitive as box body*
4,1,4,$2,$3,$4,$5,$6,$7,$8,$9,$2,$3,0*
0 Add four circle primitives for the rounded corners*
1,1,$1+$1,$2,$3*
1,1,$1+$1,$4,$5*
1,1,$1+$1,$6,$7*
1,1,$1+$1,$8,$9*
0 Add four rect primitives between the rounded corners*
20,1,$1+$1,$2,$3,$4,$5,0*
20,1,$1+$1,$4,$5,$6,$7,0*
20,1,$1+$1,$6,$7,$8,$9,0*
20,1,$1+$1,$8,$9,$2,$3,0*%
G04 Aperture macros list end*
%TA.AperFunction,ComponentPad*%
%ADD10R,1.700000X1.700000*%
%TD*%
%TA.AperFunction,ComponentPad*%
%ADD11C,1.700000*%
%TD*%
%TA.AperFunction,ComponentPad*%
%ADD12R,1.900000X1.900000*%
%TD*%
%TA.AperFunction,ComponentPad*%
%ADD13C,1.900000*%
%TD*%
%TA.AperFunction,ComponentPad*%
%ADD14R,3.000000X3.000000*%
%TD*%
%TA.AperFunction,ComponentPad*%
%ADD15C,3.000000*%
%TD*%
%TA.AperFunction,ComponentPad*%
%ADD16R,1.905000X2.000000*%
%TD*%
%TA.AperFunction,ComponentPad*%
%ADD17O,1.905000X2.000000*%
%TD*%
%TA.AperFunction,ComponentPad*%
%ADD18C,1.600000*%
%TD*%
%TA.AperFunction,ComponentPad*%
%ADD19C,1.400000*%
%TD*%
%TA.AperFunction,ComponentPad*%
%ADD20R,3.500000X3.500000*%
%TD*%
%TA.AperFunction,ComponentPad*%
%ADD21RoundRect,0.750000X-0.750000X-1.000000X0.750000X-1.000000X0.750000X1.000000X-0.750000X1.000000X0*%
%TD*%
%TA.AperFunction,ComponentPad*%
%ADD22RoundRect,0.875000X-0.875000X-0.875000X0.875000X-0.875000X0.875000X0.875000X-0.875000X0.875000X0*%
%TD*%
%TA.AperFunction,ComponentPad*%
%ADD23R,1.800000X1.800000*%
%TD*%
%TA.AperFunction,ComponentPad*%
%ADD24C,1.800000*%
%TD*%
%TA.AperFunction,ViaPad*%
%ADD25C,0.900000*%
%TD*%
%TA.AperFunction,Conductor*%
%ADD26C,0.350000*%
%TD*%
%TA.AperFunction,Conductor*%
%ADD27C,0.250000*%
%TD*%
G04 APERTURE END LIST*
D10*
%TO.P,J4,1,Pin_1*%
%TO.N,GND*%
X163830000Y-64130000D03*
D11*
%TO.P,J4,2,Pin_2*%
%TO.N,/PWR_OUT_TOP*%
X163830000Y-66670000D03*
%TD*%
D12*
%TO.P,S1,1*%
%TO.N,/12V*%
X156520000Y-75565000D03*
D13*
%TO.P,S1,2*%
%TO.N,/PWR_input*%
X154020000Y-75565000D03*
%TO.P,S1,3*%
%TO.N,unconnected-(S1-Pad3)*%
X151520000Y-75565000D03*
%TD*%
D14*
%TO.P,J5,1,Pin_1*%
%TO.N,GND*%
X152400000Y-110374549D03*
D15*
%TO.P,J5,2,Pin_2*%
%TO.N,/PWR_OUT_BOT*%
X157480000Y-110374549D03*
%TD*%
D16*
%TO.P,U2,1,VI*%
%TO.N,/12V*%
X144780000Y-76200000D03*
D17*
%TO.P,U2,2,GND*%
%TO.N,GND*%
X142240000Y-76200000D03*
%TO.P,U2,3,VO*%
%TO.N,/5V*%
X139700000Y-76200000D03*
%TD*%
D18*
%TO.P,C2,1*%
%TO.N,/3.3V*%
X142240000Y-106680000D03*
%TO.P,C2,2*%
%TO.N,GND*%
X139740000Y-106680000D03*
%TD*%
%TO.P,C1,1*%
%TO.N,/12V*%
X146050000Y-70485000D03*
%TO.P,C1,2*%
%TO.N,GND*%
X143550000Y-70485000D03*
%TD*%
D19*
%TO.P,R2,1*%
%TO.N,Net-(U1-ADJ)*%
X159199554Y-101169151D03*
%TO.P,R2,2*%
%TO.N,/3.3V*%
X151579554Y-101169151D03*
%TD*%
D20*
%TO.P,J1,1*%
%TO.N,/PWR_input*%
X151130000Y-88900000D03*
D21*
%TO.P,J1,2*%
%TO.N,GND*%
X145130000Y-88900000D03*
D22*
%TO.P,J1,3*%
X148130000Y-93600000D03*
%TD*%
D10*
%TO.P,J3,1,Pin_1*%
%TO.N,/3.3V*%
X140335000Y-64135000D03*
D11*
%TO.P,J3,2,Pin_2*%
%TO.N,/PWR_OUT_TOP*%
X142875000Y-64135000D03*
%TO.P,J3,3,Pin_3*%
%TO.N,/5V*%
X145415000Y-64135000D03*
%TD*%
D10*
%TO.P,J7,1,Pin_1*%
%TO.N,/3.3V*%
X141605000Y-112395000D03*
D11*
%TO.P,J7,2,Pin_2*%
%TO.N,/PWR_OUT_BOT*%
X144145000Y-112395000D03*
%TO.P,J7,3,Pin_3*%
%TO.N,/5V*%
X146685000Y-112395000D03*
%TD*%
D19*
%TO.P,R1,1*%
%TO.N,Net-(D1-A)*%
X149860000Y-81127600D03*
%TO.P,R1,2*%
%TO.N,/12V*%
X157480000Y-81127600D03*
%TD*%
D10*
%TO.P,J6,1,Pin_1*%
%TO.N,GND*%
X163705223Y-109928182D03*
D11*
%TO.P,J6,2,Pin_2*%
%TO.N,/PWR_OUT_BOT*%
X163705223Y-112468182D03*
%TD*%
D19*
%TO.P,R3,1*%
%TO.N,GND*%
X151620000Y-97790000D03*
%TO.P,R3,2*%
%TO.N,Net-(U1-ADJ)*%
X159240000Y-97790000D03*
%TD*%
D23*
%TO.P,D1,1,K*%
%TO.N,GND*%
X156980000Y-90175000D03*
D24*
%TO.P,D1,2,A*%
%TO.N,Net-(D1-A)*%
X156980000Y-87635000D03*
%TD*%
D14*
%TO.P,J2,1,Pin_1*%
%TO.N,GND*%
X152400000Y-66360000D03*
D15*
%TO.P,J2,2,Pin_2*%
%TO.N,/PWR_OUT_TOP*%
X157480000Y-66360000D03*
%TD*%
D18*
%TO.P,C3,1*%
%TO.N,/5V*%
X140930000Y-70485000D03*
%TO.P,C3,2*%
%TO.N,GND*%
X138430000Y-70485000D03*
%TD*%
D16*
%TO.P,U1,1,ADJ*%
%TO.N,Net-(U1-ADJ)*%
X139700000Y-100965000D03*
D17*
%TO.P,U1,2,VO*%
%TO.N,/3.3V*%
X142240000Y-100965000D03*
%TO.P,U1,3,VI*%
%TO.N,/12V*%
X144780000Y-100965000D03*
%TD*%
D25*
%TO.N,/3.3V*%
X150266400Y-103632000D03*
%TD*%
D26*
%TO.N,/PWR_OUT_BOT*%
X157480000Y-111810800D02*
X157480000Y-110374549D01*
X155346400Y-113944400D02*
X157480000Y-111810800D01*
X145694400Y-113944400D02*
X155346400Y-113944400D01*
X144145000Y-112395000D02*
X145694400Y-113944400D01*
X162838605Y-113334800D02*
X163705223Y-112468182D01*
X160440251Y-113334800D02*
X162838605Y-113334800D01*
X157480000Y-110374549D02*
X160440251Y-113334800D01*
%TO.N,/PWR_OUT_TOP*%
X163520000Y-66360000D02*
X163830000Y-66670000D01*
X157480000Y-66360000D02*
X163520000Y-66360000D01*
X153979000Y-62859000D02*
X157480000Y-66360000D01*
X142875000Y-64135000D02*
X144151000Y-62859000D01*
X144151000Y-62859000D02*
X153979000Y-62859000D01*
%TO.N,/12V*%
X146050000Y-70485000D02*
X148056600Y-70485000D01*
X146050000Y-70485000D02*
X146050000Y-74930000D01*
X153345000Y-72390000D02*
X156520000Y-75565000D01*
X146050000Y-74930000D02*
X144780000Y-76200000D01*
X148056600Y-70485000D02*
X149961600Y-72390000D01*
X157480000Y-79520000D02*
X157480000Y-81127600D01*
X149961600Y-72390000D02*
X153345000Y-72390000D01*
X156520000Y-75565000D02*
X156520000Y-78560000D01*
X156520000Y-78560000D02*
X157480000Y-79520000D01*
%TO.N,/3.3V*%
X141274800Y-97383600D02*
X142240000Y-98348800D01*
X142240000Y-100965000D02*
X142240000Y-106680000D01*
X138226800Y-97383600D02*
X141274800Y-97383600D01*
X142240000Y-106680000D02*
X142240000Y-111760000D01*
X136311159Y-68158841D02*
X136311159Y-95467959D01*
X140335000Y-64135000D02*
X136311159Y-68158841D01*
X136311159Y-95467959D02*
X138226800Y-97383600D01*
X151579554Y-102318846D02*
X150266400Y-103632000D01*
X142240000Y-111760000D02*
X141605000Y-112395000D01*
X142240000Y-98348800D02*
X142240000Y-100965000D01*
X151579554Y-101169151D02*
X151579554Y-102318846D01*
%TO.N,/5V*%
X139700000Y-92913200D02*
X143306800Y-96520000D01*
X147624800Y-111455200D02*
X146685000Y-112395000D01*
X140930000Y-68620000D02*
X140930000Y-70485000D01*
X145084800Y-96520000D02*
X147624800Y-99060000D01*
X143306800Y-96520000D02*
X145084800Y-96520000D01*
X139700000Y-76200000D02*
X139700000Y-92913200D01*
X145415000Y-64135000D02*
X140930000Y-68620000D01*
X140930000Y-74970000D02*
X139700000Y-76200000D01*
X140930000Y-70485000D02*
X140930000Y-74970000D01*
X147624800Y-99060000D02*
X147624800Y-111455200D01*
D27*
%TO.N,Net-(D1-A)*%
X149860000Y-81127600D02*
X156367400Y-87635000D01*
X156367400Y-87635000D02*
X156980000Y-87635000D01*
D26*
%TO.N,/PWR_input*%
X148412200Y-83947000D02*
X151130000Y-86664800D01*
X151130000Y-86664800D02*
X151130000Y-88900000D01*
X149910800Y-77571600D02*
X148412200Y-79070200D01*
X154020000Y-75565000D02*
X153465958Y-75565000D01*
X148412200Y-79070200D02*
X148412200Y-83947000D01*
X151459358Y-77571600D02*
X149910800Y-77571600D01*
X153465958Y-75565000D02*
X151459358Y-77571600D01*
%TO.N,/PWR_OUT_BOT*%
X156921200Y-109815749D02*
X157480000Y-110374549D01*
D27*
%TO.N,Net-(U1-ADJ)*%
X159240000Y-97790000D02*
X159240000Y-101128705D01*
X159240000Y-101128705D02*
X159199554Y-101169151D01*
%TD*%
M02*
