%TF.GenerationSoftware,KiCad,Pcbnew,9.0.2*%
%TF.CreationDate,2025-06-12T21:47:04+05:30*%
%TF.ProjectId,Breadboard power supply,42726561-6462-46f6-9172-6420706f7765,rev?*%
%TF.SameCoordinates,Original*%
%TF.FileFunction,Legend,Top*%
%TF.FilePolarity,Positive*%
%FSLAX46Y46*%
G04 Gerber Fmt 4.6, Leading zero omitted, Abs format (unit mm)*
G04 Created by KiCad (PCBNEW 9.0.2) date 2025-06-12 21:47:04*
%MOMM*%
%LPD*%
G01*
G04 APERTURE LIST*
%ADD10C,0.100000*%
%ADD11C,0.150000*%
%ADD12C,0.120000*%
G04 APERTURE END LIST*
D10*
X145380074Y-65772419D02*
X144903884Y-65772419D01*
X144903884Y-65772419D02*
X144856265Y-66248609D01*
X144856265Y-66248609D02*
X144903884Y-66200990D01*
X144903884Y-66200990D02*
X144999122Y-66153371D01*
X144999122Y-66153371D02*
X145237217Y-66153371D01*
X145237217Y-66153371D02*
X145332455Y-66200990D01*
X145332455Y-66200990D02*
X145380074Y-66248609D01*
X145380074Y-66248609D02*
X145427693Y-66343847D01*
X145427693Y-66343847D02*
X145427693Y-66581942D01*
X145427693Y-66581942D02*
X145380074Y-66677180D01*
X145380074Y-66677180D02*
X145332455Y-66724800D01*
X145332455Y-66724800D02*
X145237217Y-66772419D01*
X145237217Y-66772419D02*
X144999122Y-66772419D01*
X144999122Y-66772419D02*
X144903884Y-66724800D01*
X144903884Y-66724800D02*
X144856265Y-66677180D01*
X145713408Y-65772419D02*
X146046741Y-66772419D01*
X146046741Y-66772419D02*
X146380074Y-65772419D01*
X151727693Y-63620038D02*
X151632455Y-63572419D01*
X151632455Y-63572419D02*
X151489598Y-63572419D01*
X151489598Y-63572419D02*
X151346741Y-63620038D01*
X151346741Y-63620038D02*
X151251503Y-63715276D01*
X151251503Y-63715276D02*
X151203884Y-63810514D01*
X151203884Y-63810514D02*
X151156265Y-64000990D01*
X151156265Y-64000990D02*
X151156265Y-64143847D01*
X151156265Y-64143847D02*
X151203884Y-64334323D01*
X151203884Y-64334323D02*
X151251503Y-64429561D01*
X151251503Y-64429561D02*
X151346741Y-64524800D01*
X151346741Y-64524800D02*
X151489598Y-64572419D01*
X151489598Y-64572419D02*
X151584836Y-64572419D01*
X151584836Y-64572419D02*
X151727693Y-64524800D01*
X151727693Y-64524800D02*
X151775312Y-64477180D01*
X151775312Y-64477180D02*
X151775312Y-64143847D01*
X151775312Y-64143847D02*
X151584836Y-64143847D01*
X152203884Y-64572419D02*
X152203884Y-63572419D01*
X152203884Y-63572419D02*
X152775312Y-64572419D01*
X152775312Y-64572419D02*
X152775312Y-63572419D01*
X153251503Y-64572419D02*
X153251503Y-63572419D01*
X153251503Y-63572419D02*
X153489598Y-63572419D01*
X153489598Y-63572419D02*
X153632455Y-63620038D01*
X153632455Y-63620038D02*
X153727693Y-63715276D01*
X153727693Y-63715276D02*
X153775312Y-63810514D01*
X153775312Y-63810514D02*
X153822931Y-64000990D01*
X153822931Y-64000990D02*
X153822931Y-64143847D01*
X153822931Y-64143847D02*
X153775312Y-64334323D01*
X153775312Y-64334323D02*
X153727693Y-64429561D01*
X153727693Y-64429561D02*
X153632455Y-64524800D01*
X153632455Y-64524800D02*
X153489598Y-64572419D01*
X153489598Y-64572419D02*
X153251503Y-64572419D01*
X139908646Y-109772419D02*
X140527693Y-109772419D01*
X140527693Y-109772419D02*
X140194360Y-110153371D01*
X140194360Y-110153371D02*
X140337217Y-110153371D01*
X140337217Y-110153371D02*
X140432455Y-110200990D01*
X140432455Y-110200990D02*
X140480074Y-110248609D01*
X140480074Y-110248609D02*
X140527693Y-110343847D01*
X140527693Y-110343847D02*
X140527693Y-110581942D01*
X140527693Y-110581942D02*
X140480074Y-110677180D01*
X140480074Y-110677180D02*
X140432455Y-110724800D01*
X140432455Y-110724800D02*
X140337217Y-110772419D01*
X140337217Y-110772419D02*
X140051503Y-110772419D01*
X140051503Y-110772419D02*
X139956265Y-110724800D01*
X139956265Y-110724800D02*
X139908646Y-110677180D01*
X140956265Y-110677180D02*
X141003884Y-110724800D01*
X141003884Y-110724800D02*
X140956265Y-110772419D01*
X140956265Y-110772419D02*
X140908646Y-110724800D01*
X140908646Y-110724800D02*
X140956265Y-110677180D01*
X140956265Y-110677180D02*
X140956265Y-110772419D01*
X141337217Y-109772419D02*
X141956264Y-109772419D01*
X141956264Y-109772419D02*
X141622931Y-110153371D01*
X141622931Y-110153371D02*
X141765788Y-110153371D01*
X141765788Y-110153371D02*
X141861026Y-110200990D01*
X141861026Y-110200990D02*
X141908645Y-110248609D01*
X141908645Y-110248609D02*
X141956264Y-110343847D01*
X141956264Y-110343847D02*
X141956264Y-110581942D01*
X141956264Y-110581942D02*
X141908645Y-110677180D01*
X141908645Y-110677180D02*
X141861026Y-110724800D01*
X141861026Y-110724800D02*
X141765788Y-110772419D01*
X141765788Y-110772419D02*
X141480074Y-110772419D01*
X141480074Y-110772419D02*
X141384836Y-110724800D01*
X141384836Y-110724800D02*
X141337217Y-110677180D01*
X142241979Y-109772419D02*
X142575312Y-110772419D01*
X142575312Y-110772419D02*
X142908645Y-109772419D01*
X138608646Y-65772419D02*
X139227693Y-65772419D01*
X139227693Y-65772419D02*
X138894360Y-66153371D01*
X138894360Y-66153371D02*
X139037217Y-66153371D01*
X139037217Y-66153371D02*
X139132455Y-66200990D01*
X139132455Y-66200990D02*
X139180074Y-66248609D01*
X139180074Y-66248609D02*
X139227693Y-66343847D01*
X139227693Y-66343847D02*
X139227693Y-66581942D01*
X139227693Y-66581942D02*
X139180074Y-66677180D01*
X139180074Y-66677180D02*
X139132455Y-66724800D01*
X139132455Y-66724800D02*
X139037217Y-66772419D01*
X139037217Y-66772419D02*
X138751503Y-66772419D01*
X138751503Y-66772419D02*
X138656265Y-66724800D01*
X138656265Y-66724800D02*
X138608646Y-66677180D01*
X139656265Y-66677180D02*
X139703884Y-66724800D01*
X139703884Y-66724800D02*
X139656265Y-66772419D01*
X139656265Y-66772419D02*
X139608646Y-66724800D01*
X139608646Y-66724800D02*
X139656265Y-66677180D01*
X139656265Y-66677180D02*
X139656265Y-66772419D01*
X140037217Y-65772419D02*
X140656264Y-65772419D01*
X140656264Y-65772419D02*
X140322931Y-66153371D01*
X140322931Y-66153371D02*
X140465788Y-66153371D01*
X140465788Y-66153371D02*
X140561026Y-66200990D01*
X140561026Y-66200990D02*
X140608645Y-66248609D01*
X140608645Y-66248609D02*
X140656264Y-66343847D01*
X140656264Y-66343847D02*
X140656264Y-66581942D01*
X140656264Y-66581942D02*
X140608645Y-66677180D01*
X140608645Y-66677180D02*
X140561026Y-66724800D01*
X140561026Y-66724800D02*
X140465788Y-66772419D01*
X140465788Y-66772419D02*
X140180074Y-66772419D01*
X140180074Y-66772419D02*
X140084836Y-66724800D01*
X140084836Y-66724800D02*
X140037217Y-66677180D01*
X140941979Y-65772419D02*
X141275312Y-66772419D01*
X141275312Y-66772419D02*
X141608645Y-65772419D01*
X150494360Y-77972419D02*
X150684836Y-77972419D01*
X150684836Y-77972419D02*
X150780074Y-78020038D01*
X150780074Y-78020038D02*
X150875312Y-78115276D01*
X150875312Y-78115276D02*
X150922931Y-78305752D01*
X150922931Y-78305752D02*
X150922931Y-78639085D01*
X150922931Y-78639085D02*
X150875312Y-78829561D01*
X150875312Y-78829561D02*
X150780074Y-78924800D01*
X150780074Y-78924800D02*
X150684836Y-78972419D01*
X150684836Y-78972419D02*
X150494360Y-78972419D01*
X150494360Y-78972419D02*
X150399122Y-78924800D01*
X150399122Y-78924800D02*
X150303884Y-78829561D01*
X150303884Y-78829561D02*
X150256265Y-78639085D01*
X150256265Y-78639085D02*
X150256265Y-78305752D01*
X150256265Y-78305752D02*
X150303884Y-78115276D01*
X150303884Y-78115276D02*
X150399122Y-78020038D01*
X150399122Y-78020038D02*
X150494360Y-77972419D01*
X151684836Y-78448609D02*
X151351503Y-78448609D01*
X151351503Y-78972419D02*
X151351503Y-77972419D01*
X151351503Y-77972419D02*
X151827693Y-77972419D01*
X152541979Y-78448609D02*
X152208646Y-78448609D01*
X152208646Y-78972419D02*
X152208646Y-77972419D01*
X152208646Y-77972419D02*
X152684836Y-77972419D01*
X159003884Y-92591466D02*
X159765789Y-92591466D01*
X160920038Y-64572306D02*
X160872419Y-64667544D01*
X160872419Y-64667544D02*
X160872419Y-64810401D01*
X160872419Y-64810401D02*
X160920038Y-64953258D01*
X160920038Y-64953258D02*
X161015276Y-65048496D01*
X161015276Y-65048496D02*
X161110514Y-65096115D01*
X161110514Y-65096115D02*
X161300990Y-65143734D01*
X161300990Y-65143734D02*
X161443847Y-65143734D01*
X161443847Y-65143734D02*
X161634323Y-65096115D01*
X161634323Y-65096115D02*
X161729561Y-65048496D01*
X161729561Y-65048496D02*
X161824800Y-64953258D01*
X161824800Y-64953258D02*
X161872419Y-64810401D01*
X161872419Y-64810401D02*
X161872419Y-64715163D01*
X161872419Y-64715163D02*
X161824800Y-64572306D01*
X161824800Y-64572306D02*
X161777180Y-64524687D01*
X161777180Y-64524687D02*
X161443847Y-64524687D01*
X161443847Y-64524687D02*
X161443847Y-64715163D01*
X161872419Y-64096115D02*
X160872419Y-64096115D01*
X160872419Y-64096115D02*
X161872419Y-63524687D01*
X161872419Y-63524687D02*
X160872419Y-63524687D01*
X161872419Y-63048496D02*
X160872419Y-63048496D01*
X160872419Y-63048496D02*
X160872419Y-62810401D01*
X160872419Y-62810401D02*
X160920038Y-62667544D01*
X160920038Y-62667544D02*
X161015276Y-62572306D01*
X161015276Y-62572306D02*
X161110514Y-62524687D01*
X161110514Y-62524687D02*
X161300990Y-62477068D01*
X161300990Y-62477068D02*
X161443847Y-62477068D01*
X161443847Y-62477068D02*
X161634323Y-62524687D01*
X161634323Y-62524687D02*
X161729561Y-62572306D01*
X161729561Y-62572306D02*
X161824800Y-62667544D01*
X161824800Y-62667544D02*
X161872419Y-62810401D01*
X161872419Y-62810401D02*
X161872419Y-63048496D01*
X153594360Y-77872419D02*
X153784836Y-77872419D01*
X153784836Y-77872419D02*
X153880074Y-77920038D01*
X153880074Y-77920038D02*
X153975312Y-78015276D01*
X153975312Y-78015276D02*
X154022931Y-78205752D01*
X154022931Y-78205752D02*
X154022931Y-78539085D01*
X154022931Y-78539085D02*
X153975312Y-78729561D01*
X153975312Y-78729561D02*
X153880074Y-78824800D01*
X153880074Y-78824800D02*
X153784836Y-78872419D01*
X153784836Y-78872419D02*
X153594360Y-78872419D01*
X153594360Y-78872419D02*
X153499122Y-78824800D01*
X153499122Y-78824800D02*
X153403884Y-78729561D01*
X153403884Y-78729561D02*
X153356265Y-78539085D01*
X153356265Y-78539085D02*
X153356265Y-78205752D01*
X153356265Y-78205752D02*
X153403884Y-78015276D01*
X153403884Y-78015276D02*
X153499122Y-77920038D01*
X153499122Y-77920038D02*
X153594360Y-77872419D01*
X154451503Y-78872419D02*
X154451503Y-77872419D01*
X154451503Y-77872419D02*
X155022931Y-78872419D01*
X155022931Y-78872419D02*
X155022931Y-77872419D01*
X146580074Y-109772419D02*
X146103884Y-109772419D01*
X146103884Y-109772419D02*
X146056265Y-110248609D01*
X146056265Y-110248609D02*
X146103884Y-110200990D01*
X146103884Y-110200990D02*
X146199122Y-110153371D01*
X146199122Y-110153371D02*
X146437217Y-110153371D01*
X146437217Y-110153371D02*
X146532455Y-110200990D01*
X146532455Y-110200990D02*
X146580074Y-110248609D01*
X146580074Y-110248609D02*
X146627693Y-110343847D01*
X146627693Y-110343847D02*
X146627693Y-110581942D01*
X146627693Y-110581942D02*
X146580074Y-110677180D01*
X146580074Y-110677180D02*
X146532455Y-110724800D01*
X146532455Y-110724800D02*
X146437217Y-110772419D01*
X146437217Y-110772419D02*
X146199122Y-110772419D01*
X146199122Y-110772419D02*
X146103884Y-110724800D01*
X146103884Y-110724800D02*
X146056265Y-110677180D01*
X146913408Y-109772419D02*
X147246741Y-110772419D01*
X147246741Y-110772419D02*
X147580074Y-109772419D01*
X158903884Y-84891466D02*
X159665789Y-84891466D01*
X159284836Y-85272419D02*
X159284836Y-84510514D01*
X151727693Y-107720038D02*
X151632455Y-107672419D01*
X151632455Y-107672419D02*
X151489598Y-107672419D01*
X151489598Y-107672419D02*
X151346741Y-107720038D01*
X151346741Y-107720038D02*
X151251503Y-107815276D01*
X151251503Y-107815276D02*
X151203884Y-107910514D01*
X151203884Y-107910514D02*
X151156265Y-108100990D01*
X151156265Y-108100990D02*
X151156265Y-108243847D01*
X151156265Y-108243847D02*
X151203884Y-108434323D01*
X151203884Y-108434323D02*
X151251503Y-108529561D01*
X151251503Y-108529561D02*
X151346741Y-108624800D01*
X151346741Y-108624800D02*
X151489598Y-108672419D01*
X151489598Y-108672419D02*
X151584836Y-108672419D01*
X151584836Y-108672419D02*
X151727693Y-108624800D01*
X151727693Y-108624800D02*
X151775312Y-108577180D01*
X151775312Y-108577180D02*
X151775312Y-108243847D01*
X151775312Y-108243847D02*
X151584836Y-108243847D01*
X152203884Y-108672419D02*
X152203884Y-107672419D01*
X152203884Y-107672419D02*
X152775312Y-108672419D01*
X152775312Y-108672419D02*
X152775312Y-107672419D01*
X153251503Y-108672419D02*
X153251503Y-107672419D01*
X153251503Y-107672419D02*
X153489598Y-107672419D01*
X153489598Y-107672419D02*
X153632455Y-107720038D01*
X153632455Y-107720038D02*
X153727693Y-107815276D01*
X153727693Y-107815276D02*
X153775312Y-107910514D01*
X153775312Y-107910514D02*
X153822931Y-108100990D01*
X153822931Y-108100990D02*
X153822931Y-108243847D01*
X153822931Y-108243847D02*
X153775312Y-108434323D01*
X153775312Y-108434323D02*
X153727693Y-108529561D01*
X153727693Y-108529561D02*
X153632455Y-108624800D01*
X153632455Y-108624800D02*
X153489598Y-108672419D01*
X153489598Y-108672419D02*
X153251503Y-108672419D01*
X160820038Y-110496855D02*
X160772419Y-110592093D01*
X160772419Y-110592093D02*
X160772419Y-110734950D01*
X160772419Y-110734950D02*
X160820038Y-110877807D01*
X160820038Y-110877807D02*
X160915276Y-110973045D01*
X160915276Y-110973045D02*
X161010514Y-111020664D01*
X161010514Y-111020664D02*
X161200990Y-111068283D01*
X161200990Y-111068283D02*
X161343847Y-111068283D01*
X161343847Y-111068283D02*
X161534323Y-111020664D01*
X161534323Y-111020664D02*
X161629561Y-110973045D01*
X161629561Y-110973045D02*
X161724800Y-110877807D01*
X161724800Y-110877807D02*
X161772419Y-110734950D01*
X161772419Y-110734950D02*
X161772419Y-110639712D01*
X161772419Y-110639712D02*
X161724800Y-110496855D01*
X161724800Y-110496855D02*
X161677180Y-110449236D01*
X161677180Y-110449236D02*
X161343847Y-110449236D01*
X161343847Y-110449236D02*
X161343847Y-110639712D01*
X161772419Y-110020664D02*
X160772419Y-110020664D01*
X160772419Y-110020664D02*
X161772419Y-109449236D01*
X161772419Y-109449236D02*
X160772419Y-109449236D01*
X161772419Y-108973045D02*
X160772419Y-108973045D01*
X160772419Y-108973045D02*
X160772419Y-108734950D01*
X160772419Y-108734950D02*
X160820038Y-108592093D01*
X160820038Y-108592093D02*
X160915276Y-108496855D01*
X160915276Y-108496855D02*
X161010514Y-108449236D01*
X161010514Y-108449236D02*
X161200990Y-108401617D01*
X161200990Y-108401617D02*
X161343847Y-108401617D01*
X161343847Y-108401617D02*
X161534323Y-108449236D01*
X161534323Y-108449236D02*
X161629561Y-108496855D01*
X161629561Y-108496855D02*
X161724800Y-108592093D01*
X161724800Y-108592093D02*
X161772419Y-108734950D01*
X161772419Y-108734950D02*
X161772419Y-108973045D01*
D11*
X160800382Y-67237746D02*
X160800382Y-67809174D01*
X160800382Y-67809174D02*
X160762287Y-67923460D01*
X160762287Y-67923460D02*
X160686096Y-67999651D01*
X160686096Y-67999651D02*
X160571811Y-68037746D01*
X160571811Y-68037746D02*
X160495620Y-68037746D01*
X161524192Y-67504412D02*
X161524192Y-68037746D01*
X161333716Y-67199651D02*
X161143239Y-67771079D01*
X161143239Y-67771079D02*
X161638478Y-67771079D01*
X157590475Y-72824200D02*
X157704761Y-72862295D01*
X157704761Y-72862295D02*
X157895237Y-72862295D01*
X157895237Y-72862295D02*
X157971428Y-72824200D01*
X157971428Y-72824200D02*
X158009523Y-72786104D01*
X158009523Y-72786104D02*
X158047618Y-72709914D01*
X158047618Y-72709914D02*
X158047618Y-72633723D01*
X158047618Y-72633723D02*
X158009523Y-72557533D01*
X158009523Y-72557533D02*
X157971428Y-72519438D01*
X157971428Y-72519438D02*
X157895237Y-72481342D01*
X157895237Y-72481342D02*
X157742856Y-72443247D01*
X157742856Y-72443247D02*
X157666666Y-72405152D01*
X157666666Y-72405152D02*
X157628571Y-72367057D01*
X157628571Y-72367057D02*
X157590475Y-72290866D01*
X157590475Y-72290866D02*
X157590475Y-72214676D01*
X157590475Y-72214676D02*
X157628571Y-72138485D01*
X157628571Y-72138485D02*
X157666666Y-72100390D01*
X157666666Y-72100390D02*
X157742856Y-72062295D01*
X157742856Y-72062295D02*
X157933333Y-72062295D01*
X157933333Y-72062295D02*
X158047618Y-72100390D01*
X158809523Y-72862295D02*
X158352380Y-72862295D01*
X158580952Y-72862295D02*
X158580952Y-72062295D01*
X158580952Y-72062295D02*
X158504761Y-72176580D01*
X158504761Y-72176580D02*
X158428571Y-72252771D01*
X158428571Y-72252771D02*
X158352380Y-72290866D01*
X149004761Y-72443247D02*
X149271427Y-72443247D01*
X149385713Y-72862295D02*
X149004761Y-72862295D01*
X149004761Y-72862295D02*
X149004761Y-72062295D01*
X149004761Y-72062295D02*
X149385713Y-72062295D01*
X150147618Y-72100390D02*
X150071428Y-72062295D01*
X150071428Y-72062295D02*
X149957142Y-72062295D01*
X149957142Y-72062295D02*
X149842856Y-72100390D01*
X149842856Y-72100390D02*
X149766666Y-72176580D01*
X149766666Y-72176580D02*
X149728571Y-72252771D01*
X149728571Y-72252771D02*
X149690475Y-72405152D01*
X149690475Y-72405152D02*
X149690475Y-72519438D01*
X149690475Y-72519438D02*
X149728571Y-72671819D01*
X149728571Y-72671819D02*
X149766666Y-72748009D01*
X149766666Y-72748009D02*
X149842856Y-72824200D01*
X149842856Y-72824200D02*
X149957142Y-72862295D01*
X149957142Y-72862295D02*
X150033333Y-72862295D01*
X150033333Y-72862295D02*
X150147618Y-72824200D01*
X150147618Y-72824200D02*
X150185714Y-72786104D01*
X150185714Y-72786104D02*
X150185714Y-72519438D01*
X150185714Y-72519438D02*
X150033333Y-72519438D01*
X150947618Y-72862295D02*
X150490475Y-72862295D01*
X150719047Y-72862295D02*
X150719047Y-72062295D01*
X150719047Y-72062295D02*
X150642856Y-72176580D01*
X150642856Y-72176580D02*
X150566666Y-72252771D01*
X150566666Y-72252771D02*
X150490475Y-72290866D01*
X151252380Y-72138485D02*
X151290476Y-72100390D01*
X151290476Y-72100390D02*
X151366666Y-72062295D01*
X151366666Y-72062295D02*
X151557142Y-72062295D01*
X151557142Y-72062295D02*
X151633333Y-72100390D01*
X151633333Y-72100390D02*
X151671428Y-72138485D01*
X151671428Y-72138485D02*
X151709523Y-72214676D01*
X151709523Y-72214676D02*
X151709523Y-72290866D01*
X151709523Y-72290866D02*
X151671428Y-72405152D01*
X151671428Y-72405152D02*
X151214285Y-72862295D01*
X151214285Y-72862295D02*
X151709523Y-72862295D01*
X152471428Y-72862295D02*
X152014285Y-72862295D01*
X152242857Y-72862295D02*
X152242857Y-72062295D01*
X152242857Y-72062295D02*
X152166666Y-72176580D01*
X152166666Y-72176580D02*
X152090476Y-72252771D01*
X152090476Y-72252771D02*
X152014285Y-72290866D01*
X152928571Y-72405152D02*
X152852381Y-72367057D01*
X152852381Y-72367057D02*
X152814286Y-72328961D01*
X152814286Y-72328961D02*
X152776190Y-72252771D01*
X152776190Y-72252771D02*
X152776190Y-72214676D01*
X152776190Y-72214676D02*
X152814286Y-72138485D01*
X152814286Y-72138485D02*
X152852381Y-72100390D01*
X152852381Y-72100390D02*
X152928571Y-72062295D01*
X152928571Y-72062295D02*
X153080952Y-72062295D01*
X153080952Y-72062295D02*
X153157143Y-72100390D01*
X153157143Y-72100390D02*
X153195238Y-72138485D01*
X153195238Y-72138485D02*
X153233333Y-72214676D01*
X153233333Y-72214676D02*
X153233333Y-72252771D01*
X153233333Y-72252771D02*
X153195238Y-72328961D01*
X153195238Y-72328961D02*
X153157143Y-72367057D01*
X153157143Y-72367057D02*
X153080952Y-72405152D01*
X153080952Y-72405152D02*
X152928571Y-72405152D01*
X152928571Y-72405152D02*
X152852381Y-72443247D01*
X152852381Y-72443247D02*
X152814286Y-72481342D01*
X152814286Y-72481342D02*
X152776190Y-72557533D01*
X152776190Y-72557533D02*
X152776190Y-72709914D01*
X152776190Y-72709914D02*
X152814286Y-72786104D01*
X152814286Y-72786104D02*
X152852381Y-72824200D01*
X152852381Y-72824200D02*
X152928571Y-72862295D01*
X152928571Y-72862295D02*
X153080952Y-72862295D01*
X153080952Y-72862295D02*
X153157143Y-72824200D01*
X153157143Y-72824200D02*
X153195238Y-72786104D01*
X153195238Y-72786104D02*
X153233333Y-72709914D01*
X153233333Y-72709914D02*
X153233333Y-72557533D01*
X153233333Y-72557533D02*
X153195238Y-72481342D01*
X153195238Y-72481342D02*
X153157143Y-72443247D01*
X153157143Y-72443247D02*
X153080952Y-72405152D01*
X154673333Y-104856844D02*
X154673333Y-105428272D01*
X154673333Y-105428272D02*
X154635238Y-105542558D01*
X154635238Y-105542558D02*
X154559047Y-105618749D01*
X154559047Y-105618749D02*
X154444762Y-105656844D01*
X154444762Y-105656844D02*
X154368571Y-105656844D01*
X155435238Y-104856844D02*
X155054286Y-104856844D01*
X155054286Y-104856844D02*
X155016190Y-105237796D01*
X155016190Y-105237796D02*
X155054286Y-105199701D01*
X155054286Y-105199701D02*
X155130476Y-105161606D01*
X155130476Y-105161606D02*
X155320952Y-105161606D01*
X155320952Y-105161606D02*
X155397143Y-105199701D01*
X155397143Y-105199701D02*
X155435238Y-105237796D01*
X155435238Y-105237796D02*
X155473333Y-105313987D01*
X155473333Y-105313987D02*
X155473333Y-105504463D01*
X155473333Y-105504463D02*
X155435238Y-105580653D01*
X155435238Y-105580653D02*
X155397143Y-105618749D01*
X155397143Y-105618749D02*
X155320952Y-105656844D01*
X155320952Y-105656844D02*
X155130476Y-105656844D01*
X155130476Y-105656844D02*
X155054286Y-105618749D01*
X155054286Y-105618749D02*
X155016190Y-105580653D01*
X141630476Y-79862295D02*
X141630476Y-80509914D01*
X141630476Y-80509914D02*
X141668571Y-80586104D01*
X141668571Y-80586104D02*
X141706666Y-80624200D01*
X141706666Y-80624200D02*
X141782857Y-80662295D01*
X141782857Y-80662295D02*
X141935238Y-80662295D01*
X141935238Y-80662295D02*
X142011428Y-80624200D01*
X142011428Y-80624200D02*
X142049523Y-80586104D01*
X142049523Y-80586104D02*
X142087619Y-80509914D01*
X142087619Y-80509914D02*
X142087619Y-79862295D01*
X142430475Y-79938485D02*
X142468571Y-79900390D01*
X142468571Y-79900390D02*
X142544761Y-79862295D01*
X142544761Y-79862295D02*
X142735237Y-79862295D01*
X142735237Y-79862295D02*
X142811428Y-79900390D01*
X142811428Y-79900390D02*
X142849523Y-79938485D01*
X142849523Y-79938485D02*
X142887618Y-80014676D01*
X142887618Y-80014676D02*
X142887618Y-80090866D01*
X142887618Y-80090866D02*
X142849523Y-80205152D01*
X142849523Y-80205152D02*
X142392380Y-80662295D01*
X142392380Y-80662295D02*
X142887618Y-80662295D01*
X138335237Y-74462295D02*
X137954285Y-74462295D01*
X137954285Y-74462295D02*
X137954285Y-73662295D01*
X138601904Y-74462295D02*
X138601904Y-73662295D01*
X138601904Y-73662295D02*
X138868570Y-74233723D01*
X138868570Y-74233723D02*
X139135237Y-73662295D01*
X139135237Y-73662295D02*
X139135237Y-74462295D01*
X139439999Y-73662295D02*
X139973333Y-73662295D01*
X139973333Y-73662295D02*
X139630475Y-74462295D01*
X140392380Y-74005152D02*
X140316190Y-73967057D01*
X140316190Y-73967057D02*
X140278095Y-73928961D01*
X140278095Y-73928961D02*
X140239999Y-73852771D01*
X140239999Y-73852771D02*
X140239999Y-73814676D01*
X140239999Y-73814676D02*
X140278095Y-73738485D01*
X140278095Y-73738485D02*
X140316190Y-73700390D01*
X140316190Y-73700390D02*
X140392380Y-73662295D01*
X140392380Y-73662295D02*
X140544761Y-73662295D01*
X140544761Y-73662295D02*
X140620952Y-73700390D01*
X140620952Y-73700390D02*
X140659047Y-73738485D01*
X140659047Y-73738485D02*
X140697142Y-73814676D01*
X140697142Y-73814676D02*
X140697142Y-73852771D01*
X140697142Y-73852771D02*
X140659047Y-73928961D01*
X140659047Y-73928961D02*
X140620952Y-73967057D01*
X140620952Y-73967057D02*
X140544761Y-74005152D01*
X140544761Y-74005152D02*
X140392380Y-74005152D01*
X140392380Y-74005152D02*
X140316190Y-74043247D01*
X140316190Y-74043247D02*
X140278095Y-74081342D01*
X140278095Y-74081342D02*
X140239999Y-74157533D01*
X140239999Y-74157533D02*
X140239999Y-74309914D01*
X140239999Y-74309914D02*
X140278095Y-74386104D01*
X140278095Y-74386104D02*
X140316190Y-74424200D01*
X140316190Y-74424200D02*
X140392380Y-74462295D01*
X140392380Y-74462295D02*
X140544761Y-74462295D01*
X140544761Y-74462295D02*
X140620952Y-74424200D01*
X140620952Y-74424200D02*
X140659047Y-74386104D01*
X140659047Y-74386104D02*
X140697142Y-74309914D01*
X140697142Y-74309914D02*
X140697142Y-74157533D01*
X140697142Y-74157533D02*
X140659047Y-74081342D01*
X140659047Y-74081342D02*
X140620952Y-74043247D01*
X140620952Y-74043247D02*
X140544761Y-74005152D01*
X141192381Y-73662295D02*
X141268571Y-73662295D01*
X141268571Y-73662295D02*
X141344762Y-73700390D01*
X141344762Y-73700390D02*
X141382857Y-73738485D01*
X141382857Y-73738485D02*
X141420952Y-73814676D01*
X141420952Y-73814676D02*
X141459047Y-73967057D01*
X141459047Y-73967057D02*
X141459047Y-74157533D01*
X141459047Y-74157533D02*
X141420952Y-74309914D01*
X141420952Y-74309914D02*
X141382857Y-74386104D01*
X141382857Y-74386104D02*
X141344762Y-74424200D01*
X141344762Y-74424200D02*
X141268571Y-74462295D01*
X141268571Y-74462295D02*
X141192381Y-74462295D01*
X141192381Y-74462295D02*
X141116190Y-74424200D01*
X141116190Y-74424200D02*
X141078095Y-74386104D01*
X141078095Y-74386104D02*
X141040000Y-74309914D01*
X141040000Y-74309914D02*
X141001904Y-74157533D01*
X141001904Y-74157533D02*
X141001904Y-73967057D01*
X141001904Y-73967057D02*
X141040000Y-73814676D01*
X141040000Y-73814676D02*
X141078095Y-73738485D01*
X141078095Y-73738485D02*
X141116190Y-73700390D01*
X141116190Y-73700390D02*
X141192381Y-73662295D01*
X142182857Y-73662295D02*
X141801905Y-73662295D01*
X141801905Y-73662295D02*
X141763809Y-74043247D01*
X141763809Y-74043247D02*
X141801905Y-74005152D01*
X141801905Y-74005152D02*
X141878095Y-73967057D01*
X141878095Y-73967057D02*
X142068571Y-73967057D01*
X142068571Y-73967057D02*
X142144762Y-74005152D01*
X142144762Y-74005152D02*
X142182857Y-74043247D01*
X142182857Y-74043247D02*
X142220952Y-74119438D01*
X142220952Y-74119438D02*
X142220952Y-74309914D01*
X142220952Y-74309914D02*
X142182857Y-74386104D01*
X142182857Y-74386104D02*
X142144762Y-74424200D01*
X142144762Y-74424200D02*
X142068571Y-74462295D01*
X142068571Y-74462295D02*
X141878095Y-74462295D01*
X141878095Y-74462295D02*
X141801905Y-74424200D01*
X141801905Y-74424200D02*
X141763809Y-74386104D01*
X142373334Y-74538485D02*
X142982857Y-74538485D01*
X143059048Y-73662295D02*
X143516191Y-73662295D01*
X143287619Y-74462295D02*
X143287619Y-73662295D01*
X143935239Y-73662295D02*
X144087620Y-73662295D01*
X144087620Y-73662295D02*
X144163810Y-73700390D01*
X144163810Y-73700390D02*
X144240001Y-73776580D01*
X144240001Y-73776580D02*
X144278096Y-73928961D01*
X144278096Y-73928961D02*
X144278096Y-74195628D01*
X144278096Y-74195628D02*
X144240001Y-74348009D01*
X144240001Y-74348009D02*
X144163810Y-74424200D01*
X144163810Y-74424200D02*
X144087620Y-74462295D01*
X144087620Y-74462295D02*
X143935239Y-74462295D01*
X143935239Y-74462295D02*
X143859048Y-74424200D01*
X143859048Y-74424200D02*
X143782858Y-74348009D01*
X143782858Y-74348009D02*
X143744762Y-74195628D01*
X143744762Y-74195628D02*
X143744762Y-73928961D01*
X143744762Y-73928961D02*
X143782858Y-73776580D01*
X143782858Y-73776580D02*
X143859048Y-73700390D01*
X143859048Y-73700390D02*
X143935239Y-73662295D01*
X144582857Y-73738485D02*
X144620953Y-73700390D01*
X144620953Y-73700390D02*
X144697143Y-73662295D01*
X144697143Y-73662295D02*
X144887619Y-73662295D01*
X144887619Y-73662295D02*
X144963810Y-73700390D01*
X144963810Y-73700390D02*
X145001905Y-73738485D01*
X145001905Y-73738485D02*
X145040000Y-73814676D01*
X145040000Y-73814676D02*
X145040000Y-73890866D01*
X145040000Y-73890866D02*
X145001905Y-74005152D01*
X145001905Y-74005152D02*
X144544762Y-74462295D01*
X144544762Y-74462295D02*
X145040000Y-74462295D01*
X145344762Y-73738485D02*
X145382858Y-73700390D01*
X145382858Y-73700390D02*
X145459048Y-73662295D01*
X145459048Y-73662295D02*
X145649524Y-73662295D01*
X145649524Y-73662295D02*
X145725715Y-73700390D01*
X145725715Y-73700390D02*
X145763810Y-73738485D01*
X145763810Y-73738485D02*
X145801905Y-73814676D01*
X145801905Y-73814676D02*
X145801905Y-73890866D01*
X145801905Y-73890866D02*
X145763810Y-74005152D01*
X145763810Y-74005152D02*
X145306667Y-74462295D01*
X145306667Y-74462295D02*
X145801905Y-74462295D01*
X146297144Y-73662295D02*
X146373334Y-73662295D01*
X146373334Y-73662295D02*
X146449525Y-73700390D01*
X146449525Y-73700390D02*
X146487620Y-73738485D01*
X146487620Y-73738485D02*
X146525715Y-73814676D01*
X146525715Y-73814676D02*
X146563810Y-73967057D01*
X146563810Y-73967057D02*
X146563810Y-74157533D01*
X146563810Y-74157533D02*
X146525715Y-74309914D01*
X146525715Y-74309914D02*
X146487620Y-74386104D01*
X146487620Y-74386104D02*
X146449525Y-74424200D01*
X146449525Y-74424200D02*
X146373334Y-74462295D01*
X146373334Y-74462295D02*
X146297144Y-74462295D01*
X146297144Y-74462295D02*
X146220953Y-74424200D01*
X146220953Y-74424200D02*
X146182858Y-74386104D01*
X146182858Y-74386104D02*
X146144763Y-74309914D01*
X146144763Y-74309914D02*
X146106667Y-74157533D01*
X146106667Y-74157533D02*
X146106667Y-73967057D01*
X146106667Y-73967057D02*
X146144763Y-73814676D01*
X146144763Y-73814676D02*
X146182858Y-73738485D01*
X146182858Y-73738485D02*
X146220953Y-73700390D01*
X146220953Y-73700390D02*
X146297144Y-73662295D01*
X141666667Y-105386104D02*
X141628571Y-105424200D01*
X141628571Y-105424200D02*
X141514286Y-105462295D01*
X141514286Y-105462295D02*
X141438095Y-105462295D01*
X141438095Y-105462295D02*
X141323809Y-105424200D01*
X141323809Y-105424200D02*
X141247619Y-105348009D01*
X141247619Y-105348009D02*
X141209524Y-105271819D01*
X141209524Y-105271819D02*
X141171428Y-105119438D01*
X141171428Y-105119438D02*
X141171428Y-105005152D01*
X141171428Y-105005152D02*
X141209524Y-104852771D01*
X141209524Y-104852771D02*
X141247619Y-104776580D01*
X141247619Y-104776580D02*
X141323809Y-104700390D01*
X141323809Y-104700390D02*
X141438095Y-104662295D01*
X141438095Y-104662295D02*
X141514286Y-104662295D01*
X141514286Y-104662295D02*
X141628571Y-104700390D01*
X141628571Y-104700390D02*
X141666667Y-104738485D01*
X141971428Y-104738485D02*
X142009524Y-104700390D01*
X142009524Y-104700390D02*
X142085714Y-104662295D01*
X142085714Y-104662295D02*
X142276190Y-104662295D01*
X142276190Y-104662295D02*
X142352381Y-104700390D01*
X142352381Y-104700390D02*
X142390476Y-104738485D01*
X142390476Y-104738485D02*
X142428571Y-104814676D01*
X142428571Y-104814676D02*
X142428571Y-104890866D01*
X142428571Y-104890866D02*
X142390476Y-105005152D01*
X142390476Y-105005152D02*
X141933333Y-105462295D01*
X141933333Y-105462295D02*
X142428571Y-105462295D01*
X139866666Y-105462295D02*
X139409523Y-105462295D01*
X139638095Y-105462295D02*
X139638095Y-104662295D01*
X139638095Y-104662295D02*
X139561904Y-104776580D01*
X139561904Y-104776580D02*
X139485714Y-104852771D01*
X139485714Y-104852771D02*
X139409523Y-104890866D01*
X140552381Y-104928961D02*
X140552381Y-105462295D01*
X140209524Y-104928961D02*
X140209524Y-105348009D01*
X140209524Y-105348009D02*
X140247619Y-105424200D01*
X140247619Y-105424200D02*
X140323809Y-105462295D01*
X140323809Y-105462295D02*
X140438095Y-105462295D01*
X140438095Y-105462295D02*
X140514286Y-105424200D01*
X140514286Y-105424200D02*
X140552381Y-105386104D01*
X146166667Y-69186104D02*
X146128571Y-69224200D01*
X146128571Y-69224200D02*
X146014286Y-69262295D01*
X146014286Y-69262295D02*
X145938095Y-69262295D01*
X145938095Y-69262295D02*
X145823809Y-69224200D01*
X145823809Y-69224200D02*
X145747619Y-69148009D01*
X145747619Y-69148009D02*
X145709524Y-69071819D01*
X145709524Y-69071819D02*
X145671428Y-68919438D01*
X145671428Y-68919438D02*
X145671428Y-68805152D01*
X145671428Y-68805152D02*
X145709524Y-68652771D01*
X145709524Y-68652771D02*
X145747619Y-68576580D01*
X145747619Y-68576580D02*
X145823809Y-68500390D01*
X145823809Y-68500390D02*
X145938095Y-68462295D01*
X145938095Y-68462295D02*
X146014286Y-68462295D01*
X146014286Y-68462295D02*
X146128571Y-68500390D01*
X146128571Y-68500390D02*
X146166667Y-68538485D01*
X146928571Y-69262295D02*
X146471428Y-69262295D01*
X146700000Y-69262295D02*
X146700000Y-68462295D01*
X146700000Y-68462295D02*
X146623809Y-68576580D01*
X146623809Y-68576580D02*
X146547619Y-68652771D01*
X146547619Y-68652771D02*
X146471428Y-68690866D01*
X143185713Y-69162295D02*
X142728570Y-69162295D01*
X142957142Y-69162295D02*
X142957142Y-68362295D01*
X142957142Y-68362295D02*
X142880951Y-68476580D01*
X142880951Y-68476580D02*
X142804761Y-68552771D01*
X142804761Y-68552771D02*
X142728570Y-68590866D01*
X143680952Y-68362295D02*
X143757142Y-68362295D01*
X143757142Y-68362295D02*
X143833333Y-68400390D01*
X143833333Y-68400390D02*
X143871428Y-68438485D01*
X143871428Y-68438485D02*
X143909523Y-68514676D01*
X143909523Y-68514676D02*
X143947618Y-68667057D01*
X143947618Y-68667057D02*
X143947618Y-68857533D01*
X143947618Y-68857533D02*
X143909523Y-69009914D01*
X143909523Y-69009914D02*
X143871428Y-69086104D01*
X143871428Y-69086104D02*
X143833333Y-69124200D01*
X143833333Y-69124200D02*
X143757142Y-69162295D01*
X143757142Y-69162295D02*
X143680952Y-69162295D01*
X143680952Y-69162295D02*
X143604761Y-69124200D01*
X143604761Y-69124200D02*
X143566666Y-69086104D01*
X143566666Y-69086104D02*
X143528571Y-69009914D01*
X143528571Y-69009914D02*
X143490475Y-68857533D01*
X143490475Y-68857533D02*
X143490475Y-68667057D01*
X143490475Y-68667057D02*
X143528571Y-68514676D01*
X143528571Y-68514676D02*
X143566666Y-68438485D01*
X143566666Y-68438485D02*
X143604761Y-68400390D01*
X143604761Y-68400390D02*
X143680952Y-68362295D01*
X144633333Y-68628961D02*
X144633333Y-69162295D01*
X144290476Y-68628961D02*
X144290476Y-69048009D01*
X144290476Y-69048009D02*
X144328571Y-69124200D01*
X144328571Y-69124200D02*
X144404761Y-69162295D01*
X144404761Y-69162295D02*
X144519047Y-69162295D01*
X144519047Y-69162295D02*
X144595238Y-69124200D01*
X144595238Y-69124200D02*
X144633333Y-69086104D01*
X155466667Y-103462295D02*
X155200000Y-103081342D01*
X155009524Y-103462295D02*
X155009524Y-102662295D01*
X155009524Y-102662295D02*
X155314286Y-102662295D01*
X155314286Y-102662295D02*
X155390476Y-102700390D01*
X155390476Y-102700390D02*
X155428571Y-102738485D01*
X155428571Y-102738485D02*
X155466667Y-102814676D01*
X155466667Y-102814676D02*
X155466667Y-102928961D01*
X155466667Y-102928961D02*
X155428571Y-103005152D01*
X155428571Y-103005152D02*
X155390476Y-103043247D01*
X155390476Y-103043247D02*
X155314286Y-103081342D01*
X155314286Y-103081342D02*
X155009524Y-103081342D01*
X155771428Y-102738485D02*
X155809524Y-102700390D01*
X155809524Y-102700390D02*
X155885714Y-102662295D01*
X155885714Y-102662295D02*
X156076190Y-102662295D01*
X156076190Y-102662295D02*
X156152381Y-102700390D01*
X156152381Y-102700390D02*
X156190476Y-102738485D01*
X156190476Y-102738485D02*
X156228571Y-102814676D01*
X156228571Y-102814676D02*
X156228571Y-102890866D01*
X156228571Y-102890866D02*
X156190476Y-103005152D01*
X156190476Y-103005152D02*
X155733333Y-103462295D01*
X155733333Y-103462295D02*
X156228571Y-103462295D01*
X151471428Y-102662295D02*
X151966666Y-102662295D01*
X151966666Y-102662295D02*
X151700000Y-102967057D01*
X151700000Y-102967057D02*
X151814285Y-102967057D01*
X151814285Y-102967057D02*
X151890476Y-103005152D01*
X151890476Y-103005152D02*
X151928571Y-103043247D01*
X151928571Y-103043247D02*
X151966666Y-103119438D01*
X151966666Y-103119438D02*
X151966666Y-103309914D01*
X151966666Y-103309914D02*
X151928571Y-103386104D01*
X151928571Y-103386104D02*
X151890476Y-103424200D01*
X151890476Y-103424200D02*
X151814285Y-103462295D01*
X151814285Y-103462295D02*
X151585714Y-103462295D01*
X151585714Y-103462295D02*
X151509523Y-103424200D01*
X151509523Y-103424200D02*
X151471428Y-103386104D01*
X152233333Y-102662295D02*
X152728571Y-102662295D01*
X152728571Y-102662295D02*
X152461905Y-102967057D01*
X152461905Y-102967057D02*
X152576190Y-102967057D01*
X152576190Y-102967057D02*
X152652381Y-103005152D01*
X152652381Y-103005152D02*
X152690476Y-103043247D01*
X152690476Y-103043247D02*
X152728571Y-103119438D01*
X152728571Y-103119438D02*
X152728571Y-103309914D01*
X152728571Y-103309914D02*
X152690476Y-103386104D01*
X152690476Y-103386104D02*
X152652381Y-103424200D01*
X152652381Y-103424200D02*
X152576190Y-103462295D01*
X152576190Y-103462295D02*
X152347619Y-103462295D01*
X152347619Y-103462295D02*
X152271428Y-103424200D01*
X152271428Y-103424200D02*
X152233333Y-103386104D01*
X153223810Y-102662295D02*
X153300000Y-102662295D01*
X153300000Y-102662295D02*
X153376191Y-102700390D01*
X153376191Y-102700390D02*
X153414286Y-102738485D01*
X153414286Y-102738485D02*
X153452381Y-102814676D01*
X153452381Y-102814676D02*
X153490476Y-102967057D01*
X153490476Y-102967057D02*
X153490476Y-103157533D01*
X153490476Y-103157533D02*
X153452381Y-103309914D01*
X153452381Y-103309914D02*
X153414286Y-103386104D01*
X153414286Y-103386104D02*
X153376191Y-103424200D01*
X153376191Y-103424200D02*
X153300000Y-103462295D01*
X153300000Y-103462295D02*
X153223810Y-103462295D01*
X153223810Y-103462295D02*
X153147619Y-103424200D01*
X153147619Y-103424200D02*
X153109524Y-103386104D01*
X153109524Y-103386104D02*
X153071429Y-103309914D01*
X153071429Y-103309914D02*
X153033333Y-103157533D01*
X153033333Y-103157533D02*
X153033333Y-102967057D01*
X153033333Y-102967057D02*
X153071429Y-102814676D01*
X153071429Y-102814676D02*
X153109524Y-102738485D01*
X153109524Y-102738485D02*
X153147619Y-102700390D01*
X153147619Y-102700390D02*
X153223810Y-102662295D01*
X142413333Y-94212295D02*
X142413333Y-94783723D01*
X142413333Y-94783723D02*
X142375238Y-94898009D01*
X142375238Y-94898009D02*
X142299047Y-94974200D01*
X142299047Y-94974200D02*
X142184762Y-95012295D01*
X142184762Y-95012295D02*
X142108571Y-95012295D01*
X143213333Y-95012295D02*
X142756190Y-95012295D01*
X142984762Y-95012295D02*
X142984762Y-94212295D01*
X142984762Y-94212295D02*
X142908571Y-94326580D01*
X142908571Y-94326580D02*
X142832381Y-94402771D01*
X142832381Y-94402771D02*
X142756190Y-94440866D01*
X139710951Y-83343247D02*
X139825237Y-83381342D01*
X139825237Y-83381342D02*
X139863332Y-83419438D01*
X139863332Y-83419438D02*
X139901428Y-83495628D01*
X139901428Y-83495628D02*
X139901428Y-83609914D01*
X139901428Y-83609914D02*
X139863332Y-83686104D01*
X139863332Y-83686104D02*
X139825237Y-83724200D01*
X139825237Y-83724200D02*
X139749047Y-83762295D01*
X139749047Y-83762295D02*
X139444285Y-83762295D01*
X139444285Y-83762295D02*
X139444285Y-82962295D01*
X139444285Y-82962295D02*
X139710951Y-82962295D01*
X139710951Y-82962295D02*
X139787142Y-83000390D01*
X139787142Y-83000390D02*
X139825237Y-83038485D01*
X139825237Y-83038485D02*
X139863332Y-83114676D01*
X139863332Y-83114676D02*
X139863332Y-83190866D01*
X139863332Y-83190866D02*
X139825237Y-83267057D01*
X139825237Y-83267057D02*
X139787142Y-83305152D01*
X139787142Y-83305152D02*
X139710951Y-83343247D01*
X139710951Y-83343247D02*
X139444285Y-83343247D01*
X140587142Y-83762295D02*
X140587142Y-83343247D01*
X140587142Y-83343247D02*
X140549047Y-83267057D01*
X140549047Y-83267057D02*
X140472856Y-83228961D01*
X140472856Y-83228961D02*
X140320475Y-83228961D01*
X140320475Y-83228961D02*
X140244285Y-83267057D01*
X140587142Y-83724200D02*
X140510951Y-83762295D01*
X140510951Y-83762295D02*
X140320475Y-83762295D01*
X140320475Y-83762295D02*
X140244285Y-83724200D01*
X140244285Y-83724200D02*
X140206189Y-83648009D01*
X140206189Y-83648009D02*
X140206189Y-83571819D01*
X140206189Y-83571819D02*
X140244285Y-83495628D01*
X140244285Y-83495628D02*
X140320475Y-83457533D01*
X140320475Y-83457533D02*
X140510951Y-83457533D01*
X140510951Y-83457533D02*
X140587142Y-83419438D01*
X140968095Y-83762295D02*
X140968095Y-83228961D01*
X140968095Y-83381342D02*
X141006190Y-83305152D01*
X141006190Y-83305152D02*
X141044285Y-83267057D01*
X141044285Y-83267057D02*
X141120476Y-83228961D01*
X141120476Y-83228961D02*
X141196666Y-83228961D01*
X141463333Y-83762295D02*
X141463333Y-83228961D01*
X141463333Y-83381342D02*
X141501428Y-83305152D01*
X141501428Y-83305152D02*
X141539523Y-83267057D01*
X141539523Y-83267057D02*
X141615714Y-83228961D01*
X141615714Y-83228961D02*
X141691904Y-83228961D01*
X142263333Y-83724200D02*
X142187142Y-83762295D01*
X142187142Y-83762295D02*
X142034761Y-83762295D01*
X142034761Y-83762295D02*
X141958571Y-83724200D01*
X141958571Y-83724200D02*
X141920475Y-83648009D01*
X141920475Y-83648009D02*
X141920475Y-83343247D01*
X141920475Y-83343247D02*
X141958571Y-83267057D01*
X141958571Y-83267057D02*
X142034761Y-83228961D01*
X142034761Y-83228961D02*
X142187142Y-83228961D01*
X142187142Y-83228961D02*
X142263333Y-83267057D01*
X142263333Y-83267057D02*
X142301428Y-83343247D01*
X142301428Y-83343247D02*
X142301428Y-83419438D01*
X142301428Y-83419438D02*
X141920475Y-83495628D01*
X142758570Y-83762295D02*
X142682380Y-83724200D01*
X142682380Y-83724200D02*
X142644285Y-83648009D01*
X142644285Y-83648009D02*
X142644285Y-82962295D01*
X142872857Y-83838485D02*
X143482380Y-83838485D01*
X143901428Y-82962295D02*
X143901428Y-83533723D01*
X143901428Y-83533723D02*
X143863333Y-83648009D01*
X143863333Y-83648009D02*
X143787142Y-83724200D01*
X143787142Y-83724200D02*
X143672857Y-83762295D01*
X143672857Y-83762295D02*
X143596666Y-83762295D01*
X144625238Y-83762295D02*
X144625238Y-83343247D01*
X144625238Y-83343247D02*
X144587143Y-83267057D01*
X144587143Y-83267057D02*
X144510952Y-83228961D01*
X144510952Y-83228961D02*
X144358571Y-83228961D01*
X144358571Y-83228961D02*
X144282381Y-83267057D01*
X144625238Y-83724200D02*
X144549047Y-83762295D01*
X144549047Y-83762295D02*
X144358571Y-83762295D01*
X144358571Y-83762295D02*
X144282381Y-83724200D01*
X144282381Y-83724200D02*
X144244285Y-83648009D01*
X144244285Y-83648009D02*
X144244285Y-83571819D01*
X144244285Y-83571819D02*
X144282381Y-83495628D01*
X144282381Y-83495628D02*
X144358571Y-83457533D01*
X144358571Y-83457533D02*
X144549047Y-83457533D01*
X144549047Y-83457533D02*
X144625238Y-83419438D01*
X145349048Y-83724200D02*
X145272857Y-83762295D01*
X145272857Y-83762295D02*
X145120476Y-83762295D01*
X145120476Y-83762295D02*
X145044286Y-83724200D01*
X145044286Y-83724200D02*
X145006191Y-83686104D01*
X145006191Y-83686104D02*
X144968095Y-83609914D01*
X144968095Y-83609914D02*
X144968095Y-83381342D01*
X144968095Y-83381342D02*
X145006191Y-83305152D01*
X145006191Y-83305152D02*
X145044286Y-83267057D01*
X145044286Y-83267057D02*
X145120476Y-83228961D01*
X145120476Y-83228961D02*
X145272857Y-83228961D01*
X145272857Y-83228961D02*
X145349048Y-83267057D01*
X145691905Y-83762295D02*
X145691905Y-82962295D01*
X145768095Y-83457533D02*
X145996667Y-83762295D01*
X145996667Y-83228961D02*
X145691905Y-83533723D01*
X146149048Y-83838485D02*
X146758571Y-83838485D01*
X146910952Y-83724200D02*
X147025238Y-83762295D01*
X147025238Y-83762295D02*
X147215714Y-83762295D01*
X147215714Y-83762295D02*
X147291905Y-83724200D01*
X147291905Y-83724200D02*
X147330000Y-83686104D01*
X147330000Y-83686104D02*
X147368095Y-83609914D01*
X147368095Y-83609914D02*
X147368095Y-83533723D01*
X147368095Y-83533723D02*
X147330000Y-83457533D01*
X147330000Y-83457533D02*
X147291905Y-83419438D01*
X147291905Y-83419438D02*
X147215714Y-83381342D01*
X147215714Y-83381342D02*
X147063333Y-83343247D01*
X147063333Y-83343247D02*
X146987143Y-83305152D01*
X146987143Y-83305152D02*
X146949048Y-83267057D01*
X146949048Y-83267057D02*
X146910952Y-83190866D01*
X146910952Y-83190866D02*
X146910952Y-83114676D01*
X146910952Y-83114676D02*
X146949048Y-83038485D01*
X146949048Y-83038485D02*
X146987143Y-83000390D01*
X146987143Y-83000390D02*
X147063333Y-82962295D01*
X147063333Y-82962295D02*
X147253810Y-82962295D01*
X147253810Y-82962295D02*
X147368095Y-83000390D01*
X147634762Y-83228961D02*
X147787143Y-83762295D01*
X147787143Y-83762295D02*
X147939524Y-83381342D01*
X147939524Y-83381342D02*
X148091905Y-83762295D01*
X148091905Y-83762295D02*
X148244286Y-83228961D01*
X148549048Y-83762295D02*
X148549048Y-83228961D01*
X148549048Y-82962295D02*
X148510952Y-83000390D01*
X148510952Y-83000390D02*
X148549048Y-83038485D01*
X148549048Y-83038485D02*
X148587143Y-83000390D01*
X148587143Y-83000390D02*
X148549048Y-82962295D01*
X148549048Y-82962295D02*
X148549048Y-83038485D01*
X148815714Y-83228961D02*
X149120476Y-83228961D01*
X148930000Y-82962295D02*
X148930000Y-83648009D01*
X148930000Y-83648009D02*
X148968095Y-83724200D01*
X148968095Y-83724200D02*
X149044285Y-83762295D01*
X149044285Y-83762295D02*
X149120476Y-83762295D01*
X149730000Y-83724200D02*
X149653809Y-83762295D01*
X149653809Y-83762295D02*
X149501428Y-83762295D01*
X149501428Y-83762295D02*
X149425238Y-83724200D01*
X149425238Y-83724200D02*
X149387143Y-83686104D01*
X149387143Y-83686104D02*
X149349047Y-83609914D01*
X149349047Y-83609914D02*
X149349047Y-83381342D01*
X149349047Y-83381342D02*
X149387143Y-83305152D01*
X149387143Y-83305152D02*
X149425238Y-83267057D01*
X149425238Y-83267057D02*
X149501428Y-83228961D01*
X149501428Y-83228961D02*
X149653809Y-83228961D01*
X149653809Y-83228961D02*
X149730000Y-83267057D01*
X150072857Y-83762295D02*
X150072857Y-82962295D01*
X150415714Y-83762295D02*
X150415714Y-83343247D01*
X150415714Y-83343247D02*
X150377619Y-83267057D01*
X150377619Y-83267057D02*
X150301428Y-83228961D01*
X150301428Y-83228961D02*
X150187142Y-83228961D01*
X150187142Y-83228961D02*
X150110952Y-83267057D01*
X150110952Y-83267057D02*
X150072857Y-83305152D01*
X137333333Y-63662295D02*
X137333333Y-64233723D01*
X137333333Y-64233723D02*
X137295238Y-64348009D01*
X137295238Y-64348009D02*
X137219047Y-64424200D01*
X137219047Y-64424200D02*
X137104762Y-64462295D01*
X137104762Y-64462295D02*
X137028571Y-64462295D01*
X137638095Y-63662295D02*
X138133333Y-63662295D01*
X138133333Y-63662295D02*
X137866667Y-63967057D01*
X137866667Y-63967057D02*
X137980952Y-63967057D01*
X137980952Y-63967057D02*
X138057143Y-64005152D01*
X138057143Y-64005152D02*
X138095238Y-64043247D01*
X138095238Y-64043247D02*
X138133333Y-64119438D01*
X138133333Y-64119438D02*
X138133333Y-64309914D01*
X138133333Y-64309914D02*
X138095238Y-64386104D01*
X138095238Y-64386104D02*
X138057143Y-64424200D01*
X138057143Y-64424200D02*
X137980952Y-64462295D01*
X137980952Y-64462295D02*
X137752381Y-64462295D01*
X137752381Y-64462295D02*
X137676190Y-64424200D01*
X137676190Y-64424200D02*
X137638095Y-64386104D01*
X138333333Y-112162295D02*
X138333333Y-112733723D01*
X138333333Y-112733723D02*
X138295238Y-112848009D01*
X138295238Y-112848009D02*
X138219047Y-112924200D01*
X138219047Y-112924200D02*
X138104762Y-112962295D01*
X138104762Y-112962295D02*
X138028571Y-112962295D01*
X138638095Y-112162295D02*
X139171429Y-112162295D01*
X139171429Y-112162295D02*
X138828571Y-112962295D01*
X155166667Y-83162295D02*
X154900000Y-82781342D01*
X154709524Y-83162295D02*
X154709524Y-82362295D01*
X154709524Y-82362295D02*
X155014286Y-82362295D01*
X155014286Y-82362295D02*
X155090476Y-82400390D01*
X155090476Y-82400390D02*
X155128571Y-82438485D01*
X155128571Y-82438485D02*
X155166667Y-82514676D01*
X155166667Y-82514676D02*
X155166667Y-82628961D01*
X155166667Y-82628961D02*
X155128571Y-82705152D01*
X155128571Y-82705152D02*
X155090476Y-82743247D01*
X155090476Y-82743247D02*
X155014286Y-82781342D01*
X155014286Y-82781342D02*
X154709524Y-82781342D01*
X155928571Y-83162295D02*
X155471428Y-83162295D01*
X155700000Y-83162295D02*
X155700000Y-82362295D01*
X155700000Y-82362295D02*
X155623809Y-82476580D01*
X155623809Y-82476580D02*
X155547619Y-82552771D01*
X155547619Y-82552771D02*
X155471428Y-82590866D01*
X151471428Y-82362295D02*
X151966666Y-82362295D01*
X151966666Y-82362295D02*
X151700000Y-82667057D01*
X151700000Y-82667057D02*
X151814285Y-82667057D01*
X151814285Y-82667057D02*
X151890476Y-82705152D01*
X151890476Y-82705152D02*
X151928571Y-82743247D01*
X151928571Y-82743247D02*
X151966666Y-82819438D01*
X151966666Y-82819438D02*
X151966666Y-83009914D01*
X151966666Y-83009914D02*
X151928571Y-83086104D01*
X151928571Y-83086104D02*
X151890476Y-83124200D01*
X151890476Y-83124200D02*
X151814285Y-83162295D01*
X151814285Y-83162295D02*
X151585714Y-83162295D01*
X151585714Y-83162295D02*
X151509523Y-83124200D01*
X151509523Y-83124200D02*
X151471428Y-83086104D01*
X152233333Y-82362295D02*
X152728571Y-82362295D01*
X152728571Y-82362295D02*
X152461905Y-82667057D01*
X152461905Y-82667057D02*
X152576190Y-82667057D01*
X152576190Y-82667057D02*
X152652381Y-82705152D01*
X152652381Y-82705152D02*
X152690476Y-82743247D01*
X152690476Y-82743247D02*
X152728571Y-82819438D01*
X152728571Y-82819438D02*
X152728571Y-83009914D01*
X152728571Y-83009914D02*
X152690476Y-83086104D01*
X152690476Y-83086104D02*
X152652381Y-83124200D01*
X152652381Y-83124200D02*
X152576190Y-83162295D01*
X152576190Y-83162295D02*
X152347619Y-83162295D01*
X152347619Y-83162295D02*
X152271428Y-83124200D01*
X152271428Y-83124200D02*
X152233333Y-83086104D01*
X153223810Y-82362295D02*
X153300000Y-82362295D01*
X153300000Y-82362295D02*
X153376191Y-82400390D01*
X153376191Y-82400390D02*
X153414286Y-82438485D01*
X153414286Y-82438485D02*
X153452381Y-82514676D01*
X153452381Y-82514676D02*
X153490476Y-82667057D01*
X153490476Y-82667057D02*
X153490476Y-82857533D01*
X153490476Y-82857533D02*
X153452381Y-83009914D01*
X153452381Y-83009914D02*
X153414286Y-83086104D01*
X153414286Y-83086104D02*
X153376191Y-83124200D01*
X153376191Y-83124200D02*
X153300000Y-83162295D01*
X153300000Y-83162295D02*
X153223810Y-83162295D01*
X153223810Y-83162295D02*
X153147619Y-83124200D01*
X153147619Y-83124200D02*
X153109524Y-83086104D01*
X153109524Y-83086104D02*
X153071429Y-83009914D01*
X153071429Y-83009914D02*
X153033333Y-82857533D01*
X153033333Y-82857533D02*
X153033333Y-82667057D01*
X153033333Y-82667057D02*
X153071429Y-82514676D01*
X153071429Y-82514676D02*
X153109524Y-82438485D01*
X153109524Y-82438485D02*
X153147619Y-82400390D01*
X153147619Y-82400390D02*
X153223810Y-82362295D01*
X160708556Y-112860477D02*
X160708556Y-113431905D01*
X160708556Y-113431905D02*
X160670461Y-113546191D01*
X160670461Y-113546191D02*
X160594270Y-113622382D01*
X160594270Y-113622382D02*
X160479985Y-113660477D01*
X160479985Y-113660477D02*
X160403794Y-113660477D01*
X161432366Y-112860477D02*
X161279985Y-112860477D01*
X161279985Y-112860477D02*
X161203794Y-112898572D01*
X161203794Y-112898572D02*
X161165699Y-112936667D01*
X161165699Y-112936667D02*
X161089509Y-113050953D01*
X161089509Y-113050953D02*
X161051413Y-113203334D01*
X161051413Y-113203334D02*
X161051413Y-113508096D01*
X161051413Y-113508096D02*
X161089509Y-113584286D01*
X161089509Y-113584286D02*
X161127604Y-113622382D01*
X161127604Y-113622382D02*
X161203794Y-113660477D01*
X161203794Y-113660477D02*
X161356175Y-113660477D01*
X161356175Y-113660477D02*
X161432366Y-113622382D01*
X161432366Y-113622382D02*
X161470461Y-113584286D01*
X161470461Y-113584286D02*
X161508556Y-113508096D01*
X161508556Y-113508096D02*
X161508556Y-113317620D01*
X161508556Y-113317620D02*
X161470461Y-113241429D01*
X161470461Y-113241429D02*
X161432366Y-113203334D01*
X161432366Y-113203334D02*
X161356175Y-113165239D01*
X161356175Y-113165239D02*
X161203794Y-113165239D01*
X161203794Y-113165239D02*
X161127604Y-113203334D01*
X161127604Y-113203334D02*
X161089509Y-113241429D01*
X161089509Y-113241429D02*
X161051413Y-113317620D01*
X155566667Y-96262295D02*
X155300000Y-95881342D01*
X155109524Y-96262295D02*
X155109524Y-95462295D01*
X155109524Y-95462295D02*
X155414286Y-95462295D01*
X155414286Y-95462295D02*
X155490476Y-95500390D01*
X155490476Y-95500390D02*
X155528571Y-95538485D01*
X155528571Y-95538485D02*
X155566667Y-95614676D01*
X155566667Y-95614676D02*
X155566667Y-95728961D01*
X155566667Y-95728961D02*
X155528571Y-95805152D01*
X155528571Y-95805152D02*
X155490476Y-95843247D01*
X155490476Y-95843247D02*
X155414286Y-95881342D01*
X155414286Y-95881342D02*
X155109524Y-95881342D01*
X155833333Y-95462295D02*
X156328571Y-95462295D01*
X156328571Y-95462295D02*
X156061905Y-95767057D01*
X156061905Y-95767057D02*
X156176190Y-95767057D01*
X156176190Y-95767057D02*
X156252381Y-95805152D01*
X156252381Y-95805152D02*
X156290476Y-95843247D01*
X156290476Y-95843247D02*
X156328571Y-95919438D01*
X156328571Y-95919438D02*
X156328571Y-96109914D01*
X156328571Y-96109914D02*
X156290476Y-96186104D01*
X156290476Y-96186104D02*
X156252381Y-96224200D01*
X156252381Y-96224200D02*
X156176190Y-96262295D01*
X156176190Y-96262295D02*
X155947619Y-96262295D01*
X155947619Y-96262295D02*
X155871428Y-96224200D01*
X155871428Y-96224200D02*
X155833333Y-96186104D01*
X151928571Y-95462295D02*
X151547619Y-95462295D01*
X151547619Y-95462295D02*
X151509523Y-95843247D01*
X151509523Y-95843247D02*
X151547619Y-95805152D01*
X151547619Y-95805152D02*
X151623809Y-95767057D01*
X151623809Y-95767057D02*
X151814285Y-95767057D01*
X151814285Y-95767057D02*
X151890476Y-95805152D01*
X151890476Y-95805152D02*
X151928571Y-95843247D01*
X151928571Y-95843247D02*
X151966666Y-95919438D01*
X151966666Y-95919438D02*
X151966666Y-96109914D01*
X151966666Y-96109914D02*
X151928571Y-96186104D01*
X151928571Y-96186104D02*
X151890476Y-96224200D01*
X151890476Y-96224200D02*
X151814285Y-96262295D01*
X151814285Y-96262295D02*
X151623809Y-96262295D01*
X151623809Y-96262295D02*
X151547619Y-96224200D01*
X151547619Y-96224200D02*
X151509523Y-96186104D01*
X152652381Y-95462295D02*
X152500000Y-95462295D01*
X152500000Y-95462295D02*
X152423809Y-95500390D01*
X152423809Y-95500390D02*
X152385714Y-95538485D01*
X152385714Y-95538485D02*
X152309524Y-95652771D01*
X152309524Y-95652771D02*
X152271428Y-95805152D01*
X152271428Y-95805152D02*
X152271428Y-96109914D01*
X152271428Y-96109914D02*
X152309524Y-96186104D01*
X152309524Y-96186104D02*
X152347619Y-96224200D01*
X152347619Y-96224200D02*
X152423809Y-96262295D01*
X152423809Y-96262295D02*
X152576190Y-96262295D01*
X152576190Y-96262295D02*
X152652381Y-96224200D01*
X152652381Y-96224200D02*
X152690476Y-96186104D01*
X152690476Y-96186104D02*
X152728571Y-96109914D01*
X152728571Y-96109914D02*
X152728571Y-95919438D01*
X152728571Y-95919438D02*
X152690476Y-95843247D01*
X152690476Y-95843247D02*
X152652381Y-95805152D01*
X152652381Y-95805152D02*
X152576190Y-95767057D01*
X152576190Y-95767057D02*
X152423809Y-95767057D01*
X152423809Y-95767057D02*
X152347619Y-95805152D01*
X152347619Y-95805152D02*
X152309524Y-95843247D01*
X152309524Y-95843247D02*
X152271428Y-95919438D01*
X153223810Y-95462295D02*
X153300000Y-95462295D01*
X153300000Y-95462295D02*
X153376191Y-95500390D01*
X153376191Y-95500390D02*
X153414286Y-95538485D01*
X153414286Y-95538485D02*
X153452381Y-95614676D01*
X153452381Y-95614676D02*
X153490476Y-95767057D01*
X153490476Y-95767057D02*
X153490476Y-95957533D01*
X153490476Y-95957533D02*
X153452381Y-96109914D01*
X153452381Y-96109914D02*
X153414286Y-96186104D01*
X153414286Y-96186104D02*
X153376191Y-96224200D01*
X153376191Y-96224200D02*
X153300000Y-96262295D01*
X153300000Y-96262295D02*
X153223810Y-96262295D01*
X153223810Y-96262295D02*
X153147619Y-96224200D01*
X153147619Y-96224200D02*
X153109524Y-96186104D01*
X153109524Y-96186104D02*
X153071429Y-96109914D01*
X153071429Y-96109914D02*
X153033333Y-95957533D01*
X153033333Y-95957533D02*
X153033333Y-95767057D01*
X153033333Y-95767057D02*
X153071429Y-95614676D01*
X153071429Y-95614676D02*
X153109524Y-95538485D01*
X153109524Y-95538485D02*
X153147619Y-95500390D01*
X153147619Y-95500390D02*
X153223810Y-95462295D01*
X156609524Y-93462295D02*
X156609524Y-92662295D01*
X156609524Y-92662295D02*
X156800000Y-92662295D01*
X156800000Y-92662295D02*
X156914286Y-92700390D01*
X156914286Y-92700390D02*
X156990476Y-92776580D01*
X156990476Y-92776580D02*
X157028571Y-92852771D01*
X157028571Y-92852771D02*
X157066667Y-93005152D01*
X157066667Y-93005152D02*
X157066667Y-93119438D01*
X157066667Y-93119438D02*
X157028571Y-93271819D01*
X157028571Y-93271819D02*
X156990476Y-93348009D01*
X156990476Y-93348009D02*
X156914286Y-93424200D01*
X156914286Y-93424200D02*
X156800000Y-93462295D01*
X156800000Y-93462295D02*
X156609524Y-93462295D01*
X157828571Y-93462295D02*
X157371428Y-93462295D01*
X157600000Y-93462295D02*
X157600000Y-92662295D01*
X157600000Y-92662295D02*
X157523809Y-92776580D01*
X157523809Y-92776580D02*
X157447619Y-92852771D01*
X157447619Y-92852771D02*
X157371428Y-92890866D01*
X156485714Y-85362295D02*
X156104762Y-85362295D01*
X156104762Y-85362295D02*
X156104762Y-84562295D01*
X156752381Y-84943247D02*
X157019047Y-84943247D01*
X157133333Y-85362295D02*
X156752381Y-85362295D01*
X156752381Y-85362295D02*
X156752381Y-84562295D01*
X156752381Y-84562295D02*
X157133333Y-84562295D01*
X157476191Y-85362295D02*
X157476191Y-84562295D01*
X157476191Y-84562295D02*
X157666667Y-84562295D01*
X157666667Y-84562295D02*
X157780953Y-84600390D01*
X157780953Y-84600390D02*
X157857143Y-84676580D01*
X157857143Y-84676580D02*
X157895238Y-84752771D01*
X157895238Y-84752771D02*
X157933334Y-84905152D01*
X157933334Y-84905152D02*
X157933334Y-85019438D01*
X157933334Y-85019438D02*
X157895238Y-85171819D01*
X157895238Y-85171819D02*
X157857143Y-85248009D01*
X157857143Y-85248009D02*
X157780953Y-85324200D01*
X157780953Y-85324200D02*
X157666667Y-85362295D01*
X157666667Y-85362295D02*
X157476191Y-85362295D01*
X148333333Y-63662295D02*
X148333333Y-64233723D01*
X148333333Y-64233723D02*
X148295238Y-64348009D01*
X148295238Y-64348009D02*
X148219047Y-64424200D01*
X148219047Y-64424200D02*
X148104762Y-64462295D01*
X148104762Y-64462295D02*
X148028571Y-64462295D01*
X148676190Y-63738485D02*
X148714286Y-63700390D01*
X148714286Y-63700390D02*
X148790476Y-63662295D01*
X148790476Y-63662295D02*
X148980952Y-63662295D01*
X148980952Y-63662295D02*
X149057143Y-63700390D01*
X149057143Y-63700390D02*
X149095238Y-63738485D01*
X149095238Y-63738485D02*
X149133333Y-63814676D01*
X149133333Y-63814676D02*
X149133333Y-63890866D01*
X149133333Y-63890866D02*
X149095238Y-64005152D01*
X149095238Y-64005152D02*
X148638095Y-64462295D01*
X148638095Y-64462295D02*
X149133333Y-64462295D01*
X140766667Y-69186104D02*
X140728571Y-69224200D01*
X140728571Y-69224200D02*
X140614286Y-69262295D01*
X140614286Y-69262295D02*
X140538095Y-69262295D01*
X140538095Y-69262295D02*
X140423809Y-69224200D01*
X140423809Y-69224200D02*
X140347619Y-69148009D01*
X140347619Y-69148009D02*
X140309524Y-69071819D01*
X140309524Y-69071819D02*
X140271428Y-68919438D01*
X140271428Y-68919438D02*
X140271428Y-68805152D01*
X140271428Y-68805152D02*
X140309524Y-68652771D01*
X140309524Y-68652771D02*
X140347619Y-68576580D01*
X140347619Y-68576580D02*
X140423809Y-68500390D01*
X140423809Y-68500390D02*
X140538095Y-68462295D01*
X140538095Y-68462295D02*
X140614286Y-68462295D01*
X140614286Y-68462295D02*
X140728571Y-68500390D01*
X140728571Y-68500390D02*
X140766667Y-68538485D01*
X141033333Y-68462295D02*
X141528571Y-68462295D01*
X141528571Y-68462295D02*
X141261905Y-68767057D01*
X141261905Y-68767057D02*
X141376190Y-68767057D01*
X141376190Y-68767057D02*
X141452381Y-68805152D01*
X141452381Y-68805152D02*
X141490476Y-68843247D01*
X141490476Y-68843247D02*
X141528571Y-68919438D01*
X141528571Y-68919438D02*
X141528571Y-69109914D01*
X141528571Y-69109914D02*
X141490476Y-69186104D01*
X141490476Y-69186104D02*
X141452381Y-69224200D01*
X141452381Y-69224200D02*
X141376190Y-69262295D01*
X141376190Y-69262295D02*
X141147619Y-69262295D01*
X141147619Y-69262295D02*
X141071428Y-69224200D01*
X141071428Y-69224200D02*
X141033333Y-69186104D01*
X137528571Y-68462295D02*
X137604761Y-68462295D01*
X137604761Y-68462295D02*
X137680952Y-68500390D01*
X137680952Y-68500390D02*
X137719047Y-68538485D01*
X137719047Y-68538485D02*
X137757142Y-68614676D01*
X137757142Y-68614676D02*
X137795237Y-68767057D01*
X137795237Y-68767057D02*
X137795237Y-68957533D01*
X137795237Y-68957533D02*
X137757142Y-69109914D01*
X137757142Y-69109914D02*
X137719047Y-69186104D01*
X137719047Y-69186104D02*
X137680952Y-69224200D01*
X137680952Y-69224200D02*
X137604761Y-69262295D01*
X137604761Y-69262295D02*
X137528571Y-69262295D01*
X137528571Y-69262295D02*
X137452380Y-69224200D01*
X137452380Y-69224200D02*
X137414285Y-69186104D01*
X137414285Y-69186104D02*
X137376190Y-69109914D01*
X137376190Y-69109914D02*
X137338094Y-68957533D01*
X137338094Y-68957533D02*
X137338094Y-68767057D01*
X137338094Y-68767057D02*
X137376190Y-68614676D01*
X137376190Y-68614676D02*
X137414285Y-68538485D01*
X137414285Y-68538485D02*
X137452380Y-68500390D01*
X137452380Y-68500390D02*
X137528571Y-68462295D01*
X138138095Y-69186104D02*
X138176190Y-69224200D01*
X138176190Y-69224200D02*
X138138095Y-69262295D01*
X138138095Y-69262295D02*
X138099999Y-69224200D01*
X138099999Y-69224200D02*
X138138095Y-69186104D01*
X138138095Y-69186104D02*
X138138095Y-69262295D01*
X138938094Y-69262295D02*
X138480951Y-69262295D01*
X138709523Y-69262295D02*
X138709523Y-68462295D01*
X138709523Y-68462295D02*
X138633332Y-68576580D01*
X138633332Y-68576580D02*
X138557142Y-68652771D01*
X138557142Y-68652771D02*
X138480951Y-68690866D01*
X139623809Y-68728961D02*
X139623809Y-69262295D01*
X139280952Y-68728961D02*
X139280952Y-69148009D01*
X139280952Y-69148009D02*
X139319047Y-69224200D01*
X139319047Y-69224200D02*
X139395237Y-69262295D01*
X139395237Y-69262295D02*
X139509523Y-69262295D01*
X139509523Y-69262295D02*
X139585714Y-69224200D01*
X139585714Y-69224200D02*
X139623809Y-69186104D01*
X141790476Y-102562295D02*
X141790476Y-103209914D01*
X141790476Y-103209914D02*
X141828571Y-103286104D01*
X141828571Y-103286104D02*
X141866666Y-103324200D01*
X141866666Y-103324200D02*
X141942857Y-103362295D01*
X141942857Y-103362295D02*
X142095238Y-103362295D01*
X142095238Y-103362295D02*
X142171428Y-103324200D01*
X142171428Y-103324200D02*
X142209523Y-103286104D01*
X142209523Y-103286104D02*
X142247619Y-103209914D01*
X142247619Y-103209914D02*
X142247619Y-102562295D01*
X143047618Y-103362295D02*
X142590475Y-103362295D01*
X142819047Y-103362295D02*
X142819047Y-102562295D01*
X142819047Y-102562295D02*
X142742856Y-102676580D01*
X142742856Y-102676580D02*
X142666666Y-102752771D01*
X142666666Y-102752771D02*
X142590475Y-102790866D01*
X138220951Y-97262295D02*
X137839999Y-97262295D01*
X137839999Y-97262295D02*
X137839999Y-96462295D01*
X138487618Y-97262295D02*
X138487618Y-96462295D01*
X138487618Y-96462295D02*
X138754284Y-97033723D01*
X138754284Y-97033723D02*
X139020951Y-96462295D01*
X139020951Y-96462295D02*
X139020951Y-97262295D01*
X139325713Y-96462295D02*
X139820951Y-96462295D01*
X139820951Y-96462295D02*
X139554285Y-96767057D01*
X139554285Y-96767057D02*
X139668570Y-96767057D01*
X139668570Y-96767057D02*
X139744761Y-96805152D01*
X139744761Y-96805152D02*
X139782856Y-96843247D01*
X139782856Y-96843247D02*
X139820951Y-96919438D01*
X139820951Y-96919438D02*
X139820951Y-97109914D01*
X139820951Y-97109914D02*
X139782856Y-97186104D01*
X139782856Y-97186104D02*
X139744761Y-97224200D01*
X139744761Y-97224200D02*
X139668570Y-97262295D01*
X139668570Y-97262295D02*
X139439999Y-97262295D01*
X139439999Y-97262295D02*
X139363808Y-97224200D01*
X139363808Y-97224200D02*
X139325713Y-97186104D01*
X140582856Y-97262295D02*
X140125713Y-97262295D01*
X140354285Y-97262295D02*
X140354285Y-96462295D01*
X140354285Y-96462295D02*
X140278094Y-96576580D01*
X140278094Y-96576580D02*
X140201904Y-96652771D01*
X140201904Y-96652771D02*
X140125713Y-96690866D01*
X140849523Y-96462295D02*
X141382857Y-96462295D01*
X141382857Y-96462295D02*
X141039999Y-97262295D01*
X141497143Y-97338485D02*
X142106666Y-97338485D01*
X142182857Y-96462295D02*
X142640000Y-96462295D01*
X142411428Y-97262295D02*
X142411428Y-96462295D01*
X143059048Y-96462295D02*
X143211429Y-96462295D01*
X143211429Y-96462295D02*
X143287619Y-96500390D01*
X143287619Y-96500390D02*
X143363810Y-96576580D01*
X143363810Y-96576580D02*
X143401905Y-96728961D01*
X143401905Y-96728961D02*
X143401905Y-96995628D01*
X143401905Y-96995628D02*
X143363810Y-97148009D01*
X143363810Y-97148009D02*
X143287619Y-97224200D01*
X143287619Y-97224200D02*
X143211429Y-97262295D01*
X143211429Y-97262295D02*
X143059048Y-97262295D01*
X143059048Y-97262295D02*
X142982857Y-97224200D01*
X142982857Y-97224200D02*
X142906667Y-97148009D01*
X142906667Y-97148009D02*
X142868571Y-96995628D01*
X142868571Y-96995628D02*
X142868571Y-96728961D01*
X142868571Y-96728961D02*
X142906667Y-96576580D01*
X142906667Y-96576580D02*
X142982857Y-96500390D01*
X142982857Y-96500390D02*
X143059048Y-96462295D01*
X143744762Y-96957533D02*
X144354286Y-96957533D01*
X144697142Y-96538485D02*
X144735238Y-96500390D01*
X144735238Y-96500390D02*
X144811428Y-96462295D01*
X144811428Y-96462295D02*
X145001904Y-96462295D01*
X145001904Y-96462295D02*
X145078095Y-96500390D01*
X145078095Y-96500390D02*
X145116190Y-96538485D01*
X145116190Y-96538485D02*
X145154285Y-96614676D01*
X145154285Y-96614676D02*
X145154285Y-96690866D01*
X145154285Y-96690866D02*
X145116190Y-96805152D01*
X145116190Y-96805152D02*
X144659047Y-97262295D01*
X144659047Y-97262295D02*
X145154285Y-97262295D01*
X145459047Y-96538485D02*
X145497143Y-96500390D01*
X145497143Y-96500390D02*
X145573333Y-96462295D01*
X145573333Y-96462295D02*
X145763809Y-96462295D01*
X145763809Y-96462295D02*
X145840000Y-96500390D01*
X145840000Y-96500390D02*
X145878095Y-96538485D01*
X145878095Y-96538485D02*
X145916190Y-96614676D01*
X145916190Y-96614676D02*
X145916190Y-96690866D01*
X145916190Y-96690866D02*
X145878095Y-96805152D01*
X145878095Y-96805152D02*
X145420952Y-97262295D01*
X145420952Y-97262295D02*
X145916190Y-97262295D01*
X146411429Y-96462295D02*
X146487619Y-96462295D01*
X146487619Y-96462295D02*
X146563810Y-96500390D01*
X146563810Y-96500390D02*
X146601905Y-96538485D01*
X146601905Y-96538485D02*
X146640000Y-96614676D01*
X146640000Y-96614676D02*
X146678095Y-96767057D01*
X146678095Y-96767057D02*
X146678095Y-96957533D01*
X146678095Y-96957533D02*
X146640000Y-97109914D01*
X146640000Y-97109914D02*
X146601905Y-97186104D01*
X146601905Y-97186104D02*
X146563810Y-97224200D01*
X146563810Y-97224200D02*
X146487619Y-97262295D01*
X146487619Y-97262295D02*
X146411429Y-97262295D01*
X146411429Y-97262295D02*
X146335238Y-97224200D01*
X146335238Y-97224200D02*
X146297143Y-97186104D01*
X146297143Y-97186104D02*
X146259048Y-97109914D01*
X146259048Y-97109914D02*
X146220952Y-96957533D01*
X146220952Y-96957533D02*
X146220952Y-96767057D01*
X146220952Y-96767057D02*
X146259048Y-96614676D01*
X146259048Y-96614676D02*
X146297143Y-96538485D01*
X146297143Y-96538485D02*
X146335238Y-96500390D01*
X146335238Y-96500390D02*
X146411429Y-96462295D01*
D12*
%TO.C,J4*%
X162450000Y-62750000D02*
X163830000Y-62750000D01*
X162450000Y-64130000D02*
X162450000Y-62750000D01*
X162450000Y-65400000D02*
X162450000Y-68050000D01*
X162450000Y-65400000D02*
X165210000Y-65400000D01*
X162450000Y-68050000D02*
X165210000Y-68050000D01*
X165210000Y-65400000D02*
X165210000Y-68050000D01*
D10*
%TO.C,S1*%
X148220000Y-73465000D02*
X148220000Y-73965000D01*
X148220000Y-73465000D02*
X148720000Y-73465000D01*
X148220000Y-77665000D02*
X148220000Y-77165000D01*
X148220000Y-77665000D02*
X148720000Y-77665000D01*
X160120000Y-73465000D02*
X159620000Y-73465000D01*
X160120000Y-73465000D02*
X160120000Y-73965000D01*
X160120000Y-77665000D02*
X159620000Y-77665000D01*
X160120000Y-77665000D02*
X160120000Y-77165000D01*
D12*
%TO.C,J5*%
X149860000Y-106564549D02*
X149860000Y-114184549D01*
X149860000Y-114184549D02*
X160020000Y-114184549D01*
X160020000Y-106564549D02*
X149860000Y-106564549D01*
X160020000Y-112914549D02*
X149860000Y-112914549D01*
X160020000Y-114184549D02*
X160020000Y-106564549D01*
%TO.C,U2*%
X137130000Y-79460000D02*
X137130000Y-74840000D01*
X140390000Y-79460000D02*
X140390000Y-78080000D01*
X144090000Y-79460000D02*
X144090000Y-78080000D01*
X147350000Y-74840000D02*
X137130000Y-74840000D01*
X147350000Y-78080000D02*
X137130000Y-78080000D01*
X147350000Y-79460000D02*
X137130000Y-79460000D01*
X147350000Y-79460000D02*
X147350000Y-74840000D01*
%TO.C,C2*%
X141755000Y-105760000D02*
X140225000Y-105760000D01*
X141755000Y-107600000D02*
X140225000Y-107600000D01*
%TO.C,C1*%
X145565000Y-69565000D02*
X144035000Y-69565000D01*
X145565000Y-71405000D02*
X144035000Y-71405000D01*
%TO.C,R2*%
X152519554Y-101169151D02*
X153469554Y-101169151D01*
X158259554Y-101169151D02*
X157309554Y-101169151D01*
X157309554Y-102089151D02*
X153469554Y-102089151D01*
X153469554Y-100249151D01*
X157309554Y-100249151D01*
X157309554Y-102089151D01*
%TO.C,J1*%
X137330000Y-84300000D02*
X152030000Y-84300000D01*
X137330000Y-93500000D02*
X137330000Y-84300000D01*
X146130000Y-93500000D02*
X137330000Y-93500000D01*
X151180000Y-84100000D02*
X152230000Y-84100000D01*
X152030000Y-84300000D02*
X152030000Y-86900000D01*
X152030000Y-90800000D02*
X152030000Y-93500000D01*
X152030000Y-93500000D02*
X150130000Y-93500000D01*
X152230000Y-85150000D02*
X152230000Y-84100000D01*
%TO.C,J3*%
X138955000Y-65515000D02*
X138955000Y-64135000D01*
X140335000Y-65515000D02*
X138955000Y-65515000D01*
X141605000Y-62755000D02*
X146795000Y-62755000D01*
X141605000Y-65515000D02*
X141605000Y-62755000D01*
X141605000Y-65515000D02*
X146795000Y-65515000D01*
X146795000Y-65515000D02*
X146795000Y-62755000D01*
%TO.C,J7*%
X140225000Y-113775000D02*
X140225000Y-112395000D01*
X141605000Y-113775000D02*
X140225000Y-113775000D01*
X142875000Y-111015000D02*
X148065000Y-111015000D01*
X142875000Y-113775000D02*
X142875000Y-111015000D01*
X142875000Y-113775000D02*
X148065000Y-113775000D01*
X148065000Y-113775000D02*
X148065000Y-111015000D01*
%TO.C,R1*%
X150800000Y-81127600D02*
X151750000Y-81127600D01*
X156540000Y-81127600D02*
X155590000Y-81127600D01*
X151750000Y-80207600D02*
X155590000Y-80207600D01*
X155590000Y-82047600D01*
X151750000Y-82047600D01*
X151750000Y-80207600D01*
%TO.C,J6*%
X162325223Y-108548182D02*
X163705223Y-108548182D01*
X162325223Y-109928182D02*
X162325223Y-108548182D01*
X162325223Y-111198182D02*
X162325223Y-113848182D01*
X162325223Y-111198182D02*
X165085223Y-111198182D01*
X162325223Y-113848182D02*
X165085223Y-113848182D01*
X165085223Y-111198182D02*
X165085223Y-113848182D01*
%TO.C,R3*%
X152560000Y-97790000D02*
X153510000Y-97790000D01*
X158300000Y-97790000D02*
X157350000Y-97790000D01*
X153510000Y-96870000D02*
X157350000Y-96870000D01*
X157350000Y-98710000D01*
X153510000Y-98710000D01*
X153510000Y-96870000D01*
%TO.C,D1*%
X155435000Y-91465000D02*
X158525000Y-91465000D01*
X155435170Y-91465000D02*
G75*
G02*
X156980000Y-85915000I1544830J2560000D01*
G01*
X156980000Y-85915000D02*
G75*
G02*
X158524830Y-91465000I0J-2990000D01*
G01*
X159480000Y-88905000D02*
G75*
G02*
X154480000Y-88905000I-2500000J0D01*
G01*
X154480000Y-88905000D02*
G75*
G02*
X159480000Y-88905000I2500000J0D01*
G01*
%TO.C,J2*%
X149860000Y-62550000D02*
X149860000Y-70170000D01*
X149860000Y-70170000D02*
X160020000Y-70170000D01*
X160020000Y-62550000D02*
X149860000Y-62550000D01*
X160020000Y-68900000D02*
X149860000Y-68900000D01*
X160020000Y-70170000D02*
X160020000Y-62550000D01*
%TO.C,C3*%
X140445000Y-69565000D02*
X138915000Y-69565000D01*
X140445000Y-71405000D02*
X138915000Y-71405000D01*
%TO.C,U1*%
X137130000Y-97705000D02*
X137130000Y-102325000D01*
X137130000Y-97705000D02*
X147350000Y-97705000D01*
X137130000Y-99085000D02*
X147350000Y-99085000D01*
X137130000Y-102325000D02*
X147350000Y-102325000D01*
X140390000Y-97705000D02*
X140390000Y-99085000D01*
X144090000Y-97705000D02*
X144090000Y-99085000D01*
X147350000Y-97705000D02*
X147350000Y-102325000D01*
%TD*%
M02*
