%TF.GenerationSoftware,KiCad,Pcbnew,9.0.2*%
%TF.CreationDate,2025-06-12T21:47:04+05:30*%
%TF.ProjectId,Breadboard power supply,42726561-6462-46f6-9172-6420706f7765,rev?*%
%TF.SameCoordinates,Original*%
%TF.FileFunction,Soldermask,Top*%
%TF.FilePolarity,Negative*%
%FSLAX46Y46*%
G04 Gerber Fmt 4.6, Leading zero omitted, Abs format (unit mm)*
G04 Created by KiCad (PCBNEW 9.0.2) date 2025-06-12 21:47:04*
%MOMM*%
%LPD*%
G01*
G04 APERTURE LIST*
G04 Aperture macros list*
%AMRoundRect*
0 Rectangle with rounded corners*
0 $1 Rounding radius*
0 $2 $3 $4 $5 $6 $7 $8 $9 X,Y pos of 4 corners*
0 Add a 4 corners polygon primitive as box body*
4,1,4,$2,$3,$4,$5,$6,$7,$8,$9,$2,$3,0*
0 Add four circle primitives for the rounded corners*
1,1,$1+$1,$2,$3*
1,1,$1+$1,$4,$5*
1,1,$1+$1,$6,$7*
1,1,$1+$1,$8,$9*
0 Add four rect primitives between the rounded corners*
20,1,$1+$1,$2,$3,$4,$5,0*
20,1,$1+$1,$4,$5,$6,$7,0*
20,1,$1+$1,$6,$7,$8,$9,0*
20,1,$1+$1,$8,$9,$2,$3,0*%
G04 Aperture macros list end*
%ADD10R,1.700000X1.700000*%
%ADD11C,1.700000*%
%ADD12R,1.900000X1.900000*%
%ADD13C,1.900000*%
%ADD14R,3.000000X3.000000*%
%ADD15C,3.000000*%
%ADD16R,1.905000X2.000000*%
%ADD17O,1.905000X2.000000*%
%ADD18C,1.600000*%
%ADD19C,1.400000*%
%ADD20R,3.500000X3.500000*%
%ADD21RoundRect,0.750000X-0.750000X-1.000000X0.750000X-1.000000X0.750000X1.000000X-0.750000X1.000000X0*%
%ADD22RoundRect,0.875000X-0.875000X-0.875000X0.875000X-0.875000X0.875000X0.875000X-0.875000X0.875000X0*%
%ADD23R,1.800000X1.800000*%
%ADD24C,1.800000*%
G04 APERTURE END LIST*
D10*
%TO.C,J4*%
X163830000Y-64130000D03*
D11*
X163830000Y-66670000D03*
%TD*%
D12*
%TO.C,S1*%
X156520000Y-75565000D03*
D13*
X154020000Y-75565000D03*
X151520000Y-75565000D03*
%TD*%
D14*
%TO.C,J5*%
X152400000Y-110374549D03*
D15*
X157480000Y-110374549D03*
%TD*%
D16*
%TO.C,U2*%
X144780000Y-76200000D03*
D17*
X142240000Y-76200000D03*
X139700000Y-76200000D03*
%TD*%
D18*
%TO.C,C2*%
X142240000Y-106680000D03*
X139740000Y-106680000D03*
%TD*%
%TO.C,C1*%
X146050000Y-70485000D03*
X143550000Y-70485000D03*
%TD*%
D19*
%TO.C,R2*%
X159199554Y-101169151D03*
X151579554Y-101169151D03*
%TD*%
D20*
%TO.C,J1*%
X151130000Y-88900000D03*
D21*
X145130000Y-88900000D03*
D22*
X148130000Y-93600000D03*
%TD*%
D10*
%TO.C,J3*%
X140335000Y-64135000D03*
D11*
X142875000Y-64135000D03*
X145415000Y-64135000D03*
%TD*%
D10*
%TO.C,J7*%
X141605000Y-112395000D03*
D11*
X144145000Y-112395000D03*
X146685000Y-112395000D03*
%TD*%
D19*
%TO.C,R1*%
X149860000Y-81127600D03*
X157480000Y-81127600D03*
%TD*%
D10*
%TO.C,J6*%
X163705223Y-109928182D03*
D11*
X163705223Y-112468182D03*
%TD*%
D19*
%TO.C,R3*%
X151620000Y-97790000D03*
X159240000Y-97790000D03*
%TD*%
D23*
%TO.C,D1*%
X156980000Y-90175000D03*
D24*
X156980000Y-87635000D03*
%TD*%
D14*
%TO.C,J2*%
X152400000Y-66360000D03*
D15*
X157480000Y-66360000D03*
%TD*%
D18*
%TO.C,C3*%
X140930000Y-70485000D03*
X138430000Y-70485000D03*
%TD*%
D16*
%TO.C,U1*%
X139700000Y-100965000D03*
D17*
X142240000Y-100965000D03*
X144780000Y-100965000D03*
%TD*%
M02*
