%TF.GenerationSoftware,KiCad,Pcbnew,9.0.2*%
%TF.CreationDate,2025-06-13T22:03:49+05:30*%
%TF.ProjectId,Tiny Solar Supply,54696e79-2053-46f6-9c61-722053757070,rev?*%
%TF.SameCoordinates,Original*%
%TF.FileFunction,Legend,Top*%
%TF.FilePolarity,Positive*%
%FSLAX46Y46*%
G04 Gerber Fmt 4.6, Leading zero omitted, Abs format (unit mm)*
G04 Created by KiCad (PCBNEW 9.0.2) date 2025-06-13 22:03:49*
%MOMM*%
%LPD*%
G01*
G04 APERTURE LIST*
G04 Aperture macros list*
%AMRoundRect*
0 Rectangle with rounded corners*
0 $1 Rounding radius*
0 $2 $3 $4 $5 $6 $7 $8 $9 X,Y pos of 4 corners*
0 Add a 4 corners polygon primitive as box body*
4,1,4,$2,$3,$4,$5,$6,$7,$8,$9,$2,$3,0*
0 Add four circle primitives for the rounded corners*
1,1,$1+$1,$2,$3*
1,1,$1+$1,$4,$5*
1,1,$1+$1,$6,$7*
1,1,$1+$1,$8,$9*
0 Add four rect primitives between the rounded corners*
20,1,$1+$1,$2,$3,$4,$5,0*
20,1,$1+$1,$4,$5,$6,$7,0*
20,1,$1+$1,$6,$7,$8,$9,0*
20,1,$1+$1,$8,$9,$2,$3,0*%
G04 Aperture macros list end*
%ADD10C,0.100000*%
%ADD11C,0.150000*%
%ADD12C,0.127000*%
%ADD13C,0.200000*%
%ADD14C,0.120000*%
%ADD15C,0.152400*%
%ADD16RoundRect,0.102000X1.060000X0.750000X-1.060000X0.750000X-1.060000X-0.750000X1.060000X-0.750000X0*%
%ADD17RoundRect,0.250000X0.325000X0.650000X-0.325000X0.650000X-0.325000X-0.650000X0.325000X-0.650000X0*%
%ADD18RoundRect,0.250000X-0.262500X-0.450000X0.262500X-0.450000X0.262500X0.450000X-0.262500X0.450000X0*%
%ADD19R,1.700000X1.700000*%
%ADD20C,1.700000*%
%ADD21RoundRect,0.250000X-0.250000X-0.475000X0.250000X-0.475000X0.250000X0.475000X-0.250000X0.475000X0*%
%ADD22R,3.302000X2.667000*%
%ADD23RoundRect,0.150000X-0.587500X-0.150000X0.587500X-0.150000X0.587500X0.150000X-0.587500X0.150000X0*%
%ADD24RoundRect,0.250000X0.262500X0.450000X-0.262500X0.450000X-0.262500X-0.450000X0.262500X-0.450000X0*%
%ADD25RoundRect,0.250000X0.475000X-0.250000X0.475000X0.250000X-0.475000X0.250000X-0.475000X-0.250000X0*%
%ADD26R,1.181100X0.558800*%
%ADD27RoundRect,0.250000X-0.450000X0.262500X-0.450000X-0.262500X0.450000X-0.262500X0.450000X0.262500X0*%
%ADD28RoundRect,0.250000X0.550000X0.550000X-0.550000X0.550000X-0.550000X-0.550000X0.550000X-0.550000X0*%
%ADD29C,1.600000*%
G04 APERTURE END LIST*
D10*
X100003884Y-111091466D02*
X100765789Y-111091466D01*
X100384836Y-111472419D02*
X100384836Y-110710514D01*
X108403884Y-111191466D02*
X109165789Y-111191466D01*
X108784836Y-111572419D02*
X108784836Y-110810514D01*
X99309524Y-108764895D02*
X99309524Y-107964895D01*
X99309524Y-107964895D02*
X99500000Y-107964895D01*
X99500000Y-107964895D02*
X99614286Y-108002990D01*
X99614286Y-108002990D02*
X99690476Y-108079180D01*
X99690476Y-108079180D02*
X99728571Y-108155371D01*
X99728571Y-108155371D02*
X99766667Y-108307752D01*
X99766667Y-108307752D02*
X99766667Y-108422038D01*
X99766667Y-108422038D02*
X99728571Y-108574419D01*
X99728571Y-108574419D02*
X99690476Y-108650609D01*
X99690476Y-108650609D02*
X99614286Y-108726800D01*
X99614286Y-108726800D02*
X99500000Y-108764895D01*
X99500000Y-108764895D02*
X99309524Y-108764895D01*
X100528571Y-108764895D02*
X100071428Y-108764895D01*
X100300000Y-108764895D02*
X100300000Y-107964895D01*
X100300000Y-107964895D02*
X100223809Y-108079180D01*
X100223809Y-108079180D02*
X100147619Y-108155371D01*
X100147619Y-108155371D02*
X100071428Y-108193466D01*
X118566667Y-125188704D02*
X118528571Y-125226800D01*
X118528571Y-125226800D02*
X118414286Y-125264895D01*
X118414286Y-125264895D02*
X118338095Y-125264895D01*
X118338095Y-125264895D02*
X118223809Y-125226800D01*
X118223809Y-125226800D02*
X118147619Y-125150609D01*
X118147619Y-125150609D02*
X118109524Y-125074419D01*
X118109524Y-125074419D02*
X118071428Y-124922038D01*
X118071428Y-124922038D02*
X118071428Y-124807752D01*
X118071428Y-124807752D02*
X118109524Y-124655371D01*
X118109524Y-124655371D02*
X118147619Y-124579180D01*
X118147619Y-124579180D02*
X118223809Y-124502990D01*
X118223809Y-124502990D02*
X118338095Y-124464895D01*
X118338095Y-124464895D02*
X118414286Y-124464895D01*
X118414286Y-124464895D02*
X118528571Y-124502990D01*
X118528571Y-124502990D02*
X118566667Y-124541085D01*
X118871428Y-124541085D02*
X118909524Y-124502990D01*
X118909524Y-124502990D02*
X118985714Y-124464895D01*
X118985714Y-124464895D02*
X119176190Y-124464895D01*
X119176190Y-124464895D02*
X119252381Y-124502990D01*
X119252381Y-124502990D02*
X119290476Y-124541085D01*
X119290476Y-124541085D02*
X119328571Y-124617276D01*
X119328571Y-124617276D02*
X119328571Y-124693466D01*
X119328571Y-124693466D02*
X119290476Y-124807752D01*
X119290476Y-124807752D02*
X118833333Y-125264895D01*
X118833333Y-125264895D02*
X119328571Y-125264895D01*
X116966667Y-120164895D02*
X116700000Y-119783942D01*
X116509524Y-120164895D02*
X116509524Y-119364895D01*
X116509524Y-119364895D02*
X116814286Y-119364895D01*
X116814286Y-119364895D02*
X116890476Y-119402990D01*
X116890476Y-119402990D02*
X116928571Y-119441085D01*
X116928571Y-119441085D02*
X116966667Y-119517276D01*
X116966667Y-119517276D02*
X116966667Y-119631561D01*
X116966667Y-119631561D02*
X116928571Y-119707752D01*
X116928571Y-119707752D02*
X116890476Y-119745847D01*
X116890476Y-119745847D02*
X116814286Y-119783942D01*
X116814286Y-119783942D02*
X116509524Y-119783942D01*
X117271428Y-119441085D02*
X117309524Y-119402990D01*
X117309524Y-119402990D02*
X117385714Y-119364895D01*
X117385714Y-119364895D02*
X117576190Y-119364895D01*
X117576190Y-119364895D02*
X117652381Y-119402990D01*
X117652381Y-119402990D02*
X117690476Y-119441085D01*
X117690476Y-119441085D02*
X117728571Y-119517276D01*
X117728571Y-119517276D02*
X117728571Y-119593466D01*
X117728571Y-119593466D02*
X117690476Y-119707752D01*
X117690476Y-119707752D02*
X117233333Y-120164895D01*
X117233333Y-120164895D02*
X117728571Y-120164895D01*
X96033333Y-109664895D02*
X96033333Y-110236323D01*
X96033333Y-110236323D02*
X95995238Y-110350609D01*
X95995238Y-110350609D02*
X95919047Y-110426800D01*
X95919047Y-110426800D02*
X95804762Y-110464895D01*
X95804762Y-110464895D02*
X95728571Y-110464895D01*
X96757143Y-109931561D02*
X96757143Y-110464895D01*
X96566667Y-109626800D02*
X96376190Y-110198228D01*
X96376190Y-110198228D02*
X96871429Y-110198228D01*
X123371667Y-118623704D02*
X123333571Y-118661800D01*
X123333571Y-118661800D02*
X123219286Y-118699895D01*
X123219286Y-118699895D02*
X123143095Y-118699895D01*
X123143095Y-118699895D02*
X123028809Y-118661800D01*
X123028809Y-118661800D02*
X122952619Y-118585609D01*
X122952619Y-118585609D02*
X122914524Y-118509419D01*
X122914524Y-118509419D02*
X122876428Y-118357038D01*
X122876428Y-118357038D02*
X122876428Y-118242752D01*
X122876428Y-118242752D02*
X122914524Y-118090371D01*
X122914524Y-118090371D02*
X122952619Y-118014180D01*
X122952619Y-118014180D02*
X123028809Y-117937990D01*
X123028809Y-117937990D02*
X123143095Y-117899895D01*
X123143095Y-117899895D02*
X123219286Y-117899895D01*
X123219286Y-117899895D02*
X123333571Y-117937990D01*
X123333571Y-117937990D02*
X123371667Y-117976085D01*
X124133571Y-118699895D02*
X123676428Y-118699895D01*
X123905000Y-118699895D02*
X123905000Y-117899895D01*
X123905000Y-117899895D02*
X123828809Y-118014180D01*
X123828809Y-118014180D02*
X123752619Y-118090371D01*
X123752619Y-118090371D02*
X123676428Y-118128466D01*
X126366666Y-108864895D02*
X125985714Y-108864895D01*
X125985714Y-108864895D02*
X125985714Y-108064895D01*
X127052380Y-108864895D02*
X126595237Y-108864895D01*
X126823809Y-108864895D02*
X126823809Y-108064895D01*
X126823809Y-108064895D02*
X126747618Y-108179180D01*
X126747618Y-108179180D02*
X126671428Y-108255371D01*
X126671428Y-108255371D02*
X126595237Y-108293466D01*
X104823809Y-125141085D02*
X104747619Y-125102990D01*
X104747619Y-125102990D02*
X104671428Y-125026800D01*
X104671428Y-125026800D02*
X104557142Y-124912514D01*
X104557142Y-124912514D02*
X104480952Y-124874419D01*
X104480952Y-124874419D02*
X104404761Y-124874419D01*
X104442857Y-125064895D02*
X104366666Y-125026800D01*
X104366666Y-125026800D02*
X104290476Y-124950609D01*
X104290476Y-124950609D02*
X104252380Y-124798228D01*
X104252380Y-124798228D02*
X104252380Y-124531561D01*
X104252380Y-124531561D02*
X104290476Y-124379180D01*
X104290476Y-124379180D02*
X104366666Y-124302990D01*
X104366666Y-124302990D02*
X104442857Y-124264895D01*
X104442857Y-124264895D02*
X104595238Y-124264895D01*
X104595238Y-124264895D02*
X104671428Y-124302990D01*
X104671428Y-124302990D02*
X104747619Y-124379180D01*
X104747619Y-124379180D02*
X104785714Y-124531561D01*
X104785714Y-124531561D02*
X104785714Y-124798228D01*
X104785714Y-124798228D02*
X104747619Y-124950609D01*
X104747619Y-124950609D02*
X104671428Y-125026800D01*
X104671428Y-125026800D02*
X104595238Y-125064895D01*
X104595238Y-125064895D02*
X104442857Y-125064895D01*
X105547618Y-125064895D02*
X105090475Y-125064895D01*
X105319047Y-125064895D02*
X105319047Y-124264895D01*
X105319047Y-124264895D02*
X105242856Y-124379180D01*
X105242856Y-124379180D02*
X105166666Y-124455371D01*
X105166666Y-124455371D02*
X105090475Y-124493466D01*
X108966667Y-121864895D02*
X108700000Y-121483942D01*
X108509524Y-121864895D02*
X108509524Y-121064895D01*
X108509524Y-121064895D02*
X108814286Y-121064895D01*
X108814286Y-121064895D02*
X108890476Y-121102990D01*
X108890476Y-121102990D02*
X108928571Y-121141085D01*
X108928571Y-121141085D02*
X108966667Y-121217276D01*
X108966667Y-121217276D02*
X108966667Y-121331561D01*
X108966667Y-121331561D02*
X108928571Y-121407752D01*
X108928571Y-121407752D02*
X108890476Y-121445847D01*
X108890476Y-121445847D02*
X108814286Y-121483942D01*
X108814286Y-121483942D02*
X108509524Y-121483942D01*
X109233333Y-121064895D02*
X109728571Y-121064895D01*
X109728571Y-121064895D02*
X109461905Y-121369657D01*
X109461905Y-121369657D02*
X109576190Y-121369657D01*
X109576190Y-121369657D02*
X109652381Y-121407752D01*
X109652381Y-121407752D02*
X109690476Y-121445847D01*
X109690476Y-121445847D02*
X109728571Y-121522038D01*
X109728571Y-121522038D02*
X109728571Y-121712514D01*
X109728571Y-121712514D02*
X109690476Y-121788704D01*
X109690476Y-121788704D02*
X109652381Y-121826800D01*
X109652381Y-121826800D02*
X109576190Y-121864895D01*
X109576190Y-121864895D02*
X109347619Y-121864895D01*
X109347619Y-121864895D02*
X109271428Y-121826800D01*
X109271428Y-121826800D02*
X109233333Y-121788704D01*
X96233333Y-123364895D02*
X96233333Y-123936323D01*
X96233333Y-123936323D02*
X96195238Y-124050609D01*
X96195238Y-124050609D02*
X96119047Y-124126800D01*
X96119047Y-124126800D02*
X96004762Y-124164895D01*
X96004762Y-124164895D02*
X95928571Y-124164895D01*
X96576190Y-123441085D02*
X96614286Y-123402990D01*
X96614286Y-123402990D02*
X96690476Y-123364895D01*
X96690476Y-123364895D02*
X96880952Y-123364895D01*
X96880952Y-123364895D02*
X96957143Y-123402990D01*
X96957143Y-123402990D02*
X96995238Y-123441085D01*
X96995238Y-123441085D02*
X97033333Y-123517276D01*
X97033333Y-123517276D02*
X97033333Y-123593466D01*
X97033333Y-123593466D02*
X96995238Y-123707752D01*
X96995238Y-123707752D02*
X96538095Y-124164895D01*
X96538095Y-124164895D02*
X97033333Y-124164895D01*
X129333333Y-120464895D02*
X129333333Y-121036323D01*
X129333333Y-121036323D02*
X129295238Y-121150609D01*
X129295238Y-121150609D02*
X129219047Y-121226800D01*
X129219047Y-121226800D02*
X129104762Y-121264895D01*
X129104762Y-121264895D02*
X129028571Y-121264895D01*
X130133333Y-121264895D02*
X129676190Y-121264895D01*
X129904762Y-121264895D02*
X129904762Y-120464895D01*
X129904762Y-120464895D02*
X129828571Y-120579180D01*
X129828571Y-120579180D02*
X129752381Y-120655371D01*
X129752381Y-120655371D02*
X129676190Y-120693466D01*
X107709524Y-108664895D02*
X107709524Y-107864895D01*
X107709524Y-107864895D02*
X107900000Y-107864895D01*
X107900000Y-107864895D02*
X108014286Y-107902990D01*
X108014286Y-107902990D02*
X108090476Y-107979180D01*
X108090476Y-107979180D02*
X108128571Y-108055371D01*
X108128571Y-108055371D02*
X108166667Y-108207752D01*
X108166667Y-108207752D02*
X108166667Y-108322038D01*
X108166667Y-108322038D02*
X108128571Y-108474419D01*
X108128571Y-108474419D02*
X108090476Y-108550609D01*
X108090476Y-108550609D02*
X108014286Y-108626800D01*
X108014286Y-108626800D02*
X107900000Y-108664895D01*
X107900000Y-108664895D02*
X107709524Y-108664895D01*
X108471428Y-107941085D02*
X108509524Y-107902990D01*
X108509524Y-107902990D02*
X108585714Y-107864895D01*
X108585714Y-107864895D02*
X108776190Y-107864895D01*
X108776190Y-107864895D02*
X108852381Y-107902990D01*
X108852381Y-107902990D02*
X108890476Y-107941085D01*
X108890476Y-107941085D02*
X108928571Y-108017276D01*
X108928571Y-108017276D02*
X108928571Y-108093466D01*
X108928571Y-108093466D02*
X108890476Y-108207752D01*
X108890476Y-108207752D02*
X108433333Y-108664895D01*
X108433333Y-108664895D02*
X108928571Y-108664895D01*
X114066667Y-125788704D02*
X114028571Y-125826800D01*
X114028571Y-125826800D02*
X113914286Y-125864895D01*
X113914286Y-125864895D02*
X113838095Y-125864895D01*
X113838095Y-125864895D02*
X113723809Y-125826800D01*
X113723809Y-125826800D02*
X113647619Y-125750609D01*
X113647619Y-125750609D02*
X113609524Y-125674419D01*
X113609524Y-125674419D02*
X113571428Y-125522038D01*
X113571428Y-125522038D02*
X113571428Y-125407752D01*
X113571428Y-125407752D02*
X113609524Y-125255371D01*
X113609524Y-125255371D02*
X113647619Y-125179180D01*
X113647619Y-125179180D02*
X113723809Y-125102990D01*
X113723809Y-125102990D02*
X113838095Y-125064895D01*
X113838095Y-125064895D02*
X113914286Y-125064895D01*
X113914286Y-125064895D02*
X114028571Y-125102990D01*
X114028571Y-125102990D02*
X114066667Y-125141085D01*
X114333333Y-125064895D02*
X114828571Y-125064895D01*
X114828571Y-125064895D02*
X114561905Y-125369657D01*
X114561905Y-125369657D02*
X114676190Y-125369657D01*
X114676190Y-125369657D02*
X114752381Y-125407752D01*
X114752381Y-125407752D02*
X114790476Y-125445847D01*
X114790476Y-125445847D02*
X114828571Y-125522038D01*
X114828571Y-125522038D02*
X114828571Y-125712514D01*
X114828571Y-125712514D02*
X114790476Y-125788704D01*
X114790476Y-125788704D02*
X114752381Y-125826800D01*
X114752381Y-125826800D02*
X114676190Y-125864895D01*
X114676190Y-125864895D02*
X114447619Y-125864895D01*
X114447619Y-125864895D02*
X114371428Y-125826800D01*
X114371428Y-125826800D02*
X114333333Y-125788704D01*
X99766667Y-121364895D02*
X99500000Y-120983942D01*
X99309524Y-121364895D02*
X99309524Y-120564895D01*
X99309524Y-120564895D02*
X99614286Y-120564895D01*
X99614286Y-120564895D02*
X99690476Y-120602990D01*
X99690476Y-120602990D02*
X99728571Y-120641085D01*
X99728571Y-120641085D02*
X99766667Y-120717276D01*
X99766667Y-120717276D02*
X99766667Y-120831561D01*
X99766667Y-120831561D02*
X99728571Y-120907752D01*
X99728571Y-120907752D02*
X99690476Y-120945847D01*
X99690476Y-120945847D02*
X99614286Y-120983942D01*
X99614286Y-120983942D02*
X99309524Y-120983942D01*
X100528571Y-121364895D02*
X100071428Y-121364895D01*
X100300000Y-121364895D02*
X100300000Y-120564895D01*
X100300000Y-120564895D02*
X100223809Y-120679180D01*
X100223809Y-120679180D02*
X100147619Y-120755371D01*
X100147619Y-120755371D02*
X100071428Y-120793466D01*
X115315976Y-111906572D02*
X115315976Y-112554191D01*
X115315976Y-112554191D02*
X115354071Y-112630381D01*
X115354071Y-112630381D02*
X115392166Y-112668477D01*
X115392166Y-112668477D02*
X115468357Y-112706572D01*
X115468357Y-112706572D02*
X115620738Y-112706572D01*
X115620738Y-112706572D02*
X115696928Y-112668477D01*
X115696928Y-112668477D02*
X115735023Y-112630381D01*
X115735023Y-112630381D02*
X115773119Y-112554191D01*
X115773119Y-112554191D02*
X115773119Y-111906572D01*
X116573118Y-112706572D02*
X116115975Y-112706572D01*
X116344547Y-112706572D02*
X116344547Y-111906572D01*
X116344547Y-111906572D02*
X116268356Y-112020857D01*
X116268356Y-112020857D02*
X116192166Y-112097048D01*
X116192166Y-112097048D02*
X116115975Y-112135143D01*
D11*
X115190500Y-116396496D02*
X115190500Y-116634591D01*
X114952405Y-116539353D02*
X115190500Y-116634591D01*
X115190500Y-116634591D02*
X115428595Y-116539353D01*
X115047643Y-116825067D02*
X115190500Y-116634591D01*
X115190500Y-116634591D02*
X115333357Y-116825067D01*
X115855499Y-116845180D02*
X115855499Y-116607085D01*
X116093594Y-116702323D02*
X115855499Y-116607085D01*
X115855499Y-116607085D02*
X115617404Y-116702323D01*
X115998356Y-116416609D02*
X115855499Y-116607085D01*
X115855499Y-116607085D02*
X115712642Y-116416609D01*
D10*
X111066667Y-125864895D02*
X110800000Y-125483942D01*
X110609524Y-125864895D02*
X110609524Y-125064895D01*
X110609524Y-125064895D02*
X110914286Y-125064895D01*
X110914286Y-125064895D02*
X110990476Y-125102990D01*
X110990476Y-125102990D02*
X111028571Y-125141085D01*
X111028571Y-125141085D02*
X111066667Y-125217276D01*
X111066667Y-125217276D02*
X111066667Y-125331561D01*
X111066667Y-125331561D02*
X111028571Y-125407752D01*
X111028571Y-125407752D02*
X110990476Y-125445847D01*
X110990476Y-125445847D02*
X110914286Y-125483942D01*
X110914286Y-125483942D02*
X110609524Y-125483942D01*
X111752381Y-125331561D02*
X111752381Y-125864895D01*
X111561905Y-125026800D02*
X111371428Y-125598228D01*
X111371428Y-125598228D02*
X111866667Y-125598228D01*
X107233333Y-117864895D02*
X107233333Y-118436323D01*
X107233333Y-118436323D02*
X107195238Y-118550609D01*
X107195238Y-118550609D02*
X107119047Y-118626800D01*
X107119047Y-118626800D02*
X107004762Y-118664895D01*
X107004762Y-118664895D02*
X106928571Y-118664895D01*
X107538095Y-117864895D02*
X108033333Y-117864895D01*
X108033333Y-117864895D02*
X107766667Y-118169657D01*
X107766667Y-118169657D02*
X107880952Y-118169657D01*
X107880952Y-118169657D02*
X107957143Y-118207752D01*
X107957143Y-118207752D02*
X107995238Y-118245847D01*
X107995238Y-118245847D02*
X108033333Y-118322038D01*
X108033333Y-118322038D02*
X108033333Y-118512514D01*
X108033333Y-118512514D02*
X107995238Y-118588704D01*
X107995238Y-118588704D02*
X107957143Y-118626800D01*
X107957143Y-118626800D02*
X107880952Y-118664895D01*
X107880952Y-118664895D02*
X107652381Y-118664895D01*
X107652381Y-118664895D02*
X107576190Y-118626800D01*
X107576190Y-118626800D02*
X107538095Y-118588704D01*
D12*
%TO.C,D1*%
X101975000Y-108575000D02*
X101975000Y-108785000D01*
X101975000Y-110925000D02*
X101975000Y-111135000D01*
X101975000Y-111135000D02*
X106305000Y-111135000D01*
X106305000Y-108575000D02*
X101975000Y-108575000D01*
X106305000Y-108575000D02*
X106305000Y-108785000D01*
X106305000Y-111135000D02*
X106305000Y-110925000D01*
D13*
X108240000Y-109855000D02*
G75*
G02*
X108040000Y-109855000I-100000J0D01*
G01*
X108040000Y-109855000D02*
G75*
G02*
X108240000Y-109855000I100000J0D01*
G01*
D14*
%TO.C,C2*%
X119456252Y-122280000D02*
X118033748Y-122280000D01*
X119456252Y-124100000D02*
X118033748Y-124100000D01*
%TO.C,R2*%
X114430436Y-119280000D02*
X114884564Y-119280000D01*
X114430436Y-120750000D02*
X114884564Y-120750000D01*
%TO.C,J4*%
X86310000Y-111960000D02*
X92310000Y-111960000D01*
X86310000Y-112820000D02*
X86310000Y-111960000D01*
X92310000Y-111010000D02*
X92310000Y-116310000D01*
X92310000Y-112820000D02*
X86310000Y-112820000D01*
X92310000Y-116310000D02*
X95070000Y-116310000D01*
X95070000Y-111010000D02*
X92310000Y-111010000D01*
X95070000Y-113660000D02*
X92310000Y-113660000D01*
X95070000Y-116310000D02*
X95070000Y-111010000D01*
X95300000Y-114500000D02*
X95070000Y-114500000D01*
X95300000Y-115360000D02*
X95070000Y-115360000D01*
X95382642Y-111960000D02*
X95070000Y-111960000D01*
X95382642Y-112820000D02*
X95070000Y-112820000D01*
X97730000Y-114930000D02*
X97730000Y-116200000D01*
X97730000Y-116200000D02*
X96460000Y-116200000D01*
X92310000Y-115360000D02*
X86310000Y-115360000D01*
X86310000Y-114500000D01*
X92310000Y-114500000D01*
X92310000Y-115360000D01*
G36*
X92310000Y-115360000D02*
G01*
X86310000Y-115360000D01*
X86310000Y-114500000D01*
X92310000Y-114500000D01*
X92310000Y-115360000D01*
G37*
%TO.C,C1*%
X123243748Y-119280000D02*
X123766252Y-119280000D01*
X123243748Y-120750000D02*
X123766252Y-120750000D01*
D15*
%TO.C,L1*%
X118364000Y-109156500D02*
X118364000Y-116903500D01*
X118364000Y-116903500D02*
X119936260Y-116903500D01*
X119936260Y-109156500D02*
X118364000Y-109156500D01*
X123903740Y-116903500D02*
X125476000Y-116903500D01*
X125476000Y-109156500D02*
X123903740Y-109156500D01*
X125476000Y-116903500D02*
X125476000Y-109156500D01*
X121996200Y-108013500D02*
G75*
G02*
X121843800Y-108013500I-76200J0D01*
G01*
X121843800Y-108013500D02*
G75*
G02*
X121996200Y-108013500I76200J0D01*
G01*
D14*
%TO.C,Q1*%
X102870000Y-121082500D02*
X102220000Y-121082500D01*
X102870000Y-121082500D02*
X103520000Y-121082500D01*
X102870000Y-124202500D02*
X102220000Y-124202500D01*
X102870000Y-124202500D02*
X103520000Y-124202500D01*
X101707500Y-121132500D02*
X101467500Y-120802500D01*
X101947500Y-120802500D01*
X101707500Y-121132500D01*
G36*
X101707500Y-121132500D02*
G01*
X101467500Y-120802500D01*
X101947500Y-120802500D01*
X101707500Y-121132500D01*
G37*
%TO.C,R3*%
X110359564Y-119280000D02*
X109905436Y-119280000D01*
X110359564Y-120750000D02*
X109905436Y-120750000D01*
%TO.C,J2*%
X86310000Y-118315000D02*
X92310000Y-118315000D01*
X86310000Y-119175000D02*
X86310000Y-118315000D01*
X92310000Y-117365000D02*
X92310000Y-122665000D01*
X92310000Y-119175000D02*
X86310000Y-119175000D01*
X92310000Y-122665000D02*
X95070000Y-122665000D01*
X95070000Y-117365000D02*
X92310000Y-117365000D01*
X95070000Y-120015000D02*
X92310000Y-120015000D01*
X95070000Y-122665000D02*
X95070000Y-117365000D01*
X95300000Y-120855000D02*
X95070000Y-120855000D01*
X95300000Y-121715000D02*
X95070000Y-121715000D01*
X95382642Y-118315000D02*
X95070000Y-118315000D01*
X95382642Y-119175000D02*
X95070000Y-119175000D01*
X97730000Y-121285000D02*
X97730000Y-122555000D01*
X97730000Y-122555000D02*
X96460000Y-122555000D01*
X92310000Y-121715000D02*
X86310000Y-121715000D01*
X86310000Y-120855000D01*
X92310000Y-120855000D01*
X92310000Y-121715000D01*
G36*
X92310000Y-121715000D02*
G01*
X86310000Y-121715000D01*
X86310000Y-120855000D01*
X92310000Y-120855000D01*
X92310000Y-121715000D01*
G37*
%TO.C,J1*%
X126171000Y-114371200D02*
X127441000Y-114371200D01*
X126171000Y-115641200D02*
X126171000Y-114371200D01*
X128518358Y-117751200D02*
X128831000Y-117751200D01*
X128518358Y-118611200D02*
X128831000Y-118611200D01*
X128601000Y-115211200D02*
X128831000Y-115211200D01*
X128601000Y-116071200D02*
X128831000Y-116071200D01*
X128831000Y-114261200D02*
X128831000Y-119561200D01*
X128831000Y-116911200D02*
X131591000Y-116911200D01*
X128831000Y-119561200D02*
X131591000Y-119561200D01*
X131591000Y-114261200D02*
X128831000Y-114261200D01*
X131591000Y-117751200D02*
X137591000Y-117751200D01*
X131591000Y-119561200D02*
X131591000Y-114261200D01*
X137591000Y-117751200D02*
X137591000Y-118611200D01*
X137591000Y-118611200D02*
X131591000Y-118611200D01*
X131591000Y-115211200D02*
X137591000Y-115211200D01*
X137591000Y-116071200D01*
X131591000Y-116071200D01*
X131591000Y-115211200D01*
G36*
X131591000Y-115211200D02*
G01*
X137591000Y-115211200D01*
X137591000Y-116071200D01*
X131591000Y-116071200D01*
X131591000Y-115211200D01*
G37*
D12*
%TO.C,D2*%
X110230000Y-108575000D02*
X110230000Y-108785000D01*
X110230000Y-110925000D02*
X110230000Y-111135000D01*
X110230000Y-111135000D02*
X114560000Y-111135000D01*
X114560000Y-108575000D02*
X110230000Y-108575000D01*
X114560000Y-108575000D02*
X114560000Y-108785000D01*
X114560000Y-111135000D02*
X114560000Y-110925000D01*
D13*
X116495000Y-109855000D02*
G75*
G02*
X116295000Y-109855000I-100000J0D01*
G01*
X116295000Y-109855000D02*
G75*
G02*
X116495000Y-109855000I100000J0D01*
G01*
D14*
%TO.C,C3*%
X113565000Y-123451252D02*
X113565000Y-122928748D01*
X115035000Y-123451252D02*
X115035000Y-122928748D01*
%TO.C,R1*%
X101192064Y-118645000D02*
X100737936Y-118645000D01*
X101192064Y-120115000D02*
X100737936Y-120115000D01*
D15*
%TO.C,U1*%
X112858550Y-114277140D02*
X112858550Y-114952862D01*
X112858550Y-116189801D02*
X114661950Y-116189801D01*
X114661950Y-113040201D02*
X112858550Y-113040201D01*
D14*
%TO.C,R4*%
X110390000Y-122962936D02*
X110390000Y-123417064D01*
X111860000Y-122962936D02*
X111860000Y-123417064D01*
%TO.C,J3*%
X99190000Y-117355000D02*
X99190000Y-112515000D01*
X104816667Y-115570000D02*
X104816667Y-114300000D01*
X109090000Y-112515000D02*
X99190000Y-112515000D01*
X109090000Y-117355000D02*
X99190000Y-117355000D01*
X109090000Y-117355000D02*
X109090000Y-112515000D01*
X109330000Y-117595000D02*
X107947000Y-117595000D01*
X109330000Y-117595000D02*
X109330000Y-116212000D01*
X106170000Y-115570000D02*
X102110000Y-115570000D01*
X102110000Y-114300000D01*
X106170000Y-114300000D01*
X106170000Y-115570000D01*
X106170000Y-115570000D02*
X104816667Y-115570000D01*
X104816667Y-114300000D01*
X106170000Y-114300000D01*
X106170000Y-115570000D01*
G36*
X106170000Y-115570000D02*
G01*
X104816667Y-115570000D01*
X104816667Y-114300000D01*
X106170000Y-114300000D01*
X106170000Y-115570000D01*
G37*
%TD*%
%LPC*%
D16*
%TO.C,D1*%
X102025000Y-109855000D03*
X106255000Y-109855000D03*
%TD*%
D17*
%TO.C,C2*%
X120220000Y-123190000D03*
X117270000Y-123190000D03*
%TD*%
D18*
%TO.C,R2*%
X113745000Y-120015000D03*
X115570000Y-120015000D03*
%TD*%
D19*
%TO.C,J4*%
X96460000Y-114930000D03*
D20*
X96460000Y-112390000D03*
%TD*%
D21*
%TO.C,C1*%
X122555000Y-120015000D03*
X124455000Y-120015000D03*
%TD*%
D22*
%TO.C,L1*%
X121920000Y-110464600D03*
X121920000Y-115595400D03*
%TD*%
D23*
%TO.C,Q1*%
X101932500Y-121692500D03*
X101932500Y-123592500D03*
X103807500Y-122642500D03*
%TD*%
D24*
%TO.C,R3*%
X111045000Y-120015000D03*
X109220000Y-120015000D03*
%TD*%
D19*
%TO.C,J2*%
X96460000Y-121285000D03*
D20*
X96460000Y-118745000D03*
%TD*%
D19*
%TO.C,J1*%
X127441000Y-115641200D03*
D20*
X127441000Y-118181200D03*
%TD*%
D16*
%TO.C,D2*%
X110280000Y-109855000D03*
X114510000Y-109855000D03*
%TD*%
D25*
%TO.C,C3*%
X114300000Y-124140000D03*
X114300000Y-122240000D03*
%TD*%
D24*
%TO.C,R1*%
X101877500Y-119380000D03*
X100052500Y-119380000D03*
%TD*%
D26*
%TO.C,U1*%
X115125500Y-115565002D03*
X115125500Y-114615001D03*
X115125500Y-113665000D03*
X112395000Y-113665000D03*
X112395000Y-115565002D03*
%TD*%
D27*
%TO.C,R4*%
X111125000Y-122277500D03*
X111125000Y-124102500D03*
%TD*%
D28*
%TO.C,J3*%
X107950000Y-114935000D03*
D29*
X100330000Y-114935000D03*
%TD*%
%LPD*%
M02*
