%TF.GenerationSoftware,KiCad,Pcbnew,9.0.2*%
%TF.CreationDate,2025-06-13T22:03:49+05:30*%
%TF.ProjectId,Tiny Solar Supply,54696e79-2053-46f6-9c61-722053757070,rev?*%
%TF.SameCoordinates,Original*%
%TF.FileFunction,Copper,L1,Top*%
%TF.FilePolarity,Positive*%
%FSLAX46Y46*%
G04 Gerber Fmt 4.6, Leading zero omitted, Abs format (unit mm)*
G04 Created by KiCad (PCBNEW 9.0.2) date 2025-06-13 22:03:49*
%MOMM*%
%LPD*%
G01*
G04 APERTURE LIST*
G04 Aperture macros list*
%AMRoundRect*
0 Rectangle with rounded corners*
0 $1 Rounding radius*
0 $2 $3 $4 $5 $6 $7 $8 $9 X,Y pos of 4 corners*
0 Add a 4 corners polygon primitive as box body*
4,1,4,$2,$3,$4,$5,$6,$7,$8,$9,$2,$3,0*
0 Add four circle primitives for the rounded corners*
1,1,$1+$1,$2,$3*
1,1,$1+$1,$4,$5*
1,1,$1+$1,$6,$7*
1,1,$1+$1,$8,$9*
0 Add four rect primitives between the rounded corners*
20,1,$1+$1,$2,$3,$4,$5,0*
20,1,$1+$1,$4,$5,$6,$7,0*
20,1,$1+$1,$6,$7,$8,$9,0*
20,1,$1+$1,$8,$9,$2,$3,0*%
G04 Aperture macros list end*
%TA.AperFunction,SMDPad,CuDef*%
%ADD10R,2.120000X1.500000*%
%TD*%
%TA.AperFunction,SMDPad,CuDef*%
%ADD11RoundRect,0.250000X0.325000X0.650000X-0.325000X0.650000X-0.325000X-0.650000X0.325000X-0.650000X0*%
%TD*%
%TA.AperFunction,SMDPad,CuDef*%
%ADD12RoundRect,0.250000X-0.262500X-0.450000X0.262500X-0.450000X0.262500X0.450000X-0.262500X0.450000X0*%
%TD*%
%TA.AperFunction,ComponentPad*%
%ADD13R,1.700000X1.700000*%
%TD*%
%TA.AperFunction,ComponentPad*%
%ADD14C,1.700000*%
%TD*%
%TA.AperFunction,SMDPad,CuDef*%
%ADD15RoundRect,0.250000X-0.250000X-0.475000X0.250000X-0.475000X0.250000X0.475000X-0.250000X0.475000X0*%
%TD*%
%TA.AperFunction,SMDPad,CuDef*%
%ADD16R,3.302000X2.667000*%
%TD*%
%TA.AperFunction,SMDPad,CuDef*%
%ADD17RoundRect,0.150000X-0.587500X-0.150000X0.587500X-0.150000X0.587500X0.150000X-0.587500X0.150000X0*%
%TD*%
%TA.AperFunction,SMDPad,CuDef*%
%ADD18RoundRect,0.250000X0.262500X0.450000X-0.262500X0.450000X-0.262500X-0.450000X0.262500X-0.450000X0*%
%TD*%
%TA.AperFunction,SMDPad,CuDef*%
%ADD19RoundRect,0.250000X0.475000X-0.250000X0.475000X0.250000X-0.475000X0.250000X-0.475000X-0.250000X0*%
%TD*%
%TA.AperFunction,SMDPad,CuDef*%
%ADD20R,1.181100X0.558800*%
%TD*%
%TA.AperFunction,SMDPad,CuDef*%
%ADD21RoundRect,0.250000X-0.450000X0.262500X-0.450000X-0.262500X0.450000X-0.262500X0.450000X0.262500X0*%
%TD*%
%TA.AperFunction,ComponentPad*%
%ADD22RoundRect,0.250000X0.550000X0.550000X-0.550000X0.550000X-0.550000X-0.550000X0.550000X-0.550000X0*%
%TD*%
%TA.AperFunction,ComponentPad*%
%ADD23C,1.600000*%
%TD*%
%TA.AperFunction,ViaPad*%
%ADD24C,0.600000*%
%TD*%
%TA.AperFunction,Conductor*%
%ADD25C,0.200000*%
%TD*%
%TA.AperFunction,Conductor*%
%ADD26C,0.350000*%
%TD*%
G04 APERTURE END LIST*
D10*
%TO.P,D1,A*%
%TO.N,/SOLAR_P*%
X102025000Y-109855000D03*
%TO.P,D1,C*%
%TO.N,/BAT_P*%
X106255000Y-109855000D03*
%TD*%
D11*
%TO.P,C2,1*%
%TO.N,/OUT_P*%
X120220000Y-123190000D03*
%TO.P,C2,2*%
%TO.N,GNDD*%
X117270000Y-123190000D03*
%TD*%
D12*
%TO.P,R2,1*%
%TO.N,Net-(U1-FB)*%
X113745000Y-120015000D03*
%TO.P,R2,2*%
%TO.N,GNDD*%
X115570000Y-120015000D03*
%TD*%
D13*
%TO.P,J4,1,Pin_1*%
%TO.N,GNDD*%
X96460000Y-114930000D03*
D14*
%TO.P,J4,2,Pin_2*%
%TO.N,/SOLAR_P*%
X96460000Y-112390000D03*
%TD*%
D15*
%TO.P,C1,1*%
%TO.N,Net-(J3-Pin_1)*%
X122555000Y-120015000D03*
%TO.P,C1,2*%
%TO.N,GNDD*%
X124455000Y-120015000D03*
%TD*%
D16*
%TO.P,L1,1,1*%
%TO.N,Net-(U1-SW)*%
X121920000Y-110464600D03*
%TO.P,L1,2,2*%
%TO.N,Net-(J3-Pin_1)*%
X121920000Y-115595400D03*
%TD*%
D17*
%TO.P,Q1,1,G*%
%TO.N,/SOLAR_P*%
X101932500Y-121692500D03*
%TO.P,Q1,2,S*%
%TO.N,GNDD*%
X101932500Y-123592500D03*
%TO.P,Q1,3,D*%
%TO.N,Net-(Q1-D)*%
X103807500Y-122642500D03*
%TD*%
D18*
%TO.P,R3,1*%
%TO.N,Net-(J3-Pin_1)*%
X111045000Y-120015000D03*
%TO.P,R3,2*%
%TO.N,Net-(Q1-D)*%
X109220000Y-120015000D03*
%TD*%
D13*
%TO.P,J2,1,Pin_1*%
%TO.N,GNDD*%
X96460000Y-121285000D03*
D14*
%TO.P,J2,2,Pin_2*%
%TO.N,/BAT_P*%
X96460000Y-118745000D03*
%TD*%
D13*
%TO.P,J1,1,Pin_1*%
%TO.N,GNDD*%
X127441000Y-115641200D03*
D14*
%TO.P,J1,2,Pin_2*%
%TO.N,/OUT_P*%
X127441000Y-118181200D03*
%TD*%
D10*
%TO.P,D2,A*%
%TO.N,Net-(U1-SW)*%
X110280000Y-109855000D03*
%TO.P,D2,C*%
%TO.N,/OUT_P*%
X114510000Y-109855000D03*
%TD*%
D19*
%TO.P,C3,1*%
%TO.N,/OUT_P*%
X114300000Y-124140000D03*
%TO.P,C3,2*%
%TO.N,Net-(U1-FB)*%
X114300000Y-122240000D03*
%TD*%
D18*
%TO.P,R1,1*%
%TO.N,/SOLAR_P*%
X101877500Y-119380000D03*
%TO.P,R1,2*%
%TO.N,GNDD*%
X100052500Y-119380000D03*
%TD*%
D20*
%TO.P,U1,1,SW*%
%TO.N,Net-(U1-SW)*%
X115125500Y-115565002D03*
%TO.P,U1,2,GND*%
%TO.N,GNDD*%
X115125500Y-114615001D03*
%TO.P,U1,3,FB*%
%TO.N,Net-(U1-FB)*%
X115125500Y-113665000D03*
%TO.P,U1,4,SHDN*%
%TO.N,Net-(Q1-D)*%
X112395000Y-113665000D03*
%TO.P,U1,5,VIN*%
%TO.N,Net-(J3-Pin_1)*%
X112395000Y-115565002D03*
%TD*%
D21*
%TO.P,R4,1*%
%TO.N,Net-(U1-FB)*%
X111125000Y-122277500D03*
%TO.P,R4,2*%
%TO.N,/OUT_P*%
X111125000Y-124102500D03*
%TD*%
D22*
%TO.P,J3,1,Pin_1*%
%TO.N,Net-(J3-Pin_1)*%
X107950000Y-114935000D03*
D23*
%TO.P,J3,2,Pin_2*%
%TO.N,/BAT_P*%
X100330000Y-114935000D03*
%TD*%
D24*
%TO.N,GNDD*%
X116840000Y-121285000D03*
X116636800Y-113436400D03*
X99974400Y-124815600D03*
%TO.N,Net-(J3-Pin_1)*%
X112826800Y-117754400D03*
X119176800Y-117754400D03*
%TD*%
D25*
%TO.N,GNDD*%
X116687600Y-114198400D02*
X116270999Y-114615001D01*
X116636800Y-113436400D02*
X116687600Y-113487200D01*
X101932500Y-123592500D02*
X100709400Y-124815600D01*
X100709400Y-124815600D02*
X99974400Y-124815600D01*
X117270000Y-123190000D02*
X117270000Y-121715000D01*
X100052500Y-119380000D02*
X98365000Y-119380000D01*
X116840000Y-121285000D02*
X115570000Y-120015000D01*
X117270000Y-121715000D02*
X116840000Y-121285000D01*
X116687600Y-113487200D02*
X116687600Y-114198400D01*
X98365000Y-119380000D02*
X96460000Y-121285000D01*
X124455000Y-118627200D02*
X124455000Y-120015000D01*
X127441000Y-115641200D02*
X124455000Y-118627200D01*
X116270999Y-114615001D02*
X115125500Y-114615001D01*
%TO.N,Net-(J3-Pin_1)*%
X112826800Y-117754400D02*
X111045000Y-119536200D01*
X120954800Y-117703600D02*
X122555000Y-119303800D01*
X121920000Y-115595400D02*
X121920000Y-116738400D01*
X108580002Y-115565002D02*
X107950000Y-114935000D01*
X121920000Y-116738400D02*
X120954800Y-117703600D01*
X112395000Y-115565002D02*
X108580002Y-115565002D01*
X119227600Y-117703600D02*
X119176800Y-117754400D01*
X111045000Y-120015000D02*
X111045000Y-118030000D01*
X122555000Y-119303800D02*
X122555000Y-120015000D01*
X120954800Y-117703600D02*
X119227600Y-117703600D01*
X111045000Y-119536200D02*
X111045000Y-120015000D01*
X111045000Y-118030000D02*
X107950000Y-114935000D01*
D26*
%TO.N,/OUT_P*%
X127441000Y-121021800D02*
X125272800Y-123190000D01*
X111125000Y-124102500D02*
X114262500Y-124102500D01*
X114262500Y-124102500D02*
X114300000Y-124140000D01*
X119141600Y-125104800D02*
X120220000Y-124026400D01*
X120220000Y-120982000D02*
X120220000Y-123190000D01*
X114300000Y-124140000D02*
X115264800Y-125104800D01*
X127441000Y-118181200D02*
X127441000Y-121021800D01*
X125272800Y-123190000D02*
X120220000Y-123190000D01*
X118059200Y-110947200D02*
X118059200Y-118821200D01*
X114510000Y-109855000D02*
X116967000Y-109855000D01*
X118059200Y-118821200D02*
X120220000Y-120982000D01*
X120220000Y-124026400D02*
X120220000Y-123190000D01*
X115264800Y-125104800D02*
X119141600Y-125104800D01*
X116967000Y-109855000D02*
X118059200Y-110947200D01*
D25*
%TO.N,Net-(Q1-D)*%
X103807500Y-122642500D02*
X106592500Y-122642500D01*
X106172000Y-112572800D02*
X111302800Y-112572800D01*
X106592500Y-122642500D02*
X109220000Y-120015000D01*
X109220000Y-120015000D02*
X107264200Y-120015000D01*
X107264200Y-120015000D02*
X105054400Y-117805200D01*
X109220000Y-120294400D02*
X109220000Y-120015000D01*
X111302800Y-112572800D02*
X112395000Y-113665000D01*
X105054400Y-117805200D02*
X105054400Y-113690400D01*
X105054400Y-113690400D02*
X106172000Y-112572800D01*
D26*
%TO.N,/SOLAR_P*%
X94030800Y-113284000D02*
X94924800Y-112390000D01*
X101877500Y-121637500D02*
X101932500Y-121692500D01*
X100130200Y-123494800D02*
X101932500Y-121692500D01*
X94030800Y-122428000D02*
X94030800Y-113284000D01*
X94924800Y-112390000D02*
X96460000Y-112390000D01*
X98995000Y-109855000D02*
X102025000Y-109855000D01*
X101877500Y-119380000D02*
X101877500Y-121637500D01*
X95097600Y-123494800D02*
X100130200Y-123494800D01*
X96460000Y-112390000D02*
X98995000Y-109855000D01*
X95097600Y-123494800D02*
X94030800Y-122428000D01*
%TO.N,/BAT_P*%
X100270000Y-114935000D02*
X100330000Y-114935000D01*
X96460000Y-118745000D02*
X100270000Y-114935000D01*
X100330000Y-114935000D02*
X105410000Y-109855000D01*
X105410000Y-109855000D02*
X106255000Y-109855000D01*
D25*
%TO.N,Net-(U1-SW)*%
X120116600Y-108661200D02*
X111473800Y-108661200D01*
X115125500Y-115565002D02*
X116895798Y-115565002D01*
X117449600Y-112318800D02*
X116535200Y-111404400D01*
X111829400Y-111404400D02*
X110280000Y-109855000D01*
X111473800Y-108661200D02*
X110280000Y-109855000D01*
X121920000Y-110464600D02*
X120116600Y-108661200D01*
X116895798Y-115565002D02*
X117449600Y-115011200D01*
X117449600Y-115011200D02*
X117449600Y-112318800D01*
X116535200Y-111404400D02*
X111829400Y-111404400D01*
%TO.N,Net-(U1-FB)*%
X114300000Y-122240000D02*
X111162500Y-122240000D01*
X113745000Y-114254950D02*
X114334950Y-113665000D01*
X111162500Y-122240000D02*
X111125000Y-122277500D01*
X113745000Y-120015000D02*
X113745000Y-114254950D01*
X114300000Y-122240000D02*
X113745000Y-121685000D01*
X114334950Y-113665000D02*
X115125500Y-113665000D01*
X113745000Y-121685000D02*
X113745000Y-120015000D01*
%TD*%
M02*
