%TF.GenerationSoftware,KiCad,Pcbnew,9.0.2*%
%TF.CreationDate,2025-06-13T22:03:49+05:30*%
%TF.ProjectId,Tiny Solar Supply,54696e79-2053-46f6-9c61-722053757070,rev?*%
%TF.SameCoordinates,Original*%
%TF.FileFunction,Copper,L2,Bot*%
%TF.FilePolarity,Positive*%
%FSLAX46Y46*%
G04 Gerber Fmt 4.6, Leading zero omitted, Abs format (unit mm)*
G04 Created by KiCad (PCBNEW 9.0.2) date 2025-06-13 22:03:49*
%MOMM*%
%LPD*%
G01*
G04 APERTURE LIST*
G04 Aperture macros list*
%AMRoundRect*
0 Rectangle with rounded corners*
0 $1 Rounding radius*
0 $2 $3 $4 $5 $6 $7 $8 $9 X,Y pos of 4 corners*
0 Add a 4 corners polygon primitive as box body*
4,1,4,$2,$3,$4,$5,$6,$7,$8,$9,$2,$3,0*
0 Add four circle primitives for the rounded corners*
1,1,$1+$1,$2,$3*
1,1,$1+$1,$4,$5*
1,1,$1+$1,$6,$7*
1,1,$1+$1,$8,$9*
0 Add four rect primitives between the rounded corners*
20,1,$1+$1,$2,$3,$4,$5,0*
20,1,$1+$1,$4,$5,$6,$7,0*
20,1,$1+$1,$6,$7,$8,$9,0*
20,1,$1+$1,$8,$9,$2,$3,0*%
G04 Aperture macros list end*
%TA.AperFunction,ComponentPad*%
%ADD10R,1.700000X1.700000*%
%TD*%
%TA.AperFunction,ComponentPad*%
%ADD11C,1.700000*%
%TD*%
%TA.AperFunction,ComponentPad*%
%ADD12RoundRect,0.250000X0.550000X0.550000X-0.550000X0.550000X-0.550000X-0.550000X0.550000X-0.550000X0*%
%TD*%
%TA.AperFunction,ComponentPad*%
%ADD13C,1.600000*%
%TD*%
%TA.AperFunction,ViaPad*%
%ADD14C,0.600000*%
%TD*%
%TA.AperFunction,Conductor*%
%ADD15C,0.200000*%
%TD*%
G04 APERTURE END LIST*
D10*
%TO.P,J4,1,Pin_1*%
%TO.N,GNDD*%
X96460000Y-114930000D03*
D11*
%TO.P,J4,2,Pin_2*%
%TO.N,/SOLAR_P*%
X96460000Y-112390000D03*
%TD*%
D10*
%TO.P,J2,1,Pin_1*%
%TO.N,GNDD*%
X96460000Y-121285000D03*
D11*
%TO.P,J2,2,Pin_2*%
%TO.N,/BAT_P*%
X96460000Y-118745000D03*
%TD*%
D10*
%TO.P,J1,1,Pin_1*%
%TO.N,GNDD*%
X127441000Y-115641200D03*
D11*
%TO.P,J1,2,Pin_2*%
%TO.N,/OUT_P*%
X127441000Y-118181200D03*
%TD*%
D12*
%TO.P,J3,1,Pin_1*%
%TO.N,Net-(J3-Pin_1)*%
X107950000Y-114935000D03*
D13*
%TO.P,J3,2,Pin_2*%
%TO.N,/BAT_P*%
X100330000Y-114935000D03*
%TD*%
D14*
%TO.N,GNDD*%
X116840000Y-121285000D03*
X116636800Y-113436400D03*
X99974400Y-124815600D03*
%TO.N,Net-(J3-Pin_1)*%
X112826800Y-117754400D03*
X119176800Y-117754400D03*
%TD*%
D15*
%TO.N,Net-(J3-Pin_1)*%
X119176800Y-117754400D02*
X112826800Y-117754400D01*
%TD*%
%TA.AperFunction,Conductor*%
%TO.N,GNDD*%
G36*
X129355765Y-107992540D02*
G01*
X129422793Y-108012261D01*
X129468519Y-108065090D01*
X129478424Y-108134254D01*
X129466181Y-108172835D01*
X129410297Y-108282512D01*
X129340526Y-108497242D01*
X129340526Y-108497245D01*
X129305206Y-108720249D01*
X129305206Y-108946044D01*
X129340526Y-109169048D01*
X129340526Y-109169051D01*
X129391187Y-109324966D01*
X129410298Y-109383784D01*
X129502846Y-109565417D01*
X129512806Y-109584964D01*
X129645512Y-109767620D01*
X129645516Y-109767625D01*
X129805174Y-109927283D01*
X129805179Y-109927287D01*
X129899805Y-109996036D01*
X129987839Y-110059996D01*
X130189016Y-110162502D01*
X130403752Y-110232274D01*
X130503342Y-110248047D01*
X130626756Y-110267594D01*
X130626760Y-110267594D01*
X130852550Y-110267594D01*
X130939036Y-110253895D01*
X131075554Y-110232274D01*
X131290290Y-110162502D01*
X131399206Y-110107005D01*
X131467873Y-110094109D01*
X131532614Y-110120385D01*
X131572871Y-110177491D01*
X131579500Y-110217490D01*
X131579500Y-123380456D01*
X131559815Y-123447495D01*
X131507011Y-123493250D01*
X131437853Y-123503194D01*
X131399207Y-123490941D01*
X131290290Y-123435445D01*
X131245679Y-123420950D01*
X131075555Y-123365673D01*
X130852550Y-123330353D01*
X130852546Y-123330353D01*
X130626760Y-123330353D01*
X130626756Y-123330353D01*
X130403751Y-123365673D01*
X130403748Y-123365673D01*
X130189018Y-123435444D01*
X129987835Y-123537953D01*
X129805179Y-123670659D01*
X129805174Y-123670663D01*
X129645516Y-123830321D01*
X129645512Y-123830326D01*
X129512806Y-124012982D01*
X129410297Y-124214165D01*
X129340526Y-124428895D01*
X129340526Y-124428898D01*
X129305206Y-124651902D01*
X129305206Y-124877697D01*
X129340526Y-125100701D01*
X129340526Y-125100704D01*
X129410297Y-125315434D01*
X129410298Y-125315437D01*
X129432043Y-125358113D01*
X129466284Y-125425314D01*
X129479180Y-125493983D01*
X129452904Y-125558724D01*
X129395797Y-125598981D01*
X129355799Y-125605609D01*
X94570601Y-125605609D01*
X94503562Y-125585924D01*
X94457807Y-125533120D01*
X94447863Y-125463962D01*
X94460116Y-125425314D01*
X94516102Y-125315437D01*
X94585874Y-125100701D01*
X94612803Y-124930673D01*
X94621194Y-124877697D01*
X94621194Y-124651902D01*
X94597283Y-124500934D01*
X94585874Y-124428899D01*
X94583282Y-124420923D01*
X94555384Y-124335061D01*
X94516102Y-124214163D01*
X94413596Y-124012986D01*
X94388718Y-123978744D01*
X94280887Y-123830326D01*
X94280883Y-123830321D01*
X94121225Y-123670663D01*
X94121220Y-123670659D01*
X94040032Y-123611673D01*
X95329198Y-123611673D01*
X95414222Y-123778539D01*
X95416346Y-123782919D01*
X95428675Y-123809662D01*
X95430626Y-123814122D01*
X95445628Y-123850338D01*
X95447403Y-123854873D01*
X95457601Y-123882515D01*
X95459197Y-123887117D01*
X95541089Y-124139153D01*
X95542503Y-124143815D01*
X95550506Y-124172194D01*
X95551737Y-124176913D01*
X95560885Y-124215031D01*
X95561927Y-124219778D01*
X95567668Y-124248642D01*
X95568523Y-124253434D01*
X95609975Y-124515154D01*
X95610643Y-124519982D01*
X95614106Y-124549250D01*
X95614583Y-124554096D01*
X95614670Y-124555200D01*
X96595810Y-124555200D01*
X96595810Y-123633000D01*
X96509454Y-123633000D01*
X96462000Y-123623561D01*
X96460000Y-123622732D01*
X96458000Y-123623561D01*
X96410546Y-123633000D01*
X95548823Y-123633000D01*
X95545509Y-123632956D01*
X95525461Y-123632420D01*
X95522145Y-123632287D01*
X95495458Y-123630858D01*
X95492144Y-123630636D01*
X95472095Y-123629023D01*
X95468783Y-123628711D01*
X95364931Y-123617545D01*
X95357262Y-123616478D01*
X95329198Y-123611673D01*
X94040032Y-123611673D01*
X94039323Y-123611158D01*
X97593810Y-123611158D01*
X97593810Y-124555200D01*
X98725763Y-124555200D01*
X98730244Y-124526910D01*
X98734786Y-124507990D01*
X98790722Y-124335835D01*
X98798168Y-124317858D01*
X98880347Y-124156574D01*
X98890514Y-124139984D01*
X98996911Y-123993540D01*
X99009548Y-123978744D01*
X99095810Y-123892482D01*
X99095810Y-123544632D01*
X100093810Y-123544632D01*
X100263090Y-123571444D01*
X100282010Y-123575986D01*
X100454165Y-123631922D01*
X100472142Y-123639368D01*
X100633426Y-123721547D01*
X100650016Y-123731714D01*
X100796460Y-123838111D01*
X100811256Y-123850748D01*
X100939252Y-123978744D01*
X100951889Y-123993540D01*
X101058286Y-124139984D01*
X101068453Y-124156574D01*
X101150632Y-124317858D01*
X101158078Y-124335835D01*
X101214014Y-124507990D01*
X101218556Y-124526910D01*
X101223037Y-124555200D01*
X101595810Y-124555200D01*
X102593810Y-124555200D01*
X104095810Y-124555200D01*
X105093810Y-124555200D01*
X106595810Y-124555200D01*
X107593810Y-124555200D01*
X109095810Y-124555200D01*
X110093810Y-124555200D01*
X111595810Y-124555200D01*
X112593810Y-124555200D01*
X114095810Y-124555200D01*
X115093810Y-124555200D01*
X116595810Y-124555200D01*
X117593810Y-124555200D01*
X119095810Y-124555200D01*
X120093810Y-124555200D01*
X121595810Y-124555200D01*
X122593810Y-124555200D01*
X124095810Y-124555200D01*
X125093810Y-124555200D01*
X126595810Y-124555200D01*
X127593810Y-124555200D01*
X128311730Y-124555200D01*
X128311817Y-124554096D01*
X128312294Y-124549250D01*
X128315757Y-124519982D01*
X128316425Y-124515154D01*
X128357877Y-124253434D01*
X128358732Y-124248642D01*
X128364473Y-124219778D01*
X128365515Y-124215031D01*
X128374663Y-124176913D01*
X128375894Y-124172194D01*
X128383897Y-124143815D01*
X128385311Y-124139153D01*
X128467203Y-123887117D01*
X128468799Y-123882515D01*
X128478997Y-123854873D01*
X128480772Y-123850338D01*
X128495774Y-123814122D01*
X128497725Y-123809662D01*
X128510054Y-123782919D01*
X128512178Y-123778539D01*
X128632477Y-123542441D01*
X128634772Y-123538148D01*
X128649162Y-123512452D01*
X128651624Y-123508252D01*
X128672105Y-123474829D01*
X128674731Y-123470726D01*
X128691098Y-123446231D01*
X128693882Y-123442237D01*
X128849648Y-123227842D01*
X128852590Y-123223955D01*
X128854557Y-123221460D01*
X127593810Y-123221460D01*
X127593810Y-124555200D01*
X126595810Y-124555200D01*
X126595810Y-123221460D01*
X125093810Y-123221460D01*
X125093810Y-124555200D01*
X124095810Y-124555200D01*
X124095810Y-123221460D01*
X122593810Y-123221460D01*
X122593810Y-124555200D01*
X121595810Y-124555200D01*
X121595810Y-123221460D01*
X120093810Y-123221460D01*
X120093810Y-124555200D01*
X119095810Y-124555200D01*
X119095810Y-123221460D01*
X117593810Y-123221460D01*
X117593810Y-124555200D01*
X116595810Y-124555200D01*
X116595810Y-123221460D01*
X115093810Y-123221460D01*
X115093810Y-124555200D01*
X114095810Y-124555200D01*
X114095810Y-123221460D01*
X112593810Y-123221460D01*
X112593810Y-124555200D01*
X111595810Y-124555200D01*
X111595810Y-123221460D01*
X110093810Y-123221460D01*
X110093810Y-124555200D01*
X109095810Y-124555200D01*
X109095810Y-123221460D01*
X107593810Y-123221460D01*
X107593810Y-124555200D01*
X106595810Y-124555200D01*
X106595810Y-123221460D01*
X105093810Y-123221460D01*
X105093810Y-124555200D01*
X104095810Y-124555200D01*
X104095810Y-123221460D01*
X102593810Y-123221460D01*
X102593810Y-124555200D01*
X101595810Y-124555200D01*
X101595810Y-123221460D01*
X100093810Y-123221460D01*
X100093810Y-123544632D01*
X99095810Y-123544632D01*
X99095810Y-123221460D01*
X98349303Y-123221460D01*
X98347671Y-123223092D01*
X98341192Y-123229124D01*
X98300707Y-123264204D01*
X98293816Y-123269757D01*
X98121632Y-123398655D01*
X98114362Y-123403703D01*
X98069295Y-123432667D01*
X98061681Y-123437185D01*
X97999091Y-123471362D01*
X97991177Y-123475323D01*
X97942441Y-123497581D01*
X97934261Y-123500970D01*
X97736904Y-123574579D01*
X97729564Y-123577058D01*
X97684695Y-123590668D01*
X97677212Y-123592685D01*
X97616501Y-123607028D01*
X97608916Y-123608572D01*
X97593810Y-123611158D01*
X94039323Y-123611158D01*
X93938564Y-123537953D01*
X93938563Y-123537952D01*
X93938561Y-123537951D01*
X93737384Y-123435445D01*
X93692773Y-123420950D01*
X93522649Y-123365673D01*
X93299644Y-123330353D01*
X93299640Y-123330353D01*
X93073854Y-123330353D01*
X93073850Y-123330353D01*
X92850845Y-123365673D01*
X92850842Y-123365673D01*
X92636112Y-123435444D01*
X92636110Y-123435444D01*
X92636110Y-123435445D01*
X92558816Y-123474829D01*
X92526221Y-123491437D01*
X92457552Y-123504333D01*
X92392811Y-123478057D01*
X92352554Y-123420950D01*
X92345926Y-123380953D01*
X92345925Y-123221460D01*
X92345916Y-122223460D01*
X93376800Y-122223460D01*
X94095810Y-122223460D01*
X94095810Y-120721460D01*
X93376800Y-120721460D01*
X93376800Y-122223460D01*
X92345916Y-122223460D01*
X92345894Y-119723460D01*
X93376800Y-119723460D01*
X94095810Y-119723460D01*
X94095810Y-118638713D01*
X95109500Y-118638713D01*
X95109500Y-118851287D01*
X95142754Y-119061243D01*
X95185364Y-119192383D01*
X95208444Y-119263414D01*
X95304951Y-119452820D01*
X95429890Y-119624786D01*
X95543818Y-119738714D01*
X95577303Y-119800037D01*
X95572319Y-119869729D01*
X95530447Y-119925662D01*
X95499471Y-119942577D01*
X95367912Y-119991646D01*
X95367906Y-119991649D01*
X95252812Y-120077809D01*
X95252809Y-120077812D01*
X95166649Y-120192906D01*
X95166645Y-120192913D01*
X95116403Y-120327620D01*
X95116401Y-120327627D01*
X95110000Y-120387155D01*
X95110000Y-121035000D01*
X96026988Y-121035000D01*
X95994075Y-121092007D01*
X95960000Y-121219174D01*
X95960000Y-121350826D01*
X95994075Y-121477993D01*
X96026988Y-121535000D01*
X95110000Y-121535000D01*
X95110000Y-122182844D01*
X95116401Y-122242372D01*
X95116403Y-122242379D01*
X95166645Y-122377086D01*
X95166649Y-122377093D01*
X95252809Y-122492187D01*
X95252812Y-122492190D01*
X95367906Y-122578350D01*
X95367913Y-122578354D01*
X95502620Y-122628596D01*
X95502627Y-122628598D01*
X95562155Y-122634999D01*
X95562172Y-122635000D01*
X96210000Y-122635000D01*
X96210000Y-121718012D01*
X96267007Y-121750925D01*
X96394174Y-121785000D01*
X96525826Y-121785000D01*
X96652993Y-121750925D01*
X96710000Y-121718012D01*
X96710000Y-122635000D01*
X97357828Y-122635000D01*
X97357844Y-122634999D01*
X97417372Y-122628598D01*
X97417379Y-122628596D01*
X97552086Y-122578354D01*
X97552093Y-122578350D01*
X97667187Y-122492190D01*
X97667190Y-122492187D01*
X97753350Y-122377093D01*
X97753354Y-122377086D01*
X97803596Y-122242379D01*
X97803598Y-122242372D01*
X97809999Y-122182844D01*
X97810000Y-122182827D01*
X97810000Y-121535000D01*
X96893012Y-121535000D01*
X96925925Y-121477993D01*
X96960000Y-121350826D01*
X96960000Y-121285000D01*
X98797732Y-121285000D01*
X98798561Y-121287000D01*
X98808000Y-121334454D01*
X98808000Y-122196177D01*
X98807956Y-122199491D01*
X98807420Y-122219539D01*
X98807287Y-122222855D01*
X98807255Y-122223460D01*
X99095810Y-122223460D01*
X100093810Y-122223460D01*
X101595810Y-122223460D01*
X102593810Y-122223460D01*
X104095810Y-122223460D01*
X105093810Y-122223460D01*
X106595810Y-122223460D01*
X107593810Y-122223460D01*
X109095810Y-122223460D01*
X110093810Y-122223460D01*
X111595810Y-122223460D01*
X112593810Y-122223460D01*
X114095810Y-122223460D01*
X115093810Y-122223460D01*
X115976752Y-122223460D01*
X117703248Y-122223460D01*
X119095810Y-122223460D01*
X120093810Y-122223460D01*
X121595810Y-122223460D01*
X122593810Y-122223460D01*
X124095810Y-122223460D01*
X125093810Y-122223460D01*
X126595810Y-122223460D01*
X127593810Y-122223460D01*
X129095810Y-122223460D01*
X130093810Y-122223460D01*
X130549600Y-122223460D01*
X130549600Y-120721460D01*
X130093810Y-120721460D01*
X130093810Y-122223460D01*
X129095810Y-122223460D01*
X129095810Y-120721460D01*
X127593810Y-120721460D01*
X127593810Y-122223460D01*
X126595810Y-122223460D01*
X126595810Y-120721460D01*
X125093810Y-120721460D01*
X125093810Y-122223460D01*
X124095810Y-122223460D01*
X124095810Y-120721460D01*
X122593810Y-120721460D01*
X122593810Y-122223460D01*
X121595810Y-122223460D01*
X121595810Y-120721460D01*
X120093810Y-120721460D01*
X120093810Y-122223460D01*
X119095810Y-122223460D01*
X119095810Y-120721460D01*
X117982706Y-120721460D01*
X118016232Y-120787258D01*
X118023678Y-120805235D01*
X118079614Y-120977390D01*
X118084156Y-120996310D01*
X118112473Y-121175095D01*
X118114000Y-121194493D01*
X118114000Y-121375507D01*
X118112473Y-121394905D01*
X118084156Y-121573690D01*
X118079614Y-121592610D01*
X118023678Y-121764765D01*
X118016232Y-121782742D01*
X117934053Y-121944026D01*
X117923886Y-121960616D01*
X117817489Y-122107060D01*
X117804852Y-122121856D01*
X117703248Y-122223460D01*
X115976752Y-122223460D01*
X115875148Y-122121856D01*
X115862511Y-122107060D01*
X115756114Y-121960616D01*
X115745947Y-121944026D01*
X115663768Y-121782742D01*
X115656322Y-121764765D01*
X115600386Y-121592610D01*
X115595844Y-121573690D01*
X115567527Y-121394905D01*
X115566000Y-121375507D01*
X115566000Y-121194493D01*
X115567527Y-121175095D01*
X115595844Y-120996310D01*
X115600386Y-120977390D01*
X115656322Y-120805235D01*
X115663768Y-120787258D01*
X115697294Y-120721460D01*
X115093810Y-120721460D01*
X115093810Y-122223460D01*
X114095810Y-122223460D01*
X114095810Y-120721460D01*
X112593810Y-120721460D01*
X112593810Y-122223460D01*
X111595810Y-122223460D01*
X111595810Y-120721460D01*
X110093810Y-120721460D01*
X110093810Y-122223460D01*
X109095810Y-122223460D01*
X109095810Y-120721460D01*
X107593810Y-120721460D01*
X107593810Y-122223460D01*
X106595810Y-122223460D01*
X106595810Y-120721460D01*
X105093810Y-120721460D01*
X105093810Y-122223460D01*
X104095810Y-122223460D01*
X104095810Y-120721460D01*
X102593810Y-120721460D01*
X102593810Y-122223460D01*
X101595810Y-122223460D01*
X101595810Y-120721460D01*
X100093810Y-120721460D01*
X100093810Y-122223460D01*
X99095810Y-122223460D01*
X99095810Y-120721460D01*
X98808000Y-120721460D01*
X98808000Y-121235546D01*
X98798561Y-121283000D01*
X98797732Y-121285000D01*
X96960000Y-121285000D01*
X96960000Y-121219174D01*
X96925925Y-121092007D01*
X96893012Y-121035000D01*
X97810000Y-121035000D01*
X97810000Y-120387172D01*
X97809999Y-120387155D01*
X97803598Y-120327627D01*
X97803596Y-120327620D01*
X97753354Y-120192913D01*
X97753350Y-120192906D01*
X97667190Y-120077812D01*
X97667187Y-120077809D01*
X97552093Y-119991649D01*
X97552088Y-119991646D01*
X97420528Y-119942577D01*
X97364595Y-119900705D01*
X97340178Y-119835241D01*
X97355030Y-119766968D01*
X97376175Y-119738720D01*
X97426767Y-119688128D01*
X98614811Y-119688128D01*
X98634104Y-119723460D01*
X99095810Y-119723460D01*
X100093810Y-119723460D01*
X101595810Y-119723460D01*
X102593810Y-119723460D01*
X104095810Y-119723460D01*
X105093810Y-119723460D01*
X106595810Y-119723460D01*
X107593810Y-119723460D01*
X109095810Y-119723460D01*
X110093810Y-119723460D01*
X111595810Y-119723460D01*
X115093810Y-119723460D01*
X116595810Y-119723460D01*
X117593810Y-119723460D01*
X119095810Y-119723460D01*
X119095810Y-119552900D01*
X119073458Y-119552900D01*
X119067375Y-119552751D01*
X119030603Y-119550945D01*
X119024533Y-119550497D01*
X118975761Y-119545694D01*
X118969720Y-119544949D01*
X118933289Y-119539545D01*
X118927292Y-119538504D01*
X118724565Y-119498179D01*
X118718623Y-119496845D01*
X118682897Y-119487895D01*
X118677033Y-119486272D01*
X118630138Y-119472046D01*
X118624360Y-119470137D01*
X118589699Y-119457735D01*
X118584022Y-119455545D01*
X118393072Y-119376452D01*
X118387508Y-119373986D01*
X118354226Y-119358245D01*
X118348791Y-119355509D01*
X118343910Y-119352900D01*
X117593810Y-119352900D01*
X117593810Y-119723460D01*
X116595810Y-119723460D01*
X116595810Y-119352900D01*
X115093810Y-119352900D01*
X115093810Y-119723460D01*
X111595810Y-119723460D01*
X111595810Y-119304712D01*
X120093810Y-119304712D01*
X120093810Y-119723460D01*
X121595810Y-119723460D01*
X122593810Y-119723460D01*
X124095810Y-119723460D01*
X130093810Y-119723460D01*
X130549600Y-119723460D01*
X130549600Y-118221460D01*
X130093810Y-118221460D01*
X130093810Y-119723460D01*
X124095810Y-119723460D01*
X124095810Y-118221460D01*
X122593810Y-118221460D01*
X122593810Y-119723460D01*
X121595810Y-119723460D01*
X121595810Y-118221460D01*
X120917020Y-118221460D01*
X120910295Y-118248303D01*
X120908672Y-118254167D01*
X120894446Y-118301062D01*
X120892537Y-118306840D01*
X120880135Y-118341501D01*
X120877945Y-118347178D01*
X120798852Y-118538128D01*
X120796386Y-118543692D01*
X120780645Y-118576974D01*
X120777909Y-118582409D01*
X120754808Y-118625630D01*
X120751809Y-118630925D01*
X120732874Y-118662518D01*
X120729616Y-118667663D01*
X120614783Y-118839522D01*
X120611278Y-118844498D01*
X120589345Y-118874071D01*
X120585601Y-118878869D01*
X120554512Y-118916751D01*
X120550538Y-118921358D01*
X120525807Y-118948645D01*
X120521609Y-118953054D01*
X120375454Y-119099209D01*
X120371045Y-119103407D01*
X120343758Y-119128138D01*
X120339151Y-119132112D01*
X120301269Y-119163201D01*
X120296471Y-119166945D01*
X120266898Y-119188878D01*
X120261922Y-119192383D01*
X120093810Y-119304712D01*
X111595810Y-119304712D01*
X111595810Y-119066873D01*
X111481991Y-118953054D01*
X111477793Y-118948645D01*
X111453062Y-118921358D01*
X111449088Y-118916751D01*
X111417999Y-118878869D01*
X111414255Y-118874071D01*
X111392322Y-118844498D01*
X111388817Y-118839522D01*
X111273984Y-118667663D01*
X111270726Y-118662518D01*
X111251791Y-118630925D01*
X111248792Y-118625630D01*
X111225691Y-118582409D01*
X111222955Y-118576974D01*
X111207214Y-118543692D01*
X111204748Y-118538128D01*
X111125655Y-118347178D01*
X111123465Y-118341501D01*
X111111063Y-118306840D01*
X111109154Y-118301062D01*
X111094928Y-118254167D01*
X111093305Y-118248303D01*
X111086580Y-118221460D01*
X110093810Y-118221460D01*
X110093810Y-119723460D01*
X109095810Y-119723460D01*
X109095810Y-118221460D01*
X107593810Y-118221460D01*
X107593810Y-119723460D01*
X106595810Y-119723460D01*
X106595810Y-118221460D01*
X105093810Y-118221460D01*
X105093810Y-119723460D01*
X104095810Y-119723460D01*
X104095810Y-118221460D01*
X102593810Y-118221460D01*
X102593810Y-119723460D01*
X101595810Y-119723460D01*
X101595810Y-118221460D01*
X100093810Y-118221460D01*
X100093810Y-119723460D01*
X99095810Y-119723460D01*
X99095810Y-118221460D01*
X98753662Y-118221460D01*
X98759036Y-118248477D01*
X98759892Y-118253272D01*
X98799277Y-118501941D01*
X98799944Y-118506764D01*
X98803404Y-118535997D01*
X98803881Y-118540835D01*
X98806959Y-118579914D01*
X98807246Y-118584779D01*
X98808404Y-118614231D01*
X98808500Y-118619103D01*
X98808500Y-118870897D01*
X98808404Y-118875769D01*
X98807246Y-118905221D01*
X98806959Y-118910086D01*
X98803881Y-118949165D01*
X98803404Y-118954003D01*
X98799944Y-118983236D01*
X98799277Y-118988059D01*
X98759892Y-119236728D01*
X98759036Y-119241523D01*
X98753287Y-119270423D01*
X98752242Y-119275183D01*
X98743089Y-119313300D01*
X98741862Y-119318005D01*
X98733869Y-119346347D01*
X98732455Y-119351007D01*
X98654658Y-119590440D01*
X98653064Y-119595037D01*
X98642879Y-119622647D01*
X98641107Y-119627175D01*
X98626109Y-119663392D01*
X98624154Y-119667861D01*
X98614811Y-119688128D01*
X97426767Y-119688128D01*
X97490104Y-119624792D01*
X97491663Y-119622647D01*
X97615048Y-119452820D01*
X97615047Y-119452820D01*
X97615051Y-119452816D01*
X97711557Y-119263412D01*
X97777246Y-119061243D01*
X97810500Y-118851287D01*
X97810500Y-118638713D01*
X97777246Y-118428757D01*
X97711557Y-118226588D01*
X97615051Y-118037184D01*
X97615049Y-118037181D01*
X97615048Y-118037179D01*
X97490109Y-117865213D01*
X97339786Y-117714890D01*
X97285643Y-117675553D01*
X112026300Y-117675553D01*
X112026300Y-117833246D01*
X112057061Y-117987889D01*
X112057064Y-117987901D01*
X112117402Y-118133572D01*
X112117409Y-118133585D01*
X112205010Y-118264688D01*
X112205013Y-118264692D01*
X112316507Y-118376186D01*
X112316511Y-118376189D01*
X112447614Y-118463790D01*
X112447627Y-118463797D01*
X112593298Y-118524135D01*
X112593303Y-118524137D01*
X112747953Y-118554899D01*
X112747956Y-118554900D01*
X112747958Y-118554900D01*
X112905644Y-118554900D01*
X112905645Y-118554899D01*
X113060297Y-118524137D01*
X113205979Y-118463794D01*
X113258416Y-118428757D01*
X113337675Y-118375798D01*
X113404353Y-118354920D01*
X113406566Y-118354900D01*
X118597034Y-118354900D01*
X118664073Y-118374585D01*
X118665925Y-118375798D01*
X118797614Y-118463790D01*
X118797627Y-118463797D01*
X118943298Y-118524135D01*
X118943303Y-118524137D01*
X119097953Y-118554899D01*
X119097956Y-118554900D01*
X119097958Y-118554900D01*
X119255644Y-118554900D01*
X119255645Y-118554899D01*
X119410297Y-118524137D01*
X119555979Y-118463794D01*
X119687089Y-118376189D01*
X119798589Y-118264689D01*
X119886194Y-118133579D01*
X119910494Y-118074913D01*
X126090500Y-118074913D01*
X126090500Y-118287486D01*
X126112875Y-118428760D01*
X126123754Y-118497443D01*
X126177390Y-118662518D01*
X126189444Y-118699614D01*
X126285951Y-118889020D01*
X126410890Y-119060986D01*
X126561213Y-119211309D01*
X126733179Y-119336248D01*
X126733181Y-119336249D01*
X126733184Y-119336251D01*
X126922588Y-119432757D01*
X127124757Y-119498446D01*
X127334713Y-119531700D01*
X127334714Y-119531700D01*
X127547286Y-119531700D01*
X127547287Y-119531700D01*
X127757243Y-119498446D01*
X127959412Y-119432757D01*
X128148816Y-119336251D01*
X128192226Y-119304712D01*
X128320786Y-119211309D01*
X128320788Y-119211306D01*
X128320792Y-119211304D01*
X128471104Y-119060992D01*
X128471106Y-119060988D01*
X128471109Y-119060986D01*
X128596048Y-118889020D01*
X128596047Y-118889020D01*
X128596051Y-118889016D01*
X128692557Y-118699612D01*
X128758246Y-118497443D01*
X128791500Y-118287487D01*
X128791500Y-118074913D01*
X128758246Y-117864957D01*
X128692557Y-117662788D01*
X128596051Y-117473384D01*
X128596049Y-117473381D01*
X128596048Y-117473379D01*
X128471109Y-117301413D01*
X128393156Y-117223460D01*
X130093810Y-117223460D01*
X130549600Y-117223460D01*
X130549600Y-115721460D01*
X130093810Y-115721460D01*
X130093810Y-117223460D01*
X128393156Y-117223460D01*
X128357181Y-117187485D01*
X128323696Y-117126162D01*
X128328680Y-117056470D01*
X128370552Y-117000537D01*
X128401529Y-116983622D01*
X128533086Y-116934554D01*
X128533093Y-116934550D01*
X128648187Y-116848390D01*
X128648190Y-116848387D01*
X128734350Y-116733293D01*
X128734354Y-116733286D01*
X128784596Y-116598579D01*
X128784598Y-116598572D01*
X128790999Y-116539044D01*
X128791000Y-116539027D01*
X128791000Y-115891200D01*
X127874012Y-115891200D01*
X127906925Y-115834193D01*
X127941000Y-115707026D01*
X127941000Y-115575374D01*
X127906925Y-115448207D01*
X127874012Y-115391200D01*
X128791000Y-115391200D01*
X128791000Y-114743372D01*
X128790999Y-114743355D01*
X128788860Y-114723460D01*
X130093810Y-114723460D01*
X130549600Y-114723460D01*
X130549600Y-113221460D01*
X130093810Y-113221460D01*
X130093810Y-114723460D01*
X128788860Y-114723460D01*
X128784598Y-114683827D01*
X128784596Y-114683820D01*
X128734354Y-114549113D01*
X128734350Y-114549106D01*
X128648190Y-114434012D01*
X128648187Y-114434009D01*
X128533093Y-114347849D01*
X128533086Y-114347845D01*
X128398379Y-114297603D01*
X128398372Y-114297601D01*
X128338844Y-114291200D01*
X127691000Y-114291200D01*
X127691000Y-115208188D01*
X127633993Y-115175275D01*
X127506826Y-115141200D01*
X127375174Y-115141200D01*
X127248007Y-115175275D01*
X127191000Y-115208188D01*
X127191000Y-114291200D01*
X126543155Y-114291200D01*
X126483627Y-114297601D01*
X126483620Y-114297603D01*
X126348913Y-114347845D01*
X126348906Y-114347849D01*
X126233812Y-114434009D01*
X126233809Y-114434012D01*
X126147649Y-114549106D01*
X126147645Y-114549113D01*
X126097403Y-114683820D01*
X126097401Y-114683827D01*
X126091000Y-114743355D01*
X126091000Y-115391200D01*
X127007988Y-115391200D01*
X126975075Y-115448207D01*
X126941000Y-115575374D01*
X126941000Y-115707026D01*
X126975075Y-115834193D01*
X127007988Y-115891200D01*
X126091000Y-115891200D01*
X126091000Y-116539044D01*
X126097401Y-116598572D01*
X126097403Y-116598579D01*
X126147645Y-116733286D01*
X126147649Y-116733293D01*
X126233809Y-116848387D01*
X126233812Y-116848390D01*
X126348906Y-116934550D01*
X126348913Y-116934554D01*
X126480470Y-116983622D01*
X126536404Y-117025493D01*
X126560821Y-117090958D01*
X126545969Y-117159231D01*
X126524819Y-117187485D01*
X126410889Y-117301415D01*
X126285951Y-117473379D01*
X126189444Y-117662785D01*
X126123753Y-117864960D01*
X126090500Y-118074913D01*
X119910494Y-118074913D01*
X119946537Y-117987897D01*
X119977300Y-117833242D01*
X119977300Y-117675558D01*
X119977300Y-117675555D01*
X119977299Y-117675553D01*
X119974759Y-117662785D01*
X119946537Y-117520903D01*
X119907954Y-117427754D01*
X119886197Y-117375227D01*
X119886190Y-117375214D01*
X119798589Y-117244111D01*
X119798586Y-117244107D01*
X119687092Y-117132613D01*
X119687088Y-117132610D01*
X119555985Y-117045009D01*
X119555972Y-117045002D01*
X119410301Y-116984664D01*
X119410289Y-116984661D01*
X119255645Y-116953900D01*
X119255642Y-116953900D01*
X119097958Y-116953900D01*
X119097955Y-116953900D01*
X118943310Y-116984661D01*
X118943298Y-116984664D01*
X118797627Y-117045002D01*
X118797614Y-117045009D01*
X118665925Y-117133002D01*
X118599247Y-117153880D01*
X118597034Y-117153900D01*
X113406566Y-117153900D01*
X113339527Y-117134215D01*
X113337675Y-117133002D01*
X113205985Y-117045009D01*
X113205972Y-117045002D01*
X113060301Y-116984664D01*
X113060289Y-116984661D01*
X112905645Y-116953900D01*
X112905642Y-116953900D01*
X112747958Y-116953900D01*
X112747955Y-116953900D01*
X112593310Y-116984661D01*
X112593298Y-116984664D01*
X112447627Y-117045002D01*
X112447614Y-117045009D01*
X112316511Y-117132610D01*
X112316507Y-117132613D01*
X112205013Y-117244107D01*
X112205010Y-117244111D01*
X112117409Y-117375214D01*
X112117402Y-117375227D01*
X112057064Y-117520898D01*
X112057061Y-117520910D01*
X112026300Y-117675553D01*
X97285643Y-117675553D01*
X97167820Y-117589951D01*
X96978414Y-117493444D01*
X96978413Y-117493443D01*
X96978412Y-117493443D01*
X96776243Y-117427754D01*
X96776241Y-117427753D01*
X96776240Y-117427753D01*
X96614957Y-117402208D01*
X96566287Y-117394500D01*
X96353713Y-117394500D01*
X96305042Y-117402208D01*
X96143760Y-117427753D01*
X95941585Y-117493444D01*
X95752179Y-117589951D01*
X95580213Y-117714890D01*
X95429890Y-117865213D01*
X95304951Y-118037179D01*
X95208444Y-118226585D01*
X95142753Y-118428760D01*
X95109500Y-118638713D01*
X94095810Y-118638713D01*
X94095810Y-118221460D01*
X93376800Y-118221460D01*
X93376800Y-119723460D01*
X92345894Y-119723460D01*
X92345872Y-117223460D01*
X93376800Y-117223460D01*
X94095810Y-117223460D01*
X102593810Y-117223460D01*
X104095810Y-117223460D01*
X105093810Y-117223460D01*
X106595810Y-117223460D01*
X106595810Y-117042452D01*
X106587715Y-117038088D01*
X106581468Y-117034481D01*
X106382697Y-116911879D01*
X106376667Y-116907913D01*
X106340907Y-116882872D01*
X106335123Y-116878566D01*
X106289556Y-116842536D01*
X106284029Y-116837898D01*
X106251431Y-116808887D01*
X106246187Y-116803939D01*
X106081061Y-116638813D01*
X106076113Y-116633569D01*
X106047102Y-116600971D01*
X106042464Y-116595444D01*
X106006434Y-116549877D01*
X106002128Y-116544093D01*
X105977087Y-116508333D01*
X105973121Y-116502303D01*
X105850519Y-116303532D01*
X105846912Y-116297285D01*
X105826194Y-116258860D01*
X105822956Y-116252413D01*
X105798409Y-116199768D01*
X105795553Y-116193146D01*
X105779444Y-116152596D01*
X105776978Y-116145820D01*
X105704091Y-115925863D01*
X105702139Y-115919386D01*
X105691401Y-115879884D01*
X105689805Y-115873309D01*
X105678407Y-115820055D01*
X105677173Y-115813411D01*
X105670804Y-115773006D01*
X105669934Y-115766299D01*
X105665354Y-115721460D01*
X105093810Y-115721460D01*
X105093810Y-117223460D01*
X104095810Y-117223460D01*
X104095810Y-115721460D01*
X102593810Y-115721460D01*
X102593810Y-117223460D01*
X94095810Y-117223460D01*
X94095810Y-115721460D01*
X93376800Y-115721460D01*
X93376800Y-117223460D01*
X92345872Y-117223460D01*
X92345850Y-114723460D01*
X93376800Y-114723460D01*
X94095810Y-114723460D01*
X94095810Y-113221460D01*
X93376800Y-113221460D01*
X93376800Y-114723460D01*
X92345850Y-114723460D01*
X92345828Y-112283713D01*
X95109500Y-112283713D01*
X95109500Y-112496286D01*
X95142753Y-112706239D01*
X95208444Y-112908414D01*
X95304951Y-113097820D01*
X95429890Y-113269786D01*
X95543818Y-113383714D01*
X95577303Y-113445037D01*
X95572319Y-113514729D01*
X95530447Y-113570662D01*
X95499471Y-113587577D01*
X95367912Y-113636646D01*
X95367906Y-113636649D01*
X95252812Y-113722809D01*
X95252809Y-113722812D01*
X95166649Y-113837906D01*
X95166645Y-113837913D01*
X95116403Y-113972620D01*
X95116401Y-113972627D01*
X95110000Y-114032155D01*
X95110000Y-114680000D01*
X96026988Y-114680000D01*
X95994075Y-114737007D01*
X95960000Y-114864174D01*
X95960000Y-114995826D01*
X95994075Y-115122993D01*
X96026988Y-115180000D01*
X95110000Y-115180000D01*
X95110000Y-115827844D01*
X95116401Y-115887372D01*
X95116403Y-115887379D01*
X95166645Y-116022086D01*
X95166649Y-116022093D01*
X95252809Y-116137187D01*
X95252812Y-116137190D01*
X95367906Y-116223350D01*
X95367913Y-116223354D01*
X95502620Y-116273596D01*
X95502627Y-116273598D01*
X95562155Y-116279999D01*
X95562172Y-116280000D01*
X96210000Y-116280000D01*
X96210000Y-115363012D01*
X96267007Y-115395925D01*
X96394174Y-115430000D01*
X96525826Y-115430000D01*
X96652993Y-115395925D01*
X96710000Y-115363012D01*
X96710000Y-116280000D01*
X97357828Y-116280000D01*
X97357844Y-116279999D01*
X97417372Y-116273598D01*
X97417379Y-116273596D01*
X97552086Y-116223354D01*
X97552093Y-116223350D01*
X97667187Y-116137190D01*
X97667190Y-116137187D01*
X97753350Y-116022093D01*
X97753354Y-116022086D01*
X97803596Y-115887379D01*
X97803598Y-115887372D01*
X97809999Y-115827844D01*
X97810000Y-115827827D01*
X97810000Y-115180000D01*
X96893012Y-115180000D01*
X96925925Y-115122993D01*
X96960000Y-114995826D01*
X96960000Y-114864174D01*
X96951552Y-114832648D01*
X99029500Y-114832648D01*
X99029500Y-115037351D01*
X99061522Y-115239534D01*
X99124781Y-115434223D01*
X99217715Y-115616613D01*
X99338028Y-115782213D01*
X99482786Y-115926971D01*
X99613713Y-116022093D01*
X99648390Y-116047287D01*
X99764607Y-116106503D01*
X99830776Y-116140218D01*
X99830778Y-116140218D01*
X99830781Y-116140220D01*
X99921856Y-116169812D01*
X100025465Y-116203477D01*
X100107398Y-116216454D01*
X100227648Y-116235500D01*
X100227649Y-116235500D01*
X100432351Y-116235500D01*
X100432352Y-116235500D01*
X100634534Y-116203477D01*
X100829219Y-116140220D01*
X101011610Y-116047287D01*
X101134704Y-115957855D01*
X101177213Y-115926971D01*
X101177215Y-115926968D01*
X101177219Y-115926966D01*
X101321966Y-115782219D01*
X101321968Y-115782215D01*
X101321971Y-115782213D01*
X101426892Y-115637799D01*
X101442287Y-115616610D01*
X101535220Y-115434219D01*
X101598477Y-115239534D01*
X101630500Y-115037352D01*
X101630500Y-114832648D01*
X101598477Y-114630466D01*
X101592682Y-114612632D01*
X101567486Y-114535086D01*
X102593810Y-114535086D01*
X102619277Y-114695875D01*
X102619945Y-114700699D01*
X102622639Y-114723460D01*
X104095810Y-114723460D01*
X105093810Y-114723460D01*
X105651500Y-114723460D01*
X105651500Y-114334983D01*
X106649500Y-114334983D01*
X106649500Y-115535001D01*
X106649501Y-115535018D01*
X106660000Y-115637796D01*
X106660001Y-115637799D01*
X106715185Y-115804331D01*
X106715187Y-115804336D01*
X106729687Y-115827844D01*
X106807288Y-115953656D01*
X106931344Y-116077712D01*
X107080666Y-116169814D01*
X107247203Y-116224999D01*
X107349991Y-116235500D01*
X108550008Y-116235499D01*
X108652797Y-116224999D01*
X108678584Y-116216454D01*
X110093810Y-116216454D01*
X110093810Y-117223460D01*
X111104385Y-117223460D01*
X111109154Y-117207738D01*
X111111063Y-117201960D01*
X111123465Y-117167299D01*
X111125655Y-117161622D01*
X111204748Y-116970672D01*
X111207214Y-116965108D01*
X111222955Y-116931826D01*
X111225691Y-116926391D01*
X111248792Y-116883170D01*
X111251791Y-116877875D01*
X111270726Y-116846282D01*
X111273984Y-116841137D01*
X111388817Y-116669278D01*
X111392322Y-116664302D01*
X111414255Y-116634729D01*
X111417999Y-116629931D01*
X111449088Y-116592049D01*
X111453062Y-116587442D01*
X111477793Y-116560155D01*
X111481991Y-116555746D01*
X111595810Y-116441927D01*
X111595810Y-116204087D01*
X120093810Y-116204087D01*
X120261922Y-116316417D01*
X120266898Y-116319922D01*
X120296471Y-116341855D01*
X120301269Y-116345599D01*
X120339151Y-116376688D01*
X120343758Y-116380662D01*
X120371045Y-116405393D01*
X120375454Y-116409591D01*
X120521609Y-116555746D01*
X120525807Y-116560155D01*
X120550538Y-116587442D01*
X120554512Y-116592049D01*
X120585601Y-116629931D01*
X120589345Y-116634729D01*
X120611278Y-116664302D01*
X120614783Y-116669278D01*
X120729616Y-116841137D01*
X120732874Y-116846282D01*
X120751809Y-116877875D01*
X120754808Y-116883170D01*
X120777909Y-116926391D01*
X120780645Y-116931826D01*
X120796386Y-116965108D01*
X120798852Y-116970672D01*
X120877945Y-117161622D01*
X120880135Y-117167299D01*
X120892537Y-117201960D01*
X120894446Y-117207738D01*
X120899215Y-117223460D01*
X121595810Y-117223460D01*
X122593810Y-117223460D01*
X124095810Y-117223460D01*
X124095810Y-115721460D01*
X122593810Y-115721460D01*
X122593810Y-117223460D01*
X121595810Y-117223460D01*
X121595810Y-115721460D01*
X120093810Y-115721460D01*
X120093810Y-116204087D01*
X111595810Y-116204087D01*
X111595810Y-115967694D01*
X112593810Y-115967694D01*
X112619720Y-115963851D01*
X112625761Y-115963106D01*
X112674533Y-115958303D01*
X112680603Y-115957855D01*
X112717375Y-115956049D01*
X112723458Y-115955900D01*
X112930142Y-115955900D01*
X112936225Y-115956049D01*
X112972997Y-115957855D01*
X112979067Y-115958303D01*
X113027839Y-115963106D01*
X113033880Y-115963851D01*
X113070311Y-115969255D01*
X113076308Y-115970296D01*
X113279035Y-116010621D01*
X113284977Y-116011955D01*
X113320703Y-116020905D01*
X113326567Y-116022528D01*
X113373462Y-116036754D01*
X113379240Y-116038663D01*
X113413901Y-116051065D01*
X113419578Y-116053255D01*
X113610528Y-116132348D01*
X113616092Y-116134814D01*
X113649374Y-116150555D01*
X113654809Y-116153291D01*
X113659690Y-116155900D01*
X114095810Y-116155900D01*
X115093810Y-116155900D01*
X116595810Y-116155900D01*
X117593810Y-116155900D01*
X118343910Y-116155900D01*
X118348791Y-116153291D01*
X118354226Y-116150555D01*
X118387508Y-116134814D01*
X118393072Y-116132348D01*
X118584022Y-116053255D01*
X118589699Y-116051065D01*
X118624360Y-116038663D01*
X118630138Y-116036754D01*
X118677033Y-116022528D01*
X118682897Y-116020905D01*
X118718623Y-116011955D01*
X118724565Y-116010621D01*
X118927292Y-115970296D01*
X118933289Y-115969255D01*
X118969720Y-115963851D01*
X118975761Y-115963106D01*
X119024533Y-115958303D01*
X119030603Y-115957855D01*
X119067375Y-115956049D01*
X119073458Y-115955900D01*
X119095810Y-115955900D01*
X119095810Y-115721460D01*
X117593810Y-115721460D01*
X117593810Y-116155900D01*
X116595810Y-116155900D01*
X116595810Y-115721460D01*
X115093810Y-115721460D01*
X115093810Y-116155900D01*
X114095810Y-116155900D01*
X114095810Y-115721460D01*
X112593810Y-115721460D01*
X112593810Y-115967694D01*
X111595810Y-115967694D01*
X111595810Y-115721460D01*
X110234647Y-115721460D01*
X110230064Y-115766319D01*
X110229193Y-115773028D01*
X110222819Y-115813457D01*
X110221584Y-115820108D01*
X110210182Y-115873359D01*
X110208587Y-115879926D01*
X110197856Y-115919400D01*
X110195905Y-115925875D01*
X110123023Y-116145818D01*
X110120556Y-116152596D01*
X110104446Y-116193147D01*
X110101591Y-116199767D01*
X110093810Y-116216454D01*
X108678584Y-116216454D01*
X108819334Y-116169814D01*
X108968656Y-116077712D01*
X109092712Y-115953656D01*
X109184814Y-115804334D01*
X109239999Y-115637797D01*
X109250500Y-115535009D01*
X109250499Y-114334992D01*
X109246679Y-114297601D01*
X109239999Y-114232203D01*
X109239998Y-114232200D01*
X109184814Y-114065666D01*
X109092712Y-113916344D01*
X108968656Y-113792288D01*
X108830780Y-113707246D01*
X108819336Y-113700187D01*
X108819331Y-113700185D01*
X108809949Y-113697076D01*
X108678578Y-113653544D01*
X110093810Y-113653544D01*
X110101591Y-113670232D01*
X110104447Y-113676854D01*
X110120556Y-113717404D01*
X110123022Y-113724180D01*
X110195909Y-113944137D01*
X110197861Y-113950614D01*
X110208599Y-113990116D01*
X110210195Y-113996691D01*
X110221593Y-114049945D01*
X110222827Y-114056589D01*
X110229196Y-114096994D01*
X110230066Y-114103701D01*
X110244624Y-114246213D01*
X110244905Y-114249361D01*
X110246361Y-114268405D01*
X110246562Y-114271551D01*
X110247854Y-114296920D01*
X110247974Y-114300074D01*
X110248459Y-114319144D01*
X110248499Y-114322297D01*
X110248499Y-114723460D01*
X111595810Y-114723460D01*
X112593810Y-114723460D01*
X114095810Y-114723460D01*
X115093810Y-114723460D01*
X116595810Y-114723460D01*
X116595810Y-114710400D01*
X116546293Y-114710400D01*
X116526895Y-114708873D01*
X116348110Y-114680556D01*
X116329190Y-114676014D01*
X116157035Y-114620078D01*
X116139058Y-114612632D01*
X115977774Y-114530453D01*
X115961184Y-114520286D01*
X115814740Y-114413889D01*
X115799944Y-114401252D01*
X115679790Y-114281098D01*
X117593810Y-114281098D01*
X117593810Y-114723460D01*
X119095810Y-114723460D01*
X120093810Y-114723460D01*
X121595810Y-114723460D01*
X122593810Y-114723460D01*
X124095810Y-114723460D01*
X124095810Y-114701533D01*
X125093810Y-114701533D01*
X125095142Y-114676658D01*
X125095364Y-114673344D01*
X125096977Y-114653295D01*
X125097289Y-114649983D01*
X125108455Y-114546131D01*
X125109522Y-114538462D01*
X125117428Y-114492284D01*
X125118972Y-114484699D01*
X125133315Y-114423988D01*
X125135332Y-114416505D01*
X125148942Y-114371636D01*
X125151421Y-114364296D01*
X125225030Y-114166939D01*
X125228419Y-114158759D01*
X125250677Y-114110023D01*
X125254638Y-114102109D01*
X125288815Y-114039519D01*
X125293333Y-114031905D01*
X125322297Y-113986838D01*
X125327345Y-113979568D01*
X125456243Y-113807384D01*
X125461796Y-113800493D01*
X125496876Y-113760008D01*
X125502908Y-113753529D01*
X125553329Y-113703108D01*
X125559808Y-113697076D01*
X125600293Y-113661996D01*
X125607184Y-113656443D01*
X125779368Y-113527545D01*
X125786638Y-113522497D01*
X125831705Y-113493533D01*
X125839319Y-113489015D01*
X125901909Y-113454838D01*
X125909823Y-113450877D01*
X125958559Y-113428619D01*
X125966739Y-113425230D01*
X126164096Y-113351621D01*
X126171436Y-113349142D01*
X126216305Y-113335532D01*
X126223788Y-113333515D01*
X126284499Y-113319172D01*
X126292084Y-113317628D01*
X126338262Y-113309722D01*
X126345931Y-113308655D01*
X126449783Y-113297489D01*
X126453095Y-113297177D01*
X126473144Y-113295564D01*
X126476458Y-113295342D01*
X126503145Y-113293913D01*
X126506461Y-113293780D01*
X126526509Y-113293244D01*
X126529823Y-113293200D01*
X126595810Y-113293200D01*
X126595810Y-113221460D01*
X125093810Y-113221460D01*
X125093810Y-114701533D01*
X124095810Y-114701533D01*
X124095810Y-113221460D01*
X122593810Y-113221460D01*
X122593810Y-114723460D01*
X121595810Y-114723460D01*
X121595810Y-113221460D01*
X120093810Y-113221460D01*
X120093810Y-114723460D01*
X119095810Y-114723460D01*
X119095810Y-113221460D01*
X117892637Y-113221460D01*
X117909273Y-113326495D01*
X117910800Y-113345893D01*
X117910800Y-113526907D01*
X117909273Y-113546305D01*
X117880956Y-113725090D01*
X117876414Y-113744010D01*
X117820478Y-113916165D01*
X117813032Y-113934142D01*
X117730853Y-114095426D01*
X117720686Y-114112016D01*
X117614289Y-114258460D01*
X117601652Y-114273256D01*
X117593810Y-114281098D01*
X115679790Y-114281098D01*
X115671948Y-114273256D01*
X115659311Y-114258460D01*
X115552914Y-114112016D01*
X115542747Y-114095426D01*
X115460568Y-113934142D01*
X115453122Y-113916165D01*
X115397186Y-113744010D01*
X115392644Y-113725090D01*
X115364327Y-113546305D01*
X115362800Y-113526907D01*
X115362800Y-113345893D01*
X115364327Y-113326495D01*
X115380963Y-113221460D01*
X115093810Y-113221460D01*
X115093810Y-114723460D01*
X114095810Y-114723460D01*
X114095810Y-113221460D01*
X112593810Y-113221460D01*
X112593810Y-114723460D01*
X111595810Y-114723460D01*
X111595810Y-113221460D01*
X110093810Y-113221460D01*
X110093810Y-113653544D01*
X108678578Y-113653544D01*
X108652797Y-113645001D01*
X108652795Y-113645000D01*
X108550010Y-113634500D01*
X107349998Y-113634500D01*
X107349981Y-113634501D01*
X107247203Y-113645000D01*
X107247200Y-113645001D01*
X107080668Y-113700185D01*
X107080663Y-113700187D01*
X106931342Y-113792289D01*
X106807289Y-113916342D01*
X106715187Y-114065663D01*
X106715185Y-114065668D01*
X106699827Y-114112016D01*
X106660001Y-114232203D01*
X106660001Y-114232204D01*
X106660000Y-114232204D01*
X106649500Y-114334983D01*
X105651500Y-114334983D01*
X105651500Y-114322296D01*
X105651540Y-114319143D01*
X105652025Y-114300073D01*
X105652145Y-114296920D01*
X105653437Y-114271549D01*
X105653638Y-114268398D01*
X105655095Y-114249349D01*
X105655376Y-114246204D01*
X105669936Y-114103681D01*
X105670807Y-114096972D01*
X105677181Y-114056543D01*
X105678416Y-114049892D01*
X105689818Y-113996641D01*
X105691413Y-113990074D01*
X105702144Y-113950600D01*
X105704095Y-113944125D01*
X105776977Y-113724182D01*
X105779444Y-113717404D01*
X105795554Y-113676853D01*
X105798409Y-113670234D01*
X105822956Y-113617588D01*
X105826194Y-113611140D01*
X105846912Y-113572715D01*
X105850519Y-113566468D01*
X105973121Y-113367697D01*
X105977087Y-113361667D01*
X106002128Y-113325907D01*
X106006434Y-113320123D01*
X106042464Y-113274556D01*
X106047102Y-113269029D01*
X106076113Y-113236431D01*
X106081061Y-113231187D01*
X106090788Y-113221460D01*
X105093810Y-113221460D01*
X105093810Y-114723460D01*
X104095810Y-114723460D01*
X104095810Y-113221460D01*
X102593810Y-113221460D01*
X102593810Y-114535086D01*
X101567486Y-114535086D01*
X101535218Y-114435776D01*
X101501503Y-114369607D01*
X101442287Y-114253390D01*
X101426892Y-114232200D01*
X101321971Y-114087786D01*
X101177213Y-113943028D01*
X101011613Y-113822715D01*
X101011612Y-113822714D01*
X101011610Y-113822713D01*
X100951898Y-113792288D01*
X100829223Y-113729781D01*
X100634534Y-113666522D01*
X100445901Y-113636646D01*
X100432352Y-113634500D01*
X100227648Y-113634500D01*
X100214099Y-113636646D01*
X100025465Y-113666522D01*
X99830776Y-113729781D01*
X99648386Y-113822715D01*
X99482786Y-113943028D01*
X99338028Y-114087786D01*
X99217715Y-114253386D01*
X99124781Y-114435776D01*
X99061522Y-114630465D01*
X99029500Y-114832648D01*
X96951552Y-114832648D01*
X96925925Y-114737007D01*
X96893012Y-114680000D01*
X97810000Y-114680000D01*
X97810000Y-114032172D01*
X97809999Y-114032155D01*
X97803598Y-113972627D01*
X97803596Y-113972620D01*
X97753354Y-113837913D01*
X97753350Y-113837906D01*
X97667190Y-113722812D01*
X97667187Y-113722809D01*
X97552093Y-113636649D01*
X97552088Y-113636646D01*
X97420528Y-113587577D01*
X97364595Y-113545705D01*
X97340178Y-113480241D01*
X97355030Y-113411968D01*
X97376175Y-113383720D01*
X97490104Y-113269792D01*
X97490659Y-113269029D01*
X97615048Y-113097820D01*
X97615047Y-113097820D01*
X97615051Y-113097816D01*
X97711557Y-112908412D01*
X97777246Y-112706243D01*
X97810500Y-112496287D01*
X97810500Y-112283713D01*
X97777246Y-112073757D01*
X97711557Y-111871588D01*
X97615051Y-111682184D01*
X97615049Y-111682181D01*
X97615048Y-111682179D01*
X97490109Y-111510213D01*
X97339786Y-111359890D01*
X97167820Y-111234951D01*
X96978414Y-111138444D01*
X96978413Y-111138443D01*
X96978412Y-111138443D01*
X96776243Y-111072754D01*
X96776241Y-111072753D01*
X96776240Y-111072753D01*
X96614957Y-111047208D01*
X96566287Y-111039500D01*
X96353713Y-111039500D01*
X96305042Y-111047208D01*
X96143760Y-111072753D01*
X95941585Y-111138444D01*
X95752179Y-111234951D01*
X95580213Y-111359890D01*
X95429890Y-111510213D01*
X95304951Y-111682179D01*
X95208444Y-111871585D01*
X95142753Y-112073760D01*
X95109500Y-112283713D01*
X92345828Y-112283713D01*
X92345819Y-111243060D01*
X93376800Y-111243060D01*
X93376800Y-112223460D01*
X94095810Y-112223460D01*
X94095810Y-111074574D01*
X94069032Y-111084454D01*
X94064430Y-111086050D01*
X93812394Y-111167942D01*
X93807732Y-111169356D01*
X93779353Y-111177359D01*
X93774634Y-111178590D01*
X93736516Y-111187738D01*
X93731769Y-111188780D01*
X93702905Y-111194521D01*
X93698113Y-111195376D01*
X93436393Y-111236828D01*
X93431565Y-111237496D01*
X93402297Y-111240959D01*
X93397451Y-111241436D01*
X93376800Y-111243060D01*
X92345819Y-111243060D01*
X92345815Y-110721460D01*
X98112740Y-110721460D01*
X98209644Y-110818364D01*
X98213014Y-110821868D01*
X98232988Y-110843473D01*
X98236222Y-110847112D01*
X98261683Y-110876919D01*
X98264773Y-110880684D01*
X98283032Y-110903843D01*
X98285975Y-110907731D01*
X98433974Y-111111435D01*
X98436760Y-111115432D01*
X98453126Y-111139927D01*
X98455750Y-111144027D01*
X98476231Y-111177450D01*
X98478693Y-111181650D01*
X98493083Y-111207346D01*
X98495378Y-111211639D01*
X98609686Y-111435981D01*
X98611811Y-111440364D01*
X98624154Y-111467139D01*
X98626109Y-111471608D01*
X98641107Y-111507825D01*
X98642879Y-111512353D01*
X98653064Y-111539963D01*
X98654658Y-111544560D01*
X98732455Y-111783993D01*
X98733869Y-111788653D01*
X98741862Y-111816995D01*
X98743089Y-111821700D01*
X98752242Y-111859817D01*
X98753287Y-111864577D01*
X98759036Y-111893477D01*
X98759892Y-111898272D01*
X98799277Y-112146941D01*
X98799944Y-112151764D01*
X98803404Y-112180997D01*
X98803881Y-112185835D01*
X98806844Y-112223460D01*
X99095810Y-112223460D01*
X100093810Y-112223460D01*
X101595810Y-112223460D01*
X102593810Y-112223460D01*
X104095810Y-112223460D01*
X105093810Y-112223460D01*
X106595810Y-112223460D01*
X107593810Y-112223460D01*
X109095810Y-112223460D01*
X110093810Y-112223460D01*
X111595810Y-112223460D01*
X112593810Y-112223460D01*
X114095810Y-112223460D01*
X115093810Y-112223460D01*
X116247095Y-112223460D01*
X117593810Y-112223460D01*
X119095810Y-112223460D01*
X120093810Y-112223460D01*
X121595810Y-112223460D01*
X122593810Y-112223460D01*
X124095810Y-112223460D01*
X125093810Y-112223460D01*
X126595810Y-112223460D01*
X127593810Y-112223460D01*
X129095810Y-112223460D01*
X129095810Y-110721460D01*
X127593810Y-110721460D01*
X127593810Y-112223460D01*
X126595810Y-112223460D01*
X126595810Y-110721460D01*
X125093810Y-110721460D01*
X125093810Y-112223460D01*
X124095810Y-112223460D01*
X124095810Y-110721460D01*
X122593810Y-110721460D01*
X122593810Y-112223460D01*
X121595810Y-112223460D01*
X121595810Y-110721460D01*
X120093810Y-110721460D01*
X120093810Y-112223460D01*
X119095810Y-112223460D01*
X119095810Y-110721460D01*
X117593810Y-110721460D01*
X117593810Y-112223460D01*
X116247095Y-112223460D01*
X116329190Y-112196786D01*
X116348110Y-112192244D01*
X116526895Y-112163927D01*
X116546293Y-112162400D01*
X116595810Y-112162400D01*
X116595810Y-110721460D01*
X115093810Y-110721460D01*
X115093810Y-112223460D01*
X114095810Y-112223460D01*
X114095810Y-110721460D01*
X112593810Y-110721460D01*
X112593810Y-112223460D01*
X111595810Y-112223460D01*
X111595810Y-110721460D01*
X110093810Y-110721460D01*
X110093810Y-112223460D01*
X109095810Y-112223460D01*
X109095810Y-110721460D01*
X107593810Y-110721460D01*
X107593810Y-112223460D01*
X106595810Y-112223460D01*
X106595810Y-110721460D01*
X105093810Y-110721460D01*
X105093810Y-112223460D01*
X104095810Y-112223460D01*
X104095810Y-110721460D01*
X102593810Y-110721460D01*
X102593810Y-112223460D01*
X101595810Y-112223460D01*
X101595810Y-110721460D01*
X100093810Y-110721460D01*
X100093810Y-112223460D01*
X99095810Y-112223460D01*
X99095810Y-110721460D01*
X98112740Y-110721460D01*
X92345815Y-110721460D01*
X92345810Y-110197386D01*
X92365494Y-110130350D01*
X92418298Y-110084595D01*
X92487456Y-110074651D01*
X92526105Y-110086904D01*
X92636110Y-110142955D01*
X92850846Y-110212727D01*
X92966557Y-110231053D01*
X93073850Y-110248047D01*
X93073854Y-110248047D01*
X93299644Y-110248047D01*
X93386130Y-110234348D01*
X93522648Y-110212727D01*
X93737384Y-110142955D01*
X93938561Y-110040449D01*
X94121227Y-109907735D01*
X94280882Y-109748080D01*
X94298769Y-109723460D01*
X95447428Y-109723460D01*
X96595810Y-109723460D01*
X97593810Y-109723460D01*
X99095810Y-109723460D01*
X100093810Y-109723460D01*
X101595810Y-109723460D01*
X102593810Y-109723460D01*
X104095810Y-109723460D01*
X105093810Y-109723460D01*
X106595810Y-109723460D01*
X107593810Y-109723460D01*
X109095810Y-109723460D01*
X110093810Y-109723460D01*
X111595810Y-109723460D01*
X112593810Y-109723460D01*
X114095810Y-109723460D01*
X115093810Y-109723460D01*
X116595810Y-109723460D01*
X117593810Y-109723460D01*
X119095810Y-109723460D01*
X120093810Y-109723460D01*
X121595810Y-109723460D01*
X122593810Y-109723460D01*
X124095810Y-109723460D01*
X125093810Y-109723460D01*
X126595810Y-109723460D01*
X127593810Y-109723460D01*
X128471761Y-109723460D01*
X128468799Y-109715432D01*
X128467203Y-109710830D01*
X128385311Y-109458794D01*
X128383897Y-109454132D01*
X128375894Y-109425753D01*
X128374663Y-109421034D01*
X128365515Y-109382916D01*
X128364473Y-109378169D01*
X128358732Y-109349305D01*
X128357877Y-109344513D01*
X128316425Y-109082793D01*
X128315757Y-109077965D01*
X128312294Y-109048697D01*
X128311817Y-109043851D01*
X128310193Y-109023200D01*
X127593810Y-109023200D01*
X127593810Y-109723460D01*
X126595810Y-109723460D01*
X126595810Y-109023200D01*
X125093810Y-109023200D01*
X125093810Y-109723460D01*
X124095810Y-109723460D01*
X124095810Y-109023200D01*
X122593810Y-109023200D01*
X122593810Y-109723460D01*
X121595810Y-109723460D01*
X121595810Y-109023200D01*
X120093810Y-109023200D01*
X120093810Y-109723460D01*
X119095810Y-109723460D01*
X119095810Y-109023200D01*
X117593810Y-109023200D01*
X117593810Y-109723460D01*
X116595810Y-109723460D01*
X116595810Y-109023200D01*
X115093810Y-109023200D01*
X115093810Y-109723460D01*
X114095810Y-109723460D01*
X114095810Y-109023200D01*
X112593810Y-109023200D01*
X112593810Y-109723460D01*
X111595810Y-109723460D01*
X111595810Y-109023200D01*
X110093810Y-109023200D01*
X110093810Y-109723460D01*
X109095810Y-109723460D01*
X109095810Y-109023200D01*
X107593810Y-109023200D01*
X107593810Y-109723460D01*
X106595810Y-109723460D01*
X106595810Y-109023200D01*
X105093810Y-109023200D01*
X105093810Y-109723460D01*
X104095810Y-109723460D01*
X104095810Y-109023200D01*
X102593810Y-109023200D01*
X102593810Y-109723460D01*
X101595810Y-109723460D01*
X101595810Y-109023200D01*
X100093810Y-109023200D01*
X100093810Y-109723460D01*
X99095810Y-109723460D01*
X99095810Y-109023200D01*
X97593810Y-109023200D01*
X97593810Y-109723460D01*
X96595810Y-109723460D01*
X96595810Y-109023200D01*
X95614670Y-109023200D01*
X95614583Y-109024304D01*
X95614106Y-109029150D01*
X95610643Y-109058418D01*
X95609975Y-109063246D01*
X95568523Y-109324966D01*
X95567668Y-109329758D01*
X95561927Y-109358622D01*
X95560885Y-109363369D01*
X95551737Y-109401487D01*
X95550506Y-109406206D01*
X95542503Y-109434585D01*
X95541089Y-109439247D01*
X95459197Y-109691283D01*
X95457601Y-109695885D01*
X95447428Y-109723460D01*
X94298769Y-109723460D01*
X94413596Y-109565414D01*
X94516102Y-109364237D01*
X94585874Y-109149501D01*
X94618098Y-108946044D01*
X94621194Y-108926497D01*
X94621194Y-108700702D01*
X94597283Y-108549734D01*
X94585874Y-108477699D01*
X94583282Y-108469723D01*
X94555384Y-108383861D01*
X94516102Y-108262963D01*
X94460456Y-108153754D01*
X94447560Y-108085086D01*
X94473836Y-108020346D01*
X94530942Y-107980088D01*
X94571005Y-107973460D01*
X129355765Y-107992540D01*
G37*
%TD.AperFunction*%
%TD*%
M02*
