%TF.GenerationSoftware,KiCad,Pcbnew,9.0.2*%
%TF.CreationDate,2025-06-13T22:03:49+05:30*%
%TF.ProjectId,Tiny Solar Supply,54696e79-2053-46f6-9c61-722053757070,rev?*%
%TF.SameCoordinates,Original*%
%TF.FileFunction,Legend,Bot*%
%TF.FilePolarity,Positive*%
%FSLAX46Y46*%
G04 Gerber Fmt 4.6, Leading zero omitted, Abs format (unit mm)*
G04 Created by KiCad (PCBNEW 9.0.2) date 2025-06-13 22:03:49*
%MOMM*%
%LPD*%
G01*
G04 APERTURE LIST*
G04 Aperture macros list*
%AMRoundRect*
0 Rectangle with rounded corners*
0 $1 Rounding radius*
0 $2 $3 $4 $5 $6 $7 $8 $9 X,Y pos of 4 corners*
0 Add a 4 corners polygon primitive as box body*
4,1,4,$2,$3,$4,$5,$6,$7,$8,$9,$2,$3,0*
0 Add four circle primitives for the rounded corners*
1,1,$1+$1,$2,$3*
1,1,$1+$1,$4,$5*
1,1,$1+$1,$6,$7*
1,1,$1+$1,$8,$9*
0 Add four rect primitives between the rounded corners*
20,1,$1+$1,$2,$3,$4,$5,0*
20,1,$1+$1,$4,$5,$6,$7,0*
20,1,$1+$1,$6,$7,$8,$9,0*
20,1,$1+$1,$8,$9,$2,$3,0*%
G04 Aperture macros list end*
%ADD10C,0.100000*%
%ADD11C,0.010000*%
%ADD12R,1.700000X1.700000*%
%ADD13C,1.700000*%
%ADD14RoundRect,0.250000X0.550000X0.550000X-0.550000X0.550000X-0.550000X-0.550000X0.550000X-0.550000X0*%
%ADD15C,1.600000*%
G04 APERTURE END LIST*
D10*
X116126520Y-117622195D02*
X115859853Y-118422195D01*
X115859853Y-118422195D02*
X115593187Y-117622195D01*
X115021758Y-118384100D02*
X115097949Y-118422195D01*
X115097949Y-118422195D02*
X115250330Y-118422195D01*
X115250330Y-118422195D02*
X115326520Y-118384100D01*
X115326520Y-118384100D02*
X115364616Y-118307909D01*
X115364616Y-118307909D02*
X115364616Y-118003147D01*
X115364616Y-118003147D02*
X115326520Y-117926957D01*
X115326520Y-117926957D02*
X115250330Y-117888861D01*
X115250330Y-117888861D02*
X115097949Y-117888861D01*
X115097949Y-117888861D02*
X115021758Y-117926957D01*
X115021758Y-117926957D02*
X114983663Y-118003147D01*
X114983663Y-118003147D02*
X114983663Y-118079338D01*
X114983663Y-118079338D02*
X115364616Y-118155528D01*
X114640806Y-118422195D02*
X114640806Y-117888861D01*
X114640806Y-118041242D02*
X114602711Y-117965052D01*
X114602711Y-117965052D02*
X114564616Y-117926957D01*
X114564616Y-117926957D02*
X114488425Y-117888861D01*
X114488425Y-117888861D02*
X114412235Y-117888861D01*
X114183664Y-118384100D02*
X114107473Y-118422195D01*
X114107473Y-118422195D02*
X113955092Y-118422195D01*
X113955092Y-118422195D02*
X113878902Y-118384100D01*
X113878902Y-118384100D02*
X113840806Y-118307909D01*
X113840806Y-118307909D02*
X113840806Y-118269814D01*
X113840806Y-118269814D02*
X113878902Y-118193623D01*
X113878902Y-118193623D02*
X113955092Y-118155528D01*
X113955092Y-118155528D02*
X114069378Y-118155528D01*
X114069378Y-118155528D02*
X114145568Y-118117433D01*
X114145568Y-118117433D02*
X114183664Y-118041242D01*
X114183664Y-118041242D02*
X114183664Y-118003147D01*
X114183664Y-118003147D02*
X114145568Y-117926957D01*
X114145568Y-117926957D02*
X114069378Y-117888861D01*
X114069378Y-117888861D02*
X113955092Y-117888861D01*
X113955092Y-117888861D02*
X113878902Y-117926957D01*
X113497949Y-118422195D02*
X113497949Y-117888861D01*
X113497949Y-117622195D02*
X113536045Y-117660290D01*
X113536045Y-117660290D02*
X113497949Y-117698385D01*
X113497949Y-117698385D02*
X113459854Y-117660290D01*
X113459854Y-117660290D02*
X113497949Y-117622195D01*
X113497949Y-117622195D02*
X113497949Y-117698385D01*
X113002712Y-118422195D02*
X113078902Y-118384100D01*
X113078902Y-118384100D02*
X113116997Y-118346004D01*
X113116997Y-118346004D02*
X113155093Y-118269814D01*
X113155093Y-118269814D02*
X113155093Y-118041242D01*
X113155093Y-118041242D02*
X113116997Y-117965052D01*
X113116997Y-117965052D02*
X113078902Y-117926957D01*
X113078902Y-117926957D02*
X113002712Y-117888861D01*
X113002712Y-117888861D02*
X112888426Y-117888861D01*
X112888426Y-117888861D02*
X112812235Y-117926957D01*
X112812235Y-117926957D02*
X112774140Y-117965052D01*
X112774140Y-117965052D02*
X112736045Y-118041242D01*
X112736045Y-118041242D02*
X112736045Y-118269814D01*
X112736045Y-118269814D02*
X112774140Y-118346004D01*
X112774140Y-118346004D02*
X112812235Y-118384100D01*
X112812235Y-118384100D02*
X112888426Y-118422195D01*
X112888426Y-118422195D02*
X113002712Y-118422195D01*
X112393187Y-117888861D02*
X112393187Y-118422195D01*
X112393187Y-117965052D02*
X112355092Y-117926957D01*
X112355092Y-117926957D02*
X112278902Y-117888861D01*
X112278902Y-117888861D02*
X112164616Y-117888861D01*
X112164616Y-117888861D02*
X112088425Y-117926957D01*
X112088425Y-117926957D02*
X112050330Y-118003147D01*
X112050330Y-118003147D02*
X112050330Y-118422195D01*
X110640806Y-118422195D02*
X111097949Y-118422195D01*
X110869377Y-118422195D02*
X110869377Y-117622195D01*
X110869377Y-117622195D02*
X110945568Y-117736480D01*
X110945568Y-117736480D02*
X111021758Y-117812671D01*
X111021758Y-117812671D02*
X111097949Y-117850766D01*
X110297948Y-118346004D02*
X110259853Y-118384100D01*
X110259853Y-118384100D02*
X110297948Y-118422195D01*
X110297948Y-118422195D02*
X110336044Y-118384100D01*
X110336044Y-118384100D02*
X110297948Y-118346004D01*
X110297948Y-118346004D02*
X110297948Y-118422195D01*
X109764615Y-117622195D02*
X109688425Y-117622195D01*
X109688425Y-117622195D02*
X109612234Y-117660290D01*
X109612234Y-117660290D02*
X109574139Y-117698385D01*
X109574139Y-117698385D02*
X109536044Y-117774576D01*
X109536044Y-117774576D02*
X109497949Y-117926957D01*
X109497949Y-117926957D02*
X109497949Y-118117433D01*
X109497949Y-118117433D02*
X109536044Y-118269814D01*
X109536044Y-118269814D02*
X109574139Y-118346004D01*
X109574139Y-118346004D02*
X109612234Y-118384100D01*
X109612234Y-118384100D02*
X109688425Y-118422195D01*
X109688425Y-118422195D02*
X109764615Y-118422195D01*
X109764615Y-118422195D02*
X109840806Y-118384100D01*
X109840806Y-118384100D02*
X109878901Y-118346004D01*
X109878901Y-118346004D02*
X109916996Y-118269814D01*
X109916996Y-118269814D02*
X109955092Y-118117433D01*
X109955092Y-118117433D02*
X109955092Y-117926957D01*
X109955092Y-117926957D02*
X109916996Y-117774576D01*
X109916996Y-117774576D02*
X109878901Y-117698385D01*
X109878901Y-117698385D02*
X109840806Y-117660290D01*
X109840806Y-117660290D02*
X109764615Y-117622195D01*
X116126520Y-118910150D02*
X115669377Y-118910150D01*
X115897949Y-119710150D02*
X115897949Y-118910150D01*
X115402710Y-119710150D02*
X115402710Y-119176816D01*
X115402710Y-118910150D02*
X115440806Y-118948245D01*
X115440806Y-118948245D02*
X115402710Y-118986340D01*
X115402710Y-118986340D02*
X115364615Y-118948245D01*
X115364615Y-118948245D02*
X115402710Y-118910150D01*
X115402710Y-118910150D02*
X115402710Y-118986340D01*
X115021758Y-119176816D02*
X115021758Y-119710150D01*
X115021758Y-119253007D02*
X114983663Y-119214912D01*
X114983663Y-119214912D02*
X114907473Y-119176816D01*
X114907473Y-119176816D02*
X114793187Y-119176816D01*
X114793187Y-119176816D02*
X114716996Y-119214912D01*
X114716996Y-119214912D02*
X114678901Y-119291102D01*
X114678901Y-119291102D02*
X114678901Y-119710150D01*
X114374139Y-119176816D02*
X114183663Y-119710150D01*
X113993186Y-119176816D02*
X114183663Y-119710150D01*
X114183663Y-119710150D02*
X114259853Y-119900626D01*
X114259853Y-119900626D02*
X114297948Y-119938721D01*
X114297948Y-119938721D02*
X114374139Y-119976816D01*
X113116996Y-119672055D02*
X113002710Y-119710150D01*
X113002710Y-119710150D02*
X112812234Y-119710150D01*
X112812234Y-119710150D02*
X112736043Y-119672055D01*
X112736043Y-119672055D02*
X112697948Y-119633959D01*
X112697948Y-119633959D02*
X112659853Y-119557769D01*
X112659853Y-119557769D02*
X112659853Y-119481578D01*
X112659853Y-119481578D02*
X112697948Y-119405388D01*
X112697948Y-119405388D02*
X112736043Y-119367293D01*
X112736043Y-119367293D02*
X112812234Y-119329197D01*
X112812234Y-119329197D02*
X112964615Y-119291102D01*
X112964615Y-119291102D02*
X113040805Y-119253007D01*
X113040805Y-119253007D02*
X113078900Y-119214912D01*
X113078900Y-119214912D02*
X113116996Y-119138721D01*
X113116996Y-119138721D02*
X113116996Y-119062531D01*
X113116996Y-119062531D02*
X113078900Y-118986340D01*
X113078900Y-118986340D02*
X113040805Y-118948245D01*
X113040805Y-118948245D02*
X112964615Y-118910150D01*
X112964615Y-118910150D02*
X112774138Y-118910150D01*
X112774138Y-118910150D02*
X112659853Y-118948245D01*
X112202710Y-119710150D02*
X112278900Y-119672055D01*
X112278900Y-119672055D02*
X112316995Y-119633959D01*
X112316995Y-119633959D02*
X112355091Y-119557769D01*
X112355091Y-119557769D02*
X112355091Y-119329197D01*
X112355091Y-119329197D02*
X112316995Y-119253007D01*
X112316995Y-119253007D02*
X112278900Y-119214912D01*
X112278900Y-119214912D02*
X112202710Y-119176816D01*
X112202710Y-119176816D02*
X112088424Y-119176816D01*
X112088424Y-119176816D02*
X112012233Y-119214912D01*
X112012233Y-119214912D02*
X111974138Y-119253007D01*
X111974138Y-119253007D02*
X111936043Y-119329197D01*
X111936043Y-119329197D02*
X111936043Y-119557769D01*
X111936043Y-119557769D02*
X111974138Y-119633959D01*
X111974138Y-119633959D02*
X112012233Y-119672055D01*
X112012233Y-119672055D02*
X112088424Y-119710150D01*
X112088424Y-119710150D02*
X112202710Y-119710150D01*
X111478900Y-119710150D02*
X111555090Y-119672055D01*
X111555090Y-119672055D02*
X111593185Y-119595864D01*
X111593185Y-119595864D02*
X111593185Y-118910150D01*
X110831280Y-119710150D02*
X110831280Y-119291102D01*
X110831280Y-119291102D02*
X110869375Y-119214912D01*
X110869375Y-119214912D02*
X110945566Y-119176816D01*
X110945566Y-119176816D02*
X111097947Y-119176816D01*
X111097947Y-119176816D02*
X111174137Y-119214912D01*
X110831280Y-119672055D02*
X110907471Y-119710150D01*
X110907471Y-119710150D02*
X111097947Y-119710150D01*
X111097947Y-119710150D02*
X111174137Y-119672055D01*
X111174137Y-119672055D02*
X111212233Y-119595864D01*
X111212233Y-119595864D02*
X111212233Y-119519674D01*
X111212233Y-119519674D02*
X111174137Y-119443483D01*
X111174137Y-119443483D02*
X111097947Y-119405388D01*
X111097947Y-119405388D02*
X110907471Y-119405388D01*
X110907471Y-119405388D02*
X110831280Y-119367293D01*
X110450327Y-119710150D02*
X110450327Y-119176816D01*
X110450327Y-119329197D02*
X110412232Y-119253007D01*
X110412232Y-119253007D02*
X110374137Y-119214912D01*
X110374137Y-119214912D02*
X110297946Y-119176816D01*
X110297946Y-119176816D02*
X110221756Y-119176816D01*
X109345565Y-119710150D02*
X109345565Y-118910150D01*
X109345565Y-118910150D02*
X109040803Y-118910150D01*
X109040803Y-118910150D02*
X108964613Y-118948245D01*
X108964613Y-118948245D02*
X108926518Y-118986340D01*
X108926518Y-118986340D02*
X108888422Y-119062531D01*
X108888422Y-119062531D02*
X108888422Y-119176816D01*
X108888422Y-119176816D02*
X108926518Y-119253007D01*
X108926518Y-119253007D02*
X108964613Y-119291102D01*
X108964613Y-119291102D02*
X109040803Y-119329197D01*
X109040803Y-119329197D02*
X109345565Y-119329197D01*
X108431280Y-119710150D02*
X108507470Y-119672055D01*
X108507470Y-119672055D02*
X108545565Y-119633959D01*
X108545565Y-119633959D02*
X108583661Y-119557769D01*
X108583661Y-119557769D02*
X108583661Y-119329197D01*
X108583661Y-119329197D02*
X108545565Y-119253007D01*
X108545565Y-119253007D02*
X108507470Y-119214912D01*
X108507470Y-119214912D02*
X108431280Y-119176816D01*
X108431280Y-119176816D02*
X108316994Y-119176816D01*
X108316994Y-119176816D02*
X108240803Y-119214912D01*
X108240803Y-119214912D02*
X108202708Y-119253007D01*
X108202708Y-119253007D02*
X108164613Y-119329197D01*
X108164613Y-119329197D02*
X108164613Y-119557769D01*
X108164613Y-119557769D02*
X108202708Y-119633959D01*
X108202708Y-119633959D02*
X108240803Y-119672055D01*
X108240803Y-119672055D02*
X108316994Y-119710150D01*
X108316994Y-119710150D02*
X108431280Y-119710150D01*
X107897946Y-119176816D02*
X107745565Y-119710150D01*
X107745565Y-119710150D02*
X107593184Y-119329197D01*
X107593184Y-119329197D02*
X107440803Y-119710150D01*
X107440803Y-119710150D02*
X107288422Y-119176816D01*
X106678898Y-119672055D02*
X106755089Y-119710150D01*
X106755089Y-119710150D02*
X106907470Y-119710150D01*
X106907470Y-119710150D02*
X106983660Y-119672055D01*
X106983660Y-119672055D02*
X107021756Y-119595864D01*
X107021756Y-119595864D02*
X107021756Y-119291102D01*
X107021756Y-119291102D02*
X106983660Y-119214912D01*
X106983660Y-119214912D02*
X106907470Y-119176816D01*
X106907470Y-119176816D02*
X106755089Y-119176816D01*
X106755089Y-119176816D02*
X106678898Y-119214912D01*
X106678898Y-119214912D02*
X106640803Y-119291102D01*
X106640803Y-119291102D02*
X106640803Y-119367293D01*
X106640803Y-119367293D02*
X107021756Y-119443483D01*
X106297946Y-119710150D02*
X106297946Y-119176816D01*
X106297946Y-119329197D02*
X106259851Y-119253007D01*
X106259851Y-119253007D02*
X106221756Y-119214912D01*
X106221756Y-119214912D02*
X106145565Y-119176816D01*
X106145565Y-119176816D02*
X106069375Y-119176816D01*
X105231280Y-119672055D02*
X105116994Y-119710150D01*
X105116994Y-119710150D02*
X104926518Y-119710150D01*
X104926518Y-119710150D02*
X104850327Y-119672055D01*
X104850327Y-119672055D02*
X104812232Y-119633959D01*
X104812232Y-119633959D02*
X104774137Y-119557769D01*
X104774137Y-119557769D02*
X104774137Y-119481578D01*
X104774137Y-119481578D02*
X104812232Y-119405388D01*
X104812232Y-119405388D02*
X104850327Y-119367293D01*
X104850327Y-119367293D02*
X104926518Y-119329197D01*
X104926518Y-119329197D02*
X105078899Y-119291102D01*
X105078899Y-119291102D02*
X105155089Y-119253007D01*
X105155089Y-119253007D02*
X105193184Y-119214912D01*
X105193184Y-119214912D02*
X105231280Y-119138721D01*
X105231280Y-119138721D02*
X105231280Y-119062531D01*
X105231280Y-119062531D02*
X105193184Y-118986340D01*
X105193184Y-118986340D02*
X105155089Y-118948245D01*
X105155089Y-118948245D02*
X105078899Y-118910150D01*
X105078899Y-118910150D02*
X104888422Y-118910150D01*
X104888422Y-118910150D02*
X104774137Y-118948245D01*
X104088422Y-119176816D02*
X104088422Y-119710150D01*
X104431279Y-119176816D02*
X104431279Y-119595864D01*
X104431279Y-119595864D02*
X104393184Y-119672055D01*
X104393184Y-119672055D02*
X104316994Y-119710150D01*
X104316994Y-119710150D02*
X104202708Y-119710150D01*
X104202708Y-119710150D02*
X104126517Y-119672055D01*
X104126517Y-119672055D02*
X104088422Y-119633959D01*
X103707469Y-119176816D02*
X103707469Y-119976816D01*
X103707469Y-119214912D02*
X103631279Y-119176816D01*
X103631279Y-119176816D02*
X103478898Y-119176816D01*
X103478898Y-119176816D02*
X103402707Y-119214912D01*
X103402707Y-119214912D02*
X103364612Y-119253007D01*
X103364612Y-119253007D02*
X103326517Y-119329197D01*
X103326517Y-119329197D02*
X103326517Y-119557769D01*
X103326517Y-119557769D02*
X103364612Y-119633959D01*
X103364612Y-119633959D02*
X103402707Y-119672055D01*
X103402707Y-119672055D02*
X103478898Y-119710150D01*
X103478898Y-119710150D02*
X103631279Y-119710150D01*
X103631279Y-119710150D02*
X103707469Y-119672055D01*
X102983659Y-119176816D02*
X102983659Y-119976816D01*
X102983659Y-119214912D02*
X102907469Y-119176816D01*
X102907469Y-119176816D02*
X102755088Y-119176816D01*
X102755088Y-119176816D02*
X102678897Y-119214912D01*
X102678897Y-119214912D02*
X102640802Y-119253007D01*
X102640802Y-119253007D02*
X102602707Y-119329197D01*
X102602707Y-119329197D02*
X102602707Y-119557769D01*
X102602707Y-119557769D02*
X102640802Y-119633959D01*
X102640802Y-119633959D02*
X102678897Y-119672055D01*
X102678897Y-119672055D02*
X102755088Y-119710150D01*
X102755088Y-119710150D02*
X102907469Y-119710150D01*
X102907469Y-119710150D02*
X102983659Y-119672055D01*
X102145564Y-119710150D02*
X102221754Y-119672055D01*
X102221754Y-119672055D02*
X102259849Y-119595864D01*
X102259849Y-119595864D02*
X102259849Y-118910150D01*
X101916992Y-119176816D02*
X101726516Y-119710150D01*
X101536039Y-119176816D02*
X101726516Y-119710150D01*
X101726516Y-119710150D02*
X101802706Y-119900626D01*
X101802706Y-119900626D02*
X101840801Y-119938721D01*
X101840801Y-119938721D02*
X101916992Y-119976816D01*
X115555091Y-120921914D02*
X115593187Y-120960010D01*
X115593187Y-120960010D02*
X115707472Y-120998105D01*
X115707472Y-120998105D02*
X115783663Y-120998105D01*
X115783663Y-120998105D02*
X115897949Y-120960010D01*
X115897949Y-120960010D02*
X115974139Y-120883819D01*
X115974139Y-120883819D02*
X116012234Y-120807629D01*
X116012234Y-120807629D02*
X116050330Y-120655248D01*
X116050330Y-120655248D02*
X116050330Y-120540962D01*
X116050330Y-120540962D02*
X116012234Y-120388581D01*
X116012234Y-120388581D02*
X115974139Y-120312390D01*
X115974139Y-120312390D02*
X115897949Y-120236200D01*
X115897949Y-120236200D02*
X115783663Y-120198105D01*
X115783663Y-120198105D02*
X115707472Y-120198105D01*
X115707472Y-120198105D02*
X115593187Y-120236200D01*
X115593187Y-120236200D02*
X115555091Y-120274295D01*
X115212234Y-120998105D02*
X115212234Y-120464771D01*
X115212234Y-120617152D02*
X115174139Y-120540962D01*
X115174139Y-120540962D02*
X115136044Y-120502867D01*
X115136044Y-120502867D02*
X115059853Y-120464771D01*
X115059853Y-120464771D02*
X114983663Y-120464771D01*
X114412234Y-120960010D02*
X114488425Y-120998105D01*
X114488425Y-120998105D02*
X114640806Y-120998105D01*
X114640806Y-120998105D02*
X114716996Y-120960010D01*
X114716996Y-120960010D02*
X114755092Y-120883819D01*
X114755092Y-120883819D02*
X114755092Y-120579057D01*
X114755092Y-120579057D02*
X114716996Y-120502867D01*
X114716996Y-120502867D02*
X114640806Y-120464771D01*
X114640806Y-120464771D02*
X114488425Y-120464771D01*
X114488425Y-120464771D02*
X114412234Y-120502867D01*
X114412234Y-120502867D02*
X114374139Y-120579057D01*
X114374139Y-120579057D02*
X114374139Y-120655248D01*
X114374139Y-120655248D02*
X114755092Y-120731438D01*
X113688425Y-120998105D02*
X113688425Y-120579057D01*
X113688425Y-120579057D02*
X113726520Y-120502867D01*
X113726520Y-120502867D02*
X113802711Y-120464771D01*
X113802711Y-120464771D02*
X113955092Y-120464771D01*
X113955092Y-120464771D02*
X114031282Y-120502867D01*
X113688425Y-120960010D02*
X113764616Y-120998105D01*
X113764616Y-120998105D02*
X113955092Y-120998105D01*
X113955092Y-120998105D02*
X114031282Y-120960010D01*
X114031282Y-120960010D02*
X114069378Y-120883819D01*
X114069378Y-120883819D02*
X114069378Y-120807629D01*
X114069378Y-120807629D02*
X114031282Y-120731438D01*
X114031282Y-120731438D02*
X113955092Y-120693343D01*
X113955092Y-120693343D02*
X113764616Y-120693343D01*
X113764616Y-120693343D02*
X113688425Y-120655248D01*
X113421758Y-120464771D02*
X113116996Y-120464771D01*
X113307472Y-120198105D02*
X113307472Y-120883819D01*
X113307472Y-120883819D02*
X113269377Y-120960010D01*
X113269377Y-120960010D02*
X113193187Y-120998105D01*
X113193187Y-120998105D02*
X113116996Y-120998105D01*
X112545567Y-120960010D02*
X112621758Y-120998105D01*
X112621758Y-120998105D02*
X112774139Y-120998105D01*
X112774139Y-120998105D02*
X112850329Y-120960010D01*
X112850329Y-120960010D02*
X112888425Y-120883819D01*
X112888425Y-120883819D02*
X112888425Y-120579057D01*
X112888425Y-120579057D02*
X112850329Y-120502867D01*
X112850329Y-120502867D02*
X112774139Y-120464771D01*
X112774139Y-120464771D02*
X112621758Y-120464771D01*
X112621758Y-120464771D02*
X112545567Y-120502867D01*
X112545567Y-120502867D02*
X112507472Y-120579057D01*
X112507472Y-120579057D02*
X112507472Y-120655248D01*
X112507472Y-120655248D02*
X112888425Y-120731438D01*
X111821758Y-120998105D02*
X111821758Y-120198105D01*
X111821758Y-120960010D02*
X111897949Y-120998105D01*
X111897949Y-120998105D02*
X112050330Y-120998105D01*
X112050330Y-120998105D02*
X112126520Y-120960010D01*
X112126520Y-120960010D02*
X112164615Y-120921914D01*
X112164615Y-120921914D02*
X112202711Y-120845724D01*
X112202711Y-120845724D02*
X112202711Y-120617152D01*
X112202711Y-120617152D02*
X112164615Y-120540962D01*
X112164615Y-120540962D02*
X112126520Y-120502867D01*
X112126520Y-120502867D02*
X112050330Y-120464771D01*
X112050330Y-120464771D02*
X111897949Y-120464771D01*
X111897949Y-120464771D02*
X111821758Y-120502867D01*
X110831281Y-120998105D02*
X110831281Y-120198105D01*
X110831281Y-120502867D02*
X110755091Y-120464771D01*
X110755091Y-120464771D02*
X110602710Y-120464771D01*
X110602710Y-120464771D02*
X110526519Y-120502867D01*
X110526519Y-120502867D02*
X110488424Y-120540962D01*
X110488424Y-120540962D02*
X110450329Y-120617152D01*
X110450329Y-120617152D02*
X110450329Y-120845724D01*
X110450329Y-120845724D02*
X110488424Y-120921914D01*
X110488424Y-120921914D02*
X110526519Y-120960010D01*
X110526519Y-120960010D02*
X110602710Y-120998105D01*
X110602710Y-120998105D02*
X110755091Y-120998105D01*
X110755091Y-120998105D02*
X110831281Y-120960010D01*
X110183662Y-120464771D02*
X109993186Y-120998105D01*
X109802709Y-120464771D02*
X109993186Y-120998105D01*
X109993186Y-120998105D02*
X110069376Y-121188581D01*
X110069376Y-121188581D02*
X110107471Y-121226676D01*
X110107471Y-121226676D02*
X110183662Y-121264771D01*
X108545566Y-120960010D02*
X108621757Y-120998105D01*
X108621757Y-120998105D02*
X108774138Y-120998105D01*
X108774138Y-120998105D02*
X108850328Y-120960010D01*
X108850328Y-120960010D02*
X108888423Y-120921914D01*
X108888423Y-120921914D02*
X108926519Y-120845724D01*
X108926519Y-120845724D02*
X108926519Y-120617152D01*
X108926519Y-120617152D02*
X108888423Y-120540962D01*
X108888423Y-120540962D02*
X108850328Y-120502867D01*
X108850328Y-120502867D02*
X108774138Y-120464771D01*
X108774138Y-120464771D02*
X108621757Y-120464771D01*
X108621757Y-120464771D02*
X108545566Y-120502867D01*
X108088424Y-120998105D02*
X108164614Y-120960010D01*
X108164614Y-120960010D02*
X108202709Y-120883819D01*
X108202709Y-120883819D02*
X108202709Y-120198105D01*
X107478899Y-120960010D02*
X107555090Y-120998105D01*
X107555090Y-120998105D02*
X107707471Y-120998105D01*
X107707471Y-120998105D02*
X107783661Y-120960010D01*
X107783661Y-120960010D02*
X107821757Y-120883819D01*
X107821757Y-120883819D02*
X107821757Y-120579057D01*
X107821757Y-120579057D02*
X107783661Y-120502867D01*
X107783661Y-120502867D02*
X107707471Y-120464771D01*
X107707471Y-120464771D02*
X107555090Y-120464771D01*
X107555090Y-120464771D02*
X107478899Y-120502867D01*
X107478899Y-120502867D02*
X107440804Y-120579057D01*
X107440804Y-120579057D02*
X107440804Y-120655248D01*
X107440804Y-120655248D02*
X107821757Y-120731438D01*
X107097947Y-120998105D02*
X107097947Y-120464771D01*
X107097947Y-120540962D02*
X107059852Y-120502867D01*
X107059852Y-120502867D02*
X106983662Y-120464771D01*
X106983662Y-120464771D02*
X106869376Y-120464771D01*
X106869376Y-120464771D02*
X106793185Y-120502867D01*
X106793185Y-120502867D02*
X106755090Y-120579057D01*
X106755090Y-120579057D02*
X106755090Y-120998105D01*
X106755090Y-120579057D02*
X106716995Y-120502867D01*
X106716995Y-120502867D02*
X106640804Y-120464771D01*
X106640804Y-120464771D02*
X106526519Y-120464771D01*
X106526519Y-120464771D02*
X106450328Y-120502867D01*
X106450328Y-120502867D02*
X106412233Y-120579057D01*
X106412233Y-120579057D02*
X106412233Y-120998105D01*
X105726518Y-120960010D02*
X105802709Y-120998105D01*
X105802709Y-120998105D02*
X105955090Y-120998105D01*
X105955090Y-120998105D02*
X106031280Y-120960010D01*
X106031280Y-120960010D02*
X106069376Y-120883819D01*
X106069376Y-120883819D02*
X106069376Y-120579057D01*
X106069376Y-120579057D02*
X106031280Y-120502867D01*
X106031280Y-120502867D02*
X105955090Y-120464771D01*
X105955090Y-120464771D02*
X105802709Y-120464771D01*
X105802709Y-120464771D02*
X105726518Y-120502867D01*
X105726518Y-120502867D02*
X105688423Y-120579057D01*
X105688423Y-120579057D02*
X105688423Y-120655248D01*
X105688423Y-120655248D02*
X106069376Y-120731438D01*
X105345566Y-120464771D02*
X105345566Y-120998105D01*
X105345566Y-120540962D02*
X105307471Y-120502867D01*
X105307471Y-120502867D02*
X105231281Y-120464771D01*
X105231281Y-120464771D02*
X105116995Y-120464771D01*
X105116995Y-120464771D02*
X105040804Y-120502867D01*
X105040804Y-120502867D02*
X105002709Y-120579057D01*
X105002709Y-120579057D02*
X105002709Y-120998105D01*
X104659852Y-120960010D02*
X104583661Y-120998105D01*
X104583661Y-120998105D02*
X104431280Y-120998105D01*
X104431280Y-120998105D02*
X104355090Y-120960010D01*
X104355090Y-120960010D02*
X104316994Y-120883819D01*
X104316994Y-120883819D02*
X104316994Y-120845724D01*
X104316994Y-120845724D02*
X104355090Y-120769533D01*
X104355090Y-120769533D02*
X104431280Y-120731438D01*
X104431280Y-120731438D02*
X104545566Y-120731438D01*
X104545566Y-120731438D02*
X104621756Y-120693343D01*
X104621756Y-120693343D02*
X104659852Y-120617152D01*
X104659852Y-120617152D02*
X104659852Y-120579057D01*
X104659852Y-120579057D02*
X104621756Y-120502867D01*
X104621756Y-120502867D02*
X104545566Y-120464771D01*
X104545566Y-120464771D02*
X104431280Y-120464771D01*
X104431280Y-120464771D02*
X104355090Y-120502867D01*
X103478899Y-120464771D02*
X103174137Y-120464771D01*
X103364613Y-120998105D02*
X103364613Y-120312390D01*
X103364613Y-120312390D02*
X103326518Y-120236200D01*
X103326518Y-120236200D02*
X103250328Y-120198105D01*
X103250328Y-120198105D02*
X103174137Y-120198105D01*
X102793185Y-120998105D02*
X102869375Y-120960010D01*
X102869375Y-120960010D02*
X102907470Y-120921914D01*
X102907470Y-120921914D02*
X102945566Y-120845724D01*
X102945566Y-120845724D02*
X102945566Y-120617152D01*
X102945566Y-120617152D02*
X102907470Y-120540962D01*
X102907470Y-120540962D02*
X102869375Y-120502867D01*
X102869375Y-120502867D02*
X102793185Y-120464771D01*
X102793185Y-120464771D02*
X102678899Y-120464771D01*
X102678899Y-120464771D02*
X102602708Y-120502867D01*
X102602708Y-120502867D02*
X102564613Y-120540962D01*
X102564613Y-120540962D02*
X102526518Y-120617152D01*
X102526518Y-120617152D02*
X102526518Y-120845724D01*
X102526518Y-120845724D02*
X102564613Y-120921914D01*
X102564613Y-120921914D02*
X102602708Y-120960010D01*
X102602708Y-120960010D02*
X102678899Y-120998105D01*
X102678899Y-120998105D02*
X102793185Y-120998105D01*
X102183660Y-120998105D02*
X102183660Y-120464771D01*
X102183660Y-120617152D02*
X102145565Y-120540962D01*
X102145565Y-120540962D02*
X102107470Y-120502867D01*
X102107470Y-120502867D02*
X102031279Y-120464771D01*
X102031279Y-120464771D02*
X101955089Y-120464771D01*
X100774136Y-120960010D02*
X100850327Y-120998105D01*
X100850327Y-120998105D02*
X101002708Y-120998105D01*
X101002708Y-120998105D02*
X101078898Y-120960010D01*
X101078898Y-120960010D02*
X101116994Y-120883819D01*
X101116994Y-120883819D02*
X101116994Y-120579057D01*
X101116994Y-120579057D02*
X101078898Y-120502867D01*
X101078898Y-120502867D02*
X101002708Y-120464771D01*
X101002708Y-120464771D02*
X100850327Y-120464771D01*
X100850327Y-120464771D02*
X100774136Y-120502867D01*
X100774136Y-120502867D02*
X100736041Y-120579057D01*
X100736041Y-120579057D02*
X100736041Y-120655248D01*
X100736041Y-120655248D02*
X101116994Y-120731438D01*
X100278899Y-120998105D02*
X100355089Y-120960010D01*
X100355089Y-120960010D02*
X100393184Y-120883819D01*
X100393184Y-120883819D02*
X100393184Y-120198105D01*
X99669374Y-120960010D02*
X99745565Y-120998105D01*
X99745565Y-120998105D02*
X99897946Y-120998105D01*
X99897946Y-120998105D02*
X99974136Y-120960010D01*
X99974136Y-120960010D02*
X100012232Y-120883819D01*
X100012232Y-120883819D02*
X100012232Y-120579057D01*
X100012232Y-120579057D02*
X99974136Y-120502867D01*
X99974136Y-120502867D02*
X99897946Y-120464771D01*
X99897946Y-120464771D02*
X99745565Y-120464771D01*
X99745565Y-120464771D02*
X99669374Y-120502867D01*
X99669374Y-120502867D02*
X99631279Y-120579057D01*
X99631279Y-120579057D02*
X99631279Y-120655248D01*
X99631279Y-120655248D02*
X100012232Y-120731438D01*
X99288422Y-120998105D02*
X99288422Y-120198105D01*
X99212232Y-120693343D02*
X98983660Y-120998105D01*
X98983660Y-120464771D02*
X99288422Y-120769533D01*
X98755089Y-120464771D02*
X98450327Y-120464771D01*
X98640803Y-120198105D02*
X98640803Y-120883819D01*
X98640803Y-120883819D02*
X98602708Y-120960010D01*
X98602708Y-120960010D02*
X98526518Y-120998105D01*
X98526518Y-120998105D02*
X98450327Y-120998105D01*
X98069375Y-120998105D02*
X98145565Y-120960010D01*
X98145565Y-120960010D02*
X98183660Y-120921914D01*
X98183660Y-120921914D02*
X98221756Y-120845724D01*
X98221756Y-120845724D02*
X98221756Y-120617152D01*
X98221756Y-120617152D02*
X98183660Y-120540962D01*
X98183660Y-120540962D02*
X98145565Y-120502867D01*
X98145565Y-120502867D02*
X98069375Y-120464771D01*
X98069375Y-120464771D02*
X97955089Y-120464771D01*
X97955089Y-120464771D02*
X97878898Y-120502867D01*
X97878898Y-120502867D02*
X97840803Y-120540962D01*
X97840803Y-120540962D02*
X97802708Y-120617152D01*
X97802708Y-120617152D02*
X97802708Y-120845724D01*
X97802708Y-120845724D02*
X97840803Y-120921914D01*
X97840803Y-120921914D02*
X97878898Y-120960010D01*
X97878898Y-120960010D02*
X97955089Y-120998105D01*
X97955089Y-120998105D02*
X98069375Y-120998105D01*
X97459850Y-120998105D02*
X97459850Y-120464771D01*
X97459850Y-120617152D02*
X97421755Y-120540962D01*
X97421755Y-120540962D02*
X97383660Y-120502867D01*
X97383660Y-120502867D02*
X97307469Y-120464771D01*
X97307469Y-120464771D02*
X97231279Y-120464771D01*
X115555091Y-122209869D02*
X115593187Y-122247965D01*
X115593187Y-122247965D02*
X115707472Y-122286060D01*
X115707472Y-122286060D02*
X115783663Y-122286060D01*
X115783663Y-122286060D02*
X115897949Y-122247965D01*
X115897949Y-122247965D02*
X115974139Y-122171774D01*
X115974139Y-122171774D02*
X116012234Y-122095584D01*
X116012234Y-122095584D02*
X116050330Y-121943203D01*
X116050330Y-121943203D02*
X116050330Y-121828917D01*
X116050330Y-121828917D02*
X116012234Y-121676536D01*
X116012234Y-121676536D02*
X115974139Y-121600345D01*
X115974139Y-121600345D02*
X115897949Y-121524155D01*
X115897949Y-121524155D02*
X115783663Y-121486060D01*
X115783663Y-121486060D02*
X115707472Y-121486060D01*
X115707472Y-121486060D02*
X115593187Y-121524155D01*
X115593187Y-121524155D02*
X115555091Y-121562250D01*
X115097949Y-122286060D02*
X115174139Y-122247965D01*
X115174139Y-122247965D02*
X115212234Y-122209869D01*
X115212234Y-122209869D02*
X115250330Y-122133679D01*
X115250330Y-122133679D02*
X115250330Y-121905107D01*
X115250330Y-121905107D02*
X115212234Y-121828917D01*
X115212234Y-121828917D02*
X115174139Y-121790822D01*
X115174139Y-121790822D02*
X115097949Y-121752726D01*
X115097949Y-121752726D02*
X114983663Y-121752726D01*
X114983663Y-121752726D02*
X114907472Y-121790822D01*
X114907472Y-121790822D02*
X114869377Y-121828917D01*
X114869377Y-121828917D02*
X114831282Y-121905107D01*
X114831282Y-121905107D02*
X114831282Y-122133679D01*
X114831282Y-122133679D02*
X114869377Y-122209869D01*
X114869377Y-122209869D02*
X114907472Y-122247965D01*
X114907472Y-122247965D02*
X114983663Y-122286060D01*
X114983663Y-122286060D02*
X115097949Y-122286060D01*
X114488424Y-121752726D02*
X114488424Y-122552726D01*
X114488424Y-121790822D02*
X114412234Y-121752726D01*
X114412234Y-121752726D02*
X114259853Y-121752726D01*
X114259853Y-121752726D02*
X114183662Y-121790822D01*
X114183662Y-121790822D02*
X114145567Y-121828917D01*
X114145567Y-121828917D02*
X114107472Y-121905107D01*
X114107472Y-121905107D02*
X114107472Y-122133679D01*
X114107472Y-122133679D02*
X114145567Y-122209869D01*
X114145567Y-122209869D02*
X114183662Y-122247965D01*
X114183662Y-122247965D02*
X114259853Y-122286060D01*
X114259853Y-122286060D02*
X114412234Y-122286060D01*
X114412234Y-122286060D02*
X114488424Y-122247965D01*
X113764614Y-122286060D02*
X113764614Y-121752726D01*
X113764614Y-121486060D02*
X113802710Y-121524155D01*
X113802710Y-121524155D02*
X113764614Y-121562250D01*
X113764614Y-121562250D02*
X113726519Y-121524155D01*
X113726519Y-121524155D02*
X113764614Y-121486060D01*
X113764614Y-121486060D02*
X113764614Y-121562250D01*
X113078900Y-122247965D02*
X113155091Y-122286060D01*
X113155091Y-122286060D02*
X113307472Y-122286060D01*
X113307472Y-122286060D02*
X113383662Y-122247965D01*
X113383662Y-122247965D02*
X113421758Y-122171774D01*
X113421758Y-122171774D02*
X113421758Y-121867012D01*
X113421758Y-121867012D02*
X113383662Y-121790822D01*
X113383662Y-121790822D02*
X113307472Y-121752726D01*
X113307472Y-121752726D02*
X113155091Y-121752726D01*
X113155091Y-121752726D02*
X113078900Y-121790822D01*
X113078900Y-121790822D02*
X113040805Y-121867012D01*
X113040805Y-121867012D02*
X113040805Y-121943203D01*
X113040805Y-121943203D02*
X113421758Y-122019393D01*
X112355091Y-122286060D02*
X112355091Y-121486060D01*
X112355091Y-122247965D02*
X112431282Y-122286060D01*
X112431282Y-122286060D02*
X112583663Y-122286060D01*
X112583663Y-122286060D02*
X112659853Y-122247965D01*
X112659853Y-122247965D02*
X112697948Y-122209869D01*
X112697948Y-122209869D02*
X112736044Y-122133679D01*
X112736044Y-122133679D02*
X112736044Y-121905107D01*
X112736044Y-121905107D02*
X112697948Y-121828917D01*
X112697948Y-121828917D02*
X112659853Y-121790822D01*
X112659853Y-121790822D02*
X112583663Y-121752726D01*
X112583663Y-121752726D02*
X112431282Y-121752726D01*
X112431282Y-121752726D02*
X112355091Y-121790822D01*
X111364614Y-122286060D02*
X111364614Y-121486060D01*
X111364614Y-121790822D02*
X111288424Y-121752726D01*
X111288424Y-121752726D02*
X111136043Y-121752726D01*
X111136043Y-121752726D02*
X111059852Y-121790822D01*
X111059852Y-121790822D02*
X111021757Y-121828917D01*
X111021757Y-121828917D02*
X110983662Y-121905107D01*
X110983662Y-121905107D02*
X110983662Y-122133679D01*
X110983662Y-122133679D02*
X111021757Y-122209869D01*
X111021757Y-122209869D02*
X111059852Y-122247965D01*
X111059852Y-122247965D02*
X111136043Y-122286060D01*
X111136043Y-122286060D02*
X111288424Y-122286060D01*
X111288424Y-122286060D02*
X111364614Y-122247965D01*
X110716995Y-121752726D02*
X110526519Y-122286060D01*
X110336042Y-121752726D02*
X110526519Y-122286060D01*
X110526519Y-122286060D02*
X110602709Y-122476536D01*
X110602709Y-122476536D02*
X110640804Y-122514631D01*
X110640804Y-122514631D02*
X110716995Y-122552726D01*
X109421756Y-122286060D02*
X109421756Y-121486060D01*
X109421756Y-121867012D02*
X108964613Y-121867012D01*
X108964613Y-122286060D02*
X108964613Y-121486060D01*
X108240804Y-122286060D02*
X108240804Y-121867012D01*
X108240804Y-121867012D02*
X108278899Y-121790822D01*
X108278899Y-121790822D02*
X108355090Y-121752726D01*
X108355090Y-121752726D02*
X108507471Y-121752726D01*
X108507471Y-121752726D02*
X108583661Y-121790822D01*
X108240804Y-122247965D02*
X108316995Y-122286060D01*
X108316995Y-122286060D02*
X108507471Y-122286060D01*
X108507471Y-122286060D02*
X108583661Y-122247965D01*
X108583661Y-122247965D02*
X108621757Y-122171774D01*
X108621757Y-122171774D02*
X108621757Y-122095584D01*
X108621757Y-122095584D02*
X108583661Y-122019393D01*
X108583661Y-122019393D02*
X108507471Y-121981298D01*
X108507471Y-121981298D02*
X108316995Y-121981298D01*
X108316995Y-121981298D02*
X108240804Y-121943203D01*
X107859851Y-122286060D02*
X107859851Y-121752726D01*
X107859851Y-121905107D02*
X107821756Y-121828917D01*
X107821756Y-121828917D02*
X107783661Y-121790822D01*
X107783661Y-121790822D02*
X107707470Y-121752726D01*
X107707470Y-121752726D02*
X107631280Y-121752726D01*
X107402709Y-122247965D02*
X107326518Y-122286060D01*
X107326518Y-122286060D02*
X107174137Y-122286060D01*
X107174137Y-122286060D02*
X107097947Y-122247965D01*
X107097947Y-122247965D02*
X107059851Y-122171774D01*
X107059851Y-122171774D02*
X107059851Y-122133679D01*
X107059851Y-122133679D02*
X107097947Y-122057488D01*
X107097947Y-122057488D02*
X107174137Y-122019393D01*
X107174137Y-122019393D02*
X107288423Y-122019393D01*
X107288423Y-122019393D02*
X107364613Y-121981298D01*
X107364613Y-121981298D02*
X107402709Y-121905107D01*
X107402709Y-121905107D02*
X107402709Y-121867012D01*
X107402709Y-121867012D02*
X107364613Y-121790822D01*
X107364613Y-121790822D02*
X107288423Y-121752726D01*
X107288423Y-121752726D02*
X107174137Y-121752726D01*
X107174137Y-121752726D02*
X107097947Y-121790822D01*
X106716994Y-122286060D02*
X106716994Y-121486060D01*
X106374137Y-122286060D02*
X106374137Y-121867012D01*
X106374137Y-121867012D02*
X106412232Y-121790822D01*
X106412232Y-121790822D02*
X106488423Y-121752726D01*
X106488423Y-121752726D02*
X106602709Y-121752726D01*
X106602709Y-121752726D02*
X106678899Y-121790822D01*
X106678899Y-121790822D02*
X106716994Y-121828917D01*
X105993184Y-122286060D02*
X105993184Y-121752726D01*
X105993184Y-121486060D02*
X106031280Y-121524155D01*
X106031280Y-121524155D02*
X105993184Y-121562250D01*
X105993184Y-121562250D02*
X105955089Y-121524155D01*
X105955089Y-121524155D02*
X105993184Y-121486060D01*
X105993184Y-121486060D02*
X105993184Y-121562250D01*
X105497947Y-122286060D02*
X105574137Y-122247965D01*
X105574137Y-122247965D02*
X105612232Y-122171774D01*
X105612232Y-122171774D02*
X105612232Y-121486060D01*
X104621756Y-122247965D02*
X104507470Y-122286060D01*
X104507470Y-122286060D02*
X104316994Y-122286060D01*
X104316994Y-122286060D02*
X104240803Y-122247965D01*
X104240803Y-122247965D02*
X104202708Y-122209869D01*
X104202708Y-122209869D02*
X104164613Y-122133679D01*
X104164613Y-122133679D02*
X104164613Y-122057488D01*
X104164613Y-122057488D02*
X104202708Y-121981298D01*
X104202708Y-121981298D02*
X104240803Y-121943203D01*
X104240803Y-121943203D02*
X104316994Y-121905107D01*
X104316994Y-121905107D02*
X104469375Y-121867012D01*
X104469375Y-121867012D02*
X104545565Y-121828917D01*
X104545565Y-121828917D02*
X104583660Y-121790822D01*
X104583660Y-121790822D02*
X104621756Y-121714631D01*
X104621756Y-121714631D02*
X104621756Y-121638441D01*
X104621756Y-121638441D02*
X104583660Y-121562250D01*
X104583660Y-121562250D02*
X104545565Y-121524155D01*
X104545565Y-121524155D02*
X104469375Y-121486060D01*
X104469375Y-121486060D02*
X104278898Y-121486060D01*
X104278898Y-121486060D02*
X104164613Y-121524155D01*
X103478898Y-121752726D02*
X103478898Y-122286060D01*
X103821755Y-121752726D02*
X103821755Y-122171774D01*
X103821755Y-122171774D02*
X103783660Y-122247965D01*
X103783660Y-122247965D02*
X103707470Y-122286060D01*
X103707470Y-122286060D02*
X103593184Y-122286060D01*
X103593184Y-122286060D02*
X103516993Y-122247965D01*
X103516993Y-122247965D02*
X103478898Y-122209869D01*
X103212231Y-121752726D02*
X102907469Y-121752726D01*
X103097945Y-121486060D02*
X103097945Y-122171774D01*
X103097945Y-122171774D02*
X103059850Y-122247965D01*
X103059850Y-122247965D02*
X102983660Y-122286060D01*
X102983660Y-122286060D02*
X102907469Y-122286060D01*
X102640802Y-122286060D02*
X102640802Y-121486060D01*
X102297945Y-122286060D02*
X102297945Y-121867012D01*
X102297945Y-121867012D02*
X102336040Y-121790822D01*
X102336040Y-121790822D02*
X102412231Y-121752726D01*
X102412231Y-121752726D02*
X102526517Y-121752726D01*
X102526517Y-121752726D02*
X102602707Y-121790822D01*
X102602707Y-121790822D02*
X102640802Y-121828917D01*
X101574135Y-122286060D02*
X101574135Y-121867012D01*
X101574135Y-121867012D02*
X101612230Y-121790822D01*
X101612230Y-121790822D02*
X101688421Y-121752726D01*
X101688421Y-121752726D02*
X101840802Y-121752726D01*
X101840802Y-121752726D02*
X101916992Y-121790822D01*
X101574135Y-122247965D02*
X101650326Y-122286060D01*
X101650326Y-122286060D02*
X101840802Y-122286060D01*
X101840802Y-122286060D02*
X101916992Y-122247965D01*
X101916992Y-122247965D02*
X101955088Y-122171774D01*
X101955088Y-122171774D02*
X101955088Y-122095584D01*
X101955088Y-122095584D02*
X101916992Y-122019393D01*
X101916992Y-122019393D02*
X101840802Y-121981298D01*
X101840802Y-121981298D02*
X101650326Y-121981298D01*
X101650326Y-121981298D02*
X101574135Y-121943203D01*
X101193182Y-122286060D02*
X101193182Y-121752726D01*
X101193182Y-121905107D02*
X101155087Y-121828917D01*
X101155087Y-121828917D02*
X101116992Y-121790822D01*
X101116992Y-121790822D02*
X101040801Y-121752726D01*
X101040801Y-121752726D02*
X100964611Y-121752726D01*
X95885000Y-116636800D02*
X117221000Y-116636800D01*
X117221000Y-125577600D01*
X95885000Y-125577600D01*
X95885000Y-116636800D01*
D11*
%TO.C,REF\u002A\u002A*%
X112683698Y-115401141D02*
X112709419Y-115416839D01*
X112736070Y-115438419D01*
X112736070Y-116085876D01*
X112709419Y-116107456D01*
X112678059Y-116124931D01*
X112642258Y-116125767D01*
X112610820Y-116105274D01*
X112606944Y-116100608D01*
X112601478Y-116091141D01*
X112597271Y-116077459D01*
X112594159Y-116056940D01*
X112591979Y-116026960D01*
X112590568Y-115984896D01*
X112589763Y-115928124D01*
X112589399Y-115854022D01*
X112589314Y-115759965D01*
X112589314Y-115438419D01*
X112615965Y-115416839D01*
X112639678Y-115402069D01*
X112662692Y-115395259D01*
X112683698Y-115401141D01*
G36*
X112683698Y-115401141D02*
G01*
X112709419Y-115416839D01*
X112736070Y-115438419D01*
X112736070Y-116085876D01*
X112709419Y-116107456D01*
X112678059Y-116124931D01*
X112642258Y-116125767D01*
X112610820Y-116105274D01*
X112606944Y-116100608D01*
X112601478Y-116091141D01*
X112597271Y-116077459D01*
X112594159Y-116056940D01*
X112591979Y-116026960D01*
X112590568Y-115984896D01*
X112589763Y-115928124D01*
X112589399Y-115854022D01*
X112589314Y-115759965D01*
X112589314Y-115438419D01*
X112615965Y-115416839D01*
X112639678Y-115402069D01*
X112662692Y-115395259D01*
X112683698Y-115401141D01*
G37*
X119814429Y-115399655D02*
X119848583Y-115422968D01*
X119876292Y-115450677D01*
X119876292Y-115763729D01*
X119876251Y-115847759D01*
X119875993Y-115921981D01*
X119875322Y-115978733D01*
X119874044Y-116020704D01*
X119871965Y-116050581D01*
X119868891Y-116071053D01*
X119864626Y-116084806D01*
X119858976Y-116094529D01*
X119851747Y-116102909D01*
X119820283Y-116124373D01*
X119785118Y-116126139D01*
X119752114Y-116106459D01*
X119746808Y-116100590D01*
X119741358Y-116091506D01*
X119737192Y-116078165D01*
X119734138Y-116057949D01*
X119732024Y-116028241D01*
X119730678Y-115986424D01*
X119729930Y-115929881D01*
X119729606Y-115855994D01*
X119729537Y-115762148D01*
X119729576Y-115686486D01*
X119729831Y-115608577D01*
X119730475Y-115548567D01*
X119731679Y-115503840D01*
X119733616Y-115471777D01*
X119736456Y-115449763D01*
X119740371Y-115435179D01*
X119745534Y-115425410D01*
X119752114Y-115417837D01*
X119781298Y-115398815D01*
X119814429Y-115399655D01*
G36*
X119814429Y-115399655D02*
G01*
X119848583Y-115422968D01*
X119876292Y-115450677D01*
X119876292Y-115763729D01*
X119876251Y-115847759D01*
X119875993Y-115921981D01*
X119875322Y-115978733D01*
X119874044Y-116020704D01*
X119871965Y-116050581D01*
X119868891Y-116071053D01*
X119864626Y-116084806D01*
X119858976Y-116094529D01*
X119851747Y-116102909D01*
X119820283Y-116124373D01*
X119785118Y-116126139D01*
X119752114Y-116106459D01*
X119746808Y-116100590D01*
X119741358Y-116091506D01*
X119737192Y-116078165D01*
X119734138Y-116057949D01*
X119732024Y-116028241D01*
X119730678Y-115986424D01*
X119729930Y-115929881D01*
X119729606Y-115855994D01*
X119729537Y-115762148D01*
X119729576Y-115686486D01*
X119729831Y-115608577D01*
X119730475Y-115548567D01*
X119731679Y-115503840D01*
X119733616Y-115471777D01*
X119736456Y-115449763D01*
X119740371Y-115435179D01*
X119745534Y-115425410D01*
X119752114Y-115417837D01*
X119781298Y-115398815D01*
X119814429Y-115399655D01*
G37*
X119781012Y-108786581D02*
X119886536Y-108812436D01*
X119986560Y-108858841D01*
X120077934Y-108925803D01*
X120157505Y-109013328D01*
X120222120Y-109121426D01*
X120239443Y-109159506D01*
X120253477Y-109198103D01*
X120261352Y-109236689D01*
X120264803Y-109284415D01*
X120265568Y-109350433D01*
X120265105Y-109405381D01*
X120262319Y-109455880D01*
X120255487Y-109495280D01*
X120242904Y-109532628D01*
X120222864Y-109576973D01*
X120217066Y-109588791D01*
X120148545Y-109697001D01*
X120062365Y-109786033D01*
X119960972Y-109853797D01*
X119846811Y-109898206D01*
X119788234Y-109910598D01*
X119669399Y-109916397D01*
X119554300Y-109897634D01*
X119446312Y-109856232D01*
X119348809Y-109794115D01*
X119265168Y-109713207D01*
X119198763Y-109615432D01*
X119152969Y-109502714D01*
X119136214Y-109410471D01*
X119134705Y-109308677D01*
X119148332Y-109209660D01*
X119176445Y-109123892D01*
X119208930Y-109062573D01*
X119281247Y-108965288D01*
X119366978Y-108888507D01*
X119462973Y-108832238D01*
X119566079Y-108796490D01*
X119673142Y-108781268D01*
X119781012Y-108786581D01*
G36*
X119781012Y-108786581D02*
G01*
X119886536Y-108812436D01*
X119986560Y-108858841D01*
X120077934Y-108925803D01*
X120157505Y-109013328D01*
X120222120Y-109121426D01*
X120239443Y-109159506D01*
X120253477Y-109198103D01*
X120261352Y-109236689D01*
X120264803Y-109284415D01*
X120265568Y-109350433D01*
X120265105Y-109405381D01*
X120262319Y-109455880D01*
X120255487Y-109495280D01*
X120242904Y-109532628D01*
X120222864Y-109576973D01*
X120217066Y-109588791D01*
X120148545Y-109697001D01*
X120062365Y-109786033D01*
X119960972Y-109853797D01*
X119846811Y-109898206D01*
X119788234Y-109910598D01*
X119669399Y-109916397D01*
X119554300Y-109897634D01*
X119446312Y-109856232D01*
X119348809Y-109794115D01*
X119265168Y-109713207D01*
X119198763Y-109615432D01*
X119152969Y-109502714D01*
X119136214Y-109410471D01*
X119134705Y-109308677D01*
X119148332Y-109209660D01*
X119176445Y-109123892D01*
X119208930Y-109062573D01*
X119281247Y-108965288D01*
X119366978Y-108888507D01*
X119462973Y-108832238D01*
X119566079Y-108796490D01*
X119673142Y-108781268D01*
X119781012Y-108786581D01*
G37*
X111984059Y-115395260D02*
X112078182Y-115395350D01*
X112152697Y-115395690D01*
X112210103Y-115396431D01*
X112252903Y-115397727D01*
X112283596Y-115399729D01*
X112304683Y-115402588D01*
X112318665Y-115406458D01*
X112328042Y-115411490D01*
X112335314Y-115417837D01*
X112354120Y-115450554D01*
X112355567Y-115488131D01*
X112339209Y-115521370D01*
X112337849Y-115522823D01*
X112326646Y-115531184D01*
X112309544Y-115536739D01*
X112282374Y-115540032D01*
X112240970Y-115541610D01*
X112181165Y-115542014D01*
X112041803Y-115542014D01*
X112041803Y-115805781D01*
X112041728Y-115881609D01*
X112041320Y-115948275D01*
X112040338Y-115998059D01*
X112038542Y-116033976D01*
X112035691Y-116059042D01*
X112031545Y-116076273D01*
X112025863Y-116088684D01*
X112018406Y-116099292D01*
X112016116Y-116102098D01*
X111984938Y-116124740D01*
X111950558Y-116126304D01*
X111917626Y-116106459D01*
X111910647Y-116098383D01*
X111905175Y-116087785D01*
X111901155Y-116071941D01*
X111898364Y-116047965D01*
X111896580Y-116012966D01*
X111895581Y-115964056D01*
X111895144Y-115898346D01*
X111895048Y-115812948D01*
X111895048Y-115542014D01*
X111749112Y-115542014D01*
X111738012Y-115542013D01*
X111681494Y-115541788D01*
X111642650Y-115540649D01*
X111617257Y-115537849D01*
X111601096Y-115532642D01*
X111589944Y-115524281D01*
X111579581Y-115512018D01*
X111563733Y-115481330D01*
X111566835Y-115447550D01*
X111592479Y-115415014D01*
X111597421Y-115411297D01*
X111607630Y-115406461D01*
X111623056Y-115402698D01*
X111646178Y-115399875D01*
X111679475Y-115397862D01*
X111725429Y-115396525D01*
X111786520Y-115395734D01*
X111865227Y-115395355D01*
X111964032Y-115395259D01*
X111984059Y-115395260D01*
G36*
X111984059Y-115395260D02*
G01*
X112078182Y-115395350D01*
X112152697Y-115395690D01*
X112210103Y-115396431D01*
X112252903Y-115397727D01*
X112283596Y-115399729D01*
X112304683Y-115402588D01*
X112318665Y-115406458D01*
X112328042Y-115411490D01*
X112335314Y-115417837D01*
X112354120Y-115450554D01*
X112355567Y-115488131D01*
X112339209Y-115521370D01*
X112337849Y-115522823D01*
X112326646Y-115531184D01*
X112309544Y-115536739D01*
X112282374Y-115540032D01*
X112240970Y-115541610D01*
X112181165Y-115542014D01*
X112041803Y-115542014D01*
X112041803Y-115805781D01*
X112041728Y-115881609D01*
X112041320Y-115948275D01*
X112040338Y-115998059D01*
X112038542Y-116033976D01*
X112035691Y-116059042D01*
X112031545Y-116076273D01*
X112025863Y-116088684D01*
X112018406Y-116099292D01*
X112016116Y-116102098D01*
X111984938Y-116124740D01*
X111950558Y-116126304D01*
X111917626Y-116106459D01*
X111910647Y-116098383D01*
X111905175Y-116087785D01*
X111901155Y-116071941D01*
X111898364Y-116047965D01*
X111896580Y-116012966D01*
X111895581Y-115964056D01*
X111895144Y-115898346D01*
X111895048Y-115812948D01*
X111895048Y-115542014D01*
X111749112Y-115542014D01*
X111738012Y-115542013D01*
X111681494Y-115541788D01*
X111642650Y-115540649D01*
X111617257Y-115537849D01*
X111601096Y-115532642D01*
X111589944Y-115524281D01*
X111579581Y-115512018D01*
X111563733Y-115481330D01*
X111566835Y-115447550D01*
X111592479Y-115415014D01*
X111597421Y-115411297D01*
X111607630Y-115406461D01*
X111623056Y-115402698D01*
X111646178Y-115399875D01*
X111679475Y-115397862D01*
X111725429Y-115396525D01*
X111786520Y-115395734D01*
X111865227Y-115395355D01*
X111964032Y-115395259D01*
X111984059Y-115395260D01*
G37*
X111308026Y-115417837D02*
X111313658Y-115424027D01*
X111318748Y-115432233D01*
X111322835Y-115444009D01*
X111326013Y-115461468D01*
X111328379Y-115486722D01*
X111330030Y-115521882D01*
X111331061Y-115569061D01*
X111331569Y-115630369D01*
X111331651Y-115707919D01*
X111331401Y-115803823D01*
X111330917Y-115920192D01*
X111330849Y-115934367D01*
X111330263Y-115996129D01*
X111328940Y-116039812D01*
X111326395Y-116069193D01*
X111322140Y-116088047D01*
X111315688Y-116100151D01*
X111306554Y-116109281D01*
X111273096Y-116126698D01*
X111238148Y-116123796D01*
X111207245Y-116099292D01*
X111198236Y-116086089D01*
X111190784Y-116067553D01*
X111186416Y-116041525D01*
X111184361Y-116002979D01*
X111183848Y-115946892D01*
X111183848Y-115824237D01*
X110687137Y-115824237D01*
X110687137Y-115959063D01*
X110687064Y-115994854D01*
X110686301Y-116041184D01*
X110684125Y-116071718D01*
X110679828Y-116090749D01*
X110672704Y-116102566D01*
X110662047Y-116111463D01*
X110629796Y-116126533D01*
X110594509Y-116123865D01*
X110563778Y-116099292D01*
X110559123Y-116093037D01*
X110553187Y-116082513D01*
X110548656Y-116068583D01*
X110545340Y-116048509D01*
X110543051Y-116019552D01*
X110541600Y-115978972D01*
X110540797Y-115924032D01*
X110540454Y-115851991D01*
X110540381Y-115760112D01*
X110540381Y-115450677D01*
X110568090Y-115422968D01*
X110599469Y-115400725D01*
X110632698Y-115398036D01*
X110664559Y-115417837D01*
X110672845Y-115427607D01*
X110680257Y-115443499D01*
X110684594Y-115467467D01*
X110686630Y-115504340D01*
X110687137Y-115558948D01*
X110687137Y-115677481D01*
X111183848Y-115677481D01*
X111183848Y-115561968D01*
X111184286Y-115510270D01*
X111186250Y-115475746D01*
X111190766Y-115453170D01*
X111198859Y-115437318D01*
X111211557Y-115422968D01*
X111242935Y-115400725D01*
X111276164Y-115398036D01*
X111308026Y-115417837D01*
G36*
X111308026Y-115417837D02*
G01*
X111313658Y-115424027D01*
X111318748Y-115432233D01*
X111322835Y-115444009D01*
X111326013Y-115461468D01*
X111328379Y-115486722D01*
X111330030Y-115521882D01*
X111331061Y-115569061D01*
X111331569Y-115630369D01*
X111331651Y-115707919D01*
X111331401Y-115803823D01*
X111330917Y-115920192D01*
X111330849Y-115934367D01*
X111330263Y-115996129D01*
X111328940Y-116039812D01*
X111326395Y-116069193D01*
X111322140Y-116088047D01*
X111315688Y-116100151D01*
X111306554Y-116109281D01*
X111273096Y-116126698D01*
X111238148Y-116123796D01*
X111207245Y-116099292D01*
X111198236Y-116086089D01*
X111190784Y-116067553D01*
X111186416Y-116041525D01*
X111184361Y-116002979D01*
X111183848Y-115946892D01*
X111183848Y-115824237D01*
X110687137Y-115824237D01*
X110687137Y-115959063D01*
X110687064Y-115994854D01*
X110686301Y-116041184D01*
X110684125Y-116071718D01*
X110679828Y-116090749D01*
X110672704Y-116102566D01*
X110662047Y-116111463D01*
X110629796Y-116126533D01*
X110594509Y-116123865D01*
X110563778Y-116099292D01*
X110559123Y-116093037D01*
X110553187Y-116082513D01*
X110548656Y-116068583D01*
X110545340Y-116048509D01*
X110543051Y-116019552D01*
X110541600Y-115978972D01*
X110540797Y-115924032D01*
X110540454Y-115851991D01*
X110540381Y-115760112D01*
X110540381Y-115450677D01*
X110568090Y-115422968D01*
X110599469Y-115400725D01*
X110632698Y-115398036D01*
X110664559Y-115417837D01*
X110672845Y-115427607D01*
X110680257Y-115443499D01*
X110684594Y-115467467D01*
X110686630Y-115504340D01*
X110687137Y-115558948D01*
X110687137Y-115677481D01*
X111183848Y-115677481D01*
X111183848Y-115561968D01*
X111184286Y-115510270D01*
X111186250Y-115475746D01*
X111190766Y-115453170D01*
X111198859Y-115437318D01*
X111211557Y-115422968D01*
X111242935Y-115400725D01*
X111276164Y-115398036D01*
X111308026Y-115417837D01*
G37*
X116013425Y-116006588D02*
X116011455Y-116039367D01*
X116008527Y-116062287D01*
X116004450Y-116078089D01*
X115999035Y-116089511D01*
X115992095Y-116099292D01*
X115968698Y-116129037D01*
X115803006Y-116128443D01*
X115768210Y-116128145D01*
X115669727Y-116124714D01*
X115588765Y-116117031D01*
X115521671Y-116104474D01*
X115464788Y-116086419D01*
X115414461Y-116062244D01*
X115411102Y-116060327D01*
X115353290Y-116023609D01*
X115310936Y-115986643D01*
X115278120Y-115943158D01*
X115248920Y-115886881D01*
X115244638Y-115877265D01*
X115222061Y-115814079D01*
X115216326Y-115768525D01*
X115365571Y-115768525D01*
X115371184Y-115793253D01*
X115376910Y-115809131D01*
X115409840Y-115869039D01*
X115457178Y-115914792D01*
X115520944Y-115947928D01*
X115603153Y-115969982D01*
X115605947Y-115970484D01*
X115652232Y-115976447D01*
X115708628Y-115980675D01*
X115763566Y-115982281D01*
X115857448Y-115982281D01*
X115857448Y-115542014D01*
X115769959Y-115542462D01*
X115703039Y-115544938D01*
X115610641Y-115556190D01*
X115531326Y-115575729D01*
X115469352Y-115602703D01*
X115438412Y-115623432D01*
X115410292Y-115653198D01*
X115386952Y-115695626D01*
X115379825Y-115711592D01*
X115368001Y-115744094D01*
X115365571Y-115768525D01*
X115216326Y-115768525D01*
X115215089Y-115758701D01*
X115223691Y-115703675D01*
X115247833Y-115641543D01*
X115248629Y-115639850D01*
X115289080Y-115570428D01*
X115339765Y-115513830D01*
X115402490Y-115469262D01*
X115479066Y-115435933D01*
X115571301Y-115413053D01*
X115681004Y-115399828D01*
X115809983Y-115395467D01*
X115813555Y-115395462D01*
X115873575Y-115395602D01*
X115915506Y-115396638D01*
X115943620Y-115399232D01*
X115962189Y-115404045D01*
X115975486Y-115411736D01*
X115987783Y-115422968D01*
X116015492Y-115450677D01*
X116015492Y-115760112D01*
X116015467Y-115821718D01*
X116015242Y-115900503D01*
X116014624Y-115961213D01*
X116014067Y-115982281D01*
X116013425Y-116006588D01*
G36*
X116013425Y-116006588D02*
G01*
X116011455Y-116039367D01*
X116008527Y-116062287D01*
X116004450Y-116078089D01*
X115999035Y-116089511D01*
X115992095Y-116099292D01*
X115968698Y-116129037D01*
X115803006Y-116128443D01*
X115768210Y-116128145D01*
X115669727Y-116124714D01*
X115588765Y-116117031D01*
X115521671Y-116104474D01*
X115464788Y-116086419D01*
X115414461Y-116062244D01*
X115411102Y-116060327D01*
X115353290Y-116023609D01*
X115310936Y-115986643D01*
X115278120Y-115943158D01*
X115248920Y-115886881D01*
X115244638Y-115877265D01*
X115222061Y-115814079D01*
X115216326Y-115768525D01*
X115365571Y-115768525D01*
X115371184Y-115793253D01*
X115376910Y-115809131D01*
X115409840Y-115869039D01*
X115457178Y-115914792D01*
X115520944Y-115947928D01*
X115603153Y-115969982D01*
X115605947Y-115970484D01*
X115652232Y-115976447D01*
X115708628Y-115980675D01*
X115763566Y-115982281D01*
X115857448Y-115982281D01*
X115857448Y-115542014D01*
X115769959Y-115542462D01*
X115703039Y-115544938D01*
X115610641Y-115556190D01*
X115531326Y-115575729D01*
X115469352Y-115602703D01*
X115438412Y-115623432D01*
X115410292Y-115653198D01*
X115386952Y-115695626D01*
X115379825Y-115711592D01*
X115368001Y-115744094D01*
X115365571Y-115768525D01*
X115216326Y-115768525D01*
X115215089Y-115758701D01*
X115223691Y-115703675D01*
X115247833Y-115641543D01*
X115248629Y-115639850D01*
X115289080Y-115570428D01*
X115339765Y-115513830D01*
X115402490Y-115469262D01*
X115479066Y-115435933D01*
X115571301Y-115413053D01*
X115681004Y-115399828D01*
X115809983Y-115395467D01*
X115813555Y-115395462D01*
X115873575Y-115395602D01*
X115915506Y-115396638D01*
X115943620Y-115399232D01*
X115962189Y-115404045D01*
X115975486Y-115411736D01*
X115987783Y-115422968D01*
X116015492Y-115450677D01*
X116015492Y-115760112D01*
X116015467Y-115821718D01*
X116015242Y-115900503D01*
X116014624Y-115961213D01*
X116014067Y-115982281D01*
X116013425Y-116006588D01*
G37*
X123105109Y-115580619D02*
X123105162Y-115661233D01*
X123104914Y-115762148D01*
X123104875Y-115837809D01*
X123104620Y-115915718D01*
X123103976Y-115975728D01*
X123102772Y-116020456D01*
X123100835Y-116052518D01*
X123097995Y-116074532D01*
X123094080Y-116089116D01*
X123088918Y-116098886D01*
X123082337Y-116106459D01*
X123075369Y-116112693D01*
X123062371Y-116119993D01*
X123043223Y-116124746D01*
X123013820Y-116127484D01*
X122970054Y-116128737D01*
X122907820Y-116129037D01*
X122858874Y-116128661D01*
X122752014Y-116124233D01*
X122662786Y-116114145D01*
X122587988Y-116097557D01*
X122524417Y-116073627D01*
X122468871Y-116041513D01*
X122418146Y-116000374D01*
X122412158Y-115994522D01*
X122375291Y-115946013D01*
X122344191Y-115885205D01*
X122322709Y-115820961D01*
X122317428Y-115782218D01*
X122464645Y-115782218D01*
X122482927Y-115833153D01*
X122512597Y-115879070D01*
X122559294Y-115921479D01*
X122620684Y-115951282D01*
X122699830Y-115970418D01*
X122701320Y-115970656D01*
X122750291Y-115976448D01*
X122808985Y-115980588D01*
X122865026Y-115982196D01*
X122958159Y-115982281D01*
X122958159Y-115542014D01*
X122881959Y-115542000D01*
X122878931Y-115542009D01*
X122827811Y-115543974D01*
X122767708Y-115548699D01*
X122711000Y-115555227D01*
X122661042Y-115564523D01*
X122586290Y-115590792D01*
X122528781Y-115630091D01*
X122487280Y-115683125D01*
X122466063Y-115734392D01*
X122464645Y-115782218D01*
X122317428Y-115782218D01*
X122314692Y-115762148D01*
X122315971Y-115740931D01*
X122328283Y-115683515D01*
X122350812Y-115623605D01*
X122380042Y-115569555D01*
X122412459Y-115529724D01*
X122432000Y-115512702D01*
X122486712Y-115473514D01*
X122547015Y-115443385D01*
X122616211Y-115421424D01*
X122697603Y-115406742D01*
X122794492Y-115398451D01*
X122910181Y-115395659D01*
X122949663Y-115395258D01*
X122995374Y-115394845D01*
X123031175Y-115396649D01*
X123058266Y-115402931D01*
X123077848Y-115415951D01*
X123091122Y-115437970D01*
X123099290Y-115471247D01*
X123103552Y-115518043D01*
X123104149Y-115542014D01*
X123105109Y-115580619D01*
G36*
X123105109Y-115580619D02*
G01*
X123105162Y-115661233D01*
X123104914Y-115762148D01*
X123104875Y-115837809D01*
X123104620Y-115915718D01*
X123103976Y-115975728D01*
X123102772Y-116020456D01*
X123100835Y-116052518D01*
X123097995Y-116074532D01*
X123094080Y-116089116D01*
X123088918Y-116098886D01*
X123082337Y-116106459D01*
X123075369Y-116112693D01*
X123062371Y-116119993D01*
X123043223Y-116124746D01*
X123013820Y-116127484D01*
X122970054Y-116128737D01*
X122907820Y-116129037D01*
X122858874Y-116128661D01*
X122752014Y-116124233D01*
X122662786Y-116114145D01*
X122587988Y-116097557D01*
X122524417Y-116073627D01*
X122468871Y-116041513D01*
X122418146Y-116000374D01*
X122412158Y-115994522D01*
X122375291Y-115946013D01*
X122344191Y-115885205D01*
X122322709Y-115820961D01*
X122317428Y-115782218D01*
X122464645Y-115782218D01*
X122482927Y-115833153D01*
X122512597Y-115879070D01*
X122559294Y-115921479D01*
X122620684Y-115951282D01*
X122699830Y-115970418D01*
X122701320Y-115970656D01*
X122750291Y-115976448D01*
X122808985Y-115980588D01*
X122865026Y-115982196D01*
X122958159Y-115982281D01*
X122958159Y-115542014D01*
X122881959Y-115542000D01*
X122878931Y-115542009D01*
X122827811Y-115543974D01*
X122767708Y-115548699D01*
X122711000Y-115555227D01*
X122661042Y-115564523D01*
X122586290Y-115590792D01*
X122528781Y-115630091D01*
X122487280Y-115683125D01*
X122466063Y-115734392D01*
X122464645Y-115782218D01*
X122317428Y-115782218D01*
X122314692Y-115762148D01*
X122315971Y-115740931D01*
X122328283Y-115683515D01*
X122350812Y-115623605D01*
X122380042Y-115569555D01*
X122412459Y-115529724D01*
X122432000Y-115512702D01*
X122486712Y-115473514D01*
X122547015Y-115443385D01*
X122616211Y-115421424D01*
X122697603Y-115406742D01*
X122794492Y-115398451D01*
X122910181Y-115395659D01*
X122949663Y-115395258D01*
X122995374Y-115394845D01*
X123031175Y-115396649D01*
X123058266Y-115402931D01*
X123077848Y-115415951D01*
X123091122Y-115437970D01*
X123099290Y-115471247D01*
X123103552Y-115518043D01*
X123104149Y-115542014D01*
X123105109Y-115580619D01*
G37*
X118160185Y-115394084D02*
X118171593Y-115400221D01*
X118182142Y-115410883D01*
X118193428Y-115425003D01*
X118197881Y-115430964D01*
X118203880Y-115441460D01*
X118208459Y-115455285D01*
X118211811Y-115475190D01*
X118214125Y-115503924D01*
X118215593Y-115544237D01*
X118216405Y-115598879D01*
X118216752Y-115670599D01*
X118216826Y-115762148D01*
X118216803Y-115820678D01*
X118216584Y-115899765D01*
X118215975Y-115960708D01*
X118214784Y-116006254D01*
X118212821Y-116039155D01*
X118209895Y-116062160D01*
X118205815Y-116078018D01*
X118200389Y-116089478D01*
X118193428Y-116099292D01*
X118163000Y-116123685D01*
X118128057Y-116126564D01*
X118091076Y-116107474D01*
X118086892Y-116103999D01*
X118078716Y-116095471D01*
X118072656Y-116083920D01*
X118068273Y-116066088D01*
X118065131Y-116038716D01*
X118062794Y-115998546D01*
X118060823Y-115942320D01*
X118058781Y-115866781D01*
X118053137Y-115647650D01*
X117787848Y-115888291D01*
X117714014Y-115955067D01*
X117648834Y-116013183D01*
X117596640Y-116058141D01*
X117555565Y-116091063D01*
X117523747Y-116113071D01*
X117499318Y-116125286D01*
X117480416Y-116128831D01*
X117465175Y-116124828D01*
X117451731Y-116114399D01*
X117438219Y-116098666D01*
X117431974Y-116090183D01*
X117426342Y-116079605D01*
X117422131Y-116065447D01*
X117419179Y-116044995D01*
X117417324Y-116015534D01*
X117416405Y-115974353D01*
X117416260Y-115918736D01*
X117416727Y-115845971D01*
X117417644Y-115753343D01*
X117420959Y-115438391D01*
X117447610Y-115416825D01*
X117473675Y-115400633D01*
X117506533Y-115397862D01*
X117541064Y-115416815D01*
X117545376Y-115420400D01*
X117553508Y-115428929D01*
X117559537Y-115440521D01*
X117563898Y-115458427D01*
X117567026Y-115485898D01*
X117569355Y-115526186D01*
X117571321Y-115582543D01*
X117573359Y-115658221D01*
X117579003Y-115878070D01*
X117759626Y-115714276D01*
X117846364Y-115635643D01*
X117922135Y-115567250D01*
X117984272Y-115511900D01*
X118034370Y-115468530D01*
X118074027Y-115436073D01*
X118104840Y-115413465D01*
X118128406Y-115399640D01*
X118146322Y-115393535D01*
X118160185Y-115394084D01*
G36*
X118160185Y-115394084D02*
G01*
X118171593Y-115400221D01*
X118182142Y-115410883D01*
X118193428Y-115425003D01*
X118197881Y-115430964D01*
X118203880Y-115441460D01*
X118208459Y-115455285D01*
X118211811Y-115475190D01*
X118214125Y-115503924D01*
X118215593Y-115544237D01*
X118216405Y-115598879D01*
X118216752Y-115670599D01*
X118216826Y-115762148D01*
X118216803Y-115820678D01*
X118216584Y-115899765D01*
X118215975Y-115960708D01*
X118214784Y-116006254D01*
X118212821Y-116039155D01*
X118209895Y-116062160D01*
X118205815Y-116078018D01*
X118200389Y-116089478D01*
X118193428Y-116099292D01*
X118163000Y-116123685D01*
X118128057Y-116126564D01*
X118091076Y-116107474D01*
X118086892Y-116103999D01*
X118078716Y-116095471D01*
X118072656Y-116083920D01*
X118068273Y-116066088D01*
X118065131Y-116038716D01*
X118062794Y-115998546D01*
X118060823Y-115942320D01*
X118058781Y-115866781D01*
X118053137Y-115647650D01*
X117787848Y-115888291D01*
X117714014Y-115955067D01*
X117648834Y-116013183D01*
X117596640Y-116058141D01*
X117555565Y-116091063D01*
X117523747Y-116113071D01*
X117499318Y-116125286D01*
X117480416Y-116128831D01*
X117465175Y-116124828D01*
X117451731Y-116114399D01*
X117438219Y-116098666D01*
X117431974Y-116090183D01*
X117426342Y-116079605D01*
X117422131Y-116065447D01*
X117419179Y-116044995D01*
X117417324Y-116015534D01*
X117416405Y-115974353D01*
X117416260Y-115918736D01*
X117416727Y-115845971D01*
X117417644Y-115753343D01*
X117420959Y-115438391D01*
X117447610Y-115416825D01*
X117473675Y-115400633D01*
X117506533Y-115397862D01*
X117541064Y-115416815D01*
X117545376Y-115420400D01*
X117553508Y-115428929D01*
X117559537Y-115440521D01*
X117563898Y-115458427D01*
X117567026Y-115485898D01*
X117569355Y-115526186D01*
X117571321Y-115582543D01*
X117573359Y-115658221D01*
X117579003Y-115878070D01*
X117759626Y-115714276D01*
X117846364Y-115635643D01*
X117922135Y-115567250D01*
X117984272Y-115511900D01*
X118034370Y-115468530D01*
X118074027Y-115436073D01*
X118104840Y-115413465D01*
X118128406Y-115399640D01*
X118146322Y-115393535D01*
X118160185Y-115394084D01*
G37*
X118957442Y-115400371D02*
X119063449Y-115416686D01*
X119157261Y-115444737D01*
X119236057Y-115483644D01*
X119297011Y-115532526D01*
X119323081Y-115565387D01*
X119352589Y-115614586D01*
X119377860Y-115668444D01*
X119395510Y-115719611D01*
X119402150Y-115760736D01*
X119400590Y-115780451D01*
X119387649Y-115831784D01*
X119364486Y-115888310D01*
X119334594Y-115942227D01*
X119301465Y-115985731D01*
X119291269Y-115996079D01*
X119224184Y-116047854D01*
X119144058Y-116087746D01*
X119057848Y-116112148D01*
X119002884Y-116120260D01*
X118909431Y-116126865D01*
X118819650Y-116124778D01*
X118737161Y-116114532D01*
X118665578Y-116096662D01*
X118608520Y-116071700D01*
X118569603Y-116040180D01*
X118568228Y-116038204D01*
X118561140Y-116012978D01*
X118556901Y-115965727D01*
X118555492Y-115896263D01*
X118556352Y-115834030D01*
X118561072Y-115786648D01*
X118572762Y-115754545D01*
X118594531Y-115734992D01*
X118629490Y-115725262D01*
X118680748Y-115722625D01*
X118751415Y-115724353D01*
X118800035Y-115727365D01*
X118850231Y-115735558D01*
X118882725Y-115749611D01*
X118900184Y-115770846D01*
X118905275Y-115800586D01*
X118905169Y-115805128D01*
X118896467Y-115839922D01*
X118872457Y-115863339D01*
X118831192Y-115876539D01*
X118770723Y-115880681D01*
X118702248Y-115880681D01*
X118702248Y-115919033D01*
X118702298Y-115928168D01*
X118704519Y-115945419D01*
X118713786Y-115955713D01*
X118735167Y-115962651D01*
X118773728Y-115969833D01*
X118779202Y-115970767D01*
X118876152Y-115980670D01*
X118966144Y-115977751D01*
X119047052Y-115963021D01*
X119116751Y-115937491D01*
X119173116Y-115902170D01*
X119214021Y-115858071D01*
X119237343Y-115806204D01*
X119240955Y-115747580D01*
X119235437Y-115718686D01*
X119208753Y-115662796D01*
X119162565Y-115617137D01*
X119097583Y-115582300D01*
X119014521Y-115558882D01*
X118989847Y-115554433D01*
X118900518Y-115543934D01*
X118820711Y-115545163D01*
X118742618Y-115558098D01*
X118707475Y-115564888D01*
X118662037Y-115565905D01*
X118630722Y-115553374D01*
X118610569Y-115526587D01*
X118604185Y-115498340D01*
X118613671Y-115467116D01*
X118623000Y-115453691D01*
X118657235Y-115430159D01*
X118709857Y-115412287D01*
X118778373Y-115400791D01*
X118860292Y-115396384D01*
X118957442Y-115400371D01*
G36*
X118957442Y-115400371D02*
G01*
X119063449Y-115416686D01*
X119157261Y-115444737D01*
X119236057Y-115483644D01*
X119297011Y-115532526D01*
X119323081Y-115565387D01*
X119352589Y-115614586D01*
X119377860Y-115668444D01*
X119395510Y-115719611D01*
X119402150Y-115760736D01*
X119400590Y-115780451D01*
X119387649Y-115831784D01*
X119364486Y-115888310D01*
X119334594Y-115942227D01*
X119301465Y-115985731D01*
X119291269Y-115996079D01*
X119224184Y-116047854D01*
X119144058Y-116087746D01*
X119057848Y-116112148D01*
X119002884Y-116120260D01*
X118909431Y-116126865D01*
X118819650Y-116124778D01*
X118737161Y-116114532D01*
X118665578Y-116096662D01*
X118608520Y-116071700D01*
X118569603Y-116040180D01*
X118568228Y-116038204D01*
X118561140Y-116012978D01*
X118556901Y-115965727D01*
X118555492Y-115896263D01*
X118556352Y-115834030D01*
X118561072Y-115786648D01*
X118572762Y-115754545D01*
X118594531Y-115734992D01*
X118629490Y-115725262D01*
X118680748Y-115722625D01*
X118751415Y-115724353D01*
X118800035Y-115727365D01*
X118850231Y-115735558D01*
X118882725Y-115749611D01*
X118900184Y-115770846D01*
X118905275Y-115800586D01*
X118905169Y-115805128D01*
X118896467Y-115839922D01*
X118872457Y-115863339D01*
X118831192Y-115876539D01*
X118770723Y-115880681D01*
X118702248Y-115880681D01*
X118702248Y-115919033D01*
X118702298Y-115928168D01*
X118704519Y-115945419D01*
X118713786Y-115955713D01*
X118735167Y-115962651D01*
X118773728Y-115969833D01*
X118779202Y-115970767D01*
X118876152Y-115980670D01*
X118966144Y-115977751D01*
X119047052Y-115963021D01*
X119116751Y-115937491D01*
X119173116Y-115902170D01*
X119214021Y-115858071D01*
X119237343Y-115806204D01*
X119240955Y-115747580D01*
X119235437Y-115718686D01*
X119208753Y-115662796D01*
X119162565Y-115617137D01*
X119097583Y-115582300D01*
X119014521Y-115558882D01*
X118989847Y-115554433D01*
X118900518Y-115543934D01*
X118820711Y-115545163D01*
X118742618Y-115558098D01*
X118707475Y-115564888D01*
X118662037Y-115565905D01*
X118630722Y-115553374D01*
X118610569Y-115526587D01*
X118604185Y-115498340D01*
X118613671Y-115467116D01*
X118623000Y-115453691D01*
X118657235Y-115430159D01*
X118709857Y-115412287D01*
X118778373Y-115400791D01*
X118860292Y-115396384D01*
X118957442Y-115400371D01*
G37*
X117008095Y-115425003D02*
X117013044Y-115431687D01*
X117018888Y-115442258D01*
X117023349Y-115456345D01*
X117026613Y-115476670D01*
X117028866Y-115505957D01*
X117030294Y-115546929D01*
X117031084Y-115602309D01*
X117031421Y-115674820D01*
X117031492Y-115767186D01*
X117031463Y-115833103D01*
X117031231Y-115911420D01*
X117030611Y-115971688D01*
X117029418Y-116016585D01*
X117027471Y-116048794D01*
X117024586Y-116070992D01*
X117020580Y-116085861D01*
X117015271Y-116096081D01*
X117008475Y-116104330D01*
X117003960Y-116108987D01*
X116995730Y-116115474D01*
X116984370Y-116120386D01*
X116967102Y-116123941D01*
X116941147Y-116126359D01*
X116903728Y-116127859D01*
X116852065Y-116128659D01*
X116783381Y-116128979D01*
X116694898Y-116129037D01*
X116675223Y-116129030D01*
X116588198Y-116128764D01*
X116520546Y-116127998D01*
X116469591Y-116126584D01*
X116432659Y-116124372D01*
X116407075Y-116121214D01*
X116390163Y-116116961D01*
X116379249Y-116111463D01*
X116368756Y-116101477D01*
X116355495Y-116070360D01*
X116356678Y-116034472D01*
X116372842Y-116002925D01*
X116375031Y-116000649D01*
X116383719Y-115994381D01*
X116397061Y-115989715D01*
X116418044Y-115986419D01*
X116449655Y-115984260D01*
X116494882Y-115983006D01*
X116556712Y-115982423D01*
X116638131Y-115982281D01*
X116884737Y-115982281D01*
X116884737Y-115824237D01*
X116722298Y-115824237D01*
X116686630Y-115824156D01*
X116630860Y-115823359D01*
X116591722Y-115821354D01*
X116565268Y-115817713D01*
X116547551Y-115812004D01*
X116534621Y-115803799D01*
X116530978Y-115800615D01*
X116512570Y-115769640D01*
X116511936Y-115733304D01*
X116529475Y-115699685D01*
X116529537Y-115699616D01*
X116539208Y-115690990D01*
X116552501Y-115684934D01*
X116573209Y-115681003D01*
X116605120Y-115678748D01*
X116652026Y-115677723D01*
X116717716Y-115677481D01*
X116885863Y-115677481D01*
X116882478Y-115612570D01*
X116879092Y-115547659D01*
X116637015Y-115544606D01*
X116611999Y-115544278D01*
X116530379Y-115542798D01*
X116468060Y-115540414D01*
X116422446Y-115536419D01*
X116390944Y-115530105D01*
X116370959Y-115520766D01*
X116359896Y-115507695D01*
X116355161Y-115490184D01*
X116354159Y-115467527D01*
X116354165Y-115465162D01*
X116355319Y-115445131D01*
X116360116Y-115429338D01*
X116370924Y-115417282D01*
X116390109Y-115408459D01*
X116420037Y-115402367D01*
X116463075Y-115398503D01*
X116521591Y-115396366D01*
X116597949Y-115395452D01*
X116694518Y-115395259D01*
X116984698Y-115395259D01*
X117008095Y-115425003D01*
G36*
X117008095Y-115425003D02*
G01*
X117013044Y-115431687D01*
X117018888Y-115442258D01*
X117023349Y-115456345D01*
X117026613Y-115476670D01*
X117028866Y-115505957D01*
X117030294Y-115546929D01*
X117031084Y-115602309D01*
X117031421Y-115674820D01*
X117031492Y-115767186D01*
X117031463Y-115833103D01*
X117031231Y-115911420D01*
X117030611Y-115971688D01*
X117029418Y-116016585D01*
X117027471Y-116048794D01*
X117024586Y-116070992D01*
X117020580Y-116085861D01*
X117015271Y-116096081D01*
X117008475Y-116104330D01*
X117003960Y-116108987D01*
X116995730Y-116115474D01*
X116984370Y-116120386D01*
X116967102Y-116123941D01*
X116941147Y-116126359D01*
X116903728Y-116127859D01*
X116852065Y-116128659D01*
X116783381Y-116128979D01*
X116694898Y-116129037D01*
X116675223Y-116129030D01*
X116588198Y-116128764D01*
X116520546Y-116127998D01*
X116469591Y-116126584D01*
X116432659Y-116124372D01*
X116407075Y-116121214D01*
X116390163Y-116116961D01*
X116379249Y-116111463D01*
X116368756Y-116101477D01*
X116355495Y-116070360D01*
X116356678Y-116034472D01*
X116372842Y-116002925D01*
X116375031Y-116000649D01*
X116383719Y-115994381D01*
X116397061Y-115989715D01*
X116418044Y-115986419D01*
X116449655Y-115984260D01*
X116494882Y-115983006D01*
X116556712Y-115982423D01*
X116638131Y-115982281D01*
X116884737Y-115982281D01*
X116884737Y-115824237D01*
X116722298Y-115824237D01*
X116686630Y-115824156D01*
X116630860Y-115823359D01*
X116591722Y-115821354D01*
X116565268Y-115817713D01*
X116547551Y-115812004D01*
X116534621Y-115803799D01*
X116530978Y-115800615D01*
X116512570Y-115769640D01*
X116511936Y-115733304D01*
X116529475Y-115699685D01*
X116529537Y-115699616D01*
X116539208Y-115690990D01*
X116552501Y-115684934D01*
X116573209Y-115681003D01*
X116605120Y-115678748D01*
X116652026Y-115677723D01*
X116717716Y-115677481D01*
X116885863Y-115677481D01*
X116882478Y-115612570D01*
X116879092Y-115547659D01*
X116637015Y-115544606D01*
X116611999Y-115544278D01*
X116530379Y-115542798D01*
X116468060Y-115540414D01*
X116422446Y-115536419D01*
X116390944Y-115530105D01*
X116370959Y-115520766D01*
X116359896Y-115507695D01*
X116355161Y-115490184D01*
X116354159Y-115467527D01*
X116354165Y-115465162D01*
X116355319Y-115445131D01*
X116360116Y-115429338D01*
X116370924Y-115417282D01*
X116390109Y-115408459D01*
X116420037Y-115402367D01*
X116463075Y-115398503D01*
X116521591Y-115396366D01*
X116597949Y-115395452D01*
X116694518Y-115395259D01*
X116984698Y-115395259D01*
X117008095Y-115425003D01*
G37*
X121685026Y-115395275D02*
X121762123Y-115395467D01*
X121821069Y-115396052D01*
X121864656Y-115397243D01*
X121895675Y-115399256D01*
X121916917Y-115402304D01*
X121931174Y-115406601D01*
X121941237Y-115412364D01*
X121949898Y-115419804D01*
X121951683Y-115421485D01*
X121958927Y-115429024D01*
X121964569Y-115438042D01*
X121968809Y-115451176D01*
X121971848Y-115471064D01*
X121973886Y-115500343D01*
X121975122Y-115541650D01*
X121975757Y-115597623D01*
X121975992Y-115670899D01*
X121976026Y-115764115D01*
X121975989Y-115836905D01*
X121975740Y-115915081D01*
X121975104Y-115975295D01*
X121973907Y-116020174D01*
X121971976Y-116052344D01*
X121969138Y-116074431D01*
X121965219Y-116089062D01*
X121960047Y-116098862D01*
X121953448Y-116106459D01*
X121950114Y-116109636D01*
X121941592Y-116115746D01*
X121929590Y-116120421D01*
X121911379Y-116123851D01*
X121884232Y-116126228D01*
X121845421Y-116127744D01*
X121792216Y-116128590D01*
X121721890Y-116128957D01*
X121631714Y-116129037D01*
X121589606Y-116129025D01*
X121508459Y-116128843D01*
X121445967Y-116128290D01*
X121399401Y-116127174D01*
X121366033Y-116125305D01*
X121343136Y-116122490D01*
X121327980Y-116118538D01*
X121317838Y-116113258D01*
X121309981Y-116106459D01*
X121295255Y-116084859D01*
X121287403Y-116055659D01*
X121292902Y-116031752D01*
X121309981Y-116004859D01*
X121314960Y-116000251D01*
X121324735Y-115993964D01*
X121338851Y-115989338D01*
X121360346Y-115986122D01*
X121392260Y-115984062D01*
X121437634Y-115982904D01*
X121499505Y-115982394D01*
X121580914Y-115982281D01*
X121829270Y-115982281D01*
X121829270Y-115824237D01*
X121668093Y-115824237D01*
X121632275Y-115824091D01*
X121566651Y-115822368D01*
X121519410Y-115817933D01*
X121487675Y-115809829D01*
X121468569Y-115797098D01*
X121459215Y-115778784D01*
X121456737Y-115753930D01*
X121457534Y-115733674D01*
X121462786Y-115711848D01*
X121475580Y-115696496D01*
X121498920Y-115686501D01*
X121535809Y-115680745D01*
X121589251Y-115678111D01*
X121662250Y-115677481D01*
X121830397Y-115677481D01*
X121827011Y-115612570D01*
X121823626Y-115547659D01*
X121575909Y-115544610D01*
X121513318Y-115543731D01*
X121444857Y-115542287D01*
X121393953Y-115540356D01*
X121357700Y-115537706D01*
X121333193Y-115534102D01*
X121317527Y-115529313D01*
X121307798Y-115523105D01*
X121301783Y-115516702D01*
X121288774Y-115485020D01*
X121292335Y-115449334D01*
X121312110Y-115418276D01*
X121315361Y-115415353D01*
X121324341Y-115409002D01*
X121336445Y-115404149D01*
X121354451Y-115400595D01*
X121381139Y-115398138D01*
X121419289Y-115396577D01*
X121471678Y-115395710D01*
X121541086Y-115395338D01*
X121630293Y-115395259D01*
X121685026Y-115395275D01*
G36*
X121685026Y-115395275D02*
G01*
X121762123Y-115395467D01*
X121821069Y-115396052D01*
X121864656Y-115397243D01*
X121895675Y-115399256D01*
X121916917Y-115402304D01*
X121931174Y-115406601D01*
X121941237Y-115412364D01*
X121949898Y-115419804D01*
X121951683Y-115421485D01*
X121958927Y-115429024D01*
X121964569Y-115438042D01*
X121968809Y-115451176D01*
X121971848Y-115471064D01*
X121973886Y-115500343D01*
X121975122Y-115541650D01*
X121975757Y-115597623D01*
X121975992Y-115670899D01*
X121976026Y-115764115D01*
X121975989Y-115836905D01*
X121975740Y-115915081D01*
X121975104Y-115975295D01*
X121973907Y-116020174D01*
X121971976Y-116052344D01*
X121969138Y-116074431D01*
X121965219Y-116089062D01*
X121960047Y-116098862D01*
X121953448Y-116106459D01*
X121950114Y-116109636D01*
X121941592Y-116115746D01*
X121929590Y-116120421D01*
X121911379Y-116123851D01*
X121884232Y-116126228D01*
X121845421Y-116127744D01*
X121792216Y-116128590D01*
X121721890Y-116128957D01*
X121631714Y-116129037D01*
X121589606Y-116129025D01*
X121508459Y-116128843D01*
X121445967Y-116128290D01*
X121399401Y-116127174D01*
X121366033Y-116125305D01*
X121343136Y-116122490D01*
X121327980Y-116118538D01*
X121317838Y-116113258D01*
X121309981Y-116106459D01*
X121295255Y-116084859D01*
X121287403Y-116055659D01*
X121292902Y-116031752D01*
X121309981Y-116004859D01*
X121314960Y-116000251D01*
X121324735Y-115993964D01*
X121338851Y-115989338D01*
X121360346Y-115986122D01*
X121392260Y-115984062D01*
X121437634Y-115982904D01*
X121499505Y-115982394D01*
X121580914Y-115982281D01*
X121829270Y-115982281D01*
X121829270Y-115824237D01*
X121668093Y-115824237D01*
X121632275Y-115824091D01*
X121566651Y-115822368D01*
X121519410Y-115817933D01*
X121487675Y-115809829D01*
X121468569Y-115797098D01*
X121459215Y-115778784D01*
X121456737Y-115753930D01*
X121457534Y-115733674D01*
X121462786Y-115711848D01*
X121475580Y-115696496D01*
X121498920Y-115686501D01*
X121535809Y-115680745D01*
X121589251Y-115678111D01*
X121662250Y-115677481D01*
X121830397Y-115677481D01*
X121827011Y-115612570D01*
X121823626Y-115547659D01*
X121575909Y-115544610D01*
X121513318Y-115543731D01*
X121444857Y-115542287D01*
X121393953Y-115540356D01*
X121357700Y-115537706D01*
X121333193Y-115534102D01*
X121317527Y-115529313D01*
X121307798Y-115523105D01*
X121301783Y-115516702D01*
X121288774Y-115485020D01*
X121292335Y-115449334D01*
X121312110Y-115418276D01*
X121315361Y-115415353D01*
X121324341Y-115409002D01*
X121336445Y-115404149D01*
X121354451Y-115400595D01*
X121381139Y-115398138D01*
X121419289Y-115396577D01*
X121471678Y-115395710D01*
X121541086Y-115395338D01*
X121630293Y-115395259D01*
X121685026Y-115395275D01*
G37*
X113117994Y-115404670D02*
X113135955Y-115423181D01*
X113156555Y-115454263D01*
X113181387Y-115499948D01*
X113212042Y-115562270D01*
X113250112Y-115643263D01*
X113264746Y-115674646D01*
X113294495Y-115737830D01*
X113320589Y-115792436D01*
X113341584Y-115835482D01*
X113356031Y-115863985D01*
X113362483Y-115874962D01*
X113363842Y-115874381D01*
X113373834Y-115860434D01*
X113391125Y-115830896D01*
X113413722Y-115789279D01*
X113439630Y-115739095D01*
X113455603Y-115707606D01*
X113484553Y-115652253D01*
X113507041Y-115613236D01*
X113525257Y-115587758D01*
X113541388Y-115573023D01*
X113557622Y-115566234D01*
X113576149Y-115564592D01*
X113586652Y-115565067D01*
X113602768Y-115569274D01*
X113618082Y-115580138D01*
X113634680Y-115600411D01*
X113654649Y-115632846D01*
X113680075Y-115680196D01*
X113713044Y-115745214D01*
X113722777Y-115764469D01*
X113747235Y-115811138D01*
X113767470Y-115847301D01*
X113781603Y-115869689D01*
X113787752Y-115875037D01*
X113789119Y-115871765D01*
X113798494Y-115850856D01*
X113815354Y-115813917D01*
X113838271Y-115764066D01*
X113865812Y-115704418D01*
X113896547Y-115638090D01*
X113923262Y-115580869D01*
X113952885Y-115518880D01*
X113975956Y-115473141D01*
X113993935Y-115441100D01*
X114008282Y-115420206D01*
X114020458Y-115407910D01*
X114031924Y-115401658D01*
X114041334Y-115398766D01*
X114066439Y-115398617D01*
X114093582Y-115413960D01*
X114094882Y-115414945D01*
X114116966Y-115437580D01*
X114128015Y-115459805D01*
X114128061Y-115460445D01*
X114123520Y-115478107D01*
X114110656Y-115512673D01*
X114090897Y-115561018D01*
X114065673Y-115620017D01*
X114036411Y-115686547D01*
X114004542Y-115757483D01*
X113971493Y-115829699D01*
X113938693Y-115900072D01*
X113907572Y-115965477D01*
X113879557Y-116022789D01*
X113856078Y-116068884D01*
X113838564Y-116100638D01*
X113828443Y-116114925D01*
X113794035Y-116128294D01*
X113752338Y-116121933D01*
X113746973Y-116117236D01*
X113731144Y-116095085D01*
X113708942Y-116058324D01*
X113682525Y-116010607D01*
X113654052Y-115955585D01*
X113574278Y-115796342D01*
X113501091Y-115942934D01*
X113491395Y-115962224D01*
X113464417Y-116014572D01*
X113440388Y-116059362D01*
X113421624Y-116092346D01*
X113410438Y-116109281D01*
X113409292Y-116110524D01*
X113381171Y-116125811D01*
X113346109Y-116127494D01*
X113315068Y-116114925D01*
X113312642Y-116112076D01*
X113300382Y-116091451D01*
X113280644Y-116053900D01*
X113254740Y-116002072D01*
X113223977Y-115938615D01*
X113189667Y-115866177D01*
X113153117Y-115787408D01*
X113132877Y-115743285D01*
X113096104Y-115662557D01*
X113067647Y-115598879D01*
X113046623Y-115549944D01*
X113032146Y-115513449D01*
X113023331Y-115487087D01*
X113019296Y-115468553D01*
X113019154Y-115455544D01*
X113022022Y-115445753D01*
X113036679Y-115424870D01*
X113063282Y-115404569D01*
X113064037Y-115404227D01*
X113083627Y-115397226D01*
X113101082Y-115396696D01*
X113117994Y-115404670D01*
G36*
X113117994Y-115404670D02*
G01*
X113135955Y-115423181D01*
X113156555Y-115454263D01*
X113181387Y-115499948D01*
X113212042Y-115562270D01*
X113250112Y-115643263D01*
X113264746Y-115674646D01*
X113294495Y-115737830D01*
X113320589Y-115792436D01*
X113341584Y-115835482D01*
X113356031Y-115863985D01*
X113362483Y-115874962D01*
X113363842Y-115874381D01*
X113373834Y-115860434D01*
X113391125Y-115830896D01*
X113413722Y-115789279D01*
X113439630Y-115739095D01*
X113455603Y-115707606D01*
X113484553Y-115652253D01*
X113507041Y-115613236D01*
X113525257Y-115587758D01*
X113541388Y-115573023D01*
X113557622Y-115566234D01*
X113576149Y-115564592D01*
X113586652Y-115565067D01*
X113602768Y-115569274D01*
X113618082Y-115580138D01*
X113634680Y-115600411D01*
X113654649Y-115632846D01*
X113680075Y-115680196D01*
X113713044Y-115745214D01*
X113722777Y-115764469D01*
X113747235Y-115811138D01*
X113767470Y-115847301D01*
X113781603Y-115869689D01*
X113787752Y-115875037D01*
X113789119Y-115871765D01*
X113798494Y-115850856D01*
X113815354Y-115813917D01*
X113838271Y-115764066D01*
X113865812Y-115704418D01*
X113896547Y-115638090D01*
X113923262Y-115580869D01*
X113952885Y-115518880D01*
X113975956Y-115473141D01*
X113993935Y-115441100D01*
X114008282Y-115420206D01*
X114020458Y-115407910D01*
X114031924Y-115401658D01*
X114041334Y-115398766D01*
X114066439Y-115398617D01*
X114093582Y-115413960D01*
X114094882Y-115414945D01*
X114116966Y-115437580D01*
X114128015Y-115459805D01*
X114128061Y-115460445D01*
X114123520Y-115478107D01*
X114110656Y-115512673D01*
X114090897Y-115561018D01*
X114065673Y-115620017D01*
X114036411Y-115686547D01*
X114004542Y-115757483D01*
X113971493Y-115829699D01*
X113938693Y-115900072D01*
X113907572Y-115965477D01*
X113879557Y-116022789D01*
X113856078Y-116068884D01*
X113838564Y-116100638D01*
X113828443Y-116114925D01*
X113794035Y-116128294D01*
X113752338Y-116121933D01*
X113746973Y-116117236D01*
X113731144Y-116095085D01*
X113708942Y-116058324D01*
X113682525Y-116010607D01*
X113654052Y-115955585D01*
X113574278Y-115796342D01*
X113501091Y-115942934D01*
X113491395Y-115962224D01*
X113464417Y-116014572D01*
X113440388Y-116059362D01*
X113421624Y-116092346D01*
X113410438Y-116109281D01*
X113409292Y-116110524D01*
X113381171Y-116125811D01*
X113346109Y-116127494D01*
X113315068Y-116114925D01*
X113312642Y-116112076D01*
X113300382Y-116091451D01*
X113280644Y-116053900D01*
X113254740Y-116002072D01*
X113223977Y-115938615D01*
X113189667Y-115866177D01*
X113153117Y-115787408D01*
X113132877Y-115743285D01*
X113096104Y-115662557D01*
X113067647Y-115598879D01*
X113046623Y-115549944D01*
X113032146Y-115513449D01*
X113023331Y-115487087D01*
X113019296Y-115468553D01*
X113019154Y-115455544D01*
X113022022Y-115445753D01*
X113036679Y-115424870D01*
X113063282Y-115404569D01*
X113064037Y-115404227D01*
X113083627Y-115397226D01*
X113101082Y-115396696D01*
X113117994Y-115404670D01*
G37*
X120669145Y-115396128D02*
X120735392Y-115401558D01*
X120790692Y-115411156D01*
X120841575Y-115426017D01*
X120912887Y-115459150D01*
X120964044Y-115501832D01*
X120994867Y-115553897D01*
X121005181Y-115615175D01*
X121004244Y-115646424D01*
X120998452Y-115671221D01*
X120983645Y-115692891D01*
X120955672Y-115720241D01*
X120947694Y-115727570D01*
X120923984Y-115748473D01*
X120901590Y-115765443D01*
X120877557Y-115779397D01*
X120848929Y-115791248D01*
X120812752Y-115801912D01*
X120766072Y-115812303D01*
X120705933Y-115823338D01*
X120629382Y-115835930D01*
X120533463Y-115850996D01*
X120515100Y-115854030D01*
X120452770Y-115867650D01*
X120407552Y-115883384D01*
X120381268Y-115900455D01*
X120375739Y-115918089D01*
X120378360Y-115922360D01*
X120396292Y-115937425D01*
X120424418Y-115954059D01*
X120437218Y-115960049D01*
X120458516Y-115967242D01*
X120484902Y-115972019D01*
X120520746Y-115974838D01*
X120570420Y-115976156D01*
X120638292Y-115976429D01*
X120656077Y-115976356D01*
X120723698Y-115975245D01*
X120788637Y-115973020D01*
X120844262Y-115969954D01*
X120883943Y-115966319D01*
X120919454Y-115962251D01*
X120948707Y-115961468D01*
X120967607Y-115966068D01*
X120982721Y-115976743D01*
X120986377Y-115980336D01*
X121002719Y-116012110D01*
X121001399Y-116047764D01*
X120982442Y-116078382D01*
X120962072Y-116089988D01*
X120926088Y-116102683D01*
X120883664Y-116112733D01*
X120880214Y-116113332D01*
X120837544Y-116118548D01*
X120780158Y-116122922D01*
X120715141Y-116126010D01*
X120649581Y-116127369D01*
X120633349Y-116127410D01*
X120535036Y-116124933D01*
X120454984Y-116116927D01*
X120389805Y-116102395D01*
X120336109Y-116080341D01*
X120290508Y-116049768D01*
X120249615Y-116009678D01*
X120229494Y-115983451D01*
X120217868Y-115953904D01*
X120214959Y-115914187D01*
X120215100Y-115902218D01*
X120218973Y-115869537D01*
X120231357Y-115843011D01*
X120256522Y-115812163D01*
X120277734Y-115790023D01*
X120304130Y-115767477D01*
X120333847Y-115749109D01*
X120370077Y-115733853D01*
X120416009Y-115720641D01*
X120474836Y-115708406D01*
X120549748Y-115696081D01*
X120643937Y-115682598D01*
X120689249Y-115675588D01*
X120757203Y-115661029D01*
X120806339Y-115644529D01*
X120835906Y-115626631D01*
X120845156Y-115607877D01*
X120833340Y-115588807D01*
X120799708Y-115569963D01*
X120796662Y-115568749D01*
X120750303Y-115556671D01*
X120687653Y-115548471D01*
X120614219Y-115544311D01*
X120535509Y-115544353D01*
X120457031Y-115548761D01*
X120384292Y-115557697D01*
X120380365Y-115558346D01*
X120331549Y-115566053D01*
X120299297Y-115569665D01*
X120278300Y-115569068D01*
X120263246Y-115564146D01*
X120248826Y-115554788D01*
X120247656Y-115553917D01*
X120223139Y-115523543D01*
X120218346Y-115488042D01*
X120234152Y-115453461D01*
X120238698Y-115449005D01*
X120268312Y-115433865D01*
X120315294Y-115420742D01*
X120375598Y-115409942D01*
X120445180Y-115401773D01*
X120519995Y-115396543D01*
X120595998Y-115394559D01*
X120669145Y-115396128D01*
G36*
X120669145Y-115396128D02*
G01*
X120735392Y-115401558D01*
X120790692Y-115411156D01*
X120841575Y-115426017D01*
X120912887Y-115459150D01*
X120964044Y-115501832D01*
X120994867Y-115553897D01*
X121005181Y-115615175D01*
X121004244Y-115646424D01*
X120998452Y-115671221D01*
X120983645Y-115692891D01*
X120955672Y-115720241D01*
X120947694Y-115727570D01*
X120923984Y-115748473D01*
X120901590Y-115765443D01*
X120877557Y-115779397D01*
X120848929Y-115791248D01*
X120812752Y-115801912D01*
X120766072Y-115812303D01*
X120705933Y-115823338D01*
X120629382Y-115835930D01*
X120533463Y-115850996D01*
X120515100Y-115854030D01*
X120452770Y-115867650D01*
X120407552Y-115883384D01*
X120381268Y-115900455D01*
X120375739Y-115918089D01*
X120378360Y-115922360D01*
X120396292Y-115937425D01*
X120424418Y-115954059D01*
X120437218Y-115960049D01*
X120458516Y-115967242D01*
X120484902Y-115972019D01*
X120520746Y-115974838D01*
X120570420Y-115976156D01*
X120638292Y-115976429D01*
X120656077Y-115976356D01*
X120723698Y-115975245D01*
X120788637Y-115973020D01*
X120844262Y-115969954D01*
X120883943Y-115966319D01*
X120919454Y-115962251D01*
X120948707Y-115961468D01*
X120967607Y-115966068D01*
X120982721Y-115976743D01*
X120986377Y-115980336D01*
X121002719Y-116012110D01*
X121001399Y-116047764D01*
X120982442Y-116078382D01*
X120962072Y-116089988D01*
X120926088Y-116102683D01*
X120883664Y-116112733D01*
X120880214Y-116113332D01*
X120837544Y-116118548D01*
X120780158Y-116122922D01*
X120715141Y-116126010D01*
X120649581Y-116127369D01*
X120633349Y-116127410D01*
X120535036Y-116124933D01*
X120454984Y-116116927D01*
X120389805Y-116102395D01*
X120336109Y-116080341D01*
X120290508Y-116049768D01*
X120249615Y-116009678D01*
X120229494Y-115983451D01*
X120217868Y-115953904D01*
X120214959Y-115914187D01*
X120215100Y-115902218D01*
X120218973Y-115869537D01*
X120231357Y-115843011D01*
X120256522Y-115812163D01*
X120277734Y-115790023D01*
X120304130Y-115767477D01*
X120333847Y-115749109D01*
X120370077Y-115733853D01*
X120416009Y-115720641D01*
X120474836Y-115708406D01*
X120549748Y-115696081D01*
X120643937Y-115682598D01*
X120689249Y-115675588D01*
X120757203Y-115661029D01*
X120806339Y-115644529D01*
X120835906Y-115626631D01*
X120845156Y-115607877D01*
X120833340Y-115588807D01*
X120799708Y-115569963D01*
X120796662Y-115568749D01*
X120750303Y-115556671D01*
X120687653Y-115548471D01*
X120614219Y-115544311D01*
X120535509Y-115544353D01*
X120457031Y-115548761D01*
X120384292Y-115557697D01*
X120380365Y-115558346D01*
X120331549Y-115566053D01*
X120299297Y-115569665D01*
X120278300Y-115569068D01*
X120263246Y-115564146D01*
X120248826Y-115554788D01*
X120247656Y-115553917D01*
X120223139Y-115523543D01*
X120218346Y-115488042D01*
X120234152Y-115453461D01*
X120238698Y-115449005D01*
X120268312Y-115433865D01*
X120315294Y-115420742D01*
X120375598Y-115409942D01*
X120445180Y-115401773D01*
X120519995Y-115396543D01*
X120595998Y-115394559D01*
X120669145Y-115396128D01*
G37*
X116668847Y-109918078D02*
X116853348Y-109935015D01*
X117024749Y-109969174D01*
X117189427Y-110021991D01*
X117353756Y-110094905D01*
X117516424Y-110188001D01*
X117690999Y-110314914D01*
X117852888Y-110461650D01*
X117998528Y-110624576D01*
X118124352Y-110800059D01*
X118226797Y-110984468D01*
X118236096Y-111004196D01*
X118313973Y-111194613D01*
X118373148Y-111392477D01*
X118414387Y-111601570D01*
X118438452Y-111825670D01*
X118446111Y-112068559D01*
X118436799Y-112319643D01*
X118407244Y-112566912D01*
X118356987Y-112798383D01*
X118285577Y-113015699D01*
X118192566Y-113220502D01*
X118077504Y-113414433D01*
X117969422Y-113562594D01*
X117820184Y-113729300D01*
X117657521Y-113872089D01*
X117481505Y-113990914D01*
X117292207Y-114085729D01*
X117089697Y-114156487D01*
X116874048Y-114203142D01*
X116871587Y-114203505D01*
X116830058Y-114207149D01*
X116767388Y-114209852D01*
X116689373Y-114211487D01*
X116601808Y-114211930D01*
X116510487Y-114211052D01*
X116446484Y-114209767D01*
X116351523Y-114206790D01*
X116275428Y-114202528D01*
X116212712Y-114196526D01*
X116157885Y-114188329D01*
X116105460Y-114177482D01*
X116046477Y-114163465D01*
X115984940Y-114147503D01*
X115929286Y-114130758D01*
X115874463Y-114111268D01*
X115815422Y-114087073D01*
X115747111Y-114056210D01*
X115664478Y-114016719D01*
X115562473Y-113966639D01*
X115280352Y-113827215D01*
X115506313Y-113456067D01*
X115535896Y-113407490D01*
X115589043Y-113320289D01*
X115636614Y-113242331D01*
X115676868Y-113176458D01*
X115708068Y-113125516D01*
X115728476Y-113092347D01*
X115736352Y-113079795D01*
X115738542Y-113080170D01*
X115756188Y-113092454D01*
X115787189Y-113117947D01*
X115826647Y-113152694D01*
X115896920Y-113212729D01*
X116022371Y-113301506D01*
X116144089Y-113363394D01*
X116232045Y-113394300D01*
X116380817Y-113425885D01*
X116526989Y-113431484D01*
X116668443Y-113411477D01*
X116803058Y-113366246D01*
X116928714Y-113296173D01*
X117043293Y-113201639D01*
X117107049Y-113132011D01*
X117196867Y-113003224D01*
X117270567Y-112853773D01*
X117328501Y-112682892D01*
X117371021Y-112489817D01*
X117372951Y-112477831D01*
X117381863Y-112400143D01*
X117388497Y-112303617D01*
X117392800Y-112194849D01*
X117394719Y-112080434D01*
X117394198Y-111966968D01*
X117391185Y-111861046D01*
X117385626Y-111769263D01*
X117377467Y-111698217D01*
X117346194Y-111537280D01*
X117293574Y-111349286D01*
X117227395Y-111184700D01*
X117147747Y-111043649D01*
X117054717Y-110926260D01*
X116948394Y-110832663D01*
X116828867Y-110762982D01*
X116696224Y-110717347D01*
X116666795Y-110711683D01*
X116593044Y-110704288D01*
X116506856Y-110701874D01*
X116417884Y-110704308D01*
X116335786Y-110711460D01*
X116270217Y-110723195D01*
X116160986Y-110760561D01*
X116034227Y-110828778D01*
X115921358Y-110918550D01*
X115901437Y-110937461D01*
X115865340Y-110970918D01*
X115839829Y-110993438D01*
X115829464Y-111000928D01*
X115826913Y-110997346D01*
X115811206Y-110974723D01*
X115782832Y-110933647D01*
X115743664Y-110876836D01*
X115695578Y-110807012D01*
X115640448Y-110726893D01*
X115580149Y-110639201D01*
X115333514Y-110280402D01*
X115388611Y-110263895D01*
X115394360Y-110262024D01*
X115431785Y-110247166D01*
X115485744Y-110223208D01*
X115549902Y-110193031D01*
X115617929Y-110159517D01*
X115647572Y-110144700D01*
X115812176Y-110068201D01*
X115963890Y-110009045D01*
X116108548Y-109965718D01*
X116251986Y-109936707D01*
X116400038Y-109920499D01*
X116558541Y-109915580D01*
X116668847Y-109918078D01*
G36*
X116668847Y-109918078D02*
G01*
X116853348Y-109935015D01*
X117024749Y-109969174D01*
X117189427Y-110021991D01*
X117353756Y-110094905D01*
X117516424Y-110188001D01*
X117690999Y-110314914D01*
X117852888Y-110461650D01*
X117998528Y-110624576D01*
X118124352Y-110800059D01*
X118226797Y-110984468D01*
X118236096Y-111004196D01*
X118313973Y-111194613D01*
X118373148Y-111392477D01*
X118414387Y-111601570D01*
X118438452Y-111825670D01*
X118446111Y-112068559D01*
X118436799Y-112319643D01*
X118407244Y-112566912D01*
X118356987Y-112798383D01*
X118285577Y-113015699D01*
X118192566Y-113220502D01*
X118077504Y-113414433D01*
X117969422Y-113562594D01*
X117820184Y-113729300D01*
X117657521Y-113872089D01*
X117481505Y-113990914D01*
X117292207Y-114085729D01*
X117089697Y-114156487D01*
X116874048Y-114203142D01*
X116871587Y-114203505D01*
X116830058Y-114207149D01*
X116767388Y-114209852D01*
X116689373Y-114211487D01*
X116601808Y-114211930D01*
X116510487Y-114211052D01*
X116446484Y-114209767D01*
X116351523Y-114206790D01*
X116275428Y-114202528D01*
X116212712Y-114196526D01*
X116157885Y-114188329D01*
X116105460Y-114177482D01*
X116046477Y-114163465D01*
X115984940Y-114147503D01*
X115929286Y-114130758D01*
X115874463Y-114111268D01*
X115815422Y-114087073D01*
X115747111Y-114056210D01*
X115664478Y-114016719D01*
X115562473Y-113966639D01*
X115280352Y-113827215D01*
X115506313Y-113456067D01*
X115535896Y-113407490D01*
X115589043Y-113320289D01*
X115636614Y-113242331D01*
X115676868Y-113176458D01*
X115708068Y-113125516D01*
X115728476Y-113092347D01*
X115736352Y-113079795D01*
X115738542Y-113080170D01*
X115756188Y-113092454D01*
X115787189Y-113117947D01*
X115826647Y-113152694D01*
X115896920Y-113212729D01*
X116022371Y-113301506D01*
X116144089Y-113363394D01*
X116232045Y-113394300D01*
X116380817Y-113425885D01*
X116526989Y-113431484D01*
X116668443Y-113411477D01*
X116803058Y-113366246D01*
X116928714Y-113296173D01*
X117043293Y-113201639D01*
X117107049Y-113132011D01*
X117196867Y-113003224D01*
X117270567Y-112853773D01*
X117328501Y-112682892D01*
X117371021Y-112489817D01*
X117372951Y-112477831D01*
X117381863Y-112400143D01*
X117388497Y-112303617D01*
X117392800Y-112194849D01*
X117394719Y-112080434D01*
X117394198Y-111966968D01*
X117391185Y-111861046D01*
X117385626Y-111769263D01*
X117377467Y-111698217D01*
X117346194Y-111537280D01*
X117293574Y-111349286D01*
X117227395Y-111184700D01*
X117147747Y-111043649D01*
X117054717Y-110926260D01*
X116948394Y-110832663D01*
X116828867Y-110762982D01*
X116696224Y-110717347D01*
X116666795Y-110711683D01*
X116593044Y-110704288D01*
X116506856Y-110701874D01*
X116417884Y-110704308D01*
X116335786Y-110711460D01*
X116270217Y-110723195D01*
X116160986Y-110760561D01*
X116034227Y-110828778D01*
X115921358Y-110918550D01*
X115901437Y-110937461D01*
X115865340Y-110970918D01*
X115839829Y-110993438D01*
X115829464Y-111000928D01*
X115826913Y-110997346D01*
X115811206Y-110974723D01*
X115782832Y-110933647D01*
X115743664Y-110876836D01*
X115695578Y-110807012D01*
X115640448Y-110726893D01*
X115580149Y-110639201D01*
X115333514Y-110280402D01*
X115388611Y-110263895D01*
X115394360Y-110262024D01*
X115431785Y-110247166D01*
X115485744Y-110223208D01*
X115549902Y-110193031D01*
X115617929Y-110159517D01*
X115647572Y-110144700D01*
X115812176Y-110068201D01*
X115963890Y-110009045D01*
X116108548Y-109965718D01*
X116251986Y-109936707D01*
X116400038Y-109920499D01*
X116558541Y-109915580D01*
X116668847Y-109918078D01*
G37*
X112183755Y-112779001D02*
X112180842Y-112906057D01*
X112172512Y-113018109D01*
X112158120Y-113121252D01*
X112137021Y-113221581D01*
X112108570Y-113325190D01*
X112065428Y-113449033D01*
X111986190Y-113616216D01*
X111888993Y-113765961D01*
X111775325Y-113896852D01*
X111646672Y-114007474D01*
X111504521Y-114096412D01*
X111350359Y-114162250D01*
X111185674Y-114203574D01*
X111183692Y-114203906D01*
X111063337Y-114215486D01*
X110931099Y-114213941D01*
X110796404Y-114200222D01*
X110668684Y-114175283D01*
X110557366Y-114140077D01*
X110509851Y-114118653D01*
X110447969Y-114086090D01*
X110384380Y-114048846D01*
X110325721Y-114011021D01*
X110278626Y-113976714D01*
X110249730Y-113950024D01*
X110243097Y-113942696D01*
X110235189Y-113940135D01*
X110229903Y-113952851D01*
X110226008Y-113984899D01*
X110222271Y-114040331D01*
X110215406Y-114155838D01*
X109689569Y-114159434D01*
X109163732Y-114163031D01*
X109200116Y-114100946D01*
X109202285Y-114097276D01*
X109212865Y-114080044D01*
X109222463Y-114064693D01*
X109231131Y-114049889D01*
X109238920Y-114034299D01*
X109245882Y-114016589D01*
X109252069Y-113995424D01*
X109257531Y-113969473D01*
X109262322Y-113937400D01*
X109266492Y-113897872D01*
X109270094Y-113849557D01*
X109273178Y-113791119D01*
X109275797Y-113721226D01*
X109278002Y-113638544D01*
X109279844Y-113541739D01*
X109281376Y-113429477D01*
X109282649Y-113300425D01*
X109283715Y-113153250D01*
X109284625Y-112986618D01*
X109285431Y-112799194D01*
X109286185Y-112589646D01*
X109286938Y-112356640D01*
X109287742Y-112098842D01*
X109288451Y-111876982D01*
X110284054Y-111876982D01*
X110284054Y-113304205D01*
X110352703Y-113349233D01*
X110379103Y-113365453D01*
X110439552Y-113397857D01*
X110496865Y-113423661D01*
X110521965Y-113432398D01*
X110601831Y-113449841D01*
X110702811Y-113458748D01*
X110754159Y-113460601D01*
X110801823Y-113460179D01*
X110837304Y-113455419D01*
X110869129Y-113445014D01*
X110905823Y-113427659D01*
X110976342Y-113381169D01*
X111037435Y-113315406D01*
X111086337Y-113230658D01*
X111123515Y-113125597D01*
X111149432Y-112998895D01*
X111164556Y-112849222D01*
X111169350Y-112675252D01*
X111169117Y-112635700D01*
X111162225Y-112452444D01*
X111145488Y-112292985D01*
X111118501Y-112155643D01*
X111080855Y-112038734D01*
X111032144Y-111940577D01*
X110971961Y-111859488D01*
X110946993Y-111834740D01*
X110869613Y-111783181D01*
X110778776Y-111751807D01*
X110678419Y-111740795D01*
X110572475Y-111750324D01*
X110464879Y-111780572D01*
X110359568Y-111831718D01*
X110284054Y-111876982D01*
X109288451Y-111876982D01*
X109288649Y-111814919D01*
X109295514Y-109721135D01*
X109841271Y-109717545D01*
X109880959Y-109717304D01*
X109997730Y-109716825D01*
X110104535Y-109716727D01*
X110198458Y-109716992D01*
X110276584Y-109717599D01*
X110335998Y-109718528D01*
X110373784Y-109719759D01*
X110387027Y-109721272D01*
X110385333Y-109726069D01*
X110372694Y-109748810D01*
X110351760Y-109781881D01*
X110349672Y-109785043D01*
X110333442Y-109810577D01*
X110319833Y-109835421D01*
X110308616Y-109862134D01*
X110299559Y-109893274D01*
X110292431Y-109931402D01*
X110287003Y-109979075D01*
X110283043Y-110038853D01*
X110280320Y-110113295D01*
X110278605Y-110204960D01*
X110277665Y-110316408D01*
X110277270Y-110450196D01*
X110277189Y-110608885D01*
X110277333Y-110732781D01*
X110277774Y-110854419D01*
X110278479Y-110964711D01*
X110279417Y-111060973D01*
X110280557Y-111140519D01*
X110281865Y-111200663D01*
X110283310Y-111238718D01*
X110284859Y-111252000D01*
X110289858Y-111249939D01*
X110311831Y-111235422D01*
X110343211Y-111211581D01*
X110388704Y-111179519D01*
X110474178Y-111132279D01*
X110571872Y-111090140D01*
X110672666Y-111057370D01*
X110757352Y-111040660D01*
X110862823Y-111030009D01*
X110976971Y-111026318D01*
X111090989Y-111029594D01*
X111196067Y-111039840D01*
X111283396Y-111057060D01*
X111372317Y-111086068D01*
X111520658Y-111156389D01*
X111658010Y-111249877D01*
X111781841Y-111364377D01*
X111889615Y-111497739D01*
X111978799Y-111647808D01*
X112000940Y-111693826D01*
X112062987Y-111849048D01*
X112111496Y-112017513D01*
X112147080Y-112202192D01*
X112170353Y-112406053D01*
X112181927Y-112632067D01*
X112182465Y-112675252D01*
X112183755Y-112779001D01*
G36*
X112183755Y-112779001D02*
G01*
X112180842Y-112906057D01*
X112172512Y-113018109D01*
X112158120Y-113121252D01*
X112137021Y-113221581D01*
X112108570Y-113325190D01*
X112065428Y-113449033D01*
X111986190Y-113616216D01*
X111888993Y-113765961D01*
X111775325Y-113896852D01*
X111646672Y-114007474D01*
X111504521Y-114096412D01*
X111350359Y-114162250D01*
X111185674Y-114203574D01*
X111183692Y-114203906D01*
X111063337Y-114215486D01*
X110931099Y-114213941D01*
X110796404Y-114200222D01*
X110668684Y-114175283D01*
X110557366Y-114140077D01*
X110509851Y-114118653D01*
X110447969Y-114086090D01*
X110384380Y-114048846D01*
X110325721Y-114011021D01*
X110278626Y-113976714D01*
X110249730Y-113950024D01*
X110243097Y-113942696D01*
X110235189Y-113940135D01*
X110229903Y-113952851D01*
X110226008Y-113984899D01*
X110222271Y-114040331D01*
X110215406Y-114155838D01*
X109689569Y-114159434D01*
X109163732Y-114163031D01*
X109200116Y-114100946D01*
X109202285Y-114097276D01*
X109212865Y-114080044D01*
X109222463Y-114064693D01*
X109231131Y-114049889D01*
X109238920Y-114034299D01*
X109245882Y-114016589D01*
X109252069Y-113995424D01*
X109257531Y-113969473D01*
X109262322Y-113937400D01*
X109266492Y-113897872D01*
X109270094Y-113849557D01*
X109273178Y-113791119D01*
X109275797Y-113721226D01*
X109278002Y-113638544D01*
X109279844Y-113541739D01*
X109281376Y-113429477D01*
X109282649Y-113300425D01*
X109283715Y-113153250D01*
X109284625Y-112986618D01*
X109285431Y-112799194D01*
X109286185Y-112589646D01*
X109286938Y-112356640D01*
X109287742Y-112098842D01*
X109288451Y-111876982D01*
X110284054Y-111876982D01*
X110284054Y-113304205D01*
X110352703Y-113349233D01*
X110379103Y-113365453D01*
X110439552Y-113397857D01*
X110496865Y-113423661D01*
X110521965Y-113432398D01*
X110601831Y-113449841D01*
X110702811Y-113458748D01*
X110754159Y-113460601D01*
X110801823Y-113460179D01*
X110837304Y-113455419D01*
X110869129Y-113445014D01*
X110905823Y-113427659D01*
X110976342Y-113381169D01*
X111037435Y-113315406D01*
X111086337Y-113230658D01*
X111123515Y-113125597D01*
X111149432Y-112998895D01*
X111164556Y-112849222D01*
X111169350Y-112675252D01*
X111169117Y-112635700D01*
X111162225Y-112452444D01*
X111145488Y-112292985D01*
X111118501Y-112155643D01*
X111080855Y-112038734D01*
X111032144Y-111940577D01*
X110971961Y-111859488D01*
X110946993Y-111834740D01*
X110869613Y-111783181D01*
X110778776Y-111751807D01*
X110678419Y-111740795D01*
X110572475Y-111750324D01*
X110464879Y-111780572D01*
X110359568Y-111831718D01*
X110284054Y-111876982D01*
X109288451Y-111876982D01*
X109288649Y-111814919D01*
X109295514Y-109721135D01*
X109841271Y-109717545D01*
X109880959Y-109717304D01*
X109997730Y-109716825D01*
X110104535Y-109716727D01*
X110198458Y-109716992D01*
X110276584Y-109717599D01*
X110335998Y-109718528D01*
X110373784Y-109719759D01*
X110387027Y-109721272D01*
X110385333Y-109726069D01*
X110372694Y-109748810D01*
X110351760Y-109781881D01*
X110349672Y-109785043D01*
X110333442Y-109810577D01*
X110319833Y-109835421D01*
X110308616Y-109862134D01*
X110299559Y-109893274D01*
X110292431Y-109931402D01*
X110287003Y-109979075D01*
X110283043Y-110038853D01*
X110280320Y-110113295D01*
X110278605Y-110204960D01*
X110277665Y-110316408D01*
X110277270Y-110450196D01*
X110277189Y-110608885D01*
X110277333Y-110732781D01*
X110277774Y-110854419D01*
X110278479Y-110964711D01*
X110279417Y-111060973D01*
X110280557Y-111140519D01*
X110281865Y-111200663D01*
X110283310Y-111238718D01*
X110284859Y-111252000D01*
X110289858Y-111249939D01*
X110311831Y-111235422D01*
X110343211Y-111211581D01*
X110388704Y-111179519D01*
X110474178Y-111132279D01*
X110571872Y-111090140D01*
X110672666Y-111057370D01*
X110757352Y-111040660D01*
X110862823Y-111030009D01*
X110976971Y-111026318D01*
X111090989Y-111029594D01*
X111196067Y-111039840D01*
X111283396Y-111057060D01*
X111372317Y-111086068D01*
X111520658Y-111156389D01*
X111658010Y-111249877D01*
X111781841Y-111364377D01*
X111889615Y-111497739D01*
X111978799Y-111647808D01*
X112000940Y-111693826D01*
X112062987Y-111849048D01*
X112111496Y-112017513D01*
X112147080Y-112202192D01*
X112170353Y-112406053D01*
X112181927Y-112632067D01*
X112182465Y-112675252D01*
X112183755Y-112779001D01*
G37*
X115287128Y-113211034D02*
X115280962Y-113321736D01*
X115267635Y-113424739D01*
X115247526Y-113510541D01*
X115215440Y-113598818D01*
X115141063Y-113744299D01*
X115045994Y-113872295D01*
X114931218Y-113981933D01*
X114797719Y-114072342D01*
X114646480Y-114142648D01*
X114478487Y-114191981D01*
X114409983Y-114203108D01*
X114312093Y-114210841D01*
X114205484Y-114212580D01*
X114099065Y-114208465D01*
X114001745Y-114198637D01*
X113922433Y-114183236D01*
X113882579Y-114171110D01*
X113792063Y-114135626D01*
X113700052Y-114090575D01*
X113616038Y-114040843D01*
X113549515Y-113991316D01*
X113548697Y-113990601D01*
X113512243Y-113959692D01*
X113484196Y-113937683D01*
X113470569Y-113929298D01*
X113469079Y-113931300D01*
X113465708Y-113952926D01*
X113463365Y-113993260D01*
X113462487Y-114046000D01*
X113462487Y-114162703D01*
X112947622Y-114162703D01*
X112933916Y-114162701D01*
X112818965Y-114162500D01*
X112713464Y-114161999D01*
X112620414Y-114161237D01*
X112542817Y-114160249D01*
X112483674Y-114159074D01*
X112445986Y-114157749D01*
X112432757Y-114156311D01*
X112433065Y-114155054D01*
X112441720Y-114136501D01*
X112459863Y-114101645D01*
X112484244Y-114056770D01*
X112535730Y-113963622D01*
X112543279Y-113043981D01*
X113517406Y-113043981D01*
X113517789Y-113116640D01*
X113519644Y-113192985D01*
X113523279Y-113248168D01*
X113528958Y-113285782D01*
X113536946Y-113309421D01*
X113547222Y-113326301D01*
X113585918Y-113372317D01*
X113637765Y-113420221D01*
X113694592Y-113462904D01*
X113748225Y-113493253D01*
X113777982Y-113504389D01*
X113846499Y-113519216D01*
X113935988Y-113526796D01*
X114030338Y-113525648D01*
X114119934Y-113510056D01*
X114194718Y-113477846D01*
X114259421Y-113427567D01*
X114277622Y-113408970D01*
X114325011Y-113345546D01*
X114350652Y-113277184D01*
X114358352Y-113194925D01*
X114356266Y-113151467D01*
X114335635Y-113062005D01*
X114292295Y-112985219D01*
X114225457Y-112920243D01*
X114134331Y-112866215D01*
X114018128Y-112822270D01*
X113971281Y-112810738D01*
X113914568Y-112802842D01*
X113843195Y-112798457D01*
X113750811Y-112796982D01*
X113735804Y-112796983D01*
X113666689Y-112797827D01*
X113607320Y-112799866D01*
X113563600Y-112802833D01*
X113541433Y-112806461D01*
X113538882Y-112807639D01*
X113530635Y-112815035D01*
X113524794Y-112829899D01*
X113520955Y-112856227D01*
X113518713Y-112898018D01*
X113517665Y-112959270D01*
X113517406Y-113043981D01*
X112543279Y-113043981D01*
X112543676Y-112995676D01*
X112544857Y-112854695D01*
X112546509Y-112674893D01*
X112548243Y-112518799D01*
X112550200Y-112384205D01*
X112552519Y-112268905D01*
X112555340Y-112170689D01*
X112558804Y-112087352D01*
X112563050Y-112016685D01*
X112568220Y-111956480D01*
X112574452Y-111904531D01*
X112581887Y-111858630D01*
X112590666Y-111816569D01*
X112600927Y-111776141D01*
X112612813Y-111735137D01*
X112626461Y-111691352D01*
X112680230Y-111554085D01*
X112753865Y-111427222D01*
X112845566Y-111318608D01*
X112956175Y-111227674D01*
X113086530Y-111153853D01*
X113237471Y-111096575D01*
X113409837Y-111055273D01*
X113604469Y-111029378D01*
X113672495Y-111024229D01*
X113787062Y-111020464D01*
X113900616Y-111023854D01*
X114018473Y-111034972D01*
X114145950Y-111054388D01*
X114288363Y-111082674D01*
X114451027Y-111120403D01*
X114488627Y-111129532D01*
X114583049Y-111151996D01*
X114672543Y-111172679D01*
X114751681Y-111190361D01*
X114815036Y-111203820D01*
X114857180Y-111211833D01*
X114954414Y-111227803D01*
X114817716Y-111559118D01*
X114783523Y-111641840D01*
X114749885Y-111722896D01*
X114721023Y-111792101D01*
X114698355Y-111846068D01*
X114683297Y-111881412D01*
X114677267Y-111894746D01*
X114676319Y-111894937D01*
X114658844Y-111888984D01*
X114624483Y-111873728D01*
X114579434Y-111851883D01*
X114485802Y-111809343D01*
X114356958Y-111762830D01*
X114225086Y-111727210D01*
X114095344Y-111703378D01*
X113972889Y-111692227D01*
X113862877Y-111694654D01*
X113770465Y-111711552D01*
X113705969Y-111738364D01*
X113632720Y-111793310D01*
X113576333Y-111867852D01*
X113538421Y-111959695D01*
X113520599Y-112066547D01*
X113514323Y-112165027D01*
X113841945Y-112165924D01*
X113952432Y-112166851D01*
X114074638Y-112170141D01*
X114179035Y-112176351D01*
X114271024Y-112186084D01*
X114356004Y-112199943D01*
X114439377Y-112218533D01*
X114526541Y-112242458D01*
X114656960Y-112287996D01*
X114810360Y-112362988D01*
X114944988Y-112454847D01*
X115059516Y-112562280D01*
X115152616Y-112683995D01*
X115222961Y-112818701D01*
X115269223Y-112965105D01*
X115276468Y-113004536D01*
X115285756Y-113102133D01*
X115286926Y-113194925D01*
X115287128Y-113211034D01*
G36*
X115287128Y-113211034D02*
G01*
X115280962Y-113321736D01*
X115267635Y-113424739D01*
X115247526Y-113510541D01*
X115215440Y-113598818D01*
X115141063Y-113744299D01*
X115045994Y-113872295D01*
X114931218Y-113981933D01*
X114797719Y-114072342D01*
X114646480Y-114142648D01*
X114478487Y-114191981D01*
X114409983Y-114203108D01*
X114312093Y-114210841D01*
X114205484Y-114212580D01*
X114099065Y-114208465D01*
X114001745Y-114198637D01*
X113922433Y-114183236D01*
X113882579Y-114171110D01*
X113792063Y-114135626D01*
X113700052Y-114090575D01*
X113616038Y-114040843D01*
X113549515Y-113991316D01*
X113548697Y-113990601D01*
X113512243Y-113959692D01*
X113484196Y-113937683D01*
X113470569Y-113929298D01*
X113469079Y-113931300D01*
X113465708Y-113952926D01*
X113463365Y-113993260D01*
X113462487Y-114046000D01*
X113462487Y-114162703D01*
X112947622Y-114162703D01*
X112933916Y-114162701D01*
X112818965Y-114162500D01*
X112713464Y-114161999D01*
X112620414Y-114161237D01*
X112542817Y-114160249D01*
X112483674Y-114159074D01*
X112445986Y-114157749D01*
X112432757Y-114156311D01*
X112433065Y-114155054D01*
X112441720Y-114136501D01*
X112459863Y-114101645D01*
X112484244Y-114056770D01*
X112535730Y-113963622D01*
X112543279Y-113043981D01*
X113517406Y-113043981D01*
X113517789Y-113116640D01*
X113519644Y-113192985D01*
X113523279Y-113248168D01*
X113528958Y-113285782D01*
X113536946Y-113309421D01*
X113547222Y-113326301D01*
X113585918Y-113372317D01*
X113637765Y-113420221D01*
X113694592Y-113462904D01*
X113748225Y-113493253D01*
X113777982Y-113504389D01*
X113846499Y-113519216D01*
X113935988Y-113526796D01*
X114030338Y-113525648D01*
X114119934Y-113510056D01*
X114194718Y-113477846D01*
X114259421Y-113427567D01*
X114277622Y-113408970D01*
X114325011Y-113345546D01*
X114350652Y-113277184D01*
X114358352Y-113194925D01*
X114356266Y-113151467D01*
X114335635Y-113062005D01*
X114292295Y-112985219D01*
X114225457Y-112920243D01*
X114134331Y-112866215D01*
X114018128Y-112822270D01*
X113971281Y-112810738D01*
X113914568Y-112802842D01*
X113843195Y-112798457D01*
X113750811Y-112796982D01*
X113735804Y-112796983D01*
X113666689Y-112797827D01*
X113607320Y-112799866D01*
X113563600Y-112802833D01*
X113541433Y-112806461D01*
X113538882Y-112807639D01*
X113530635Y-112815035D01*
X113524794Y-112829899D01*
X113520955Y-112856227D01*
X113518713Y-112898018D01*
X113517665Y-112959270D01*
X113517406Y-113043981D01*
X112543279Y-113043981D01*
X112543676Y-112995676D01*
X112544857Y-112854695D01*
X112546509Y-112674893D01*
X112548243Y-112518799D01*
X112550200Y-112384205D01*
X112552519Y-112268905D01*
X112555340Y-112170689D01*
X112558804Y-112087352D01*
X112563050Y-112016685D01*
X112568220Y-111956480D01*
X112574452Y-111904531D01*
X112581887Y-111858630D01*
X112590666Y-111816569D01*
X112600927Y-111776141D01*
X112612813Y-111735137D01*
X112626461Y-111691352D01*
X112680230Y-111554085D01*
X112753865Y-111427222D01*
X112845566Y-111318608D01*
X112956175Y-111227674D01*
X113086530Y-111153853D01*
X113237471Y-111096575D01*
X113409837Y-111055273D01*
X113604469Y-111029378D01*
X113672495Y-111024229D01*
X113787062Y-111020464D01*
X113900616Y-111023854D01*
X114018473Y-111034972D01*
X114145950Y-111054388D01*
X114288363Y-111082674D01*
X114451027Y-111120403D01*
X114488627Y-111129532D01*
X114583049Y-111151996D01*
X114672543Y-111172679D01*
X114751681Y-111190361D01*
X114815036Y-111203820D01*
X114857180Y-111211833D01*
X114954414Y-111227803D01*
X114817716Y-111559118D01*
X114783523Y-111641840D01*
X114749885Y-111722896D01*
X114721023Y-111792101D01*
X114698355Y-111846068D01*
X114683297Y-111881412D01*
X114677267Y-111894746D01*
X114676319Y-111894937D01*
X114658844Y-111888984D01*
X114624483Y-111873728D01*
X114579434Y-111851883D01*
X114485802Y-111809343D01*
X114356958Y-111762830D01*
X114225086Y-111727210D01*
X114095344Y-111703378D01*
X113972889Y-111692227D01*
X113862877Y-111694654D01*
X113770465Y-111711552D01*
X113705969Y-111738364D01*
X113632720Y-111793310D01*
X113576333Y-111867852D01*
X113538421Y-111959695D01*
X113520599Y-112066547D01*
X113514323Y-112165027D01*
X113841945Y-112165924D01*
X113952432Y-112166851D01*
X114074638Y-112170141D01*
X114179035Y-112176351D01*
X114271024Y-112186084D01*
X114356004Y-112199943D01*
X114439377Y-112218533D01*
X114526541Y-112242458D01*
X114656960Y-112287996D01*
X114810360Y-112362988D01*
X114944988Y-112454847D01*
X115059516Y-112562280D01*
X115152616Y-112683995D01*
X115222961Y-112818701D01*
X115269223Y-112965105D01*
X115276468Y-113004536D01*
X115285756Y-113102133D01*
X115286926Y-113194925D01*
X115287128Y-113211034D01*
G37*
X124497945Y-114189840D02*
X124496532Y-114296310D01*
X124494777Y-114388024D01*
X124492646Y-114466117D01*
X124490102Y-114531724D01*
X124487111Y-114585981D01*
X124483635Y-114630023D01*
X124479640Y-114664985D01*
X124475089Y-114692003D01*
X124469947Y-114712212D01*
X124464179Y-114726747D01*
X124457748Y-114736744D01*
X124450619Y-114743338D01*
X124442755Y-114747665D01*
X124434122Y-114750859D01*
X124424684Y-114754056D01*
X124414404Y-114758391D01*
X124408620Y-114760563D01*
X124398010Y-114762936D01*
X124382245Y-114765110D01*
X124360210Y-114767093D01*
X124330790Y-114768896D01*
X124292869Y-114770525D01*
X124245332Y-114771991D01*
X124187064Y-114773301D01*
X124116950Y-114774465D01*
X124033874Y-114775491D01*
X123936721Y-114776388D01*
X123824376Y-114777165D01*
X123695725Y-114777830D01*
X123549650Y-114778392D01*
X123385038Y-114778860D01*
X123200773Y-114779242D01*
X122995740Y-114779548D01*
X122768824Y-114779785D01*
X122518909Y-114779963D01*
X122244881Y-114780091D01*
X121945623Y-114780176D01*
X121620021Y-114780228D01*
X121516839Y-114780238D01*
X121198303Y-114780245D01*
X120905787Y-114780205D01*
X120638188Y-114780110D01*
X120394404Y-114779953D01*
X120173332Y-114779725D01*
X119973872Y-114779419D01*
X119794921Y-114779025D01*
X119635376Y-114778538D01*
X119494136Y-114777947D01*
X119370099Y-114777247D01*
X119262163Y-114776427D01*
X119169226Y-114775481D01*
X119090185Y-114774400D01*
X119023939Y-114773177D01*
X118969385Y-114771803D01*
X118925422Y-114770271D01*
X118890947Y-114768572D01*
X118864859Y-114766698D01*
X118846056Y-114764642D01*
X118833435Y-114762396D01*
X118825894Y-114759950D01*
X118823495Y-114758862D01*
X118813673Y-114755287D01*
X118804666Y-114752676D01*
X118796437Y-114749893D01*
X118788950Y-114745800D01*
X118782168Y-114739260D01*
X118776055Y-114729137D01*
X118770575Y-114714293D01*
X118765690Y-114693591D01*
X118761364Y-114665895D01*
X118757561Y-114630068D01*
X118754244Y-114584973D01*
X118751376Y-114529472D01*
X118748922Y-114462429D01*
X118746844Y-114382707D01*
X118745107Y-114289170D01*
X118743673Y-114180679D01*
X118743202Y-114130440D01*
X119105255Y-114130440D01*
X119105652Y-114135251D01*
X119112935Y-114139150D01*
X119129389Y-114142232D01*
X119157301Y-114144594D01*
X119198957Y-114146330D01*
X119256642Y-114147536D01*
X119332642Y-114148308D01*
X119429244Y-114148741D01*
X119548734Y-114148931D01*
X119693396Y-114148973D01*
X120299373Y-114148973D01*
X120248146Y-114056298D01*
X120196919Y-113963622D01*
X120196919Y-111272595D01*
X120248146Y-111179919D01*
X120299373Y-111087244D01*
X119216211Y-111087244D01*
X119208379Y-113936162D01*
X119169981Y-114018168D01*
X119149736Y-114058815D01*
X119126813Y-114099532D01*
X119109501Y-114124574D01*
X119109458Y-114124622D01*
X119105255Y-114130440D01*
X118743202Y-114130440D01*
X118742506Y-114056098D01*
X118741570Y-113914290D01*
X118740828Y-113754119D01*
X118740243Y-113574447D01*
X118739779Y-113374137D01*
X118739400Y-113152052D01*
X118739069Y-112907056D01*
X118738749Y-112638012D01*
X118738404Y-112343782D01*
X118737998Y-112023230D01*
X118737945Y-111984424D01*
X118737492Y-111665903D01*
X118737059Y-111373572D01*
X118736677Y-111106293D01*
X118736380Y-110862929D01*
X118736198Y-110642342D01*
X118736165Y-110443395D01*
X118736311Y-110264950D01*
X118736670Y-110105871D01*
X118737274Y-109965019D01*
X118738154Y-109841257D01*
X118739342Y-109733447D01*
X118740871Y-109640453D01*
X118742772Y-109561137D01*
X118745078Y-109494360D01*
X118747821Y-109438987D01*
X118751032Y-109393879D01*
X118754745Y-109357899D01*
X118758990Y-109329909D01*
X118763801Y-109308772D01*
X118769208Y-109293351D01*
X118775245Y-109282508D01*
X118781943Y-109275106D01*
X118789335Y-109270007D01*
X118797451Y-109266073D01*
X118806325Y-109262168D01*
X118815989Y-109257154D01*
X118818817Y-109255556D01*
X118861604Y-109240089D01*
X118908443Y-109233732D01*
X118961244Y-109233734D01*
X118962124Y-109353867D01*
X118962347Y-109367692D01*
X118979129Y-109508215D01*
X119021873Y-109640435D01*
X119089983Y-109762952D01*
X119182868Y-109874363D01*
X119232712Y-109919803D01*
X119343695Y-109995120D01*
X119464788Y-110047643D01*
X119592465Y-110077342D01*
X119723197Y-110084190D01*
X119853460Y-110068159D01*
X119979725Y-110029221D01*
X120083522Y-109975135D01*
X120542907Y-109975135D01*
X120603319Y-110018599D01*
X120654410Y-110059448D01*
X120726403Y-110126076D01*
X120808060Y-110209580D01*
X120896290Y-110306778D01*
X120988000Y-110414487D01*
X121011617Y-110443290D01*
X121051827Y-110492692D01*
X121104387Y-110557505D01*
X121167556Y-110635566D01*
X121239592Y-110724711D01*
X121318754Y-110822778D01*
X121403302Y-110927604D01*
X121491493Y-111037024D01*
X121531944Y-111087244D01*
X121581586Y-111148876D01*
X121671840Y-111260997D01*
X121760515Y-111371224D01*
X121845868Y-111477392D01*
X121926158Y-111577340D01*
X121999644Y-111668903D01*
X122064585Y-111749919D01*
X122119240Y-111818224D01*
X122161866Y-111871655D01*
X122190724Y-111908048D01*
X122204071Y-111925242D01*
X122205173Y-111931703D01*
X122201508Y-111943992D01*
X122192013Y-111963325D01*
X122175738Y-111991074D01*
X122151736Y-112028610D01*
X122119060Y-112077304D01*
X122076761Y-112138529D01*
X122023891Y-112213654D01*
X121959503Y-112304052D01*
X121882648Y-112411094D01*
X121792380Y-112536152D01*
X121687749Y-112680596D01*
X121567809Y-112845798D01*
X121472242Y-112977297D01*
X121355648Y-113137605D01*
X121253088Y-113278387D01*
X121163369Y-113401204D01*
X121085300Y-113507619D01*
X121017688Y-113599195D01*
X120959338Y-113677494D01*
X120909060Y-113744079D01*
X120865661Y-113800511D01*
X120827946Y-113848354D01*
X120794725Y-113889169D01*
X120764803Y-113924520D01*
X120736989Y-113955968D01*
X120710090Y-113985076D01*
X120682913Y-114013406D01*
X120654265Y-114042522D01*
X120548692Y-114148973D01*
X121968054Y-114149031D01*
X121963595Y-114063019D01*
X121963379Y-114058697D01*
X121962532Y-114024313D01*
X121964137Y-113991368D01*
X121969266Y-113958058D01*
X121978993Y-113922578D01*
X121994391Y-113883125D01*
X122016534Y-113837893D01*
X122046495Y-113785077D01*
X122085348Y-113722874D01*
X122134166Y-113649477D01*
X122194022Y-113563084D01*
X122265990Y-113461890D01*
X122351143Y-113344088D01*
X122450554Y-113207876D01*
X122565298Y-113051449D01*
X122970325Y-112500041D01*
X122973893Y-113139382D01*
X122974209Y-113199020D01*
X122974767Y-113359657D01*
X122974513Y-113496289D01*
X122973150Y-113611502D01*
X122970377Y-113707883D01*
X122965898Y-113788016D01*
X122959413Y-113854487D01*
X122950623Y-113909883D01*
X122939230Y-113956788D01*
X122924935Y-113997788D01*
X122907440Y-114035469D01*
X122886447Y-114072417D01*
X122861655Y-114111217D01*
X122836734Y-114148973D01*
X124131884Y-114148973D01*
X124098429Y-114104352D01*
X124093190Y-114097293D01*
X124051302Y-114032594D01*
X124022427Y-113967190D01*
X124003466Y-113892248D01*
X123991321Y-113798933D01*
X123990987Y-113794865D01*
X123989225Y-113756375D01*
X123987633Y-113692156D01*
X123986220Y-113603676D01*
X123984992Y-113492403D01*
X123983956Y-113359803D01*
X123983118Y-113207345D01*
X123982486Y-113036496D01*
X123982067Y-112848722D01*
X123981868Y-112645493D01*
X123981895Y-112428274D01*
X123982155Y-112198535D01*
X123982655Y-111957741D01*
X123983185Y-111741748D01*
X123983752Y-111506635D01*
X123984311Y-111296279D01*
X123984930Y-111109206D01*
X123985681Y-110943942D01*
X123986634Y-110799013D01*
X123987858Y-110672947D01*
X123989423Y-110564268D01*
X123991401Y-110471504D01*
X123993860Y-110393180D01*
X123996871Y-110327822D01*
X124000504Y-110273958D01*
X124004829Y-110230113D01*
X124009916Y-110194813D01*
X124015835Y-110166585D01*
X124022657Y-110143955D01*
X124030451Y-110125449D01*
X124039288Y-110109594D01*
X124049237Y-110094915D01*
X124060369Y-110079940D01*
X124072754Y-110063193D01*
X124084732Y-110046412D01*
X124107885Y-110013231D01*
X124121753Y-109992298D01*
X124122088Y-109991421D01*
X124117246Y-109987462D01*
X124100157Y-109984159D01*
X124068921Y-109981461D01*
X124021635Y-109979317D01*
X123956398Y-109977676D01*
X123871310Y-109976489D01*
X123764467Y-109975703D01*
X123633969Y-109975269D01*
X123477914Y-109975135D01*
X122823722Y-109975135D01*
X122858200Y-110016110D01*
X122878182Y-110044253D01*
X122911443Y-110110608D01*
X122940591Y-110193135D01*
X122962838Y-110284679D01*
X122964256Y-110293369D01*
X122968474Y-110339183D01*
X122971669Y-110409989D01*
X122973849Y-110506275D01*
X122975021Y-110628532D01*
X122975195Y-110777251D01*
X122974378Y-110952922D01*
X122970325Y-111539412D01*
X122551568Y-111009859D01*
X122539574Y-110994690D01*
X122433381Y-110860255D01*
X122342721Y-110745124D01*
X122266151Y-110647339D01*
X122202227Y-110564943D01*
X122149507Y-110495978D01*
X122106549Y-110438486D01*
X122071909Y-110390510D01*
X122044145Y-110350093D01*
X122021814Y-110315276D01*
X122003472Y-110284103D01*
X121987678Y-110254615D01*
X121972988Y-110224855D01*
X121950390Y-110172177D01*
X121935791Y-110116606D01*
X121931908Y-110056666D01*
X121932298Y-109975135D01*
X120542907Y-109975135D01*
X120083522Y-109975135D01*
X120098466Y-109967348D01*
X120206157Y-109882511D01*
X120236094Y-109852602D01*
X120324577Y-109741862D01*
X120387364Y-109621684D01*
X120424789Y-109491291D01*
X120437189Y-109349910D01*
X120437189Y-109233730D01*
X122408088Y-109233730D01*
X122531220Y-109233725D01*
X122795743Y-109233689D01*
X123034702Y-109233663D01*
X123249418Y-109233699D01*
X123441213Y-109233849D01*
X123611407Y-109234166D01*
X123761323Y-109234702D01*
X123892282Y-109235508D01*
X124005605Y-109236638D01*
X124102614Y-109238144D01*
X124184629Y-109240077D01*
X124252974Y-109242491D01*
X124308968Y-109245436D01*
X124353933Y-109248966D01*
X124389191Y-109253133D01*
X124416063Y-109257989D01*
X124435871Y-109263586D01*
X124449935Y-109269976D01*
X124459578Y-109277212D01*
X124466121Y-109285346D01*
X124470885Y-109294431D01*
X124475192Y-109304518D01*
X124480363Y-109315659D01*
X124480455Y-109315841D01*
X124482966Y-109323134D01*
X124485268Y-109335347D01*
X124487372Y-109353605D01*
X124489286Y-109379037D01*
X124491018Y-109412769D01*
X124492578Y-109455928D01*
X124493973Y-109509641D01*
X124495213Y-109575035D01*
X124496307Y-109653238D01*
X124497263Y-109745376D01*
X124498090Y-109852576D01*
X124498797Y-109975966D01*
X124499393Y-110116671D01*
X124499885Y-110275820D01*
X124500284Y-110454540D01*
X124500597Y-110653957D01*
X124500833Y-110875198D01*
X124501002Y-111119390D01*
X124501112Y-111387661D01*
X124501172Y-111681137D01*
X124501189Y-112000946D01*
X124501190Y-112063773D01*
X124501220Y-112380249D01*
X124501267Y-112670615D01*
X124501295Y-112936007D01*
X124501267Y-113177560D01*
X124501150Y-113396410D01*
X124500905Y-113593691D01*
X124500498Y-113770539D01*
X124499893Y-113928090D01*
X124499054Y-114067479D01*
X124498315Y-114148973D01*
X124497945Y-114189840D01*
G36*
X124497945Y-114189840D02*
G01*
X124496532Y-114296310D01*
X124494777Y-114388024D01*
X124492646Y-114466117D01*
X124490102Y-114531724D01*
X124487111Y-114585981D01*
X124483635Y-114630023D01*
X124479640Y-114664985D01*
X124475089Y-114692003D01*
X124469947Y-114712212D01*
X124464179Y-114726747D01*
X124457748Y-114736744D01*
X124450619Y-114743338D01*
X124442755Y-114747665D01*
X124434122Y-114750859D01*
X124424684Y-114754056D01*
X124414404Y-114758391D01*
X124408620Y-114760563D01*
X124398010Y-114762936D01*
X124382245Y-114765110D01*
X124360210Y-114767093D01*
X124330790Y-114768896D01*
X124292869Y-114770525D01*
X124245332Y-114771991D01*
X124187064Y-114773301D01*
X124116950Y-114774465D01*
X124033874Y-114775491D01*
X123936721Y-114776388D01*
X123824376Y-114777165D01*
X123695725Y-114777830D01*
X123549650Y-114778392D01*
X123385038Y-114778860D01*
X123200773Y-114779242D01*
X122995740Y-114779548D01*
X122768824Y-114779785D01*
X122518909Y-114779963D01*
X122244881Y-114780091D01*
X121945623Y-114780176D01*
X121620021Y-114780228D01*
X121516839Y-114780238D01*
X121198303Y-114780245D01*
X120905787Y-114780205D01*
X120638188Y-114780110D01*
X120394404Y-114779953D01*
X120173332Y-114779725D01*
X119973872Y-114779419D01*
X119794921Y-114779025D01*
X119635376Y-114778538D01*
X119494136Y-114777947D01*
X119370099Y-114777247D01*
X119262163Y-114776427D01*
X119169226Y-114775481D01*
X119090185Y-114774400D01*
X119023939Y-114773177D01*
X118969385Y-114771803D01*
X118925422Y-114770271D01*
X118890947Y-114768572D01*
X118864859Y-114766698D01*
X118846056Y-114764642D01*
X118833435Y-114762396D01*
X118825894Y-114759950D01*
X118823495Y-114758862D01*
X118813673Y-114755287D01*
X118804666Y-114752676D01*
X118796437Y-114749893D01*
X118788950Y-114745800D01*
X118782168Y-114739260D01*
X118776055Y-114729137D01*
X118770575Y-114714293D01*
X118765690Y-114693591D01*
X118761364Y-114665895D01*
X118757561Y-114630068D01*
X118754244Y-114584973D01*
X118751376Y-114529472D01*
X118748922Y-114462429D01*
X118746844Y-114382707D01*
X118745107Y-114289170D01*
X118743673Y-114180679D01*
X118743202Y-114130440D01*
X119105255Y-114130440D01*
X119105652Y-114135251D01*
X119112935Y-114139150D01*
X119129389Y-114142232D01*
X119157301Y-114144594D01*
X119198957Y-114146330D01*
X119256642Y-114147536D01*
X119332642Y-114148308D01*
X119429244Y-114148741D01*
X119548734Y-114148931D01*
X119693396Y-114148973D01*
X120299373Y-114148973D01*
X120248146Y-114056298D01*
X120196919Y-113963622D01*
X120196919Y-111272595D01*
X120248146Y-111179919D01*
X120299373Y-111087244D01*
X119216211Y-111087244D01*
X119208379Y-113936162D01*
X119169981Y-114018168D01*
X119149736Y-114058815D01*
X119126813Y-114099532D01*
X119109501Y-114124574D01*
X119109458Y-114124622D01*
X119105255Y-114130440D01*
X118743202Y-114130440D01*
X118742506Y-114056098D01*
X118741570Y-113914290D01*
X118740828Y-113754119D01*
X118740243Y-113574447D01*
X118739779Y-113374137D01*
X118739400Y-113152052D01*
X118739069Y-112907056D01*
X118738749Y-112638012D01*
X118738404Y-112343782D01*
X118737998Y-112023230D01*
X118737945Y-111984424D01*
X118737492Y-111665903D01*
X118737059Y-111373572D01*
X118736677Y-111106293D01*
X118736380Y-110862929D01*
X118736198Y-110642342D01*
X118736165Y-110443395D01*
X118736311Y-110264950D01*
X118736670Y-110105871D01*
X118737274Y-109965019D01*
X118738154Y-109841257D01*
X118739342Y-109733447D01*
X118740871Y-109640453D01*
X118742772Y-109561137D01*
X118745078Y-109494360D01*
X118747821Y-109438987D01*
X118751032Y-109393879D01*
X118754745Y-109357899D01*
X118758990Y-109329909D01*
X118763801Y-109308772D01*
X118769208Y-109293351D01*
X118775245Y-109282508D01*
X118781943Y-109275106D01*
X118789335Y-109270007D01*
X118797451Y-109266073D01*
X118806325Y-109262168D01*
X118815989Y-109257154D01*
X118818817Y-109255556D01*
X118861604Y-109240089D01*
X118908443Y-109233732D01*
X118961244Y-109233734D01*
X118962124Y-109353867D01*
X118962347Y-109367692D01*
X118979129Y-109508215D01*
X119021873Y-109640435D01*
X119089983Y-109762952D01*
X119182868Y-109874363D01*
X119232712Y-109919803D01*
X119343695Y-109995120D01*
X119464788Y-110047643D01*
X119592465Y-110077342D01*
X119723197Y-110084190D01*
X119853460Y-110068159D01*
X119979725Y-110029221D01*
X120083522Y-109975135D01*
X120542907Y-109975135D01*
X120603319Y-110018599D01*
X120654410Y-110059448D01*
X120726403Y-110126076D01*
X120808060Y-110209580D01*
X120896290Y-110306778D01*
X120988000Y-110414487D01*
X121011617Y-110443290D01*
X121051827Y-110492692D01*
X121104387Y-110557505D01*
X121167556Y-110635566D01*
X121239592Y-110724711D01*
X121318754Y-110822778D01*
X121403302Y-110927604D01*
X121491493Y-111037024D01*
X121531944Y-111087244D01*
X121581586Y-111148876D01*
X121671840Y-111260997D01*
X121760515Y-111371224D01*
X121845868Y-111477392D01*
X121926158Y-111577340D01*
X121999644Y-111668903D01*
X122064585Y-111749919D01*
X122119240Y-111818224D01*
X122161866Y-111871655D01*
X122190724Y-111908048D01*
X122204071Y-111925242D01*
X122205173Y-111931703D01*
X122201508Y-111943992D01*
X122192013Y-111963325D01*
X122175738Y-111991074D01*
X122151736Y-112028610D01*
X122119060Y-112077304D01*
X122076761Y-112138529D01*
X122023891Y-112213654D01*
X121959503Y-112304052D01*
X121882648Y-112411094D01*
X121792380Y-112536152D01*
X121687749Y-112680596D01*
X121567809Y-112845798D01*
X121472242Y-112977297D01*
X121355648Y-113137605D01*
X121253088Y-113278387D01*
X121163369Y-113401204D01*
X121085300Y-113507619D01*
X121017688Y-113599195D01*
X120959338Y-113677494D01*
X120909060Y-113744079D01*
X120865661Y-113800511D01*
X120827946Y-113848354D01*
X120794725Y-113889169D01*
X120764803Y-113924520D01*
X120736989Y-113955968D01*
X120710090Y-113985076D01*
X120682913Y-114013406D01*
X120654265Y-114042522D01*
X120548692Y-114148973D01*
X121968054Y-114149031D01*
X121963595Y-114063019D01*
X121963379Y-114058697D01*
X121962532Y-114024313D01*
X121964137Y-113991368D01*
X121969266Y-113958058D01*
X121978993Y-113922578D01*
X121994391Y-113883125D01*
X122016534Y-113837893D01*
X122046495Y-113785077D01*
X122085348Y-113722874D01*
X122134166Y-113649477D01*
X122194022Y-113563084D01*
X122265990Y-113461890D01*
X122351143Y-113344088D01*
X122450554Y-113207876D01*
X122565298Y-113051449D01*
X122970325Y-112500041D01*
X122973893Y-113139382D01*
X122974209Y-113199020D01*
X122974767Y-113359657D01*
X122974513Y-113496289D01*
X122973150Y-113611502D01*
X122970377Y-113707883D01*
X122965898Y-113788016D01*
X122959413Y-113854487D01*
X122950623Y-113909883D01*
X122939230Y-113956788D01*
X122924935Y-113997788D01*
X122907440Y-114035469D01*
X122886447Y-114072417D01*
X122861655Y-114111217D01*
X122836734Y-114148973D01*
X124131884Y-114148973D01*
X124098429Y-114104352D01*
X124093190Y-114097293D01*
X124051302Y-114032594D01*
X124022427Y-113967190D01*
X124003466Y-113892248D01*
X123991321Y-113798933D01*
X123990987Y-113794865D01*
X123989225Y-113756375D01*
X123987633Y-113692156D01*
X123986220Y-113603676D01*
X123984992Y-113492403D01*
X123983956Y-113359803D01*
X123983118Y-113207345D01*
X123982486Y-113036496D01*
X123982067Y-112848722D01*
X123981868Y-112645493D01*
X123981895Y-112428274D01*
X123982155Y-112198535D01*
X123982655Y-111957741D01*
X123983185Y-111741748D01*
X123983752Y-111506635D01*
X123984311Y-111296279D01*
X123984930Y-111109206D01*
X123985681Y-110943942D01*
X123986634Y-110799013D01*
X123987858Y-110672947D01*
X123989423Y-110564268D01*
X123991401Y-110471504D01*
X123993860Y-110393180D01*
X123996871Y-110327822D01*
X124000504Y-110273958D01*
X124004829Y-110230113D01*
X124009916Y-110194813D01*
X124015835Y-110166585D01*
X124022657Y-110143955D01*
X124030451Y-110125449D01*
X124039288Y-110109594D01*
X124049237Y-110094915D01*
X124060369Y-110079940D01*
X124072754Y-110063193D01*
X124084732Y-110046412D01*
X124107885Y-110013231D01*
X124121753Y-109992298D01*
X124122088Y-109991421D01*
X124117246Y-109987462D01*
X124100157Y-109984159D01*
X124068921Y-109981461D01*
X124021635Y-109979317D01*
X123956398Y-109977676D01*
X123871310Y-109976489D01*
X123764467Y-109975703D01*
X123633969Y-109975269D01*
X123477914Y-109975135D01*
X122823722Y-109975135D01*
X122858200Y-110016110D01*
X122878182Y-110044253D01*
X122911443Y-110110608D01*
X122940591Y-110193135D01*
X122962838Y-110284679D01*
X122964256Y-110293369D01*
X122968474Y-110339183D01*
X122971669Y-110409989D01*
X122973849Y-110506275D01*
X122975021Y-110628532D01*
X122975195Y-110777251D01*
X122974378Y-110952922D01*
X122970325Y-111539412D01*
X122551568Y-111009859D01*
X122539574Y-110994690D01*
X122433381Y-110860255D01*
X122342721Y-110745124D01*
X122266151Y-110647339D01*
X122202227Y-110564943D01*
X122149507Y-110495978D01*
X122106549Y-110438486D01*
X122071909Y-110390510D01*
X122044145Y-110350093D01*
X122021814Y-110315276D01*
X122003472Y-110284103D01*
X121987678Y-110254615D01*
X121972988Y-110224855D01*
X121950390Y-110172177D01*
X121935791Y-110116606D01*
X121931908Y-110056666D01*
X121932298Y-109975135D01*
X120542907Y-109975135D01*
X120083522Y-109975135D01*
X120098466Y-109967348D01*
X120206157Y-109882511D01*
X120236094Y-109852602D01*
X120324577Y-109741862D01*
X120387364Y-109621684D01*
X120424789Y-109491291D01*
X120437189Y-109349910D01*
X120437189Y-109233730D01*
X122408088Y-109233730D01*
X122531220Y-109233725D01*
X122795743Y-109233689D01*
X123034702Y-109233663D01*
X123249418Y-109233699D01*
X123441213Y-109233849D01*
X123611407Y-109234166D01*
X123761323Y-109234702D01*
X123892282Y-109235508D01*
X124005605Y-109236638D01*
X124102614Y-109238144D01*
X124184629Y-109240077D01*
X124252974Y-109242491D01*
X124308968Y-109245436D01*
X124353933Y-109248966D01*
X124389191Y-109253133D01*
X124416063Y-109257989D01*
X124435871Y-109263586D01*
X124449935Y-109269976D01*
X124459578Y-109277212D01*
X124466121Y-109285346D01*
X124470885Y-109294431D01*
X124475192Y-109304518D01*
X124480363Y-109315659D01*
X124480455Y-109315841D01*
X124482966Y-109323134D01*
X124485268Y-109335347D01*
X124487372Y-109353605D01*
X124489286Y-109379037D01*
X124491018Y-109412769D01*
X124492578Y-109455928D01*
X124493973Y-109509641D01*
X124495213Y-109575035D01*
X124496307Y-109653238D01*
X124497263Y-109745376D01*
X124498090Y-109852576D01*
X124498797Y-109975966D01*
X124499393Y-110116671D01*
X124499885Y-110275820D01*
X124500284Y-110454540D01*
X124500597Y-110653957D01*
X124500833Y-110875198D01*
X124501002Y-111119390D01*
X124501112Y-111387661D01*
X124501172Y-111681137D01*
X124501189Y-112000946D01*
X124501190Y-112063773D01*
X124501220Y-112380249D01*
X124501267Y-112670615D01*
X124501295Y-112936007D01*
X124501267Y-113177560D01*
X124501150Y-113396410D01*
X124500905Y-113593691D01*
X124500498Y-113770539D01*
X124499893Y-113928090D01*
X124499054Y-114067479D01*
X124498315Y-114148973D01*
X124497945Y-114189840D01*
G37*
%TD*%
%LPC*%
D12*
%TO.C,J4*%
X96460000Y-114930000D03*
D13*
X96460000Y-112390000D03*
%TD*%
D12*
%TO.C,J2*%
X96460000Y-121285000D03*
D13*
X96460000Y-118745000D03*
%TD*%
D12*
%TO.C,J1*%
X127441000Y-115641200D03*
D13*
X127441000Y-118181200D03*
%TD*%
D14*
%TO.C,J3*%
X107950000Y-114935000D03*
D15*
X100330000Y-114935000D03*
%TD*%
%LPD*%
M02*
