%TF.GenerationSoftware,KiCad,Pcbnew,9.0.6*%
%TF.CreationDate,2026-01-05T18:32:50+05:30*%
%TF.ProjectId,ESP32_based_dev_board,45535033-325f-4626-9173-65645f646576,rev?*%
%TF.SameCoordinates,Original*%
%TF.FileFunction,Soldermask,Top*%
%TF.FilePolarity,Negative*%
%FSLAX46Y46*%
G04 Gerber Fmt 4.6, Leading zero omitted, Abs format (unit mm)*
G04 Created by KiCad (PCBNEW 9.0.6) date 2026-01-05 18:32:50*
%MOMM*%
%LPD*%
G01*
G04 APERTURE LIST*
G04 Aperture macros list*
%AMRoundRect*
0 Rectangle with rounded corners*
0 $1 Rounding radius*
0 $2 $3 $4 $5 $6 $7 $8 $9 X,Y pos of 4 corners*
0 Add a 4 corners polygon primitive as box body*
4,1,4,$2,$3,$4,$5,$6,$7,$8,$9,$2,$3,0*
0 Add four circle primitives for the rounded corners*
1,1,$1+$1,$2,$3*
1,1,$1+$1,$4,$5*
1,1,$1+$1,$6,$7*
1,1,$1+$1,$8,$9*
0 Add four rect primitives between the rounded corners*
20,1,$1+$1,$2,$3,$4,$5,0*
20,1,$1+$1,$4,$5,$6,$7,0*
20,1,$1+$1,$6,$7,$8,$9,0*
20,1,$1+$1,$8,$9,$2,$3,0*%
G04 Aperture macros list end*
%ADD10RoundRect,0.102000X-0.750000X-0.450000X0.750000X-0.450000X0.750000X0.450000X-0.750000X0.450000X0*%
%ADD11RoundRect,0.102000X-0.350000X-0.350000X0.350000X-0.350000X0.350000X0.350000X-0.350000X0.350000X0*%
%ADD12RoundRect,0.250000X-0.450000X0.262500X-0.450000X-0.262500X0.450000X-0.262500X0.450000X0.262500X0*%
%ADD13C,1.150000*%
%ADD14C,1.650000*%
%ADD15RoundRect,0.102000X-0.500000X-0.750000X0.500000X-0.750000X0.500000X0.750000X-0.500000X0.750000X0*%
%ADD16RoundRect,0.102000X-0.350000X-0.750000X0.350000X-0.750000X0.350000X0.750000X-0.350000X0.750000X0*%
%ADD17RoundRect,0.102000X-0.750000X-1.400000X0.750000X-1.400000X0.750000X1.400000X-0.750000X1.400000X0*%
%ADD18RoundRect,0.116000X0.116000X-0.406000X0.116000X0.406000X-0.116000X0.406000X-0.116000X-0.406000X0*%
%ADD19RoundRect,0.116000X0.406000X-0.116000X0.406000X0.116000X-0.406000X0.116000X-0.406000X-0.116000X0*%
%ADD20RoundRect,0.102000X1.350000X-1.350000X1.350000X1.350000X-1.350000X1.350000X-1.350000X-1.350000X0*%
%ADD21R,1.400000X1.000000*%
%ADD22R,1.700000X1.700000*%
%ADD23C,1.700000*%
%ADD24RoundRect,0.102000X-0.500000X-2.750000X0.500000X-2.750000X0.500000X2.750000X-0.500000X2.750000X0*%
%ADD25RoundRect,0.102000X-0.800000X-1.500000X0.800000X-1.500000X0.800000X1.500000X-0.800000X1.500000X0*%
%ADD26C,2.500000*%
%ADD27RoundRect,0.250000X0.450000X-0.262500X0.450000X0.262500X-0.450000X0.262500X-0.450000X-0.262500X0*%
%ADD28RoundRect,0.250000X0.250000X0.475000X-0.250000X0.475000X-0.250000X-0.475000X0.250000X-0.475000X0*%
%ADD29RoundRect,0.250000X0.262500X0.450000X-0.262500X0.450000X-0.262500X-0.450000X0.262500X-0.450000X0*%
%ADD30R,1.230000X1.800000*%
%ADD31RoundRect,0.250000X-0.475000X0.250000X-0.475000X-0.250000X0.475000X-0.250000X0.475000X0.250000X0*%
%ADD32RoundRect,0.250000X0.475000X-0.250000X0.475000X0.250000X-0.475000X0.250000X-0.475000X-0.250000X0*%
%ADD33C,1.000000*%
%ADD34R,0.910000X2.810000*%
%ADD35RoundRect,0.116000X0.406000X0.116000X-0.406000X0.116000X-0.406000X-0.116000X0.406000X-0.116000X0*%
%ADD36RoundRect,0.116000X0.116000X0.406000X-0.116000X0.406000X-0.116000X-0.406000X0.116000X-0.406000X0*%
%ADD37RoundRect,0.102000X1.350000X1.350000X-1.350000X1.350000X-1.350000X-1.350000X1.350000X-1.350000X0*%
%ADD38RoundRect,0.150000X-0.150000X0.512500X-0.150000X-0.512500X0.150000X-0.512500X0.150000X0.512500X0*%
%ADD39R,1.800000X1.230000*%
%ADD40RoundRect,0.102000X-0.150000X-0.600000X0.150000X-0.600000X0.150000X0.600000X-0.150000X0.600000X0*%
%ADD41C,0.854000*%
%ADD42RoundRect,0.102000X-0.100000X-0.500000X0.100000X-0.500000X0.100000X0.500000X-0.100000X0.500000X0*%
%ADD43O,1.254000X2.304000*%
%ADD44RoundRect,0.250000X-0.262500X-0.450000X0.262500X-0.450000X0.262500X0.450000X-0.262500X0.450000X0*%
%ADD45RoundRect,0.081750X0.245250X-0.265250X0.245250X0.265250X-0.245250X0.265250X-0.245250X-0.265250X0*%
%ADD46RoundRect,0.250000X-0.250000X-0.475000X0.250000X-0.475000X0.250000X0.475000X-0.250000X0.475000X0*%
%ADD47RoundRect,0.200000X0.200000X-0.250000X0.200000X0.250000X-0.200000X0.250000X-0.200000X-0.250000X0*%
%ADD48RoundRect,0.102000X-0.275000X-0.285000X0.275000X-0.285000X0.275000X0.285000X-0.275000X0.285000X0*%
%ADD49C,1.412000*%
%ADD50RoundRect,0.151000X0.151000X-0.546000X0.151000X0.546000X-0.151000X0.546000X-0.151000X-0.546000X0*%
%ADD51RoundRect,0.102000X-0.550000X-0.400000X0.550000X-0.400000X0.550000X0.400000X-0.550000X0.400000X0*%
%ADD52RoundRect,0.102000X-0.550000X-0.500000X0.550000X-0.500000X0.550000X0.500000X-0.550000X0.500000X0*%
%ADD53O,1.804000X0.804000*%
%ADD54R,1.000000X1.400000*%
%ADD55RoundRect,0.102000X0.475000X-1.075000X0.475000X1.075000X-0.475000X1.075000X-0.475000X-1.075000X0*%
%ADD56RoundRect,0.102000X1.625000X-1.075000X1.625000X1.075000X-1.625000X1.075000X-1.625000X-1.075000X0*%
G04 APERTURE END LIST*
D10*
%TO.C,U3*%
X212512500Y-79125000D03*
X212512500Y-80625000D03*
X212512500Y-82125000D03*
X212512500Y-83625000D03*
X212512500Y-85125000D03*
X212512500Y-86625000D03*
X212512500Y-88125000D03*
X212512500Y-89625000D03*
X212512500Y-91125000D03*
X230012500Y-91125000D03*
X230012500Y-89625000D03*
X230012500Y-88125000D03*
X230012500Y-86625000D03*
X230012500Y-85125000D03*
X230012500Y-83625000D03*
X230012500Y-82125000D03*
X230012500Y-80625000D03*
X230012500Y-79125000D03*
D11*
X221122500Y-84225000D03*
X222222500Y-84225000D03*
X223322500Y-84225000D03*
X221122500Y-85325000D03*
X222222500Y-85325000D03*
X223322500Y-85325000D03*
X221122500Y-86425000D03*
X222222500Y-86425000D03*
X223322500Y-86425000D03*
%TD*%
D12*
%TO.C,R11*%
X183500000Y-97837500D03*
X183500000Y-99662500D03*
%TD*%
D13*
%TO.C,J3*%
X205087500Y-101500000D03*
D14*
X226087500Y-101500000D03*
D15*
X223462500Y-98700000D03*
X220962500Y-98700000D03*
X218462500Y-98700000D03*
X215962500Y-98700000D03*
X213462500Y-98700000D03*
X210962500Y-98700000D03*
X208537500Y-98700000D03*
X206837500Y-98700000D03*
X225962500Y-98700000D03*
D16*
X205537500Y-98700000D03*
D17*
X202937500Y-100500000D03*
X228037500Y-100500000D03*
X230237500Y-122000000D03*
X202937500Y-122000000D03*
D16*
X204337500Y-98700000D03*
%TD*%
D12*
%TO.C,R4*%
X174000000Y-116837500D03*
X174000000Y-118662500D03*
%TD*%
D18*
%TO.C,U4*%
X179000000Y-105685000D03*
X179500000Y-105685000D03*
X180000000Y-105685001D03*
X180500000Y-105685000D03*
X181000000Y-105685000D03*
D19*
X181935000Y-104750000D03*
X181935000Y-104250000D03*
X181935001Y-103750000D03*
X181935000Y-103250000D03*
X181935000Y-102750000D03*
D18*
X181000000Y-101815000D03*
X180500000Y-101815000D03*
X180000000Y-101814999D03*
X179500000Y-101815000D03*
X179000000Y-101815000D03*
D19*
X178065000Y-102750000D03*
X178065000Y-103250000D03*
X178064999Y-103750000D03*
X178065000Y-104250000D03*
X178065000Y-104750000D03*
D20*
X180000000Y-103750000D03*
%TD*%
D21*
%TO.C,LED5*%
X174750000Y-103550000D03*
X174750000Y-101750000D03*
%TD*%
D12*
%TO.C,R8*%
X155735000Y-113245000D03*
X155735000Y-115070000D03*
%TD*%
%TO.C,R3*%
X174000000Y-120425000D03*
X174000000Y-122250000D03*
%TD*%
D22*
%TO.C,J4*%
X178079999Y-74750000D03*
D23*
X175539999Y-74750000D03*
X173000000Y-74750000D03*
X170459999Y-74750000D03*
%TD*%
D24*
%TO.C,J2*%
X155185000Y-122207500D03*
X157185000Y-122207500D03*
D25*
X152785000Y-119957500D03*
X159585000Y-119957500D03*
%TD*%
D26*
%TO.C,REF\u002A\u002A*%
X152250000Y-104000000D03*
%TD*%
D27*
%TO.C,R20*%
X207500000Y-88662500D03*
X207500000Y-86837500D03*
%TD*%
D28*
%TO.C,C13*%
X218199999Y-95837500D03*
X216300001Y-95837500D03*
%TD*%
D29*
%TO.C,R16*%
X201912500Y-96500000D03*
X200087500Y-96500000D03*
%TD*%
D30*
%TO.C,C7*%
X207000000Y-79940000D03*
X207000000Y-82560000D03*
%TD*%
%TO.C,C9*%
X187750000Y-104870000D03*
X187750000Y-102250000D03*
%TD*%
D12*
%TO.C,R7*%
X158685000Y-113245000D03*
X158685000Y-115070000D03*
%TD*%
D31*
%TO.C,C10*%
X184750000Y-102550001D03*
X184750000Y-104449999D03*
%TD*%
D27*
%TO.C,R6*%
X163800000Y-115232500D03*
X163800000Y-113407500D03*
%TD*%
D26*
%TO.C,REF\u002A\u002A*%
X152250000Y-84500000D03*
%TD*%
D32*
%TO.C,C1*%
X186500000Y-111949999D03*
X186500000Y-110050001D03*
%TD*%
D12*
%TO.C,R15*%
X209750000Y-86837500D03*
X209750000Y-88662500D03*
%TD*%
D33*
%TO.C,TP5*%
X197400000Y-85400000D03*
%TD*%
D12*
%TO.C,R14*%
X171750000Y-105837500D03*
X171750000Y-107662500D03*
%TD*%
%TO.C,R2*%
X168300000Y-113407500D03*
X168300000Y-115232500D03*
%TD*%
D34*
%TO.C,F1*%
X172780000Y-110400000D03*
X176020000Y-110400000D03*
%TD*%
D12*
%TO.C,R18*%
X174750000Y-105837500D03*
X174750000Y-107662500D03*
%TD*%
D35*
%TO.C,U1*%
X169185000Y-121142500D03*
X169185000Y-120642500D03*
X169185001Y-120142500D03*
X169185000Y-119642500D03*
X169185000Y-119142500D03*
D36*
X168250000Y-118207500D03*
X167750000Y-118207500D03*
X167250000Y-118207499D03*
X166750000Y-118207500D03*
X166250000Y-118207500D03*
D35*
X165315000Y-119142500D03*
X165315000Y-119642500D03*
X165314999Y-120142500D03*
X165315000Y-120642500D03*
X165315000Y-121142500D03*
D36*
X166250000Y-122077500D03*
X166750000Y-122077500D03*
X167250000Y-122077501D03*
X167750000Y-122077500D03*
X168250000Y-122077500D03*
D37*
X167250000Y-120142500D03*
%TD*%
D29*
%TO.C,R13*%
X192412500Y-106500000D03*
X190587500Y-106500000D03*
%TD*%
D38*
%TO.C,U5*%
X181699999Y-109412500D03*
X180750000Y-109412500D03*
X179800001Y-109412500D03*
X179800001Y-111687500D03*
X180750000Y-111687500D03*
X181699999Y-111687500D03*
%TD*%
D21*
%TO.C,LED6*%
X171750000Y-103650000D03*
X171750000Y-101850000D03*
%TD*%
D28*
%TO.C,C6*%
X168435000Y-124207500D03*
X166535002Y-124207500D03*
%TD*%
D33*
%TO.C,TP3*%
X204600000Y-91400000D03*
%TD*%
%TO.C,TP2*%
X198900000Y-102300000D03*
%TD*%
D32*
%TO.C,C8*%
X210250000Y-80949999D03*
X210250000Y-79050001D03*
%TD*%
D39*
%TO.C,C12*%
X213620000Y-95587500D03*
X211000000Y-95587500D03*
%TD*%
D21*
%TO.C,LED3*%
X159134999Y-110707500D03*
X159134999Y-108907500D03*
%TD*%
D27*
%TO.C,R5*%
X161300000Y-115232500D03*
X161300000Y-113407500D03*
%TD*%
D32*
%TO.C,C11*%
X190750000Y-104509999D03*
X190750000Y-102610001D03*
%TD*%
D40*
%TO.C,J1*%
X177980000Y-114370000D03*
X178480000Y-114370000D03*
X178980000Y-114370000D03*
X179480000Y-114370000D03*
X179980000Y-114370000D03*
X180480000Y-114370000D03*
X180980000Y-114370000D03*
X181480000Y-114370000D03*
X181980000Y-114370000D03*
X182480000Y-114370000D03*
X182980000Y-114370000D03*
X183480000Y-114370000D03*
D41*
X183530000Y-115620000D03*
X183130000Y-116330000D03*
X182330000Y-116330000D03*
X181930000Y-115620000D03*
X181530000Y-116330000D03*
X181130000Y-115620000D03*
X180330000Y-115620000D03*
X179930000Y-116330000D03*
X179530000Y-115620000D03*
X179130000Y-116330000D03*
X178330000Y-116330000D03*
X177930000Y-115620000D03*
X182730000Y-115620000D03*
X178730000Y-115620000D03*
D42*
X180730000Y-118950000D03*
X180730000Y-122050000D03*
D43*
X176460000Y-116770000D03*
X185000000Y-116770000D03*
X176460000Y-121500000D03*
X185000000Y-121500000D03*
%TD*%
D21*
%TO.C,LED1*%
X152435000Y-110707500D03*
X152435000Y-108907500D03*
%TD*%
D12*
%TO.C,R9*%
X152785000Y-113245000D03*
X152785000Y-115070000D03*
%TD*%
D22*
%TO.C,J5*%
X163079999Y-74750000D03*
D23*
X160539999Y-74750000D03*
X158000000Y-74750000D03*
X155459999Y-74750000D03*
X152919999Y-74750000D03*
%TD*%
D44*
%TO.C,R12*%
X190587500Y-108500000D03*
X192412500Y-108500000D03*
%TD*%
D21*
%TO.C,LED2*%
X155785000Y-110707500D03*
X155785000Y-108907500D03*
%TD*%
D26*
%TO.C,REF\u002A\u002A*%
X190600000Y-84600000D03*
%TD*%
D33*
%TO.C,TP4*%
X227800000Y-95900000D03*
%TD*%
D27*
%TO.C,R1*%
X166050000Y-115232500D03*
X166050000Y-113407500D03*
%TD*%
D12*
%TO.C,R19*%
X223250000Y-94325000D03*
X223250000Y-96150000D03*
%TD*%
D33*
%TO.C,TP1*%
X200800000Y-99400000D03*
%TD*%
D27*
%TO.C,R24*%
X190250000Y-75250000D03*
X190250000Y-73425000D03*
%TD*%
D45*
%TO.C,U2*%
X186274999Y-73367500D03*
X186925000Y-73367500D03*
X187575000Y-73367500D03*
X188225001Y-73367500D03*
X188225001Y-75307500D03*
X187575000Y-75307500D03*
X186925000Y-75307500D03*
X186274999Y-75307500D03*
%TD*%
D46*
%TO.C,C15*%
X186300000Y-77337500D03*
X188200000Y-77337500D03*
%TD*%
D27*
%TO.C,R25*%
X192500000Y-75250000D03*
X192500000Y-73425000D03*
%TD*%
D46*
%TO.C,C21*%
X197300000Y-121250000D03*
X199200000Y-121250000D03*
%TD*%
%TO.C,C22*%
X191325000Y-121250000D03*
X193225000Y-121250000D03*
%TD*%
D44*
%TO.C,R34*%
X197337500Y-118750000D03*
X199162500Y-118750000D03*
%TD*%
D29*
%TO.C,R33*%
X193187500Y-118500000D03*
X191362500Y-118500000D03*
%TD*%
D47*
%TO.C,Q2*%
X191275000Y-116250000D03*
X193175000Y-116250000D03*
X192225000Y-114250000D03*
%TD*%
%TO.C,Q3*%
X197300000Y-116250000D03*
X199200000Y-116250000D03*
X198250000Y-114250000D03*
%TD*%
D12*
%TO.C,R32*%
X188275000Y-119337500D03*
X188275000Y-121162500D03*
%TD*%
D48*
%TO.C,S2*%
X191000000Y-123670000D03*
X193550000Y-123670000D03*
X191000000Y-124830000D03*
X193550000Y-124830000D03*
%TD*%
%TO.C,S1*%
X196975000Y-123670000D03*
X199525000Y-123670000D03*
X196975000Y-124830000D03*
X199525000Y-124830000D03*
%TD*%
D29*
%TO.C,R29*%
X171162500Y-86329999D03*
X169337500Y-86329999D03*
%TD*%
%TO.C,R27*%
X171162501Y-88579999D03*
X169337501Y-88579999D03*
%TD*%
D44*
%TO.C,R26*%
X174087500Y-80079999D03*
X175912500Y-80079999D03*
%TD*%
D49*
%TO.C,MK1*%
X158550000Y-86780000D03*
X158550000Y-84880000D03*
%TD*%
D32*
%TO.C,C20*%
X180750000Y-84529998D03*
X180750000Y-82630000D03*
%TD*%
D50*
%TO.C,U7*%
X174358001Y-84499999D03*
X175008001Y-84500000D03*
X175658001Y-84499999D03*
X175658001Y-82579999D03*
X174358001Y-82579999D03*
%TD*%
D28*
%TO.C,C17*%
X166000000Y-88329999D03*
X164100002Y-88329999D03*
%TD*%
D29*
%TO.C,R28*%
X165887500Y-85330000D03*
X164062500Y-85330000D03*
%TD*%
D28*
%TO.C,C16*%
X165924999Y-82579999D03*
X164025001Y-82579999D03*
%TD*%
D44*
%TO.C,R30*%
X169337499Y-84080000D03*
X171162499Y-84080000D03*
%TD*%
D46*
%TO.C,C18*%
X174050001Y-87079999D03*
X175949999Y-87079999D03*
%TD*%
D28*
%TO.C,C19*%
X171199998Y-81830000D03*
X169300000Y-81830000D03*
%TD*%
D27*
%TO.C,R31*%
X178500001Y-84492499D03*
X178500001Y-82667499D03*
%TD*%
D51*
%TO.C,Q1*%
X182745000Y-92200000D03*
X182745000Y-93300000D03*
D52*
X186255000Y-92750000D03*
%TD*%
D29*
%TO.C,R23*%
X185750000Y-90200000D03*
X183925000Y-90200000D03*
%TD*%
D53*
%TO.C,U6*%
X193400000Y-90395000D03*
X193400000Y-91665000D03*
X193400000Y-92935000D03*
X193400000Y-94205000D03*
X200600000Y-94205000D03*
X200600000Y-92935000D03*
X200600000Y-91665000D03*
X200600000Y-90395000D03*
%TD*%
D29*
%TO.C,R22*%
X198262500Y-96450000D03*
X196437500Y-96450000D03*
%TD*%
D32*
%TO.C,C14*%
X191100000Y-94450000D03*
X191100000Y-92550002D03*
%TD*%
D44*
%TO.C,R10*%
X158337500Y-92000000D03*
X160162500Y-92000000D03*
%TD*%
D31*
%TO.C,C5*%
X155750000Y-96050001D03*
X155750000Y-97949999D03*
%TD*%
D54*
%TO.C,LED4*%
X156400000Y-92250000D03*
X154600000Y-92250000D03*
%TD*%
D39*
%TO.C,C3*%
X166370000Y-102750000D03*
X163750000Y-102750000D03*
%TD*%
D28*
%TO.C,C2*%
X166199999Y-106000000D03*
X164300001Y-106000000D03*
%TD*%
D30*
%TO.C,C4*%
X159500000Y-95380000D03*
X159500000Y-98000000D03*
%TD*%
D55*
%TO.C,VR1*%
X163200000Y-98500000D03*
X165500000Y-98500000D03*
X167800000Y-98500000D03*
D56*
X165500000Y-92700000D03*
%TD*%
M02*
