M48
; DRILL file {KiCad 9.0.6} date 2026-01-05T18:32:51+0530
; FORMAT={-:-/ absolute / metric / decimal}
; #@! TF.CreationDate,2026-01-05T18:32:51+05:30
; #@! TF.GenerationSoftware,Kicad,Pcbnew,9.0.6
; #@! TF.FileFunction,Plated,1,4,PTH
FMAT,2
METRIC
; #@! TA.AperFunction,Plated,PTH,ViaDrill
T1C0.300
; #@! TA.AperFunction,Plated,PTH,ComponentDrill
T2C0.300
; #@! TA.AperFunction,Plated,PTH,ViaDrill
T3C0.400
; #@! TA.AperFunction,Plated,PTH,ComponentDrill
T4C0.450
; #@! TA.AperFunction,Plated,PTH,ComponentDrill
T5C0.650
; #@! TA.AperFunction,Plated,PTH,ComponentDrill
T6C0.700
; #@! TA.AperFunction,Plated,PTH,ComponentDrill
T7C1.000
%
G90
G05
T1
X152.9Y-93.6
X153.75Y-123.0
X153.75Y-123.75
X153.75Y-124.5
X153.9Y-96.0
X154.0Y-108.907
X154.8Y-100.1
X156.5Y-100.1
X157.4Y-108.907
X158.8Y-100.1
X160.0Y-101.3
X160.0Y-102.9
X160.0Y-104.4
X160.0Y-105.9
X160.5Y-116.3
X160.9Y-117.2
X161.0Y-90.4
X162.2Y-104.4
X162.2Y-105.9
X162.6Y-113.407
X162.8Y-91.1
X163.667Y-91.1
X164.533Y-91.1
X164.9Y-113.407
X164.9Y-117.8
X164.9Y-124.8
X165.4Y-91.1
X166.267Y-91.1
X166.291Y-81.091
X166.5Y-123.1
X167.133Y-91.1
X167.2Y-113.407
X167.25Y-123.05
X167.965Y-116.3
X168.0Y-91.1
X168.0Y-123.0
X168.8Y-116.9
X169.9Y-124.6
X170.3Y-119.2
X170.6Y-121.0
X170.7Y-119.8
X171.27Y-109.1
X171.27Y-110.35
X171.27Y-111.6
X171.6Y-80.63
X171.8Y-100.0
X172.3Y-85.9
X173.5Y-82.2
X174.05Y-88.45
X174.7Y-100.2
X175.95Y-88.25
X177.2Y-80.0
X177.3Y-113.0
X177.6Y-109.1
X177.6Y-110.4
X177.6Y-111.7
X178.4Y-113.0
X178.6Y-111.7
X179.5Y-100.5
X179.8Y-99.7
X179.8Y-107.5
X180.6Y-92.2
X180.724Y-112.798
X180.939Y-100.661
X182.85Y-111.65
X183.5Y-96.5
X183.7Y-111.95
X185.2Y-73.367
X185.5Y-74.0
X186.2Y-104.87
X186.249Y-76.1
X186.8Y-90.3
X188.251Y-76.0
X188.3Y-118.1
X188.635Y-110.412
X189.3Y-102.25
X191.1Y-95.5
X191.3Y-91.3
X192.3Y-76.5
X194.2Y-121.2
X196.1Y-117.6
X196.94Y-97.562
X197.1Y-98.3
X197.581Y-112.337
X200.1Y-121.3
X200.125Y-88.349
X200.7Y-114.2
X201.4Y-123.0
X202.1Y-83.4
X202.2Y-82.7
X202.4Y-86.4
X202.5Y-104.3
X202.9Y-81.201
X203.0Y-82.7
X203.1Y-79.3
X203.533Y-78.633
X204.6Y-83.061
X205.6Y-89.7
X206.0Y-97.2
X206.35Y-89.375
X209.9Y-94.4
X210.35Y-84.063
X212.9Y-94.2
X214.4Y-86.4
X215.274Y-88.975
X217.3Y-94.2
X218.75Y-81.05
X221.3Y-94.8
X226.8Y-80.2
X226.835Y-88.365
X227.2Y-87.8
X227.3Y-123.1
X227.9Y-91.2
X228.1Y-81.7
X228.4Y-88.0
X228.8Y-87.0
X229.5Y-94.7
X229.7Y-100.3
X231.799Y-81.3
T2
X221.123Y-84.775
X221.123Y-85.875
X221.672Y-84.225
X221.672Y-85.325
X221.672Y-86.425
X222.222Y-84.775
X222.222Y-85.875
X222.772Y-84.225
X222.772Y-85.325
X222.772Y-86.425
X223.322Y-84.775
X223.322Y-85.875
T3
X204.387Y-80.476
T4
X177.93Y-115.62
X178.33Y-116.33
X178.73Y-115.62
X179.13Y-116.33
X179.53Y-115.62
X179.93Y-116.33
X180.33Y-115.62
X181.13Y-115.62
X181.53Y-116.33
X181.93Y-115.62
X182.33Y-116.33
X182.73Y-115.62
X183.13Y-116.33
X183.53Y-115.62
T6
X158.55Y-84.88
X158.55Y-86.78
T7
X152.92Y-74.75
X155.46Y-74.75
X158.0Y-74.75
X160.54Y-74.75
X163.08Y-74.75
X170.46Y-74.75
X173.0Y-74.75
X175.54Y-74.75
X178.08Y-74.75
T5
G00X176.46Y-116.47
M15
G01X176.46Y-117.07
M16
G05
G00X176.46Y-121.2
M15
G01X176.46Y-121.8
M16
G05
G00X185.0Y-116.47
M15
G01X185.0Y-117.07
M16
G05
G00X185.0Y-121.2
M15
G01X185.0Y-121.8
M16
G05
M30
