M48
; DRILL file {KiCad 9.0.6} date 2026-01-05T18:11:24+0530
; FORMAT={-:-/ absolute / inch / decimal}
; #@! TF.CreationDate,2026-01-05T18:11:24+05:30
; #@! TF.GenerationSoftware,Kicad,Pcbnew,9.0.6
; #@! TF.FileFunction,Plated,1,4,PTH
FMAT,2
INCH
; #@! TA.AperFunction,Plated,PTH,ViaDrill
T1C0.0118
; #@! TA.AperFunction,Plated,PTH,ComponentDrill
T2C0.0118
; #@! TA.AperFunction,Plated,PTH,ViaDrill
T3C0.0157
; #@! TA.AperFunction,Plated,PTH,ComponentDrill
T4C0.0177
; #@! TA.AperFunction,Plated,PTH,ComponentDrill
T5C0.0256
; #@! TA.AperFunction,Plated,PTH,ComponentDrill
T6C0.0276
; #@! TA.AperFunction,Plated,PTH,ComponentDrill
T7C0.0394
%
G90
G05
T1
X6.0197Y-3.685
X6.0531Y-4.8425
X6.0531Y-4.872
X6.0531Y-4.9016
X6.0591Y-3.7795
X6.063Y-4.2877
X6.0945Y-3.9409
X6.1614Y-3.9409
X6.1969Y-4.2877
X6.252Y-3.9409
X6.2992Y-3.9882
X6.2992Y-4.0512
X6.2992Y-4.1102
X6.2992Y-4.1693
X6.3189Y-4.5787
X6.3346Y-4.6142
X6.3386Y-3.5591
X6.3858Y-4.1102
X6.3858Y-4.1693
X6.4016Y-4.4649
X6.4094Y-3.5866
X6.4436Y-3.5866
X6.4777Y-3.5866
X6.4921Y-4.4649
X6.4921Y-4.6378
X6.4921Y-4.9134
X6.5118Y-3.5866
X6.5459Y-3.5866
X6.5469Y-3.1926
X6.5551Y-4.8465
X6.5801Y-3.5866
X6.5827Y-4.4649
X6.5846Y-4.8445
X6.6128Y-4.5787
X6.6142Y-3.5866
X6.6142Y-4.8425
X6.6457Y-4.6024
X6.689Y-4.9055
X6.7047Y-4.6929
X6.7165Y-4.7638
X6.7205Y-4.7165
X6.7429Y-4.2953
X6.7429Y-4.3445
X6.7429Y-4.3937
X6.7559Y-3.1744
X6.7638Y-3.937
X6.7835Y-3.3819
X6.8307Y-3.2362
X6.8524Y-3.4823
X6.878Y-3.9449
X6.9272Y-3.4744
X6.9764Y-3.1496
X6.9803Y-4.4488
X6.9921Y-4.2953
X6.9921Y-4.3465
X6.9921Y-4.3976
X7.0236Y-4.4488
X7.0315Y-4.3976
X7.0669Y-3.9567
X7.0787Y-3.9252
X7.0787Y-4.2323
X7.1102Y-3.6299
X7.1151Y-4.4409
X7.1236Y-3.963
X7.1988Y-4.3957
X7.2244Y-3.7992
X7.2323Y-4.4075
X7.2913Y-2.8885
X7.3031Y-2.9134
X7.3307Y-4.1287
X7.3326Y-2.9961
X7.3543Y-3.5551
X7.4115Y-2.9921
X7.4134Y-4.6496
X7.4266Y-4.3469
X7.4528Y-4.0256
X7.5236Y-3.7598
X7.5315Y-3.5945
X7.5709Y-3.0118
X7.6457Y-4.7717
X7.7205Y-4.6299
X7.7536Y-3.841
X7.7598Y-3.8701
X7.7788Y-4.4227
X7.878Y-4.7756
X7.8789Y-3.4783
X7.9016Y-4.4961
X7.9291Y-4.8425
X7.9567Y-3.2835
X7.9606Y-3.2559
X7.9685Y-3.4016
X7.9724Y-4.1063
X7.9882Y-3.1969
X7.9921Y-3.2559
X7.9961Y-3.122
X8.0131Y-3.0958
X8.0551Y-3.2701
X8.0945Y-3.5315
X8.1102Y-3.8268
X8.124Y-3.5187
X8.2638Y-3.7165
X8.2815Y-3.3096
X8.3819Y-3.7087
X8.4409Y-3.4016
X8.4754Y-3.503
X8.5551Y-3.7087
X8.6122Y-3.1909
X8.7126Y-3.7323
X8.9291Y-3.1575
X8.9305Y-3.4789
X8.9488Y-4.8465
X8.9549Y-3.4459
X8.9724Y-3.5906
X8.9803Y-3.2165
X8.9921Y-3.4646
X9.0079Y-3.4252
X9.0354Y-3.7283
X9.0433Y-3.9488
X9.1259Y-3.2008
T2
X8.7056Y-3.3376
X8.7056Y-3.3809
X8.7273Y-3.3159
X8.7273Y-3.3593
X8.7273Y-3.4026
X8.7489Y-3.3376
X8.7489Y-3.3809
X8.7706Y-3.3159
X8.7706Y-3.3593
X8.7706Y-3.4026
X8.7922Y-3.3376
X8.7922Y-3.3809
T3
X8.0467Y-3.1683
T4
X7.0051Y-4.552
X7.0209Y-4.5799
X7.0366Y-4.552
X7.0524Y-4.5799
X7.0681Y-4.552
X7.0839Y-4.5799
X7.0996Y-4.552
X7.1311Y-4.552
X7.1469Y-4.5799
X7.1626Y-4.552
X7.1783Y-4.5799
X7.1941Y-4.552
X7.2098Y-4.5799
X7.2256Y-4.552
T6
X6.2421Y-3.3417
X6.2421Y-3.4165
T7
X6.0205Y-2.9429
X6.1205Y-2.9429
X6.2205Y-2.9429
X6.3205Y-2.9429
X6.4205Y-2.9429
X6.711Y-2.9429
X6.811Y-2.9429
X6.911Y-2.9429
X7.011Y-2.9429
T5
G00X6.9472Y-4.5854
M15
G01X6.9472Y-4.6091
M16
G05
G00X6.9472Y-4.7717
M15
G01X6.9472Y-4.7953
M16
G05
G00X7.2835Y-4.5854
M15
G01X7.2835Y-4.6091
M16
G05
G00X7.2835Y-4.7717
M15
G01X7.2835Y-4.7953
M16
G05
M30
