%TF.GenerationSoftware,KiCad,Pcbnew,9.0.6*%
%TF.CreationDate,2026-01-05T18:11:24+05:30*%
%TF.ProjectId,ESP32_based_dev_board,45535033-325f-4626-9173-65645f646576,rev?*%
%TF.SameCoordinates,Original*%
%TF.FileFunction,Copper,L4,Bot*%
%TF.FilePolarity,Positive*%
%FSLAX46Y46*%
G04 Gerber Fmt 4.6, Leading zero omitted, Abs format (unit mm)*
G04 Created by KiCad (PCBNEW 9.0.6) date 2026-01-05 18:11:24*
%MOMM*%
%LPD*%
G01*
G04 APERTURE LIST*
%TA.AperFunction,ComponentPad*%
%ADD10C,0.400000*%
%TD*%
%TA.AperFunction,ComponentPad*%
%ADD11R,1.700000X1.700000*%
%TD*%
%TA.AperFunction,ComponentPad*%
%ADD12C,1.700000*%
%TD*%
%TA.AperFunction,ComponentPad*%
%ADD13C,0.650000*%
%TD*%
%TA.AperFunction,ComponentPad*%
%ADD14O,1.050000X2.100000*%
%TD*%
%TA.AperFunction,ComponentPad*%
%ADD15C,1.208000*%
%TD*%
%TA.AperFunction,ViaPad*%
%ADD16C,0.500000*%
%TD*%
%TA.AperFunction,ViaPad*%
%ADD17C,0.600000*%
%TD*%
%TA.AperFunction,ViaPad*%
%ADD18C,0.800000*%
%TD*%
%TA.AperFunction,Conductor*%
%ADD19C,0.254000*%
%TD*%
%TA.AperFunction,Conductor*%
%ADD20C,0.300000*%
%TD*%
%TA.AperFunction,Conductor*%
%ADD21C,0.250000*%
%TD*%
%TA.AperFunction,Conductor*%
%ADD22C,0.200000*%
%TD*%
G04 APERTURE END LIST*
D10*
%TO.P,U3,28,GND*%
%TO.N,GND*%
X221672500Y-84225000D03*
%TO.P,U3,29,GND*%
X222772500Y-84225000D03*
%TO.P,U3,30,GND*%
X221122500Y-84775000D03*
%TO.P,U3,31,GND*%
X222222500Y-84775000D03*
%TO.P,U3,32,GND*%
X223322500Y-84775000D03*
%TO.P,U3,33,GND*%
X221672500Y-85325000D03*
%TO.P,U3,34,GND*%
X222772500Y-85325000D03*
%TO.P,U3,35,GND*%
X221122500Y-85875000D03*
%TO.P,U3,36,GND*%
X222222500Y-85875000D03*
%TO.P,U3,37,GND*%
X223322500Y-85875000D03*
%TO.P,U3,38,GND*%
X221672500Y-86425000D03*
%TO.P,U3,39,GND*%
X222772500Y-86425000D03*
%TD*%
D11*
%TO.P,J4,1,Pin_1*%
%TO.N,+3.3V*%
X178079999Y-74750000D03*
D12*
%TO.P,J4,2,Pin_2*%
%TO.N,/ESP32-C3-02/SDA*%
X175539999Y-74750000D03*
%TO.P,J4,3,Pin_3*%
%TO.N,/ESP32-C3-02/SCL*%
X173000000Y-74750000D03*
%TO.P,J4,4,Pin_4*%
%TO.N,GND*%
X170459999Y-74750000D03*
%TD*%
D13*
%TO.P,J1,B1,GNDB1*%
%TO.N,GND*%
X183530000Y-115620000D03*
%TO.P,J1,B2,SSTXP2*%
%TO.N,unconnected-(J1-SSTXP2-PadB2)*%
X183130000Y-116330000D03*
%TO.P,J1,B3,SSTXN2*%
%TO.N,unconnected-(J1-SSTXN2-PadB3)*%
X182330000Y-116330000D03*
%TO.P,J1,B4,VBUSB1*%
%TO.N,/VBUS*%
X181930000Y-115620000D03*
%TO.P,J1,B5,CC2*%
%TO.N,Net-(J1-CC2)*%
X181530000Y-116330000D03*
%TO.P,J1,B6,DP2*%
%TO.N,/USB_DP*%
X181130000Y-115620000D03*
%TO.P,J1,B7,DN2*%
%TO.N,/USB_DN*%
X180330000Y-115620000D03*
%TO.P,J1,B8,SBU2*%
%TO.N,unconnected-(J1-SBU2-PadB8)*%
X179930000Y-116330000D03*
%TO.P,J1,B9,VBUSB2*%
%TO.N,/VBUS*%
X179530000Y-115620000D03*
%TO.P,J1,B10,SSRXN1*%
%TO.N,unconnected-(J1-SSRXN1-PadB10)*%
X179130000Y-116330000D03*
%TO.P,J1,B11,SSRXP1*%
%TO.N,unconnected-(J1-SSRXP1-PadB11)*%
X178330000Y-116330000D03*
%TO.P,J1,B12,GNDB2*%
%TO.N,GND*%
X177930000Y-115620000D03*
%TO.P,J1,G1,GND/SHIELD*%
X182730000Y-115620000D03*
%TO.P,J1,G2,GND/SHIELD*%
X178730000Y-115620000D03*
D14*
%TO.P,J1,S1,GND/SHIELD*%
X176460000Y-116770000D03*
%TO.P,J1,S2,GND/SHIELD*%
X185000000Y-116770000D03*
%TO.P,J1,S3,GND/SHIELD*%
X176460000Y-121500000D03*
%TO.P,J1,S4,GND/SHIELD*%
X185000000Y-121500000D03*
%TD*%
D11*
%TO.P,J5,1,Pin_1*%
%TO.N,+3.3V*%
X163079999Y-74750000D03*
D12*
%TO.P,J5,2,Pin_2*%
%TO.N,/ESP32-C3-02/GPIO8*%
X160539999Y-74750000D03*
%TO.P,J5,3,Pin_3*%
%TO.N,/ESP32-C3-02/GPIO18*%
X158000000Y-74750000D03*
%TO.P,J5,4,Pin_4*%
%TO.N,/ESP32-C3-02/GPIO19*%
X155459999Y-74750000D03*
%TO.P,J5,5,Pin_5*%
%TO.N,GND*%
X152919999Y-74750000D03*
%TD*%
D15*
%TO.P,MK1,GND*%
%TO.N,GND*%
X158550000Y-86780000D03*
%TO.P,MK1,OUT*%
%TO.N,Net-(C17-Pad2)*%
X158550000Y-84880000D03*
%TD*%
D16*
%TO.N,GND*%
X194200000Y-121200000D03*
X200100000Y-121300000D03*
X180600000Y-92200000D03*
%TO.N,/ESP32-C3-02/BOOT*%
X200700000Y-114200000D03*
%TO.N,/ESP32-C3-02/TX_RX*%
X226834971Y-88365029D03*
X196940295Y-97562254D03*
%TO.N,/ESP32-C3-02/RX_TX*%
X197100000Y-98300000D03*
%TO.N,/ESP32-C3-02/BOOT*%
X215274461Y-88975000D03*
%TO.N,/ESP32-C3-02/GPIO18*%
X228800000Y-87000000D03*
%TO.N,/ESP32-C3-02/GPIO19*%
X202100000Y-83400000D03*
%TO.N,/ESP32-C3-02/GPIO18*%
X202200000Y-82700000D03*
%TO.N,/ESP32-C3-02/GPIO19*%
X227453743Y-87526000D03*
%TO.N,/ESP32-C3-02/SDA*%
X203100000Y-79300000D03*
X218750000Y-81050000D03*
%TO.N,/ESP32-C3-02/SCL*%
X226800000Y-80200000D03*
X203532873Y-78632873D03*
%TO.N,/+5V_USB*%
X166500000Y-123100000D03*
X170300000Y-119200000D03*
%TO.N,GND*%
X169900000Y-124600000D03*
X170700000Y-119800000D03*
%TO.N,/ESP32-C3-02/CS*%
X227900000Y-91200000D03*
%TO.N,/+5V_USB*%
X168000000Y-123000000D03*
%TO.N,/ESP32-C3-02/CS*%
X206350000Y-89375000D03*
%TO.N,/+5V_USB*%
X167250001Y-123049999D03*
X170600000Y-121000000D03*
%TO.N,+3.3V*%
X186800000Y-90300000D03*
D17*
X186200000Y-104870000D03*
%TO.N,/CHARGING_POWER_GOOD*%
X160500000Y-116300000D03*
D16*
%TO.N,GND*%
X229700000Y-100300000D03*
%TO.N,+3.3V*%
X200125000Y-88349384D03*
%TO.N,GND*%
X227300000Y-123100000D03*
%TO.N,/ESP32-C3-02/RTS*%
X179800000Y-99700000D03*
D18*
%TO.N,+3.3V*%
X204387061Y-80476000D03*
D16*
%TO.N,GND*%
X204600000Y-83061000D03*
X166291409Y-81091409D03*
%TO.N,+3.3V*%
X212900000Y-94200000D03*
X191300000Y-91300000D03*
%TO.N,GND*%
X191100000Y-95500000D03*
X209900000Y-94400000D03*
%TO.N,/ESP32-C3-02/GPIO8*%
X203000000Y-82700000D03*
X214400000Y-86400000D03*
%TO.N,+3.3V*%
X174050002Y-88449998D03*
X153900000Y-96000000D03*
%TO.N,GND*%
X161000000Y-90400000D03*
X167200000Y-113407500D03*
%TO.N,+3.3V*%
X152900000Y-93600000D03*
X174700000Y-100200000D03*
X183500000Y-96500000D03*
X171800000Y-100000000D03*
%TO.N,GND*%
X188634650Y-110412468D03*
X164900000Y-113407500D03*
D17*
%TO.N,/CHARGING*%
X160900000Y-117200000D03*
X168800000Y-116900000D03*
D16*
%TO.N,/VBUS*%
X178400000Y-113000000D03*
%TO.N,+3.3V*%
X177200000Y-80000000D03*
%TO.N,GND*%
X188251000Y-76000000D03*
%TO.N,/ESP32-C3-02/CS_SD*%
X231798517Y-81300000D03*
X229500000Y-94700000D03*
%TO.N,+3.3V*%
X173500000Y-82200000D03*
%TO.N,/+5V_USB*%
X157400000Y-108907500D03*
%TO.N,GND*%
X177300000Y-113000000D03*
%TO.N,/+5V_USB*%
X154000000Y-108907500D03*
X164900000Y-124800000D03*
%TO.N,GND*%
X162600000Y-113407500D03*
X164900000Y-117800000D03*
%TO.N,+3.3V*%
X163666667Y-91100000D03*
X162800000Y-91100000D03*
%TO.N,GND*%
X158800000Y-100100000D03*
X160000000Y-102900000D03*
X156500000Y-100100000D03*
X162200000Y-105900000D03*
X154800000Y-100100000D03*
X162200000Y-104400000D03*
X160000000Y-105900000D03*
X160000000Y-104400000D03*
X160000000Y-101300000D03*
%TO.N,+3.3V*%
X165400000Y-91100000D03*
X164533333Y-91100000D03*
X166266667Y-91100000D03*
X167133333Y-91100000D03*
X168000000Y-91100000D03*
%TO.N,GND*%
X201400000Y-123000000D03*
%TO.N,+3.3V*%
X186249000Y-76100000D03*
X192300000Y-76500000D03*
X185500000Y-74000000D03*
X221300000Y-94800000D03*
%TO.N,GND*%
X217300000Y-94200000D03*
X185200000Y-73367500D03*
X189300000Y-102250000D03*
X206000000Y-97200000D03*
X180938909Y-100661091D03*
%TO.N,/USB_DN*%
X182850000Y-111650000D03*
%TO.N,GND*%
X172300000Y-85900000D03*
X179800000Y-107500000D03*
%TO.N,/VBUS*%
X180723766Y-112798416D03*
%TO.N,+3.3V*%
X188300000Y-118100000D03*
%TO.N,GND*%
X171600000Y-80629999D03*
X175950000Y-88250000D03*
%TO.N,/USB_DP*%
X178600000Y-111700000D03*
%TO.N,/+5V_USB*%
X171270000Y-111600000D03*
%TO.N,/VBUS*%
X177600000Y-111700000D03*
%TO.N,/+5V_USB*%
X171270000Y-109100000D03*
%TO.N,/VBUS*%
X177600000Y-110400000D03*
%TO.N,GND*%
X153750000Y-123750000D03*
%TO.N,/VBUS*%
X177600000Y-109100000D03*
%TO.N,/+5V_USB*%
X171270000Y-110350000D03*
%TO.N,GND*%
X153750000Y-123000000D03*
%TO.N,/ESP32-C3-02/PHOTO_C*%
X210350057Y-84063116D03*
%TO.N,GND*%
X153750000Y-124500000D03*
%TO.N,/ESP32-C3-02/PHOTO_C*%
X228100000Y-81700000D03*
%TO.N,/ESP32-C3-02/RTS*%
X196100000Y-117600000D03*
D17*
%TO.N,/CHARGING_POWER_GOOD*%
X167964682Y-116300000D03*
%TO.N,/ESP32-C3-02/DTR*%
X197580521Y-112337177D03*
X179500000Y-100500000D03*
%TO.N,/VBUS*%
X183700000Y-111949999D03*
D16*
%TO.N,/ESP32-C3-02/RX_TX*%
X228400000Y-88000000D03*
%TO.N,/ESP32-C3-02/EN*%
X202400000Y-86400000D03*
X205600000Y-89700000D03*
X202500000Y-104300000D03*
X202900000Y-81201000D03*
%TD*%
D19*
%TO.N,/USB_DN*%
X180330000Y-115620000D02*
X180330000Y-114170000D01*
X180330000Y-114170000D02*
X182850000Y-111650000D01*
D20*
%TO.N,/ESP32-C3-02/SDA*%
X216282916Y-79125000D02*
X216282916Y-79300000D01*
X215832916Y-79300000D02*
X215832916Y-79125000D01*
X215382916Y-79125000D02*
X215382916Y-79300000D01*
X217007916Y-78950000D02*
G75*
G02*
X217182900Y-79125000I-16J-175000D01*
G01*
X217362916Y-80300000D02*
X217452916Y-80300000D01*
X214932916Y-79125000D02*
G75*
G02*
X215107916Y-78950016I174984J0D01*
G01*
X216732916Y-80120000D02*
X216732916Y-79300000D01*
X215652916Y-80300000D02*
G75*
G03*
X215832900Y-80120000I-16J180000D01*
G01*
X217182916Y-79125000D02*
X217182916Y-79300000D01*
X216732916Y-79125000D02*
G75*
G02*
X216907916Y-78950016I174984J0D01*
G01*
X216007916Y-78950000D02*
X216107916Y-78950000D01*
X216282916Y-79300000D02*
X216282916Y-80120000D01*
X217182916Y-79300000D02*
X217182916Y-79480000D01*
X215382916Y-79300000D02*
X215382916Y-80120000D01*
X217632916Y-80120000D02*
X217632916Y-79480000D01*
X215562916Y-80300000D02*
X215652916Y-80300000D01*
X216907916Y-78950000D02*
X217007916Y-78950000D01*
X216462916Y-80300000D02*
X216552916Y-80300000D01*
X217902916Y-79300000D02*
X218100000Y-79300000D01*
X218100000Y-79300000D02*
X218461482Y-79661482D01*
X217182916Y-79480000D02*
X217182916Y-80120000D01*
X214932916Y-79300000D02*
X214932916Y-79125000D01*
X214932916Y-80120000D02*
X214932916Y-79480000D01*
X214662916Y-80300000D02*
X214752916Y-80300000D01*
X215832916Y-80120000D02*
X215832916Y-79300000D01*
X217812916Y-79300000D02*
X217902916Y-79300000D01*
X215107916Y-78950000D02*
X215207916Y-78950000D01*
X214482916Y-79480000D02*
X214482916Y-80120000D01*
X216732916Y-79300000D02*
X216732916Y-79125000D01*
X214932916Y-79480000D02*
X214932916Y-79300000D01*
X216552916Y-80300000D02*
G75*
G03*
X216732900Y-80120000I-16J180000D01*
G01*
X216282916Y-80120000D02*
G75*
G03*
X216462916Y-80299984I179984J0D01*
G01*
X214752916Y-80300000D02*
G75*
G03*
X214932900Y-80120000I-16J180000D01*
G01*
X216107916Y-78950000D02*
G75*
G02*
X216282900Y-79125000I-16J-175000D01*
G01*
X215382916Y-80120000D02*
G75*
G03*
X215562916Y-80299984I179984J0D01*
G01*
X217632916Y-79480000D02*
G75*
G02*
X217812916Y-79300016I179984J0D01*
G01*
X217452916Y-80300000D02*
G75*
G03*
X217632900Y-80120000I-16J180000D01*
G01*
X217182916Y-80120000D02*
G75*
G03*
X217362916Y-80299984I179984J0D01*
G01*
X214302916Y-79300000D02*
G75*
G02*
X214482900Y-79480000I-16J-180000D01*
G01*
X214482916Y-80120000D02*
G75*
G03*
X214662916Y-80299984I179984J0D01*
G01*
X215207916Y-78950000D02*
G75*
G02*
X215382900Y-79125000I-16J-175000D01*
G01*
X215832916Y-79125000D02*
G75*
G02*
X216007916Y-78950016I174984J0D01*
G01*
D21*
%TO.N,/ESP32-C3-02/GPIO8*%
X206700000Y-86400000D02*
X214400000Y-86400000D01*
X203000000Y-82700000D02*
X206700000Y-86400000D01*
%TO.N,/ESP32-C3-02/RX_TX*%
X205365687Y-88400000D02*
X197500000Y-96265686D01*
X197500000Y-97900000D02*
X197100000Y-98300000D01*
X228013173Y-88000000D02*
X227073144Y-88940029D01*
X227073144Y-88940029D02*
X226544285Y-88940029D01*
%TO.N,/ESP32-C3-02/TX_RX*%
X196940295Y-96259706D02*
X205225001Y-87975000D01*
%TO.N,/ESP32-C3-02/RX_TX*%
X226544285Y-88940029D02*
X226004256Y-88400000D01*
X197500000Y-96265686D02*
X197500000Y-97900000D01*
%TO.N,/ESP32-C3-02/TX_RX*%
X226444942Y-87975000D02*
X226834971Y-88365029D01*
%TO.N,/ESP32-C3-02/RX_TX*%
X226004256Y-88400000D02*
X205365687Y-88400000D01*
X228400000Y-88000000D02*
X228013173Y-88000000D01*
%TO.N,/ESP32-C3-02/TX_RX*%
X205225001Y-87975000D02*
X226444942Y-87975000D01*
X196940295Y-97562254D02*
X196940295Y-96259706D01*
D20*
%TO.N,/ESP32-C3-02/SDA*%
X218461482Y-79661482D02*
X218750000Y-79950000D01*
X218750000Y-79950000D02*
X218750000Y-81050000D01*
D22*
%TO.N,/CHARGING*%
X160900000Y-117200000D02*
X161200000Y-116900000D01*
%TO.N,/CHARGING_POWER_GOOD*%
X160500000Y-116300000D02*
X167964682Y-116300000D01*
%TO.N,/CHARGING*%
X161200000Y-116900000D02*
X168800000Y-116900000D01*
D21*
%TO.N,/ESP32-C3-02/PHOTO_C*%
X212700000Y-81700000D02*
X210350057Y-84049943D01*
X228100000Y-81700000D02*
X212700000Y-81700000D01*
X210350057Y-84049943D02*
X210350057Y-84063116D01*
%TO.N,/ESP32-C3-02/RTS*%
X198300000Y-111600000D02*
X199400000Y-112700000D01*
X185100000Y-103900000D02*
X185100000Y-104900000D01*
X196800000Y-117600000D02*
X196100000Y-117600000D01*
X199400000Y-115000000D02*
X196800000Y-117600000D01*
X191800000Y-111600000D02*
X198300000Y-111600000D01*
X179800000Y-99700000D02*
X180900000Y-99700000D01*
X180900000Y-99700000D02*
X185100000Y-103900000D01*
X199400000Y-112700000D02*
X199400000Y-115000000D01*
X185100000Y-104900000D02*
X191800000Y-111600000D01*
D20*
%TO.N,/ESP32-C3-02/CS_SD*%
X231900000Y-92300000D02*
X231900000Y-81401483D01*
X229500000Y-94700000D02*
X231900000Y-92300000D01*
X231900000Y-81401483D02*
X231798517Y-81300000D01*
D21*
%TO.N,/ESP32-C3-02/BOOT*%
X215099461Y-88800000D02*
X215274461Y-88975000D01*
D20*
%TO.N,/ESP32-C3-02/CS*%
X206500000Y-89225000D02*
X206350000Y-89375000D01*
X206599998Y-89225000D02*
X206500000Y-89225000D01*
D21*
%TO.N,/ESP32-C3-02/BOOT*%
X201900000Y-113000000D02*
X201900000Y-92431372D01*
X200700000Y-114200000D02*
X201900000Y-113000000D01*
X201900000Y-92431372D02*
X205531372Y-88800000D01*
D20*
%TO.N,/ESP32-C3-02/CS*%
X227900000Y-91200000D02*
X208575000Y-91200000D01*
D21*
%TO.N,/ESP32-C3-02/BOOT*%
X205531372Y-88800000D02*
X215099461Y-88800000D01*
D20*
%TO.N,/ESP32-C3-02/CS*%
X208575000Y-91200000D02*
X206599998Y-89225000D01*
D21*
%TO.N,/ESP32-C3-02/GPIO19*%
X206100000Y-87400000D02*
X227327743Y-87400000D01*
X202100000Y-83400000D02*
X206100000Y-87400000D01*
X227327743Y-87400000D02*
X227453743Y-87526000D01*
%TO.N,/ESP32-C3-02/GPIO18*%
X206500000Y-87000000D02*
X228800000Y-87000000D01*
X202200000Y-82700000D02*
X206500000Y-87000000D01*
D20*
%TO.N,/ESP32-C3-02/SDA*%
X214302916Y-79300000D02*
X203100000Y-79300000D01*
D21*
%TO.N,/ESP32-C3-02/EN*%
X201500000Y-82601000D02*
X202900000Y-81201000D01*
X202400000Y-86400000D02*
X201500000Y-85500000D01*
X201500000Y-85500000D02*
X201500000Y-82601000D01*
D20*
%TO.N,/ESP32-C3-02/SCL*%
X203665746Y-78500000D02*
X225100000Y-78500000D01*
X225100000Y-78500000D02*
X226800000Y-80200000D01*
X203532873Y-78632873D02*
X203665746Y-78500000D01*
D21*
%TO.N,/ESP32-C3-02/EN*%
X202500000Y-104300000D02*
X202500000Y-92800000D01*
D22*
%TO.N,/ESP32-C3-02/DTR*%
X191800000Y-112300000D02*
X197543344Y-112300000D01*
X197543344Y-112300000D02*
X197580521Y-112337177D01*
X180000000Y-100500000D02*
X191800000Y-112300000D01*
D21*
%TO.N,/ESP32-C3-02/EN*%
X202500000Y-92800000D02*
X205600000Y-89700000D01*
D22*
%TO.N,/ESP32-C3-02/DTR*%
X179500000Y-100500000D02*
X180000000Y-100500000D01*
%TD*%
M02*
