%TF.GenerationSoftware,KiCad,Pcbnew,9.0.6*%
%TF.CreationDate,2026-01-05T18:11:24+05:30*%
%TF.ProjectId,ESP32_based_dev_board,45535033-325f-4626-9173-65645f646576,rev?*%
%TF.SameCoordinates,Original*%
%TF.FileFunction,Copper,L2,Inr*%
%TF.FilePolarity,Positive*%
%FSLAX46Y46*%
G04 Gerber Fmt 4.6, Leading zero omitted, Abs format (unit mm)*
G04 Created by KiCad (PCBNEW 9.0.6) date 2026-01-05 18:11:24*
%MOMM*%
%LPD*%
G01*
G04 APERTURE LIST*
%TA.AperFunction,ComponentPad*%
%ADD10C,0.400000*%
%TD*%
%TA.AperFunction,ComponentPad*%
%ADD11R,1.700000X1.700000*%
%TD*%
%TA.AperFunction,ComponentPad*%
%ADD12C,1.700000*%
%TD*%
%TA.AperFunction,ComponentPad*%
%ADD13C,0.650000*%
%TD*%
%TA.AperFunction,ComponentPad*%
%ADD14O,1.050000X2.100000*%
%TD*%
%TA.AperFunction,ComponentPad*%
%ADD15C,1.208000*%
%TD*%
%TA.AperFunction,ViaPad*%
%ADD16C,0.500000*%
%TD*%
%TA.AperFunction,ViaPad*%
%ADD17C,0.600000*%
%TD*%
%TA.AperFunction,ViaPad*%
%ADD18C,0.800000*%
%TD*%
%TA.AperFunction,Conductor*%
%ADD19C,0.254000*%
%TD*%
G04 APERTURE END LIST*
D10*
%TO.N,GND*%
%TO.C,U3*%
X221672500Y-84225000D03*
X222772500Y-84225000D03*
X221122500Y-84775000D03*
X222222500Y-84775000D03*
X223322500Y-84775000D03*
X221672500Y-85325000D03*
X222772500Y-85325000D03*
X221122500Y-85875000D03*
X222222500Y-85875000D03*
X223322500Y-85875000D03*
X221672500Y-86425000D03*
X222772500Y-86425000D03*
%TD*%
D11*
%TO.N,+3.3V*%
%TO.C,J4*%
X178079999Y-74750000D03*
D12*
%TO.N,/ESP32-C3-02/SDA*%
X175539999Y-74750000D03*
%TO.N,/ESP32-C3-02/SCL*%
X173000000Y-74750000D03*
%TO.N,GND*%
X170459999Y-74750000D03*
%TD*%
D13*
%TO.N,GND*%
%TO.C,J1*%
X183530000Y-115620000D03*
%TO.N,unconnected-(J1-SSTXP2-PadB2)*%
X183130000Y-116330000D03*
%TO.N,unconnected-(J1-SSTXN2-PadB3)*%
X182330000Y-116330000D03*
%TO.N,/VBUS*%
X181930000Y-115620000D03*
%TO.N,Net-(J1-CC2)*%
X181530000Y-116330000D03*
%TO.N,/USB_DP*%
X181130000Y-115620000D03*
%TO.N,/USB_DN*%
X180330000Y-115620000D03*
%TO.N,unconnected-(J1-SBU2-PadB8)*%
X179930000Y-116330000D03*
%TO.N,/VBUS*%
X179530000Y-115620000D03*
%TO.N,unconnected-(J1-SSRXN1-PadB10)*%
X179130000Y-116330000D03*
%TO.N,unconnected-(J1-SSRXP1-PadB11)*%
X178330000Y-116330000D03*
%TO.N,GND*%
X177930000Y-115620000D03*
X182730000Y-115620000D03*
X178730000Y-115620000D03*
D14*
X176460000Y-116770000D03*
X185000000Y-116770000D03*
X176460000Y-121500000D03*
X185000000Y-121500000D03*
%TD*%
D11*
%TO.N,+3.3V*%
%TO.C,J5*%
X163079999Y-74750000D03*
D12*
%TO.N,/ESP32-C3-02/GPIO8*%
X160539999Y-74750000D03*
%TO.N,/ESP32-C3-02/GPIO18*%
X158000000Y-74750000D03*
%TO.N,/ESP32-C3-02/GPIO19*%
X155459999Y-74750000D03*
%TO.N,GND*%
X152919999Y-74750000D03*
%TD*%
D15*
%TO.N,GND*%
%TO.C,MK1*%
X158550000Y-86780000D03*
%TO.N,Net-(C17-Pad2)*%
X158550000Y-84880000D03*
%TD*%
D16*
%TO.N,GND*%
X194200000Y-121200000D03*
X200100000Y-121300000D03*
X180600000Y-92200000D03*
%TO.N,/ESP32-C3-02/BOOT*%
X200700000Y-114200000D03*
%TO.N,/ESP32-C3-02/TX_RX*%
X226834971Y-88365029D03*
X196940295Y-97562254D03*
%TO.N,/ESP32-C3-02/RX_TX*%
X197100000Y-98300000D03*
%TO.N,/ESP32-C3-02/BOOT*%
X215274461Y-88975000D03*
%TO.N,/ESP32-C3-02/GPIO18*%
X228800000Y-87000000D03*
%TO.N,/ESP32-C3-02/GPIO19*%
X202100000Y-83400000D03*
%TO.N,/ESP32-C3-02/GPIO18*%
X202200000Y-82700000D03*
%TO.N,/ESP32-C3-02/GPIO19*%
X227453743Y-87526000D03*
%TO.N,/ESP32-C3-02/SDA*%
X203100000Y-79300000D03*
X218750000Y-81050000D03*
%TO.N,/ESP32-C3-02/SCL*%
X226800000Y-80200000D03*
X203532873Y-78632873D03*
%TO.N,/+5V_USB*%
X166500000Y-123100000D03*
X170300000Y-119200000D03*
%TO.N,GND*%
X169900000Y-124600000D03*
X170700000Y-119800000D03*
%TO.N,/ESP32-C3-02/CS*%
X227900000Y-91200000D03*
%TO.N,/+5V_USB*%
X168000000Y-123000000D03*
%TO.N,/ESP32-C3-02/CS*%
X206350000Y-89375000D03*
%TO.N,/+5V_USB*%
X167250001Y-123049999D03*
X170600000Y-121000000D03*
%TO.N,+3.3V*%
X186800000Y-90300000D03*
D17*
X186200000Y-104870000D03*
%TO.N,/CHARGING_POWER_GOOD*%
X160500000Y-116300000D03*
D16*
%TO.N,GND*%
X229700000Y-100300000D03*
%TO.N,+3.3V*%
X200125000Y-88349384D03*
%TO.N,GND*%
X227300000Y-123100000D03*
%TO.N,/ESP32-C3-02/RTS*%
X179800000Y-99700000D03*
D18*
%TO.N,+3.3V*%
X204387061Y-80476000D03*
D16*
%TO.N,GND*%
X204600000Y-83061000D03*
X166291409Y-81091409D03*
%TO.N,+3.3V*%
X212900000Y-94200000D03*
X191300000Y-91300000D03*
%TO.N,GND*%
X191100000Y-95500000D03*
X209900000Y-94400000D03*
%TO.N,/ESP32-C3-02/GPIO8*%
X203000000Y-82700000D03*
X214400000Y-86400000D03*
%TO.N,+3.3V*%
X174050002Y-88449998D03*
X153900000Y-96000000D03*
%TO.N,GND*%
X161000000Y-90400000D03*
X167200000Y-113407500D03*
%TO.N,+3.3V*%
X152900000Y-93600000D03*
X174700000Y-100200000D03*
X183500000Y-96500000D03*
X171800000Y-100000000D03*
%TO.N,GND*%
X188634650Y-110412468D03*
X164900000Y-113407500D03*
D17*
%TO.N,/CHARGING*%
X160900000Y-117200000D03*
X168800000Y-116900000D03*
D16*
%TO.N,/VBUS*%
X178400000Y-113000000D03*
%TO.N,+3.3V*%
X177200000Y-80000000D03*
%TO.N,GND*%
X188251000Y-76000000D03*
%TO.N,/ESP32-C3-02/CS_SD*%
X231798517Y-81300000D03*
X229500000Y-94700000D03*
%TO.N,+3.3V*%
X173500000Y-82200000D03*
%TO.N,/+5V_USB*%
X157400000Y-108907500D03*
%TO.N,GND*%
X177300000Y-113000000D03*
%TO.N,/+5V_USB*%
X154000000Y-108907500D03*
X164900000Y-124800000D03*
%TO.N,GND*%
X162600000Y-113407500D03*
X164900000Y-117800000D03*
%TO.N,+3.3V*%
X163666667Y-91100000D03*
X162800000Y-91100000D03*
%TO.N,GND*%
X158800000Y-100100000D03*
X160000000Y-102900000D03*
X156500000Y-100100000D03*
X162200000Y-105900000D03*
X154800000Y-100100000D03*
X162200000Y-104400000D03*
X160000000Y-105900000D03*
X160000000Y-104400000D03*
X160000000Y-101300000D03*
%TO.N,+3.3V*%
X165400000Y-91100000D03*
X164533333Y-91100000D03*
X166266667Y-91100000D03*
X167133333Y-91100000D03*
X168000000Y-91100000D03*
%TO.N,GND*%
X201400000Y-123000000D03*
%TO.N,+3.3V*%
X186249000Y-76100000D03*
X192300000Y-76500000D03*
X185500000Y-74000000D03*
X221300000Y-94800000D03*
%TO.N,GND*%
X217300000Y-94200000D03*
X185200000Y-73367500D03*
X189300000Y-102250000D03*
X206000000Y-97200000D03*
X180938909Y-100661091D03*
%TO.N,/USB_DN*%
X182850000Y-111650000D03*
%TO.N,GND*%
X172300000Y-85900000D03*
X179800000Y-107500000D03*
%TO.N,/VBUS*%
X180723766Y-112798416D03*
%TO.N,+3.3V*%
X188300000Y-118100000D03*
%TO.N,GND*%
X171600000Y-80629999D03*
X175950000Y-88250000D03*
%TO.N,/USB_DP*%
X178600000Y-111700000D03*
%TO.N,/+5V_USB*%
X171270000Y-111600000D03*
%TO.N,/VBUS*%
X177600000Y-111700000D03*
%TO.N,/+5V_USB*%
X171270000Y-109100000D03*
%TO.N,/VBUS*%
X177600000Y-110400000D03*
%TO.N,GND*%
X153750000Y-123750000D03*
%TO.N,/VBUS*%
X177600000Y-109100000D03*
%TO.N,/+5V_USB*%
X171270000Y-110350000D03*
%TO.N,GND*%
X153750000Y-123000000D03*
%TO.N,/ESP32-C3-02/PHOTO_C*%
X210350057Y-84063116D03*
%TO.N,GND*%
X153750000Y-124500000D03*
%TO.N,/ESP32-C3-02/PHOTO_C*%
X228100000Y-81700000D03*
%TO.N,/ESP32-C3-02/RTS*%
X196100000Y-117600000D03*
D17*
%TO.N,/CHARGING_POWER_GOOD*%
X167964682Y-116300000D03*
%TO.N,/ESP32-C3-02/DTR*%
X197580521Y-112337177D03*
X179500000Y-100500000D03*
%TO.N,/VBUS*%
X183700000Y-111949999D03*
D16*
%TO.N,/ESP32-C3-02/RX_TX*%
X228400000Y-88000000D03*
%TO.N,/ESP32-C3-02/EN*%
X202400000Y-86400000D03*
X205600000Y-89700000D03*
X202500000Y-104300000D03*
X202900000Y-81201000D03*
%TD*%
D19*
%TO.N,/USB_DP*%
X181130000Y-114230000D02*
X178600000Y-111700000D01*
X181130000Y-115620000D02*
X181130000Y-114230000D01*
%TD*%
%TA.AperFunction,Conductor*%
%TO.N,+3.3V*%
G36*
X193406061Y-71951097D02*
G01*
X193416051Y-71952080D01*
X193543824Y-71964665D01*
X193567652Y-71969404D01*
X193694277Y-72007815D01*
X193716725Y-72017114D01*
X193833406Y-72079482D01*
X193853616Y-72092986D01*
X193955891Y-72176920D01*
X193973079Y-72194108D01*
X194057012Y-72296381D01*
X194070517Y-72316593D01*
X194132883Y-72433271D01*
X194142186Y-72455728D01*
X194180593Y-72582338D01*
X194185335Y-72606180D01*
X194198903Y-72743938D01*
X194199500Y-72756092D01*
X194199500Y-77102351D01*
X194231522Y-77304534D01*
X194294781Y-77499223D01*
X194358691Y-77624653D01*
X194364495Y-77636043D01*
X194387715Y-77681613D01*
X194508028Y-77847213D01*
X194652786Y-77991971D01*
X194807749Y-78104556D01*
X194818390Y-78112287D01*
X194934607Y-78171503D01*
X195000776Y-78205218D01*
X195000778Y-78205218D01*
X195000781Y-78205220D01*
X195105137Y-78239127D01*
X195195465Y-78268477D01*
X195296557Y-78284488D01*
X195397648Y-78300500D01*
X195460118Y-78300500D01*
X202682689Y-78300500D01*
X202702812Y-78306408D01*
X202723759Y-78307499D01*
X202735663Y-78316055D01*
X202749728Y-78320185D01*
X202763461Y-78336034D01*
X202780495Y-78348277D01*
X202785884Y-78361911D01*
X202795483Y-78372989D01*
X202798467Y-78393748D01*
X202806178Y-78413255D01*
X202804860Y-78438203D01*
X202805427Y-78442147D01*
X202804344Y-78448501D01*
X202782373Y-78558955D01*
X202782373Y-78559866D01*
X202781032Y-78566664D01*
X202767539Y-78592556D01*
X202756603Y-78619625D01*
X202750500Y-78625254D01*
X202748744Y-78628626D01*
X202743756Y-78631476D01*
X202728268Y-78645765D01*
X202621583Y-78717048D01*
X202517051Y-78821580D01*
X202517048Y-78821584D01*
X202434919Y-78944498D01*
X202434912Y-78944511D01*
X202378343Y-79081082D01*
X202378340Y-79081092D01*
X202349500Y-79226079D01*
X202349500Y-79226082D01*
X202349500Y-79373918D01*
X202349500Y-79373920D01*
X202349499Y-79373920D01*
X202378340Y-79518907D01*
X202378343Y-79518917D01*
X202434912Y-79655488D01*
X202434919Y-79655501D01*
X202517048Y-79778415D01*
X202517051Y-79778419D01*
X202621580Y-79882948D01*
X202621584Y-79882951D01*
X202744498Y-79965080D01*
X202744511Y-79965087D01*
X202881082Y-80021656D01*
X202881087Y-80021658D01*
X202881091Y-80021658D01*
X202881092Y-80021659D01*
X203026079Y-80050500D01*
X203026082Y-80050500D01*
X203173920Y-80050500D01*
X203271462Y-80031096D01*
X203318913Y-80021658D01*
X203455495Y-79965084D01*
X203578416Y-79882951D01*
X203682951Y-79778416D01*
X203765084Y-79655495D01*
X203821658Y-79518913D01*
X203830420Y-79474860D01*
X203851689Y-79367943D01*
X203853997Y-79368402D01*
X203876229Y-79313298D01*
X203904601Y-79287109D01*
X204011289Y-79215824D01*
X204115824Y-79111289D01*
X204197957Y-78988368D01*
X204254531Y-78851786D01*
X204283373Y-78706791D01*
X204283373Y-78558955D01*
X204283373Y-78558952D01*
X204261440Y-78448692D01*
X204267667Y-78379100D01*
X204310530Y-78323923D01*
X204376419Y-78300678D01*
X204383057Y-78300500D01*
X231853012Y-78300500D01*
X231886802Y-78300500D01*
X231898955Y-78301097D01*
X231910812Y-78302264D01*
X232038107Y-78314801D01*
X232061933Y-78319540D01*
X232189888Y-78358354D01*
X232212341Y-78367655D01*
X232330252Y-78430679D01*
X232350460Y-78444181D01*
X232432729Y-78511698D01*
X232453811Y-78529000D01*
X232470999Y-78546188D01*
X232555816Y-78649537D01*
X232569321Y-78669749D01*
X232632343Y-78787656D01*
X232641646Y-78810114D01*
X232680457Y-78938057D01*
X232685199Y-78961898D01*
X232696937Y-79081087D01*
X232698903Y-79101044D01*
X232699500Y-79113198D01*
X232699500Y-80890804D01*
X232679815Y-80957843D01*
X232627011Y-81003598D01*
X232557853Y-81013542D01*
X232494297Y-80984517D01*
X232466142Y-80949258D01*
X232463600Y-80944503D01*
X232381468Y-80821584D01*
X232381465Y-80821580D01*
X232276936Y-80717051D01*
X232276932Y-80717048D01*
X232154018Y-80634919D01*
X232154005Y-80634912D01*
X232017434Y-80578343D01*
X232017424Y-80578340D01*
X231872437Y-80549500D01*
X231872435Y-80549500D01*
X231724599Y-80549500D01*
X231724597Y-80549500D01*
X231579609Y-80578340D01*
X231579599Y-80578343D01*
X231443028Y-80634912D01*
X231443015Y-80634919D01*
X231320101Y-80717048D01*
X231320097Y-80717051D01*
X231215568Y-80821580D01*
X231215565Y-80821584D01*
X231133436Y-80944498D01*
X231133429Y-80944511D01*
X231076860Y-81081082D01*
X231076857Y-81081092D01*
X231048017Y-81226079D01*
X231048017Y-81226082D01*
X231048017Y-81373918D01*
X231048017Y-81373920D01*
X231048016Y-81373920D01*
X231076857Y-81518907D01*
X231076860Y-81518917D01*
X231133429Y-81655488D01*
X231133436Y-81655501D01*
X231215565Y-81778415D01*
X231215568Y-81778419D01*
X231320097Y-81882948D01*
X231320101Y-81882951D01*
X231443015Y-81965080D01*
X231443028Y-81965087D01*
X231579599Y-82021656D01*
X231579604Y-82021658D01*
X231579608Y-82021658D01*
X231579609Y-82021659D01*
X231724596Y-82050500D01*
X231724599Y-82050500D01*
X231872437Y-82050500D01*
X231969979Y-82031096D01*
X232017430Y-82021658D01*
X232154012Y-81965084D01*
X232276933Y-81882951D01*
X232381468Y-81778416D01*
X232463601Y-81655495D01*
X232463602Y-81655493D01*
X232466140Y-81650746D01*
X232515100Y-81600900D01*
X232583237Y-81585437D01*
X232648918Y-81609266D01*
X232691289Y-81664822D01*
X232699500Y-81709195D01*
X232699500Y-125493907D01*
X232698903Y-125506061D01*
X232685335Y-125643819D01*
X232680593Y-125667661D01*
X232642186Y-125794271D01*
X232632883Y-125816728D01*
X232570517Y-125933406D01*
X232557012Y-125953618D01*
X232473079Y-126055891D01*
X232455891Y-126073079D01*
X232353618Y-126157012D01*
X232333406Y-126170517D01*
X232216728Y-126232883D01*
X232194271Y-126242186D01*
X232067661Y-126280593D01*
X232043819Y-126285335D01*
X231906062Y-126298903D01*
X231893908Y-126299500D01*
X187374000Y-126299500D01*
X187306961Y-126279815D01*
X187261206Y-126227011D01*
X187250000Y-126175500D01*
X187250000Y-123073920D01*
X200649499Y-123073920D01*
X200678340Y-123218907D01*
X200678343Y-123218917D01*
X200734912Y-123355488D01*
X200734919Y-123355501D01*
X200817048Y-123478415D01*
X200817051Y-123478419D01*
X200921580Y-123582948D01*
X200921584Y-123582951D01*
X201044498Y-123665080D01*
X201044511Y-123665087D01*
X201181082Y-123721656D01*
X201181087Y-123721658D01*
X201181091Y-123721658D01*
X201181092Y-123721659D01*
X201326079Y-123750500D01*
X201326082Y-123750500D01*
X201473920Y-123750500D01*
X201571462Y-123731096D01*
X201618913Y-123721658D01*
X201755495Y-123665084D01*
X201878416Y-123582951D01*
X201982951Y-123478416D01*
X202065084Y-123355495D01*
X202121658Y-123218913D01*
X202130608Y-123173920D01*
X226549499Y-123173920D01*
X226578340Y-123318907D01*
X226578343Y-123318917D01*
X226634912Y-123455488D01*
X226634919Y-123455501D01*
X226717048Y-123578415D01*
X226717051Y-123578419D01*
X226821580Y-123682948D01*
X226821584Y-123682951D01*
X226944498Y-123765080D01*
X226944511Y-123765087D01*
X227081082Y-123821656D01*
X227081087Y-123821658D01*
X227081091Y-123821658D01*
X227081092Y-123821659D01*
X227226079Y-123850500D01*
X227226082Y-123850500D01*
X227373920Y-123850500D01*
X227471462Y-123831096D01*
X227518913Y-123821658D01*
X227655495Y-123765084D01*
X227778416Y-123682951D01*
X227882951Y-123578416D01*
X227965084Y-123455495D01*
X228021658Y-123318913D01*
X228050500Y-123173918D01*
X228050500Y-123026082D01*
X228050500Y-123026079D01*
X228021659Y-122881092D01*
X228021658Y-122881091D01*
X228021658Y-122881087D01*
X228021656Y-122881082D01*
X227965087Y-122744511D01*
X227965080Y-122744498D01*
X227882951Y-122621584D01*
X227882948Y-122621580D01*
X227778419Y-122517051D01*
X227778415Y-122517048D01*
X227655501Y-122434919D01*
X227655488Y-122434912D01*
X227518917Y-122378343D01*
X227518907Y-122378340D01*
X227373920Y-122349500D01*
X227373918Y-122349500D01*
X227226082Y-122349500D01*
X227226080Y-122349500D01*
X227081092Y-122378340D01*
X227081082Y-122378343D01*
X226944511Y-122434912D01*
X226944498Y-122434919D01*
X226821584Y-122517048D01*
X226821580Y-122517051D01*
X226717051Y-122621580D01*
X226717048Y-122621584D01*
X226634919Y-122744498D01*
X226634912Y-122744511D01*
X226578343Y-122881082D01*
X226578340Y-122881092D01*
X226549500Y-123026079D01*
X226549500Y-123026082D01*
X226549500Y-123173918D01*
X226549500Y-123173920D01*
X226549499Y-123173920D01*
X202130608Y-123173920D01*
X202150500Y-123073918D01*
X202150500Y-122926082D01*
X202150500Y-122926079D01*
X202121659Y-122781092D01*
X202121658Y-122781091D01*
X202121658Y-122781087D01*
X202106505Y-122744505D01*
X202065087Y-122644511D01*
X202065080Y-122644498D01*
X201982951Y-122521584D01*
X201982948Y-122521580D01*
X201878419Y-122417051D01*
X201878415Y-122417048D01*
X201755501Y-122334919D01*
X201755488Y-122334912D01*
X201618917Y-122278343D01*
X201618907Y-122278340D01*
X201473920Y-122249500D01*
X201473918Y-122249500D01*
X201326082Y-122249500D01*
X201326080Y-122249500D01*
X201181092Y-122278340D01*
X201181082Y-122278343D01*
X201044511Y-122334912D01*
X201044498Y-122334919D01*
X200921584Y-122417048D01*
X200921580Y-122417051D01*
X200817051Y-122521580D01*
X200817048Y-122521584D01*
X200734919Y-122644498D01*
X200734912Y-122644511D01*
X200678343Y-122781082D01*
X200678340Y-122781092D01*
X200649500Y-122926079D01*
X200649500Y-122926082D01*
X200649500Y-123073918D01*
X200649500Y-123073920D01*
X200649499Y-123073920D01*
X187250000Y-123073920D01*
X187250000Y-121273920D01*
X193449499Y-121273920D01*
X193478340Y-121418907D01*
X193478343Y-121418917D01*
X193534912Y-121555488D01*
X193534919Y-121555501D01*
X193617048Y-121678415D01*
X193617051Y-121678419D01*
X193721580Y-121782948D01*
X193721584Y-121782951D01*
X193844498Y-121865080D01*
X193844511Y-121865087D01*
X193981082Y-121921656D01*
X193981087Y-121921658D01*
X193981091Y-121921658D01*
X193981092Y-121921659D01*
X194126079Y-121950500D01*
X194126082Y-121950500D01*
X194273920Y-121950500D01*
X194371462Y-121931096D01*
X194418913Y-121921658D01*
X194555495Y-121865084D01*
X194678416Y-121782951D01*
X194782951Y-121678416D01*
X194865084Y-121555495D01*
X194921658Y-121418913D01*
X194930608Y-121373920D01*
X199349499Y-121373920D01*
X199378340Y-121518907D01*
X199378343Y-121518917D01*
X199434912Y-121655488D01*
X199434919Y-121655501D01*
X199517048Y-121778415D01*
X199517051Y-121778419D01*
X199621580Y-121882948D01*
X199621584Y-121882951D01*
X199744498Y-121965080D01*
X199744511Y-121965087D01*
X199881082Y-122021656D01*
X199881087Y-122021658D01*
X199881091Y-122021658D01*
X199881092Y-122021659D01*
X200026079Y-122050500D01*
X200026082Y-122050500D01*
X200173920Y-122050500D01*
X200271462Y-122031096D01*
X200318913Y-122021658D01*
X200455495Y-121965084D01*
X200578416Y-121882951D01*
X200682951Y-121778416D01*
X200765084Y-121655495D01*
X200821658Y-121518913D01*
X200850500Y-121373918D01*
X200850500Y-121226082D01*
X200850500Y-121226079D01*
X200821659Y-121081092D01*
X200821658Y-121081091D01*
X200821658Y-121081087D01*
X200780235Y-120981082D01*
X200765087Y-120944511D01*
X200765080Y-120944498D01*
X200682951Y-120821584D01*
X200682948Y-120821580D01*
X200578419Y-120717051D01*
X200578415Y-120717048D01*
X200455501Y-120634919D01*
X200455488Y-120634912D01*
X200318917Y-120578343D01*
X200318907Y-120578340D01*
X200173920Y-120549500D01*
X200173918Y-120549500D01*
X200026082Y-120549500D01*
X200026080Y-120549500D01*
X199881092Y-120578340D01*
X199881082Y-120578343D01*
X199744511Y-120634912D01*
X199744498Y-120634919D01*
X199621584Y-120717048D01*
X199621580Y-120717051D01*
X199517051Y-120821580D01*
X199517048Y-120821584D01*
X199434919Y-120944498D01*
X199434912Y-120944511D01*
X199378343Y-121081082D01*
X199378340Y-121081092D01*
X199349500Y-121226079D01*
X199349500Y-121226082D01*
X199349500Y-121373918D01*
X199349500Y-121373920D01*
X199349499Y-121373920D01*
X194930608Y-121373920D01*
X194950500Y-121273918D01*
X194950500Y-121126082D01*
X194950500Y-121126079D01*
X194921659Y-120981092D01*
X194921658Y-120981091D01*
X194921658Y-120981087D01*
X194906505Y-120944505D01*
X194865087Y-120844511D01*
X194865080Y-120844498D01*
X194782951Y-120721584D01*
X194782948Y-120721580D01*
X194678419Y-120617051D01*
X194678415Y-120617048D01*
X194555501Y-120534919D01*
X194555488Y-120534912D01*
X194418917Y-120478343D01*
X194418907Y-120478340D01*
X194273920Y-120449500D01*
X194273918Y-120449500D01*
X194126082Y-120449500D01*
X194126080Y-120449500D01*
X193981092Y-120478340D01*
X193981082Y-120478343D01*
X193844511Y-120534912D01*
X193844498Y-120534919D01*
X193721584Y-120617048D01*
X193721580Y-120617051D01*
X193617051Y-120721580D01*
X193617048Y-120721584D01*
X193534919Y-120844498D01*
X193534912Y-120844511D01*
X193478343Y-120981082D01*
X193478340Y-120981092D01*
X193449500Y-121126079D01*
X193449500Y-121126082D01*
X193449500Y-121273918D01*
X193449500Y-121273920D01*
X193449499Y-121273920D01*
X187250000Y-121273920D01*
X187250000Y-117801362D01*
X187269685Y-117734323D01*
X187286319Y-117713681D01*
X187326080Y-117673920D01*
X195349499Y-117673920D01*
X195378340Y-117818907D01*
X195378343Y-117818917D01*
X195434912Y-117955488D01*
X195434919Y-117955501D01*
X195517048Y-118078415D01*
X195517051Y-118078419D01*
X195621580Y-118182948D01*
X195621584Y-118182951D01*
X195744498Y-118265080D01*
X195744511Y-118265087D01*
X195878291Y-118320500D01*
X195881087Y-118321658D01*
X195881091Y-118321658D01*
X195881092Y-118321659D01*
X196026079Y-118350500D01*
X196026082Y-118350500D01*
X196173920Y-118350500D01*
X196271462Y-118331096D01*
X196318913Y-118321658D01*
X196455495Y-118265084D01*
X196578416Y-118182951D01*
X196682951Y-118078416D01*
X196765084Y-117955495D01*
X196821658Y-117818913D01*
X196831096Y-117771462D01*
X196850500Y-117673920D01*
X196850500Y-117526079D01*
X196821659Y-117381092D01*
X196821658Y-117381091D01*
X196821658Y-117381087D01*
X196821656Y-117381082D01*
X196765087Y-117244511D01*
X196765080Y-117244498D01*
X196682951Y-117121584D01*
X196682948Y-117121580D01*
X196578419Y-117017051D01*
X196578415Y-117017048D01*
X196455501Y-116934919D01*
X196455488Y-116934912D01*
X196318917Y-116878343D01*
X196318907Y-116878340D01*
X196173920Y-116849500D01*
X196173918Y-116849500D01*
X196026082Y-116849500D01*
X196026080Y-116849500D01*
X195881092Y-116878340D01*
X195881082Y-116878343D01*
X195744511Y-116934912D01*
X195744498Y-116934919D01*
X195621584Y-117017048D01*
X195621580Y-117017051D01*
X195517051Y-117121580D01*
X195517048Y-117121584D01*
X195434919Y-117244498D01*
X195434912Y-117244511D01*
X195378343Y-117381082D01*
X195378340Y-117381092D01*
X195349500Y-117526079D01*
X195349500Y-117526082D01*
X195349500Y-117673918D01*
X195349500Y-117673920D01*
X195349499Y-117673920D01*
X187326080Y-117673920D01*
X187567691Y-117432309D01*
X188150500Y-116849500D01*
X189500000Y-115500000D01*
X189500000Y-114273920D01*
X199949499Y-114273920D01*
X199978340Y-114418907D01*
X199978343Y-114418917D01*
X200034912Y-114555488D01*
X200034919Y-114555501D01*
X200117048Y-114678415D01*
X200117051Y-114678419D01*
X200221580Y-114782948D01*
X200221584Y-114782951D01*
X200344498Y-114865080D01*
X200344511Y-114865087D01*
X200481082Y-114921656D01*
X200481087Y-114921658D01*
X200481091Y-114921658D01*
X200481092Y-114921659D01*
X200626079Y-114950500D01*
X200626082Y-114950500D01*
X200773920Y-114950500D01*
X200871462Y-114931096D01*
X200918913Y-114921658D01*
X201055495Y-114865084D01*
X201178416Y-114782951D01*
X201282951Y-114678416D01*
X201365084Y-114555495D01*
X201421658Y-114418913D01*
X201450500Y-114273918D01*
X201450500Y-114126082D01*
X201450500Y-114126079D01*
X201421659Y-113981092D01*
X201421658Y-113981091D01*
X201421658Y-113981087D01*
X201421656Y-113981082D01*
X201365087Y-113844511D01*
X201365080Y-113844498D01*
X201282951Y-113721584D01*
X201282948Y-113721580D01*
X201178419Y-113617051D01*
X201178415Y-113617048D01*
X201055501Y-113534919D01*
X201055488Y-113534912D01*
X200918917Y-113478343D01*
X200918907Y-113478340D01*
X200773920Y-113449500D01*
X200773918Y-113449500D01*
X200626082Y-113449500D01*
X200626080Y-113449500D01*
X200481092Y-113478340D01*
X200481082Y-113478343D01*
X200344511Y-113534912D01*
X200344498Y-113534919D01*
X200221584Y-113617048D01*
X200221580Y-113617051D01*
X200117051Y-113721580D01*
X200117048Y-113721584D01*
X200034919Y-113844498D01*
X200034912Y-113844511D01*
X199978343Y-113981082D01*
X199978340Y-113981092D01*
X199949500Y-114126079D01*
X199949500Y-114126082D01*
X199949500Y-114273918D01*
X199949500Y-114273920D01*
X199949499Y-114273920D01*
X189500000Y-114273920D01*
X189500000Y-112258330D01*
X196780021Y-112258330D01*
X196780021Y-112416023D01*
X196810782Y-112570666D01*
X196810785Y-112570678D01*
X196871123Y-112716349D01*
X196871130Y-112716362D01*
X196958731Y-112847465D01*
X196958734Y-112847469D01*
X197070228Y-112958963D01*
X197070232Y-112958966D01*
X197201335Y-113046567D01*
X197201348Y-113046574D01*
X197347019Y-113106912D01*
X197347024Y-113106914D01*
X197501674Y-113137676D01*
X197501677Y-113137677D01*
X197501679Y-113137677D01*
X197659365Y-113137677D01*
X197659366Y-113137676D01*
X197814018Y-113106914D01*
X197959700Y-113046571D01*
X198090810Y-112958966D01*
X198202310Y-112847466D01*
X198289915Y-112716356D01*
X198350258Y-112570674D01*
X198381021Y-112416019D01*
X198381021Y-112258335D01*
X198381021Y-112258332D01*
X198381020Y-112258330D01*
X198350259Y-112103687D01*
X198350258Y-112103680D01*
X198350256Y-112103675D01*
X198289918Y-111958004D01*
X198289911Y-111957991D01*
X198202310Y-111826888D01*
X198202307Y-111826884D01*
X198090813Y-111715390D01*
X198090809Y-111715387D01*
X197959706Y-111627786D01*
X197959693Y-111627779D01*
X197814022Y-111567441D01*
X197814010Y-111567438D01*
X197659366Y-111536677D01*
X197659363Y-111536677D01*
X197501679Y-111536677D01*
X197501676Y-111536677D01*
X197347031Y-111567438D01*
X197347019Y-111567441D01*
X197201348Y-111627779D01*
X197201335Y-111627786D01*
X197070232Y-111715387D01*
X197070228Y-111715390D01*
X196958734Y-111826884D01*
X196958731Y-111826888D01*
X196871130Y-111957991D01*
X196871123Y-111958004D01*
X196810785Y-112103675D01*
X196810782Y-112103687D01*
X196780021Y-112258330D01*
X189500000Y-112258330D01*
X189500000Y-106750000D01*
X179876432Y-106750000D01*
X179873918Y-106749500D01*
X179726082Y-106749500D01*
X179723568Y-106750000D01*
X162687523Y-106750000D01*
X162620484Y-106730315D01*
X162574729Y-106677511D01*
X162564785Y-106608353D01*
X162593810Y-106544797D01*
X162618632Y-106522898D01*
X162649196Y-106502474D01*
X162678416Y-106482951D01*
X162782951Y-106378416D01*
X162865084Y-106255495D01*
X162921658Y-106118913D01*
X162950500Y-105973918D01*
X162950500Y-105826082D01*
X162950500Y-105826079D01*
X162921659Y-105681092D01*
X162921658Y-105681091D01*
X162921658Y-105681087D01*
X162921656Y-105681082D01*
X162865087Y-105544511D01*
X162865080Y-105544498D01*
X162782951Y-105421584D01*
X162782948Y-105421580D01*
X162678419Y-105317051D01*
X162678415Y-105317048D01*
X162582713Y-105253102D01*
X162537908Y-105199490D01*
X162529201Y-105130165D01*
X162559355Y-105067138D01*
X162582713Y-105046898D01*
X162620965Y-105021338D01*
X162678416Y-104982951D01*
X162782951Y-104878416D01*
X162865084Y-104755495D01*
X162921658Y-104618913D01*
X162950500Y-104473918D01*
X162950500Y-104373920D01*
X201749499Y-104373920D01*
X201778340Y-104518907D01*
X201778343Y-104518917D01*
X201834912Y-104655488D01*
X201834919Y-104655501D01*
X201917048Y-104778415D01*
X201917051Y-104778419D01*
X202021580Y-104882948D01*
X202021584Y-104882951D01*
X202144498Y-104965080D01*
X202144511Y-104965087D01*
X202281082Y-105021656D01*
X202281087Y-105021658D01*
X202281091Y-105021658D01*
X202281092Y-105021659D01*
X202426079Y-105050500D01*
X202426082Y-105050500D01*
X202573920Y-105050500D01*
X202671462Y-105031096D01*
X202718913Y-105021658D01*
X202855495Y-104965084D01*
X202978416Y-104882951D01*
X203082951Y-104778416D01*
X203165084Y-104655495D01*
X203221658Y-104518913D01*
X203250500Y-104373918D01*
X203250500Y-104226082D01*
X203250500Y-104226079D01*
X203221659Y-104081092D01*
X203221658Y-104081091D01*
X203221658Y-104081087D01*
X203206505Y-104044505D01*
X203165087Y-103944511D01*
X203165080Y-103944498D01*
X203082951Y-103821584D01*
X203082948Y-103821580D01*
X202978419Y-103717051D01*
X202978415Y-103717048D01*
X202855501Y-103634919D01*
X202855488Y-103634912D01*
X202718917Y-103578343D01*
X202718907Y-103578340D01*
X202573920Y-103549500D01*
X202573918Y-103549500D01*
X202426082Y-103549500D01*
X202426080Y-103549500D01*
X202281092Y-103578340D01*
X202281082Y-103578343D01*
X202144511Y-103634912D01*
X202144498Y-103634919D01*
X202021584Y-103717048D01*
X202021580Y-103717051D01*
X201917051Y-103821580D01*
X201917048Y-103821584D01*
X201834919Y-103944498D01*
X201834912Y-103944511D01*
X201778343Y-104081082D01*
X201778340Y-104081092D01*
X201749500Y-104226079D01*
X201749500Y-104226082D01*
X201749500Y-104373918D01*
X201749500Y-104373920D01*
X201749499Y-104373920D01*
X162950500Y-104373920D01*
X162950500Y-104326082D01*
X162950500Y-104326079D01*
X162934209Y-104244182D01*
X162921659Y-104181092D01*
X162921658Y-104181091D01*
X162921658Y-104181087D01*
X162880235Y-104081082D01*
X162865087Y-104044511D01*
X162865080Y-104044498D01*
X162782951Y-103921584D01*
X162782948Y-103921580D01*
X162678419Y-103817051D01*
X162678415Y-103817048D01*
X162555501Y-103734919D01*
X162555488Y-103734912D01*
X162418917Y-103678343D01*
X162418907Y-103678340D01*
X162273920Y-103649500D01*
X162273918Y-103649500D01*
X162126082Y-103649500D01*
X162126080Y-103649500D01*
X161981092Y-103678340D01*
X161981082Y-103678343D01*
X161844511Y-103734912D01*
X161844498Y-103734919D01*
X161721584Y-103817048D01*
X161721580Y-103817051D01*
X161617051Y-103921580D01*
X161617048Y-103921584D01*
X161534919Y-104044498D01*
X161534912Y-104044511D01*
X161478343Y-104181082D01*
X161478340Y-104181092D01*
X161449500Y-104326079D01*
X161449500Y-104326082D01*
X161449500Y-104473918D01*
X161449500Y-104473920D01*
X161449499Y-104473920D01*
X161478340Y-104618907D01*
X161478343Y-104618917D01*
X161534912Y-104755488D01*
X161534919Y-104755501D01*
X161617048Y-104878415D01*
X161617051Y-104878419D01*
X161721580Y-104982948D01*
X161721584Y-104982951D01*
X161817286Y-105046898D01*
X161862091Y-105100511D01*
X161870798Y-105169836D01*
X161840643Y-105232863D01*
X161817286Y-105253102D01*
X161721584Y-105317048D01*
X161721580Y-105317051D01*
X161617051Y-105421580D01*
X161617048Y-105421584D01*
X161534919Y-105544498D01*
X161534912Y-105544511D01*
X161478343Y-105681082D01*
X161478340Y-105681092D01*
X161449500Y-105826079D01*
X161449500Y-105826082D01*
X161449500Y-105973918D01*
X161449500Y-105973920D01*
X161449499Y-105973920D01*
X161478340Y-106118907D01*
X161478343Y-106118917D01*
X161534912Y-106255488D01*
X161534919Y-106255501D01*
X161617048Y-106378415D01*
X161617051Y-106378419D01*
X161721580Y-106482948D01*
X161721584Y-106482951D01*
X161781368Y-106522898D01*
X161826173Y-106576510D01*
X161834880Y-106645835D01*
X161804725Y-106708863D01*
X161745282Y-106745582D01*
X161712477Y-106750000D01*
X160487523Y-106750000D01*
X160420484Y-106730315D01*
X160374729Y-106677511D01*
X160364785Y-106608353D01*
X160393810Y-106544797D01*
X160418632Y-106522898D01*
X160449196Y-106502474D01*
X160478416Y-106482951D01*
X160582951Y-106378416D01*
X160665084Y-106255495D01*
X160721658Y-106118913D01*
X160750500Y-105973918D01*
X160750500Y-105826082D01*
X160750500Y-105826079D01*
X160721659Y-105681092D01*
X160721658Y-105681091D01*
X160721658Y-105681087D01*
X160721656Y-105681082D01*
X160665087Y-105544511D01*
X160665080Y-105544498D01*
X160582951Y-105421584D01*
X160582948Y-105421580D01*
X160478419Y-105317051D01*
X160478415Y-105317048D01*
X160382713Y-105253102D01*
X160337908Y-105199490D01*
X160329201Y-105130165D01*
X160359355Y-105067138D01*
X160382713Y-105046898D01*
X160420965Y-105021338D01*
X160478416Y-104982951D01*
X160582951Y-104878416D01*
X160665084Y-104755495D01*
X160721658Y-104618913D01*
X160750500Y-104473918D01*
X160750500Y-104326082D01*
X160750500Y-104326079D01*
X160721659Y-104181092D01*
X160721658Y-104181091D01*
X160721658Y-104181087D01*
X160680235Y-104081082D01*
X160665087Y-104044511D01*
X160665080Y-104044498D01*
X160582951Y-103921584D01*
X160582948Y-103921580D01*
X160478419Y-103817051D01*
X160478415Y-103817048D01*
X160382713Y-103753102D01*
X160337908Y-103699490D01*
X160329201Y-103630165D01*
X160359355Y-103567138D01*
X160382713Y-103546898D01*
X160420965Y-103521338D01*
X160478416Y-103482951D01*
X160582951Y-103378416D01*
X160665084Y-103255495D01*
X160721658Y-103118913D01*
X160734359Y-103055061D01*
X160750500Y-102973920D01*
X160750500Y-102826079D01*
X160721659Y-102681092D01*
X160721658Y-102681091D01*
X160721658Y-102681087D01*
X160721656Y-102681082D01*
X160665087Y-102544511D01*
X160665080Y-102544498D01*
X160582951Y-102421584D01*
X160582948Y-102421580D01*
X160485288Y-102323920D01*
X188549499Y-102323920D01*
X188578340Y-102468907D01*
X188578343Y-102468917D01*
X188634912Y-102605488D01*
X188634919Y-102605501D01*
X188717048Y-102728415D01*
X188717051Y-102728419D01*
X188821580Y-102832948D01*
X188821584Y-102832951D01*
X188944498Y-102915080D01*
X188944511Y-102915087D01*
X189081082Y-102971656D01*
X189081087Y-102971658D01*
X189081091Y-102971658D01*
X189081092Y-102971659D01*
X189226079Y-103000500D01*
X189226082Y-103000500D01*
X189373920Y-103000500D01*
X189507551Y-102973918D01*
X189518913Y-102971658D01*
X189655495Y-102915084D01*
X189778416Y-102832951D01*
X189882951Y-102728416D01*
X189965084Y-102605495D01*
X190021658Y-102468913D01*
X190050500Y-102323918D01*
X190050500Y-102176082D01*
X190050500Y-102176079D01*
X190021659Y-102031092D01*
X190021658Y-102031091D01*
X190021658Y-102031087D01*
X190006442Y-101994352D01*
X189965087Y-101894511D01*
X189965080Y-101894498D01*
X189882951Y-101771584D01*
X189882948Y-101771580D01*
X189778419Y-101667051D01*
X189778415Y-101667048D01*
X189655501Y-101584919D01*
X189655488Y-101584912D01*
X189527964Y-101532090D01*
X189527961Y-101532090D01*
X189518913Y-101528342D01*
X189518908Y-101528341D01*
X189518907Y-101528340D01*
X189373920Y-101499500D01*
X189373918Y-101499500D01*
X189226082Y-101499500D01*
X189226080Y-101499500D01*
X189081092Y-101528340D01*
X189081082Y-101528343D01*
X188944511Y-101584912D01*
X188944498Y-101584919D01*
X188821584Y-101667048D01*
X188821580Y-101667051D01*
X188717051Y-101771580D01*
X188717048Y-101771584D01*
X188634919Y-101894498D01*
X188634912Y-101894511D01*
X188578343Y-102031082D01*
X188578340Y-102031092D01*
X188549500Y-102176079D01*
X188549500Y-102176082D01*
X188549500Y-102323918D01*
X188549500Y-102323920D01*
X188549499Y-102323920D01*
X160485288Y-102323920D01*
X160478416Y-102317048D01*
X160417157Y-102276116D01*
X160417147Y-102276110D01*
X160355495Y-102234916D01*
X160300123Y-102211980D01*
X160294214Y-102208742D01*
X160274118Y-102188584D01*
X160251950Y-102170721D01*
X160249765Y-102164157D01*
X160244884Y-102159261D01*
X160238876Y-102131442D01*
X160229885Y-102104427D01*
X160231595Y-102097724D01*
X160230136Y-102090966D01*
X160240123Y-102064311D01*
X160247164Y-102036727D01*
X160252225Y-102032014D01*
X160254652Y-102025539D01*
X160277466Y-102008514D01*
X160298301Y-101989116D01*
X160306354Y-101985439D01*
X160355488Y-101965087D01*
X160355488Y-101965086D01*
X160355495Y-101965084D01*
X160478416Y-101882951D01*
X160582951Y-101778416D01*
X160665084Y-101655495D01*
X160721658Y-101518913D01*
X160731096Y-101471462D01*
X160740614Y-101423615D01*
X204312000Y-101423615D01*
X204312000Y-101576384D01*
X204341800Y-101726197D01*
X204341802Y-101726205D01*
X204400259Y-101867334D01*
X204400264Y-101867343D01*
X204485129Y-101994351D01*
X204485132Y-101994355D01*
X204593144Y-102102367D01*
X204593148Y-102102370D01*
X204720156Y-102187235D01*
X204720162Y-102187238D01*
X204720163Y-102187239D01*
X204861295Y-102245698D01*
X205011115Y-102275499D01*
X205011119Y-102275500D01*
X205011120Y-102275500D01*
X205163881Y-102275500D01*
X205163882Y-102275499D01*
X205313705Y-102245698D01*
X205454837Y-102187239D01*
X205581852Y-102102370D01*
X205689870Y-101994352D01*
X205774739Y-101867337D01*
X205833198Y-101726205D01*
X205863000Y-101576380D01*
X205863000Y-101423620D01*
X205861702Y-101417094D01*
X205861702Y-101417091D01*
X205858102Y-101398992D01*
X225062000Y-101398992D01*
X225062000Y-101601007D01*
X225101407Y-101799119D01*
X225101409Y-101799127D01*
X225178712Y-101985752D01*
X225178717Y-101985762D01*
X225290941Y-102153718D01*
X225433781Y-102296558D01*
X225601737Y-102408782D01*
X225601741Y-102408784D01*
X225601744Y-102408786D01*
X225788373Y-102486091D01*
X225986492Y-102525499D01*
X225986496Y-102525500D01*
X225986497Y-102525500D01*
X226188504Y-102525500D01*
X226188505Y-102525499D01*
X226386627Y-102486091D01*
X226573256Y-102408786D01*
X226741218Y-102296558D01*
X226884058Y-102153718D01*
X226996286Y-101985756D01*
X227073591Y-101799127D01*
X227113000Y-101601003D01*
X227113000Y-101398997D01*
X227073591Y-101200873D01*
X226996286Y-101014244D01*
X226996284Y-101014241D01*
X226996282Y-101014237D01*
X226884058Y-100846281D01*
X226741218Y-100703441D01*
X226573262Y-100591217D01*
X226573252Y-100591212D01*
X226386627Y-100513909D01*
X226386619Y-100513907D01*
X226188507Y-100474500D01*
X226188503Y-100474500D01*
X225986497Y-100474500D01*
X225986492Y-100474500D01*
X225788380Y-100513907D01*
X225788372Y-100513909D01*
X225601747Y-100591212D01*
X225601737Y-100591217D01*
X225433781Y-100703441D01*
X225290941Y-100846281D01*
X225178717Y-101014237D01*
X225178712Y-101014247D01*
X225101409Y-101200872D01*
X225101407Y-101200880D01*
X225062000Y-101398992D01*
X205858102Y-101398992D01*
X205833199Y-101273802D01*
X205833198Y-101273795D01*
X205777574Y-101139507D01*
X205774740Y-101132665D01*
X205774735Y-101132656D01*
X205689870Y-101005648D01*
X205689867Y-101005644D01*
X205581855Y-100897632D01*
X205581851Y-100897629D01*
X205454843Y-100812764D01*
X205454834Y-100812759D01*
X205313705Y-100754302D01*
X205313697Y-100754300D01*
X205163884Y-100724500D01*
X205163880Y-100724500D01*
X205011120Y-100724500D01*
X205011115Y-100724500D01*
X204861302Y-100754300D01*
X204861294Y-100754302D01*
X204720165Y-100812759D01*
X204720156Y-100812764D01*
X204593148Y-100897629D01*
X204593144Y-100897632D01*
X204485132Y-101005644D01*
X204485129Y-101005648D01*
X204400264Y-101132656D01*
X204400259Y-101132665D01*
X204341802Y-101273794D01*
X204341800Y-101273802D01*
X204312000Y-101423615D01*
X160740614Y-101423615D01*
X160750500Y-101373920D01*
X160750500Y-101226079D01*
X160721659Y-101081092D01*
X160721658Y-101081091D01*
X160721658Y-101081087D01*
X160721656Y-101081082D01*
X160665087Y-100944511D01*
X160665080Y-100944498D01*
X160582951Y-100821584D01*
X160582948Y-100821580D01*
X160478419Y-100717051D01*
X160478415Y-100717048D01*
X160355501Y-100634919D01*
X160355488Y-100634912D01*
X160218917Y-100578343D01*
X160218907Y-100578340D01*
X160073920Y-100549500D01*
X160073918Y-100549500D01*
X159926082Y-100549500D01*
X159926080Y-100549500D01*
X159781092Y-100578340D01*
X159781082Y-100578343D01*
X159644511Y-100634912D01*
X159644502Y-100634917D01*
X159622119Y-100649873D01*
X159555441Y-100670749D01*
X159488061Y-100652263D01*
X159441372Y-100600283D01*
X159430197Y-100531313D01*
X159441309Y-100493387D01*
X159445159Y-100485314D01*
X159465084Y-100455495D01*
X159479309Y-100421153D01*
X178699500Y-100421153D01*
X178699500Y-100578846D01*
X178730261Y-100733489D01*
X178730264Y-100733501D01*
X178790602Y-100879172D01*
X178790609Y-100879185D01*
X178878210Y-101010288D01*
X178878213Y-101010292D01*
X178989707Y-101121786D01*
X178989711Y-101121789D01*
X179120814Y-101209390D01*
X179120827Y-101209397D01*
X179204469Y-101244042D01*
X179266503Y-101269737D01*
X179421153Y-101300499D01*
X179421156Y-101300500D01*
X179421158Y-101300500D01*
X179578844Y-101300500D01*
X179578845Y-101300499D01*
X179733497Y-101269737D01*
X179879179Y-101209394D01*
X180010289Y-101121789D01*
X180103566Y-101028511D01*
X180164887Y-100995028D01*
X180234579Y-101000012D01*
X180290513Y-101041883D01*
X180294348Y-101047303D01*
X180355957Y-101139506D01*
X180355960Y-101139510D01*
X180460489Y-101244039D01*
X180460493Y-101244042D01*
X180583407Y-101326171D01*
X180583420Y-101326178D01*
X180698676Y-101373918D01*
X180719996Y-101382749D01*
X180720000Y-101382749D01*
X180720001Y-101382750D01*
X180864988Y-101411591D01*
X180864991Y-101411591D01*
X181012829Y-101411591D01*
X181110371Y-101392187D01*
X181157822Y-101382749D01*
X181294404Y-101326175D01*
X181417325Y-101244042D01*
X181521860Y-101139507D01*
X181603993Y-101016586D01*
X181660567Y-100880004D01*
X181683427Y-100765082D01*
X181689409Y-100735011D01*
X181689409Y-100587170D01*
X181660568Y-100442183D01*
X181660567Y-100442182D01*
X181660567Y-100442178D01*
X181632294Y-100373920D01*
X228949499Y-100373920D01*
X228978340Y-100518907D01*
X228978343Y-100518917D01*
X229034912Y-100655488D01*
X229034919Y-100655501D01*
X229117048Y-100778415D01*
X229117051Y-100778419D01*
X229221580Y-100882948D01*
X229221584Y-100882951D01*
X229344498Y-100965080D01*
X229344511Y-100965087D01*
X229481082Y-101021656D01*
X229481087Y-101021658D01*
X229481091Y-101021658D01*
X229481092Y-101021659D01*
X229626079Y-101050500D01*
X229626082Y-101050500D01*
X229773920Y-101050500D01*
X229884451Y-101028513D01*
X229918913Y-101021658D01*
X230055495Y-100965084D01*
X230178416Y-100882951D01*
X230282951Y-100778416D01*
X230365084Y-100655495D01*
X230421658Y-100518913D01*
X230450500Y-100373918D01*
X230450500Y-100226082D01*
X230450500Y-100226079D01*
X230421659Y-100081092D01*
X230421658Y-100081091D01*
X230421658Y-100081087D01*
X230420437Y-100078139D01*
X230365087Y-99944511D01*
X230365080Y-99944498D01*
X230282951Y-99821584D01*
X230282948Y-99821580D01*
X230178419Y-99717051D01*
X230178415Y-99717048D01*
X230055501Y-99634919D01*
X230055488Y-99634912D01*
X229918917Y-99578343D01*
X229918907Y-99578340D01*
X229773920Y-99549500D01*
X229773918Y-99549500D01*
X229626082Y-99549500D01*
X229626080Y-99549500D01*
X229481092Y-99578340D01*
X229481082Y-99578343D01*
X229344511Y-99634912D01*
X229344498Y-99634919D01*
X229221584Y-99717048D01*
X229221580Y-99717051D01*
X229117051Y-99821580D01*
X229117048Y-99821584D01*
X229034919Y-99944498D01*
X229034912Y-99944511D01*
X228978343Y-100081082D01*
X228978340Y-100081092D01*
X228949500Y-100226079D01*
X228949500Y-100226082D01*
X228949500Y-100373918D01*
X228949500Y-100373920D01*
X228949499Y-100373920D01*
X181632294Y-100373920D01*
X181632293Y-100373918D01*
X181603996Y-100305602D01*
X181603989Y-100305589D01*
X181592825Y-100288881D01*
X181521860Y-100182675D01*
X181521857Y-100182671D01*
X181417328Y-100078142D01*
X181417324Y-100078139D01*
X181294410Y-99996010D01*
X181294397Y-99996003D01*
X181157826Y-99939434D01*
X181157816Y-99939431D01*
X181012829Y-99910591D01*
X181012827Y-99910591D01*
X180864991Y-99910591D01*
X180864989Y-99910591D01*
X180720001Y-99939431D01*
X180719988Y-99939435D01*
X180713724Y-99942030D01*
X180644255Y-99949496D01*
X180581777Y-99918218D01*
X180546127Y-99858127D01*
X180544660Y-99803276D01*
X180550500Y-99773918D01*
X180550500Y-99626082D01*
X180550500Y-99626079D01*
X180521659Y-99481092D01*
X180521658Y-99481091D01*
X180521658Y-99481087D01*
X180502535Y-99434919D01*
X180465087Y-99344511D01*
X180465080Y-99344498D01*
X180382951Y-99221584D01*
X180382948Y-99221580D01*
X180278419Y-99117051D01*
X180278415Y-99117048D01*
X180155501Y-99034919D01*
X180155488Y-99034912D01*
X180018917Y-98978343D01*
X180018907Y-98978340D01*
X179873920Y-98949500D01*
X179873918Y-98949500D01*
X179726082Y-98949500D01*
X179726080Y-98949500D01*
X179581092Y-98978340D01*
X179581082Y-98978343D01*
X179444511Y-99034912D01*
X179444498Y-99034919D01*
X179321584Y-99117048D01*
X179321580Y-99117051D01*
X179217051Y-99221580D01*
X179217048Y-99221584D01*
X179134919Y-99344498D01*
X179134912Y-99344511D01*
X179078343Y-99481082D01*
X179078340Y-99481092D01*
X179049500Y-99626079D01*
X179049500Y-99771982D01*
X179029815Y-99839021D01*
X178994395Y-99875081D01*
X178989712Y-99878210D01*
X178989704Y-99878217D01*
X178878213Y-99989707D01*
X178878210Y-99989711D01*
X178790609Y-100120814D01*
X178790602Y-100120827D01*
X178730264Y-100266498D01*
X178730261Y-100266510D01*
X178699500Y-100421153D01*
X159479309Y-100421153D01*
X159521658Y-100318913D01*
X159540698Y-100223196D01*
X159550500Y-100173920D01*
X159550500Y-100026079D01*
X159521659Y-99881092D01*
X159521658Y-99881091D01*
X159521658Y-99881087D01*
X159497011Y-99821584D01*
X159465087Y-99744511D01*
X159465080Y-99744498D01*
X159382951Y-99621584D01*
X159382948Y-99621580D01*
X159278419Y-99517051D01*
X159278415Y-99517048D01*
X159155501Y-99434919D01*
X159155488Y-99434912D01*
X159018917Y-99378343D01*
X159018907Y-99378340D01*
X158873920Y-99349500D01*
X158873918Y-99349500D01*
X158726082Y-99349500D01*
X158726080Y-99349500D01*
X158581092Y-99378340D01*
X158581082Y-99378343D01*
X158444511Y-99434912D01*
X158444498Y-99434919D01*
X158321584Y-99517048D01*
X158321580Y-99517051D01*
X158217051Y-99621580D01*
X158217048Y-99621584D01*
X158134919Y-99744498D01*
X158134912Y-99744511D01*
X158078343Y-99881082D01*
X158078340Y-99881092D01*
X158049500Y-100026079D01*
X158049500Y-100026082D01*
X158049500Y-100173918D01*
X158049500Y-100173920D01*
X158049499Y-100173920D01*
X158078340Y-100318907D01*
X158078343Y-100318917D01*
X158134912Y-100455488D01*
X158134919Y-100455501D01*
X158217048Y-100578415D01*
X158217051Y-100578419D01*
X158321580Y-100682948D01*
X158321584Y-100682951D01*
X158444498Y-100765080D01*
X158444511Y-100765087D01*
X158559615Y-100812764D01*
X158581087Y-100821658D01*
X158581091Y-100821658D01*
X158581092Y-100821659D01*
X158726079Y-100850500D01*
X158726082Y-100850500D01*
X158873920Y-100850500D01*
X158971462Y-100831096D01*
X159018913Y-100821658D01*
X159155495Y-100765084D01*
X159177877Y-100750128D01*
X159244553Y-100729250D01*
X159311934Y-100747733D01*
X159358625Y-100799711D01*
X159369803Y-100868681D01*
X159349873Y-100922119D01*
X159334917Y-100944502D01*
X159334912Y-100944511D01*
X159278343Y-101081082D01*
X159278340Y-101081092D01*
X159249500Y-101226079D01*
X159249500Y-101226082D01*
X159249500Y-101373918D01*
X159249500Y-101373920D01*
X159249499Y-101373920D01*
X159278340Y-101518907D01*
X159278343Y-101518917D01*
X159334912Y-101655488D01*
X159334919Y-101655501D01*
X159417048Y-101778415D01*
X159417051Y-101778419D01*
X159521580Y-101882948D01*
X159521584Y-101882951D01*
X159644498Y-101965080D01*
X159644507Y-101965085D01*
X159693646Y-101985439D01*
X159748049Y-102029280D01*
X159770114Y-102095574D01*
X159752835Y-102163273D01*
X159701698Y-102210884D01*
X159693646Y-102214561D01*
X159644507Y-102234914D01*
X159644498Y-102234919D01*
X159521584Y-102317048D01*
X159521580Y-102317051D01*
X159417051Y-102421580D01*
X159417048Y-102421584D01*
X159334919Y-102544498D01*
X159334912Y-102544511D01*
X159278343Y-102681082D01*
X159278340Y-102681092D01*
X159249500Y-102826079D01*
X159249500Y-102826082D01*
X159249500Y-102973918D01*
X159249500Y-102973920D01*
X159249499Y-102973920D01*
X159278340Y-103118907D01*
X159278343Y-103118917D01*
X159334912Y-103255488D01*
X159334919Y-103255501D01*
X159417048Y-103378415D01*
X159417051Y-103378419D01*
X159521580Y-103482948D01*
X159521584Y-103482951D01*
X159617286Y-103546898D01*
X159662091Y-103600511D01*
X159670798Y-103669836D01*
X159640643Y-103732863D01*
X159617286Y-103753102D01*
X159521584Y-103817048D01*
X159521580Y-103817051D01*
X159417051Y-103921580D01*
X159417048Y-103921584D01*
X159334919Y-104044498D01*
X159334912Y-104044511D01*
X159278343Y-104181082D01*
X159278340Y-104181092D01*
X159249500Y-104326079D01*
X159249500Y-104326082D01*
X159249500Y-104473918D01*
X159249500Y-104473920D01*
X159249499Y-104473920D01*
X159278340Y-104618907D01*
X159278343Y-104618917D01*
X159334912Y-104755488D01*
X159334919Y-104755501D01*
X159417048Y-104878415D01*
X159417051Y-104878419D01*
X159521580Y-104982948D01*
X159521584Y-104982951D01*
X159617286Y-105046898D01*
X159662091Y-105100511D01*
X159670798Y-105169836D01*
X159640643Y-105232863D01*
X159617286Y-105253102D01*
X159521584Y-105317048D01*
X159521580Y-105317051D01*
X159417051Y-105421580D01*
X159417048Y-105421584D01*
X159334919Y-105544498D01*
X159334912Y-105544511D01*
X159278343Y-105681082D01*
X159278340Y-105681092D01*
X159249500Y-105826079D01*
X159249500Y-105826082D01*
X159249500Y-105973918D01*
X159249500Y-105973920D01*
X159249499Y-105973920D01*
X159278340Y-106118907D01*
X159278343Y-106118917D01*
X159334912Y-106255488D01*
X159334919Y-106255501D01*
X159417048Y-106378415D01*
X159417051Y-106378419D01*
X159521580Y-106482948D01*
X159521584Y-106482951D01*
X159581368Y-106522898D01*
X159626173Y-106576510D01*
X159634880Y-106645835D01*
X159604725Y-106708863D01*
X159545282Y-106745582D01*
X159512477Y-106750000D01*
X149574500Y-106750000D01*
X149507461Y-106730315D01*
X149461706Y-106677511D01*
X149450500Y-106626000D01*
X149450500Y-103885837D01*
X150799500Y-103885837D01*
X150799500Y-104114162D01*
X150835215Y-104339660D01*
X150905770Y-104556803D01*
X150956060Y-104655501D01*
X151009421Y-104760228D01*
X151143621Y-104944937D01*
X151305063Y-105106379D01*
X151489772Y-105240579D01*
X151585884Y-105289550D01*
X151693196Y-105344229D01*
X151693198Y-105344229D01*
X151693201Y-105344231D01*
X151809592Y-105382049D01*
X151910339Y-105414784D01*
X152135838Y-105450500D01*
X152135843Y-105450500D01*
X152364162Y-105450500D01*
X152589660Y-105414784D01*
X152806799Y-105344231D01*
X153010228Y-105240579D01*
X153194937Y-105106379D01*
X153356379Y-104944937D01*
X153490579Y-104760228D01*
X153594231Y-104556799D01*
X153664784Y-104339660D01*
X153682773Y-104226082D01*
X153700500Y-104114162D01*
X153700500Y-103885837D01*
X153664784Y-103660339D01*
X153627924Y-103546898D01*
X153594231Y-103443201D01*
X153594229Y-103443198D01*
X153594229Y-103443196D01*
X153498590Y-103255495D01*
X153490579Y-103239772D01*
X153356379Y-103055063D01*
X153194937Y-102893621D01*
X153010228Y-102759421D01*
X152806803Y-102655770D01*
X152589660Y-102585215D01*
X152364162Y-102549500D01*
X152364157Y-102549500D01*
X152135843Y-102549500D01*
X152135838Y-102549500D01*
X151910339Y-102585215D01*
X151693196Y-102655770D01*
X151489771Y-102759421D01*
X151305061Y-102893622D01*
X151143622Y-103055061D01*
X151009421Y-103239771D01*
X150905770Y-103443196D01*
X150835215Y-103660339D01*
X150799500Y-103885837D01*
X149450500Y-103885837D01*
X149450500Y-100173920D01*
X154049499Y-100173920D01*
X154078340Y-100318907D01*
X154078343Y-100318917D01*
X154134912Y-100455488D01*
X154134919Y-100455501D01*
X154217048Y-100578415D01*
X154217051Y-100578419D01*
X154321580Y-100682948D01*
X154321584Y-100682951D01*
X154444498Y-100765080D01*
X154444511Y-100765087D01*
X154559615Y-100812764D01*
X154581087Y-100821658D01*
X154581091Y-100821658D01*
X154581092Y-100821659D01*
X154726079Y-100850500D01*
X154726082Y-100850500D01*
X154873920Y-100850500D01*
X154971462Y-100831096D01*
X155018913Y-100821658D01*
X155155495Y-100765084D01*
X155278416Y-100682951D01*
X155382951Y-100578416D01*
X155465084Y-100455495D01*
X155521658Y-100318913D01*
X155528383Y-100285107D01*
X155560768Y-100223196D01*
X155621484Y-100188622D01*
X155691253Y-100192361D01*
X155747925Y-100233228D01*
X155771617Y-100285107D01*
X155778340Y-100318905D01*
X155778343Y-100318917D01*
X155834912Y-100455488D01*
X155834919Y-100455501D01*
X155917048Y-100578415D01*
X155917051Y-100578419D01*
X156021580Y-100682948D01*
X156021584Y-100682951D01*
X156144498Y-100765080D01*
X156144511Y-100765087D01*
X156259615Y-100812764D01*
X156281087Y-100821658D01*
X156281091Y-100821658D01*
X156281092Y-100821659D01*
X156426079Y-100850500D01*
X156426082Y-100850500D01*
X156573920Y-100850500D01*
X156671462Y-100831096D01*
X156718913Y-100821658D01*
X156855495Y-100765084D01*
X156978416Y-100682951D01*
X157082951Y-100578416D01*
X157165084Y-100455495D01*
X157221658Y-100318913D01*
X157240698Y-100223196D01*
X157250500Y-100173920D01*
X157250500Y-100026079D01*
X157221659Y-99881092D01*
X157221658Y-99881091D01*
X157221658Y-99881087D01*
X157197011Y-99821584D01*
X157165087Y-99744511D01*
X157165080Y-99744498D01*
X157082951Y-99621584D01*
X157082948Y-99621580D01*
X156978419Y-99517051D01*
X156978415Y-99517048D01*
X156855501Y-99434919D01*
X156855488Y-99434912D01*
X156718917Y-99378343D01*
X156718907Y-99378340D01*
X156573920Y-99349500D01*
X156573918Y-99349500D01*
X156426082Y-99349500D01*
X156426080Y-99349500D01*
X156281092Y-99378340D01*
X156281082Y-99378343D01*
X156144511Y-99434912D01*
X156144498Y-99434919D01*
X156021584Y-99517048D01*
X156021580Y-99517051D01*
X155917051Y-99621580D01*
X155917048Y-99621584D01*
X155834919Y-99744498D01*
X155834912Y-99744511D01*
X155778343Y-99881082D01*
X155778340Y-99881092D01*
X155771617Y-99914893D01*
X155739232Y-99976804D01*
X155678516Y-100011378D01*
X155608746Y-100007637D01*
X155552075Y-99966771D01*
X155528383Y-99914893D01*
X155521659Y-99881092D01*
X155521658Y-99881091D01*
X155521658Y-99881087D01*
X155497011Y-99821584D01*
X155465087Y-99744511D01*
X155465080Y-99744498D01*
X155382951Y-99621584D01*
X155382948Y-99621580D01*
X155278419Y-99517051D01*
X155278415Y-99517048D01*
X155155501Y-99434919D01*
X155155488Y-99434912D01*
X155018917Y-99378343D01*
X155018907Y-99378340D01*
X154873920Y-99349500D01*
X154873918Y-99349500D01*
X154726082Y-99349500D01*
X154726080Y-99349500D01*
X154581092Y-99378340D01*
X154581082Y-99378343D01*
X154444511Y-99434912D01*
X154444498Y-99434919D01*
X154321584Y-99517048D01*
X154321580Y-99517051D01*
X154217051Y-99621580D01*
X154217048Y-99621584D01*
X154134919Y-99744498D01*
X154134912Y-99744511D01*
X154078343Y-99881082D01*
X154078340Y-99881092D01*
X154049500Y-100026079D01*
X154049500Y-100026082D01*
X154049500Y-100173918D01*
X154049500Y-100173920D01*
X154049499Y-100173920D01*
X149450500Y-100173920D01*
X149450500Y-97636174D01*
X196189794Y-97636174D01*
X196218635Y-97781161D01*
X196218638Y-97781171D01*
X196275207Y-97917742D01*
X196275214Y-97917755D01*
X196351184Y-98031451D01*
X196372062Y-98098128D01*
X196369699Y-98124534D01*
X196349500Y-98226079D01*
X196349500Y-98226082D01*
X196349500Y-98373918D01*
X196349500Y-98373920D01*
X196349499Y-98373920D01*
X196378340Y-98518907D01*
X196378343Y-98518917D01*
X196434912Y-98655488D01*
X196434919Y-98655501D01*
X196517048Y-98778415D01*
X196517051Y-98778419D01*
X196621580Y-98882948D01*
X196621584Y-98882951D01*
X196744498Y-98965080D01*
X196744511Y-98965087D01*
X196881082Y-99021656D01*
X196881087Y-99021658D01*
X196881091Y-99021658D01*
X196881092Y-99021659D01*
X197026079Y-99050500D01*
X197026082Y-99050500D01*
X197173920Y-99050500D01*
X197271462Y-99031096D01*
X197318913Y-99021658D01*
X197455495Y-98965084D01*
X197578416Y-98882951D01*
X197682951Y-98778416D01*
X197765084Y-98655495D01*
X197821658Y-98518913D01*
X197850500Y-98373918D01*
X197850500Y-98226082D01*
X197850500Y-98226079D01*
X197821659Y-98081092D01*
X197821658Y-98081091D01*
X197821658Y-98081087D01*
X197801098Y-98031451D01*
X197765087Y-97944511D01*
X197765080Y-97944498D01*
X197689110Y-97830802D01*
X197668232Y-97764125D01*
X197670594Y-97737724D01*
X197690795Y-97636172D01*
X197690795Y-97488336D01*
X197690795Y-97488333D01*
X197661954Y-97343346D01*
X197661953Y-97343345D01*
X197661953Y-97343341D01*
X197633198Y-97273920D01*
X205249499Y-97273920D01*
X205278340Y-97418907D01*
X205278343Y-97418917D01*
X205334912Y-97555488D01*
X205334919Y-97555501D01*
X205417048Y-97678415D01*
X205417051Y-97678419D01*
X205521580Y-97782948D01*
X205521584Y-97782951D01*
X205644498Y-97865080D01*
X205644511Y-97865087D01*
X205771633Y-97917742D01*
X205781087Y-97921658D01*
X205781091Y-97921658D01*
X205781092Y-97921659D01*
X205926079Y-97950500D01*
X205926082Y-97950500D01*
X206073920Y-97950500D01*
X206171462Y-97931096D01*
X206218913Y-97921658D01*
X206355495Y-97865084D01*
X206478416Y-97782951D01*
X206582951Y-97678416D01*
X206665084Y-97555495D01*
X206721658Y-97418913D01*
X206750500Y-97273918D01*
X206750500Y-97126082D01*
X206750500Y-97126079D01*
X206721659Y-96981092D01*
X206721658Y-96981091D01*
X206721658Y-96981087D01*
X206686897Y-96897166D01*
X206665087Y-96844511D01*
X206665080Y-96844498D01*
X206582951Y-96721584D01*
X206582948Y-96721580D01*
X206478419Y-96617051D01*
X206478415Y-96617048D01*
X206355501Y-96534919D01*
X206355488Y-96534912D01*
X206218917Y-96478343D01*
X206218907Y-96478340D01*
X206073920Y-96449500D01*
X206073918Y-96449500D01*
X205926082Y-96449500D01*
X205926080Y-96449500D01*
X205781092Y-96478340D01*
X205781082Y-96478343D01*
X205644511Y-96534912D01*
X205644498Y-96534919D01*
X205521584Y-96617048D01*
X205521580Y-96617051D01*
X205417051Y-96721580D01*
X205417048Y-96721584D01*
X205334919Y-96844498D01*
X205334912Y-96844511D01*
X205278343Y-96981082D01*
X205278340Y-96981092D01*
X205249500Y-97126079D01*
X205249500Y-97126082D01*
X205249500Y-97273918D01*
X205249500Y-97273920D01*
X205249499Y-97273920D01*
X197633198Y-97273920D01*
X197633197Y-97273918D01*
X197605382Y-97206765D01*
X197605375Y-97206752D01*
X197593434Y-97188881D01*
X197523246Y-97083838D01*
X197523243Y-97083834D01*
X197418714Y-96979305D01*
X197418710Y-96979302D01*
X197295796Y-96897173D01*
X197295783Y-96897166D01*
X197159212Y-96840597D01*
X197159202Y-96840594D01*
X197014215Y-96811754D01*
X197014213Y-96811754D01*
X196866377Y-96811754D01*
X196866375Y-96811754D01*
X196721387Y-96840594D01*
X196721377Y-96840597D01*
X196584806Y-96897166D01*
X196584793Y-96897173D01*
X196461879Y-96979302D01*
X196461875Y-96979305D01*
X196357346Y-97083834D01*
X196357343Y-97083838D01*
X196275214Y-97206752D01*
X196275207Y-97206765D01*
X196218638Y-97343336D01*
X196218635Y-97343346D01*
X196189795Y-97488333D01*
X196189795Y-97488336D01*
X196189795Y-97636172D01*
X196189795Y-97636174D01*
X196189794Y-97636174D01*
X149450500Y-97636174D01*
X149450500Y-95573920D01*
X190349499Y-95573920D01*
X190378340Y-95718907D01*
X190378343Y-95718917D01*
X190434912Y-95855488D01*
X190434919Y-95855501D01*
X190517048Y-95978415D01*
X190517051Y-95978419D01*
X190621580Y-96082948D01*
X190621584Y-96082951D01*
X190744498Y-96165080D01*
X190744511Y-96165087D01*
X190881082Y-96221656D01*
X190881087Y-96221658D01*
X190881091Y-96221658D01*
X190881092Y-96221659D01*
X191026079Y-96250500D01*
X191026082Y-96250500D01*
X191173920Y-96250500D01*
X191271462Y-96231096D01*
X191318913Y-96221658D01*
X191455495Y-96165084D01*
X191578416Y-96082951D01*
X191682951Y-95978416D01*
X191765084Y-95855495D01*
X191821658Y-95718913D01*
X191850500Y-95573918D01*
X191850500Y-95426082D01*
X191850500Y-95426079D01*
X191821659Y-95281092D01*
X191821658Y-95281091D01*
X191821658Y-95281087D01*
X191779132Y-95178419D01*
X191765087Y-95144511D01*
X191765080Y-95144498D01*
X191682951Y-95021584D01*
X191682948Y-95021580D01*
X191578419Y-94917051D01*
X191578415Y-94917048D01*
X191455501Y-94834919D01*
X191455488Y-94834912D01*
X191318917Y-94778343D01*
X191318907Y-94778340D01*
X191173920Y-94749500D01*
X191173918Y-94749500D01*
X191026082Y-94749500D01*
X191026080Y-94749500D01*
X190881092Y-94778340D01*
X190881082Y-94778343D01*
X190744511Y-94834912D01*
X190744498Y-94834919D01*
X190621584Y-94917048D01*
X190621580Y-94917051D01*
X190517051Y-95021580D01*
X190517048Y-95021584D01*
X190434919Y-95144498D01*
X190434912Y-95144511D01*
X190378343Y-95281082D01*
X190378340Y-95281092D01*
X190349500Y-95426079D01*
X190349500Y-95426082D01*
X190349500Y-95573918D01*
X190349500Y-95573920D01*
X190349499Y-95573920D01*
X149450500Y-95573920D01*
X149450500Y-94473920D01*
X209149499Y-94473920D01*
X209178340Y-94618907D01*
X209178343Y-94618917D01*
X209234912Y-94755488D01*
X209234919Y-94755501D01*
X209317048Y-94878415D01*
X209317051Y-94878419D01*
X209421580Y-94982948D01*
X209421584Y-94982951D01*
X209544498Y-95065080D01*
X209544511Y-95065087D01*
X209681082Y-95121656D01*
X209681087Y-95121658D01*
X209681091Y-95121658D01*
X209681092Y-95121659D01*
X209826079Y-95150500D01*
X209826082Y-95150500D01*
X209973920Y-95150500D01*
X210071462Y-95131096D01*
X210118913Y-95121658D01*
X210255495Y-95065084D01*
X210378416Y-94982951D01*
X210482951Y-94878416D01*
X210565084Y-94755495D01*
X210621658Y-94618913D01*
X210650500Y-94473918D01*
X210650500Y-94326082D01*
X210650500Y-94326079D01*
X210640124Y-94273920D01*
X216549499Y-94273920D01*
X216578340Y-94418907D01*
X216578343Y-94418917D01*
X216634912Y-94555488D01*
X216634919Y-94555501D01*
X216717048Y-94678415D01*
X216717051Y-94678419D01*
X216821580Y-94782948D01*
X216821584Y-94782951D01*
X216944498Y-94865080D01*
X216944511Y-94865087D01*
X217081082Y-94921656D01*
X217081087Y-94921658D01*
X217081091Y-94921658D01*
X217081092Y-94921659D01*
X217226079Y-94950500D01*
X217226082Y-94950500D01*
X217373920Y-94950500D01*
X217471462Y-94931096D01*
X217518913Y-94921658D01*
X217655495Y-94865084D01*
X217778416Y-94782951D01*
X217787447Y-94773920D01*
X228749499Y-94773920D01*
X228778340Y-94918907D01*
X228778343Y-94918917D01*
X228834912Y-95055488D01*
X228834919Y-95055501D01*
X228917048Y-95178415D01*
X228917051Y-95178419D01*
X229021580Y-95282948D01*
X229021584Y-95282951D01*
X229144498Y-95365080D01*
X229144511Y-95365087D01*
X229281082Y-95421656D01*
X229281087Y-95421658D01*
X229281091Y-95421658D01*
X229281092Y-95421659D01*
X229426079Y-95450500D01*
X229426082Y-95450500D01*
X229573920Y-95450500D01*
X229671462Y-95431096D01*
X229718913Y-95421658D01*
X229855495Y-95365084D01*
X229978416Y-95282951D01*
X230082951Y-95178416D01*
X230165084Y-95055495D01*
X230221658Y-94918913D01*
X230238366Y-94834919D01*
X230250500Y-94773920D01*
X230250500Y-94626079D01*
X230221659Y-94481092D01*
X230221658Y-94481091D01*
X230221658Y-94481087D01*
X230218689Y-94473918D01*
X230165087Y-94344511D01*
X230165080Y-94344498D01*
X230082951Y-94221584D01*
X230082948Y-94221580D01*
X229978419Y-94117051D01*
X229978415Y-94117048D01*
X229855501Y-94034919D01*
X229855488Y-94034912D01*
X229718917Y-93978343D01*
X229718907Y-93978340D01*
X229573920Y-93949500D01*
X229573918Y-93949500D01*
X229426082Y-93949500D01*
X229426080Y-93949500D01*
X229281092Y-93978340D01*
X229281082Y-93978343D01*
X229144511Y-94034912D01*
X229144498Y-94034919D01*
X229021584Y-94117048D01*
X229021580Y-94117051D01*
X228917051Y-94221580D01*
X228917048Y-94221584D01*
X228834919Y-94344498D01*
X228834912Y-94344511D01*
X228778343Y-94481082D01*
X228778340Y-94481092D01*
X228749500Y-94626079D01*
X228749500Y-94626082D01*
X228749500Y-94773918D01*
X228749500Y-94773920D01*
X228749499Y-94773920D01*
X217787447Y-94773920D01*
X217882951Y-94678416D01*
X217965084Y-94555495D01*
X218021658Y-94418913D01*
X218036459Y-94344505D01*
X218050500Y-94273920D01*
X218050500Y-94126079D01*
X218021659Y-93981092D01*
X218021658Y-93981091D01*
X218021658Y-93981087D01*
X217997011Y-93921584D01*
X217965087Y-93844511D01*
X217965080Y-93844498D01*
X217882951Y-93721584D01*
X217882948Y-93721580D01*
X217778419Y-93617051D01*
X217778415Y-93617048D01*
X217655501Y-93534919D01*
X217655488Y-93534912D01*
X217518917Y-93478343D01*
X217518907Y-93478340D01*
X217373920Y-93449500D01*
X217373918Y-93449500D01*
X217226082Y-93449500D01*
X217226080Y-93449500D01*
X217081092Y-93478340D01*
X217081082Y-93478343D01*
X216944511Y-93534912D01*
X216944498Y-93534919D01*
X216821584Y-93617048D01*
X216821580Y-93617051D01*
X216717051Y-93721580D01*
X216717048Y-93721584D01*
X216634919Y-93844498D01*
X216634912Y-93844511D01*
X216578343Y-93981082D01*
X216578340Y-93981092D01*
X216549500Y-94126079D01*
X216549500Y-94126082D01*
X216549500Y-94273918D01*
X216549500Y-94273920D01*
X216549499Y-94273920D01*
X210640124Y-94273920D01*
X210621659Y-94181092D01*
X210621656Y-94181081D01*
X210616007Y-94167444D01*
X210616006Y-94167442D01*
X210565087Y-94044511D01*
X210565080Y-94044498D01*
X210482951Y-93921584D01*
X210482948Y-93921580D01*
X210378419Y-93817051D01*
X210378415Y-93817048D01*
X210255501Y-93734919D01*
X210255488Y-93734912D01*
X210118917Y-93678343D01*
X210118907Y-93678340D01*
X209973920Y-93649500D01*
X209973918Y-93649500D01*
X209826082Y-93649500D01*
X209826080Y-93649500D01*
X209681092Y-93678340D01*
X209681082Y-93678343D01*
X209544511Y-93734912D01*
X209544498Y-93734919D01*
X209421584Y-93817048D01*
X209421580Y-93817051D01*
X209317051Y-93921580D01*
X209317048Y-93921584D01*
X209234919Y-94044498D01*
X209234912Y-94044511D01*
X209178343Y-94181082D01*
X209178340Y-94181092D01*
X209149500Y-94326079D01*
X209149500Y-94326082D01*
X209149500Y-94473918D01*
X209149500Y-94473920D01*
X209149499Y-94473920D01*
X149450500Y-94473920D01*
X149450500Y-92273920D01*
X179849499Y-92273920D01*
X179878340Y-92418907D01*
X179878343Y-92418917D01*
X179934912Y-92555488D01*
X179934919Y-92555501D01*
X180017048Y-92678415D01*
X180017051Y-92678419D01*
X180121580Y-92782948D01*
X180121584Y-92782951D01*
X180244498Y-92865080D01*
X180244511Y-92865087D01*
X180381082Y-92921656D01*
X180381087Y-92921658D01*
X180381091Y-92921658D01*
X180381092Y-92921659D01*
X180526079Y-92950500D01*
X180526082Y-92950500D01*
X180673920Y-92950500D01*
X180771462Y-92931096D01*
X180818913Y-92921658D01*
X180955495Y-92865084D01*
X181078416Y-92782951D01*
X181182951Y-92678416D01*
X181265084Y-92555495D01*
X181321658Y-92418913D01*
X181350500Y-92273918D01*
X181350500Y-92126082D01*
X181350500Y-92126079D01*
X181321659Y-91981092D01*
X181321658Y-91981091D01*
X181321658Y-91981087D01*
X181321656Y-91981082D01*
X181265087Y-91844511D01*
X181265080Y-91844498D01*
X181182951Y-91721584D01*
X181182948Y-91721580D01*
X181078419Y-91617051D01*
X181078415Y-91617048D01*
X180955501Y-91534919D01*
X180955488Y-91534912D01*
X180818917Y-91478343D01*
X180818907Y-91478340D01*
X180673920Y-91449500D01*
X180673918Y-91449500D01*
X180526082Y-91449500D01*
X180526080Y-91449500D01*
X180381092Y-91478340D01*
X180381082Y-91478343D01*
X180244511Y-91534912D01*
X180244498Y-91534919D01*
X180121584Y-91617048D01*
X180121580Y-91617051D01*
X180017051Y-91721580D01*
X180017048Y-91721584D01*
X179934919Y-91844498D01*
X179934912Y-91844511D01*
X179878343Y-91981082D01*
X179878340Y-91981092D01*
X179849500Y-92126079D01*
X179849500Y-92126082D01*
X179849500Y-92273918D01*
X179849500Y-92273920D01*
X179849499Y-92273920D01*
X149450500Y-92273920D01*
X149450500Y-91273920D01*
X227149499Y-91273920D01*
X227178340Y-91418907D01*
X227178343Y-91418917D01*
X227234912Y-91555488D01*
X227234919Y-91555501D01*
X227317048Y-91678415D01*
X227317051Y-91678419D01*
X227421580Y-91782948D01*
X227421584Y-91782951D01*
X227544498Y-91865080D01*
X227544511Y-91865087D01*
X227681082Y-91921656D01*
X227681087Y-91921658D01*
X227681091Y-91921658D01*
X227681092Y-91921659D01*
X227826079Y-91950500D01*
X227826082Y-91950500D01*
X227973920Y-91950500D01*
X228071462Y-91931096D01*
X228118913Y-91921658D01*
X228255495Y-91865084D01*
X228378416Y-91782951D01*
X228482951Y-91678416D01*
X228565084Y-91555495D01*
X228621658Y-91418913D01*
X228650500Y-91273918D01*
X228650500Y-91126082D01*
X228650500Y-91126079D01*
X228621659Y-90981092D01*
X228621658Y-90981091D01*
X228621658Y-90981087D01*
X228579132Y-90878419D01*
X228565087Y-90844511D01*
X228565080Y-90844498D01*
X228482951Y-90721584D01*
X228482948Y-90721580D01*
X228378419Y-90617051D01*
X228378415Y-90617048D01*
X228255501Y-90534919D01*
X228255488Y-90534912D01*
X228118917Y-90478343D01*
X228118907Y-90478340D01*
X227973920Y-90449500D01*
X227973918Y-90449500D01*
X227826082Y-90449500D01*
X227826080Y-90449500D01*
X227681092Y-90478340D01*
X227681082Y-90478343D01*
X227544511Y-90534912D01*
X227544498Y-90534919D01*
X227421584Y-90617048D01*
X227421580Y-90617051D01*
X227317051Y-90721580D01*
X227317048Y-90721584D01*
X227234919Y-90844498D01*
X227234912Y-90844511D01*
X227178343Y-90981082D01*
X227178340Y-90981092D01*
X227149500Y-91126079D01*
X227149500Y-91126082D01*
X227149500Y-91273918D01*
X227149500Y-91273920D01*
X227149499Y-91273920D01*
X149450500Y-91273920D01*
X149450500Y-90473920D01*
X160249499Y-90473920D01*
X160278340Y-90618907D01*
X160278343Y-90618917D01*
X160334912Y-90755488D01*
X160334919Y-90755501D01*
X160417048Y-90878415D01*
X160417051Y-90878419D01*
X160521580Y-90982948D01*
X160521584Y-90982951D01*
X160644498Y-91065080D01*
X160644511Y-91065087D01*
X160781082Y-91121656D01*
X160781087Y-91121658D01*
X160781091Y-91121658D01*
X160781092Y-91121659D01*
X160926079Y-91150500D01*
X160926082Y-91150500D01*
X161073920Y-91150500D01*
X161171462Y-91131096D01*
X161218913Y-91121658D01*
X161355495Y-91065084D01*
X161478416Y-90982951D01*
X161582951Y-90878416D01*
X161665084Y-90755495D01*
X161721658Y-90618913D01*
X161738366Y-90534919D01*
X161750500Y-90473920D01*
X161750500Y-90326079D01*
X161721659Y-90181092D01*
X161721658Y-90181091D01*
X161721658Y-90181087D01*
X161698633Y-90125500D01*
X161665087Y-90044511D01*
X161665080Y-90044498D01*
X161582951Y-89921584D01*
X161582948Y-89921580D01*
X161478419Y-89817051D01*
X161478415Y-89817048D01*
X161413870Y-89773920D01*
X204849499Y-89773920D01*
X204878340Y-89918907D01*
X204878343Y-89918917D01*
X204934912Y-90055488D01*
X204934919Y-90055501D01*
X205017048Y-90178415D01*
X205017051Y-90178419D01*
X205121580Y-90282948D01*
X205121584Y-90282951D01*
X205244498Y-90365080D01*
X205244511Y-90365087D01*
X205381082Y-90421656D01*
X205381087Y-90421658D01*
X205381091Y-90421658D01*
X205381092Y-90421659D01*
X205526079Y-90450500D01*
X205526082Y-90450500D01*
X205673920Y-90450500D01*
X205771462Y-90431096D01*
X205818913Y-90421658D01*
X205955495Y-90365084D01*
X206078416Y-90282951D01*
X206182951Y-90178416D01*
X206182953Y-90178412D01*
X206186815Y-90173708D01*
X206188293Y-90174921D01*
X206235098Y-90135804D01*
X206284588Y-90125500D01*
X206423920Y-90125500D01*
X206521462Y-90106096D01*
X206568913Y-90096658D01*
X206705495Y-90040084D01*
X206828416Y-89957951D01*
X206932951Y-89853416D01*
X207015084Y-89730495D01*
X207071658Y-89593913D01*
X207099605Y-89453419D01*
X207100500Y-89448920D01*
X207100500Y-89301079D01*
X207071659Y-89156092D01*
X207071658Y-89156091D01*
X207071658Y-89156087D01*
X207055488Y-89117048D01*
X207027269Y-89048920D01*
X214523960Y-89048920D01*
X214552801Y-89193907D01*
X214552804Y-89193917D01*
X214609373Y-89330488D01*
X214609380Y-89330501D01*
X214691509Y-89453415D01*
X214691512Y-89453419D01*
X214796041Y-89557948D01*
X214796045Y-89557951D01*
X214918959Y-89640080D01*
X214918972Y-89640087D01*
X215055543Y-89696656D01*
X215055548Y-89696658D01*
X215055552Y-89696658D01*
X215055553Y-89696659D01*
X215200540Y-89725500D01*
X215200543Y-89725500D01*
X215348381Y-89725500D01*
X215445923Y-89706096D01*
X215493374Y-89696658D01*
X215629956Y-89640084D01*
X215752877Y-89557951D01*
X215857412Y-89453416D01*
X215939545Y-89330495D01*
X215996119Y-89193913D01*
X216017448Y-89086687D01*
X216024961Y-89048920D01*
X216024961Y-88901079D01*
X215996120Y-88756092D01*
X215996119Y-88756091D01*
X215996119Y-88756087D01*
X215984657Y-88728415D01*
X215939548Y-88619511D01*
X215939541Y-88619498D01*
X215857412Y-88496584D01*
X215857409Y-88496580D01*
X215799778Y-88438949D01*
X226084470Y-88438949D01*
X226113311Y-88583936D01*
X226113314Y-88583946D01*
X226169883Y-88720517D01*
X226169890Y-88720530D01*
X226252019Y-88843444D01*
X226252022Y-88843448D01*
X226356551Y-88947977D01*
X226356555Y-88947980D01*
X226479469Y-89030109D01*
X226479482Y-89030116D01*
X226616053Y-89086685D01*
X226616058Y-89086687D01*
X226616062Y-89086687D01*
X226616063Y-89086688D01*
X226761050Y-89115529D01*
X226761053Y-89115529D01*
X226908891Y-89115529D01*
X227006433Y-89096125D01*
X227053884Y-89086687D01*
X227190466Y-89030113D01*
X227313387Y-88947980D01*
X227417922Y-88843445D01*
X227500055Y-88720524D01*
X227556629Y-88583942D01*
X227574143Y-88495896D01*
X227606528Y-88433986D01*
X227667244Y-88399411D01*
X227737013Y-88403151D01*
X227793685Y-88444018D01*
X227798863Y-88451198D01*
X227817050Y-88478418D01*
X227921580Y-88582948D01*
X227921584Y-88582951D01*
X228044498Y-88665080D01*
X228044511Y-88665087D01*
X228152739Y-88709916D01*
X228181087Y-88721658D01*
X228181091Y-88721658D01*
X228181092Y-88721659D01*
X228326079Y-88750500D01*
X228326082Y-88750500D01*
X228473920Y-88750500D01*
X228584944Y-88728415D01*
X228618913Y-88721658D01*
X228755495Y-88665084D01*
X228878416Y-88582951D01*
X228982951Y-88478416D01*
X229065084Y-88355495D01*
X229121658Y-88218913D01*
X229150500Y-88073918D01*
X229150500Y-87926082D01*
X229150500Y-87926079D01*
X229126132Y-87803580D01*
X229121658Y-87781087D01*
X229121657Y-87781085D01*
X229121424Y-87779912D01*
X229127651Y-87710321D01*
X229170513Y-87655143D01*
X229174094Y-87652656D01*
X229278416Y-87582951D01*
X229382951Y-87478416D01*
X229465084Y-87355495D01*
X229521658Y-87218913D01*
X229535267Y-87150500D01*
X229550500Y-87073920D01*
X229550500Y-86926079D01*
X229521659Y-86781092D01*
X229521658Y-86781091D01*
X229521658Y-86781087D01*
X229511060Y-86755501D01*
X229465087Y-86644511D01*
X229465080Y-86644498D01*
X229382951Y-86521584D01*
X229382948Y-86521580D01*
X229278419Y-86417051D01*
X229278415Y-86417048D01*
X229155501Y-86334919D01*
X229155488Y-86334912D01*
X229018917Y-86278343D01*
X229018907Y-86278340D01*
X228873920Y-86249500D01*
X228873918Y-86249500D01*
X228726082Y-86249500D01*
X228726080Y-86249500D01*
X228581092Y-86278340D01*
X228581082Y-86278343D01*
X228444511Y-86334912D01*
X228444498Y-86334919D01*
X228321584Y-86417048D01*
X228321580Y-86417051D01*
X228217051Y-86521580D01*
X228217048Y-86521584D01*
X228134919Y-86644498D01*
X228134912Y-86644511D01*
X228078343Y-86781082D01*
X228078340Y-86781091D01*
X228068959Y-86828253D01*
X228036573Y-86890164D01*
X227975856Y-86924737D01*
X227906087Y-86920996D01*
X227878451Y-86907162D01*
X227809244Y-86860919D01*
X227809231Y-86860912D01*
X227672660Y-86804343D01*
X227672650Y-86804340D01*
X227527663Y-86775500D01*
X227527661Y-86775500D01*
X227379825Y-86775500D01*
X227379823Y-86775500D01*
X227234835Y-86804340D01*
X227234825Y-86804343D01*
X227098254Y-86860912D01*
X227098241Y-86860919D01*
X226975327Y-86943048D01*
X226975323Y-86943051D01*
X226870794Y-87047580D01*
X226870791Y-87047584D01*
X226788662Y-87170498D01*
X226788655Y-87170511D01*
X226732086Y-87307082D01*
X226732083Y-87307092D01*
X226703243Y-87452079D01*
X226703243Y-87524958D01*
X226683558Y-87591997D01*
X226630754Y-87637752D01*
X226617743Y-87642672D01*
X226479482Y-87699941D01*
X226479469Y-87699948D01*
X226356555Y-87782077D01*
X226356551Y-87782080D01*
X226252022Y-87886609D01*
X226252019Y-87886613D01*
X226169890Y-88009527D01*
X226169883Y-88009540D01*
X226113314Y-88146111D01*
X226113311Y-88146121D01*
X226084471Y-88291108D01*
X226084471Y-88291111D01*
X226084471Y-88438947D01*
X226084471Y-88438949D01*
X226084470Y-88438949D01*
X215799778Y-88438949D01*
X215752880Y-88392051D01*
X215752876Y-88392048D01*
X215746999Y-88388121D01*
X215629962Y-88309919D01*
X215629949Y-88309912D01*
X215493378Y-88253343D01*
X215493368Y-88253340D01*
X215348381Y-88224500D01*
X215348379Y-88224500D01*
X215200543Y-88224500D01*
X215200541Y-88224500D01*
X215055553Y-88253340D01*
X215055543Y-88253343D01*
X214918972Y-88309912D01*
X214918959Y-88309919D01*
X214796045Y-88392048D01*
X214796041Y-88392051D01*
X214691512Y-88496580D01*
X214691509Y-88496584D01*
X214609380Y-88619498D01*
X214609373Y-88619511D01*
X214552804Y-88756082D01*
X214552801Y-88756092D01*
X214523961Y-88901079D01*
X214523961Y-88901082D01*
X214523961Y-89048918D01*
X214523961Y-89048920D01*
X214523960Y-89048920D01*
X207027269Y-89048920D01*
X207015087Y-89019511D01*
X207015080Y-89019498D01*
X206977918Y-88963881D01*
X206932951Y-88896584D01*
X206932948Y-88896580D01*
X206828419Y-88792051D01*
X206828415Y-88792048D01*
X206705501Y-88709919D01*
X206705488Y-88709912D01*
X206568917Y-88653343D01*
X206568907Y-88653340D01*
X206423920Y-88624500D01*
X206423918Y-88624500D01*
X206276082Y-88624500D01*
X206276080Y-88624500D01*
X206131092Y-88653340D01*
X206131082Y-88653343D01*
X205994511Y-88709912D01*
X205994498Y-88709919D01*
X205871585Y-88792047D01*
X205767046Y-88896587D01*
X205763182Y-88901296D01*
X205761705Y-88900084D01*
X205714893Y-88939200D01*
X205665412Y-88949500D01*
X205526080Y-88949500D01*
X205381092Y-88978340D01*
X205381082Y-88978343D01*
X205244511Y-89034912D01*
X205244498Y-89034919D01*
X205121584Y-89117048D01*
X205121580Y-89117051D01*
X205017051Y-89221580D01*
X205017048Y-89221584D01*
X204934919Y-89344498D01*
X204934912Y-89344511D01*
X204878343Y-89481082D01*
X204878340Y-89481092D01*
X204849500Y-89626079D01*
X204849500Y-89626082D01*
X204849500Y-89773918D01*
X204849500Y-89773920D01*
X204849499Y-89773920D01*
X161413870Y-89773920D01*
X161355501Y-89734919D01*
X161355494Y-89734915D01*
X161354616Y-89734552D01*
X161354614Y-89734550D01*
X161218917Y-89678343D01*
X161218907Y-89678340D01*
X161073920Y-89649500D01*
X161073918Y-89649500D01*
X160926082Y-89649500D01*
X160926080Y-89649500D01*
X160781092Y-89678340D01*
X160781082Y-89678343D01*
X160644511Y-89734912D01*
X160644498Y-89734919D01*
X160521584Y-89817048D01*
X160521580Y-89817051D01*
X160417051Y-89921580D01*
X160417048Y-89921584D01*
X160334919Y-90044498D01*
X160334912Y-90044511D01*
X160278343Y-90181082D01*
X160278340Y-90181092D01*
X160249500Y-90326079D01*
X160249500Y-90326082D01*
X160249500Y-90473918D01*
X160249500Y-90473920D01*
X160249499Y-90473920D01*
X149450500Y-90473920D01*
X149450500Y-88323920D01*
X175199499Y-88323920D01*
X175228340Y-88468907D01*
X175228343Y-88468917D01*
X175284912Y-88605488D01*
X175284919Y-88605501D01*
X175367048Y-88728415D01*
X175367051Y-88728419D01*
X175471580Y-88832948D01*
X175471584Y-88832951D01*
X175594498Y-88915080D01*
X175594511Y-88915087D01*
X175731082Y-88971656D01*
X175731087Y-88971658D01*
X175731091Y-88971658D01*
X175731092Y-88971659D01*
X175876079Y-89000500D01*
X175876082Y-89000500D01*
X176023920Y-89000500D01*
X176135321Y-88978340D01*
X176168913Y-88971658D01*
X176305495Y-88915084D01*
X176428416Y-88832951D01*
X176532951Y-88728416D01*
X176615084Y-88605495D01*
X176671658Y-88468913D01*
X176700500Y-88323918D01*
X176700500Y-88176082D01*
X176700500Y-88176079D01*
X176671659Y-88031092D01*
X176671658Y-88031091D01*
X176671658Y-88031087D01*
X176662733Y-88009540D01*
X176615087Y-87894511D01*
X176615080Y-87894498D01*
X176532951Y-87771584D01*
X176532948Y-87771580D01*
X176428419Y-87667051D01*
X176428415Y-87667048D01*
X176305501Y-87584919D01*
X176305488Y-87584912D01*
X176168917Y-87528343D01*
X176168907Y-87528340D01*
X176023920Y-87499500D01*
X176023918Y-87499500D01*
X175876082Y-87499500D01*
X175876080Y-87499500D01*
X175731092Y-87528340D01*
X175731082Y-87528343D01*
X175594511Y-87584912D01*
X175594498Y-87584919D01*
X175471584Y-87667048D01*
X175471580Y-87667051D01*
X175367051Y-87771580D01*
X175367048Y-87771584D01*
X175284919Y-87894498D01*
X175284912Y-87894511D01*
X175228343Y-88031082D01*
X175228340Y-88031092D01*
X175199500Y-88176079D01*
X175199500Y-88176082D01*
X175199500Y-88323918D01*
X175199500Y-88323920D01*
X175199499Y-88323920D01*
X149450500Y-88323920D01*
X149450500Y-84385837D01*
X150799500Y-84385837D01*
X150799500Y-84614162D01*
X150835215Y-84839660D01*
X150905770Y-85056803D01*
X150989711Y-85221545D01*
X151009421Y-85260228D01*
X151143621Y-85444937D01*
X151305063Y-85606379D01*
X151489772Y-85740579D01*
X151568116Y-85780497D01*
X151693196Y-85844229D01*
X151693198Y-85844229D01*
X151693201Y-85844231D01*
X151787870Y-85874991D01*
X151910339Y-85914784D01*
X152135838Y-85950500D01*
X152135843Y-85950500D01*
X152364162Y-85950500D01*
X152589660Y-85914784D01*
X152610413Y-85908041D01*
X152806799Y-85844231D01*
X153010228Y-85740579D01*
X153194937Y-85606379D01*
X153356379Y-85444937D01*
X153490579Y-85260228D01*
X153594231Y-85056799D01*
X153664784Y-84839660D01*
X153668909Y-84813616D01*
X153672163Y-84793074D01*
X157445500Y-84793074D01*
X157445500Y-84966926D01*
X157447464Y-84979328D01*
X157472697Y-85138639D01*
X157472697Y-85138642D01*
X157526418Y-85303978D01*
X157555079Y-85360228D01*
X157605347Y-85458884D01*
X157707535Y-85599533D01*
X157830467Y-85722465D01*
X157830473Y-85722469D01*
X157840401Y-85729683D01*
X157883067Y-85785013D01*
X157889045Y-85854626D01*
X157856438Y-85916421D01*
X157840401Y-85930317D01*
X157830473Y-85937530D01*
X157830464Y-85937537D01*
X157707537Y-86060464D01*
X157707537Y-86060465D01*
X157707535Y-86060467D01*
X157693836Y-86079322D01*
X157605347Y-86201115D01*
X157526418Y-86356021D01*
X157472697Y-86521357D01*
X157472697Y-86521360D01*
X157445500Y-86693074D01*
X157445500Y-86866925D01*
X157472697Y-87038639D01*
X157472697Y-87038642D01*
X157526418Y-87203978D01*
X157578955Y-87307087D01*
X157605347Y-87358884D01*
X157707535Y-87499533D01*
X157830467Y-87622465D01*
X157971116Y-87724653D01*
X158079568Y-87779912D01*
X158126021Y-87803581D01*
X158291358Y-87857302D01*
X158291359Y-87857302D01*
X158291362Y-87857303D01*
X158463074Y-87884500D01*
X158463075Y-87884500D01*
X158636925Y-87884500D01*
X158636926Y-87884500D01*
X158808638Y-87857303D01*
X158808641Y-87857302D01*
X158808642Y-87857302D01*
X158973978Y-87803581D01*
X158973978Y-87803580D01*
X158973981Y-87803580D01*
X159128884Y-87724653D01*
X159269533Y-87622465D01*
X159392465Y-87499533D01*
X159494653Y-87358884D01*
X159573580Y-87203981D01*
X159600329Y-87121656D01*
X159627302Y-87038642D01*
X159627302Y-87038641D01*
X159627303Y-87038638D01*
X159654500Y-86866926D01*
X159654500Y-86693074D01*
X159627303Y-86521362D01*
X159627302Y-86521358D01*
X159627302Y-86521357D01*
X159573581Y-86356021D01*
X159556013Y-86321542D01*
X159494653Y-86201116D01*
X159392465Y-86060467D01*
X159305918Y-85973920D01*
X171549499Y-85973920D01*
X171578340Y-86118907D01*
X171578343Y-86118917D01*
X171634912Y-86255488D01*
X171634919Y-86255501D01*
X171717048Y-86378415D01*
X171717051Y-86378419D01*
X171821580Y-86482948D01*
X171821584Y-86482951D01*
X171944498Y-86565080D01*
X171944511Y-86565087D01*
X172081082Y-86621656D01*
X172081087Y-86621658D01*
X172081091Y-86621658D01*
X172081092Y-86621659D01*
X172226079Y-86650500D01*
X172226082Y-86650500D01*
X172373920Y-86650500D01*
X172480354Y-86629328D01*
X172518913Y-86621658D01*
X172655495Y-86565084D01*
X172778416Y-86482951D01*
X172787447Y-86473920D01*
X201649499Y-86473920D01*
X201678340Y-86618907D01*
X201678343Y-86618917D01*
X201734912Y-86755488D01*
X201734919Y-86755501D01*
X201817048Y-86878415D01*
X201817051Y-86878419D01*
X201921580Y-86982948D01*
X201921584Y-86982951D01*
X202044498Y-87065080D01*
X202044511Y-87065087D01*
X202181082Y-87121656D01*
X202181087Y-87121658D01*
X202181091Y-87121658D01*
X202181092Y-87121659D01*
X202326079Y-87150500D01*
X202326082Y-87150500D01*
X202473920Y-87150500D01*
X202599598Y-87125500D01*
X202618913Y-87121658D01*
X202734168Y-87073918D01*
X202755488Y-87065087D01*
X202755488Y-87065086D01*
X202755495Y-87065084D01*
X202878416Y-86982951D01*
X202982951Y-86878416D01*
X203065084Y-86755495D01*
X203121658Y-86618913D01*
X203135185Y-86550911D01*
X203150500Y-86473920D01*
X213649499Y-86473920D01*
X213678340Y-86618907D01*
X213678343Y-86618917D01*
X213734912Y-86755488D01*
X213734919Y-86755501D01*
X213817048Y-86878415D01*
X213817051Y-86878419D01*
X213921580Y-86982948D01*
X213921584Y-86982951D01*
X214044498Y-87065080D01*
X214044511Y-87065087D01*
X214181082Y-87121656D01*
X214181087Y-87121658D01*
X214181091Y-87121658D01*
X214181092Y-87121659D01*
X214326079Y-87150500D01*
X214326082Y-87150500D01*
X214473920Y-87150500D01*
X214599598Y-87125500D01*
X214618913Y-87121658D01*
X214734168Y-87073918D01*
X214755488Y-87065087D01*
X214755488Y-87065086D01*
X214755495Y-87065084D01*
X214878416Y-86982951D01*
X214982951Y-86878416D01*
X215065084Y-86755495D01*
X215121658Y-86618913D01*
X215135185Y-86550911D01*
X215150500Y-86473920D01*
X215150500Y-86326079D01*
X215121659Y-86181092D01*
X215121658Y-86181091D01*
X215121658Y-86181087D01*
X215121656Y-86181082D01*
X215065087Y-86044511D01*
X215065080Y-86044498D01*
X214982951Y-85921584D01*
X214982948Y-85921580D01*
X214878419Y-85817051D01*
X214878415Y-85817048D01*
X214755501Y-85734919D01*
X214755488Y-85734912D01*
X214618917Y-85678343D01*
X214618907Y-85678340D01*
X214473920Y-85649500D01*
X214473918Y-85649500D01*
X214326082Y-85649500D01*
X214326080Y-85649500D01*
X214181092Y-85678340D01*
X214181082Y-85678343D01*
X214044511Y-85734912D01*
X214044498Y-85734919D01*
X213921584Y-85817048D01*
X213921580Y-85817051D01*
X213817051Y-85921580D01*
X213817048Y-85921584D01*
X213734919Y-86044498D01*
X213734912Y-86044511D01*
X213678343Y-86181082D01*
X213678340Y-86181092D01*
X213649500Y-86326079D01*
X213649500Y-86326082D01*
X213649500Y-86473918D01*
X213649500Y-86473920D01*
X213649499Y-86473920D01*
X203150500Y-86473920D01*
X203150500Y-86326079D01*
X203121659Y-86181092D01*
X203121658Y-86181091D01*
X203121658Y-86181087D01*
X203121656Y-86181082D01*
X203065087Y-86044511D01*
X203065080Y-86044498D01*
X202982951Y-85921584D01*
X202982948Y-85921580D01*
X202878419Y-85817051D01*
X202878415Y-85817048D01*
X202755501Y-85734919D01*
X202755488Y-85734912D01*
X202618917Y-85678343D01*
X202618907Y-85678340D01*
X202473920Y-85649500D01*
X202473918Y-85649500D01*
X202326082Y-85649500D01*
X202326080Y-85649500D01*
X202181092Y-85678340D01*
X202181082Y-85678343D01*
X202044511Y-85734912D01*
X202044498Y-85734919D01*
X201921584Y-85817048D01*
X201921580Y-85817051D01*
X201817051Y-85921580D01*
X201817048Y-85921584D01*
X201734919Y-86044498D01*
X201734912Y-86044511D01*
X201678343Y-86181082D01*
X201678340Y-86181092D01*
X201649500Y-86326079D01*
X201649500Y-86326082D01*
X201649500Y-86473918D01*
X201649500Y-86473920D01*
X201649499Y-86473920D01*
X172787447Y-86473920D01*
X172882951Y-86378416D01*
X172965084Y-86255495D01*
X173021658Y-86118913D01*
X173036459Y-86044505D01*
X173050500Y-85973920D01*
X173050500Y-85826079D01*
X173021659Y-85681092D01*
X173021658Y-85681091D01*
X173021658Y-85681087D01*
X172987878Y-85599534D01*
X172965087Y-85544511D01*
X172965080Y-85544498D01*
X172882951Y-85421584D01*
X172882948Y-85421580D01*
X172778419Y-85317051D01*
X172778415Y-85317048D01*
X172655501Y-85234919D01*
X172655488Y-85234912D01*
X172518917Y-85178343D01*
X172518907Y-85178340D01*
X172373920Y-85149500D01*
X172373918Y-85149500D01*
X172226082Y-85149500D01*
X172226080Y-85149500D01*
X172081092Y-85178340D01*
X172081082Y-85178343D01*
X171944511Y-85234912D01*
X171944498Y-85234919D01*
X171821584Y-85317048D01*
X171821580Y-85317051D01*
X171717051Y-85421580D01*
X171717048Y-85421584D01*
X171634919Y-85544498D01*
X171634912Y-85544511D01*
X171578343Y-85681082D01*
X171578340Y-85681092D01*
X171549500Y-85826079D01*
X171549500Y-85826082D01*
X171549500Y-85973918D01*
X171549500Y-85973920D01*
X171549499Y-85973920D01*
X159305918Y-85973920D01*
X159269533Y-85937535D01*
X159259599Y-85930317D01*
X159242420Y-85908041D01*
X159222813Y-85887865D01*
X159221370Y-85880743D01*
X159216934Y-85874991D01*
X159214525Y-85846961D01*
X159208939Y-85819387D01*
X159211574Y-85812616D01*
X159210953Y-85805378D01*
X159224080Y-85780497D01*
X159234289Y-85754278D01*
X159241729Y-85747047D01*
X159243558Y-85743582D01*
X159259598Y-85729683D01*
X159269533Y-85722465D01*
X159392465Y-85599533D01*
X159494653Y-85458884D01*
X159573580Y-85303981D01*
X159596020Y-85234919D01*
X159627302Y-85138642D01*
X159627302Y-85138641D01*
X159627303Y-85138638D01*
X159654500Y-84966926D01*
X159654500Y-84793074D01*
X159627303Y-84621362D01*
X159627302Y-84621358D01*
X159627302Y-84621357D01*
X159594138Y-84519289D01*
X159583269Y-84485837D01*
X189149500Y-84485837D01*
X189149500Y-84714162D01*
X189185215Y-84939660D01*
X189255770Y-85156803D01*
X189359421Y-85360228D01*
X189493621Y-85544937D01*
X189655063Y-85706379D01*
X189839772Y-85840579D01*
X189932576Y-85887865D01*
X190043196Y-85944229D01*
X190043198Y-85944229D01*
X190043201Y-85944231D01*
X190134568Y-85973918D01*
X190260339Y-86014784D01*
X190485838Y-86050500D01*
X190485843Y-86050500D01*
X190714162Y-86050500D01*
X190939660Y-86014784D01*
X191156799Y-85944231D01*
X191360228Y-85840579D01*
X191544937Y-85706379D01*
X191706379Y-85544937D01*
X191840579Y-85360228D01*
X191944231Y-85156799D01*
X192014784Y-84939660D01*
X192029936Y-84843995D01*
X220421999Y-84843995D01*
X220448918Y-84979322D01*
X220448921Y-84979332D01*
X220501721Y-85106804D01*
X220501728Y-85106817D01*
X220578385Y-85221541D01*
X220578388Y-85221545D01*
X220594162Y-85237319D01*
X220627647Y-85298642D01*
X220622663Y-85368334D01*
X220594162Y-85412681D01*
X220578388Y-85428454D01*
X220578385Y-85428458D01*
X220501728Y-85543182D01*
X220501721Y-85543195D01*
X220448921Y-85670667D01*
X220448918Y-85670677D01*
X220422000Y-85806004D01*
X220422000Y-85943995D01*
X220448918Y-86079322D01*
X220448921Y-86079332D01*
X220501721Y-86206804D01*
X220501728Y-86206817D01*
X220578385Y-86321541D01*
X220578388Y-86321545D01*
X220675954Y-86419111D01*
X220675958Y-86419114D01*
X220790682Y-86495771D01*
X220790695Y-86495778D01*
X220923799Y-86550911D01*
X220923188Y-86552385D01*
X220975139Y-86586431D01*
X220995695Y-86624071D01*
X220996589Y-86623701D01*
X221051721Y-86756804D01*
X221051728Y-86756817D01*
X221128385Y-86871541D01*
X221128388Y-86871545D01*
X221225954Y-86969111D01*
X221225958Y-86969114D01*
X221340682Y-87045771D01*
X221340695Y-87045778D01*
X221408632Y-87073918D01*
X221468172Y-87098580D01*
X221468176Y-87098580D01*
X221468177Y-87098581D01*
X221603504Y-87125500D01*
X221603507Y-87125500D01*
X221741495Y-87125500D01*
X221832541Y-87107389D01*
X221876828Y-87098580D01*
X221999944Y-87047584D01*
X222004304Y-87045778D01*
X222004304Y-87045777D01*
X222004311Y-87045775D01*
X222119042Y-86969114D01*
X222119045Y-86969111D01*
X222134819Y-86953338D01*
X222196142Y-86919853D01*
X222265834Y-86924837D01*
X222310181Y-86953338D01*
X222325954Y-86969111D01*
X222325958Y-86969114D01*
X222440682Y-87045771D01*
X222440695Y-87045778D01*
X222508632Y-87073918D01*
X222568172Y-87098580D01*
X222568176Y-87098580D01*
X222568177Y-87098581D01*
X222703504Y-87125500D01*
X222703507Y-87125500D01*
X222841495Y-87125500D01*
X222932541Y-87107389D01*
X222976828Y-87098580D01*
X223099944Y-87047584D01*
X223104304Y-87045778D01*
X223104304Y-87045777D01*
X223104311Y-87045775D01*
X223219042Y-86969114D01*
X223316614Y-86871542D01*
X223393275Y-86756811D01*
X223419676Y-86693074D01*
X223448411Y-86623701D01*
X223449886Y-86624312D01*
X223483925Y-86572365D01*
X223521572Y-86551807D01*
X223521201Y-86550911D01*
X223654304Y-86495778D01*
X223654304Y-86495777D01*
X223654311Y-86495775D01*
X223769042Y-86419114D01*
X223866614Y-86321542D01*
X223943275Y-86206811D01*
X223996080Y-86079328D01*
X224023000Y-85943993D01*
X224023000Y-85806007D01*
X224023000Y-85806004D01*
X223996081Y-85670677D01*
X223996080Y-85670676D01*
X223996080Y-85670672D01*
X223969449Y-85606379D01*
X223943278Y-85543195D01*
X223943271Y-85543182D01*
X223866614Y-85428458D01*
X223866611Y-85428454D01*
X223850838Y-85412681D01*
X223817353Y-85351358D01*
X223822337Y-85281666D01*
X223850838Y-85237319D01*
X223866611Y-85221545D01*
X223866614Y-85221542D01*
X223943275Y-85106811D01*
X223996080Y-84979328D01*
X224023000Y-84843993D01*
X224023000Y-84706007D01*
X224023000Y-84706004D01*
X223996081Y-84570677D01*
X223996080Y-84570676D01*
X223996080Y-84570672D01*
X223984010Y-84541532D01*
X223943278Y-84443195D01*
X223943271Y-84443182D01*
X223866614Y-84328458D01*
X223866611Y-84328454D01*
X223769045Y-84230888D01*
X223769041Y-84230885D01*
X223654317Y-84154228D01*
X223654304Y-84154221D01*
X223521201Y-84099089D01*
X223521810Y-84097618D01*
X223469848Y-84063554D01*
X223449306Y-84025928D01*
X223448411Y-84026299D01*
X223393278Y-83893195D01*
X223393271Y-83893182D01*
X223316614Y-83778458D01*
X223316611Y-83778454D01*
X223219045Y-83680888D01*
X223219041Y-83680885D01*
X223104317Y-83604228D01*
X223104304Y-83604221D01*
X222976832Y-83551421D01*
X222976822Y-83551418D01*
X222841495Y-83524500D01*
X222841493Y-83524500D01*
X222703507Y-83524500D01*
X222703505Y-83524500D01*
X222568177Y-83551418D01*
X222568167Y-83551421D01*
X222440695Y-83604221D01*
X222440682Y-83604228D01*
X222325958Y-83680885D01*
X222325954Y-83680888D01*
X222310181Y-83696662D01*
X222248858Y-83730147D01*
X222179166Y-83725163D01*
X222134819Y-83696662D01*
X222119045Y-83680888D01*
X222119041Y-83680885D01*
X222004317Y-83604228D01*
X222004304Y-83604221D01*
X221876832Y-83551421D01*
X221876822Y-83551418D01*
X221741495Y-83524500D01*
X221741493Y-83524500D01*
X221603507Y-83524500D01*
X221603505Y-83524500D01*
X221468177Y-83551418D01*
X221468167Y-83551421D01*
X221340695Y-83604221D01*
X221340682Y-83604228D01*
X221225958Y-83680885D01*
X221225954Y-83680888D01*
X221128388Y-83778454D01*
X221128385Y-83778458D01*
X221051728Y-83893182D01*
X221051721Y-83893195D01*
X220996589Y-84026299D01*
X220995119Y-84025690D01*
X220961048Y-84077656D01*
X220923429Y-84098197D01*
X220923799Y-84099089D01*
X220790695Y-84154221D01*
X220790682Y-84154228D01*
X220675958Y-84230885D01*
X220675954Y-84230888D01*
X220578388Y-84328454D01*
X220578385Y-84328458D01*
X220501728Y-84443182D01*
X220501721Y-84443195D01*
X220448921Y-84570667D01*
X220448918Y-84570677D01*
X220422000Y-84706004D01*
X220422000Y-84706007D01*
X220422000Y-84843993D01*
X220422000Y-84843995D01*
X220421999Y-84843995D01*
X192029936Y-84843995D01*
X192029936Y-84843993D01*
X192050500Y-84714162D01*
X192050500Y-84485837D01*
X192014784Y-84260339D01*
X191969723Y-84121656D01*
X191944231Y-84043201D01*
X191944229Y-84043198D01*
X191944229Y-84043196D01*
X191889277Y-83935347D01*
X191840579Y-83839772D01*
X191706379Y-83655063D01*
X191544937Y-83493621D01*
X191517821Y-83473920D01*
X201349499Y-83473920D01*
X201378340Y-83618907D01*
X201378343Y-83618917D01*
X201434912Y-83755488D01*
X201434919Y-83755501D01*
X201517048Y-83878415D01*
X201517051Y-83878419D01*
X201621580Y-83982948D01*
X201621584Y-83982951D01*
X201744498Y-84065080D01*
X201744511Y-84065087D01*
X201881082Y-84121656D01*
X201881087Y-84121658D01*
X201881091Y-84121658D01*
X201881092Y-84121659D01*
X202026079Y-84150500D01*
X202026082Y-84150500D01*
X202173920Y-84150500D01*
X202241602Y-84137036D01*
X209599556Y-84137036D01*
X209628397Y-84282023D01*
X209628400Y-84282033D01*
X209684969Y-84418604D01*
X209684976Y-84418617D01*
X209767105Y-84541531D01*
X209767108Y-84541535D01*
X209871637Y-84646064D01*
X209871641Y-84646067D01*
X209994555Y-84728196D01*
X209994568Y-84728203D01*
X210131139Y-84784772D01*
X210131144Y-84784774D01*
X210131148Y-84784774D01*
X210131149Y-84784775D01*
X210276136Y-84813616D01*
X210276139Y-84813616D01*
X210423977Y-84813616D01*
X210527244Y-84793074D01*
X210568970Y-84784774D01*
X210705552Y-84728200D01*
X210828473Y-84646067D01*
X210828476Y-84646064D01*
X210862307Y-84612234D01*
X210933005Y-84541535D01*
X210933008Y-84541532D01*
X211015141Y-84418611D01*
X211071715Y-84282029D01*
X211095896Y-84160465D01*
X211100557Y-84137036D01*
X211100557Y-83989195D01*
X211071716Y-83844208D01*
X211071715Y-83844207D01*
X211071715Y-83844203D01*
X211046223Y-83782659D01*
X211015144Y-83707627D01*
X211015137Y-83707614D01*
X210933008Y-83584700D01*
X210933005Y-83584696D01*
X210828476Y-83480167D01*
X210828472Y-83480164D01*
X210705558Y-83398035D01*
X210705545Y-83398028D01*
X210568974Y-83341459D01*
X210568964Y-83341456D01*
X210423977Y-83312616D01*
X210423975Y-83312616D01*
X210276139Y-83312616D01*
X210276137Y-83312616D01*
X210131149Y-83341456D01*
X210131139Y-83341459D01*
X209994568Y-83398028D01*
X209994555Y-83398035D01*
X209871641Y-83480164D01*
X209871637Y-83480167D01*
X209767108Y-83584696D01*
X209767105Y-83584700D01*
X209684976Y-83707614D01*
X209684969Y-83707627D01*
X209628400Y-83844198D01*
X209628397Y-83844208D01*
X209599557Y-83989195D01*
X209599557Y-83989198D01*
X209599557Y-84137034D01*
X209599557Y-84137036D01*
X209599556Y-84137036D01*
X202241602Y-84137036D01*
X202271462Y-84131096D01*
X202318913Y-84121658D01*
X202455495Y-84065084D01*
X202578416Y-83982951D01*
X202618171Y-83943196D01*
X202665943Y-83895425D01*
X202682948Y-83878419D01*
X202682951Y-83878416D01*
X202765084Y-83755495D01*
X202821658Y-83618913D01*
X202834359Y-83555063D01*
X202835305Y-83550308D01*
X202867690Y-83488397D01*
X202928406Y-83453823D01*
X202956922Y-83450500D01*
X203073920Y-83450500D01*
X203171462Y-83431096D01*
X203218913Y-83421658D01*
X203355495Y-83365084D01*
X203478416Y-83282951D01*
X203582951Y-83178416D01*
X203628704Y-83109940D01*
X203682314Y-83065138D01*
X203751639Y-83056429D01*
X203814666Y-83086583D01*
X203851386Y-83146026D01*
X203853422Y-83154640D01*
X203878341Y-83279908D01*
X203878343Y-83279917D01*
X203934912Y-83416488D01*
X203934919Y-83416501D01*
X204017048Y-83539415D01*
X204017051Y-83539419D01*
X204121580Y-83643948D01*
X204121584Y-83643951D01*
X204244498Y-83726080D01*
X204244511Y-83726087D01*
X204370947Y-83778458D01*
X204381087Y-83782658D01*
X204381091Y-83782658D01*
X204381092Y-83782659D01*
X204526079Y-83811500D01*
X204526082Y-83811500D01*
X204673920Y-83811500D01*
X204771462Y-83792096D01*
X204818913Y-83782658D01*
X204955495Y-83726084D01*
X205078416Y-83643951D01*
X205182951Y-83539416D01*
X205265084Y-83416495D01*
X205321658Y-83279913D01*
X205341316Y-83181087D01*
X205350500Y-83134920D01*
X205350500Y-82987079D01*
X205321659Y-82842092D01*
X205321658Y-82842091D01*
X205321658Y-82842087D01*
X205293422Y-82773918D01*
X205265087Y-82705511D01*
X205265080Y-82705498D01*
X205182951Y-82582584D01*
X205182948Y-82582580D01*
X205078419Y-82478051D01*
X205078415Y-82478048D01*
X204955501Y-82395919D01*
X204955488Y-82395912D01*
X204818917Y-82339343D01*
X204818907Y-82339340D01*
X204673920Y-82310500D01*
X204673918Y-82310500D01*
X204526082Y-82310500D01*
X204526080Y-82310500D01*
X204381092Y-82339340D01*
X204381082Y-82339343D01*
X204244511Y-82395912D01*
X204244498Y-82395919D01*
X204121584Y-82478048D01*
X204121580Y-82478051D01*
X204017051Y-82582580D01*
X204017048Y-82582584D01*
X203971296Y-82651057D01*
X203917683Y-82695862D01*
X203848358Y-82704569D01*
X203785331Y-82674414D01*
X203748612Y-82614971D01*
X203746577Y-82606358D01*
X203721659Y-82481092D01*
X203721658Y-82481091D01*
X203721658Y-82481087D01*
X203721656Y-82481082D01*
X203665087Y-82344511D01*
X203665080Y-82344498D01*
X203582951Y-82221584D01*
X203582948Y-82221580D01*
X203478419Y-82117051D01*
X203478415Y-82117048D01*
X203355501Y-82034919D01*
X203355489Y-82034913D01*
X203352107Y-82033512D01*
X203350608Y-82032304D01*
X203350125Y-82032046D01*
X203350174Y-82031954D01*
X203297705Y-81989668D01*
X203275644Y-81923373D01*
X203292926Y-81855674D01*
X203330673Y-81815851D01*
X203378416Y-81783951D01*
X203482951Y-81679416D01*
X203565084Y-81556495D01*
X203621658Y-81419913D01*
X203643459Y-81310316D01*
X203650500Y-81274920D01*
X203650500Y-81127079D01*
X203649872Y-81123920D01*
X217999499Y-81123920D01*
X218028340Y-81268907D01*
X218028343Y-81268917D01*
X218084912Y-81405488D01*
X218084919Y-81405501D01*
X218167048Y-81528415D01*
X218167051Y-81528419D01*
X218271580Y-81632948D01*
X218271584Y-81632951D01*
X218394498Y-81715080D01*
X218394511Y-81715087D01*
X218531082Y-81771656D01*
X218531087Y-81771658D01*
X218531091Y-81771658D01*
X218531092Y-81771659D01*
X218676079Y-81800500D01*
X218676082Y-81800500D01*
X218823920Y-81800500D01*
X218957541Y-81773920D01*
X227349499Y-81773920D01*
X227378340Y-81918907D01*
X227378343Y-81918917D01*
X227434912Y-82055488D01*
X227434919Y-82055501D01*
X227517048Y-82178415D01*
X227517051Y-82178419D01*
X227621580Y-82282948D01*
X227621584Y-82282951D01*
X227744498Y-82365080D01*
X227744511Y-82365087D01*
X227818940Y-82395916D01*
X227881087Y-82421658D01*
X227881091Y-82421658D01*
X227881092Y-82421659D01*
X228026079Y-82450500D01*
X228026082Y-82450500D01*
X228173920Y-82450500D01*
X228271462Y-82431096D01*
X228318913Y-82421658D01*
X228455495Y-82365084D01*
X228578416Y-82282951D01*
X228682951Y-82178416D01*
X228765084Y-82055495D01*
X228821658Y-81918913D01*
X228834237Y-81855674D01*
X228850500Y-81773920D01*
X228850500Y-81626079D01*
X228821659Y-81481092D01*
X228821658Y-81481091D01*
X228821658Y-81481087D01*
X228821656Y-81481082D01*
X228765087Y-81344511D01*
X228765080Y-81344498D01*
X228682951Y-81221584D01*
X228682948Y-81221580D01*
X228578419Y-81117051D01*
X228578415Y-81117048D01*
X228455501Y-81034919D01*
X228455488Y-81034912D01*
X228318917Y-80978343D01*
X228318907Y-80978340D01*
X228173920Y-80949500D01*
X228173918Y-80949500D01*
X228026082Y-80949500D01*
X228026080Y-80949500D01*
X227881092Y-80978340D01*
X227881082Y-80978343D01*
X227744511Y-81034912D01*
X227744498Y-81034919D01*
X227621584Y-81117048D01*
X227621580Y-81117051D01*
X227517051Y-81221580D01*
X227517048Y-81221584D01*
X227434919Y-81344498D01*
X227434912Y-81344511D01*
X227378343Y-81481082D01*
X227378340Y-81481092D01*
X227349500Y-81626079D01*
X227349500Y-81626082D01*
X227349500Y-81773918D01*
X227349500Y-81773920D01*
X227349499Y-81773920D01*
X218957541Y-81773920D01*
X218957551Y-81773918D01*
X218968913Y-81771658D01*
X219105495Y-81715084D01*
X219228416Y-81632951D01*
X219275930Y-81585437D01*
X219329059Y-81532309D01*
X219332948Y-81528419D01*
X219332951Y-81528416D01*
X219415084Y-81405495D01*
X219471658Y-81268913D01*
X219499871Y-81127082D01*
X219500500Y-81123920D01*
X219500500Y-80976079D01*
X219471659Y-80831092D01*
X219471658Y-80831091D01*
X219471658Y-80831087D01*
X219467720Y-80821580D01*
X219415087Y-80694511D01*
X219415080Y-80694498D01*
X219332951Y-80571584D01*
X219332948Y-80571580D01*
X219228419Y-80467051D01*
X219228415Y-80467048D01*
X219105501Y-80384919D01*
X219105488Y-80384912D01*
X218968917Y-80328343D01*
X218968907Y-80328340D01*
X218823920Y-80299500D01*
X218823918Y-80299500D01*
X218676082Y-80299500D01*
X218676080Y-80299500D01*
X218531092Y-80328340D01*
X218531082Y-80328343D01*
X218394511Y-80384912D01*
X218394498Y-80384919D01*
X218271584Y-80467048D01*
X218271580Y-80467051D01*
X218167051Y-80571580D01*
X218167048Y-80571584D01*
X218084919Y-80694498D01*
X218084912Y-80694511D01*
X218028343Y-80831082D01*
X218028340Y-80831092D01*
X217999500Y-80976079D01*
X217999500Y-80976082D01*
X217999500Y-81123918D01*
X217999500Y-81123920D01*
X217999499Y-81123920D01*
X203649872Y-81123920D01*
X203624064Y-80994182D01*
X203624063Y-80994181D01*
X203621658Y-80982087D01*
X203619171Y-80976082D01*
X203565087Y-80845511D01*
X203565080Y-80845498D01*
X203482951Y-80722584D01*
X203482948Y-80722580D01*
X203378419Y-80618051D01*
X203378415Y-80618048D01*
X203255501Y-80535919D01*
X203255488Y-80535912D01*
X203118917Y-80479343D01*
X203118907Y-80479340D01*
X202973920Y-80450500D01*
X202973918Y-80450500D01*
X202826082Y-80450500D01*
X202826080Y-80450500D01*
X202681092Y-80479340D01*
X202681082Y-80479343D01*
X202544511Y-80535912D01*
X202544498Y-80535919D01*
X202421584Y-80618048D01*
X202421580Y-80618051D01*
X202317051Y-80722580D01*
X202317048Y-80722584D01*
X202234919Y-80845498D01*
X202234912Y-80845511D01*
X202178343Y-80982082D01*
X202178340Y-80982092D01*
X202149500Y-81127079D01*
X202149500Y-81127082D01*
X202149500Y-81274918D01*
X202149500Y-81274920D01*
X202149499Y-81274920D01*
X202178340Y-81419907D01*
X202178343Y-81419917D01*
X202234912Y-81556488D01*
X202234919Y-81556501D01*
X202317048Y-81679415D01*
X202317051Y-81679419D01*
X202376298Y-81738666D01*
X202409783Y-81799989D01*
X202404799Y-81869681D01*
X202362927Y-81925614D01*
X202297463Y-81950031D01*
X202276473Y-81949751D01*
X202273922Y-81949500D01*
X202273918Y-81949500D01*
X202126082Y-81949500D01*
X202126080Y-81949500D01*
X201981092Y-81978340D01*
X201981082Y-81978343D01*
X201844511Y-82034912D01*
X201844498Y-82034919D01*
X201721584Y-82117048D01*
X201721580Y-82117051D01*
X201617051Y-82221580D01*
X201617048Y-82221584D01*
X201534919Y-82344498D01*
X201534912Y-82344511D01*
X201478343Y-82481082D01*
X201478340Y-82481092D01*
X201449500Y-82626079D01*
X201449500Y-82773922D01*
X201477609Y-82915235D01*
X201471382Y-82984826D01*
X201459097Y-83008313D01*
X201434919Y-83044500D01*
X201434914Y-83044508D01*
X201378342Y-83181086D01*
X201378340Y-83181092D01*
X201349500Y-83326079D01*
X201349500Y-83326082D01*
X201349500Y-83473918D01*
X201349500Y-83473920D01*
X201349499Y-83473920D01*
X191517821Y-83473920D01*
X191360228Y-83359421D01*
X191324970Y-83341456D01*
X191156803Y-83255770D01*
X190939660Y-83185215D01*
X190714162Y-83149500D01*
X190714157Y-83149500D01*
X190485843Y-83149500D01*
X190485838Y-83149500D01*
X190260339Y-83185215D01*
X190043196Y-83255770D01*
X189839771Y-83359421D01*
X189655061Y-83493622D01*
X189493622Y-83655061D01*
X189359421Y-83839771D01*
X189255770Y-84043196D01*
X189185215Y-84260339D01*
X189149500Y-84485837D01*
X159583269Y-84485837D01*
X159573581Y-84456021D01*
X159554516Y-84418604D01*
X159494653Y-84301116D01*
X159392465Y-84160467D01*
X159269533Y-84037535D01*
X159128884Y-83935347D01*
X159050533Y-83895425D01*
X158973978Y-83856418D01*
X158808641Y-83802697D01*
X158679854Y-83782299D01*
X158636926Y-83775500D01*
X158463074Y-83775500D01*
X158417894Y-83782656D01*
X158291360Y-83802697D01*
X158291357Y-83802697D01*
X158126021Y-83856418D01*
X157971115Y-83935347D01*
X157905599Y-83982948D01*
X157830467Y-84037535D01*
X157830465Y-84037537D01*
X157830464Y-84037537D01*
X157707537Y-84160464D01*
X157707537Y-84160465D01*
X157707535Y-84160467D01*
X157663649Y-84220869D01*
X157605347Y-84301115D01*
X157526418Y-84456021D01*
X157472697Y-84621357D01*
X157472697Y-84621360D01*
X157468784Y-84646067D01*
X157445500Y-84793074D01*
X153672163Y-84793074D01*
X153676007Y-84768804D01*
X153700500Y-84614162D01*
X153700500Y-84385837D01*
X153664784Y-84160339D01*
X153609175Y-83989195D01*
X153594231Y-83943201D01*
X153594229Y-83943198D01*
X153594229Y-83943196D01*
X153498590Y-83755495D01*
X153490579Y-83739772D01*
X153356379Y-83555063D01*
X153194937Y-83393621D01*
X153010228Y-83259421D01*
X152806803Y-83155770D01*
X152589660Y-83085215D01*
X152364162Y-83049500D01*
X152364157Y-83049500D01*
X152135843Y-83049500D01*
X152135838Y-83049500D01*
X151910339Y-83085215D01*
X151693196Y-83155770D01*
X151489771Y-83259421D01*
X151305061Y-83393622D01*
X151143622Y-83555061D01*
X151009421Y-83739771D01*
X150905770Y-83943196D01*
X150835215Y-84160339D01*
X150799500Y-84385837D01*
X149450500Y-84385837D01*
X149450500Y-81165329D01*
X165540908Y-81165329D01*
X165569749Y-81310316D01*
X165569752Y-81310326D01*
X165626321Y-81446897D01*
X165626328Y-81446910D01*
X165708457Y-81569824D01*
X165708460Y-81569828D01*
X165812989Y-81674357D01*
X165812993Y-81674360D01*
X165935907Y-81756489D01*
X165935920Y-81756496D01*
X166072491Y-81813065D01*
X166072496Y-81813067D01*
X166072500Y-81813067D01*
X166072501Y-81813068D01*
X166217488Y-81841909D01*
X166217491Y-81841909D01*
X166365329Y-81841909D01*
X166496331Y-81815850D01*
X166510322Y-81813067D01*
X166646904Y-81756493D01*
X166769825Y-81674360D01*
X166874360Y-81569825D01*
X166956493Y-81446904D01*
X167013067Y-81310322D01*
X167029824Y-81226082D01*
X167041909Y-81165329D01*
X167041909Y-81017488D01*
X167013068Y-80872501D01*
X167013067Y-80872500D01*
X167013067Y-80872496D01*
X167003296Y-80848906D01*
X166956496Y-80735920D01*
X166956489Y-80735907D01*
X166935115Y-80703919D01*
X170849499Y-80703919D01*
X170878340Y-80848906D01*
X170878343Y-80848916D01*
X170934912Y-80985487D01*
X170934919Y-80985500D01*
X171017048Y-81108414D01*
X171017051Y-81108418D01*
X171121580Y-81212947D01*
X171121584Y-81212950D01*
X171244498Y-81295079D01*
X171244511Y-81295086D01*
X171363835Y-81344511D01*
X171381087Y-81351657D01*
X171381091Y-81351657D01*
X171381092Y-81351658D01*
X171526079Y-81380499D01*
X171526082Y-81380499D01*
X171673920Y-81380499D01*
X171771462Y-81361095D01*
X171818913Y-81351657D01*
X171955495Y-81295083D01*
X172078416Y-81212950D01*
X172182951Y-81108415D01*
X172265084Y-80985494D01*
X172268047Y-80978342D01*
X172291526Y-80921658D01*
X172321658Y-80848912D01*
X172344134Y-80735920D01*
X172350500Y-80703919D01*
X172350500Y-80556078D01*
X172321659Y-80411091D01*
X172321658Y-80411090D01*
X172321658Y-80411086D01*
X172310818Y-80384916D01*
X172265087Y-80274510D01*
X172265080Y-80274497D01*
X172264694Y-80273920D01*
X226049499Y-80273920D01*
X226078340Y-80418907D01*
X226078343Y-80418917D01*
X226134912Y-80555488D01*
X226134919Y-80555501D01*
X226217048Y-80678415D01*
X226217051Y-80678419D01*
X226321580Y-80782948D01*
X226321584Y-80782951D01*
X226444498Y-80865080D01*
X226444511Y-80865087D01*
X226581082Y-80921656D01*
X226581087Y-80921658D01*
X226581091Y-80921658D01*
X226581092Y-80921659D01*
X226726079Y-80950500D01*
X226726082Y-80950500D01*
X226873920Y-80950500D01*
X226971462Y-80931096D01*
X227018913Y-80921658D01*
X227155495Y-80865084D01*
X227278416Y-80782951D01*
X227382951Y-80678416D01*
X227465084Y-80555495D01*
X227521658Y-80418913D01*
X227539675Y-80328340D01*
X227550500Y-80273920D01*
X227550500Y-80126079D01*
X227521659Y-79981092D01*
X227521658Y-79981091D01*
X227521658Y-79981087D01*
X227479579Y-79879499D01*
X227465087Y-79844511D01*
X227465080Y-79844498D01*
X227382951Y-79721584D01*
X227382948Y-79721580D01*
X227278419Y-79617051D01*
X227278415Y-79617048D01*
X227155501Y-79534919D01*
X227155488Y-79534912D01*
X227018917Y-79478343D01*
X227018907Y-79478340D01*
X226873920Y-79449500D01*
X226873918Y-79449500D01*
X226726082Y-79449500D01*
X226726080Y-79449500D01*
X226581092Y-79478340D01*
X226581082Y-79478343D01*
X226444511Y-79534912D01*
X226444498Y-79534919D01*
X226321584Y-79617048D01*
X226321580Y-79617051D01*
X226217051Y-79721580D01*
X226217048Y-79721584D01*
X226134919Y-79844498D01*
X226134912Y-79844511D01*
X226078343Y-79981082D01*
X226078340Y-79981092D01*
X226049500Y-80126079D01*
X226049500Y-80126082D01*
X226049500Y-80273918D01*
X226049500Y-80273920D01*
X226049499Y-80273920D01*
X172264694Y-80273920D01*
X172182951Y-80151583D01*
X172182948Y-80151579D01*
X172078419Y-80047050D01*
X172078415Y-80047047D01*
X171955501Y-79964918D01*
X171955488Y-79964911D01*
X171818917Y-79908342D01*
X171818907Y-79908339D01*
X171673920Y-79879499D01*
X171673918Y-79879499D01*
X171526082Y-79879499D01*
X171526080Y-79879499D01*
X171381092Y-79908339D01*
X171381082Y-79908342D01*
X171244511Y-79964911D01*
X171244498Y-79964918D01*
X171121584Y-80047047D01*
X171121580Y-80047050D01*
X171017051Y-80151579D01*
X171017048Y-80151583D01*
X170934919Y-80274497D01*
X170934912Y-80274510D01*
X170878343Y-80411081D01*
X170878340Y-80411091D01*
X170849500Y-80556078D01*
X170849500Y-80556081D01*
X170849500Y-80703917D01*
X170849500Y-80703919D01*
X170849499Y-80703919D01*
X166935115Y-80703919D01*
X166878294Y-80618880D01*
X166874360Y-80612993D01*
X166874357Y-80612989D01*
X166769828Y-80508460D01*
X166769824Y-80508457D01*
X166646910Y-80426328D01*
X166646897Y-80426321D01*
X166510326Y-80369752D01*
X166510316Y-80369749D01*
X166365329Y-80340909D01*
X166365327Y-80340909D01*
X166217491Y-80340909D01*
X166217489Y-80340909D01*
X166072501Y-80369749D01*
X166072491Y-80369752D01*
X165935920Y-80426321D01*
X165935907Y-80426328D01*
X165812993Y-80508457D01*
X165812989Y-80508460D01*
X165708460Y-80612989D01*
X165708457Y-80612993D01*
X165626328Y-80735907D01*
X165626321Y-80735920D01*
X165569752Y-80872491D01*
X165569749Y-80872501D01*
X165540909Y-81017488D01*
X165540909Y-81017491D01*
X165540909Y-81165327D01*
X165540909Y-81165329D01*
X165540908Y-81165329D01*
X149450500Y-81165329D01*
X149450500Y-74643713D01*
X151569499Y-74643713D01*
X151569499Y-74856287D01*
X151602753Y-75066243D01*
X151649999Y-75211652D01*
X151668443Y-75268414D01*
X151764950Y-75457820D01*
X151889889Y-75629786D01*
X152040212Y-75780109D01*
X152212178Y-75905048D01*
X152212180Y-75905049D01*
X152212183Y-75905051D01*
X152401587Y-76001557D01*
X152603756Y-76067246D01*
X152813712Y-76100500D01*
X152813713Y-76100500D01*
X153026285Y-76100500D01*
X153026286Y-76100500D01*
X153236242Y-76067246D01*
X153438411Y-76001557D01*
X153627815Y-75905051D01*
X153709534Y-75845679D01*
X153799785Y-75780109D01*
X153799787Y-75780106D01*
X153799791Y-75780104D01*
X153950103Y-75629792D01*
X153950105Y-75629788D01*
X153950108Y-75629786D01*
X154075047Y-75457820D01*
X154075049Y-75457817D01*
X154075050Y-75457816D01*
X154079513Y-75449054D01*
X154127487Y-75398259D01*
X154195307Y-75381463D01*
X154261443Y-75403999D01*
X154300483Y-75449054D01*
X154304590Y-75457115D01*
X154304950Y-75457820D01*
X154429889Y-75629786D01*
X154580212Y-75780109D01*
X154752178Y-75905048D01*
X154752180Y-75905049D01*
X154752183Y-75905051D01*
X154941587Y-76001557D01*
X155143756Y-76067246D01*
X155353712Y-76100500D01*
X155353713Y-76100500D01*
X155566285Y-76100500D01*
X155566286Y-76100500D01*
X155776242Y-76067246D01*
X155978411Y-76001557D01*
X156167815Y-75905051D01*
X156249534Y-75845679D01*
X156339785Y-75780109D01*
X156339787Y-75780106D01*
X156339791Y-75780104D01*
X156490103Y-75629792D01*
X156490105Y-75629788D01*
X156490108Y-75629786D01*
X156615047Y-75457821D01*
X156615050Y-75457816D01*
X156619512Y-75449056D01*
X156667483Y-75398260D01*
X156735303Y-75381462D01*
X156801439Y-75403996D01*
X156840483Y-75449052D01*
X156844949Y-75457817D01*
X156969890Y-75629786D01*
X157120213Y-75780109D01*
X157292179Y-75905048D01*
X157292181Y-75905049D01*
X157292184Y-75905051D01*
X157481588Y-76001557D01*
X157683757Y-76067246D01*
X157893713Y-76100500D01*
X157893714Y-76100500D01*
X158106286Y-76100500D01*
X158106287Y-76100500D01*
X158316243Y-76067246D01*
X158518412Y-76001557D01*
X158707816Y-75905051D01*
X158789535Y-75845679D01*
X158879786Y-75780109D01*
X158879788Y-75780106D01*
X158879792Y-75780104D01*
X159030104Y-75629792D01*
X159030106Y-75629788D01*
X159030109Y-75629786D01*
X159155048Y-75457820D01*
X159155050Y-75457817D01*
X159155051Y-75457816D01*
X159159512Y-75449058D01*
X159207483Y-75398262D01*
X159275303Y-75381464D01*
X159341440Y-75403998D01*
X159380483Y-75449054D01*
X159384948Y-75457817D01*
X159509889Y-75629786D01*
X159660212Y-75780109D01*
X159832178Y-75905048D01*
X159832180Y-75905049D01*
X159832183Y-75905051D01*
X160021587Y-76001557D01*
X160223756Y-76067246D01*
X160433712Y-76100500D01*
X160433713Y-76100500D01*
X160646285Y-76100500D01*
X160646286Y-76100500D01*
X160856242Y-76067246D01*
X161058411Y-76001557D01*
X161247815Y-75905051D01*
X161329534Y-75845679D01*
X161419783Y-75780110D01*
X161419783Y-75780109D01*
X161419791Y-75780104D01*
X161533716Y-75666178D01*
X161595035Y-75632696D01*
X161664727Y-75637680D01*
X161720661Y-75679551D01*
X161737576Y-75710528D01*
X161786645Y-75842088D01*
X161786648Y-75842093D01*
X161872808Y-75957187D01*
X161872811Y-75957190D01*
X161987905Y-76043350D01*
X161987912Y-76043354D01*
X162122619Y-76093596D01*
X162122626Y-76093598D01*
X162182154Y-76099999D01*
X162182171Y-76100000D01*
X162829999Y-76100000D01*
X162829999Y-75183012D01*
X162887006Y-75215925D01*
X163014173Y-75250000D01*
X163145825Y-75250000D01*
X163272992Y-75215925D01*
X163329999Y-75183012D01*
X163329999Y-76100000D01*
X163977827Y-76100000D01*
X163977843Y-76099999D01*
X164037371Y-76093598D01*
X164037378Y-76093596D01*
X164172085Y-76043354D01*
X164172092Y-76043350D01*
X164287186Y-75957190D01*
X164287189Y-75957187D01*
X164373349Y-75842093D01*
X164373353Y-75842086D01*
X164423595Y-75707379D01*
X164423597Y-75707372D01*
X164429998Y-75647844D01*
X164429999Y-75647827D01*
X164429999Y-75000000D01*
X163513011Y-75000000D01*
X163545924Y-74942993D01*
X163579999Y-74815826D01*
X163579999Y-74684174D01*
X163569157Y-74643713D01*
X169109499Y-74643713D01*
X169109499Y-74856287D01*
X169142753Y-75066243D01*
X169189999Y-75211652D01*
X169208443Y-75268414D01*
X169304950Y-75457820D01*
X169429889Y-75629786D01*
X169580212Y-75780109D01*
X169752178Y-75905048D01*
X169752180Y-75905049D01*
X169752183Y-75905051D01*
X169941587Y-76001557D01*
X170143756Y-76067246D01*
X170353712Y-76100500D01*
X170353713Y-76100500D01*
X170566285Y-76100500D01*
X170566286Y-76100500D01*
X170776242Y-76067246D01*
X170978411Y-76001557D01*
X171167815Y-75905051D01*
X171249534Y-75845679D01*
X171339785Y-75780109D01*
X171339787Y-75780106D01*
X171339791Y-75780104D01*
X171490103Y-75629792D01*
X171490105Y-75629788D01*
X171490108Y-75629786D01*
X171615047Y-75457821D01*
X171615050Y-75457816D01*
X171619512Y-75449056D01*
X171667483Y-75398260D01*
X171735303Y-75381462D01*
X171801439Y-75403996D01*
X171840483Y-75449052D01*
X171844949Y-75457817D01*
X171969890Y-75629786D01*
X172120213Y-75780109D01*
X172292179Y-75905048D01*
X172292181Y-75905049D01*
X172292184Y-75905051D01*
X172481588Y-76001557D01*
X172683757Y-76067246D01*
X172893713Y-76100500D01*
X172893714Y-76100500D01*
X173106286Y-76100500D01*
X173106287Y-76100500D01*
X173316243Y-76067246D01*
X173518412Y-76001557D01*
X173707816Y-75905051D01*
X173789535Y-75845679D01*
X173879786Y-75780109D01*
X173879788Y-75780106D01*
X173879792Y-75780104D01*
X174030104Y-75629792D01*
X174030106Y-75629788D01*
X174030109Y-75629786D01*
X174155048Y-75457820D01*
X174155050Y-75457817D01*
X174155051Y-75457816D01*
X174159512Y-75449058D01*
X174207483Y-75398262D01*
X174275303Y-75381464D01*
X174341440Y-75403998D01*
X174380483Y-75449054D01*
X174384948Y-75457817D01*
X174509889Y-75629786D01*
X174660212Y-75780109D01*
X174832178Y-75905048D01*
X174832180Y-75905049D01*
X174832183Y-75905051D01*
X175021587Y-76001557D01*
X175223756Y-76067246D01*
X175433712Y-76100500D01*
X175433713Y-76100500D01*
X175646285Y-76100500D01*
X175646286Y-76100500D01*
X175856242Y-76067246D01*
X176058411Y-76001557D01*
X176247815Y-75905051D01*
X176329534Y-75845679D01*
X176419783Y-75780110D01*
X176419783Y-75780109D01*
X176419791Y-75780104D01*
X176533716Y-75666178D01*
X176595035Y-75632696D01*
X176664727Y-75637680D01*
X176720661Y-75679551D01*
X176737576Y-75710528D01*
X176786645Y-75842088D01*
X176786648Y-75842093D01*
X176872808Y-75957187D01*
X176872811Y-75957190D01*
X176987905Y-76043350D01*
X176987912Y-76043354D01*
X177122619Y-76093596D01*
X177122626Y-76093598D01*
X177182154Y-76099999D01*
X177182171Y-76100000D01*
X177829999Y-76100000D01*
X177829999Y-75183012D01*
X177887006Y-75215925D01*
X178014173Y-75250000D01*
X178145825Y-75250000D01*
X178272992Y-75215925D01*
X178329999Y-75183012D01*
X178329999Y-76100000D01*
X178977827Y-76100000D01*
X178977843Y-76099999D01*
X179037371Y-76093598D01*
X179037378Y-76093596D01*
X179090133Y-76073920D01*
X187500499Y-76073920D01*
X187529340Y-76218907D01*
X187529343Y-76218917D01*
X187585912Y-76355488D01*
X187585919Y-76355501D01*
X187668048Y-76478415D01*
X187668051Y-76478419D01*
X187772580Y-76582948D01*
X187772584Y-76582951D01*
X187895498Y-76665080D01*
X187895511Y-76665087D01*
X188032082Y-76721656D01*
X188032087Y-76721658D01*
X188032091Y-76721658D01*
X188032092Y-76721659D01*
X188177079Y-76750500D01*
X188177082Y-76750500D01*
X188324920Y-76750500D01*
X188422462Y-76731096D01*
X188469913Y-76721658D01*
X188606495Y-76665084D01*
X188729416Y-76582951D01*
X188833951Y-76478416D01*
X188916084Y-76355495D01*
X188972658Y-76218913D01*
X188982096Y-76171462D01*
X189001500Y-76073920D01*
X189001500Y-75926079D01*
X188972659Y-75781092D01*
X188972658Y-75781091D01*
X188972658Y-75781087D01*
X188943432Y-75710528D01*
X188916087Y-75644511D01*
X188916080Y-75644498D01*
X188833951Y-75521584D01*
X188833948Y-75521580D01*
X188729419Y-75417051D01*
X188729415Y-75417048D01*
X188606501Y-75334919D01*
X188606488Y-75334912D01*
X188469917Y-75278343D01*
X188469907Y-75278340D01*
X188324920Y-75249500D01*
X188324918Y-75249500D01*
X188177082Y-75249500D01*
X188177080Y-75249500D01*
X188032092Y-75278340D01*
X188032082Y-75278343D01*
X187895511Y-75334912D01*
X187895498Y-75334919D01*
X187772584Y-75417048D01*
X187772580Y-75417051D01*
X187668051Y-75521580D01*
X187668048Y-75521584D01*
X187585919Y-75644498D01*
X187585912Y-75644511D01*
X187529343Y-75781082D01*
X187529340Y-75781092D01*
X187500500Y-75926079D01*
X187500500Y-75926082D01*
X187500500Y-76073918D01*
X187500500Y-76073920D01*
X187500499Y-76073920D01*
X179090133Y-76073920D01*
X179172085Y-76043354D01*
X179172092Y-76043350D01*
X179287185Y-75957190D01*
X179370664Y-75845679D01*
X179370665Y-75845678D01*
X179370666Y-75845676D01*
X179373353Y-75842086D01*
X179423595Y-75707379D01*
X179423597Y-75707372D01*
X179429998Y-75647844D01*
X179429999Y-75647827D01*
X179429999Y-75000000D01*
X178513011Y-75000000D01*
X178545924Y-74942993D01*
X178579999Y-74815826D01*
X178579999Y-74684174D01*
X178545924Y-74557007D01*
X178513011Y-74500000D01*
X179429999Y-74500000D01*
X179429999Y-73852172D01*
X179429998Y-73852155D01*
X179423597Y-73792627D01*
X179423595Y-73792620D01*
X179373353Y-73657913D01*
X179373349Y-73657906D01*
X179287189Y-73542812D01*
X179287186Y-73542809D01*
X179172092Y-73456649D01*
X179172085Y-73456645D01*
X179131264Y-73441420D01*
X184449499Y-73441420D01*
X184478340Y-73586407D01*
X184478343Y-73586417D01*
X184534912Y-73722988D01*
X184534919Y-73723001D01*
X184617048Y-73845915D01*
X184617051Y-73845919D01*
X184721580Y-73950448D01*
X184721584Y-73950451D01*
X184844498Y-74032580D01*
X184844511Y-74032587D01*
X184981082Y-74089156D01*
X184981087Y-74089158D01*
X184981091Y-74089158D01*
X184981092Y-74089159D01*
X185126079Y-74118000D01*
X185126082Y-74118000D01*
X185273920Y-74118000D01*
X185384542Y-74095995D01*
X185418913Y-74089158D01*
X185555495Y-74032584D01*
X185678416Y-73950451D01*
X185782951Y-73845916D01*
X185865084Y-73722995D01*
X185921658Y-73586413D01*
X185939157Y-73498443D01*
X185950500Y-73441420D01*
X185950500Y-73293579D01*
X185921659Y-73148592D01*
X185921658Y-73148591D01*
X185921658Y-73148587D01*
X185921656Y-73148582D01*
X185865087Y-73012011D01*
X185865080Y-73011998D01*
X185782951Y-72889084D01*
X185782948Y-72889080D01*
X185678419Y-72784551D01*
X185678415Y-72784548D01*
X185555501Y-72702419D01*
X185555488Y-72702412D01*
X185418917Y-72645843D01*
X185418907Y-72645840D01*
X185273920Y-72617000D01*
X185273918Y-72617000D01*
X185126082Y-72617000D01*
X185126080Y-72617000D01*
X184981092Y-72645840D01*
X184981082Y-72645843D01*
X184844511Y-72702412D01*
X184844498Y-72702419D01*
X184721584Y-72784548D01*
X184721580Y-72784551D01*
X184617051Y-72889080D01*
X184617048Y-72889084D01*
X184534919Y-73011998D01*
X184534912Y-73012011D01*
X184478343Y-73148582D01*
X184478340Y-73148592D01*
X184449500Y-73293579D01*
X184449500Y-73293582D01*
X184449500Y-73441418D01*
X184449500Y-73441420D01*
X184449499Y-73441420D01*
X179131264Y-73441420D01*
X179037376Y-73406402D01*
X179037373Y-73406401D01*
X178977843Y-73400000D01*
X178329999Y-73400000D01*
X178329999Y-74316988D01*
X178272992Y-74284075D01*
X178145825Y-74250000D01*
X178014173Y-74250000D01*
X177887006Y-74284075D01*
X177829999Y-74316988D01*
X177829999Y-73400000D01*
X177182154Y-73400000D01*
X177122626Y-73406401D01*
X177122619Y-73406403D01*
X176987912Y-73456645D01*
X176987905Y-73456649D01*
X176872811Y-73542809D01*
X176872808Y-73542812D01*
X176786648Y-73657906D01*
X176786645Y-73657912D01*
X176737576Y-73789471D01*
X176695704Y-73845404D01*
X176630240Y-73869821D01*
X176561967Y-73854969D01*
X176533713Y-73833818D01*
X176419785Y-73719890D01*
X176247819Y-73594951D01*
X176058413Y-73498444D01*
X176058412Y-73498443D01*
X176058411Y-73498443D01*
X175856242Y-73432754D01*
X175856240Y-73432753D01*
X175856239Y-73432753D01*
X175694956Y-73407208D01*
X175646286Y-73399500D01*
X175433712Y-73399500D01*
X175385041Y-73407208D01*
X175223759Y-73432753D01*
X175021584Y-73498444D01*
X174832178Y-73594951D01*
X174660212Y-73719890D01*
X174509889Y-73870213D01*
X174384947Y-74042183D01*
X174380481Y-74050949D01*
X174332505Y-74101742D01*
X174264683Y-74118535D01*
X174198549Y-74095995D01*
X174159513Y-74050942D01*
X174155051Y-74042184D01*
X174155049Y-74042181D01*
X174155048Y-74042179D01*
X174030109Y-73870213D01*
X173879786Y-73719890D01*
X173707820Y-73594951D01*
X173518414Y-73498444D01*
X173518413Y-73498443D01*
X173518412Y-73498443D01*
X173316243Y-73432754D01*
X173316241Y-73432753D01*
X173316240Y-73432753D01*
X173154957Y-73407208D01*
X173106287Y-73399500D01*
X172893713Y-73399500D01*
X172845042Y-73407208D01*
X172683760Y-73432753D01*
X172481585Y-73498444D01*
X172292179Y-73594951D01*
X172120213Y-73719890D01*
X171969890Y-73870213D01*
X171844948Y-74042184D01*
X171844946Y-74042187D01*
X171840481Y-74050950D01*
X171792505Y-74101744D01*
X171724683Y-74118537D01*
X171658549Y-74095997D01*
X171619513Y-74050944D01*
X171619512Y-74050942D01*
X171615050Y-74042184D01*
X171615048Y-74042181D01*
X171615047Y-74042179D01*
X171490108Y-73870213D01*
X171339785Y-73719890D01*
X171167819Y-73594951D01*
X170978413Y-73498444D01*
X170978412Y-73498443D01*
X170978411Y-73498443D01*
X170776242Y-73432754D01*
X170776240Y-73432753D01*
X170776239Y-73432753D01*
X170614956Y-73407208D01*
X170566286Y-73399500D01*
X170353712Y-73399500D01*
X170305041Y-73407208D01*
X170143759Y-73432753D01*
X169941584Y-73498444D01*
X169752178Y-73594951D01*
X169580212Y-73719890D01*
X169429889Y-73870213D01*
X169304950Y-74042179D01*
X169208443Y-74231585D01*
X169142752Y-74433760D01*
X169141290Y-74442993D01*
X169109499Y-74643713D01*
X163569157Y-74643713D01*
X163545924Y-74557007D01*
X163513011Y-74500000D01*
X164429999Y-74500000D01*
X164429999Y-73852172D01*
X164429998Y-73852155D01*
X164423597Y-73792627D01*
X164423595Y-73792620D01*
X164373353Y-73657913D01*
X164373349Y-73657906D01*
X164287189Y-73542812D01*
X164287186Y-73542809D01*
X164172092Y-73456649D01*
X164172085Y-73456645D01*
X164037378Y-73406403D01*
X164037371Y-73406401D01*
X163977843Y-73400000D01*
X163329999Y-73400000D01*
X163329999Y-74316988D01*
X163272992Y-74284075D01*
X163145825Y-74250000D01*
X163014173Y-74250000D01*
X162887006Y-74284075D01*
X162829999Y-74316988D01*
X162829999Y-73400000D01*
X162182154Y-73400000D01*
X162122626Y-73406401D01*
X162122619Y-73406403D01*
X161987912Y-73456645D01*
X161987905Y-73456649D01*
X161872811Y-73542809D01*
X161872808Y-73542812D01*
X161786648Y-73657906D01*
X161786645Y-73657912D01*
X161737576Y-73789471D01*
X161695704Y-73845404D01*
X161630240Y-73869821D01*
X161561967Y-73854969D01*
X161533713Y-73833818D01*
X161419785Y-73719890D01*
X161247819Y-73594951D01*
X161058413Y-73498444D01*
X161058412Y-73498443D01*
X161058411Y-73498443D01*
X160856242Y-73432754D01*
X160856240Y-73432753D01*
X160856239Y-73432753D01*
X160694956Y-73407208D01*
X160646286Y-73399500D01*
X160433712Y-73399500D01*
X160385041Y-73407208D01*
X160223759Y-73432753D01*
X160021584Y-73498444D01*
X159832178Y-73594951D01*
X159660212Y-73719890D01*
X159509889Y-73870213D01*
X159384947Y-74042183D01*
X159380481Y-74050949D01*
X159332505Y-74101742D01*
X159264683Y-74118535D01*
X159198549Y-74095995D01*
X159159513Y-74050942D01*
X159155051Y-74042184D01*
X159155049Y-74042181D01*
X159155048Y-74042179D01*
X159030109Y-73870213D01*
X158879786Y-73719890D01*
X158707820Y-73594951D01*
X158518414Y-73498444D01*
X158518413Y-73498443D01*
X158518412Y-73498443D01*
X158316243Y-73432754D01*
X158316241Y-73432753D01*
X158316240Y-73432753D01*
X158154957Y-73407208D01*
X158106287Y-73399500D01*
X157893713Y-73399500D01*
X157845042Y-73407208D01*
X157683760Y-73432753D01*
X157481585Y-73498444D01*
X157292179Y-73594951D01*
X157120213Y-73719890D01*
X156969890Y-73870213D01*
X156844948Y-74042184D01*
X156844946Y-74042187D01*
X156840481Y-74050950D01*
X156792505Y-74101744D01*
X156724683Y-74118537D01*
X156658549Y-74095997D01*
X156619513Y-74050944D01*
X156619512Y-74050942D01*
X156615050Y-74042184D01*
X156615048Y-74042181D01*
X156615047Y-74042179D01*
X156490108Y-73870213D01*
X156339785Y-73719890D01*
X156167819Y-73594951D01*
X155978413Y-73498444D01*
X155978412Y-73498443D01*
X155978411Y-73498443D01*
X155776242Y-73432754D01*
X155776240Y-73432753D01*
X155776239Y-73432753D01*
X155614956Y-73407208D01*
X155566286Y-73399500D01*
X155353712Y-73399500D01*
X155305041Y-73407208D01*
X155143759Y-73432753D01*
X154941584Y-73498444D01*
X154752178Y-73594951D01*
X154580212Y-73719890D01*
X154429889Y-73870213D01*
X154304948Y-74042182D01*
X154300483Y-74050946D01*
X154252508Y-74101742D01*
X154184687Y-74118536D01*
X154118552Y-74095998D01*
X154079515Y-74050946D01*
X154075049Y-74042182D01*
X153950108Y-73870213D01*
X153799785Y-73719890D01*
X153627819Y-73594951D01*
X153438413Y-73498444D01*
X153438412Y-73498443D01*
X153438411Y-73498443D01*
X153236242Y-73432754D01*
X153236240Y-73432753D01*
X153236239Y-73432753D01*
X153074956Y-73407208D01*
X153026286Y-73399500D01*
X152813712Y-73399500D01*
X152765041Y-73407208D01*
X152603759Y-73432753D01*
X152401584Y-73498444D01*
X152212178Y-73594951D01*
X152040212Y-73719890D01*
X151889889Y-73870213D01*
X151764950Y-74042179D01*
X151668443Y-74231585D01*
X151602752Y-74433760D01*
X151601290Y-74442993D01*
X151569499Y-74643713D01*
X149450500Y-74643713D01*
X149450500Y-72756092D01*
X149451097Y-72743939D01*
X149455186Y-72702419D01*
X149464665Y-72606171D01*
X149469403Y-72582349D01*
X149507816Y-72455719D01*
X149517113Y-72433278D01*
X149579485Y-72316587D01*
X149592982Y-72296387D01*
X149676924Y-72194103D01*
X149694103Y-72176924D01*
X149796387Y-72092982D01*
X149816587Y-72079485D01*
X149933278Y-72017113D01*
X149955719Y-72007816D01*
X150082349Y-71969403D01*
X150106173Y-71964665D01*
X150235170Y-71951960D01*
X150243939Y-71951097D01*
X150256092Y-71950500D01*
X150289882Y-71950500D01*
X193360118Y-71950500D01*
X193393908Y-71950500D01*
X193406061Y-71951097D01*
G37*
%TD.AperFunction*%
%TD*%
%TA.AperFunction,Conductor*%
%TO.N,/VBUS*%
G36*
X179726082Y-108250500D02*
G01*
X179873918Y-108250500D01*
X179876432Y-108250000D01*
X185376000Y-108250000D01*
X185443039Y-108269685D01*
X185488794Y-108322489D01*
X185500000Y-108374000D01*
X185500000Y-115156534D01*
X185480315Y-115223573D01*
X185427511Y-115269328D01*
X185358353Y-115279272D01*
X185328548Y-115271095D01*
X185299131Y-115258910D01*
X185299119Y-115258907D01*
X185101007Y-115219500D01*
X185101003Y-115219500D01*
X184898997Y-115219500D01*
X184898992Y-115219500D01*
X184700880Y-115258907D01*
X184700872Y-115258909D01*
X184514247Y-115336212D01*
X184514236Y-115336218D01*
X184476742Y-115361270D01*
X184410065Y-115382146D01*
X184342685Y-115363660D01*
X184295996Y-115311680D01*
X184293293Y-115305618D01*
X184261549Y-115228980D01*
X184261547Y-115228976D01*
X184171211Y-115093779D01*
X184171205Y-115093771D01*
X184056228Y-114978794D01*
X184056220Y-114978788D01*
X183921023Y-114888452D01*
X183921019Y-114888450D01*
X183770793Y-114826225D01*
X183770783Y-114826222D01*
X183611307Y-114794500D01*
X183611305Y-114794500D01*
X183448695Y-114794500D01*
X183448693Y-114794500D01*
X183289216Y-114826222D01*
X183289210Y-114826224D01*
X183233640Y-114849242D01*
X183177451Y-114872516D01*
X183107984Y-114879985D01*
X183082550Y-114872517D01*
X182970789Y-114826224D01*
X182970783Y-114826222D01*
X182811307Y-114794500D01*
X182811305Y-114794500D01*
X182648695Y-114794500D01*
X182648693Y-114794500D01*
X182489216Y-114826222D01*
X182489215Y-114826223D01*
X182489214Y-114826223D01*
X182489211Y-114826224D01*
X182424049Y-114853214D01*
X182376799Y-114872786D01*
X182307329Y-114880254D01*
X182281895Y-114872785D01*
X182170648Y-114826705D01*
X182170636Y-114826702D01*
X182011259Y-114795000D01*
X181881500Y-114795000D01*
X181814461Y-114775315D01*
X181768706Y-114722511D01*
X181757500Y-114671000D01*
X181757500Y-114168194D01*
X181733386Y-114046970D01*
X181733385Y-114046969D01*
X181733385Y-114046965D01*
X181733383Y-114046960D01*
X181686086Y-113932773D01*
X181686079Y-113932760D01*
X181617412Y-113829993D01*
X181617411Y-113829992D01*
X181530008Y-113742589D01*
X179511339Y-111723920D01*
X182099499Y-111723920D01*
X182128340Y-111868907D01*
X182128343Y-111868917D01*
X182184912Y-112005488D01*
X182184919Y-112005501D01*
X182267048Y-112128415D01*
X182267051Y-112128419D01*
X182371580Y-112232948D01*
X182371584Y-112232951D01*
X182494498Y-112315080D01*
X182494511Y-112315087D01*
X182615206Y-112365080D01*
X182631087Y-112371658D01*
X182631091Y-112371658D01*
X182631092Y-112371659D01*
X182776079Y-112400500D01*
X182776082Y-112400500D01*
X182923920Y-112400500D01*
X183021462Y-112381096D01*
X183068913Y-112371658D01*
X183205495Y-112315084D01*
X183328416Y-112232951D01*
X183432951Y-112128416D01*
X183515084Y-112005495D01*
X183571658Y-111868913D01*
X183600500Y-111723918D01*
X183600500Y-111576082D01*
X183600500Y-111576079D01*
X183571659Y-111431092D01*
X183571658Y-111431091D01*
X183571658Y-111431087D01*
X183535792Y-111344498D01*
X183515087Y-111294511D01*
X183515080Y-111294498D01*
X183432951Y-111171584D01*
X183432948Y-111171580D01*
X183328419Y-111067051D01*
X183328415Y-111067048D01*
X183205501Y-110984919D01*
X183205488Y-110984912D01*
X183068917Y-110928343D01*
X183068907Y-110928340D01*
X182923920Y-110899500D01*
X182923918Y-110899500D01*
X182776082Y-110899500D01*
X182776080Y-110899500D01*
X182631092Y-110928340D01*
X182631082Y-110928343D01*
X182494511Y-110984912D01*
X182494498Y-110984919D01*
X182371584Y-111067048D01*
X182371580Y-111067051D01*
X182267051Y-111171580D01*
X182267048Y-111171584D01*
X182184919Y-111294498D01*
X182184912Y-111294511D01*
X182128343Y-111431082D01*
X182128340Y-111431092D01*
X182099500Y-111576079D01*
X182099500Y-111576082D01*
X182099500Y-111723918D01*
X182099500Y-111723920D01*
X182099499Y-111723920D01*
X179511339Y-111723920D01*
X179361453Y-111574034D01*
X179327968Y-111512711D01*
X179327534Y-111510630D01*
X179321658Y-111481087D01*
X179321656Y-111481082D01*
X179265087Y-111344511D01*
X179265080Y-111344498D01*
X179182951Y-111221584D01*
X179182948Y-111221580D01*
X179078419Y-111117051D01*
X179078415Y-111117048D01*
X178955501Y-111034919D01*
X178955488Y-111034912D01*
X178818917Y-110978343D01*
X178818907Y-110978340D01*
X178673920Y-110949500D01*
X178673918Y-110949500D01*
X178526082Y-110949500D01*
X178526080Y-110949500D01*
X178381092Y-110978340D01*
X178381082Y-110978343D01*
X178244511Y-111034912D01*
X178244498Y-111034919D01*
X178121584Y-111117048D01*
X178121580Y-111117051D01*
X178017051Y-111221580D01*
X178017048Y-111221584D01*
X177934919Y-111344498D01*
X177934912Y-111344511D01*
X177878343Y-111481082D01*
X177878340Y-111481092D01*
X177849500Y-111626079D01*
X177849500Y-111626082D01*
X177849500Y-111773918D01*
X177849500Y-111773920D01*
X177849499Y-111773920D01*
X177878340Y-111918907D01*
X177878343Y-111918917D01*
X177934912Y-112055488D01*
X177934919Y-112055501D01*
X178017048Y-112178415D01*
X178017051Y-112178419D01*
X178121580Y-112282948D01*
X178121584Y-112282951D01*
X178244498Y-112365080D01*
X178244511Y-112365087D01*
X178381082Y-112421656D01*
X178381087Y-112421658D01*
X178410543Y-112427517D01*
X178472453Y-112459900D01*
X178474034Y-112461453D01*
X180466181Y-114453600D01*
X180480884Y-114480527D01*
X180497477Y-114506346D01*
X180498368Y-114512546D01*
X180499666Y-114514923D01*
X180502500Y-114541281D01*
X180502500Y-114670500D01*
X180482815Y-114737539D01*
X180430011Y-114783294D01*
X180378500Y-114794500D01*
X180248693Y-114794500D01*
X180089216Y-114826222D01*
X180089215Y-114826223D01*
X180089214Y-114826223D01*
X180089211Y-114826224D01*
X180024049Y-114853214D01*
X179976799Y-114872786D01*
X179907329Y-114880254D01*
X179881895Y-114872785D01*
X179770648Y-114826705D01*
X179770636Y-114826702D01*
X179611259Y-114795000D01*
X179448740Y-114795000D01*
X179289363Y-114826702D01*
X179289360Y-114826703D01*
X179178103Y-114872786D01*
X179108633Y-114880254D01*
X179083199Y-114872785D01*
X178970793Y-114826225D01*
X178970783Y-114826222D01*
X178811307Y-114794500D01*
X178811305Y-114794500D01*
X178648695Y-114794500D01*
X178648693Y-114794500D01*
X178489216Y-114826222D01*
X178489210Y-114826224D01*
X178433640Y-114849242D01*
X178377451Y-114872516D01*
X178307984Y-114879985D01*
X178282550Y-114872517D01*
X178170789Y-114826224D01*
X178170783Y-114826222D01*
X178011307Y-114794500D01*
X178011305Y-114794500D01*
X177848695Y-114794500D01*
X177848693Y-114794500D01*
X177689216Y-114826222D01*
X177689206Y-114826225D01*
X177538980Y-114888450D01*
X177538976Y-114888452D01*
X177403779Y-114978788D01*
X177403771Y-114978794D01*
X177288794Y-115093771D01*
X177288788Y-115093779D01*
X177198452Y-115228976D01*
X177198452Y-115228977D01*
X177166706Y-115305619D01*
X177122865Y-115360023D01*
X177056570Y-115382087D01*
X176988871Y-115364807D01*
X176983255Y-115361269D01*
X176945760Y-115336216D01*
X176945752Y-115336212D01*
X176759127Y-115258909D01*
X176759119Y-115258907D01*
X176561007Y-115219500D01*
X176561003Y-115219500D01*
X176358997Y-115219500D01*
X176358992Y-115219500D01*
X176160880Y-115258907D01*
X176160872Y-115258909D01*
X175974247Y-115336212D01*
X175974237Y-115336217D01*
X175806281Y-115448441D01*
X175663441Y-115591281D01*
X175551217Y-115759237D01*
X175551212Y-115759247D01*
X175473909Y-115945872D01*
X175473907Y-115945880D01*
X175434500Y-116143992D01*
X175434500Y-116376000D01*
X175414815Y-116443039D01*
X175362011Y-116488794D01*
X175310500Y-116500000D01*
X174801362Y-116500000D01*
X174734323Y-116480315D01*
X174713681Y-116463681D01*
X173536319Y-115286319D01*
X173502834Y-115224996D01*
X173500000Y-115198638D01*
X173500000Y-113073920D01*
X176549499Y-113073920D01*
X176578340Y-113218907D01*
X176578343Y-113218917D01*
X176634912Y-113355488D01*
X176634919Y-113355501D01*
X176717048Y-113478415D01*
X176717051Y-113478419D01*
X176821580Y-113582948D01*
X176821584Y-113582951D01*
X176944498Y-113665080D01*
X176944511Y-113665087D01*
X177081082Y-113721656D01*
X177081087Y-113721658D01*
X177081091Y-113721658D01*
X177081092Y-113721659D01*
X177226079Y-113750500D01*
X177226082Y-113750500D01*
X177373920Y-113750500D01*
X177471462Y-113731096D01*
X177518913Y-113721658D01*
X177655495Y-113665084D01*
X177778416Y-113582951D01*
X177882951Y-113478416D01*
X177965084Y-113355495D01*
X178021658Y-113218913D01*
X178050500Y-113073918D01*
X178050500Y-112926082D01*
X178050500Y-112926079D01*
X178021659Y-112781092D01*
X178021658Y-112781091D01*
X178021658Y-112781087D01*
X178021656Y-112781082D01*
X177965087Y-112644511D01*
X177965080Y-112644498D01*
X177882951Y-112521584D01*
X177882948Y-112521580D01*
X177778419Y-112417051D01*
X177778415Y-112417048D01*
X177655501Y-112334919D01*
X177655488Y-112334912D01*
X177518917Y-112278343D01*
X177518907Y-112278340D01*
X177373920Y-112249500D01*
X177373918Y-112249500D01*
X177226082Y-112249500D01*
X177226080Y-112249500D01*
X177081092Y-112278340D01*
X177081082Y-112278343D01*
X176944511Y-112334912D01*
X176944498Y-112334919D01*
X176821584Y-112417048D01*
X176821580Y-112417051D01*
X176717051Y-112521580D01*
X176717048Y-112521584D01*
X176634919Y-112644498D01*
X176634912Y-112644511D01*
X176578343Y-112781082D01*
X176578340Y-112781092D01*
X176549500Y-112926079D01*
X176549500Y-112926082D01*
X176549500Y-113073918D01*
X176549500Y-113073920D01*
X176549499Y-113073920D01*
X173500000Y-113073920D01*
X173500000Y-108801362D01*
X173519685Y-108734323D01*
X173536319Y-108713681D01*
X173963681Y-108286319D01*
X174025004Y-108252834D01*
X174051362Y-108250000D01*
X179723568Y-108250000D01*
X179726082Y-108250500D01*
G37*
%TD.AperFunction*%
%TD*%
%TA.AperFunction,Conductor*%
%TO.N,/+5V_USB*%
G36*
X170015677Y-107769685D02*
G01*
X170036319Y-107786319D01*
X172713681Y-110463681D01*
X172747166Y-110525004D01*
X172750000Y-110551362D01*
X172750000Y-126175500D01*
X172730315Y-126242539D01*
X172677511Y-126288294D01*
X172626000Y-126299500D01*
X150256092Y-126299500D01*
X150243938Y-126298903D01*
X150106180Y-126285335D01*
X150082340Y-126280593D01*
X149955728Y-126242186D01*
X149933271Y-126232883D01*
X149816593Y-126170517D01*
X149796381Y-126157012D01*
X149694108Y-126073079D01*
X149676920Y-126055891D01*
X149592986Y-125953616D01*
X149579482Y-125933406D01*
X149517116Y-125816728D01*
X149507815Y-125794277D01*
X149469404Y-125667652D01*
X149464665Y-125643824D01*
X149451097Y-125506060D01*
X149450500Y-125493907D01*
X149450500Y-123073920D01*
X152999499Y-123073920D01*
X153028340Y-123218907D01*
X153028343Y-123218917D01*
X153073339Y-123327548D01*
X153080808Y-123397017D01*
X153073339Y-123422452D01*
X153028343Y-123531082D01*
X153028340Y-123531092D01*
X152999500Y-123676079D01*
X152999500Y-123676082D01*
X152999500Y-123823918D01*
X152999500Y-123823920D01*
X152999499Y-123823920D01*
X153028340Y-123968907D01*
X153028343Y-123968917D01*
X153073339Y-124077548D01*
X153080808Y-124147017D01*
X153073339Y-124172452D01*
X153028343Y-124281082D01*
X153028340Y-124281092D01*
X152999500Y-124426079D01*
X152999500Y-124426082D01*
X152999500Y-124573918D01*
X152999500Y-124573920D01*
X152999499Y-124573920D01*
X153028340Y-124718907D01*
X153028343Y-124718917D01*
X153084912Y-124855488D01*
X153084919Y-124855501D01*
X153167048Y-124978415D01*
X153167051Y-124978419D01*
X153271580Y-125082948D01*
X153271584Y-125082951D01*
X153394498Y-125165080D01*
X153394511Y-125165087D01*
X153531082Y-125221656D01*
X153531087Y-125221658D01*
X153531091Y-125221658D01*
X153531092Y-125221659D01*
X153676079Y-125250500D01*
X153676082Y-125250500D01*
X153823920Y-125250500D01*
X153921462Y-125231096D01*
X153968913Y-125221658D01*
X154105495Y-125165084D01*
X154228416Y-125082951D01*
X154332951Y-124978416D01*
X154415084Y-124855495D01*
X154471658Y-124718913D01*
X154480608Y-124673920D01*
X169149499Y-124673920D01*
X169178340Y-124818907D01*
X169178343Y-124818917D01*
X169234912Y-124955488D01*
X169234919Y-124955501D01*
X169317048Y-125078415D01*
X169317051Y-125078419D01*
X169421580Y-125182948D01*
X169421584Y-125182951D01*
X169544498Y-125265080D01*
X169544511Y-125265087D01*
X169681082Y-125321656D01*
X169681087Y-125321658D01*
X169681091Y-125321658D01*
X169681092Y-125321659D01*
X169826079Y-125350500D01*
X169826082Y-125350500D01*
X169973920Y-125350500D01*
X170071462Y-125331096D01*
X170118913Y-125321658D01*
X170255495Y-125265084D01*
X170378416Y-125182951D01*
X170482951Y-125078416D01*
X170565084Y-124955495D01*
X170621658Y-124818913D01*
X170650500Y-124673918D01*
X170650500Y-124526082D01*
X170650500Y-124526079D01*
X170621659Y-124381092D01*
X170621658Y-124381091D01*
X170621658Y-124381087D01*
X170580237Y-124281087D01*
X170565087Y-124244511D01*
X170565080Y-124244498D01*
X170482951Y-124121584D01*
X170482948Y-124121580D01*
X170378419Y-124017051D01*
X170378415Y-124017048D01*
X170255501Y-123934919D01*
X170255488Y-123934912D01*
X170118917Y-123878343D01*
X170118907Y-123878340D01*
X169973920Y-123849500D01*
X169973918Y-123849500D01*
X169826082Y-123849500D01*
X169826080Y-123849500D01*
X169681092Y-123878340D01*
X169681082Y-123878343D01*
X169544511Y-123934912D01*
X169544498Y-123934919D01*
X169421584Y-124017048D01*
X169421580Y-124017051D01*
X169317051Y-124121580D01*
X169317048Y-124121584D01*
X169234919Y-124244498D01*
X169234912Y-124244511D01*
X169178343Y-124381082D01*
X169178340Y-124381092D01*
X169149500Y-124526079D01*
X169149500Y-124526082D01*
X169149500Y-124673918D01*
X169149500Y-124673920D01*
X169149499Y-124673920D01*
X154480608Y-124673920D01*
X154500500Y-124573918D01*
X154500500Y-124426082D01*
X154500500Y-124426079D01*
X154471659Y-124281092D01*
X154471658Y-124281091D01*
X154471658Y-124281087D01*
X154426659Y-124172451D01*
X154419191Y-124102984D01*
X154426660Y-124077547D01*
X154471658Y-123968913D01*
X154489675Y-123878340D01*
X154500500Y-123823920D01*
X154500500Y-123676079D01*
X154471659Y-123531092D01*
X154471658Y-123531091D01*
X154471658Y-123531087D01*
X154426659Y-123422451D01*
X154419191Y-123352984D01*
X154426660Y-123327547D01*
X154471658Y-123218913D01*
X154500500Y-123073918D01*
X154500500Y-122926082D01*
X154500500Y-122926079D01*
X154471659Y-122781092D01*
X154471658Y-122781091D01*
X154471658Y-122781087D01*
X154471656Y-122781082D01*
X154415087Y-122644511D01*
X154415080Y-122644498D01*
X154332951Y-122521584D01*
X154332948Y-122521580D01*
X154228419Y-122417051D01*
X154228415Y-122417048D01*
X154105501Y-122334919D01*
X154105488Y-122334912D01*
X153968917Y-122278343D01*
X153968907Y-122278340D01*
X153823920Y-122249500D01*
X153823918Y-122249500D01*
X153676082Y-122249500D01*
X153676080Y-122249500D01*
X153531092Y-122278340D01*
X153531082Y-122278343D01*
X153394511Y-122334912D01*
X153394498Y-122334919D01*
X153271584Y-122417048D01*
X153271580Y-122417051D01*
X153167051Y-122521580D01*
X153167048Y-122521584D01*
X153084919Y-122644498D01*
X153084912Y-122644511D01*
X153028343Y-122781082D01*
X153028340Y-122781092D01*
X152999500Y-122926079D01*
X152999500Y-122926082D01*
X152999500Y-123073918D01*
X152999500Y-123073920D01*
X152999499Y-123073920D01*
X149450500Y-123073920D01*
X149450500Y-119873920D01*
X169949499Y-119873920D01*
X169978340Y-120018907D01*
X169978343Y-120018917D01*
X170034912Y-120155488D01*
X170034919Y-120155501D01*
X170117048Y-120278415D01*
X170117051Y-120278419D01*
X170221580Y-120382948D01*
X170221584Y-120382951D01*
X170344498Y-120465080D01*
X170344511Y-120465087D01*
X170481082Y-120521656D01*
X170481087Y-120521658D01*
X170481091Y-120521658D01*
X170481092Y-120521659D01*
X170626079Y-120550500D01*
X170626082Y-120550500D01*
X170773920Y-120550500D01*
X170871462Y-120531096D01*
X170918913Y-120521658D01*
X171055495Y-120465084D01*
X171178416Y-120382951D01*
X171282951Y-120278416D01*
X171365084Y-120155495D01*
X171421658Y-120018913D01*
X171450500Y-119873918D01*
X171450500Y-119726082D01*
X171450500Y-119726079D01*
X171421659Y-119581092D01*
X171421658Y-119581091D01*
X171421658Y-119581087D01*
X171421656Y-119581082D01*
X171365087Y-119444511D01*
X171365080Y-119444498D01*
X171282951Y-119321584D01*
X171282948Y-119321580D01*
X171178419Y-119217051D01*
X171178415Y-119217048D01*
X171055501Y-119134919D01*
X171055488Y-119134912D01*
X170918917Y-119078343D01*
X170918907Y-119078340D01*
X170773920Y-119049500D01*
X170773918Y-119049500D01*
X170626082Y-119049500D01*
X170626080Y-119049500D01*
X170481092Y-119078340D01*
X170481082Y-119078343D01*
X170344511Y-119134912D01*
X170344498Y-119134919D01*
X170221584Y-119217048D01*
X170221580Y-119217051D01*
X170117051Y-119321580D01*
X170117048Y-119321584D01*
X170034919Y-119444498D01*
X170034912Y-119444511D01*
X169978343Y-119581082D01*
X169978340Y-119581092D01*
X169949500Y-119726079D01*
X169949500Y-119726082D01*
X169949500Y-119873918D01*
X169949500Y-119873920D01*
X169949499Y-119873920D01*
X149450500Y-119873920D01*
X149450500Y-116221153D01*
X159699500Y-116221153D01*
X159699500Y-116378846D01*
X159730261Y-116533489D01*
X159730264Y-116533501D01*
X159790602Y-116679172D01*
X159790609Y-116679185D01*
X159878210Y-116810288D01*
X159878213Y-116810292D01*
X159989707Y-116921786D01*
X159989715Y-116921792D01*
X160052732Y-116963899D01*
X160097538Y-117017511D01*
X160106245Y-117086836D01*
X160105460Y-117091189D01*
X160099500Y-117121155D01*
X160099500Y-117278846D01*
X160130261Y-117433489D01*
X160130264Y-117433501D01*
X160190602Y-117579172D01*
X160190609Y-117579185D01*
X160278210Y-117710288D01*
X160278213Y-117710292D01*
X160389707Y-117821786D01*
X160389711Y-117821789D01*
X160520814Y-117909390D01*
X160520827Y-117909397D01*
X160666498Y-117969735D01*
X160666503Y-117969737D01*
X160821153Y-118000499D01*
X160821156Y-118000500D01*
X160821158Y-118000500D01*
X160978844Y-118000500D01*
X160978845Y-118000499D01*
X161133497Y-117969737D01*
X161279179Y-117909394D01*
X161332270Y-117873920D01*
X164149499Y-117873920D01*
X164178340Y-118018907D01*
X164178343Y-118018917D01*
X164234912Y-118155488D01*
X164234919Y-118155501D01*
X164317048Y-118278415D01*
X164317051Y-118278419D01*
X164421580Y-118382948D01*
X164421584Y-118382951D01*
X164544498Y-118465080D01*
X164544511Y-118465087D01*
X164681082Y-118521656D01*
X164681087Y-118521658D01*
X164681091Y-118521658D01*
X164681092Y-118521659D01*
X164826079Y-118550500D01*
X164826082Y-118550500D01*
X164973920Y-118550500D01*
X165071462Y-118531096D01*
X165118913Y-118521658D01*
X165255495Y-118465084D01*
X165378416Y-118382951D01*
X165482951Y-118278416D01*
X165565084Y-118155495D01*
X165621658Y-118018913D01*
X165650500Y-117873918D01*
X165650500Y-117726082D01*
X165650500Y-117726079D01*
X165621659Y-117581092D01*
X165621658Y-117581091D01*
X165621658Y-117581087D01*
X165597095Y-117521786D01*
X165565087Y-117444511D01*
X165565080Y-117444498D01*
X165482951Y-117321584D01*
X165482948Y-117321580D01*
X165378419Y-117217051D01*
X165378415Y-117217048D01*
X165255501Y-117134919D01*
X165255488Y-117134912D01*
X165118917Y-117078343D01*
X165118907Y-117078340D01*
X164973920Y-117049500D01*
X164973918Y-117049500D01*
X164826082Y-117049500D01*
X164826080Y-117049500D01*
X164681092Y-117078340D01*
X164681082Y-117078343D01*
X164544511Y-117134912D01*
X164544498Y-117134919D01*
X164421584Y-117217048D01*
X164421580Y-117217051D01*
X164317051Y-117321580D01*
X164317048Y-117321584D01*
X164234919Y-117444498D01*
X164234912Y-117444511D01*
X164178343Y-117581082D01*
X164178340Y-117581092D01*
X164149500Y-117726079D01*
X164149500Y-117726082D01*
X164149500Y-117873918D01*
X164149500Y-117873920D01*
X164149499Y-117873920D01*
X161332270Y-117873920D01*
X161410289Y-117821789D01*
X161521789Y-117710289D01*
X161609394Y-117579179D01*
X161669737Y-117433497D01*
X161700500Y-117278842D01*
X161700500Y-117121158D01*
X161700500Y-117121155D01*
X161700499Y-117121153D01*
X161693673Y-117086836D01*
X161669737Y-116966503D01*
X161609534Y-116821158D01*
X161609397Y-116820827D01*
X161609390Y-116820814D01*
X161521789Y-116689711D01*
X161521786Y-116689707D01*
X161410292Y-116578213D01*
X161410288Y-116578210D01*
X161347265Y-116536099D01*
X161302460Y-116482487D01*
X161292247Y-116428253D01*
X161292622Y-116418442D01*
X161300500Y-116378842D01*
X161300500Y-116221158D01*
X161300499Y-116221153D01*
X167164182Y-116221153D01*
X167164182Y-116378846D01*
X167194943Y-116533489D01*
X167194946Y-116533501D01*
X167255284Y-116679172D01*
X167255291Y-116679185D01*
X167342892Y-116810288D01*
X167342895Y-116810292D01*
X167454389Y-116921786D01*
X167454393Y-116921789D01*
X167585496Y-117009390D01*
X167585509Y-117009397D01*
X167682328Y-117049500D01*
X167731185Y-117069737D01*
X167839031Y-117091189D01*
X167885835Y-117100499D01*
X167885838Y-117100500D01*
X167885840Y-117100500D01*
X167933741Y-117100500D01*
X168000780Y-117120185D01*
X168046535Y-117172989D01*
X168048302Y-117177048D01*
X168090602Y-117279172D01*
X168090609Y-117279185D01*
X168178210Y-117410288D01*
X168178213Y-117410292D01*
X168289707Y-117521786D01*
X168289711Y-117521789D01*
X168420814Y-117609390D01*
X168420827Y-117609397D01*
X168566498Y-117669735D01*
X168566503Y-117669737D01*
X168721153Y-117700499D01*
X168721156Y-117700500D01*
X168721158Y-117700500D01*
X168878844Y-117700500D01*
X168878845Y-117700499D01*
X169033497Y-117669737D01*
X169179179Y-117609394D01*
X169310289Y-117521789D01*
X169421789Y-117410289D01*
X169509394Y-117279179D01*
X169569737Y-117133497D01*
X169600500Y-116978842D01*
X169600500Y-116821158D01*
X169600500Y-116821155D01*
X169600499Y-116821153D01*
X169574353Y-116689711D01*
X169569737Y-116666503D01*
X169569735Y-116666498D01*
X169509397Y-116520827D01*
X169509390Y-116520814D01*
X169421789Y-116389711D01*
X169421786Y-116389707D01*
X169310292Y-116278213D01*
X169310288Y-116278210D01*
X169179185Y-116190609D01*
X169179172Y-116190602D01*
X169033501Y-116130264D01*
X169033489Y-116130261D01*
X168878845Y-116099500D01*
X168878842Y-116099500D01*
X168830941Y-116099500D01*
X168763902Y-116079815D01*
X168718147Y-116027011D01*
X168716380Y-116022952D01*
X168674079Y-115920827D01*
X168674072Y-115920814D01*
X168586471Y-115789711D01*
X168586468Y-115789707D01*
X168474974Y-115678213D01*
X168474970Y-115678210D01*
X168343867Y-115590609D01*
X168343854Y-115590602D01*
X168198183Y-115530264D01*
X168198171Y-115530261D01*
X168043527Y-115499500D01*
X168043524Y-115499500D01*
X167885840Y-115499500D01*
X167885837Y-115499500D01*
X167731192Y-115530261D01*
X167731180Y-115530264D01*
X167585509Y-115590602D01*
X167585496Y-115590609D01*
X167454393Y-115678210D01*
X167454389Y-115678213D01*
X167342895Y-115789707D01*
X167342892Y-115789711D01*
X167255291Y-115920814D01*
X167255284Y-115920827D01*
X167194946Y-116066498D01*
X167194943Y-116066510D01*
X167164182Y-116221153D01*
X161300499Y-116221153D01*
X161294423Y-116190609D01*
X161282419Y-116130261D01*
X161269737Y-116066503D01*
X161251698Y-116022952D01*
X161209397Y-115920827D01*
X161209390Y-115920814D01*
X161121789Y-115789711D01*
X161121786Y-115789707D01*
X161010292Y-115678213D01*
X161010288Y-115678210D01*
X160879185Y-115590609D01*
X160879172Y-115590602D01*
X160733501Y-115530264D01*
X160733489Y-115530261D01*
X160578845Y-115499500D01*
X160578842Y-115499500D01*
X160421158Y-115499500D01*
X160421155Y-115499500D01*
X160266510Y-115530261D01*
X160266498Y-115530264D01*
X160120827Y-115590602D01*
X160120814Y-115590609D01*
X159989711Y-115678210D01*
X159989707Y-115678213D01*
X159878213Y-115789707D01*
X159878210Y-115789711D01*
X159790609Y-115920814D01*
X159790602Y-115920827D01*
X159730264Y-116066498D01*
X159730261Y-116066510D01*
X159699500Y-116221153D01*
X149450500Y-116221153D01*
X149450500Y-113481420D01*
X161849499Y-113481420D01*
X161878340Y-113626407D01*
X161878343Y-113626417D01*
X161934912Y-113762988D01*
X161934919Y-113763001D01*
X162017048Y-113885915D01*
X162017051Y-113885919D01*
X162121580Y-113990448D01*
X162121584Y-113990451D01*
X162244498Y-114072580D01*
X162244511Y-114072587D01*
X162381082Y-114129156D01*
X162381087Y-114129158D01*
X162381091Y-114129158D01*
X162381092Y-114129159D01*
X162526079Y-114158000D01*
X162526082Y-114158000D01*
X162673920Y-114158000D01*
X162771462Y-114138596D01*
X162818913Y-114129158D01*
X162955495Y-114072584D01*
X163078416Y-113990451D01*
X163182951Y-113885916D01*
X163265084Y-113762995D01*
X163321658Y-113626413D01*
X163350500Y-113481420D01*
X164149499Y-113481420D01*
X164178340Y-113626407D01*
X164178343Y-113626417D01*
X164234912Y-113762988D01*
X164234919Y-113763001D01*
X164317048Y-113885915D01*
X164317051Y-113885919D01*
X164421580Y-113990448D01*
X164421584Y-113990451D01*
X164544498Y-114072580D01*
X164544511Y-114072587D01*
X164681082Y-114129156D01*
X164681087Y-114129158D01*
X164681091Y-114129158D01*
X164681092Y-114129159D01*
X164826079Y-114158000D01*
X164826082Y-114158000D01*
X164973920Y-114158000D01*
X165071462Y-114138596D01*
X165118913Y-114129158D01*
X165255495Y-114072584D01*
X165378416Y-113990451D01*
X165482951Y-113885916D01*
X165565084Y-113762995D01*
X165621658Y-113626413D01*
X165650500Y-113481420D01*
X166449499Y-113481420D01*
X166478340Y-113626407D01*
X166478343Y-113626417D01*
X166534912Y-113762988D01*
X166534919Y-113763001D01*
X166617048Y-113885915D01*
X166617051Y-113885919D01*
X166721580Y-113990448D01*
X166721584Y-113990451D01*
X166844498Y-114072580D01*
X166844511Y-114072587D01*
X166981082Y-114129156D01*
X166981087Y-114129158D01*
X166981091Y-114129158D01*
X166981092Y-114129159D01*
X167126079Y-114158000D01*
X167126082Y-114158000D01*
X167273920Y-114158000D01*
X167371462Y-114138596D01*
X167418913Y-114129158D01*
X167555495Y-114072584D01*
X167678416Y-113990451D01*
X167782951Y-113885916D01*
X167865084Y-113762995D01*
X167921658Y-113626413D01*
X167950500Y-113481418D01*
X167950500Y-113333582D01*
X167950500Y-113333579D01*
X167921659Y-113188592D01*
X167921658Y-113188591D01*
X167921658Y-113188587D01*
X167921656Y-113188582D01*
X167865087Y-113052011D01*
X167865080Y-113051998D01*
X167782951Y-112929084D01*
X167782948Y-112929080D01*
X167678419Y-112824551D01*
X167678415Y-112824548D01*
X167555501Y-112742419D01*
X167555488Y-112742412D01*
X167418917Y-112685843D01*
X167418907Y-112685840D01*
X167273920Y-112657000D01*
X167273918Y-112657000D01*
X167126082Y-112657000D01*
X167126080Y-112657000D01*
X166981092Y-112685840D01*
X166981082Y-112685843D01*
X166844511Y-112742412D01*
X166844498Y-112742419D01*
X166721584Y-112824548D01*
X166721580Y-112824551D01*
X166617051Y-112929080D01*
X166617048Y-112929084D01*
X166534919Y-113051998D01*
X166534912Y-113052011D01*
X166478343Y-113188582D01*
X166478340Y-113188592D01*
X166449500Y-113333579D01*
X166449500Y-113333582D01*
X166449500Y-113481418D01*
X166449500Y-113481420D01*
X166449499Y-113481420D01*
X165650500Y-113481420D01*
X165650500Y-113481418D01*
X165650500Y-113333582D01*
X165650500Y-113333579D01*
X165621659Y-113188592D01*
X165621658Y-113188591D01*
X165621658Y-113188587D01*
X165621656Y-113188582D01*
X165565087Y-113052011D01*
X165565080Y-113051998D01*
X165482951Y-112929084D01*
X165482948Y-112929080D01*
X165378419Y-112824551D01*
X165378415Y-112824548D01*
X165255501Y-112742419D01*
X165255488Y-112742412D01*
X165118917Y-112685843D01*
X165118907Y-112685840D01*
X164973920Y-112657000D01*
X164973918Y-112657000D01*
X164826082Y-112657000D01*
X164826080Y-112657000D01*
X164681092Y-112685840D01*
X164681082Y-112685843D01*
X164544511Y-112742412D01*
X164544498Y-112742419D01*
X164421584Y-112824548D01*
X164421580Y-112824551D01*
X164317051Y-112929080D01*
X164317048Y-112929084D01*
X164234919Y-113051998D01*
X164234912Y-113052011D01*
X164178343Y-113188582D01*
X164178340Y-113188592D01*
X164149500Y-113333579D01*
X164149500Y-113333582D01*
X164149500Y-113481418D01*
X164149500Y-113481420D01*
X164149499Y-113481420D01*
X163350500Y-113481420D01*
X163350500Y-113481418D01*
X163350500Y-113333582D01*
X163350500Y-113333579D01*
X163321659Y-113188592D01*
X163321658Y-113188591D01*
X163321658Y-113188587D01*
X163321656Y-113188582D01*
X163265087Y-113052011D01*
X163265080Y-113051998D01*
X163182951Y-112929084D01*
X163182948Y-112929080D01*
X163078419Y-112824551D01*
X163078415Y-112824548D01*
X162955501Y-112742419D01*
X162955488Y-112742412D01*
X162818917Y-112685843D01*
X162818907Y-112685840D01*
X162673920Y-112657000D01*
X162673918Y-112657000D01*
X162526082Y-112657000D01*
X162526080Y-112657000D01*
X162381092Y-112685840D01*
X162381082Y-112685843D01*
X162244511Y-112742412D01*
X162244498Y-112742419D01*
X162121584Y-112824548D01*
X162121580Y-112824551D01*
X162017051Y-112929080D01*
X162017048Y-112929084D01*
X161934919Y-113051998D01*
X161934912Y-113052011D01*
X161878343Y-113188582D01*
X161878340Y-113188592D01*
X161849500Y-113333579D01*
X161849500Y-113333582D01*
X161849500Y-113481418D01*
X161849500Y-113481420D01*
X161849499Y-113481420D01*
X149450500Y-113481420D01*
X149450500Y-107874000D01*
X149470185Y-107806961D01*
X149522989Y-107761206D01*
X149574500Y-107750000D01*
X169948638Y-107750000D01*
X170015677Y-107769685D01*
G37*
%TD.AperFunction*%
%TD*%
M02*
